%TF.GenerationSoftware,KiCad,Pcbnew,6.0.10-86aedd382b~118~ubuntu20.04.1*%
%TF.CreationDate,2023-01-07T17:55:22-08:00*%
%TF.ProjectId,coil_terminator_panelized,636f696c-5f74-4657-926d-696e61746f72,rev?*%
%TF.SameCoordinates,Original*%
%TF.FileFunction,Other,Comment*%
%FSLAX46Y46*%
G04 Gerber Fmt 4.6, Leading zero omitted, Abs format (unit mm)*
G04 Created by KiCad (PCBNEW 6.0.10-86aedd382b~118~ubuntu20.04.1) date 2023-01-07 17:55:22*
%MOMM*%
%LPD*%
G01*
G04 APERTURE LIST*
%ADD10C,0.250000*%
%ADD11C,0.125000*%
G04 APERTURE END LIST*
D10*
X160804761Y-104847023D02*
X162804761Y-104180357D01*
X160804761Y-103513690D01*
X162042857Y-102847023D02*
X162042857Y-101323214D01*
X162709523Y-100466071D02*
X162804761Y-100180357D01*
X162804761Y-99704166D01*
X162709523Y-99513690D01*
X162614285Y-99418452D01*
X162423809Y-99323214D01*
X162233333Y-99323214D01*
X162042857Y-99418452D01*
X161947619Y-99513690D01*
X161852380Y-99704166D01*
X161757142Y-100085119D01*
X161661904Y-100275595D01*
X161566666Y-100370833D01*
X161376190Y-100466071D01*
X161185714Y-100466071D01*
X160995238Y-100370833D01*
X160900000Y-100275595D01*
X160804761Y-100085119D01*
X160804761Y-99608928D01*
X160900000Y-99323214D01*
X162614285Y-97323214D02*
X162709523Y-97418452D01*
X162804761Y-97704166D01*
X162804761Y-97894642D01*
X162709523Y-98180357D01*
X162519047Y-98370833D01*
X162328571Y-98466071D01*
X161947619Y-98561309D01*
X161661904Y-98561309D01*
X161280952Y-98466071D01*
X161090476Y-98370833D01*
X160900000Y-98180357D01*
X160804761Y-97894642D01*
X160804761Y-97704166D01*
X160900000Y-97418452D01*
X160995238Y-97323214D01*
X160804761Y-96085119D02*
X160804761Y-95704166D01*
X160900000Y-95513690D01*
X161090476Y-95323214D01*
X161471428Y-95227976D01*
X162138095Y-95227976D01*
X162519047Y-95323214D01*
X162709523Y-95513690D01*
X162804761Y-95704166D01*
X162804761Y-96085119D01*
X162709523Y-96275595D01*
X162519047Y-96466071D01*
X162138095Y-96561309D01*
X161471428Y-96561309D01*
X161090476Y-96466071D01*
X160900000Y-96275595D01*
X160804761Y-96085119D01*
X162804761Y-93227976D02*
X161852380Y-93894642D01*
X162804761Y-94370833D02*
X160804761Y-94370833D01*
X160804761Y-93608928D01*
X160900000Y-93418452D01*
X160995238Y-93323214D01*
X161185714Y-93227976D01*
X161471428Y-93227976D01*
X161661904Y-93323214D01*
X161757142Y-93418452D01*
X161852380Y-93608928D01*
X161852380Y-94370833D01*
X161757142Y-92370833D02*
X161757142Y-91704166D01*
X162804761Y-91418452D02*
X162804761Y-92370833D01*
X160804761Y-92370833D01*
X160804761Y-91418452D01*
X85477976Y-113654761D02*
X86144642Y-115654761D01*
X86811309Y-113654761D01*
X87477976Y-114892857D02*
X89001785Y-114892857D01*
X89858928Y-115559523D02*
X90144642Y-115654761D01*
X90620833Y-115654761D01*
X90811309Y-115559523D01*
X90906547Y-115464285D01*
X91001785Y-115273809D01*
X91001785Y-115083333D01*
X90906547Y-114892857D01*
X90811309Y-114797619D01*
X90620833Y-114702380D01*
X90239880Y-114607142D01*
X90049404Y-114511904D01*
X89954166Y-114416666D01*
X89858928Y-114226190D01*
X89858928Y-114035714D01*
X89954166Y-113845238D01*
X90049404Y-113750000D01*
X90239880Y-113654761D01*
X90716071Y-113654761D01*
X91001785Y-113750000D01*
X93001785Y-115464285D02*
X92906547Y-115559523D01*
X92620833Y-115654761D01*
X92430357Y-115654761D01*
X92144642Y-115559523D01*
X91954166Y-115369047D01*
X91858928Y-115178571D01*
X91763690Y-114797619D01*
X91763690Y-114511904D01*
X91858928Y-114130952D01*
X91954166Y-113940476D01*
X92144642Y-113750000D01*
X92430357Y-113654761D01*
X92620833Y-113654761D01*
X92906547Y-113750000D01*
X93001785Y-113845238D01*
X94239880Y-113654761D02*
X94620833Y-113654761D01*
X94811309Y-113750000D01*
X95001785Y-113940476D01*
X95097023Y-114321428D01*
X95097023Y-114988095D01*
X95001785Y-115369047D01*
X94811309Y-115559523D01*
X94620833Y-115654761D01*
X94239880Y-115654761D01*
X94049404Y-115559523D01*
X93858928Y-115369047D01*
X93763690Y-114988095D01*
X93763690Y-114321428D01*
X93858928Y-113940476D01*
X94049404Y-113750000D01*
X94239880Y-113654761D01*
X97097023Y-115654761D02*
X96430357Y-114702380D01*
X95954166Y-115654761D02*
X95954166Y-113654761D01*
X96716071Y-113654761D01*
X96906547Y-113750000D01*
X97001785Y-113845238D01*
X97097023Y-114035714D01*
X97097023Y-114321428D01*
X97001785Y-114511904D01*
X96906547Y-114607142D01*
X96716071Y-114702380D01*
X95954166Y-114702380D01*
X97954166Y-114607142D02*
X98620833Y-114607142D01*
X98906547Y-115654761D02*
X97954166Y-115654761D01*
X97954166Y-113654761D01*
X98906547Y-113654761D01*
X85477976Y-136454761D02*
X86144642Y-138454761D01*
X86811309Y-136454761D01*
X87477976Y-137692857D02*
X89001785Y-137692857D01*
X89858928Y-138359523D02*
X90144642Y-138454761D01*
X90620833Y-138454761D01*
X90811309Y-138359523D01*
X90906547Y-138264285D01*
X91001785Y-138073809D01*
X91001785Y-137883333D01*
X90906547Y-137692857D01*
X90811309Y-137597619D01*
X90620833Y-137502380D01*
X90239880Y-137407142D01*
X90049404Y-137311904D01*
X89954166Y-137216666D01*
X89858928Y-137026190D01*
X89858928Y-136835714D01*
X89954166Y-136645238D01*
X90049404Y-136550000D01*
X90239880Y-136454761D01*
X90716071Y-136454761D01*
X91001785Y-136550000D01*
X93001785Y-138264285D02*
X92906547Y-138359523D01*
X92620833Y-138454761D01*
X92430357Y-138454761D01*
X92144642Y-138359523D01*
X91954166Y-138169047D01*
X91858928Y-137978571D01*
X91763690Y-137597619D01*
X91763690Y-137311904D01*
X91858928Y-136930952D01*
X91954166Y-136740476D01*
X92144642Y-136550000D01*
X92430357Y-136454761D01*
X92620833Y-136454761D01*
X92906547Y-136550000D01*
X93001785Y-136645238D01*
X94239880Y-136454761D02*
X94620833Y-136454761D01*
X94811309Y-136550000D01*
X95001785Y-136740476D01*
X95097023Y-137121428D01*
X95097023Y-137788095D01*
X95001785Y-138169047D01*
X94811309Y-138359523D01*
X94620833Y-138454761D01*
X94239880Y-138454761D01*
X94049404Y-138359523D01*
X93858928Y-138169047D01*
X93763690Y-137788095D01*
X93763690Y-137121428D01*
X93858928Y-136740476D01*
X94049404Y-136550000D01*
X94239880Y-136454761D01*
X97097023Y-138454761D02*
X96430357Y-137502380D01*
X95954166Y-138454761D02*
X95954166Y-136454761D01*
X96716071Y-136454761D01*
X96906547Y-136550000D01*
X97001785Y-136645238D01*
X97097023Y-136835714D01*
X97097023Y-137121428D01*
X97001785Y-137311904D01*
X96906547Y-137407142D01*
X96716071Y-137502380D01*
X95954166Y-137502380D01*
X97954166Y-137407142D02*
X98620833Y-137407142D01*
X98906547Y-138454761D02*
X97954166Y-138454761D01*
X97954166Y-136454761D01*
X98906547Y-136454761D01*
X105304761Y-104847023D02*
X107304761Y-104180357D01*
X105304761Y-103513690D01*
X106542857Y-102847023D02*
X106542857Y-101323214D01*
X107209523Y-100466071D02*
X107304761Y-100180357D01*
X107304761Y-99704166D01*
X107209523Y-99513690D01*
X107114285Y-99418452D01*
X106923809Y-99323214D01*
X106733333Y-99323214D01*
X106542857Y-99418452D01*
X106447619Y-99513690D01*
X106352380Y-99704166D01*
X106257142Y-100085119D01*
X106161904Y-100275595D01*
X106066666Y-100370833D01*
X105876190Y-100466071D01*
X105685714Y-100466071D01*
X105495238Y-100370833D01*
X105400000Y-100275595D01*
X105304761Y-100085119D01*
X105304761Y-99608928D01*
X105400000Y-99323214D01*
X107114285Y-97323214D02*
X107209523Y-97418452D01*
X107304761Y-97704166D01*
X107304761Y-97894642D01*
X107209523Y-98180357D01*
X107019047Y-98370833D01*
X106828571Y-98466071D01*
X106447619Y-98561309D01*
X106161904Y-98561309D01*
X105780952Y-98466071D01*
X105590476Y-98370833D01*
X105400000Y-98180357D01*
X105304761Y-97894642D01*
X105304761Y-97704166D01*
X105400000Y-97418452D01*
X105495238Y-97323214D01*
X105304761Y-96085119D02*
X105304761Y-95704166D01*
X105400000Y-95513690D01*
X105590476Y-95323214D01*
X105971428Y-95227976D01*
X106638095Y-95227976D01*
X107019047Y-95323214D01*
X107209523Y-95513690D01*
X107304761Y-95704166D01*
X107304761Y-96085119D01*
X107209523Y-96275595D01*
X107019047Y-96466071D01*
X106638095Y-96561309D01*
X105971428Y-96561309D01*
X105590476Y-96466071D01*
X105400000Y-96275595D01*
X105304761Y-96085119D01*
X107304761Y-93227976D02*
X106352380Y-93894642D01*
X107304761Y-94370833D02*
X105304761Y-94370833D01*
X105304761Y-93608928D01*
X105400000Y-93418452D01*
X105495238Y-93323214D01*
X105685714Y-93227976D01*
X105971428Y-93227976D01*
X106161904Y-93323214D01*
X106257142Y-93418452D01*
X106352380Y-93608928D01*
X106352380Y-94370833D01*
X106257142Y-92370833D02*
X106257142Y-91704166D01*
X107304761Y-91418452D02*
X107304761Y-92370833D01*
X105304761Y-92370833D01*
X105304761Y-91418452D01*
X85477976Y-151654761D02*
X86144642Y-153654761D01*
X86811309Y-151654761D01*
X87477976Y-152892857D02*
X89001785Y-152892857D01*
X89858928Y-153559523D02*
X90144642Y-153654761D01*
X90620833Y-153654761D01*
X90811309Y-153559523D01*
X90906547Y-153464285D01*
X91001785Y-153273809D01*
X91001785Y-153083333D01*
X90906547Y-152892857D01*
X90811309Y-152797619D01*
X90620833Y-152702380D01*
X90239880Y-152607142D01*
X90049404Y-152511904D01*
X89954166Y-152416666D01*
X89858928Y-152226190D01*
X89858928Y-152035714D01*
X89954166Y-151845238D01*
X90049404Y-151750000D01*
X90239880Y-151654761D01*
X90716071Y-151654761D01*
X91001785Y-151750000D01*
X93001785Y-153464285D02*
X92906547Y-153559523D01*
X92620833Y-153654761D01*
X92430357Y-153654761D01*
X92144642Y-153559523D01*
X91954166Y-153369047D01*
X91858928Y-153178571D01*
X91763690Y-152797619D01*
X91763690Y-152511904D01*
X91858928Y-152130952D01*
X91954166Y-151940476D01*
X92144642Y-151750000D01*
X92430357Y-151654761D01*
X92620833Y-151654761D01*
X92906547Y-151750000D01*
X93001785Y-151845238D01*
X94239880Y-151654761D02*
X94620833Y-151654761D01*
X94811309Y-151750000D01*
X95001785Y-151940476D01*
X95097023Y-152321428D01*
X95097023Y-152988095D01*
X95001785Y-153369047D01*
X94811309Y-153559523D01*
X94620833Y-153654761D01*
X94239880Y-153654761D01*
X94049404Y-153559523D01*
X93858928Y-153369047D01*
X93763690Y-152988095D01*
X93763690Y-152321428D01*
X93858928Y-151940476D01*
X94049404Y-151750000D01*
X94239880Y-151654761D01*
X97097023Y-153654761D02*
X96430357Y-152702380D01*
X95954166Y-153654761D02*
X95954166Y-151654761D01*
X96716071Y-151654761D01*
X96906547Y-151750000D01*
X97001785Y-151845238D01*
X97097023Y-152035714D01*
X97097023Y-152321428D01*
X97001785Y-152511904D01*
X96906547Y-152607142D01*
X96716071Y-152702380D01*
X95954166Y-152702380D01*
X97954166Y-152607142D02*
X98620833Y-152607142D01*
X98906547Y-153654761D02*
X97954166Y-153654761D01*
X97954166Y-151654761D01*
X98906547Y-151654761D01*
X85477976Y-128854761D02*
X86144642Y-130854761D01*
X86811309Y-128854761D01*
X87477976Y-130092857D02*
X89001785Y-130092857D01*
X89858928Y-130759523D02*
X90144642Y-130854761D01*
X90620833Y-130854761D01*
X90811309Y-130759523D01*
X90906547Y-130664285D01*
X91001785Y-130473809D01*
X91001785Y-130283333D01*
X90906547Y-130092857D01*
X90811309Y-129997619D01*
X90620833Y-129902380D01*
X90239880Y-129807142D01*
X90049404Y-129711904D01*
X89954166Y-129616666D01*
X89858928Y-129426190D01*
X89858928Y-129235714D01*
X89954166Y-129045238D01*
X90049404Y-128950000D01*
X90239880Y-128854761D01*
X90716071Y-128854761D01*
X91001785Y-128950000D01*
X93001785Y-130664285D02*
X92906547Y-130759523D01*
X92620833Y-130854761D01*
X92430357Y-130854761D01*
X92144642Y-130759523D01*
X91954166Y-130569047D01*
X91858928Y-130378571D01*
X91763690Y-129997619D01*
X91763690Y-129711904D01*
X91858928Y-129330952D01*
X91954166Y-129140476D01*
X92144642Y-128950000D01*
X92430357Y-128854761D01*
X92620833Y-128854761D01*
X92906547Y-128950000D01*
X93001785Y-129045238D01*
X94239880Y-128854761D02*
X94620833Y-128854761D01*
X94811309Y-128950000D01*
X95001785Y-129140476D01*
X95097023Y-129521428D01*
X95097023Y-130188095D01*
X95001785Y-130569047D01*
X94811309Y-130759523D01*
X94620833Y-130854761D01*
X94239880Y-130854761D01*
X94049404Y-130759523D01*
X93858928Y-130569047D01*
X93763690Y-130188095D01*
X93763690Y-129521428D01*
X93858928Y-129140476D01*
X94049404Y-128950000D01*
X94239880Y-128854761D01*
X97097023Y-130854761D02*
X96430357Y-129902380D01*
X95954166Y-130854761D02*
X95954166Y-128854761D01*
X96716071Y-128854761D01*
X96906547Y-128950000D01*
X97001785Y-129045238D01*
X97097023Y-129235714D01*
X97097023Y-129521428D01*
X97001785Y-129711904D01*
X96906547Y-129807142D01*
X96716071Y-129902380D01*
X95954166Y-129902380D01*
X97954166Y-129807142D02*
X98620833Y-129807142D01*
X98906547Y-130854761D02*
X97954166Y-130854761D01*
X97954166Y-128854761D01*
X98906547Y-128854761D01*
X85477976Y-174454761D02*
X86144642Y-176454761D01*
X86811309Y-174454761D01*
X87477976Y-175692857D02*
X89001785Y-175692857D01*
X89858928Y-176359523D02*
X90144642Y-176454761D01*
X90620833Y-176454761D01*
X90811309Y-176359523D01*
X90906547Y-176264285D01*
X91001785Y-176073809D01*
X91001785Y-175883333D01*
X90906547Y-175692857D01*
X90811309Y-175597619D01*
X90620833Y-175502380D01*
X90239880Y-175407142D01*
X90049404Y-175311904D01*
X89954166Y-175216666D01*
X89858928Y-175026190D01*
X89858928Y-174835714D01*
X89954166Y-174645238D01*
X90049404Y-174550000D01*
X90239880Y-174454761D01*
X90716071Y-174454761D01*
X91001785Y-174550000D01*
X93001785Y-176264285D02*
X92906547Y-176359523D01*
X92620833Y-176454761D01*
X92430357Y-176454761D01*
X92144642Y-176359523D01*
X91954166Y-176169047D01*
X91858928Y-175978571D01*
X91763690Y-175597619D01*
X91763690Y-175311904D01*
X91858928Y-174930952D01*
X91954166Y-174740476D01*
X92144642Y-174550000D01*
X92430357Y-174454761D01*
X92620833Y-174454761D01*
X92906547Y-174550000D01*
X93001785Y-174645238D01*
X94239880Y-174454761D02*
X94620833Y-174454761D01*
X94811309Y-174550000D01*
X95001785Y-174740476D01*
X95097023Y-175121428D01*
X95097023Y-175788095D01*
X95001785Y-176169047D01*
X94811309Y-176359523D01*
X94620833Y-176454761D01*
X94239880Y-176454761D01*
X94049404Y-176359523D01*
X93858928Y-176169047D01*
X93763690Y-175788095D01*
X93763690Y-175121428D01*
X93858928Y-174740476D01*
X94049404Y-174550000D01*
X94239880Y-174454761D01*
X97097023Y-176454761D02*
X96430357Y-175502380D01*
X95954166Y-176454761D02*
X95954166Y-174454761D01*
X96716071Y-174454761D01*
X96906547Y-174550000D01*
X97001785Y-174645238D01*
X97097023Y-174835714D01*
X97097023Y-175121428D01*
X97001785Y-175311904D01*
X96906547Y-175407142D01*
X96716071Y-175502380D01*
X95954166Y-175502380D01*
X97954166Y-175407142D02*
X98620833Y-175407142D01*
X98906547Y-176454761D02*
X97954166Y-176454761D01*
X97954166Y-174454761D01*
X98906547Y-174454761D01*
D11*
X98607142Y-192752142D02*
X98654761Y-192799761D01*
X98607142Y-192847380D01*
X98559523Y-192799761D01*
X98607142Y-192752142D01*
X98607142Y-192847380D01*
X99083333Y-192752142D02*
X99130952Y-192799761D01*
X99083333Y-192847380D01*
X99035714Y-192799761D01*
X99083333Y-192752142D01*
X99083333Y-192847380D01*
X100273809Y-191799761D02*
X99416666Y-193085476D01*
X100607142Y-192752142D02*
X100654761Y-192799761D01*
X100607142Y-192847380D01*
X100559523Y-192799761D01*
X100607142Y-192752142D01*
X100607142Y-192847380D01*
X101083333Y-192752142D02*
X101130952Y-192799761D01*
X101083333Y-192847380D01*
X101035714Y-192799761D01*
X101083333Y-192752142D01*
X101083333Y-192847380D01*
X102273809Y-191799761D02*
X101416666Y-193085476D01*
X102607142Y-192847380D02*
X102607142Y-192180714D01*
X102607142Y-192371190D02*
X102654761Y-192275952D01*
X102702380Y-192228333D01*
X102797619Y-192180714D01*
X102892857Y-192180714D01*
X103369047Y-192847380D02*
X103273809Y-192799761D01*
X103226190Y-192752142D01*
X103178571Y-192656904D01*
X103178571Y-192371190D01*
X103226190Y-192275952D01*
X103273809Y-192228333D01*
X103369047Y-192180714D01*
X103511904Y-192180714D01*
X103607142Y-192228333D01*
X103654761Y-192275952D01*
X103702380Y-192371190D01*
X103702380Y-192656904D01*
X103654761Y-192752142D01*
X103607142Y-192799761D01*
X103511904Y-192847380D01*
X103369047Y-192847380D01*
X104559523Y-192180714D02*
X104559523Y-192990238D01*
X104511904Y-193085476D01*
X104464285Y-193133095D01*
X104369047Y-193180714D01*
X104226190Y-193180714D01*
X104130952Y-193133095D01*
X104559523Y-192799761D02*
X104464285Y-192847380D01*
X104273809Y-192847380D01*
X104178571Y-192799761D01*
X104130952Y-192752142D01*
X104083333Y-192656904D01*
X104083333Y-192371190D01*
X104130952Y-192275952D01*
X104178571Y-192228333D01*
X104273809Y-192180714D01*
X104464285Y-192180714D01*
X104559523Y-192228333D01*
X105178571Y-192847380D02*
X105083333Y-192799761D01*
X105035714Y-192752142D01*
X104988095Y-192656904D01*
X104988095Y-192371190D01*
X105035714Y-192275952D01*
X105083333Y-192228333D01*
X105178571Y-192180714D01*
X105321428Y-192180714D01*
X105416666Y-192228333D01*
X105464285Y-192275952D01*
X105511904Y-192371190D01*
X105511904Y-192656904D01*
X105464285Y-192752142D01*
X105416666Y-192799761D01*
X105321428Y-192847380D01*
X105178571Y-192847380D01*
X105845238Y-192180714D02*
X106035714Y-192847380D01*
X106226190Y-192371190D01*
X106416666Y-192847380D01*
X106607142Y-192180714D01*
X106940476Y-192799761D02*
X107035714Y-192847380D01*
X107226190Y-192847380D01*
X107321428Y-192799761D01*
X107369047Y-192704523D01*
X107369047Y-192656904D01*
X107321428Y-192561666D01*
X107226190Y-192514047D01*
X107083333Y-192514047D01*
X106988095Y-192466428D01*
X106940476Y-192371190D01*
X106940476Y-192323571D01*
X106988095Y-192228333D01*
X107083333Y-192180714D01*
X107226190Y-192180714D01*
X107321428Y-192228333D01*
X107797619Y-192847380D02*
X107797619Y-191847380D01*
X107892857Y-192466428D02*
X108178571Y-192847380D01*
X108178571Y-192180714D02*
X107797619Y-192561666D01*
X108607142Y-192847380D02*
X108607142Y-192180714D01*
X108607142Y-191847380D02*
X108559523Y-191895000D01*
X108607142Y-191942619D01*
X108654761Y-191895000D01*
X108607142Y-191847380D01*
X108607142Y-191942619D01*
X109083333Y-192466428D02*
X109845238Y-192466428D01*
X110321428Y-192847380D02*
X110321428Y-192180714D01*
X110321428Y-192371190D02*
X110369047Y-192275952D01*
X110416666Y-192228333D01*
X110511904Y-192180714D01*
X110607142Y-192180714D01*
X111321428Y-192799761D02*
X111226190Y-192847380D01*
X111035714Y-192847380D01*
X110940476Y-192799761D01*
X110892857Y-192704523D01*
X110892857Y-192323571D01*
X110940476Y-192228333D01*
X111035714Y-192180714D01*
X111226190Y-192180714D01*
X111321428Y-192228333D01*
X111369047Y-192323571D01*
X111369047Y-192418809D01*
X110892857Y-192514047D01*
X111940476Y-192847380D02*
X111845238Y-192799761D01*
X111797619Y-192704523D01*
X111797619Y-191847380D01*
X112321428Y-192847380D02*
X112321428Y-192180714D01*
X112321428Y-191847380D02*
X112273809Y-191895000D01*
X112321428Y-191942619D01*
X112369047Y-191895000D01*
X112321428Y-191847380D01*
X112321428Y-191942619D01*
X113178571Y-192799761D02*
X113083333Y-192847380D01*
X112892857Y-192847380D01*
X112797619Y-192799761D01*
X112750000Y-192704523D01*
X112750000Y-192323571D01*
X112797619Y-192228333D01*
X112892857Y-192180714D01*
X113083333Y-192180714D01*
X113178571Y-192228333D01*
X113226190Y-192323571D01*
X113226190Y-192418809D01*
X112750000Y-192514047D01*
X113511904Y-192180714D02*
X113892857Y-192180714D01*
X113654761Y-192847380D02*
X113654761Y-191990238D01*
X113702380Y-191895000D01*
X113797619Y-191847380D01*
X113892857Y-191847380D01*
X114940476Y-191799761D02*
X114083333Y-193085476D01*
X115273809Y-192180714D02*
X115273809Y-193180714D01*
X115273809Y-192228333D02*
X115369047Y-192180714D01*
X115559523Y-192180714D01*
X115654761Y-192228333D01*
X115702380Y-192275952D01*
X115750000Y-192371190D01*
X115750000Y-192656904D01*
X115702380Y-192752142D01*
X115654761Y-192799761D01*
X115559523Y-192847380D01*
X115369047Y-192847380D01*
X115273809Y-192799761D01*
X116607142Y-192799761D02*
X116511904Y-192847380D01*
X116321428Y-192847380D01*
X116226190Y-192799761D01*
X116178571Y-192752142D01*
X116130952Y-192656904D01*
X116130952Y-192371190D01*
X116178571Y-192275952D01*
X116226190Y-192228333D01*
X116321428Y-192180714D01*
X116511904Y-192180714D01*
X116607142Y-192228333D01*
X117035714Y-192847380D02*
X117035714Y-191847380D01*
X117035714Y-192228333D02*
X117130952Y-192180714D01*
X117321428Y-192180714D01*
X117416666Y-192228333D01*
X117464285Y-192275952D01*
X117511904Y-192371190D01*
X117511904Y-192656904D01*
X117464285Y-192752142D01*
X117416666Y-192799761D01*
X117321428Y-192847380D01*
X117130952Y-192847380D01*
X117035714Y-192799761D01*
X118654761Y-191799761D02*
X117797619Y-193085476D01*
X119416666Y-192799761D02*
X119321428Y-192847380D01*
X119130952Y-192847380D01*
X119035714Y-192799761D01*
X118988095Y-192752142D01*
X118940476Y-192656904D01*
X118940476Y-192371190D01*
X118988095Y-192275952D01*
X119035714Y-192228333D01*
X119130952Y-192180714D01*
X119321428Y-192180714D01*
X119416666Y-192228333D01*
X119988095Y-192847380D02*
X119892857Y-192799761D01*
X119845238Y-192752142D01*
X119797619Y-192656904D01*
X119797619Y-192371190D01*
X119845238Y-192275952D01*
X119892857Y-192228333D01*
X119988095Y-192180714D01*
X120130952Y-192180714D01*
X120226190Y-192228333D01*
X120273809Y-192275952D01*
X120321428Y-192371190D01*
X120321428Y-192656904D01*
X120273809Y-192752142D01*
X120226190Y-192799761D01*
X120130952Y-192847380D01*
X119988095Y-192847380D01*
X120750000Y-192847380D02*
X120750000Y-192180714D01*
X120750000Y-191847380D02*
X120702380Y-191895000D01*
X120750000Y-191942619D01*
X120797619Y-191895000D01*
X120750000Y-191847380D01*
X120750000Y-191942619D01*
X121369047Y-192847380D02*
X121273809Y-192799761D01*
X121226190Y-192704523D01*
X121226190Y-191847380D01*
X121511904Y-192942619D02*
X122273809Y-192942619D01*
X122369047Y-192180714D02*
X122750000Y-192180714D01*
X122511904Y-191847380D02*
X122511904Y-192704523D01*
X122559523Y-192799761D01*
X122654761Y-192847380D01*
X122750000Y-192847380D01*
X123464285Y-192799761D02*
X123369047Y-192847380D01*
X123178571Y-192847380D01*
X123083333Y-192799761D01*
X123035714Y-192704523D01*
X123035714Y-192323571D01*
X123083333Y-192228333D01*
X123178571Y-192180714D01*
X123369047Y-192180714D01*
X123464285Y-192228333D01*
X123511904Y-192323571D01*
X123511904Y-192418809D01*
X123035714Y-192514047D01*
X123940476Y-192847380D02*
X123940476Y-192180714D01*
X123940476Y-192371190D02*
X123988095Y-192275952D01*
X124035714Y-192228333D01*
X124130952Y-192180714D01*
X124226190Y-192180714D01*
X124559523Y-192847380D02*
X124559523Y-192180714D01*
X124559523Y-192275952D02*
X124607142Y-192228333D01*
X124702380Y-192180714D01*
X124845238Y-192180714D01*
X124940476Y-192228333D01*
X124988095Y-192323571D01*
X124988095Y-192847380D01*
X124988095Y-192323571D02*
X125035714Y-192228333D01*
X125130952Y-192180714D01*
X125273809Y-192180714D01*
X125369047Y-192228333D01*
X125416666Y-192323571D01*
X125416666Y-192847380D01*
X125892857Y-192847380D02*
X125892857Y-192180714D01*
X125892857Y-191847380D02*
X125845238Y-191895000D01*
X125892857Y-191942619D01*
X125940476Y-191895000D01*
X125892857Y-191847380D01*
X125892857Y-191942619D01*
X126369047Y-192180714D02*
X126369047Y-192847380D01*
X126369047Y-192275952D02*
X126416666Y-192228333D01*
X126511904Y-192180714D01*
X126654761Y-192180714D01*
X126750000Y-192228333D01*
X126797619Y-192323571D01*
X126797619Y-192847380D01*
X127702380Y-192847380D02*
X127702380Y-192323571D01*
X127654761Y-192228333D01*
X127559523Y-192180714D01*
X127369047Y-192180714D01*
X127273809Y-192228333D01*
X127702380Y-192799761D02*
X127607142Y-192847380D01*
X127369047Y-192847380D01*
X127273809Y-192799761D01*
X127226190Y-192704523D01*
X127226190Y-192609285D01*
X127273809Y-192514047D01*
X127369047Y-192466428D01*
X127607142Y-192466428D01*
X127702380Y-192418809D01*
X128035714Y-192180714D02*
X128416666Y-192180714D01*
X128178571Y-191847380D02*
X128178571Y-192704523D01*
X128226190Y-192799761D01*
X128321428Y-192847380D01*
X128416666Y-192847380D01*
X128892857Y-192847380D02*
X128797619Y-192799761D01*
X128750000Y-192752142D01*
X128702380Y-192656904D01*
X128702380Y-192371190D01*
X128750000Y-192275952D01*
X128797619Y-192228333D01*
X128892857Y-192180714D01*
X129035714Y-192180714D01*
X129130952Y-192228333D01*
X129178571Y-192275952D01*
X129226190Y-192371190D01*
X129226190Y-192656904D01*
X129178571Y-192752142D01*
X129130952Y-192799761D01*
X129035714Y-192847380D01*
X128892857Y-192847380D01*
X129654761Y-192847380D02*
X129654761Y-192180714D01*
X129654761Y-192371190D02*
X129702380Y-192275952D01*
X129750000Y-192228333D01*
X129845238Y-192180714D01*
X129940476Y-192180714D01*
X130988095Y-191799761D02*
X130130952Y-193085476D01*
X131750000Y-192799761D02*
X131654761Y-192847380D01*
X131464285Y-192847380D01*
X131369047Y-192799761D01*
X131321428Y-192752142D01*
X131273809Y-192656904D01*
X131273809Y-192371190D01*
X131321428Y-192275952D01*
X131369047Y-192228333D01*
X131464285Y-192180714D01*
X131654761Y-192180714D01*
X131750000Y-192228333D01*
X132321428Y-192847380D02*
X132226190Y-192799761D01*
X132178571Y-192752142D01*
X132130952Y-192656904D01*
X132130952Y-192371190D01*
X132178571Y-192275952D01*
X132226190Y-192228333D01*
X132321428Y-192180714D01*
X132464285Y-192180714D01*
X132559523Y-192228333D01*
X132607142Y-192275952D01*
X132654761Y-192371190D01*
X132654761Y-192656904D01*
X132607142Y-192752142D01*
X132559523Y-192799761D01*
X132464285Y-192847380D01*
X132321428Y-192847380D01*
X133083333Y-192847380D02*
X133083333Y-192180714D01*
X133083333Y-191847380D02*
X133035714Y-191895000D01*
X133083333Y-191942619D01*
X133130952Y-191895000D01*
X133083333Y-191847380D01*
X133083333Y-191942619D01*
X133702380Y-192847380D02*
X133607142Y-192799761D01*
X133559523Y-192704523D01*
X133559523Y-191847380D01*
X133845238Y-192942619D02*
X134607142Y-192942619D01*
X134702380Y-192180714D02*
X135083333Y-192180714D01*
X134845238Y-191847380D02*
X134845238Y-192704523D01*
X134892857Y-192799761D01*
X134988095Y-192847380D01*
X135083333Y-192847380D01*
X135797619Y-192799761D02*
X135702380Y-192847380D01*
X135511904Y-192847380D01*
X135416666Y-192799761D01*
X135369047Y-192704523D01*
X135369047Y-192323571D01*
X135416666Y-192228333D01*
X135511904Y-192180714D01*
X135702380Y-192180714D01*
X135797619Y-192228333D01*
X135845238Y-192323571D01*
X135845238Y-192418809D01*
X135369047Y-192514047D01*
X136273809Y-192847380D02*
X136273809Y-192180714D01*
X136273809Y-192371190D02*
X136321428Y-192275952D01*
X136369047Y-192228333D01*
X136464285Y-192180714D01*
X136559523Y-192180714D01*
X136892857Y-192847380D02*
X136892857Y-192180714D01*
X136892857Y-192275952D02*
X136940476Y-192228333D01*
X137035714Y-192180714D01*
X137178571Y-192180714D01*
X137273809Y-192228333D01*
X137321428Y-192323571D01*
X137321428Y-192847380D01*
X137321428Y-192323571D02*
X137369047Y-192228333D01*
X137464285Y-192180714D01*
X137607142Y-192180714D01*
X137702380Y-192228333D01*
X137750000Y-192323571D01*
X137750000Y-192847380D01*
X138226190Y-192847380D02*
X138226190Y-192180714D01*
X138226190Y-191847380D02*
X138178571Y-191895000D01*
X138226190Y-191942619D01*
X138273809Y-191895000D01*
X138226190Y-191847380D01*
X138226190Y-191942619D01*
X138702380Y-192180714D02*
X138702380Y-192847380D01*
X138702380Y-192275952D02*
X138750000Y-192228333D01*
X138845238Y-192180714D01*
X138988095Y-192180714D01*
X139083333Y-192228333D01*
X139130952Y-192323571D01*
X139130952Y-192847380D01*
X140035714Y-192847380D02*
X140035714Y-192323571D01*
X139988095Y-192228333D01*
X139892857Y-192180714D01*
X139702380Y-192180714D01*
X139607142Y-192228333D01*
X140035714Y-192799761D02*
X139940476Y-192847380D01*
X139702380Y-192847380D01*
X139607142Y-192799761D01*
X139559523Y-192704523D01*
X139559523Y-192609285D01*
X139607142Y-192514047D01*
X139702380Y-192466428D01*
X139940476Y-192466428D01*
X140035714Y-192418809D01*
X140369047Y-192180714D02*
X140750000Y-192180714D01*
X140511904Y-191847380D02*
X140511904Y-192704523D01*
X140559523Y-192799761D01*
X140654761Y-192847380D01*
X140750000Y-192847380D01*
X141226190Y-192847380D02*
X141130952Y-192799761D01*
X141083333Y-192752142D01*
X141035714Y-192656904D01*
X141035714Y-192371190D01*
X141083333Y-192275952D01*
X141130952Y-192228333D01*
X141226190Y-192180714D01*
X141369047Y-192180714D01*
X141464285Y-192228333D01*
X141511904Y-192275952D01*
X141559523Y-192371190D01*
X141559523Y-192656904D01*
X141511904Y-192752142D01*
X141464285Y-192799761D01*
X141369047Y-192847380D01*
X141226190Y-192847380D01*
X141988095Y-192847380D02*
X141988095Y-192180714D01*
X141988095Y-192371190D02*
X142035714Y-192275952D01*
X142083333Y-192228333D01*
X142178571Y-192180714D01*
X142273809Y-192180714D01*
X142369047Y-192942619D02*
X143130952Y-192942619D01*
X143369047Y-192180714D02*
X143369047Y-193180714D01*
X143369047Y-192228333D02*
X143464285Y-192180714D01*
X143654761Y-192180714D01*
X143750000Y-192228333D01*
X143797619Y-192275952D01*
X143845238Y-192371190D01*
X143845238Y-192656904D01*
X143797619Y-192752142D01*
X143750000Y-192799761D01*
X143654761Y-192847380D01*
X143464285Y-192847380D01*
X143369047Y-192799761D01*
X144702380Y-192847380D02*
X144702380Y-192323571D01*
X144654761Y-192228333D01*
X144559523Y-192180714D01*
X144369047Y-192180714D01*
X144273809Y-192228333D01*
X144702380Y-192799761D02*
X144607142Y-192847380D01*
X144369047Y-192847380D01*
X144273809Y-192799761D01*
X144226190Y-192704523D01*
X144226190Y-192609285D01*
X144273809Y-192514047D01*
X144369047Y-192466428D01*
X144607142Y-192466428D01*
X144702380Y-192418809D01*
X145178571Y-192180714D02*
X145178571Y-192847380D01*
X145178571Y-192275952D02*
X145226190Y-192228333D01*
X145321428Y-192180714D01*
X145464285Y-192180714D01*
X145559523Y-192228333D01*
X145607142Y-192323571D01*
X145607142Y-192847380D01*
X146464285Y-192799761D02*
X146369047Y-192847380D01*
X146178571Y-192847380D01*
X146083333Y-192799761D01*
X146035714Y-192704523D01*
X146035714Y-192323571D01*
X146083333Y-192228333D01*
X146178571Y-192180714D01*
X146369047Y-192180714D01*
X146464285Y-192228333D01*
X146511904Y-192323571D01*
X146511904Y-192418809D01*
X146035714Y-192514047D01*
X147083333Y-192847380D02*
X146988095Y-192799761D01*
X146940476Y-192704523D01*
X146940476Y-191847380D01*
X147464285Y-192847380D02*
X147464285Y-192180714D01*
X147464285Y-191847380D02*
X147416666Y-191895000D01*
X147464285Y-191942619D01*
X147511904Y-191895000D01*
X147464285Y-191847380D01*
X147464285Y-191942619D01*
X147845238Y-192180714D02*
X148369047Y-192180714D01*
X147845238Y-192847380D01*
X148369047Y-192847380D01*
X149130952Y-192799761D02*
X149035714Y-192847380D01*
X148845238Y-192847380D01*
X148750000Y-192799761D01*
X148702380Y-192704523D01*
X148702380Y-192323571D01*
X148750000Y-192228333D01*
X148845238Y-192180714D01*
X149035714Y-192180714D01*
X149130952Y-192228333D01*
X149178571Y-192323571D01*
X149178571Y-192418809D01*
X148702380Y-192514047D01*
X150035714Y-192847380D02*
X150035714Y-191847380D01*
X150035714Y-192799761D02*
X149940476Y-192847380D01*
X149750000Y-192847380D01*
X149654761Y-192799761D01*
X149607142Y-192752142D01*
X149559523Y-192656904D01*
X149559523Y-192371190D01*
X149607142Y-192275952D01*
X149654761Y-192228333D01*
X149750000Y-192180714D01*
X149940476Y-192180714D01*
X150035714Y-192228333D01*
X150511904Y-192752142D02*
X150559523Y-192799761D01*
X150511904Y-192847380D01*
X150464285Y-192799761D01*
X150511904Y-192752142D01*
X150511904Y-192847380D01*
X150988095Y-192847380D02*
X150988095Y-191847380D01*
X151083333Y-192466428D02*
X151369047Y-192847380D01*
X151369047Y-192180714D02*
X150988095Y-192561666D01*
X151797619Y-192847380D02*
X151797619Y-192180714D01*
X151797619Y-191847380D02*
X151750000Y-191895000D01*
X151797619Y-191942619D01*
X151845238Y-191895000D01*
X151797619Y-191847380D01*
X151797619Y-191942619D01*
X152702380Y-192799761D02*
X152607142Y-192847380D01*
X152416666Y-192847380D01*
X152321428Y-192799761D01*
X152273809Y-192752142D01*
X152226190Y-192656904D01*
X152226190Y-192371190D01*
X152273809Y-192275952D01*
X152321428Y-192228333D01*
X152416666Y-192180714D01*
X152607142Y-192180714D01*
X152702380Y-192228333D01*
X153559523Y-192847380D02*
X153559523Y-192323571D01*
X153511904Y-192228333D01*
X153416666Y-192180714D01*
X153226190Y-192180714D01*
X153130952Y-192228333D01*
X153559523Y-192799761D02*
X153464285Y-192847380D01*
X153226190Y-192847380D01*
X153130952Y-192799761D01*
X153083333Y-192704523D01*
X153083333Y-192609285D01*
X153130952Y-192514047D01*
X153226190Y-192466428D01*
X153464285Y-192466428D01*
X153559523Y-192418809D01*
X154464285Y-192847380D02*
X154464285Y-191847380D01*
X154464285Y-192799761D02*
X154369047Y-192847380D01*
X154178571Y-192847380D01*
X154083333Y-192799761D01*
X154035714Y-192752142D01*
X153988095Y-192656904D01*
X153988095Y-192371190D01*
X154035714Y-192275952D01*
X154083333Y-192228333D01*
X154178571Y-192180714D01*
X154369047Y-192180714D01*
X154464285Y-192228333D01*
X154702380Y-192942619D02*
X155464285Y-192942619D01*
X155702380Y-192180714D02*
X155702380Y-193180714D01*
X155702380Y-192228333D02*
X155797619Y-192180714D01*
X155988095Y-192180714D01*
X156083333Y-192228333D01*
X156130952Y-192275952D01*
X156178571Y-192371190D01*
X156178571Y-192656904D01*
X156130952Y-192752142D01*
X156083333Y-192799761D01*
X155988095Y-192847380D01*
X155797619Y-192847380D01*
X155702380Y-192799761D01*
X157035714Y-192799761D02*
X156940476Y-192847380D01*
X156750000Y-192847380D01*
X156654761Y-192799761D01*
X156607142Y-192752142D01*
X156559523Y-192656904D01*
X156559523Y-192371190D01*
X156607142Y-192275952D01*
X156654761Y-192228333D01*
X156750000Y-192180714D01*
X156940476Y-192180714D01*
X157035714Y-192228333D01*
X157464285Y-192847380D02*
X157464285Y-191847380D01*
X157464285Y-192228333D02*
X157559523Y-192180714D01*
X157750000Y-192180714D01*
X157845238Y-192228333D01*
X157892857Y-192275952D01*
X157940476Y-192371190D01*
X157940476Y-192656904D01*
X157892857Y-192752142D01*
X157845238Y-192799761D01*
X157750000Y-192847380D01*
X157559523Y-192847380D01*
X157464285Y-192799761D01*
X159416666Y-193228333D02*
X159369047Y-193180714D01*
X159273809Y-193037857D01*
X159226190Y-192942619D01*
X159178571Y-192799761D01*
X159130952Y-192561666D01*
X159130952Y-192371190D01*
X159178571Y-192133095D01*
X159226190Y-191990238D01*
X159273809Y-191895000D01*
X159369047Y-191752142D01*
X159416666Y-191704523D01*
X160226190Y-191847380D02*
X160035714Y-191847380D01*
X159940476Y-191895000D01*
X159892857Y-191942619D01*
X159797619Y-192085476D01*
X159750000Y-192275952D01*
X159750000Y-192656904D01*
X159797619Y-192752142D01*
X159845238Y-192799761D01*
X159940476Y-192847380D01*
X160130952Y-192847380D01*
X160226190Y-192799761D01*
X160273809Y-192752142D01*
X160321428Y-192656904D01*
X160321428Y-192418809D01*
X160273809Y-192323571D01*
X160226190Y-192275952D01*
X160130952Y-192228333D01*
X159940476Y-192228333D01*
X159845238Y-192275952D01*
X159797619Y-192323571D01*
X159750000Y-192418809D01*
X160654761Y-192847380D02*
X161178571Y-192180714D01*
X160654761Y-192180714D02*
X161178571Y-192847380D01*
X162083333Y-192847380D02*
X161511904Y-192847380D01*
X161797619Y-192847380D02*
X161797619Y-191847380D01*
X161702380Y-191990238D01*
X161607142Y-192085476D01*
X161511904Y-192133095D01*
X162702380Y-191847380D02*
X162797619Y-191847380D01*
X162892857Y-191895000D01*
X162940476Y-191942619D01*
X162988095Y-192037857D01*
X163035714Y-192228333D01*
X163035714Y-192466428D01*
X162988095Y-192656904D01*
X162940476Y-192752142D01*
X162892857Y-192799761D01*
X162797619Y-192847380D01*
X162702380Y-192847380D01*
X162607142Y-192799761D01*
X162559523Y-192752142D01*
X162511904Y-192656904D01*
X162464285Y-192466428D01*
X162464285Y-192228333D01*
X162511904Y-192037857D01*
X162559523Y-191942619D01*
X162607142Y-191895000D01*
X162702380Y-191847380D01*
X164226190Y-192180714D02*
X164226190Y-193180714D01*
X164226190Y-192228333D02*
X164321428Y-192180714D01*
X164511904Y-192180714D01*
X164607142Y-192228333D01*
X164654761Y-192275952D01*
X164702380Y-192371190D01*
X164702380Y-192656904D01*
X164654761Y-192752142D01*
X164607142Y-192799761D01*
X164511904Y-192847380D01*
X164321428Y-192847380D01*
X164226190Y-192799761D01*
X165559523Y-192847380D02*
X165559523Y-192323571D01*
X165511904Y-192228333D01*
X165416666Y-192180714D01*
X165226190Y-192180714D01*
X165130952Y-192228333D01*
X165559523Y-192799761D02*
X165464285Y-192847380D01*
X165226190Y-192847380D01*
X165130952Y-192799761D01*
X165083333Y-192704523D01*
X165083333Y-192609285D01*
X165130952Y-192514047D01*
X165226190Y-192466428D01*
X165464285Y-192466428D01*
X165559523Y-192418809D01*
X166035714Y-192180714D02*
X166035714Y-192847380D01*
X166035714Y-192275952D02*
X166083333Y-192228333D01*
X166178571Y-192180714D01*
X166321428Y-192180714D01*
X166416666Y-192228333D01*
X166464285Y-192323571D01*
X166464285Y-192847380D01*
X167321428Y-192799761D02*
X167226190Y-192847380D01*
X167035714Y-192847380D01*
X166940476Y-192799761D01*
X166892857Y-192704523D01*
X166892857Y-192323571D01*
X166940476Y-192228333D01*
X167035714Y-192180714D01*
X167226190Y-192180714D01*
X167321428Y-192228333D01*
X167369047Y-192323571D01*
X167369047Y-192418809D01*
X166892857Y-192514047D01*
X167940476Y-192847380D02*
X167845238Y-192799761D01*
X167797619Y-192704523D01*
X167797619Y-191847380D01*
X168226190Y-193228333D02*
X168273809Y-193180714D01*
X168369047Y-193037857D01*
X168416666Y-192942619D01*
X168464285Y-192799761D01*
X168511904Y-192561666D01*
X168511904Y-192371190D01*
X168464285Y-192133095D01*
X168416666Y-191990238D01*
X168369047Y-191895000D01*
X168273809Y-191752142D01*
X168226190Y-191704523D01*
X170178571Y-192180714D02*
X170178571Y-192990238D01*
X170130952Y-193085476D01*
X170083333Y-193133095D01*
X169988095Y-193180714D01*
X169845238Y-193180714D01*
X169750000Y-193133095D01*
X170178571Y-192799761D02*
X170083333Y-192847380D01*
X169892857Y-192847380D01*
X169797619Y-192799761D01*
X169750000Y-192752142D01*
X169702380Y-192656904D01*
X169702380Y-192371190D01*
X169750000Y-192275952D01*
X169797619Y-192228333D01*
X169892857Y-192180714D01*
X170083333Y-192180714D01*
X170178571Y-192228333D01*
X171035714Y-192799761D02*
X170940476Y-192847380D01*
X170750000Y-192847380D01*
X170654761Y-192799761D01*
X170607142Y-192704523D01*
X170607142Y-192323571D01*
X170654761Y-192228333D01*
X170750000Y-192180714D01*
X170940476Y-192180714D01*
X171035714Y-192228333D01*
X171083333Y-192323571D01*
X171083333Y-192418809D01*
X170607142Y-192514047D01*
X171511904Y-192180714D02*
X171511904Y-192847380D01*
X171511904Y-192275952D02*
X171559523Y-192228333D01*
X171654761Y-192180714D01*
X171797619Y-192180714D01*
X171892857Y-192228333D01*
X171940476Y-192323571D01*
X171940476Y-192847380D01*
X172797619Y-192799761D02*
X172702380Y-192847380D01*
X172511904Y-192847380D01*
X172416666Y-192799761D01*
X172369047Y-192704523D01*
X172369047Y-192323571D01*
X172416666Y-192228333D01*
X172511904Y-192180714D01*
X172702380Y-192180714D01*
X172797619Y-192228333D01*
X172845238Y-192323571D01*
X172845238Y-192418809D01*
X172369047Y-192514047D01*
X173273809Y-192847380D02*
X173273809Y-192180714D01*
X173273809Y-192371190D02*
X173321428Y-192275952D01*
X173369047Y-192228333D01*
X173464285Y-192180714D01*
X173559523Y-192180714D01*
X174321428Y-192847380D02*
X174321428Y-192323571D01*
X174273809Y-192228333D01*
X174178571Y-192180714D01*
X173988095Y-192180714D01*
X173892857Y-192228333D01*
X174321428Y-192799761D02*
X174226190Y-192847380D01*
X173988095Y-192847380D01*
X173892857Y-192799761D01*
X173845238Y-192704523D01*
X173845238Y-192609285D01*
X173892857Y-192514047D01*
X173988095Y-192466428D01*
X174226190Y-192466428D01*
X174321428Y-192418809D01*
X174654761Y-192180714D02*
X175035714Y-192180714D01*
X174797619Y-191847380D02*
X174797619Y-192704523D01*
X174845238Y-192799761D01*
X174940476Y-192847380D01*
X175035714Y-192847380D01*
X175750000Y-192799761D02*
X175654761Y-192847380D01*
X175464285Y-192847380D01*
X175369047Y-192799761D01*
X175321428Y-192704523D01*
X175321428Y-192323571D01*
X175369047Y-192228333D01*
X175464285Y-192180714D01*
X175654761Y-192180714D01*
X175750000Y-192228333D01*
X175797619Y-192323571D01*
X175797619Y-192418809D01*
X175321428Y-192514047D01*
X176654761Y-192847380D02*
X176654761Y-191847380D01*
X176654761Y-192799761D02*
X176559523Y-192847380D01*
X176369047Y-192847380D01*
X176273809Y-192799761D01*
X176226190Y-192752142D01*
X176178571Y-192656904D01*
X176178571Y-192371190D01*
X176226190Y-192275952D01*
X176273809Y-192228333D01*
X176369047Y-192180714D01*
X176559523Y-192180714D01*
X176654761Y-192228333D01*
X177797619Y-192180714D02*
X177988095Y-192847380D01*
X178178571Y-192371190D01*
X178369047Y-192847380D01*
X178559523Y-192180714D01*
X178940476Y-192847380D02*
X178940476Y-192180714D01*
X178940476Y-191847380D02*
X178892857Y-191895000D01*
X178940476Y-191942619D01*
X178988095Y-191895000D01*
X178940476Y-191847380D01*
X178940476Y-191942619D01*
X179273809Y-192180714D02*
X179654761Y-192180714D01*
X179416666Y-191847380D02*
X179416666Y-192704523D01*
X179464285Y-192799761D01*
X179559523Y-192847380D01*
X179654761Y-192847380D01*
X179988095Y-192847380D02*
X179988095Y-191847380D01*
X180416666Y-192847380D02*
X180416666Y-192323571D01*
X180369047Y-192228333D01*
X180273809Y-192180714D01*
X180130952Y-192180714D01*
X180035714Y-192228333D01*
X179988095Y-192275952D01*
X180892857Y-192752142D02*
X180940476Y-192799761D01*
X180892857Y-192847380D01*
X180845238Y-192799761D01*
X180892857Y-192752142D01*
X180892857Y-192847380D01*
X180892857Y-192228333D02*
X180940476Y-192275952D01*
X180892857Y-192323571D01*
X180845238Y-192275952D01*
X180892857Y-192228333D01*
X180892857Y-192323571D01*
X82226190Y-194362142D02*
X82273809Y-194409761D01*
X82226190Y-194457380D01*
X82178571Y-194409761D01*
X82226190Y-194362142D01*
X82226190Y-194457380D01*
X83416666Y-193409761D02*
X82559523Y-194695476D01*
X83750000Y-193790714D02*
X83750000Y-194790714D01*
X83750000Y-193838333D02*
X83845238Y-193790714D01*
X84035714Y-193790714D01*
X84130952Y-193838333D01*
X84178571Y-193885952D01*
X84226190Y-193981190D01*
X84226190Y-194266904D01*
X84178571Y-194362142D01*
X84130952Y-194409761D01*
X84035714Y-194457380D01*
X83845238Y-194457380D01*
X83750000Y-194409761D01*
X85083333Y-194457380D02*
X85083333Y-193933571D01*
X85035714Y-193838333D01*
X84940476Y-193790714D01*
X84750000Y-193790714D01*
X84654761Y-193838333D01*
X85083333Y-194409761D02*
X84988095Y-194457380D01*
X84750000Y-194457380D01*
X84654761Y-194409761D01*
X84607142Y-194314523D01*
X84607142Y-194219285D01*
X84654761Y-194124047D01*
X84750000Y-194076428D01*
X84988095Y-194076428D01*
X85083333Y-194028809D01*
X85559523Y-193790714D02*
X85559523Y-194457380D01*
X85559523Y-193885952D02*
X85607142Y-193838333D01*
X85702380Y-193790714D01*
X85845238Y-193790714D01*
X85940476Y-193838333D01*
X85988095Y-193933571D01*
X85988095Y-194457380D01*
X86845238Y-194409761D02*
X86750000Y-194457380D01*
X86559523Y-194457380D01*
X86464285Y-194409761D01*
X86416666Y-194314523D01*
X86416666Y-193933571D01*
X86464285Y-193838333D01*
X86559523Y-193790714D01*
X86750000Y-193790714D01*
X86845238Y-193838333D01*
X86892857Y-193933571D01*
X86892857Y-194028809D01*
X86416666Y-194124047D01*
X87464285Y-194457380D02*
X87369047Y-194409761D01*
X87321428Y-194314523D01*
X87321428Y-193457380D01*
X87845238Y-194457380D02*
X87845238Y-193790714D01*
X87845238Y-193457380D02*
X87797619Y-193505000D01*
X87845238Y-193552619D01*
X87892857Y-193505000D01*
X87845238Y-193457380D01*
X87845238Y-193552619D01*
X88226190Y-193790714D02*
X88750000Y-193790714D01*
X88226190Y-194457380D01*
X88750000Y-194457380D01*
X89511904Y-194409761D02*
X89416666Y-194457380D01*
X89226190Y-194457380D01*
X89130952Y-194409761D01*
X89083333Y-194314523D01*
X89083333Y-193933571D01*
X89130952Y-193838333D01*
X89226190Y-193790714D01*
X89416666Y-193790714D01*
X89511904Y-193838333D01*
X89559523Y-193933571D01*
X89559523Y-194028809D01*
X89083333Y-194124047D01*
X89988095Y-194457380D02*
X89988095Y-193790714D01*
X89988095Y-193981190D02*
X90035714Y-193885952D01*
X90083333Y-193838333D01*
X90178571Y-193790714D01*
X90273809Y-193790714D01*
X90607142Y-194362142D02*
X90654761Y-194409761D01*
X90607142Y-194457380D01*
X90559523Y-194409761D01*
X90607142Y-194362142D01*
X90607142Y-194457380D01*
X91083333Y-193790714D02*
X91083333Y-194790714D01*
X91083333Y-193838333D02*
X91178571Y-193790714D01*
X91369047Y-193790714D01*
X91464285Y-193838333D01*
X91511904Y-193885952D01*
X91559523Y-193981190D01*
X91559523Y-194266904D01*
X91511904Y-194362142D01*
X91464285Y-194409761D01*
X91369047Y-194457380D01*
X91178571Y-194457380D01*
X91083333Y-194409761D01*
X91892857Y-193790714D02*
X92130952Y-194457380D01*
X92369047Y-193790714D02*
X92130952Y-194457380D01*
X92035714Y-194695476D01*
X91988095Y-194743095D01*
X91892857Y-194790714D01*
X93511904Y-194076428D02*
X94273809Y-194076428D01*
X94750000Y-194076428D02*
X95511904Y-194076428D01*
X95988095Y-193790714D02*
X95988095Y-194790714D01*
X95988095Y-193838333D02*
X96083333Y-193790714D01*
X96273809Y-193790714D01*
X96369047Y-193838333D01*
X96416666Y-193885952D01*
X96464285Y-193981190D01*
X96464285Y-194266904D01*
X96416666Y-194362142D01*
X96369047Y-194409761D01*
X96273809Y-194457380D01*
X96083333Y-194457380D01*
X95988095Y-194409761D01*
X97321428Y-194457380D02*
X97321428Y-193933571D01*
X97273809Y-193838333D01*
X97178571Y-193790714D01*
X96988095Y-193790714D01*
X96892857Y-193838333D01*
X97321428Y-194409761D02*
X97226190Y-194457380D01*
X96988095Y-194457380D01*
X96892857Y-194409761D01*
X96845238Y-194314523D01*
X96845238Y-194219285D01*
X96892857Y-194124047D01*
X96988095Y-194076428D01*
X97226190Y-194076428D01*
X97321428Y-194028809D01*
X97797619Y-193790714D02*
X97797619Y-194457380D01*
X97797619Y-193885952D02*
X97845238Y-193838333D01*
X97940476Y-193790714D01*
X98083333Y-193790714D01*
X98178571Y-193838333D01*
X98226190Y-193933571D01*
X98226190Y-194457380D01*
X99083333Y-194409761D02*
X98988095Y-194457380D01*
X98797619Y-194457380D01*
X98702380Y-194409761D01*
X98654761Y-194314523D01*
X98654761Y-193933571D01*
X98702380Y-193838333D01*
X98797619Y-193790714D01*
X98988095Y-193790714D01*
X99083333Y-193838333D01*
X99130952Y-193933571D01*
X99130952Y-194028809D01*
X98654761Y-194124047D01*
X99702380Y-194457380D02*
X99607142Y-194409761D01*
X99559523Y-194314523D01*
X99559523Y-193457380D01*
X99988095Y-194457380D02*
X100511904Y-193790714D01*
X99988095Y-193790714D02*
X100511904Y-194457380D01*
X100892857Y-193933571D02*
X101654761Y-193933571D01*
X101654761Y-194219285D02*
X100892857Y-194219285D01*
X102273809Y-193885952D02*
X102178571Y-193838333D01*
X102130952Y-193790714D01*
X102083333Y-193695476D01*
X102083333Y-193647857D01*
X102130952Y-193552619D01*
X102178571Y-193505000D01*
X102273809Y-193457380D01*
X102464285Y-193457380D01*
X102559523Y-193505000D01*
X102607142Y-193552619D01*
X102654761Y-193647857D01*
X102654761Y-193695476D01*
X102607142Y-193790714D01*
X102559523Y-193838333D01*
X102464285Y-193885952D01*
X102273809Y-193885952D01*
X102178571Y-193933571D01*
X102130952Y-193981190D01*
X102083333Y-194076428D01*
X102083333Y-194266904D01*
X102130952Y-194362142D01*
X102178571Y-194409761D01*
X102273809Y-194457380D01*
X102464285Y-194457380D01*
X102559523Y-194409761D01*
X102607142Y-194362142D01*
X102654761Y-194266904D01*
X102654761Y-194076428D01*
X102607142Y-193981190D01*
X102559523Y-193933571D01*
X102464285Y-193885952D01*
X103273809Y-193457380D02*
X103369047Y-193457380D01*
X103464285Y-193505000D01*
X103511904Y-193552619D01*
X103559523Y-193647857D01*
X103607142Y-193838333D01*
X103607142Y-194076428D01*
X103559523Y-194266904D01*
X103511904Y-194362142D01*
X103464285Y-194409761D01*
X103369047Y-194457380D01*
X103273809Y-194457380D01*
X103178571Y-194409761D01*
X103130952Y-194362142D01*
X103083333Y-194266904D01*
X103035714Y-194076428D01*
X103035714Y-193838333D01*
X103083333Y-193647857D01*
X103130952Y-193552619D01*
X103178571Y-193505000D01*
X103273809Y-193457380D01*
X104797619Y-194076428D02*
X105559523Y-194076428D01*
X106035714Y-194076428D02*
X106797619Y-194076428D01*
X107273809Y-193790714D02*
X107273809Y-194790714D01*
X107273809Y-193838333D02*
X107369047Y-193790714D01*
X107559523Y-193790714D01*
X107654761Y-193838333D01*
X107702380Y-193885952D01*
X107750000Y-193981190D01*
X107750000Y-194266904D01*
X107702380Y-194362142D01*
X107654761Y-194409761D01*
X107559523Y-194457380D01*
X107369047Y-194457380D01*
X107273809Y-194409761D01*
X108607142Y-194457380D02*
X108607142Y-193933571D01*
X108559523Y-193838333D01*
X108464285Y-193790714D01*
X108273809Y-193790714D01*
X108178571Y-193838333D01*
X108607142Y-194409761D02*
X108511904Y-194457380D01*
X108273809Y-194457380D01*
X108178571Y-194409761D01*
X108130952Y-194314523D01*
X108130952Y-194219285D01*
X108178571Y-194124047D01*
X108273809Y-194076428D01*
X108511904Y-194076428D01*
X108607142Y-194028809D01*
X109083333Y-193790714D02*
X109083333Y-194457380D01*
X109083333Y-193885952D02*
X109130952Y-193838333D01*
X109226190Y-193790714D01*
X109369047Y-193790714D01*
X109464285Y-193838333D01*
X109511904Y-193933571D01*
X109511904Y-194457380D01*
X110369047Y-194409761D02*
X110273809Y-194457380D01*
X110083333Y-194457380D01*
X109988095Y-194409761D01*
X109940476Y-194314523D01*
X109940476Y-193933571D01*
X109988095Y-193838333D01*
X110083333Y-193790714D01*
X110273809Y-193790714D01*
X110369047Y-193838333D01*
X110416666Y-193933571D01*
X110416666Y-194028809D01*
X109940476Y-194124047D01*
X110988095Y-194457380D02*
X110892857Y-194409761D01*
X110845238Y-194314523D01*
X110845238Y-193457380D01*
X111273809Y-193790714D02*
X111511904Y-194457380D01*
X111750000Y-193790714D02*
X111511904Y-194457380D01*
X111416666Y-194695476D01*
X111369047Y-194743095D01*
X111273809Y-194790714D01*
X112130952Y-193933571D02*
X112892857Y-193933571D01*
X112892857Y-194219285D02*
X112130952Y-194219285D01*
X113511904Y-193885952D02*
X113416666Y-193838333D01*
X113369047Y-193790714D01*
X113321428Y-193695476D01*
X113321428Y-193647857D01*
X113369047Y-193552619D01*
X113416666Y-193505000D01*
X113511904Y-193457380D01*
X113702380Y-193457380D01*
X113797619Y-193505000D01*
X113845238Y-193552619D01*
X113892857Y-193647857D01*
X113892857Y-193695476D01*
X113845238Y-193790714D01*
X113797619Y-193838333D01*
X113702380Y-193885952D01*
X113511904Y-193885952D01*
X113416666Y-193933571D01*
X113369047Y-193981190D01*
X113321428Y-194076428D01*
X113321428Y-194266904D01*
X113369047Y-194362142D01*
X113416666Y-194409761D01*
X113511904Y-194457380D01*
X113702380Y-194457380D01*
X113797619Y-194409761D01*
X113845238Y-194362142D01*
X113892857Y-194266904D01*
X113892857Y-194076428D01*
X113845238Y-193981190D01*
X113797619Y-193933571D01*
X113702380Y-193885952D01*
X114511904Y-193457380D02*
X114607142Y-193457380D01*
X114702380Y-193505000D01*
X114750000Y-193552619D01*
X114797619Y-193647857D01*
X114845238Y-193838333D01*
X114845238Y-194076428D01*
X114797619Y-194266904D01*
X114750000Y-194362142D01*
X114702380Y-194409761D01*
X114607142Y-194457380D01*
X114511904Y-194457380D01*
X114416666Y-194409761D01*
X114369047Y-194362142D01*
X114321428Y-194266904D01*
X114273809Y-194076428D01*
X114273809Y-193838333D01*
X114321428Y-193647857D01*
X114369047Y-193552619D01*
X114416666Y-193505000D01*
X114511904Y-193457380D01*
X116035714Y-194076428D02*
X116797619Y-194076428D01*
X117273809Y-194076428D02*
X118035714Y-194076428D01*
X118511904Y-194457380D02*
X118511904Y-193457380D01*
X118940476Y-194457380D02*
X118940476Y-193933571D01*
X118892857Y-193838333D01*
X118797619Y-193790714D01*
X118654761Y-193790714D01*
X118559523Y-193838333D01*
X118511904Y-193885952D01*
X119416666Y-194457380D02*
X119416666Y-193790714D01*
X119416666Y-193981190D02*
X119464285Y-193885952D01*
X119511904Y-193838333D01*
X119607142Y-193790714D01*
X119702380Y-193790714D01*
X120464285Y-194457380D02*
X120464285Y-193933571D01*
X120416666Y-193838333D01*
X120321428Y-193790714D01*
X120130952Y-193790714D01*
X120035714Y-193838333D01*
X120464285Y-194409761D02*
X120369047Y-194457380D01*
X120130952Y-194457380D01*
X120035714Y-194409761D01*
X119988095Y-194314523D01*
X119988095Y-194219285D01*
X120035714Y-194124047D01*
X120130952Y-194076428D01*
X120369047Y-194076428D01*
X120464285Y-194028809D01*
X120940476Y-194457380D02*
X120940476Y-193790714D01*
X120940476Y-193457380D02*
X120892857Y-193505000D01*
X120940476Y-193552619D01*
X120988095Y-193505000D01*
X120940476Y-193457380D01*
X120940476Y-193552619D01*
X121559523Y-194457380D02*
X121464285Y-194409761D01*
X121416666Y-194314523D01*
X121416666Y-193457380D01*
X121940476Y-193933571D02*
X122702380Y-193933571D01*
X122702380Y-194219285D02*
X121940476Y-194219285D01*
X123654761Y-193457380D02*
X123178571Y-193457380D01*
X123130952Y-193933571D01*
X123178571Y-193885952D01*
X123273809Y-193838333D01*
X123511904Y-193838333D01*
X123607142Y-193885952D01*
X123654761Y-193933571D01*
X123702380Y-194028809D01*
X123702380Y-194266904D01*
X123654761Y-194362142D01*
X123607142Y-194409761D01*
X123511904Y-194457380D01*
X123273809Y-194457380D01*
X123178571Y-194409761D01*
X123130952Y-194362142D01*
X124892857Y-194076428D02*
X125654761Y-194076428D01*
X126130952Y-194076428D02*
X126892857Y-194076428D01*
X127369047Y-194457380D02*
X127369047Y-193457380D01*
X127797619Y-194457380D02*
X127797619Y-193933571D01*
X127750000Y-193838333D01*
X127654761Y-193790714D01*
X127511904Y-193790714D01*
X127416666Y-193838333D01*
X127369047Y-193885952D01*
X128273809Y-194457380D02*
X128273809Y-193790714D01*
X128273809Y-193981190D02*
X128321428Y-193885952D01*
X128369047Y-193838333D01*
X128464285Y-193790714D01*
X128559523Y-193790714D01*
X129321428Y-194457380D02*
X129321428Y-193933571D01*
X129273809Y-193838333D01*
X129178571Y-193790714D01*
X128988095Y-193790714D01*
X128892857Y-193838333D01*
X129321428Y-194409761D02*
X129226190Y-194457380D01*
X128988095Y-194457380D01*
X128892857Y-194409761D01*
X128845238Y-194314523D01*
X128845238Y-194219285D01*
X128892857Y-194124047D01*
X128988095Y-194076428D01*
X129226190Y-194076428D01*
X129321428Y-194028809D01*
X129797619Y-194457380D02*
X129797619Y-193790714D01*
X129797619Y-193457380D02*
X129750000Y-193505000D01*
X129797619Y-193552619D01*
X129845238Y-193505000D01*
X129797619Y-193457380D01*
X129797619Y-193552619D01*
X130416666Y-194457380D02*
X130321428Y-194409761D01*
X130273809Y-194314523D01*
X130273809Y-193457380D01*
X130654761Y-193790714D02*
X131035714Y-193790714D01*
X130797619Y-193457380D02*
X130797619Y-194314523D01*
X130845238Y-194409761D01*
X130940476Y-194457380D01*
X131035714Y-194457380D01*
X131750000Y-194409761D02*
X131654761Y-194457380D01*
X131464285Y-194457380D01*
X131369047Y-194409761D01*
X131321428Y-194314523D01*
X131321428Y-193933571D01*
X131369047Y-193838333D01*
X131464285Y-193790714D01*
X131654761Y-193790714D01*
X131750000Y-193838333D01*
X131797619Y-193933571D01*
X131797619Y-194028809D01*
X131321428Y-194124047D01*
X132130952Y-194457380D02*
X132654761Y-193790714D01*
X132130952Y-193790714D02*
X132654761Y-194457380D01*
X132892857Y-193790714D02*
X133273809Y-193790714D01*
X133035714Y-193457380D02*
X133035714Y-194314523D01*
X133083333Y-194409761D01*
X133178571Y-194457380D01*
X133273809Y-194457380D01*
X133607142Y-193933571D02*
X134369047Y-193933571D01*
X134369047Y-194219285D02*
X133607142Y-194219285D01*
X135130952Y-193457380D02*
X135130952Y-194171666D01*
X135083333Y-194314523D01*
X134988095Y-194409761D01*
X134845238Y-194457380D01*
X134750000Y-194457380D01*
X136083333Y-194457380D02*
X135607142Y-194457380D01*
X135607142Y-193457380D01*
X136988095Y-194362142D02*
X136940476Y-194409761D01*
X136797619Y-194457380D01*
X136702380Y-194457380D01*
X136559523Y-194409761D01*
X136464285Y-194314523D01*
X136416666Y-194219285D01*
X136369047Y-194028809D01*
X136369047Y-193885952D01*
X136416666Y-193695476D01*
X136464285Y-193600238D01*
X136559523Y-193505000D01*
X136702380Y-193457380D01*
X136797619Y-193457380D01*
X136940476Y-193505000D01*
X136988095Y-193552619D01*
X137702380Y-193457380D02*
X137702380Y-194171666D01*
X137654761Y-194314523D01*
X137559523Y-194409761D01*
X137416666Y-194457380D01*
X137321428Y-194457380D01*
X138654761Y-194457380D02*
X138178571Y-194457380D01*
X138178571Y-193457380D01*
X139559523Y-194362142D02*
X139511904Y-194409761D01*
X139369047Y-194457380D01*
X139273809Y-194457380D01*
X139130952Y-194409761D01*
X139035714Y-194314523D01*
X138988095Y-194219285D01*
X138940476Y-194028809D01*
X138940476Y-193885952D01*
X138988095Y-193695476D01*
X139035714Y-193600238D01*
X139130952Y-193505000D01*
X139273809Y-193457380D01*
X139369047Y-193457380D01*
X139511904Y-193505000D01*
X139559523Y-193552619D01*
X140273809Y-193457380D02*
X140273809Y-194171666D01*
X140226190Y-194314523D01*
X140130952Y-194409761D01*
X139988095Y-194457380D01*
X139892857Y-194457380D01*
X141226190Y-194457380D02*
X140750000Y-194457380D01*
X140750000Y-193457380D01*
X142130952Y-194362142D02*
X142083333Y-194409761D01*
X141940476Y-194457380D01*
X141845238Y-194457380D01*
X141702380Y-194409761D01*
X141607142Y-194314523D01*
X141559523Y-194219285D01*
X141511904Y-194028809D01*
X141511904Y-193885952D01*
X141559523Y-193695476D01*
X141607142Y-193600238D01*
X141702380Y-193505000D01*
X141845238Y-193457380D01*
X141940476Y-193457380D01*
X142083333Y-193505000D01*
X142130952Y-193552619D01*
X142845238Y-193457380D02*
X142845238Y-194171666D01*
X142797619Y-194314523D01*
X142702380Y-194409761D01*
X142559523Y-194457380D01*
X142464285Y-194457380D01*
X143797619Y-194457380D02*
X143321428Y-194457380D01*
X143321428Y-193457380D01*
X144702380Y-194362142D02*
X144654761Y-194409761D01*
X144511904Y-194457380D01*
X144416666Y-194457380D01*
X144273809Y-194409761D01*
X144178571Y-194314523D01*
X144130952Y-194219285D01*
X144083333Y-194028809D01*
X144083333Y-193885952D01*
X144130952Y-193695476D01*
X144178571Y-193600238D01*
X144273809Y-193505000D01*
X144416666Y-193457380D01*
X144511904Y-193457380D01*
X144654761Y-193505000D01*
X144702380Y-193552619D01*
X145892857Y-194362142D02*
X145940476Y-194409761D01*
X145892857Y-194457380D01*
X145845238Y-194409761D01*
X145892857Y-194362142D01*
X145892857Y-194457380D01*
X146369047Y-194362142D02*
X146416666Y-194409761D01*
X146369047Y-194457380D01*
X146321428Y-194409761D01*
X146369047Y-194362142D01*
X146369047Y-194457380D01*
X147559523Y-193409761D02*
X146702380Y-194695476D01*
X147892857Y-194362142D02*
X147940476Y-194409761D01*
X147892857Y-194457380D01*
X147845238Y-194409761D01*
X147892857Y-194362142D01*
X147892857Y-194457380D01*
X148369047Y-194362142D02*
X148416666Y-194409761D01*
X148369047Y-194457380D01*
X148321428Y-194409761D01*
X148369047Y-194362142D01*
X148369047Y-194457380D01*
X149559523Y-193409761D02*
X148702380Y-194695476D01*
X149892857Y-194457380D02*
X149892857Y-193790714D01*
X149892857Y-193981190D02*
X149940476Y-193885952D01*
X149988095Y-193838333D01*
X150083333Y-193790714D01*
X150178571Y-193790714D01*
X150654761Y-194457380D02*
X150559523Y-194409761D01*
X150511904Y-194362142D01*
X150464285Y-194266904D01*
X150464285Y-193981190D01*
X150511904Y-193885952D01*
X150559523Y-193838333D01*
X150654761Y-193790714D01*
X150797619Y-193790714D01*
X150892857Y-193838333D01*
X150940476Y-193885952D01*
X150988095Y-193981190D01*
X150988095Y-194266904D01*
X150940476Y-194362142D01*
X150892857Y-194409761D01*
X150797619Y-194457380D01*
X150654761Y-194457380D01*
X151845238Y-193790714D02*
X151845238Y-194600238D01*
X151797619Y-194695476D01*
X151750000Y-194743095D01*
X151654761Y-194790714D01*
X151511904Y-194790714D01*
X151416666Y-194743095D01*
X151845238Y-194409761D02*
X151750000Y-194457380D01*
X151559523Y-194457380D01*
X151464285Y-194409761D01*
X151416666Y-194362142D01*
X151369047Y-194266904D01*
X151369047Y-193981190D01*
X151416666Y-193885952D01*
X151464285Y-193838333D01*
X151559523Y-193790714D01*
X151750000Y-193790714D01*
X151845238Y-193838333D01*
X152464285Y-194457380D02*
X152369047Y-194409761D01*
X152321428Y-194362142D01*
X152273809Y-194266904D01*
X152273809Y-193981190D01*
X152321428Y-193885952D01*
X152369047Y-193838333D01*
X152464285Y-193790714D01*
X152607142Y-193790714D01*
X152702380Y-193838333D01*
X152750000Y-193885952D01*
X152797619Y-193981190D01*
X152797619Y-194266904D01*
X152750000Y-194362142D01*
X152702380Y-194409761D01*
X152607142Y-194457380D01*
X152464285Y-194457380D01*
X153130952Y-193790714D02*
X153321428Y-194457380D01*
X153511904Y-193981190D01*
X153702380Y-194457380D01*
X153892857Y-193790714D01*
X154226190Y-194409761D02*
X154321428Y-194457380D01*
X154511904Y-194457380D01*
X154607142Y-194409761D01*
X154654761Y-194314523D01*
X154654761Y-194266904D01*
X154607142Y-194171666D01*
X154511904Y-194124047D01*
X154369047Y-194124047D01*
X154273809Y-194076428D01*
X154226190Y-193981190D01*
X154226190Y-193933571D01*
X154273809Y-193838333D01*
X154369047Y-193790714D01*
X154511904Y-193790714D01*
X154607142Y-193838333D01*
X155083333Y-194457380D02*
X155083333Y-193457380D01*
X155178571Y-194076428D02*
X155464285Y-194457380D01*
X155464285Y-193790714D02*
X155083333Y-194171666D01*
X155892857Y-194457380D02*
X155892857Y-193790714D01*
X155892857Y-193457380D02*
X155845238Y-193505000D01*
X155892857Y-193552619D01*
X155940476Y-193505000D01*
X155892857Y-193457380D01*
X155892857Y-193552619D01*
X156369047Y-194076428D02*
X157130952Y-194076428D01*
X157607142Y-194457380D02*
X157607142Y-193790714D01*
X157607142Y-193981190D02*
X157654761Y-193885952D01*
X157702380Y-193838333D01*
X157797619Y-193790714D01*
X157892857Y-193790714D01*
X158607142Y-194409761D02*
X158511904Y-194457380D01*
X158321428Y-194457380D01*
X158226190Y-194409761D01*
X158178571Y-194314523D01*
X158178571Y-193933571D01*
X158226190Y-193838333D01*
X158321428Y-193790714D01*
X158511904Y-193790714D01*
X158607142Y-193838333D01*
X158654761Y-193933571D01*
X158654761Y-194028809D01*
X158178571Y-194124047D01*
X159226190Y-194457380D02*
X159130952Y-194409761D01*
X159083333Y-194314523D01*
X159083333Y-193457380D01*
X159607142Y-194457380D02*
X159607142Y-193790714D01*
X159607142Y-193457380D02*
X159559523Y-193505000D01*
X159607142Y-193552619D01*
X159654761Y-193505000D01*
X159607142Y-193457380D01*
X159607142Y-193552619D01*
X160464285Y-194409761D02*
X160369047Y-194457380D01*
X160178571Y-194457380D01*
X160083333Y-194409761D01*
X160035714Y-194314523D01*
X160035714Y-193933571D01*
X160083333Y-193838333D01*
X160178571Y-193790714D01*
X160369047Y-193790714D01*
X160464285Y-193838333D01*
X160511904Y-193933571D01*
X160511904Y-194028809D01*
X160035714Y-194124047D01*
X160797619Y-193790714D02*
X161178571Y-193790714D01*
X160940476Y-194457380D02*
X160940476Y-193600238D01*
X160988095Y-193505000D01*
X161083333Y-193457380D01*
X161178571Y-193457380D01*
X162226190Y-193409761D02*
X161369047Y-194695476D01*
X162559523Y-193790714D02*
X162559523Y-194790714D01*
X162559523Y-193838333D02*
X162654761Y-193790714D01*
X162845238Y-193790714D01*
X162940476Y-193838333D01*
X162988095Y-193885952D01*
X163035714Y-193981190D01*
X163035714Y-194266904D01*
X162988095Y-194362142D01*
X162940476Y-194409761D01*
X162845238Y-194457380D01*
X162654761Y-194457380D01*
X162559523Y-194409761D01*
X163892857Y-194409761D02*
X163797619Y-194457380D01*
X163607142Y-194457380D01*
X163511904Y-194409761D01*
X163464285Y-194362142D01*
X163416666Y-194266904D01*
X163416666Y-193981190D01*
X163464285Y-193885952D01*
X163511904Y-193838333D01*
X163607142Y-193790714D01*
X163797619Y-193790714D01*
X163892857Y-193838333D01*
X164321428Y-194457380D02*
X164321428Y-193457380D01*
X164321428Y-193838333D02*
X164416666Y-193790714D01*
X164607142Y-193790714D01*
X164702380Y-193838333D01*
X164749999Y-193885952D01*
X164797619Y-193981190D01*
X164797619Y-194266904D01*
X164749999Y-194362142D01*
X164702380Y-194409761D01*
X164607142Y-194457380D01*
X164416666Y-194457380D01*
X164321428Y-194409761D01*
X165940476Y-193409761D02*
X165083333Y-194695476D01*
X166702380Y-194409761D02*
X166607142Y-194457380D01*
X166416666Y-194457380D01*
X166321428Y-194409761D01*
X166273809Y-194362142D01*
X166226190Y-194266904D01*
X166226190Y-193981190D01*
X166273809Y-193885952D01*
X166321428Y-193838333D01*
X166416666Y-193790714D01*
X166607142Y-193790714D01*
X166702380Y-193838333D01*
X167273809Y-194457380D02*
X167178571Y-194409761D01*
X167130952Y-194362142D01*
X167083333Y-194266904D01*
X167083333Y-193981190D01*
X167130952Y-193885952D01*
X167178571Y-193838333D01*
X167273809Y-193790714D01*
X167416666Y-193790714D01*
X167511904Y-193838333D01*
X167559523Y-193885952D01*
X167607142Y-193981190D01*
X167607142Y-194266904D01*
X167559523Y-194362142D01*
X167511904Y-194409761D01*
X167416666Y-194457380D01*
X167273809Y-194457380D01*
X168035714Y-194457380D02*
X168035714Y-193790714D01*
X168035714Y-193457380D02*
X167988095Y-193505000D01*
X168035714Y-193552619D01*
X168083333Y-193505000D01*
X168035714Y-193457380D01*
X168035714Y-193552619D01*
X168654761Y-194457380D02*
X168559523Y-194409761D01*
X168511904Y-194314523D01*
X168511904Y-193457380D01*
X168797619Y-194552619D02*
X169559523Y-194552619D01*
X169654761Y-193790714D02*
X170035714Y-193790714D01*
X169797619Y-193457380D02*
X169797619Y-194314523D01*
X169845238Y-194409761D01*
X169940476Y-194457380D01*
X170035714Y-194457380D01*
X170749999Y-194409761D02*
X170654761Y-194457380D01*
X170464285Y-194457380D01*
X170369047Y-194409761D01*
X170321428Y-194314523D01*
X170321428Y-193933571D01*
X170369047Y-193838333D01*
X170464285Y-193790714D01*
X170654761Y-193790714D01*
X170749999Y-193838333D01*
X170797619Y-193933571D01*
X170797619Y-194028809D01*
X170321428Y-194124047D01*
X171226190Y-194457380D02*
X171226190Y-193790714D01*
X171226190Y-193981190D02*
X171273809Y-193885952D01*
X171321428Y-193838333D01*
X171416666Y-193790714D01*
X171511904Y-193790714D01*
X171845238Y-194457380D02*
X171845238Y-193790714D01*
X171845238Y-193885952D02*
X171892857Y-193838333D01*
X171988095Y-193790714D01*
X172130952Y-193790714D01*
X172226190Y-193838333D01*
X172273809Y-193933571D01*
X172273809Y-194457380D01*
X172273809Y-193933571D02*
X172321428Y-193838333D01*
X172416666Y-193790714D01*
X172559523Y-193790714D01*
X172654761Y-193838333D01*
X172702380Y-193933571D01*
X172702380Y-194457380D01*
X173178571Y-194457380D02*
X173178571Y-193790714D01*
X173178571Y-193457380D02*
X173130952Y-193505000D01*
X173178571Y-193552619D01*
X173226190Y-193505000D01*
X173178571Y-193457380D01*
X173178571Y-193552619D01*
X173654761Y-193790714D02*
X173654761Y-194457380D01*
X173654761Y-193885952D02*
X173702380Y-193838333D01*
X173797619Y-193790714D01*
X173940476Y-193790714D01*
X174035714Y-193838333D01*
X174083333Y-193933571D01*
X174083333Y-194457380D01*
X174988095Y-194457380D02*
X174988095Y-193933571D01*
X174940476Y-193838333D01*
X174845238Y-193790714D01*
X174654761Y-193790714D01*
X174559523Y-193838333D01*
X174988095Y-194409761D02*
X174892857Y-194457380D01*
X174654761Y-194457380D01*
X174559523Y-194409761D01*
X174511904Y-194314523D01*
X174511904Y-194219285D01*
X174559523Y-194124047D01*
X174654761Y-194076428D01*
X174892857Y-194076428D01*
X174988095Y-194028809D01*
X175321428Y-193790714D02*
X175702380Y-193790714D01*
X175464285Y-193457380D02*
X175464285Y-194314523D01*
X175511904Y-194409761D01*
X175607142Y-194457380D01*
X175702380Y-194457380D01*
X176178571Y-194457380D02*
X176083333Y-194409761D01*
X176035714Y-194362142D01*
X175988095Y-194266904D01*
X175988095Y-193981190D01*
X176035714Y-193885952D01*
X176083333Y-193838333D01*
X176178571Y-193790714D01*
X176321428Y-193790714D01*
X176416666Y-193838333D01*
X176464285Y-193885952D01*
X176511904Y-193981190D01*
X176511904Y-194266904D01*
X176464285Y-194362142D01*
X176416666Y-194409761D01*
X176321428Y-194457380D01*
X176178571Y-194457380D01*
X176940476Y-194457380D02*
X176940476Y-193790714D01*
X176940476Y-193981190D02*
X176988095Y-193885952D01*
X177035714Y-193838333D01*
X177130952Y-193790714D01*
X177226190Y-193790714D01*
X178273809Y-193409761D02*
X177416666Y-194695476D01*
X179035714Y-194409761D02*
X178940476Y-194457380D01*
X178749999Y-194457380D01*
X178654761Y-194409761D01*
X178607142Y-194362142D01*
X178559523Y-194266904D01*
X178559523Y-193981190D01*
X178607142Y-193885952D01*
X178654761Y-193838333D01*
X178749999Y-193790714D01*
X178940476Y-193790714D01*
X179035714Y-193838333D01*
X179607142Y-194457380D02*
X179511904Y-194409761D01*
X179464285Y-194362142D01*
X179416666Y-194266904D01*
X179416666Y-193981190D01*
X179464285Y-193885952D01*
X179511904Y-193838333D01*
X179607142Y-193790714D01*
X179749999Y-193790714D01*
X179845238Y-193838333D01*
X179892857Y-193885952D01*
X179940476Y-193981190D01*
X179940476Y-194266904D01*
X179892857Y-194362142D01*
X179845238Y-194409761D01*
X179749999Y-194457380D01*
X179607142Y-194457380D01*
X180369047Y-194457380D02*
X180369047Y-193790714D01*
X180369047Y-193457380D02*
X180321428Y-193505000D01*
X180369047Y-193552619D01*
X180416666Y-193505000D01*
X180369047Y-193457380D01*
X180369047Y-193552619D01*
X180988095Y-194457380D02*
X180892857Y-194409761D01*
X180845238Y-194314523D01*
X180845238Y-193457380D01*
X181130952Y-194552619D02*
X181892857Y-194552619D01*
X181988095Y-193790714D02*
X182369047Y-193790714D01*
X182130952Y-193457380D02*
X182130952Y-194314523D01*
X182178571Y-194409761D01*
X182273809Y-194457380D01*
X182369047Y-194457380D01*
X183083333Y-194409761D02*
X182988095Y-194457380D01*
X182797619Y-194457380D01*
X182702380Y-194409761D01*
X182654761Y-194314523D01*
X182654761Y-193933571D01*
X182702380Y-193838333D01*
X182797619Y-193790714D01*
X182988095Y-193790714D01*
X183083333Y-193838333D01*
X183130952Y-193933571D01*
X183130952Y-194028809D01*
X182654761Y-194124047D01*
X183559523Y-194457380D02*
X183559523Y-193790714D01*
X183559523Y-193981190D02*
X183607142Y-193885952D01*
X183654761Y-193838333D01*
X183749999Y-193790714D01*
X183845238Y-193790714D01*
X184178571Y-194457380D02*
X184178571Y-193790714D01*
X184178571Y-193885952D02*
X184226190Y-193838333D01*
X184321428Y-193790714D01*
X184464285Y-193790714D01*
X184559523Y-193838333D01*
X184607142Y-193933571D01*
X184607142Y-194457380D01*
X184607142Y-193933571D02*
X184654761Y-193838333D01*
X184749999Y-193790714D01*
X184892857Y-193790714D01*
X184988095Y-193838333D01*
X185035714Y-193933571D01*
X185035714Y-194457380D01*
X185511904Y-194457380D02*
X185511904Y-193790714D01*
X185511904Y-193457380D02*
X185464285Y-193505000D01*
X185511904Y-193552619D01*
X185559523Y-193505000D01*
X185511904Y-193457380D01*
X185511904Y-193552619D01*
X185988095Y-193790714D02*
X185988095Y-194457380D01*
X185988095Y-193885952D02*
X186035714Y-193838333D01*
X186130952Y-193790714D01*
X186273809Y-193790714D01*
X186369047Y-193838333D01*
X186416666Y-193933571D01*
X186416666Y-194457380D01*
X187321428Y-194457380D02*
X187321428Y-193933571D01*
X187273809Y-193838333D01*
X187178571Y-193790714D01*
X186988095Y-193790714D01*
X186892857Y-193838333D01*
X187321428Y-194409761D02*
X187226190Y-194457380D01*
X186988095Y-194457380D01*
X186892857Y-194409761D01*
X186845238Y-194314523D01*
X186845238Y-194219285D01*
X186892857Y-194124047D01*
X186988095Y-194076428D01*
X187226190Y-194076428D01*
X187321428Y-194028809D01*
X187654761Y-193790714D02*
X188035714Y-193790714D01*
X187797619Y-193457380D02*
X187797619Y-194314523D01*
X187845238Y-194409761D01*
X187940476Y-194457380D01*
X188035714Y-194457380D01*
X188511904Y-194457380D02*
X188416666Y-194409761D01*
X188369047Y-194362142D01*
X188321428Y-194266904D01*
X188321428Y-193981190D01*
X188369047Y-193885952D01*
X188416666Y-193838333D01*
X188511904Y-193790714D01*
X188654761Y-193790714D01*
X188749999Y-193838333D01*
X188797619Y-193885952D01*
X188845238Y-193981190D01*
X188845238Y-194266904D01*
X188797619Y-194362142D01*
X188749999Y-194409761D01*
X188654761Y-194457380D01*
X188511904Y-194457380D01*
X189273809Y-194457380D02*
X189273809Y-193790714D01*
X189273809Y-193981190D02*
X189321428Y-193885952D01*
X189369047Y-193838333D01*
X189464285Y-193790714D01*
X189559523Y-193790714D01*
X189892857Y-194362142D02*
X189940476Y-194409761D01*
X189892857Y-194457380D01*
X189845238Y-194409761D01*
X189892857Y-194362142D01*
X189892857Y-194457380D01*
X190369047Y-194457380D02*
X190369047Y-193457380D01*
X190464285Y-194076428D02*
X190749999Y-194457380D01*
X190749999Y-193790714D02*
X190369047Y-194171666D01*
X191178571Y-194457380D02*
X191178571Y-193790714D01*
X191178571Y-193457380D02*
X191130952Y-193505000D01*
X191178571Y-193552619D01*
X191226190Y-193505000D01*
X191178571Y-193457380D01*
X191178571Y-193552619D01*
X192083333Y-194409761D02*
X191988095Y-194457380D01*
X191797619Y-194457380D01*
X191702380Y-194409761D01*
X191654761Y-194362142D01*
X191607142Y-194266904D01*
X191607142Y-193981190D01*
X191654761Y-193885952D01*
X191702380Y-193838333D01*
X191797619Y-193790714D01*
X191988095Y-193790714D01*
X192083333Y-193838333D01*
X192940476Y-194457380D02*
X192940476Y-193933571D01*
X192892857Y-193838333D01*
X192797619Y-193790714D01*
X192607142Y-193790714D01*
X192511904Y-193838333D01*
X192940476Y-194409761D02*
X192845238Y-194457380D01*
X192607142Y-194457380D01*
X192511904Y-194409761D01*
X192464285Y-194314523D01*
X192464285Y-194219285D01*
X192511904Y-194124047D01*
X192607142Y-194076428D01*
X192845238Y-194076428D01*
X192940476Y-194028809D01*
X193845238Y-194457380D02*
X193845238Y-193457380D01*
X193845238Y-194409761D02*
X193749999Y-194457380D01*
X193559523Y-194457380D01*
X193464285Y-194409761D01*
X193416666Y-194362142D01*
X193369047Y-194266904D01*
X193369047Y-193981190D01*
X193416666Y-193885952D01*
X193464285Y-193838333D01*
X193559523Y-193790714D01*
X193749999Y-193790714D01*
X193845238Y-193838333D01*
X194083333Y-194552619D02*
X194845238Y-194552619D01*
X195083333Y-193790714D02*
X195083333Y-194790714D01*
X195083333Y-193838333D02*
X195178571Y-193790714D01*
X195369047Y-193790714D01*
X195464285Y-193838333D01*
X195511904Y-193885952D01*
X195559523Y-193981190D01*
X195559523Y-194266904D01*
X195511904Y-194362142D01*
X195464285Y-194409761D01*
X195369047Y-194457380D01*
X195178571Y-194457380D01*
X195083333Y-194409761D01*
X196416666Y-194409761D02*
X196321428Y-194457380D01*
X196130952Y-194457380D01*
X196035714Y-194409761D01*
X195988095Y-194362142D01*
X195940476Y-194266904D01*
X195940476Y-193981190D01*
X195988095Y-193885952D01*
X196035714Y-193838333D01*
X196130952Y-193790714D01*
X196321428Y-193790714D01*
X196416666Y-193838333D01*
X196845238Y-194457380D02*
X196845238Y-193457380D01*
X196845238Y-193838333D02*
X196940476Y-193790714D01*
X197130952Y-193790714D01*
X197226190Y-193838333D01*
X197273809Y-193885952D01*
X197321428Y-193981190D01*
X197321428Y-194266904D01*
X197273809Y-194362142D01*
X197226190Y-194409761D01*
X197130952Y-194457380D01*
X196940476Y-194457380D01*
X196845238Y-194409761D01*
D10*
X85477976Y-166854761D02*
X86144642Y-168854761D01*
X86811309Y-166854761D01*
X87477976Y-168092857D02*
X89001785Y-168092857D01*
X89858928Y-168759523D02*
X90144642Y-168854761D01*
X90620833Y-168854761D01*
X90811309Y-168759523D01*
X90906547Y-168664285D01*
X91001785Y-168473809D01*
X91001785Y-168283333D01*
X90906547Y-168092857D01*
X90811309Y-167997619D01*
X90620833Y-167902380D01*
X90239880Y-167807142D01*
X90049404Y-167711904D01*
X89954166Y-167616666D01*
X89858928Y-167426190D01*
X89858928Y-167235714D01*
X89954166Y-167045238D01*
X90049404Y-166950000D01*
X90239880Y-166854761D01*
X90716071Y-166854761D01*
X91001785Y-166950000D01*
X93001785Y-168664285D02*
X92906547Y-168759523D01*
X92620833Y-168854761D01*
X92430357Y-168854761D01*
X92144642Y-168759523D01*
X91954166Y-168569047D01*
X91858928Y-168378571D01*
X91763690Y-167997619D01*
X91763690Y-167711904D01*
X91858928Y-167330952D01*
X91954166Y-167140476D01*
X92144642Y-166950000D01*
X92430357Y-166854761D01*
X92620833Y-166854761D01*
X92906547Y-166950000D01*
X93001785Y-167045238D01*
X94239880Y-166854761D02*
X94620833Y-166854761D01*
X94811309Y-166950000D01*
X95001785Y-167140476D01*
X95097023Y-167521428D01*
X95097023Y-168188095D01*
X95001785Y-168569047D01*
X94811309Y-168759523D01*
X94620833Y-168854761D01*
X94239880Y-168854761D01*
X94049404Y-168759523D01*
X93858928Y-168569047D01*
X93763690Y-168188095D01*
X93763690Y-167521428D01*
X93858928Y-167140476D01*
X94049404Y-166950000D01*
X94239880Y-166854761D01*
X97097023Y-168854761D02*
X96430357Y-167902380D01*
X95954166Y-168854761D02*
X95954166Y-166854761D01*
X96716071Y-166854761D01*
X96906547Y-166950000D01*
X97001785Y-167045238D01*
X97097023Y-167235714D01*
X97097023Y-167521428D01*
X97001785Y-167711904D01*
X96906547Y-167807142D01*
X96716071Y-167902380D01*
X95954166Y-167902380D01*
X97954166Y-167807142D02*
X98620833Y-167807142D01*
X98906547Y-168854761D02*
X97954166Y-168854761D01*
X97954166Y-166854761D01*
X98906547Y-166854761D01*
X171904761Y-104847023D02*
X173904761Y-104180357D01*
X171904761Y-103513690D01*
X173142857Y-102847023D02*
X173142857Y-101323214D01*
X173809523Y-100466071D02*
X173904761Y-100180357D01*
X173904761Y-99704166D01*
X173809523Y-99513690D01*
X173714285Y-99418452D01*
X173523809Y-99323214D01*
X173333333Y-99323214D01*
X173142857Y-99418452D01*
X173047619Y-99513690D01*
X172952380Y-99704166D01*
X172857142Y-100085119D01*
X172761904Y-100275595D01*
X172666666Y-100370833D01*
X172476190Y-100466071D01*
X172285714Y-100466071D01*
X172095238Y-100370833D01*
X172000000Y-100275595D01*
X171904761Y-100085119D01*
X171904761Y-99608928D01*
X172000000Y-99323214D01*
X173714285Y-97323214D02*
X173809523Y-97418452D01*
X173904761Y-97704166D01*
X173904761Y-97894642D01*
X173809523Y-98180357D01*
X173619047Y-98370833D01*
X173428571Y-98466071D01*
X173047619Y-98561309D01*
X172761904Y-98561309D01*
X172380952Y-98466071D01*
X172190476Y-98370833D01*
X172000000Y-98180357D01*
X171904761Y-97894642D01*
X171904761Y-97704166D01*
X172000000Y-97418452D01*
X172095238Y-97323214D01*
X171904761Y-96085119D02*
X171904761Y-95704166D01*
X172000000Y-95513690D01*
X172190476Y-95323214D01*
X172571428Y-95227976D01*
X173238095Y-95227976D01*
X173619047Y-95323214D01*
X173809523Y-95513690D01*
X173904761Y-95704166D01*
X173904761Y-96085119D01*
X173809523Y-96275595D01*
X173619047Y-96466071D01*
X173238095Y-96561309D01*
X172571428Y-96561309D01*
X172190476Y-96466071D01*
X172000000Y-96275595D01*
X171904761Y-96085119D01*
X173904761Y-93227976D02*
X172952380Y-93894642D01*
X173904761Y-94370833D02*
X171904761Y-94370833D01*
X171904761Y-93608928D01*
X172000000Y-93418452D01*
X172095238Y-93323214D01*
X172285714Y-93227976D01*
X172571428Y-93227976D01*
X172761904Y-93323214D01*
X172857142Y-93418452D01*
X172952380Y-93608928D01*
X172952380Y-94370833D01*
X172857142Y-92370833D02*
X172857142Y-91704166D01*
X173904761Y-91418452D02*
X173904761Y-92370833D01*
X171904761Y-92370833D01*
X171904761Y-91418452D01*
X85477976Y-144054761D02*
X86144642Y-146054761D01*
X86811309Y-144054761D01*
X87477976Y-145292857D02*
X89001785Y-145292857D01*
X89858928Y-145959523D02*
X90144642Y-146054761D01*
X90620833Y-146054761D01*
X90811309Y-145959523D01*
X90906547Y-145864285D01*
X91001785Y-145673809D01*
X91001785Y-145483333D01*
X90906547Y-145292857D01*
X90811309Y-145197619D01*
X90620833Y-145102380D01*
X90239880Y-145007142D01*
X90049404Y-144911904D01*
X89954166Y-144816666D01*
X89858928Y-144626190D01*
X89858928Y-144435714D01*
X89954166Y-144245238D01*
X90049404Y-144150000D01*
X90239880Y-144054761D01*
X90716071Y-144054761D01*
X91001785Y-144150000D01*
X93001785Y-145864285D02*
X92906547Y-145959523D01*
X92620833Y-146054761D01*
X92430357Y-146054761D01*
X92144642Y-145959523D01*
X91954166Y-145769047D01*
X91858928Y-145578571D01*
X91763690Y-145197619D01*
X91763690Y-144911904D01*
X91858928Y-144530952D01*
X91954166Y-144340476D01*
X92144642Y-144150000D01*
X92430357Y-144054761D01*
X92620833Y-144054761D01*
X92906547Y-144150000D01*
X93001785Y-144245238D01*
X94239880Y-144054761D02*
X94620833Y-144054761D01*
X94811309Y-144150000D01*
X95001785Y-144340476D01*
X95097023Y-144721428D01*
X95097023Y-145388095D01*
X95001785Y-145769047D01*
X94811309Y-145959523D01*
X94620833Y-146054761D01*
X94239880Y-146054761D01*
X94049404Y-145959523D01*
X93858928Y-145769047D01*
X93763690Y-145388095D01*
X93763690Y-144721428D01*
X93858928Y-144340476D01*
X94049404Y-144150000D01*
X94239880Y-144054761D01*
X97097023Y-146054761D02*
X96430357Y-145102380D01*
X95954166Y-146054761D02*
X95954166Y-144054761D01*
X96716071Y-144054761D01*
X96906547Y-144150000D01*
X97001785Y-144245238D01*
X97097023Y-144435714D01*
X97097023Y-144721428D01*
X97001785Y-144911904D01*
X96906547Y-145007142D01*
X96716071Y-145102380D01*
X95954166Y-145102380D01*
X97954166Y-145007142D02*
X98620833Y-145007142D01*
X98906547Y-146054761D02*
X97954166Y-146054761D01*
X97954166Y-144054761D01*
X98906547Y-144054761D01*
X85477976Y-121254761D02*
X86144642Y-123254761D01*
X86811309Y-121254761D01*
X87477976Y-122492857D02*
X89001785Y-122492857D01*
X89858928Y-123159523D02*
X90144642Y-123254761D01*
X90620833Y-123254761D01*
X90811309Y-123159523D01*
X90906547Y-123064285D01*
X91001785Y-122873809D01*
X91001785Y-122683333D01*
X90906547Y-122492857D01*
X90811309Y-122397619D01*
X90620833Y-122302380D01*
X90239880Y-122207142D01*
X90049404Y-122111904D01*
X89954166Y-122016666D01*
X89858928Y-121826190D01*
X89858928Y-121635714D01*
X89954166Y-121445238D01*
X90049404Y-121350000D01*
X90239880Y-121254761D01*
X90716071Y-121254761D01*
X91001785Y-121350000D01*
X93001785Y-123064285D02*
X92906547Y-123159523D01*
X92620833Y-123254761D01*
X92430357Y-123254761D01*
X92144642Y-123159523D01*
X91954166Y-122969047D01*
X91858928Y-122778571D01*
X91763690Y-122397619D01*
X91763690Y-122111904D01*
X91858928Y-121730952D01*
X91954166Y-121540476D01*
X92144642Y-121350000D01*
X92430357Y-121254761D01*
X92620833Y-121254761D01*
X92906547Y-121350000D01*
X93001785Y-121445238D01*
X94239880Y-121254761D02*
X94620833Y-121254761D01*
X94811309Y-121350000D01*
X95001785Y-121540476D01*
X95097023Y-121921428D01*
X95097023Y-122588095D01*
X95001785Y-122969047D01*
X94811309Y-123159523D01*
X94620833Y-123254761D01*
X94239880Y-123254761D01*
X94049404Y-123159523D01*
X93858928Y-122969047D01*
X93763690Y-122588095D01*
X93763690Y-121921428D01*
X93858928Y-121540476D01*
X94049404Y-121350000D01*
X94239880Y-121254761D01*
X97097023Y-123254761D02*
X96430357Y-122302380D01*
X95954166Y-123254761D02*
X95954166Y-121254761D01*
X96716071Y-121254761D01*
X96906547Y-121350000D01*
X97001785Y-121445238D01*
X97097023Y-121635714D01*
X97097023Y-121921428D01*
X97001785Y-122111904D01*
X96906547Y-122207142D01*
X96716071Y-122302380D01*
X95954166Y-122302380D01*
X97954166Y-122207142D02*
X98620833Y-122207142D01*
X98906547Y-123254761D02*
X97954166Y-123254761D01*
X97954166Y-121254761D01*
X98906547Y-121254761D01*
X149704761Y-104847023D02*
X151704761Y-104180357D01*
X149704761Y-103513690D01*
X150942857Y-102847023D02*
X150942857Y-101323214D01*
X151609523Y-100466071D02*
X151704761Y-100180357D01*
X151704761Y-99704166D01*
X151609523Y-99513690D01*
X151514285Y-99418452D01*
X151323809Y-99323214D01*
X151133333Y-99323214D01*
X150942857Y-99418452D01*
X150847619Y-99513690D01*
X150752380Y-99704166D01*
X150657142Y-100085119D01*
X150561904Y-100275595D01*
X150466666Y-100370833D01*
X150276190Y-100466071D01*
X150085714Y-100466071D01*
X149895238Y-100370833D01*
X149800000Y-100275595D01*
X149704761Y-100085119D01*
X149704761Y-99608928D01*
X149800000Y-99323214D01*
X151514285Y-97323214D02*
X151609523Y-97418452D01*
X151704761Y-97704166D01*
X151704761Y-97894642D01*
X151609523Y-98180357D01*
X151419047Y-98370833D01*
X151228571Y-98466071D01*
X150847619Y-98561309D01*
X150561904Y-98561309D01*
X150180952Y-98466071D01*
X149990476Y-98370833D01*
X149800000Y-98180357D01*
X149704761Y-97894642D01*
X149704761Y-97704166D01*
X149800000Y-97418452D01*
X149895238Y-97323214D01*
X149704761Y-96085119D02*
X149704761Y-95704166D01*
X149800000Y-95513690D01*
X149990476Y-95323214D01*
X150371428Y-95227976D01*
X151038095Y-95227976D01*
X151419047Y-95323214D01*
X151609523Y-95513690D01*
X151704761Y-95704166D01*
X151704761Y-96085119D01*
X151609523Y-96275595D01*
X151419047Y-96466071D01*
X151038095Y-96561309D01*
X150371428Y-96561309D01*
X149990476Y-96466071D01*
X149800000Y-96275595D01*
X149704761Y-96085119D01*
X151704761Y-93227976D02*
X150752380Y-93894642D01*
X151704761Y-94370833D02*
X149704761Y-94370833D01*
X149704761Y-93608928D01*
X149800000Y-93418452D01*
X149895238Y-93323214D01*
X150085714Y-93227976D01*
X150371428Y-93227976D01*
X150561904Y-93323214D01*
X150657142Y-93418452D01*
X150752380Y-93608928D01*
X150752380Y-94370833D01*
X150657142Y-92370833D02*
X150657142Y-91704166D01*
X151704761Y-91418452D02*
X151704761Y-92370833D01*
X149704761Y-92370833D01*
X149704761Y-91418452D01*
X85477976Y-159254761D02*
X86144642Y-161254761D01*
X86811309Y-159254761D01*
X87477976Y-160492857D02*
X89001785Y-160492857D01*
X89858928Y-161159523D02*
X90144642Y-161254761D01*
X90620833Y-161254761D01*
X90811309Y-161159523D01*
X90906547Y-161064285D01*
X91001785Y-160873809D01*
X91001785Y-160683333D01*
X90906547Y-160492857D01*
X90811309Y-160397619D01*
X90620833Y-160302380D01*
X90239880Y-160207142D01*
X90049404Y-160111904D01*
X89954166Y-160016666D01*
X89858928Y-159826190D01*
X89858928Y-159635714D01*
X89954166Y-159445238D01*
X90049404Y-159350000D01*
X90239880Y-159254761D01*
X90716071Y-159254761D01*
X91001785Y-159350000D01*
X93001785Y-161064285D02*
X92906547Y-161159523D01*
X92620833Y-161254761D01*
X92430357Y-161254761D01*
X92144642Y-161159523D01*
X91954166Y-160969047D01*
X91858928Y-160778571D01*
X91763690Y-160397619D01*
X91763690Y-160111904D01*
X91858928Y-159730952D01*
X91954166Y-159540476D01*
X92144642Y-159350000D01*
X92430357Y-159254761D01*
X92620833Y-159254761D01*
X92906547Y-159350000D01*
X93001785Y-159445238D01*
X94239880Y-159254761D02*
X94620833Y-159254761D01*
X94811309Y-159350000D01*
X95001785Y-159540476D01*
X95097023Y-159921428D01*
X95097023Y-160588095D01*
X95001785Y-160969047D01*
X94811309Y-161159523D01*
X94620833Y-161254761D01*
X94239880Y-161254761D01*
X94049404Y-161159523D01*
X93858928Y-160969047D01*
X93763690Y-160588095D01*
X93763690Y-159921428D01*
X93858928Y-159540476D01*
X94049404Y-159350000D01*
X94239880Y-159254761D01*
X97097023Y-161254761D02*
X96430357Y-160302380D01*
X95954166Y-161254761D02*
X95954166Y-159254761D01*
X96716071Y-159254761D01*
X96906547Y-159350000D01*
X97001785Y-159445238D01*
X97097023Y-159635714D01*
X97097023Y-159921428D01*
X97001785Y-160111904D01*
X96906547Y-160207142D01*
X96716071Y-160302380D01*
X95954166Y-160302380D01*
X97954166Y-160207142D02*
X98620833Y-160207142D01*
X98906547Y-161254761D02*
X97954166Y-161254761D01*
X97954166Y-159254761D01*
X98906547Y-159254761D01*
X127504761Y-104847023D02*
X129504761Y-104180357D01*
X127504761Y-103513690D01*
X128742857Y-102847023D02*
X128742857Y-101323214D01*
X129409523Y-100466071D02*
X129504761Y-100180357D01*
X129504761Y-99704166D01*
X129409523Y-99513690D01*
X129314285Y-99418452D01*
X129123809Y-99323214D01*
X128933333Y-99323214D01*
X128742857Y-99418452D01*
X128647619Y-99513690D01*
X128552380Y-99704166D01*
X128457142Y-100085119D01*
X128361904Y-100275595D01*
X128266666Y-100370833D01*
X128076190Y-100466071D01*
X127885714Y-100466071D01*
X127695238Y-100370833D01*
X127600000Y-100275595D01*
X127504761Y-100085119D01*
X127504761Y-99608928D01*
X127600000Y-99323214D01*
X129314285Y-97323214D02*
X129409523Y-97418452D01*
X129504761Y-97704166D01*
X129504761Y-97894642D01*
X129409523Y-98180357D01*
X129219047Y-98370833D01*
X129028571Y-98466071D01*
X128647619Y-98561309D01*
X128361904Y-98561309D01*
X127980952Y-98466071D01*
X127790476Y-98370833D01*
X127600000Y-98180357D01*
X127504761Y-97894642D01*
X127504761Y-97704166D01*
X127600000Y-97418452D01*
X127695238Y-97323214D01*
X127504761Y-96085119D02*
X127504761Y-95704166D01*
X127600000Y-95513690D01*
X127790476Y-95323214D01*
X128171428Y-95227976D01*
X128838095Y-95227976D01*
X129219047Y-95323214D01*
X129409523Y-95513690D01*
X129504761Y-95704166D01*
X129504761Y-96085119D01*
X129409523Y-96275595D01*
X129219047Y-96466071D01*
X128838095Y-96561309D01*
X128171428Y-96561309D01*
X127790476Y-96466071D01*
X127600000Y-96275595D01*
X127504761Y-96085119D01*
X129504761Y-93227976D02*
X128552380Y-93894642D01*
X129504761Y-94370833D02*
X127504761Y-94370833D01*
X127504761Y-93608928D01*
X127600000Y-93418452D01*
X127695238Y-93323214D01*
X127885714Y-93227976D01*
X128171428Y-93227976D01*
X128361904Y-93323214D01*
X128457142Y-93418452D01*
X128552380Y-93608928D01*
X128552380Y-94370833D01*
X128457142Y-92370833D02*
X128457142Y-91704166D01*
X129504761Y-91418452D02*
X129504761Y-92370833D01*
X127504761Y-92370833D01*
X127504761Y-91418452D01*
X116404761Y-104847023D02*
X118404761Y-104180357D01*
X116404761Y-103513690D01*
X117642857Y-102847023D02*
X117642857Y-101323214D01*
X118309523Y-100466071D02*
X118404761Y-100180357D01*
X118404761Y-99704166D01*
X118309523Y-99513690D01*
X118214285Y-99418452D01*
X118023809Y-99323214D01*
X117833333Y-99323214D01*
X117642857Y-99418452D01*
X117547619Y-99513690D01*
X117452380Y-99704166D01*
X117357142Y-100085119D01*
X117261904Y-100275595D01*
X117166666Y-100370833D01*
X116976190Y-100466071D01*
X116785714Y-100466071D01*
X116595238Y-100370833D01*
X116500000Y-100275595D01*
X116404761Y-100085119D01*
X116404761Y-99608928D01*
X116500000Y-99323214D01*
X118214285Y-97323214D02*
X118309523Y-97418452D01*
X118404761Y-97704166D01*
X118404761Y-97894642D01*
X118309523Y-98180357D01*
X118119047Y-98370833D01*
X117928571Y-98466071D01*
X117547619Y-98561309D01*
X117261904Y-98561309D01*
X116880952Y-98466071D01*
X116690476Y-98370833D01*
X116500000Y-98180357D01*
X116404761Y-97894642D01*
X116404761Y-97704166D01*
X116500000Y-97418452D01*
X116595238Y-97323214D01*
X116404761Y-96085119D02*
X116404761Y-95704166D01*
X116500000Y-95513690D01*
X116690476Y-95323214D01*
X117071428Y-95227976D01*
X117738095Y-95227976D01*
X118119047Y-95323214D01*
X118309523Y-95513690D01*
X118404761Y-95704166D01*
X118404761Y-96085119D01*
X118309523Y-96275595D01*
X118119047Y-96466071D01*
X117738095Y-96561309D01*
X117071428Y-96561309D01*
X116690476Y-96466071D01*
X116500000Y-96275595D01*
X116404761Y-96085119D01*
X118404761Y-93227976D02*
X117452380Y-93894642D01*
X118404761Y-94370833D02*
X116404761Y-94370833D01*
X116404761Y-93608928D01*
X116500000Y-93418452D01*
X116595238Y-93323214D01*
X116785714Y-93227976D01*
X117071428Y-93227976D01*
X117261904Y-93323214D01*
X117357142Y-93418452D01*
X117452380Y-93608928D01*
X117452380Y-94370833D01*
X117357142Y-92370833D02*
X117357142Y-91704166D01*
X118404761Y-91418452D02*
X118404761Y-92370833D01*
X116404761Y-92370833D01*
X116404761Y-91418452D01*
X138604761Y-104847023D02*
X140604761Y-104180357D01*
X138604761Y-103513690D01*
X139842857Y-102847023D02*
X139842857Y-101323214D01*
X140509523Y-100466071D02*
X140604761Y-100180357D01*
X140604761Y-99704166D01*
X140509523Y-99513690D01*
X140414285Y-99418452D01*
X140223809Y-99323214D01*
X140033333Y-99323214D01*
X139842857Y-99418452D01*
X139747619Y-99513690D01*
X139652380Y-99704166D01*
X139557142Y-100085119D01*
X139461904Y-100275595D01*
X139366666Y-100370833D01*
X139176190Y-100466071D01*
X138985714Y-100466071D01*
X138795238Y-100370833D01*
X138700000Y-100275595D01*
X138604761Y-100085119D01*
X138604761Y-99608928D01*
X138700000Y-99323214D01*
X140414285Y-97323214D02*
X140509523Y-97418452D01*
X140604761Y-97704166D01*
X140604761Y-97894642D01*
X140509523Y-98180357D01*
X140319047Y-98370833D01*
X140128571Y-98466071D01*
X139747619Y-98561309D01*
X139461904Y-98561309D01*
X139080952Y-98466071D01*
X138890476Y-98370833D01*
X138700000Y-98180357D01*
X138604761Y-97894642D01*
X138604761Y-97704166D01*
X138700000Y-97418452D01*
X138795238Y-97323214D01*
X138604761Y-96085119D02*
X138604761Y-95704166D01*
X138700000Y-95513690D01*
X138890476Y-95323214D01*
X139271428Y-95227976D01*
X139938095Y-95227976D01*
X140319047Y-95323214D01*
X140509523Y-95513690D01*
X140604761Y-95704166D01*
X140604761Y-96085119D01*
X140509523Y-96275595D01*
X140319047Y-96466071D01*
X139938095Y-96561309D01*
X139271428Y-96561309D01*
X138890476Y-96466071D01*
X138700000Y-96275595D01*
X138604761Y-96085119D01*
X140604761Y-93227976D02*
X139652380Y-93894642D01*
X140604761Y-94370833D02*
X138604761Y-94370833D01*
X138604761Y-93608928D01*
X138700000Y-93418452D01*
X138795238Y-93323214D01*
X138985714Y-93227976D01*
X139271428Y-93227976D01*
X139461904Y-93323214D01*
X139557142Y-93418452D01*
X139652380Y-93608928D01*
X139652380Y-94370833D01*
X139557142Y-92370833D02*
X139557142Y-91704166D01*
X140604761Y-91418452D02*
X140604761Y-92370833D01*
X138604761Y-92370833D01*
X138604761Y-91418452D01*
M02*
