%TF.GenerationSoftware,KiCad,Pcbnew,6.0.10-86aedd382b~118~ubuntu20.04.1*%
%TF.CreationDate,2023-01-07T17:55:22-08:00*%
%TF.ProjectId,coil_terminator_panelized,636f696c-5f74-4657-926d-696e61746f72,rev?*%
%TF.SameCoordinates,Original*%
%TF.FileFunction,Soldermask,Top*%
%TF.FilePolarity,Negative*%
%FSLAX46Y46*%
G04 Gerber Fmt 4.6, Leading zero omitted, Abs format (unit mm)*
G04 Created by KiCad (PCBNEW 6.0.10-86aedd382b~118~ubuntu20.04.1) date 2023-01-07 17:55:22*
%MOMM*%
%LPD*%
G01*
G04 APERTURE LIST*
G04 Aperture macros list*
%AMRoundRect*
0 Rectangle with rounded corners*
0 $1 Rounding radius*
0 $2 $3 $4 $5 $6 $7 $8 $9 X,Y pos of 4 corners*
0 Add a 4 corners polygon primitive as box body*
4,1,4,$2,$3,$4,$5,$6,$7,$8,$9,$2,$3,0*
0 Add four circle primitives for the rounded corners*
1,1,$1+$1,$2,$3*
1,1,$1+$1,$4,$5*
1,1,$1+$1,$6,$7*
1,1,$1+$1,$8,$9*
0 Add four rect primitives between the rounded corners*
20,1,$1+$1,$2,$3,$4,$5,0*
20,1,$1+$1,$4,$5,$6,$7,0*
20,1,$1+$1,$6,$7,$8,$9,0*
20,1,$1+$1,$8,$9,$2,$3,0*%
G04 Aperture macros list end*
%ADD10C,0.150000*%
%ADD11C,1.300000*%
%ADD12C,2.000000*%
%ADD13RoundRect,0.250000X-0.625000X0.400000X-0.625000X-0.400000X0.625000X-0.400000X0.625000X0.400000X0*%
%ADD14R,1.050000X1.000000*%
%ADD15R,2.200000X1.050000*%
%ADD16R,1.000000X1.000000*%
%ADD17O,1.000000X1.000000*%
G04 APERTURE END LIST*
D10*
X115250000Y-111250000D02*
X117250000Y-111250000D01*
X117250000Y-111250000D02*
X117250000Y-113750000D01*
X117250000Y-113750000D02*
X115250000Y-113750000D01*
X115250000Y-113750000D02*
X115250000Y-111250000D01*
G36*
X115250000Y-111250000D02*
G01*
X117250000Y-111250000D01*
X117250000Y-113750000D01*
X115250000Y-113750000D01*
X115250000Y-111250000D01*
G37*
X115250000Y-118850000D02*
X117250000Y-118850000D01*
X117250000Y-118850000D02*
X117250000Y-121350000D01*
X117250000Y-121350000D02*
X115250000Y-121350000D01*
X115250000Y-121350000D02*
X115250000Y-118850000D01*
G36*
X115250000Y-118850000D02*
G01*
X117250000Y-118850000D01*
X117250000Y-121350000D01*
X115250000Y-121350000D01*
X115250000Y-118850000D01*
G37*
X115250000Y-134050000D02*
X117250000Y-134050000D01*
X117250000Y-134050000D02*
X117250000Y-136550000D01*
X117250000Y-136550000D02*
X115250000Y-136550000D01*
X115250000Y-136550000D02*
X115250000Y-134050000D01*
G36*
X115250000Y-134050000D02*
G01*
X117250000Y-134050000D01*
X117250000Y-136550000D01*
X115250000Y-136550000D01*
X115250000Y-134050000D01*
G37*
X115250000Y-126450000D02*
X117250000Y-126450000D01*
X117250000Y-126450000D02*
X117250000Y-128950000D01*
X117250000Y-128950000D02*
X115250000Y-128950000D01*
X115250000Y-128950000D02*
X115250000Y-126450000D01*
G36*
X115250000Y-126450000D02*
G01*
X117250000Y-126450000D01*
X117250000Y-128950000D01*
X115250000Y-128950000D01*
X115250000Y-126450000D01*
G37*
X115250000Y-141650000D02*
X117250000Y-141650000D01*
X117250000Y-141650000D02*
X117250000Y-144150000D01*
X117250000Y-144150000D02*
X115250000Y-144150000D01*
X115250000Y-144150000D02*
X115250000Y-141650000D01*
G36*
X115250000Y-141650000D02*
G01*
X117250000Y-141650000D01*
X117250000Y-144150000D01*
X115250000Y-144150000D01*
X115250000Y-141650000D01*
G37*
X115250000Y-149250000D02*
X117250000Y-149250000D01*
X117250000Y-149250000D02*
X117250000Y-151750000D01*
X117250000Y-151750000D02*
X115250000Y-151750000D01*
X115250000Y-151750000D02*
X115250000Y-149250000D01*
G36*
X115250000Y-149250000D02*
G01*
X117250000Y-149250000D01*
X117250000Y-151750000D01*
X115250000Y-151750000D01*
X115250000Y-149250000D01*
G37*
X115250000Y-156850000D02*
X117250000Y-156850000D01*
X117250000Y-156850000D02*
X117250000Y-159350000D01*
X117250000Y-159350000D02*
X115250000Y-159350000D01*
X115250000Y-159350000D02*
X115250000Y-156850000D01*
G36*
X115250000Y-156850000D02*
G01*
X117250000Y-156850000D01*
X117250000Y-159350000D01*
X115250000Y-159350000D01*
X115250000Y-156850000D01*
G37*
X115250000Y-164450000D02*
X117250000Y-164450000D01*
X117250000Y-164450000D02*
X117250000Y-166950000D01*
X117250000Y-166950000D02*
X115250000Y-166950000D01*
X115250000Y-166950000D02*
X115250000Y-164450000D01*
G36*
X115250000Y-164450000D02*
G01*
X117250000Y-164450000D01*
X117250000Y-166950000D01*
X115250000Y-166950000D01*
X115250000Y-164450000D01*
G37*
X115250000Y-172050000D02*
X117250000Y-172050000D01*
X117250000Y-172050000D02*
X117250000Y-174550000D01*
X117250000Y-174550000D02*
X115250000Y-174550000D01*
X115250000Y-174550000D02*
X115250000Y-172050000D01*
G36*
X115250000Y-172050000D02*
G01*
X117250000Y-172050000D01*
X117250000Y-174550000D01*
X115250000Y-174550000D01*
X115250000Y-172050000D01*
G37*
X115250000Y-179650000D02*
X117250000Y-179650000D01*
X117250000Y-179650000D02*
X117250000Y-182150000D01*
X117250000Y-182150000D02*
X115250000Y-182150000D01*
X115250000Y-182150000D02*
X115250000Y-179650000D01*
G36*
X115250000Y-179650000D02*
G01*
X117250000Y-179650000D01*
X117250000Y-182150000D01*
X115250000Y-182150000D01*
X115250000Y-179650000D01*
G37*
X126350000Y-111250000D02*
X128350000Y-111250000D01*
X128350000Y-111250000D02*
X128350000Y-113750000D01*
X128350000Y-113750000D02*
X126350000Y-113750000D01*
X126350000Y-113750000D02*
X126350000Y-111250000D01*
G36*
X126350000Y-111250000D02*
G01*
X128350000Y-111250000D01*
X128350000Y-113750000D01*
X126350000Y-113750000D01*
X126350000Y-111250000D01*
G37*
X126350000Y-118850000D02*
X128350000Y-118850000D01*
X128350000Y-118850000D02*
X128350000Y-121350000D01*
X128350000Y-121350000D02*
X126350000Y-121350000D01*
X126350000Y-121350000D02*
X126350000Y-118850000D01*
G36*
X126350000Y-118850000D02*
G01*
X128350000Y-118850000D01*
X128350000Y-121350000D01*
X126350000Y-121350000D01*
X126350000Y-118850000D01*
G37*
X126350000Y-126450000D02*
X128350000Y-126450000D01*
X128350000Y-126450000D02*
X128350000Y-128950000D01*
X128350000Y-128950000D02*
X126350000Y-128950000D01*
X126350000Y-128950000D02*
X126350000Y-126450000D01*
G36*
X126350000Y-126450000D02*
G01*
X128350000Y-126450000D01*
X128350000Y-128950000D01*
X126350000Y-128950000D01*
X126350000Y-126450000D01*
G37*
X126350000Y-134050000D02*
X128350000Y-134050000D01*
X128350000Y-134050000D02*
X128350000Y-136550000D01*
X128350000Y-136550000D02*
X126350000Y-136550000D01*
X126350000Y-136550000D02*
X126350000Y-134050000D01*
G36*
X126350000Y-134050000D02*
G01*
X128350000Y-134050000D01*
X128350000Y-136550000D01*
X126350000Y-136550000D01*
X126350000Y-134050000D01*
G37*
X126350000Y-141650000D02*
X128350000Y-141650000D01*
X128350000Y-141650000D02*
X128350000Y-144150000D01*
X128350000Y-144150000D02*
X126350000Y-144150000D01*
X126350000Y-144150000D02*
X126350000Y-141650000D01*
G36*
X126350000Y-141650000D02*
G01*
X128350000Y-141650000D01*
X128350000Y-144150000D01*
X126350000Y-144150000D01*
X126350000Y-141650000D01*
G37*
X126350000Y-149250000D02*
X128350000Y-149250000D01*
X128350000Y-149250000D02*
X128350000Y-151750000D01*
X128350000Y-151750000D02*
X126350000Y-151750000D01*
X126350000Y-151750000D02*
X126350000Y-149250000D01*
G36*
X126350000Y-149250000D02*
G01*
X128350000Y-149250000D01*
X128350000Y-151750000D01*
X126350000Y-151750000D01*
X126350000Y-149250000D01*
G37*
X126350000Y-156850000D02*
X128350000Y-156850000D01*
X128350000Y-156850000D02*
X128350000Y-159350000D01*
X128350000Y-159350000D02*
X126350000Y-159350000D01*
X126350000Y-159350000D02*
X126350000Y-156850000D01*
G36*
X126350000Y-156850000D02*
G01*
X128350000Y-156850000D01*
X128350000Y-159350000D01*
X126350000Y-159350000D01*
X126350000Y-156850000D01*
G37*
X126350000Y-164450000D02*
X128350000Y-164450000D01*
X128350000Y-164450000D02*
X128350000Y-166950000D01*
X128350000Y-166950000D02*
X126350000Y-166950000D01*
X126350000Y-166950000D02*
X126350000Y-164450000D01*
G36*
X126350000Y-164450000D02*
G01*
X128350000Y-164450000D01*
X128350000Y-166950000D01*
X126350000Y-166950000D01*
X126350000Y-164450000D01*
G37*
X126350000Y-172050000D02*
X128350000Y-172050000D01*
X128350000Y-172050000D02*
X128350000Y-174550000D01*
X128350000Y-174550000D02*
X126350000Y-174550000D01*
X126350000Y-174550000D02*
X126350000Y-172050000D01*
G36*
X126350000Y-172050000D02*
G01*
X128350000Y-172050000D01*
X128350000Y-174550000D01*
X126350000Y-174550000D01*
X126350000Y-172050000D01*
G37*
X126350000Y-179650000D02*
X128350000Y-179650000D01*
X128350000Y-179650000D02*
X128350000Y-182150000D01*
X128350000Y-182150000D02*
X126350000Y-182150000D01*
X126350000Y-182150000D02*
X126350000Y-179650000D01*
G36*
X126350000Y-179650000D02*
G01*
X128350000Y-179650000D01*
X128350000Y-182150000D01*
X126350000Y-182150000D01*
X126350000Y-179650000D01*
G37*
X137450000Y-111250000D02*
X139450000Y-111250000D01*
X139450000Y-111250000D02*
X139450000Y-113750000D01*
X139450000Y-113750000D02*
X137450000Y-113750000D01*
X137450000Y-113750000D02*
X137450000Y-111250000D01*
G36*
X137450000Y-111250000D02*
G01*
X139450000Y-111250000D01*
X139450000Y-113750000D01*
X137450000Y-113750000D01*
X137450000Y-111250000D01*
G37*
X137450000Y-118850000D02*
X139450000Y-118850000D01*
X139450000Y-118850000D02*
X139450000Y-121350000D01*
X139450000Y-121350000D02*
X137450000Y-121350000D01*
X137450000Y-121350000D02*
X137450000Y-118850000D01*
G36*
X137450000Y-118850000D02*
G01*
X139450000Y-118850000D01*
X139450000Y-121350000D01*
X137450000Y-121350000D01*
X137450000Y-118850000D01*
G37*
X137450000Y-126450000D02*
X139450000Y-126450000D01*
X139450000Y-126450000D02*
X139450000Y-128950000D01*
X139450000Y-128950000D02*
X137450000Y-128950000D01*
X137450000Y-128950000D02*
X137450000Y-126450000D01*
G36*
X137450000Y-126450000D02*
G01*
X139450000Y-126450000D01*
X139450000Y-128950000D01*
X137450000Y-128950000D01*
X137450000Y-126450000D01*
G37*
X137450000Y-134050000D02*
X139450000Y-134050000D01*
X139450000Y-134050000D02*
X139450000Y-136550000D01*
X139450000Y-136550000D02*
X137450000Y-136550000D01*
X137450000Y-136550000D02*
X137450000Y-134050000D01*
G36*
X137450000Y-134050000D02*
G01*
X139450000Y-134050000D01*
X139450000Y-136550000D01*
X137450000Y-136550000D01*
X137450000Y-134050000D01*
G37*
X137450000Y-141650000D02*
X139450000Y-141650000D01*
X139450000Y-141650000D02*
X139450000Y-144150000D01*
X139450000Y-144150000D02*
X137450000Y-144150000D01*
X137450000Y-144150000D02*
X137450000Y-141650000D01*
G36*
X137450000Y-141650000D02*
G01*
X139450000Y-141650000D01*
X139450000Y-144150000D01*
X137450000Y-144150000D01*
X137450000Y-141650000D01*
G37*
X137450000Y-149250000D02*
X139450000Y-149250000D01*
X139450000Y-149250000D02*
X139450000Y-151750000D01*
X139450000Y-151750000D02*
X137450000Y-151750000D01*
X137450000Y-151750000D02*
X137450000Y-149250000D01*
G36*
X137450000Y-149250000D02*
G01*
X139450000Y-149250000D01*
X139450000Y-151750000D01*
X137450000Y-151750000D01*
X137450000Y-149250000D01*
G37*
X137450000Y-156850000D02*
X139450000Y-156850000D01*
X139450000Y-156850000D02*
X139450000Y-159350000D01*
X139450000Y-159350000D02*
X137450000Y-159350000D01*
X137450000Y-159350000D02*
X137450000Y-156850000D01*
G36*
X137450000Y-156850000D02*
G01*
X139450000Y-156850000D01*
X139450000Y-159350000D01*
X137450000Y-159350000D01*
X137450000Y-156850000D01*
G37*
X137450000Y-164450000D02*
X139450000Y-164450000D01*
X139450000Y-164450000D02*
X139450000Y-166950000D01*
X139450000Y-166950000D02*
X137450000Y-166950000D01*
X137450000Y-166950000D02*
X137450000Y-164450000D01*
G36*
X137450000Y-164450000D02*
G01*
X139450000Y-164450000D01*
X139450000Y-166950000D01*
X137450000Y-166950000D01*
X137450000Y-164450000D01*
G37*
X137450000Y-172050000D02*
X139450000Y-172050000D01*
X139450000Y-172050000D02*
X139450000Y-174550000D01*
X139450000Y-174550000D02*
X137450000Y-174550000D01*
X137450000Y-174550000D02*
X137450000Y-172050000D01*
G36*
X137450000Y-172050000D02*
G01*
X139450000Y-172050000D01*
X139450000Y-174550000D01*
X137450000Y-174550000D01*
X137450000Y-172050000D01*
G37*
X137450000Y-179650000D02*
X139450000Y-179650000D01*
X139450000Y-179650000D02*
X139450000Y-182150000D01*
X139450000Y-182150000D02*
X137450000Y-182150000D01*
X137450000Y-182150000D02*
X137450000Y-179650000D01*
G36*
X137450000Y-179650000D02*
G01*
X139450000Y-179650000D01*
X139450000Y-182150000D01*
X137450000Y-182150000D01*
X137450000Y-179650000D01*
G37*
X148550000Y-111250000D02*
X150550000Y-111250000D01*
X150550000Y-111250000D02*
X150550000Y-113750000D01*
X150550000Y-113750000D02*
X148550000Y-113750000D01*
X148550000Y-113750000D02*
X148550000Y-111250000D01*
G36*
X148550000Y-111250000D02*
G01*
X150550000Y-111250000D01*
X150550000Y-113750000D01*
X148550000Y-113750000D01*
X148550000Y-111250000D01*
G37*
X148550000Y-118850000D02*
X150550000Y-118850000D01*
X150550000Y-118850000D02*
X150550000Y-121350000D01*
X150550000Y-121350000D02*
X148550000Y-121350000D01*
X148550000Y-121350000D02*
X148550000Y-118850000D01*
G36*
X148550000Y-118850000D02*
G01*
X150550000Y-118850000D01*
X150550000Y-121350000D01*
X148550000Y-121350000D01*
X148550000Y-118850000D01*
G37*
X148550000Y-126450000D02*
X150550000Y-126450000D01*
X150550000Y-126450000D02*
X150550000Y-128950000D01*
X150550000Y-128950000D02*
X148550000Y-128950000D01*
X148550000Y-128950000D02*
X148550000Y-126450000D01*
G36*
X148550000Y-126450000D02*
G01*
X150550000Y-126450000D01*
X150550000Y-128950000D01*
X148550000Y-128950000D01*
X148550000Y-126450000D01*
G37*
X148550000Y-134050000D02*
X150550000Y-134050000D01*
X150550000Y-134050000D02*
X150550000Y-136550000D01*
X150550000Y-136550000D02*
X148550000Y-136550000D01*
X148550000Y-136550000D02*
X148550000Y-134050000D01*
G36*
X148550000Y-134050000D02*
G01*
X150550000Y-134050000D01*
X150550000Y-136550000D01*
X148550000Y-136550000D01*
X148550000Y-134050000D01*
G37*
X148550000Y-141650000D02*
X150550000Y-141650000D01*
X150550000Y-141650000D02*
X150550000Y-144150000D01*
X150550000Y-144150000D02*
X148550000Y-144150000D01*
X148550000Y-144150000D02*
X148550000Y-141650000D01*
G36*
X148550000Y-141650000D02*
G01*
X150550000Y-141650000D01*
X150550000Y-144150000D01*
X148550000Y-144150000D01*
X148550000Y-141650000D01*
G37*
X148550000Y-149250000D02*
X150550000Y-149250000D01*
X150550000Y-149250000D02*
X150550000Y-151750000D01*
X150550000Y-151750000D02*
X148550000Y-151750000D01*
X148550000Y-151750000D02*
X148550000Y-149250000D01*
G36*
X148550000Y-149250000D02*
G01*
X150550000Y-149250000D01*
X150550000Y-151750000D01*
X148550000Y-151750000D01*
X148550000Y-149250000D01*
G37*
X148550000Y-156850000D02*
X150550000Y-156850000D01*
X150550000Y-156850000D02*
X150550000Y-159350000D01*
X150550000Y-159350000D02*
X148550000Y-159350000D01*
X148550000Y-159350000D02*
X148550000Y-156850000D01*
G36*
X148550000Y-156850000D02*
G01*
X150550000Y-156850000D01*
X150550000Y-159350000D01*
X148550000Y-159350000D01*
X148550000Y-156850000D01*
G37*
X148550000Y-164450000D02*
X150550000Y-164450000D01*
X150550000Y-164450000D02*
X150550000Y-166950000D01*
X150550000Y-166950000D02*
X148550000Y-166950000D01*
X148550000Y-166950000D02*
X148550000Y-164450000D01*
G36*
X148550000Y-164450000D02*
G01*
X150550000Y-164450000D01*
X150550000Y-166950000D01*
X148550000Y-166950000D01*
X148550000Y-164450000D01*
G37*
X148550000Y-172050000D02*
X150550000Y-172050000D01*
X150550000Y-172050000D02*
X150550000Y-174550000D01*
X150550000Y-174550000D02*
X148550000Y-174550000D01*
X148550000Y-174550000D02*
X148550000Y-172050000D01*
G36*
X148550000Y-172050000D02*
G01*
X150550000Y-172050000D01*
X150550000Y-174550000D01*
X148550000Y-174550000D01*
X148550000Y-172050000D01*
G37*
X148550000Y-179650000D02*
X150550000Y-179650000D01*
X150550000Y-179650000D02*
X150550000Y-182150000D01*
X150550000Y-182150000D02*
X148550000Y-182150000D01*
X148550000Y-182150000D02*
X148550000Y-179650000D01*
G36*
X148550000Y-179650000D02*
G01*
X150550000Y-179650000D01*
X150550000Y-182150000D01*
X148550000Y-182150000D01*
X148550000Y-179650000D01*
G37*
X159650000Y-111250000D02*
X161650000Y-111250000D01*
X161650000Y-111250000D02*
X161650000Y-113750000D01*
X161650000Y-113750000D02*
X159650000Y-113750000D01*
X159650000Y-113750000D02*
X159650000Y-111250000D01*
G36*
X159650000Y-111250000D02*
G01*
X161650000Y-111250000D01*
X161650000Y-113750000D01*
X159650000Y-113750000D01*
X159650000Y-111250000D01*
G37*
X159650000Y-118850000D02*
X161650000Y-118850000D01*
X161650000Y-118850000D02*
X161650000Y-121350000D01*
X161650000Y-121350000D02*
X159650000Y-121350000D01*
X159650000Y-121350000D02*
X159650000Y-118850000D01*
G36*
X159650000Y-118850000D02*
G01*
X161650000Y-118850000D01*
X161650000Y-121350000D01*
X159650000Y-121350000D01*
X159650000Y-118850000D01*
G37*
X159650000Y-126450000D02*
X161650000Y-126450000D01*
X161650000Y-126450000D02*
X161650000Y-128950000D01*
X161650000Y-128950000D02*
X159650000Y-128950000D01*
X159650000Y-128950000D02*
X159650000Y-126450000D01*
G36*
X159650000Y-126450000D02*
G01*
X161650000Y-126450000D01*
X161650000Y-128950000D01*
X159650000Y-128950000D01*
X159650000Y-126450000D01*
G37*
X159650000Y-134050000D02*
X161650000Y-134050000D01*
X161650000Y-134050000D02*
X161650000Y-136550000D01*
X161650000Y-136550000D02*
X159650000Y-136550000D01*
X159650000Y-136550000D02*
X159650000Y-134050000D01*
G36*
X159650000Y-134050000D02*
G01*
X161650000Y-134050000D01*
X161650000Y-136550000D01*
X159650000Y-136550000D01*
X159650000Y-134050000D01*
G37*
X159650000Y-141650000D02*
X161650000Y-141650000D01*
X161650000Y-141650000D02*
X161650000Y-144150000D01*
X161650000Y-144150000D02*
X159650000Y-144150000D01*
X159650000Y-144150000D02*
X159650000Y-141650000D01*
G36*
X159650000Y-141650000D02*
G01*
X161650000Y-141650000D01*
X161650000Y-144150000D01*
X159650000Y-144150000D01*
X159650000Y-141650000D01*
G37*
X159650000Y-149250000D02*
X161650000Y-149250000D01*
X161650000Y-149250000D02*
X161650000Y-151750000D01*
X161650000Y-151750000D02*
X159650000Y-151750000D01*
X159650000Y-151750000D02*
X159650000Y-149250000D01*
G36*
X159650000Y-149250000D02*
G01*
X161650000Y-149250000D01*
X161650000Y-151750000D01*
X159650000Y-151750000D01*
X159650000Y-149250000D01*
G37*
X159650000Y-156850000D02*
X161650000Y-156850000D01*
X161650000Y-156850000D02*
X161650000Y-159350000D01*
X161650000Y-159350000D02*
X159650000Y-159350000D01*
X159650000Y-159350000D02*
X159650000Y-156850000D01*
G36*
X159650000Y-156850000D02*
G01*
X161650000Y-156850000D01*
X161650000Y-159350000D01*
X159650000Y-159350000D01*
X159650000Y-156850000D01*
G37*
X159650000Y-164450000D02*
X161650000Y-164450000D01*
X161650000Y-164450000D02*
X161650000Y-166950000D01*
X161650000Y-166950000D02*
X159650000Y-166950000D01*
X159650000Y-166950000D02*
X159650000Y-164450000D01*
G36*
X159650000Y-164450000D02*
G01*
X161650000Y-164450000D01*
X161650000Y-166950000D01*
X159650000Y-166950000D01*
X159650000Y-164450000D01*
G37*
X159650000Y-172050000D02*
X161650000Y-172050000D01*
X161650000Y-172050000D02*
X161650000Y-174550000D01*
X161650000Y-174550000D02*
X159650000Y-174550000D01*
X159650000Y-174550000D02*
X159650000Y-172050000D01*
G36*
X159650000Y-172050000D02*
G01*
X161650000Y-172050000D01*
X161650000Y-174550000D01*
X159650000Y-174550000D01*
X159650000Y-172050000D01*
G37*
X159650000Y-179650000D02*
X161650000Y-179650000D01*
X161650000Y-179650000D02*
X161650000Y-182150000D01*
X161650000Y-182150000D02*
X159650000Y-182150000D01*
X159650000Y-182150000D02*
X159650000Y-179650000D01*
G36*
X159650000Y-179650000D02*
G01*
X161650000Y-179650000D01*
X161650000Y-182150000D01*
X159650000Y-182150000D01*
X159650000Y-179650000D01*
G37*
X170750000Y-111250000D02*
X172750000Y-111250000D01*
X172750000Y-111250000D02*
X172750000Y-113750000D01*
X172750000Y-113750000D02*
X170750000Y-113750000D01*
X170750000Y-113750000D02*
X170750000Y-111250000D01*
G36*
X170750000Y-111250000D02*
G01*
X172750000Y-111250000D01*
X172750000Y-113750000D01*
X170750000Y-113750000D01*
X170750000Y-111250000D01*
G37*
X170750000Y-118850000D02*
X172750000Y-118850000D01*
X172750000Y-118850000D02*
X172750000Y-121350000D01*
X172750000Y-121350000D02*
X170750000Y-121350000D01*
X170750000Y-121350000D02*
X170750000Y-118850000D01*
G36*
X170750000Y-118850000D02*
G01*
X172750000Y-118850000D01*
X172750000Y-121350000D01*
X170750000Y-121350000D01*
X170750000Y-118850000D01*
G37*
X170750000Y-126450000D02*
X172750000Y-126450000D01*
X172750000Y-126450000D02*
X172750000Y-128950000D01*
X172750000Y-128950000D02*
X170750000Y-128950000D01*
X170750000Y-128950000D02*
X170750000Y-126450000D01*
G36*
X170750000Y-126450000D02*
G01*
X172750000Y-126450000D01*
X172750000Y-128950000D01*
X170750000Y-128950000D01*
X170750000Y-126450000D01*
G37*
X170750000Y-134050000D02*
X172750000Y-134050000D01*
X172750000Y-134050000D02*
X172750000Y-136550000D01*
X172750000Y-136550000D02*
X170750000Y-136550000D01*
X170750000Y-136550000D02*
X170750000Y-134050000D01*
G36*
X170750000Y-134050000D02*
G01*
X172750000Y-134050000D01*
X172750000Y-136550000D01*
X170750000Y-136550000D01*
X170750000Y-134050000D01*
G37*
X170750000Y-141650000D02*
X172750000Y-141650000D01*
X172750000Y-141650000D02*
X172750000Y-144150000D01*
X172750000Y-144150000D02*
X170750000Y-144150000D01*
X170750000Y-144150000D02*
X170750000Y-141650000D01*
G36*
X170750000Y-141650000D02*
G01*
X172750000Y-141650000D01*
X172750000Y-144150000D01*
X170750000Y-144150000D01*
X170750000Y-141650000D01*
G37*
X170750000Y-149250000D02*
X172750000Y-149250000D01*
X172750000Y-149250000D02*
X172750000Y-151750000D01*
X172750000Y-151750000D02*
X170750000Y-151750000D01*
X170750000Y-151750000D02*
X170750000Y-149250000D01*
G36*
X170750000Y-149250000D02*
G01*
X172750000Y-149250000D01*
X172750000Y-151750000D01*
X170750000Y-151750000D01*
X170750000Y-149250000D01*
G37*
X170750000Y-156850000D02*
X172750000Y-156850000D01*
X172750000Y-156850000D02*
X172750000Y-159350000D01*
X172750000Y-159350000D02*
X170750000Y-159350000D01*
X170750000Y-159350000D02*
X170750000Y-156850000D01*
G36*
X170750000Y-156850000D02*
G01*
X172750000Y-156850000D01*
X172750000Y-159350000D01*
X170750000Y-159350000D01*
X170750000Y-156850000D01*
G37*
X170750000Y-164450000D02*
X172750000Y-164450000D01*
X172750000Y-164450000D02*
X172750000Y-166950000D01*
X172750000Y-166950000D02*
X170750000Y-166950000D01*
X170750000Y-166950000D02*
X170750000Y-164450000D01*
G36*
X170750000Y-164450000D02*
G01*
X172750000Y-164450000D01*
X172750000Y-166950000D01*
X170750000Y-166950000D01*
X170750000Y-164450000D01*
G37*
X170750000Y-172050000D02*
X172750000Y-172050000D01*
X172750000Y-172050000D02*
X172750000Y-174550000D01*
X172750000Y-174550000D02*
X170750000Y-174550000D01*
X170750000Y-174550000D02*
X170750000Y-172050000D01*
G36*
X170750000Y-172050000D02*
G01*
X172750000Y-172050000D01*
X172750000Y-174550000D01*
X170750000Y-174550000D01*
X170750000Y-172050000D01*
G37*
X170750000Y-179650000D02*
X172750000Y-179650000D01*
X172750000Y-179650000D02*
X172750000Y-182150000D01*
X172750000Y-182150000D02*
X170750000Y-182150000D01*
X170750000Y-182150000D02*
X170750000Y-179650000D01*
G36*
X170750000Y-179650000D02*
G01*
X172750000Y-179650000D01*
X172750000Y-182150000D01*
X170750000Y-182150000D01*
X170750000Y-179650000D01*
G37*
X115250000Y-110750000D02*
X117250000Y-110750000D01*
X117250000Y-110750000D02*
X117250000Y-108500000D01*
X117250000Y-108500000D02*
X115250000Y-108500000D01*
X115250000Y-108500000D02*
X115250000Y-110750000D01*
G36*
X115250000Y-110750000D02*
G01*
X117250000Y-110750000D01*
X117250000Y-108500000D01*
X115250000Y-108500000D01*
X115250000Y-110750000D01*
G37*
X115250000Y-118350000D02*
X117250000Y-118350000D01*
X117250000Y-118350000D02*
X117250000Y-116100000D01*
X117250000Y-116100000D02*
X115250000Y-116100000D01*
X115250000Y-116100000D02*
X115250000Y-118350000D01*
G36*
X115250000Y-118350000D02*
G01*
X117250000Y-118350000D01*
X117250000Y-116100000D01*
X115250000Y-116100000D01*
X115250000Y-118350000D01*
G37*
X115250000Y-125950000D02*
X117250000Y-125950000D01*
X117250000Y-125950000D02*
X117250000Y-123700000D01*
X117250000Y-123700000D02*
X115250000Y-123700000D01*
X115250000Y-123700000D02*
X115250000Y-125950000D01*
G36*
X115250000Y-125950000D02*
G01*
X117250000Y-125950000D01*
X117250000Y-123700000D01*
X115250000Y-123700000D01*
X115250000Y-125950000D01*
G37*
X115250000Y-133550000D02*
X117250000Y-133550000D01*
X117250000Y-133550000D02*
X117250000Y-131300000D01*
X117250000Y-131300000D02*
X115250000Y-131300000D01*
X115250000Y-131300000D02*
X115250000Y-133550000D01*
G36*
X115250000Y-133550000D02*
G01*
X117250000Y-133550000D01*
X117250000Y-131300000D01*
X115250000Y-131300000D01*
X115250000Y-133550000D01*
G37*
X115250000Y-141150000D02*
X117250000Y-141150000D01*
X117250000Y-141150000D02*
X117250000Y-138900000D01*
X117250000Y-138900000D02*
X115250000Y-138900000D01*
X115250000Y-138900000D02*
X115250000Y-141150000D01*
G36*
X115250000Y-141150000D02*
G01*
X117250000Y-141150000D01*
X117250000Y-138900000D01*
X115250000Y-138900000D01*
X115250000Y-141150000D01*
G37*
X115250000Y-148750000D02*
X117250000Y-148750000D01*
X117250000Y-148750000D02*
X117250000Y-146500000D01*
X117250000Y-146500000D02*
X115250000Y-146500000D01*
X115250000Y-146500000D02*
X115250000Y-148750000D01*
G36*
X115250000Y-148750000D02*
G01*
X117250000Y-148750000D01*
X117250000Y-146500000D01*
X115250000Y-146500000D01*
X115250000Y-148750000D01*
G37*
X115250000Y-156350000D02*
X117250000Y-156350000D01*
X117250000Y-156350000D02*
X117250000Y-154100000D01*
X117250000Y-154100000D02*
X115250000Y-154100000D01*
X115250000Y-154100000D02*
X115250000Y-156350000D01*
G36*
X115250000Y-156350000D02*
G01*
X117250000Y-156350000D01*
X117250000Y-154100000D01*
X115250000Y-154100000D01*
X115250000Y-156350000D01*
G37*
X115250000Y-163950000D02*
X117250000Y-163950000D01*
X117250000Y-163950000D02*
X117250000Y-161700000D01*
X117250000Y-161700000D02*
X115250000Y-161700000D01*
X115250000Y-161700000D02*
X115250000Y-163950000D01*
G36*
X115250000Y-163950000D02*
G01*
X117250000Y-163950000D01*
X117250000Y-161700000D01*
X115250000Y-161700000D01*
X115250000Y-163950000D01*
G37*
X115250000Y-171550000D02*
X117250000Y-171550000D01*
X117250000Y-171550000D02*
X117250000Y-169300000D01*
X117250000Y-169300000D02*
X115250000Y-169300000D01*
X115250000Y-169300000D02*
X115250000Y-171550000D01*
G36*
X115250000Y-171550000D02*
G01*
X117250000Y-171550000D01*
X117250000Y-169300000D01*
X115250000Y-169300000D01*
X115250000Y-171550000D01*
G37*
X115250000Y-179150000D02*
X117250000Y-179150000D01*
X117250000Y-179150000D02*
X117250000Y-176900000D01*
X117250000Y-176900000D02*
X115250000Y-176900000D01*
X115250000Y-176900000D02*
X115250000Y-179150000D01*
G36*
X115250000Y-179150000D02*
G01*
X117250000Y-179150000D01*
X117250000Y-176900000D01*
X115250000Y-176900000D01*
X115250000Y-179150000D01*
G37*
X126350000Y-110750000D02*
X128350000Y-110750000D01*
X128350000Y-110750000D02*
X128350000Y-108500000D01*
X128350000Y-108500000D02*
X126350000Y-108500000D01*
X126350000Y-108500000D02*
X126350000Y-110750000D01*
G36*
X126350000Y-110750000D02*
G01*
X128350000Y-110750000D01*
X128350000Y-108500000D01*
X126350000Y-108500000D01*
X126350000Y-110750000D01*
G37*
X126350000Y-118350000D02*
X128350000Y-118350000D01*
X128350000Y-118350000D02*
X128350000Y-116100000D01*
X128350000Y-116100000D02*
X126350000Y-116100000D01*
X126350000Y-116100000D02*
X126350000Y-118350000D01*
G36*
X126350000Y-118350000D02*
G01*
X128350000Y-118350000D01*
X128350000Y-116100000D01*
X126350000Y-116100000D01*
X126350000Y-118350000D01*
G37*
X126350000Y-125950000D02*
X128350000Y-125950000D01*
X128350000Y-125950000D02*
X128350000Y-123700000D01*
X128350000Y-123700000D02*
X126350000Y-123700000D01*
X126350000Y-123700000D02*
X126350000Y-125950000D01*
G36*
X126350000Y-125950000D02*
G01*
X128350000Y-125950000D01*
X128350000Y-123700000D01*
X126350000Y-123700000D01*
X126350000Y-125950000D01*
G37*
X126350000Y-133550000D02*
X128350000Y-133550000D01*
X128350000Y-133550000D02*
X128350000Y-131300000D01*
X128350000Y-131300000D02*
X126350000Y-131300000D01*
X126350000Y-131300000D02*
X126350000Y-133550000D01*
G36*
X126350000Y-133550000D02*
G01*
X128350000Y-133550000D01*
X128350000Y-131300000D01*
X126350000Y-131300000D01*
X126350000Y-133550000D01*
G37*
X126350000Y-141150000D02*
X128350000Y-141150000D01*
X128350000Y-141150000D02*
X128350000Y-138900000D01*
X128350000Y-138900000D02*
X126350000Y-138900000D01*
X126350000Y-138900000D02*
X126350000Y-141150000D01*
G36*
X126350000Y-141150000D02*
G01*
X128350000Y-141150000D01*
X128350000Y-138900000D01*
X126350000Y-138900000D01*
X126350000Y-141150000D01*
G37*
X148550000Y-118350000D02*
X150550000Y-118350000D01*
X150550000Y-118350000D02*
X150550000Y-116100000D01*
X150550000Y-116100000D02*
X148550000Y-116100000D01*
X148550000Y-116100000D02*
X148550000Y-118350000D01*
G36*
X148550000Y-118350000D02*
G01*
X150550000Y-118350000D01*
X150550000Y-116100000D01*
X148550000Y-116100000D01*
X148550000Y-118350000D01*
G37*
X126350000Y-148750000D02*
X128350000Y-148750000D01*
X128350000Y-148750000D02*
X128350000Y-146500000D01*
X128350000Y-146500000D02*
X126350000Y-146500000D01*
X126350000Y-146500000D02*
X126350000Y-148750000D01*
G36*
X126350000Y-148750000D02*
G01*
X128350000Y-148750000D01*
X128350000Y-146500000D01*
X126350000Y-146500000D01*
X126350000Y-148750000D01*
G37*
X126350000Y-156350000D02*
X128350000Y-156350000D01*
X128350000Y-156350000D02*
X128350000Y-154100000D01*
X128350000Y-154100000D02*
X126350000Y-154100000D01*
X126350000Y-154100000D02*
X126350000Y-156350000D01*
G36*
X126350000Y-156350000D02*
G01*
X128350000Y-156350000D01*
X128350000Y-154100000D01*
X126350000Y-154100000D01*
X126350000Y-156350000D01*
G37*
X126350000Y-163950000D02*
X128350000Y-163950000D01*
X128350000Y-163950000D02*
X128350000Y-161700000D01*
X128350000Y-161700000D02*
X126350000Y-161700000D01*
X126350000Y-161700000D02*
X126350000Y-163950000D01*
G36*
X126350000Y-163950000D02*
G01*
X128350000Y-163950000D01*
X128350000Y-161700000D01*
X126350000Y-161700000D01*
X126350000Y-163950000D01*
G37*
X126350000Y-171550000D02*
X128350000Y-171550000D01*
X128350000Y-171550000D02*
X128350000Y-169300000D01*
X128350000Y-169300000D02*
X126350000Y-169300000D01*
X126350000Y-169300000D02*
X126350000Y-171550000D01*
G36*
X126350000Y-171550000D02*
G01*
X128350000Y-171550000D01*
X128350000Y-169300000D01*
X126350000Y-169300000D01*
X126350000Y-171550000D01*
G37*
X126350000Y-179150000D02*
X128350000Y-179150000D01*
X128350000Y-179150000D02*
X128350000Y-176900000D01*
X128350000Y-176900000D02*
X126350000Y-176900000D01*
X126350000Y-176900000D02*
X126350000Y-179150000D01*
G36*
X126350000Y-179150000D02*
G01*
X128350000Y-179150000D01*
X128350000Y-176900000D01*
X126350000Y-176900000D01*
X126350000Y-179150000D01*
G37*
X137450000Y-110750000D02*
X139450000Y-110750000D01*
X139450000Y-110750000D02*
X139450000Y-108500000D01*
X139450000Y-108500000D02*
X137450000Y-108500000D01*
X137450000Y-108500000D02*
X137450000Y-110750000D01*
G36*
X137450000Y-110750000D02*
G01*
X139450000Y-110750000D01*
X139450000Y-108500000D01*
X137450000Y-108500000D01*
X137450000Y-110750000D01*
G37*
X137450000Y-118350000D02*
X139450000Y-118350000D01*
X139450000Y-118350000D02*
X139450000Y-116100000D01*
X139450000Y-116100000D02*
X137450000Y-116100000D01*
X137450000Y-116100000D02*
X137450000Y-118350000D01*
G36*
X137450000Y-118350000D02*
G01*
X139450000Y-118350000D01*
X139450000Y-116100000D01*
X137450000Y-116100000D01*
X137450000Y-118350000D01*
G37*
X137450000Y-125950000D02*
X139450000Y-125950000D01*
X139450000Y-125950000D02*
X139450000Y-123700000D01*
X139450000Y-123700000D02*
X137450000Y-123700000D01*
X137450000Y-123700000D02*
X137450000Y-125950000D01*
G36*
X137450000Y-125950000D02*
G01*
X139450000Y-125950000D01*
X139450000Y-123700000D01*
X137450000Y-123700000D01*
X137450000Y-125950000D01*
G37*
X137450000Y-133550000D02*
X139450000Y-133550000D01*
X139450000Y-133550000D02*
X139450000Y-131300000D01*
X139450000Y-131300000D02*
X137450000Y-131300000D01*
X137450000Y-131300000D02*
X137450000Y-133550000D01*
G36*
X137450000Y-133550000D02*
G01*
X139450000Y-133550000D01*
X139450000Y-131300000D01*
X137450000Y-131300000D01*
X137450000Y-133550000D01*
G37*
X137450000Y-141150000D02*
X139450000Y-141150000D01*
X139450000Y-141150000D02*
X139450000Y-138900000D01*
X139450000Y-138900000D02*
X137450000Y-138900000D01*
X137450000Y-138900000D02*
X137450000Y-141150000D01*
G36*
X137450000Y-141150000D02*
G01*
X139450000Y-141150000D01*
X139450000Y-138900000D01*
X137450000Y-138900000D01*
X137450000Y-141150000D01*
G37*
X137450000Y-148750000D02*
X139450000Y-148750000D01*
X139450000Y-148750000D02*
X139450000Y-146500000D01*
X139450000Y-146500000D02*
X137450000Y-146500000D01*
X137450000Y-146500000D02*
X137450000Y-148750000D01*
G36*
X137450000Y-148750000D02*
G01*
X139450000Y-148750000D01*
X139450000Y-146500000D01*
X137450000Y-146500000D01*
X137450000Y-148750000D01*
G37*
X137450000Y-156350000D02*
X139450000Y-156350000D01*
X139450000Y-156350000D02*
X139450000Y-154100000D01*
X139450000Y-154100000D02*
X137450000Y-154100000D01*
X137450000Y-154100000D02*
X137450000Y-156350000D01*
G36*
X137450000Y-156350000D02*
G01*
X139450000Y-156350000D01*
X139450000Y-154100000D01*
X137450000Y-154100000D01*
X137450000Y-156350000D01*
G37*
X137450000Y-163950000D02*
X139450000Y-163950000D01*
X139450000Y-163950000D02*
X139450000Y-161700000D01*
X139450000Y-161700000D02*
X137450000Y-161700000D01*
X137450000Y-161700000D02*
X137450000Y-163950000D01*
G36*
X137450000Y-163950000D02*
G01*
X139450000Y-163950000D01*
X139450000Y-161700000D01*
X137450000Y-161700000D01*
X137450000Y-163950000D01*
G37*
X137450000Y-171550000D02*
X139450000Y-171550000D01*
X139450000Y-171550000D02*
X139450000Y-169300000D01*
X139450000Y-169300000D02*
X137450000Y-169300000D01*
X137450000Y-169300000D02*
X137450000Y-171550000D01*
G36*
X137450000Y-171550000D02*
G01*
X139450000Y-171550000D01*
X139450000Y-169300000D01*
X137450000Y-169300000D01*
X137450000Y-171550000D01*
G37*
X137450000Y-179150000D02*
X139450000Y-179150000D01*
X139450000Y-179150000D02*
X139450000Y-176900000D01*
X139450000Y-176900000D02*
X137450000Y-176900000D01*
X137450000Y-176900000D02*
X137450000Y-179150000D01*
G36*
X137450000Y-179150000D02*
G01*
X139450000Y-179150000D01*
X139450000Y-176900000D01*
X137450000Y-176900000D01*
X137450000Y-179150000D01*
G37*
X148550000Y-110750000D02*
X150550000Y-110750000D01*
X150550000Y-110750000D02*
X150550000Y-108500000D01*
X150550000Y-108500000D02*
X148550000Y-108500000D01*
X148550000Y-108500000D02*
X148550000Y-110750000D01*
G36*
X148550000Y-110750000D02*
G01*
X150550000Y-110750000D01*
X150550000Y-108500000D01*
X148550000Y-108500000D01*
X148550000Y-110750000D01*
G37*
X159650000Y-179150000D02*
X161650000Y-179150000D01*
X161650000Y-179150000D02*
X161650000Y-176900000D01*
X161650000Y-176900000D02*
X159650000Y-176900000D01*
X159650000Y-176900000D02*
X159650000Y-179150000D01*
G36*
X159650000Y-179150000D02*
G01*
X161650000Y-179150000D01*
X161650000Y-176900000D01*
X159650000Y-176900000D01*
X159650000Y-179150000D01*
G37*
X170750000Y-110750000D02*
X172750000Y-110750000D01*
X172750000Y-110750000D02*
X172750000Y-108500000D01*
X172750000Y-108500000D02*
X170750000Y-108500000D01*
X170750000Y-108500000D02*
X170750000Y-110750000D01*
G36*
X170750000Y-110750000D02*
G01*
X172750000Y-110750000D01*
X172750000Y-108500000D01*
X170750000Y-108500000D01*
X170750000Y-110750000D01*
G37*
X148550000Y-125950000D02*
X150550000Y-125950000D01*
X150550000Y-125950000D02*
X150550000Y-123700000D01*
X150550000Y-123700000D02*
X148550000Y-123700000D01*
X148550000Y-123700000D02*
X148550000Y-125950000D01*
G36*
X148550000Y-125950000D02*
G01*
X150550000Y-125950000D01*
X150550000Y-123700000D01*
X148550000Y-123700000D01*
X148550000Y-125950000D01*
G37*
X148550000Y-133550000D02*
X150550000Y-133550000D01*
X150550000Y-133550000D02*
X150550000Y-131300000D01*
X150550000Y-131300000D02*
X148550000Y-131300000D01*
X148550000Y-131300000D02*
X148550000Y-133550000D01*
G36*
X148550000Y-133550000D02*
G01*
X150550000Y-133550000D01*
X150550000Y-131300000D01*
X148550000Y-131300000D01*
X148550000Y-133550000D01*
G37*
X148550000Y-141150000D02*
X150550000Y-141150000D01*
X150550000Y-141150000D02*
X150550000Y-138900000D01*
X150550000Y-138900000D02*
X148550000Y-138900000D01*
X148550000Y-138900000D02*
X148550000Y-141150000D01*
G36*
X148550000Y-141150000D02*
G01*
X150550000Y-141150000D01*
X150550000Y-138900000D01*
X148550000Y-138900000D01*
X148550000Y-141150000D01*
G37*
X148550000Y-148750000D02*
X150550000Y-148750000D01*
X150550000Y-148750000D02*
X150550000Y-146500000D01*
X150550000Y-146500000D02*
X148550000Y-146500000D01*
X148550000Y-146500000D02*
X148550000Y-148750000D01*
G36*
X148550000Y-148750000D02*
G01*
X150550000Y-148750000D01*
X150550000Y-146500000D01*
X148550000Y-146500000D01*
X148550000Y-148750000D01*
G37*
X148550000Y-156350000D02*
X150550000Y-156350000D01*
X150550000Y-156350000D02*
X150550000Y-154100000D01*
X150550000Y-154100000D02*
X148550000Y-154100000D01*
X148550000Y-154100000D02*
X148550000Y-156350000D01*
G36*
X148550000Y-156350000D02*
G01*
X150550000Y-156350000D01*
X150550000Y-154100000D01*
X148550000Y-154100000D01*
X148550000Y-156350000D01*
G37*
X148550000Y-163950000D02*
X150550000Y-163950000D01*
X150550000Y-163950000D02*
X150550000Y-161700000D01*
X150550000Y-161700000D02*
X148550000Y-161700000D01*
X148550000Y-161700000D02*
X148550000Y-163950000D01*
G36*
X148550000Y-163950000D02*
G01*
X150550000Y-163950000D01*
X150550000Y-161700000D01*
X148550000Y-161700000D01*
X148550000Y-163950000D01*
G37*
X148550000Y-171550000D02*
X150550000Y-171550000D01*
X150550000Y-171550000D02*
X150550000Y-169300000D01*
X150550000Y-169300000D02*
X148550000Y-169300000D01*
X148550000Y-169300000D02*
X148550000Y-171550000D01*
G36*
X148550000Y-171550000D02*
G01*
X150550000Y-171550000D01*
X150550000Y-169300000D01*
X148550000Y-169300000D01*
X148550000Y-171550000D01*
G37*
X148550000Y-179150000D02*
X150550000Y-179150000D01*
X150550000Y-179150000D02*
X150550000Y-176900000D01*
X150550000Y-176900000D02*
X148550000Y-176900000D01*
X148550000Y-176900000D02*
X148550000Y-179150000D01*
G36*
X148550000Y-179150000D02*
G01*
X150550000Y-179150000D01*
X150550000Y-176900000D01*
X148550000Y-176900000D01*
X148550000Y-179150000D01*
G37*
X159650000Y-110750000D02*
X161650000Y-110750000D01*
X161650000Y-110750000D02*
X161650000Y-108500000D01*
X161650000Y-108500000D02*
X159650000Y-108500000D01*
X159650000Y-108500000D02*
X159650000Y-110750000D01*
G36*
X159650000Y-110750000D02*
G01*
X161650000Y-110750000D01*
X161650000Y-108500000D01*
X159650000Y-108500000D01*
X159650000Y-110750000D01*
G37*
X159650000Y-118350000D02*
X161650000Y-118350000D01*
X161650000Y-118350000D02*
X161650000Y-116100000D01*
X161650000Y-116100000D02*
X159650000Y-116100000D01*
X159650000Y-116100000D02*
X159650000Y-118350000D01*
G36*
X159650000Y-118350000D02*
G01*
X161650000Y-118350000D01*
X161650000Y-116100000D01*
X159650000Y-116100000D01*
X159650000Y-118350000D01*
G37*
X159650000Y-125950000D02*
X161650000Y-125950000D01*
X161650000Y-125950000D02*
X161650000Y-123700000D01*
X161650000Y-123700000D02*
X159650000Y-123700000D01*
X159650000Y-123700000D02*
X159650000Y-125950000D01*
G36*
X159650000Y-125950000D02*
G01*
X161650000Y-125950000D01*
X161650000Y-123700000D01*
X159650000Y-123700000D01*
X159650000Y-125950000D01*
G37*
X159650000Y-133550000D02*
X161650000Y-133550000D01*
X161650000Y-133550000D02*
X161650000Y-131300000D01*
X161650000Y-131300000D02*
X159650000Y-131300000D01*
X159650000Y-131300000D02*
X159650000Y-133550000D01*
G36*
X159650000Y-133550000D02*
G01*
X161650000Y-133550000D01*
X161650000Y-131300000D01*
X159650000Y-131300000D01*
X159650000Y-133550000D01*
G37*
X159650000Y-141150000D02*
X161650000Y-141150000D01*
X161650000Y-141150000D02*
X161650000Y-138900000D01*
X161650000Y-138900000D02*
X159650000Y-138900000D01*
X159650000Y-138900000D02*
X159650000Y-141150000D01*
G36*
X159650000Y-141150000D02*
G01*
X161650000Y-141150000D01*
X161650000Y-138900000D01*
X159650000Y-138900000D01*
X159650000Y-141150000D01*
G37*
X159650000Y-148750000D02*
X161650000Y-148750000D01*
X161650000Y-148750000D02*
X161650000Y-146500000D01*
X161650000Y-146500000D02*
X159650000Y-146500000D01*
X159650000Y-146500000D02*
X159650000Y-148750000D01*
G36*
X159650000Y-148750000D02*
G01*
X161650000Y-148750000D01*
X161650000Y-146500000D01*
X159650000Y-146500000D01*
X159650000Y-148750000D01*
G37*
X159650000Y-156350000D02*
X161650000Y-156350000D01*
X161650000Y-156350000D02*
X161650000Y-154100000D01*
X161650000Y-154100000D02*
X159650000Y-154100000D01*
X159650000Y-154100000D02*
X159650000Y-156350000D01*
G36*
X159650000Y-156350000D02*
G01*
X161650000Y-156350000D01*
X161650000Y-154100000D01*
X159650000Y-154100000D01*
X159650000Y-156350000D01*
G37*
X159650000Y-163950000D02*
X161650000Y-163950000D01*
X161650000Y-163950000D02*
X161650000Y-161700000D01*
X161650000Y-161700000D02*
X159650000Y-161700000D01*
X159650000Y-161700000D02*
X159650000Y-163950000D01*
G36*
X159650000Y-163950000D02*
G01*
X161650000Y-163950000D01*
X161650000Y-161700000D01*
X159650000Y-161700000D01*
X159650000Y-163950000D01*
G37*
X159650000Y-171550000D02*
X161650000Y-171550000D01*
X161650000Y-171550000D02*
X161650000Y-169300000D01*
X161650000Y-169300000D02*
X159650000Y-169300000D01*
X159650000Y-169300000D02*
X159650000Y-171550000D01*
G36*
X159650000Y-171550000D02*
G01*
X161650000Y-171550000D01*
X161650000Y-169300000D01*
X159650000Y-169300000D01*
X159650000Y-171550000D01*
G37*
X170750000Y-118350000D02*
X172750000Y-118350000D01*
X172750000Y-118350000D02*
X172750000Y-116100000D01*
X172750000Y-116100000D02*
X170750000Y-116100000D01*
X170750000Y-116100000D02*
X170750000Y-118350000D01*
G36*
X170750000Y-118350000D02*
G01*
X172750000Y-118350000D01*
X172750000Y-116100000D01*
X170750000Y-116100000D01*
X170750000Y-118350000D01*
G37*
X170750000Y-125950000D02*
X172750000Y-125950000D01*
X172750000Y-125950000D02*
X172750000Y-123700000D01*
X172750000Y-123700000D02*
X170750000Y-123700000D01*
X170750000Y-123700000D02*
X170750000Y-125950000D01*
G36*
X170750000Y-125950000D02*
G01*
X172750000Y-125950000D01*
X172750000Y-123700000D01*
X170750000Y-123700000D01*
X170750000Y-125950000D01*
G37*
X170750000Y-133550000D02*
X172750000Y-133550000D01*
X172750000Y-133550000D02*
X172750000Y-131300000D01*
X172750000Y-131300000D02*
X170750000Y-131300000D01*
X170750000Y-131300000D02*
X170750000Y-133550000D01*
G36*
X170750000Y-133550000D02*
G01*
X172750000Y-133550000D01*
X172750000Y-131300000D01*
X170750000Y-131300000D01*
X170750000Y-133550000D01*
G37*
X170750000Y-141150000D02*
X172750000Y-141150000D01*
X172750000Y-141150000D02*
X172750000Y-138900000D01*
X172750000Y-138900000D02*
X170750000Y-138900000D01*
X170750000Y-138900000D02*
X170750000Y-141150000D01*
G36*
X170750000Y-141150000D02*
G01*
X172750000Y-141150000D01*
X172750000Y-138900000D01*
X170750000Y-138900000D01*
X170750000Y-141150000D01*
G37*
X170750000Y-148750000D02*
X172750000Y-148750000D01*
X172750000Y-148750000D02*
X172750000Y-146500000D01*
X172750000Y-146500000D02*
X170750000Y-146500000D01*
X170750000Y-146500000D02*
X170750000Y-148750000D01*
G36*
X170750000Y-148750000D02*
G01*
X172750000Y-148750000D01*
X172750000Y-146500000D01*
X170750000Y-146500000D01*
X170750000Y-148750000D01*
G37*
X170750000Y-156350000D02*
X172750000Y-156350000D01*
X172750000Y-156350000D02*
X172750000Y-154100000D01*
X172750000Y-154100000D02*
X170750000Y-154100000D01*
X170750000Y-154100000D02*
X170750000Y-156350000D01*
G36*
X170750000Y-156350000D02*
G01*
X172750000Y-156350000D01*
X172750000Y-154100000D01*
X170750000Y-154100000D01*
X170750000Y-156350000D01*
G37*
X170750000Y-163950000D02*
X172750000Y-163950000D01*
X172750000Y-163950000D02*
X172750000Y-161700000D01*
X172750000Y-161700000D02*
X170750000Y-161700000D01*
X170750000Y-161700000D02*
X170750000Y-163950000D01*
G36*
X170750000Y-163950000D02*
G01*
X172750000Y-163950000D01*
X172750000Y-161700000D01*
X170750000Y-161700000D01*
X170750000Y-163950000D01*
G37*
X170750000Y-171550000D02*
X172750000Y-171550000D01*
X172750000Y-171550000D02*
X172750000Y-169300000D01*
X172750000Y-169300000D02*
X170750000Y-169300000D01*
X170750000Y-169300000D02*
X170750000Y-171550000D01*
G36*
X170750000Y-171550000D02*
G01*
X172750000Y-171550000D01*
X172750000Y-169300000D01*
X170750000Y-169300000D01*
X170750000Y-171550000D01*
G37*
X170750000Y-179150000D02*
X172750000Y-179150000D01*
X172750000Y-179150000D02*
X172750000Y-176900000D01*
X172750000Y-176900000D02*
X170750000Y-176900000D01*
X170750000Y-176900000D02*
X170750000Y-179150000D01*
G36*
X170750000Y-179150000D02*
G01*
X172750000Y-179150000D01*
X172750000Y-176900000D01*
X170750000Y-176900000D01*
X170750000Y-179150000D01*
G37*
D11*
%TO.C,REF\u002A\u002A*%
X104000000Y-110000000D03*
%TD*%
%TO.C,REF\u002A\u002A*%
X176000000Y-110000000D03*
%TD*%
%TO.C,REF\u002A\u002A*%
X176000000Y-180000000D03*
%TD*%
%TO.C,REF\u002A\u002A*%
X104000000Y-180000000D03*
%TD*%
D12*
%TO.C,REF\u002A\u002A*%
X104000000Y-172000000D03*
%TD*%
%TO.C,REF\u002A\u002A*%
X176000000Y-172000000D03*
%TD*%
%TO.C,REF\u002A\u002A*%
X176000000Y-119000000D03*
%TD*%
%TO.C,REF\u002A\u002A*%
X104000000Y-119000000D03*
%TD*%
D13*
%TO.C,R1*%
X113750000Y-109450000D03*
X113750000Y-112550000D03*
%TD*%
%TO.C,R1*%
X113750000Y-117050000D03*
X113750000Y-120150000D03*
%TD*%
%TO.C,R1*%
X113750000Y-124650000D03*
X113750000Y-127750000D03*
%TD*%
%TO.C,R1*%
X113750000Y-132250000D03*
X113750000Y-135350000D03*
%TD*%
%TO.C,R1*%
X113750000Y-139850000D03*
X113750000Y-142950000D03*
%TD*%
%TO.C,R1*%
X113750000Y-147450000D03*
X113750000Y-150550000D03*
%TD*%
%TO.C,R1*%
X113750000Y-155050000D03*
X113750000Y-158150000D03*
%TD*%
%TO.C,R1*%
X113750000Y-162650000D03*
X113750000Y-165750000D03*
%TD*%
%TO.C,R1*%
X113750000Y-170250000D03*
X113750000Y-173350000D03*
%TD*%
%TO.C,R1*%
X113750000Y-177850000D03*
X113750000Y-180950000D03*
%TD*%
%TO.C,R1*%
X124850000Y-109450000D03*
X124850000Y-112550000D03*
%TD*%
%TO.C,R1*%
X124850000Y-117050000D03*
X124850000Y-120150000D03*
%TD*%
%TO.C,R1*%
X124850000Y-124650000D03*
X124850000Y-127750000D03*
%TD*%
%TO.C,R1*%
X124850000Y-132250000D03*
X124850000Y-135350000D03*
%TD*%
%TO.C,R1*%
X124850000Y-139850000D03*
X124850000Y-142950000D03*
%TD*%
%TO.C,R1*%
X124850000Y-147450000D03*
X124850000Y-150550000D03*
%TD*%
%TO.C,R1*%
X124850000Y-155050000D03*
X124850000Y-158150000D03*
%TD*%
%TO.C,R1*%
X124850000Y-162650000D03*
X124850000Y-165750000D03*
%TD*%
%TO.C,R1*%
X124850000Y-170250000D03*
X124850000Y-173350000D03*
%TD*%
%TO.C,R1*%
X124850000Y-177850000D03*
X124850000Y-180950000D03*
%TD*%
%TO.C,R1*%
X135950000Y-109450000D03*
X135950000Y-112550000D03*
%TD*%
%TO.C,R1*%
X135950000Y-117050000D03*
X135950000Y-120150000D03*
%TD*%
%TO.C,R1*%
X135950000Y-124650000D03*
X135950000Y-127750000D03*
%TD*%
%TO.C,R1*%
X135950000Y-132250000D03*
X135950000Y-135350000D03*
%TD*%
%TO.C,R1*%
X135950000Y-139850000D03*
X135950000Y-142950000D03*
%TD*%
%TO.C,R1*%
X135950000Y-147450000D03*
X135950000Y-150550000D03*
%TD*%
%TO.C,R1*%
X135950000Y-155050000D03*
X135950000Y-158150000D03*
%TD*%
%TO.C,R1*%
X135950000Y-162650000D03*
X135950000Y-165750000D03*
%TD*%
%TO.C,R1*%
X135950000Y-170250000D03*
X135950000Y-173350000D03*
%TD*%
%TO.C,R1*%
X135950000Y-177850000D03*
X135950000Y-180950000D03*
%TD*%
%TO.C,R1*%
X147050000Y-109450000D03*
X147050000Y-112550000D03*
%TD*%
%TO.C,R1*%
X147050000Y-117050000D03*
X147050000Y-120150000D03*
%TD*%
%TO.C,R1*%
X147050000Y-124650000D03*
X147050000Y-127750000D03*
%TD*%
%TO.C,R1*%
X147050000Y-132250000D03*
X147050000Y-135350000D03*
%TD*%
%TO.C,R1*%
X147050000Y-139850000D03*
X147050000Y-142950000D03*
%TD*%
%TO.C,R1*%
X147050000Y-147450000D03*
X147050000Y-150550000D03*
%TD*%
%TO.C,R1*%
X147050000Y-155050000D03*
X147050000Y-158150000D03*
%TD*%
%TO.C,R1*%
X147050000Y-162650000D03*
X147050000Y-165750000D03*
%TD*%
%TO.C,R1*%
X147050000Y-170250000D03*
X147050000Y-173350000D03*
%TD*%
%TO.C,R1*%
X147050000Y-177850000D03*
X147050000Y-180950000D03*
%TD*%
%TO.C,R1*%
X158150000Y-109450000D03*
X158150000Y-112550000D03*
%TD*%
%TO.C,R1*%
X158150000Y-117050000D03*
X158150000Y-120150000D03*
%TD*%
%TO.C,R1*%
X158150000Y-124650000D03*
X158150000Y-127750000D03*
%TD*%
%TO.C,R1*%
X158150000Y-132250000D03*
X158150000Y-135350000D03*
%TD*%
%TO.C,R1*%
X158150000Y-139850000D03*
X158150000Y-142950000D03*
%TD*%
%TO.C,R1*%
X158150000Y-147450000D03*
X158150000Y-150550000D03*
%TD*%
%TO.C,R1*%
X158150000Y-155050000D03*
X158150000Y-158150000D03*
%TD*%
%TO.C,R1*%
X158150000Y-162650000D03*
X158150000Y-165750000D03*
%TD*%
%TO.C,R1*%
X158150000Y-170250000D03*
X158150000Y-173350000D03*
%TD*%
%TO.C,R1*%
X158150000Y-177850000D03*
X158150000Y-180950000D03*
%TD*%
%TO.C,R1*%
X169250000Y-109450000D03*
X169250000Y-112550000D03*
%TD*%
%TO.C,R1*%
X169250000Y-117050000D03*
X169250000Y-120150000D03*
%TD*%
%TO.C,R1*%
X169250000Y-124650000D03*
X169250000Y-127750000D03*
%TD*%
%TO.C,R1*%
X169250000Y-132250000D03*
X169250000Y-135350000D03*
%TD*%
%TO.C,R1*%
X169250000Y-139850000D03*
X169250000Y-142950000D03*
%TD*%
%TO.C,R1*%
X169250000Y-147450000D03*
X169250000Y-150550000D03*
%TD*%
%TO.C,R1*%
X169250000Y-155050000D03*
X169250000Y-158150000D03*
%TD*%
%TO.C,R1*%
X169250000Y-162650000D03*
X169250000Y-165750000D03*
%TD*%
%TO.C,R1*%
X169250000Y-170250000D03*
X169250000Y-173350000D03*
%TD*%
%TO.C,R1*%
X169250000Y-177850000D03*
X169250000Y-180950000D03*
%TD*%
D14*
%TO.C,J1*%
X111650000Y-111000000D03*
D15*
X110125000Y-112475000D03*
X110125000Y-109525000D03*
%TD*%
D14*
%TO.C,J1*%
X111650000Y-118600000D03*
D15*
X110125000Y-120075000D03*
X110125000Y-117125000D03*
%TD*%
D14*
%TO.C,J1*%
X111650000Y-126200000D03*
D15*
X110125000Y-127675000D03*
X110125000Y-124725000D03*
%TD*%
D14*
%TO.C,J1*%
X111650000Y-133800000D03*
D15*
X110125000Y-135275000D03*
X110125000Y-132325000D03*
%TD*%
D14*
%TO.C,J1*%
X111650000Y-141400000D03*
D15*
X110125000Y-142875000D03*
X110125000Y-139925000D03*
%TD*%
D14*
%TO.C,J1*%
X111650000Y-149000000D03*
D15*
X110125000Y-150475000D03*
X110125000Y-147525000D03*
%TD*%
D14*
%TO.C,J1*%
X111650000Y-156600000D03*
D15*
X110125000Y-158075000D03*
X110125000Y-155125000D03*
%TD*%
D14*
%TO.C,J1*%
X111650000Y-164200000D03*
D15*
X110125000Y-165675000D03*
X110125000Y-162725000D03*
%TD*%
D14*
%TO.C,J1*%
X111650000Y-171800000D03*
D15*
X110125000Y-173275000D03*
X110125000Y-170325000D03*
%TD*%
D14*
%TO.C,J1*%
X111650000Y-179400000D03*
D15*
X110125000Y-180875000D03*
X110125000Y-177925000D03*
%TD*%
D14*
%TO.C,J1*%
X122750000Y-111000000D03*
D15*
X121225000Y-112475000D03*
X121225000Y-109525000D03*
%TD*%
D14*
%TO.C,J1*%
X122750000Y-118600000D03*
D15*
X121225000Y-120075000D03*
X121225000Y-117125000D03*
%TD*%
D14*
%TO.C,J1*%
X122750000Y-126200000D03*
D15*
X121225000Y-127675000D03*
X121225000Y-124725000D03*
%TD*%
D14*
%TO.C,J1*%
X122750000Y-133800000D03*
D15*
X121225000Y-135275000D03*
X121225000Y-132325000D03*
%TD*%
D14*
%TO.C,J1*%
X122750000Y-141400000D03*
D15*
X121225000Y-142875000D03*
X121225000Y-139925000D03*
%TD*%
D14*
%TO.C,J1*%
X122750000Y-149000000D03*
D15*
X121225000Y-150475000D03*
X121225000Y-147525000D03*
%TD*%
D14*
%TO.C,J1*%
X122750000Y-156600000D03*
D15*
X121225000Y-158075000D03*
X121225000Y-155125000D03*
%TD*%
D14*
%TO.C,J1*%
X122750000Y-164200000D03*
D15*
X121225000Y-165675000D03*
X121225000Y-162725000D03*
%TD*%
D14*
%TO.C,J1*%
X122750000Y-171800000D03*
D15*
X121225000Y-173275000D03*
X121225000Y-170325000D03*
%TD*%
D14*
%TO.C,J1*%
X122750000Y-179400000D03*
D15*
X121225000Y-180875000D03*
X121225000Y-177925000D03*
%TD*%
D14*
%TO.C,J1*%
X133850000Y-111000000D03*
D15*
X132325000Y-112475000D03*
X132325000Y-109525000D03*
%TD*%
D14*
%TO.C,J1*%
X133850000Y-118600000D03*
D15*
X132325000Y-120075000D03*
X132325000Y-117125000D03*
%TD*%
D14*
%TO.C,J1*%
X133850000Y-126200000D03*
D15*
X132325000Y-127675000D03*
X132325000Y-124725000D03*
%TD*%
D14*
%TO.C,J1*%
X133850000Y-133800000D03*
D15*
X132325000Y-135275000D03*
X132325000Y-132325000D03*
%TD*%
D14*
%TO.C,J1*%
X133850000Y-141400000D03*
D15*
X132325000Y-142875000D03*
X132325000Y-139925000D03*
%TD*%
D14*
%TO.C,J1*%
X133850000Y-149000000D03*
D15*
X132325000Y-150475000D03*
X132325000Y-147525000D03*
%TD*%
D14*
%TO.C,J1*%
X133850000Y-156600000D03*
D15*
X132325000Y-158075000D03*
X132325000Y-155125000D03*
%TD*%
D14*
%TO.C,J1*%
X133850000Y-164200000D03*
D15*
X132325000Y-165675000D03*
X132325000Y-162725000D03*
%TD*%
D14*
%TO.C,J1*%
X133850000Y-171800000D03*
D15*
X132325000Y-173275000D03*
X132325000Y-170325000D03*
%TD*%
D14*
%TO.C,J1*%
X133850000Y-179400000D03*
D15*
X132325000Y-180875000D03*
X132325000Y-177925000D03*
%TD*%
D14*
%TO.C,J1*%
X144950000Y-111000000D03*
D15*
X143425000Y-112475000D03*
X143425000Y-109525000D03*
%TD*%
D14*
%TO.C,J1*%
X144950000Y-118600000D03*
D15*
X143425000Y-120075000D03*
X143425000Y-117125000D03*
%TD*%
D14*
%TO.C,J1*%
X144950000Y-126200000D03*
D15*
X143425000Y-127675000D03*
X143425000Y-124725000D03*
%TD*%
D14*
%TO.C,J1*%
X144950000Y-133800000D03*
D15*
X143425000Y-135275000D03*
X143425000Y-132325000D03*
%TD*%
D14*
%TO.C,J1*%
X144950000Y-141400000D03*
D15*
X143425000Y-142875000D03*
X143425000Y-139925000D03*
%TD*%
D14*
%TO.C,J1*%
X144950000Y-149000000D03*
D15*
X143425000Y-150475000D03*
X143425000Y-147525000D03*
%TD*%
D14*
%TO.C,J1*%
X144950000Y-156600000D03*
D15*
X143425000Y-158075000D03*
X143425000Y-155125000D03*
%TD*%
D14*
%TO.C,J1*%
X144950000Y-164200000D03*
D15*
X143425000Y-165675000D03*
X143425000Y-162725000D03*
%TD*%
D14*
%TO.C,J1*%
X144950000Y-171800000D03*
D15*
X143425000Y-173275000D03*
X143425000Y-170325000D03*
%TD*%
D14*
%TO.C,J1*%
X144950000Y-179400000D03*
D15*
X143425000Y-180875000D03*
X143425000Y-177925000D03*
%TD*%
D14*
%TO.C,J1*%
X156050000Y-111000000D03*
D15*
X154525000Y-112475000D03*
X154525000Y-109525000D03*
%TD*%
D14*
%TO.C,J1*%
X156050000Y-118600000D03*
D15*
X154525000Y-120075000D03*
X154525000Y-117125000D03*
%TD*%
D14*
%TO.C,J1*%
X156050000Y-126200000D03*
D15*
X154525000Y-127675000D03*
X154525000Y-124725000D03*
%TD*%
D14*
%TO.C,J1*%
X156050000Y-133800000D03*
D15*
X154525000Y-135275000D03*
X154525000Y-132325000D03*
%TD*%
D14*
%TO.C,J1*%
X156050000Y-141400000D03*
D15*
X154525000Y-142875000D03*
X154525000Y-139925000D03*
%TD*%
D14*
%TO.C,J1*%
X156050000Y-149000000D03*
D15*
X154525000Y-150475000D03*
X154525000Y-147525000D03*
%TD*%
D14*
%TO.C,J1*%
X156050000Y-156600000D03*
D15*
X154525000Y-158075000D03*
X154525000Y-155125000D03*
%TD*%
D14*
%TO.C,J1*%
X156050000Y-164200000D03*
D15*
X154525000Y-165675000D03*
X154525000Y-162725000D03*
%TD*%
D14*
%TO.C,J1*%
X156050000Y-171800000D03*
D15*
X154525000Y-173275000D03*
X154525000Y-170325000D03*
%TD*%
D14*
%TO.C,J1*%
X156050000Y-179400000D03*
D15*
X154525000Y-180875000D03*
X154525000Y-177925000D03*
%TD*%
D14*
%TO.C,J1*%
X167150000Y-111000000D03*
D15*
X165625000Y-112475000D03*
X165625000Y-109525000D03*
%TD*%
D14*
%TO.C,J1*%
X167150000Y-118600000D03*
D15*
X165625000Y-120075000D03*
X165625000Y-117125000D03*
%TD*%
D14*
%TO.C,J1*%
X167150000Y-126200000D03*
D15*
X165625000Y-127675000D03*
X165625000Y-124725000D03*
%TD*%
D14*
%TO.C,J1*%
X167150000Y-133800000D03*
D15*
X165625000Y-135275000D03*
X165625000Y-132325000D03*
%TD*%
D14*
%TO.C,J1*%
X167150000Y-141400000D03*
D15*
X165625000Y-142875000D03*
X165625000Y-139925000D03*
%TD*%
D14*
%TO.C,J1*%
X167150000Y-149000000D03*
D15*
X165625000Y-150475000D03*
X165625000Y-147525000D03*
%TD*%
D14*
%TO.C,J1*%
X167150000Y-156600000D03*
D15*
X165625000Y-158075000D03*
X165625000Y-155125000D03*
%TD*%
D14*
%TO.C,J1*%
X167150000Y-164200000D03*
D15*
X165625000Y-165675000D03*
X165625000Y-162725000D03*
%TD*%
D14*
%TO.C,J1*%
X167150000Y-171800000D03*
D15*
X165625000Y-173275000D03*
X165625000Y-170325000D03*
%TD*%
D14*
%TO.C,J1*%
X167150000Y-179400000D03*
D15*
X165625000Y-180875000D03*
X165625000Y-177925000D03*
%TD*%
D16*
%TO.C,J2*%
X116500000Y-110350000D03*
D17*
X116500000Y-111620000D03*
%TD*%
D16*
%TO.C,J2*%
X116500000Y-117950000D03*
D17*
X116500000Y-119220000D03*
%TD*%
D16*
%TO.C,J2*%
X116500000Y-125550000D03*
D17*
X116500000Y-126820000D03*
%TD*%
D16*
%TO.C,J2*%
X116500000Y-133150000D03*
D17*
X116500000Y-134420000D03*
%TD*%
D16*
%TO.C,J2*%
X116500000Y-140750000D03*
D17*
X116500000Y-142020000D03*
%TD*%
D16*
%TO.C,J2*%
X116500000Y-148350000D03*
D17*
X116500000Y-149620000D03*
%TD*%
D16*
%TO.C,J2*%
X116500000Y-155950000D03*
D17*
X116500000Y-157220000D03*
%TD*%
D16*
%TO.C,J2*%
X116500000Y-163550000D03*
D17*
X116500000Y-164820000D03*
%TD*%
D16*
%TO.C,J2*%
X116500000Y-171150000D03*
D17*
X116500000Y-172420000D03*
%TD*%
D16*
%TO.C,J2*%
X116500000Y-178750000D03*
D17*
X116500000Y-180020000D03*
%TD*%
D16*
%TO.C,J2*%
X127600000Y-110350000D03*
D17*
X127600000Y-111620000D03*
%TD*%
D16*
%TO.C,J2*%
X127600000Y-117950000D03*
D17*
X127600000Y-119220000D03*
%TD*%
D16*
%TO.C,J2*%
X127600000Y-125550000D03*
D17*
X127600000Y-126820000D03*
%TD*%
D16*
%TO.C,J2*%
X127600000Y-133150000D03*
D17*
X127600000Y-134420000D03*
%TD*%
D16*
%TO.C,J2*%
X127600000Y-140750000D03*
D17*
X127600000Y-142020000D03*
%TD*%
D16*
%TO.C,J2*%
X127600000Y-148350000D03*
D17*
X127600000Y-149620000D03*
%TD*%
D16*
%TO.C,J2*%
X127600000Y-155950000D03*
D17*
X127600000Y-157220000D03*
%TD*%
D16*
%TO.C,J2*%
X127600000Y-163550000D03*
D17*
X127600000Y-164820000D03*
%TD*%
D16*
%TO.C,J2*%
X127600000Y-171150000D03*
D17*
X127600000Y-172420000D03*
%TD*%
D16*
%TO.C,J2*%
X127600000Y-178750000D03*
D17*
X127600000Y-180020000D03*
%TD*%
D16*
%TO.C,J2*%
X138700000Y-110350000D03*
D17*
X138700000Y-111620000D03*
%TD*%
D16*
%TO.C,J2*%
X138700000Y-117950000D03*
D17*
X138700000Y-119220000D03*
%TD*%
D16*
%TO.C,J2*%
X138700000Y-125550000D03*
D17*
X138700000Y-126820000D03*
%TD*%
D16*
%TO.C,J2*%
X138700000Y-133150000D03*
D17*
X138700000Y-134420000D03*
%TD*%
D16*
%TO.C,J2*%
X138700000Y-140750000D03*
D17*
X138700000Y-142020000D03*
%TD*%
D16*
%TO.C,J2*%
X138700000Y-148350000D03*
D17*
X138700000Y-149620000D03*
%TD*%
D16*
%TO.C,J2*%
X138700000Y-155950000D03*
D17*
X138700000Y-157220000D03*
%TD*%
D16*
%TO.C,J2*%
X138700000Y-163550000D03*
D17*
X138700000Y-164820000D03*
%TD*%
D16*
%TO.C,J2*%
X138700000Y-171150000D03*
D17*
X138700000Y-172420000D03*
%TD*%
D16*
%TO.C,J2*%
X138700000Y-178750000D03*
D17*
X138700000Y-180020000D03*
%TD*%
D16*
%TO.C,J2*%
X149800000Y-110350000D03*
D17*
X149800000Y-111620000D03*
%TD*%
D16*
%TO.C,J2*%
X149800000Y-117950000D03*
D17*
X149800000Y-119220000D03*
%TD*%
D16*
%TO.C,J2*%
X149800000Y-125550000D03*
D17*
X149800000Y-126820000D03*
%TD*%
D16*
%TO.C,J2*%
X149800000Y-133150000D03*
D17*
X149800000Y-134420000D03*
%TD*%
D16*
%TO.C,J2*%
X149800000Y-140750000D03*
D17*
X149800000Y-142020000D03*
%TD*%
D16*
%TO.C,J2*%
X149800000Y-148350000D03*
D17*
X149800000Y-149620000D03*
%TD*%
D16*
%TO.C,J2*%
X149800000Y-155950000D03*
D17*
X149800000Y-157220000D03*
%TD*%
D16*
%TO.C,J2*%
X149800000Y-163550000D03*
D17*
X149800000Y-164820000D03*
%TD*%
D16*
%TO.C,J2*%
X149800000Y-171150000D03*
D17*
X149800000Y-172420000D03*
%TD*%
D16*
%TO.C,J2*%
X149800000Y-178750000D03*
D17*
X149800000Y-180020000D03*
%TD*%
D16*
%TO.C,J2*%
X160900000Y-110350000D03*
D17*
X160900000Y-111620000D03*
%TD*%
D16*
%TO.C,J2*%
X160900000Y-117950000D03*
D17*
X160900000Y-119220000D03*
%TD*%
D16*
%TO.C,J2*%
X160900000Y-125550000D03*
D17*
X160900000Y-126820000D03*
%TD*%
D16*
%TO.C,J2*%
X160900000Y-133150000D03*
D17*
X160900000Y-134420000D03*
%TD*%
D16*
%TO.C,J2*%
X160900000Y-140750000D03*
D17*
X160900000Y-142020000D03*
%TD*%
D16*
%TO.C,J2*%
X160900000Y-148350000D03*
D17*
X160900000Y-149620000D03*
%TD*%
D16*
%TO.C,J2*%
X160900000Y-155950000D03*
D17*
X160900000Y-157220000D03*
%TD*%
D16*
%TO.C,J2*%
X160900000Y-163550000D03*
D17*
X160900000Y-164820000D03*
%TD*%
D16*
%TO.C,J2*%
X160900000Y-171150000D03*
D17*
X160900000Y-172420000D03*
%TD*%
D16*
%TO.C,J2*%
X160900000Y-178750000D03*
D17*
X160900000Y-180020000D03*
%TD*%
D16*
%TO.C,J2*%
X172000000Y-110350000D03*
D17*
X172000000Y-111620000D03*
%TD*%
D16*
%TO.C,J2*%
X172000000Y-117950000D03*
D17*
X172000000Y-119220000D03*
%TD*%
D16*
%TO.C,J2*%
X172000000Y-125550000D03*
D17*
X172000000Y-126820000D03*
%TD*%
D16*
%TO.C,J2*%
X172000000Y-133150000D03*
D17*
X172000000Y-134420000D03*
%TD*%
D16*
%TO.C,J2*%
X172000000Y-140750000D03*
D17*
X172000000Y-142020000D03*
%TD*%
D16*
%TO.C,J2*%
X172000000Y-148350000D03*
D17*
X172000000Y-149620000D03*
%TD*%
D16*
%TO.C,J2*%
X172000000Y-155950000D03*
D17*
X172000000Y-157220000D03*
%TD*%
D16*
%TO.C,J2*%
X172000000Y-163550000D03*
D17*
X172000000Y-164820000D03*
%TD*%
D16*
%TO.C,J2*%
X172000000Y-171150000D03*
D17*
X172000000Y-172420000D03*
%TD*%
D16*
%TO.C,J2*%
X172000000Y-178750000D03*
D17*
X172000000Y-180020000D03*
%TD*%
M02*
