M48
; DRILL file {KiCad 6.0.10-86aedd382b~118~ubuntu20.04.1} date Sat 07 Jan 2023 05:55:30 PM PST
; FORMAT={-:-/ absolute / inch / decimal}
; #@! TF.CreationDate,2023-01-07T17:55:30-08:00
; #@! TF.GenerationSoftware,Kicad,Pcbnew,6.0.10-86aedd382b~118~ubuntu20.04.1
; #@! TF.FileFunction,MixedPlating,1,2
FMAT,2
INCH
; #@! TA.AperFunction,Plated,PTH,ViaDrill
T1C0.0118
; #@! TA.AperFunction,Plated,PTH,ComponentDrill
T2C0.0256
; #@! TA.AperFunction,NonPlated,NPTH,ComponentDrill
T3C0.0454
%
G90
G05
T1
X4.3209Y-4.2815
X4.3209Y-4.4587
X4.3209Y-4.5807
X4.3209Y-4.7579
X4.3209Y-4.8799
X4.3209Y-5.0571
X4.3209Y-5.1791
X4.3209Y-5.3563
X4.3209Y-5.4783
X4.3209Y-5.6555
X4.3209Y-5.7776
X4.3209Y-5.9547
X4.3209Y-6.0768
X4.3209Y-6.2539
X4.3209Y-6.376
X4.3209Y-6.5531
X4.3209Y-6.6752
X4.3209Y-6.8524
X4.3209Y-6.9744
X4.3209Y-7.1516
X4.3602Y-4.2815
X4.3602Y-4.4587
X4.3602Y-4.5807
X4.3602Y-4.7579
X4.3602Y-4.8799
X4.3602Y-5.0571
X4.3602Y-5.1791
X4.3602Y-5.3563
X4.3602Y-5.4783
X4.3602Y-5.6555
X4.3602Y-5.7776
X4.3602Y-5.9547
X4.3602Y-6.0768
X4.3602Y-6.2539
X4.3602Y-6.376
X4.3602Y-6.5531
X4.3602Y-6.6752
X4.3602Y-6.8524
X4.3602Y-6.9744
X4.3602Y-7.1516
X4.5768Y-4.4587
X4.5768Y-4.7579
X4.5768Y-5.0571
X4.5768Y-5.3563
X4.5768Y-5.6555
X4.5768Y-5.9547
X4.5768Y-6.2539
X4.5768Y-6.5531
X4.5768Y-6.8524
X4.5768Y-7.1516
X4.7579Y-4.2815
X4.7579Y-4.4587
X4.7579Y-4.5807
X4.7579Y-4.7579
X4.7579Y-4.8799
X4.7579Y-5.0571
X4.7579Y-5.1791
X4.7579Y-5.3563
X4.7579Y-5.4783
X4.7579Y-5.6555
X4.7579Y-5.7776
X4.7579Y-5.9547
X4.7579Y-6.0768
X4.7579Y-6.2539
X4.7579Y-6.376
X4.7579Y-6.5531
X4.7579Y-6.6752
X4.7579Y-6.8524
X4.7579Y-6.9744
X4.7579Y-7.1516
X4.7972Y-4.2815
X4.7972Y-4.4587
X4.7972Y-4.5807
X4.7972Y-4.7579
X4.7972Y-4.8799
X4.7972Y-5.0571
X4.7972Y-5.1791
X4.7972Y-5.3563
X4.7972Y-5.4783
X4.7972Y-5.6555
X4.7972Y-5.7776
X4.7972Y-5.9547
X4.7972Y-6.0768
X4.7972Y-6.2539
X4.7972Y-6.376
X4.7972Y-6.5531
X4.7972Y-6.6752
X4.7972Y-6.8524
X4.7972Y-6.9744
X4.7972Y-7.1516
X5.0138Y-4.4587
X5.0138Y-4.7579
X5.0138Y-5.0571
X5.0138Y-5.3563
X5.0138Y-5.6555
X5.0138Y-5.9547
X5.0138Y-6.2539
X5.0138Y-6.5531
X5.0138Y-6.8524
X5.0138Y-7.1516
X5.1949Y-4.2815
X5.1949Y-4.4587
X5.1949Y-4.5807
X5.1949Y-4.7579
X5.1949Y-4.8799
X5.1949Y-5.0571
X5.1949Y-5.1791
X5.1949Y-5.3563
X5.1949Y-5.4783
X5.1949Y-5.6555
X5.1949Y-5.7776
X5.1949Y-5.9547
X5.1949Y-6.0768
X5.1949Y-6.2539
X5.1949Y-6.376
X5.1949Y-6.5531
X5.1949Y-6.6752
X5.1949Y-6.8524
X5.1949Y-6.9744
X5.1949Y-7.1516
X5.2343Y-4.2815
X5.2343Y-4.4587
X5.2343Y-4.5807
X5.2343Y-4.7579
X5.2343Y-4.8799
X5.2343Y-5.0571
X5.2343Y-5.1791
X5.2343Y-5.3563
X5.2343Y-5.4783
X5.2343Y-5.6555
X5.2343Y-5.7776
X5.2343Y-5.9547
X5.2343Y-6.0768
X5.2343Y-6.2539
X5.2343Y-6.376
X5.2343Y-6.5531
X5.2343Y-6.6752
X5.2343Y-6.8524
X5.2343Y-6.9744
X5.2343Y-7.1516
X5.4508Y-4.4587
X5.4508Y-4.7579
X5.4508Y-5.0571
X5.4508Y-5.3563
X5.4508Y-5.6555
X5.4508Y-5.9547
X5.4508Y-6.2539
X5.4508Y-6.5531
X5.4508Y-6.8524
X5.4508Y-7.1516
X5.6319Y-4.2815
X5.6319Y-4.4587
X5.6319Y-4.5807
X5.6319Y-4.7579
X5.6319Y-4.8799
X5.6319Y-5.0571
X5.6319Y-5.1791
X5.6319Y-5.3563
X5.6319Y-5.4783
X5.6319Y-5.6555
X5.6319Y-5.7776
X5.6319Y-5.9547
X5.6319Y-6.0768
X5.6319Y-6.2539
X5.6319Y-6.376
X5.6319Y-6.5531
X5.6319Y-6.6752
X5.6319Y-6.8524
X5.6319Y-6.9744
X5.6319Y-7.1516
X5.6713Y-4.2815
X5.6713Y-4.4587
X5.6713Y-4.5807
X5.6713Y-4.7579
X5.6713Y-4.8799
X5.6713Y-5.0571
X5.6713Y-5.1791
X5.6713Y-5.3563
X5.6713Y-5.4783
X5.6713Y-5.6555
X5.6713Y-5.7776
X5.6713Y-5.9547
X5.6713Y-6.0768
X5.6713Y-6.2539
X5.6713Y-6.376
X5.6713Y-6.5531
X5.6713Y-6.6752
X5.6713Y-6.8524
X5.6713Y-6.9744
X5.6713Y-7.1516
X5.8878Y-4.4587
X5.8878Y-4.7579
X5.8878Y-5.0571
X5.8878Y-5.3563
X5.8878Y-5.6555
X5.8878Y-5.9547
X5.8878Y-6.2539
X5.8878Y-6.5531
X5.8878Y-6.8524
X5.8878Y-7.1516
X6.0689Y-4.2815
X6.0689Y-4.4587
X6.0689Y-4.5807
X6.0689Y-4.7579
X6.0689Y-4.8799
X6.0689Y-5.0571
X6.0689Y-5.1791
X6.0689Y-5.3563
X6.0689Y-5.4783
X6.0689Y-5.6555
X6.0689Y-5.7776
X6.0689Y-5.9547
X6.0689Y-6.0768
X6.0689Y-6.2539
X6.0689Y-6.376
X6.0689Y-6.5531
X6.0689Y-6.6752
X6.0689Y-6.8524
X6.0689Y-6.9744
X6.0689Y-7.1516
X6.1083Y-4.2815
X6.1083Y-4.4587
X6.1083Y-4.5807
X6.1083Y-4.7579
X6.1083Y-4.8799
X6.1083Y-5.0571
X6.1083Y-5.1791
X6.1083Y-5.3563
X6.1083Y-5.4783
X6.1083Y-5.6555
X6.1083Y-5.7776
X6.1083Y-5.9547
X6.1083Y-6.0768
X6.1083Y-6.2539
X6.1083Y-6.376
X6.1083Y-6.5531
X6.1083Y-6.6752
X6.1083Y-6.8524
X6.1083Y-6.9744
X6.1083Y-7.1516
X6.3248Y-4.4587
X6.3248Y-4.7579
X6.3248Y-5.0571
X6.3248Y-5.3563
X6.3248Y-5.6555
X6.3248Y-5.9547
X6.3248Y-6.2539
X6.3248Y-6.5531
X6.3248Y-6.8524
X6.3248Y-7.1516
X6.5059Y-4.2815
X6.5059Y-4.4587
X6.5059Y-4.5807
X6.5059Y-4.7579
X6.5059Y-4.8799
X6.5059Y-5.0571
X6.5059Y-5.1791
X6.5059Y-5.3563
X6.5059Y-5.4783
X6.5059Y-5.6555
X6.5059Y-5.7776
X6.5059Y-5.9547
X6.5059Y-6.0768
X6.5059Y-6.2539
X6.5059Y-6.376
X6.5059Y-6.5531
X6.5059Y-6.6752
X6.5059Y-6.8524
X6.5059Y-6.9744
X6.5059Y-7.1516
X6.5453Y-4.2815
X6.5453Y-4.4587
X6.5453Y-4.5807
X6.5453Y-4.7579
X6.5453Y-4.8799
X6.5453Y-5.0571
X6.5453Y-5.1791
X6.5453Y-5.3563
X6.5453Y-5.4783
X6.5453Y-5.6555
X6.5453Y-5.7776
X6.5453Y-5.9547
X6.5453Y-6.0768
X6.5453Y-6.2539
X6.5453Y-6.376
X6.5453Y-6.5531
X6.5453Y-6.6752
X6.5453Y-6.8524
X6.5453Y-6.9744
X6.5453Y-7.1516
X6.7618Y-4.4587
X6.7618Y-4.7579
X6.7618Y-5.0571
X6.7618Y-5.3563
X6.7618Y-5.6555
X6.7618Y-5.9547
X6.7618Y-6.2539
X6.7618Y-6.5531
X6.7618Y-6.8524
X6.7618Y-7.1516
T2
X4.5866Y-4.3445
X4.5866Y-4.3945
X4.5866Y-4.6437
X4.5866Y-4.6937
X4.5866Y-4.9429
X4.5866Y-4.9929
X4.5866Y-5.2421
X4.5866Y-5.2921
X4.5866Y-5.5413
X4.5866Y-5.5913
X4.5866Y-5.8406
X4.5866Y-5.8906
X4.5866Y-6.1398
X4.5866Y-6.1898
X4.5866Y-6.439
X4.5866Y-6.489
X4.5866Y-6.7382
X4.5866Y-6.7882
X4.5866Y-7.0374
X4.5866Y-7.0874
X5.0236Y-4.3445
X5.0236Y-4.3945
X5.0236Y-4.6437
X5.0236Y-4.6937
X5.0236Y-4.9429
X5.0236Y-4.9929
X5.0236Y-5.2421
X5.0236Y-5.2921
X5.0236Y-5.5413
X5.0236Y-5.5913
X5.0236Y-5.8406
X5.0236Y-5.8906
X5.0236Y-6.1398
X5.0236Y-6.1898
X5.0236Y-6.439
X5.0236Y-6.489
X5.0236Y-6.7382
X5.0236Y-6.7882
X5.0236Y-7.0374
X5.0236Y-7.0874
X5.4606Y-4.3445
X5.4606Y-4.3945
X5.4606Y-4.6437
X5.4606Y-4.6937
X5.4606Y-4.9429
X5.4606Y-4.9929
X5.4606Y-5.2421
X5.4606Y-5.2921
X5.4606Y-5.5413
X5.4606Y-5.5913
X5.4606Y-5.8406
X5.4606Y-5.8906
X5.4606Y-6.1398
X5.4606Y-6.1898
X5.4606Y-6.439
X5.4606Y-6.489
X5.4606Y-6.7382
X5.4606Y-6.7882
X5.4606Y-7.0374
X5.4606Y-7.0874
X5.8976Y-4.3445
X5.8976Y-4.3945
X5.8976Y-4.6437
X5.8976Y-4.6937
X5.8976Y-4.9429
X5.8976Y-4.9929
X5.8976Y-5.2421
X5.8976Y-5.2921
X5.8976Y-5.5413
X5.8976Y-5.5913
X5.8976Y-5.8406
X5.8976Y-5.8906
X5.8976Y-6.1398
X5.8976Y-6.1898
X5.8976Y-6.439
X5.8976Y-6.489
X5.8976Y-6.7382
X5.8976Y-6.7882
X5.8976Y-7.0374
X5.8976Y-7.0874
X6.3346Y-4.3445
X6.3346Y-4.3945
X6.3346Y-4.6437
X6.3346Y-4.6937
X6.3346Y-4.9429
X6.3346Y-4.9929
X6.3346Y-5.2421
X6.3346Y-5.2921
X6.3346Y-5.5413
X6.3346Y-5.5913
X6.3346Y-5.8406
X6.3346Y-5.8906
X6.3346Y-6.1398
X6.3346Y-6.1898
X6.3346Y-6.439
X6.3346Y-6.489
X6.3346Y-6.7382
X6.3346Y-6.7882
X6.3346Y-7.0374
X6.3346Y-7.0874
X6.7717Y-4.3445
X6.7717Y-4.3945
X6.7717Y-4.6437
X6.7717Y-4.6937
X6.7717Y-4.9429
X6.7717Y-4.9929
X6.7717Y-5.2421
X6.7717Y-5.2921
X6.7717Y-5.5413
X6.7717Y-5.5913
X6.7717Y-5.8406
X6.7717Y-5.8906
X6.7717Y-6.1398
X6.7717Y-6.1898
X6.7717Y-6.439
X6.7717Y-6.489
X6.7717Y-6.7382
X6.7717Y-6.7882
X6.7717Y-7.0374
X6.7717Y-7.0874
T3
X4.0945Y-4.3307
X4.0945Y-7.0866
X6.9291Y-4.3307
X6.9291Y-7.0866
T0
M30
