%TF.GenerationSoftware,KiCad,Pcbnew,6.0.10-86aedd382b~118~ubuntu20.04.1*%
%TF.CreationDate,2023-01-07T17:55:22-08:00*%
%TF.ProjectId,coil_terminator_panelized,636f696c-5f74-4657-926d-696e61746f72,rev?*%
%TF.SameCoordinates,Original*%
%TF.FileFunction,Soldermask,Bot*%
%TF.FilePolarity,Negative*%
%FSLAX46Y46*%
G04 Gerber Fmt 4.6, Leading zero omitted, Abs format (unit mm)*
G04 Created by KiCad (PCBNEW 6.0.10-86aedd382b~118~ubuntu20.04.1) date 2023-01-07 17:55:22*
%MOMM*%
%LPD*%
G01*
G04 APERTURE LIST*
%ADD10C,1.300000*%
%ADD11R,1.000000X1.000000*%
%ADD12O,1.000000X1.000000*%
G04 APERTURE END LIST*
D10*
%TO.C,REF\u002A\u002A*%
X104000000Y-110000000D03*
%TD*%
%TO.C,REF\u002A\u002A*%
X176000000Y-110000000D03*
%TD*%
%TO.C,REF\u002A\u002A*%
X176000000Y-180000000D03*
%TD*%
%TO.C,REF\u002A\u002A*%
X104000000Y-180000000D03*
%TD*%
D11*
%TO.C,J2*%
X116500000Y-110350000D03*
D12*
X116500000Y-111620000D03*
%TD*%
D11*
%TO.C,J2*%
X116500000Y-117950000D03*
D12*
X116500000Y-119220000D03*
%TD*%
D11*
%TO.C,J2*%
X116500000Y-125550000D03*
D12*
X116500000Y-126820000D03*
%TD*%
D11*
%TO.C,J2*%
X116500000Y-133150000D03*
D12*
X116500000Y-134420000D03*
%TD*%
D11*
%TO.C,J2*%
X116500000Y-140750000D03*
D12*
X116500000Y-142020000D03*
%TD*%
D11*
%TO.C,J2*%
X116500000Y-148350000D03*
D12*
X116500000Y-149620000D03*
%TD*%
D11*
%TO.C,J2*%
X116500000Y-155950000D03*
D12*
X116500000Y-157220000D03*
%TD*%
D11*
%TO.C,J2*%
X116500000Y-163550000D03*
D12*
X116500000Y-164820000D03*
%TD*%
D11*
%TO.C,J2*%
X116500000Y-171150000D03*
D12*
X116500000Y-172420000D03*
%TD*%
D11*
%TO.C,J2*%
X116500000Y-178750000D03*
D12*
X116500000Y-180020000D03*
%TD*%
D11*
%TO.C,J2*%
X127600000Y-110350000D03*
D12*
X127600000Y-111620000D03*
%TD*%
D11*
%TO.C,J2*%
X127600000Y-117950000D03*
D12*
X127600000Y-119220000D03*
%TD*%
D11*
%TO.C,J2*%
X127600000Y-125550000D03*
D12*
X127600000Y-126820000D03*
%TD*%
D11*
%TO.C,J2*%
X127600000Y-133150000D03*
D12*
X127600000Y-134420000D03*
%TD*%
D11*
%TO.C,J2*%
X127600000Y-140750000D03*
D12*
X127600000Y-142020000D03*
%TD*%
D11*
%TO.C,J2*%
X127600000Y-148350000D03*
D12*
X127600000Y-149620000D03*
%TD*%
D11*
%TO.C,J2*%
X127600000Y-155950000D03*
D12*
X127600000Y-157220000D03*
%TD*%
D11*
%TO.C,J2*%
X127600000Y-163550000D03*
D12*
X127600000Y-164820000D03*
%TD*%
D11*
%TO.C,J2*%
X127600000Y-171150000D03*
D12*
X127600000Y-172420000D03*
%TD*%
D11*
%TO.C,J2*%
X127600000Y-178750000D03*
D12*
X127600000Y-180020000D03*
%TD*%
D11*
%TO.C,J2*%
X138700000Y-110350000D03*
D12*
X138700000Y-111620000D03*
%TD*%
D11*
%TO.C,J2*%
X138700000Y-117950000D03*
D12*
X138700000Y-119220000D03*
%TD*%
D11*
%TO.C,J2*%
X138700000Y-125550000D03*
D12*
X138700000Y-126820000D03*
%TD*%
D11*
%TO.C,J2*%
X138700000Y-133150000D03*
D12*
X138700000Y-134420000D03*
%TD*%
D11*
%TO.C,J2*%
X138700000Y-140750000D03*
D12*
X138700000Y-142020000D03*
%TD*%
D11*
%TO.C,J2*%
X138700000Y-148350000D03*
D12*
X138700000Y-149620000D03*
%TD*%
D11*
%TO.C,J2*%
X138700000Y-155950000D03*
D12*
X138700000Y-157220000D03*
%TD*%
D11*
%TO.C,J2*%
X138700000Y-163550000D03*
D12*
X138700000Y-164820000D03*
%TD*%
D11*
%TO.C,J2*%
X138700000Y-171150000D03*
D12*
X138700000Y-172420000D03*
%TD*%
D11*
%TO.C,J2*%
X138700000Y-178750000D03*
D12*
X138700000Y-180020000D03*
%TD*%
D11*
%TO.C,J2*%
X149800000Y-110350000D03*
D12*
X149800000Y-111620000D03*
%TD*%
D11*
%TO.C,J2*%
X149800000Y-117950000D03*
D12*
X149800000Y-119220000D03*
%TD*%
D11*
%TO.C,J2*%
X149800000Y-125550000D03*
D12*
X149800000Y-126820000D03*
%TD*%
D11*
%TO.C,J2*%
X149800000Y-133150000D03*
D12*
X149800000Y-134420000D03*
%TD*%
D11*
%TO.C,J2*%
X149800000Y-140750000D03*
D12*
X149800000Y-142020000D03*
%TD*%
D11*
%TO.C,J2*%
X149800000Y-148350000D03*
D12*
X149800000Y-149620000D03*
%TD*%
D11*
%TO.C,J2*%
X149800000Y-155950000D03*
D12*
X149800000Y-157220000D03*
%TD*%
D11*
%TO.C,J2*%
X149800000Y-163550000D03*
D12*
X149800000Y-164820000D03*
%TD*%
D11*
%TO.C,J2*%
X149800000Y-171150000D03*
D12*
X149800000Y-172420000D03*
%TD*%
D11*
%TO.C,J2*%
X149800000Y-178750000D03*
D12*
X149800000Y-180020000D03*
%TD*%
D11*
%TO.C,J2*%
X160900000Y-110350000D03*
D12*
X160900000Y-111620000D03*
%TD*%
D11*
%TO.C,J2*%
X160900000Y-117950000D03*
D12*
X160900000Y-119220000D03*
%TD*%
D11*
%TO.C,J2*%
X160900000Y-125550000D03*
D12*
X160900000Y-126820000D03*
%TD*%
D11*
%TO.C,J2*%
X160900000Y-133150000D03*
D12*
X160900000Y-134420000D03*
%TD*%
D11*
%TO.C,J2*%
X160900000Y-140750000D03*
D12*
X160900000Y-142020000D03*
%TD*%
D11*
%TO.C,J2*%
X160900000Y-148350000D03*
D12*
X160900000Y-149620000D03*
%TD*%
D11*
%TO.C,J2*%
X160900000Y-155950000D03*
D12*
X160900000Y-157220000D03*
%TD*%
D11*
%TO.C,J2*%
X160900000Y-163550000D03*
D12*
X160900000Y-164820000D03*
%TD*%
D11*
%TO.C,J2*%
X160900000Y-171150000D03*
D12*
X160900000Y-172420000D03*
%TD*%
D11*
%TO.C,J2*%
X160900000Y-178750000D03*
D12*
X160900000Y-180020000D03*
%TD*%
D11*
%TO.C,J2*%
X172000000Y-110350000D03*
D12*
X172000000Y-111620000D03*
%TD*%
D11*
%TO.C,J2*%
X172000000Y-117950000D03*
D12*
X172000000Y-119220000D03*
%TD*%
D11*
%TO.C,J2*%
X172000000Y-125550000D03*
D12*
X172000000Y-126820000D03*
%TD*%
D11*
%TO.C,J2*%
X172000000Y-133150000D03*
D12*
X172000000Y-134420000D03*
%TD*%
D11*
%TO.C,J2*%
X172000000Y-140750000D03*
D12*
X172000000Y-142020000D03*
%TD*%
D11*
%TO.C,J2*%
X172000000Y-148350000D03*
D12*
X172000000Y-149620000D03*
%TD*%
D11*
%TO.C,J2*%
X172000000Y-155950000D03*
D12*
X172000000Y-157220000D03*
%TD*%
D11*
%TO.C,J2*%
X172000000Y-163550000D03*
D12*
X172000000Y-164820000D03*
%TD*%
D11*
%TO.C,J2*%
X172000000Y-171150000D03*
D12*
X172000000Y-172420000D03*
%TD*%
D11*
%TO.C,J2*%
X172000000Y-178750000D03*
D12*
X172000000Y-180020000D03*
%TD*%
M02*
