%TF.GenerationSoftware,KiCad,Pcbnew,6.0.10-86aedd382b~118~ubuntu20.04.1*%
%TF.CreationDate,2023-01-07T17:55:22-08:00*%
%TF.ProjectId,coil_terminator_panelized,636f696c-5f74-4657-926d-696e61746f72,rev?*%
%TF.SameCoordinates,Original*%
%TF.FileFunction,Paste,Top*%
%TF.FilePolarity,Positive*%
%FSLAX46Y46*%
G04 Gerber Fmt 4.6, Leading zero omitted, Abs format (unit mm)*
G04 Created by KiCad (PCBNEW 6.0.10-86aedd382b~118~ubuntu20.04.1) date 2023-01-07 17:55:22*
%MOMM*%
%LPD*%
G01*
G04 APERTURE LIST*
G04 Aperture macros list*
%AMRoundRect*
0 Rectangle with rounded corners*
0 $1 Rounding radius*
0 $2 $3 $4 $5 $6 $7 $8 $9 X,Y pos of 4 corners*
0 Add a 4 corners polygon primitive as box body*
4,1,4,$2,$3,$4,$5,$6,$7,$8,$9,$2,$3,0*
0 Add four circle primitives for the rounded corners*
1,1,$1+$1,$2,$3*
1,1,$1+$1,$4,$5*
1,1,$1+$1,$6,$7*
1,1,$1+$1,$8,$9*
0 Add four rect primitives between the rounded corners*
20,1,$1+$1,$2,$3,$4,$5,0*
20,1,$1+$1,$4,$5,$6,$7,0*
20,1,$1+$1,$6,$7,$8,$9,0*
20,1,$1+$1,$8,$9,$2,$3,0*%
G04 Aperture macros list end*
%ADD10RoundRect,0.250000X-0.625000X0.400000X-0.625000X-0.400000X0.625000X-0.400000X0.625000X0.400000X0*%
%ADD11R,1.050000X1.000000*%
%ADD12R,2.200000X1.050000*%
G04 APERTURE END LIST*
D10*
%TO.C,R1*%
X113750000Y-109450000D03*
X113750000Y-112550000D03*
%TD*%
%TO.C,R1*%
X113750000Y-117050000D03*
X113750000Y-120150000D03*
%TD*%
%TO.C,R1*%
X113750000Y-124650000D03*
X113750000Y-127750000D03*
%TD*%
%TO.C,R1*%
X113750000Y-132250000D03*
X113750000Y-135350000D03*
%TD*%
%TO.C,R1*%
X113750000Y-139850000D03*
X113750000Y-142950000D03*
%TD*%
%TO.C,R1*%
X113750000Y-147450000D03*
X113750000Y-150550000D03*
%TD*%
%TO.C,R1*%
X113750000Y-155050000D03*
X113750000Y-158150000D03*
%TD*%
%TO.C,R1*%
X113750000Y-162650000D03*
X113750000Y-165750000D03*
%TD*%
%TO.C,R1*%
X113750000Y-170250000D03*
X113750000Y-173350000D03*
%TD*%
%TO.C,R1*%
X113750000Y-177850000D03*
X113750000Y-180950000D03*
%TD*%
%TO.C,R1*%
X124850000Y-109450000D03*
X124850000Y-112550000D03*
%TD*%
%TO.C,R1*%
X124850000Y-117050000D03*
X124850000Y-120150000D03*
%TD*%
%TO.C,R1*%
X124850000Y-124650000D03*
X124850000Y-127750000D03*
%TD*%
%TO.C,R1*%
X124850000Y-132250000D03*
X124850000Y-135350000D03*
%TD*%
%TO.C,R1*%
X124850000Y-139850000D03*
X124850000Y-142950000D03*
%TD*%
%TO.C,R1*%
X124850000Y-147450000D03*
X124850000Y-150550000D03*
%TD*%
%TO.C,R1*%
X124850000Y-155050000D03*
X124850000Y-158150000D03*
%TD*%
%TO.C,R1*%
X124850000Y-162650000D03*
X124850000Y-165750000D03*
%TD*%
%TO.C,R1*%
X124850000Y-170250000D03*
X124850000Y-173350000D03*
%TD*%
%TO.C,R1*%
X124850000Y-177850000D03*
X124850000Y-180950000D03*
%TD*%
%TO.C,R1*%
X135950000Y-109450000D03*
X135950000Y-112550000D03*
%TD*%
%TO.C,R1*%
X135950000Y-117050000D03*
X135950000Y-120150000D03*
%TD*%
%TO.C,R1*%
X135950000Y-124650000D03*
X135950000Y-127750000D03*
%TD*%
%TO.C,R1*%
X135950000Y-132250000D03*
X135950000Y-135350000D03*
%TD*%
%TO.C,R1*%
X135950000Y-139850000D03*
X135950000Y-142950000D03*
%TD*%
%TO.C,R1*%
X135950000Y-147450000D03*
X135950000Y-150550000D03*
%TD*%
%TO.C,R1*%
X135950000Y-155050000D03*
X135950000Y-158150000D03*
%TD*%
%TO.C,R1*%
X135950000Y-162650000D03*
X135950000Y-165750000D03*
%TD*%
%TO.C,R1*%
X135950000Y-170250000D03*
X135950000Y-173350000D03*
%TD*%
%TO.C,R1*%
X135950000Y-177850000D03*
X135950000Y-180950000D03*
%TD*%
%TO.C,R1*%
X147050000Y-109450000D03*
X147050000Y-112550000D03*
%TD*%
%TO.C,R1*%
X147050000Y-117050000D03*
X147050000Y-120150000D03*
%TD*%
%TO.C,R1*%
X147050000Y-124650000D03*
X147050000Y-127750000D03*
%TD*%
%TO.C,R1*%
X147050000Y-132250000D03*
X147050000Y-135350000D03*
%TD*%
%TO.C,R1*%
X147050000Y-139850000D03*
X147050000Y-142950000D03*
%TD*%
%TO.C,R1*%
X147050000Y-147450000D03*
X147050000Y-150550000D03*
%TD*%
%TO.C,R1*%
X147050000Y-155050000D03*
X147050000Y-158150000D03*
%TD*%
%TO.C,R1*%
X147050000Y-162650000D03*
X147050000Y-165750000D03*
%TD*%
%TO.C,R1*%
X147050000Y-170250000D03*
X147050000Y-173350000D03*
%TD*%
%TO.C,R1*%
X147050000Y-177850000D03*
X147050000Y-180950000D03*
%TD*%
%TO.C,R1*%
X158150000Y-109450000D03*
X158150000Y-112550000D03*
%TD*%
%TO.C,R1*%
X158150000Y-117050000D03*
X158150000Y-120150000D03*
%TD*%
%TO.C,R1*%
X158150000Y-124650000D03*
X158150000Y-127750000D03*
%TD*%
%TO.C,R1*%
X158150000Y-132250000D03*
X158150000Y-135350000D03*
%TD*%
%TO.C,R1*%
X158150000Y-139850000D03*
X158150000Y-142950000D03*
%TD*%
%TO.C,R1*%
X158150000Y-147450000D03*
X158150000Y-150550000D03*
%TD*%
%TO.C,R1*%
X158150000Y-155050000D03*
X158150000Y-158150000D03*
%TD*%
%TO.C,R1*%
X158150000Y-162650000D03*
X158150000Y-165750000D03*
%TD*%
%TO.C,R1*%
X158150000Y-170250000D03*
X158150000Y-173350000D03*
%TD*%
%TO.C,R1*%
X158150000Y-177850000D03*
X158150000Y-180950000D03*
%TD*%
%TO.C,R1*%
X169250000Y-109450000D03*
X169250000Y-112550000D03*
%TD*%
%TO.C,R1*%
X169250000Y-117050000D03*
X169250000Y-120150000D03*
%TD*%
%TO.C,R1*%
X169250000Y-124650000D03*
X169250000Y-127750000D03*
%TD*%
%TO.C,R1*%
X169250000Y-132250000D03*
X169250000Y-135350000D03*
%TD*%
%TO.C,R1*%
X169250000Y-139850000D03*
X169250000Y-142950000D03*
%TD*%
%TO.C,R1*%
X169250000Y-147450000D03*
X169250000Y-150550000D03*
%TD*%
%TO.C,R1*%
X169250000Y-155050000D03*
X169250000Y-158150000D03*
%TD*%
%TO.C,R1*%
X169250000Y-162650000D03*
X169250000Y-165750000D03*
%TD*%
%TO.C,R1*%
X169250000Y-170250000D03*
X169250000Y-173350000D03*
%TD*%
%TO.C,R1*%
X169250000Y-177850000D03*
X169250000Y-180950000D03*
%TD*%
D11*
%TO.C,J1*%
X111650000Y-111000000D03*
D12*
X110125000Y-112475000D03*
X110125000Y-109525000D03*
%TD*%
D11*
%TO.C,J1*%
X111650000Y-118600000D03*
D12*
X110125000Y-120075000D03*
X110125000Y-117125000D03*
%TD*%
D11*
%TO.C,J1*%
X111650000Y-126200000D03*
D12*
X110125000Y-127675000D03*
X110125000Y-124725000D03*
%TD*%
D11*
%TO.C,J1*%
X111650000Y-133800000D03*
D12*
X110125000Y-135275000D03*
X110125000Y-132325000D03*
%TD*%
D11*
%TO.C,J1*%
X111650000Y-141400000D03*
D12*
X110125000Y-142875000D03*
X110125000Y-139925000D03*
%TD*%
D11*
%TO.C,J1*%
X111650000Y-149000000D03*
D12*
X110125000Y-150475000D03*
X110125000Y-147525000D03*
%TD*%
D11*
%TO.C,J1*%
X111650000Y-156600000D03*
D12*
X110125000Y-158075000D03*
X110125000Y-155125000D03*
%TD*%
D11*
%TO.C,J1*%
X111650000Y-164200000D03*
D12*
X110125000Y-165675000D03*
X110125000Y-162725000D03*
%TD*%
D11*
%TO.C,J1*%
X111650000Y-171800000D03*
D12*
X110125000Y-173275000D03*
X110125000Y-170325000D03*
%TD*%
D11*
%TO.C,J1*%
X111650000Y-179400000D03*
D12*
X110125000Y-180875000D03*
X110125000Y-177925000D03*
%TD*%
D11*
%TO.C,J1*%
X122750000Y-111000000D03*
D12*
X121225000Y-112475000D03*
X121225000Y-109525000D03*
%TD*%
D11*
%TO.C,J1*%
X122750000Y-118600000D03*
D12*
X121225000Y-120075000D03*
X121225000Y-117125000D03*
%TD*%
D11*
%TO.C,J1*%
X122750000Y-126200000D03*
D12*
X121225000Y-127675000D03*
X121225000Y-124725000D03*
%TD*%
D11*
%TO.C,J1*%
X122750000Y-133800000D03*
D12*
X121225000Y-135275000D03*
X121225000Y-132325000D03*
%TD*%
D11*
%TO.C,J1*%
X122750000Y-141400000D03*
D12*
X121225000Y-142875000D03*
X121225000Y-139925000D03*
%TD*%
D11*
%TO.C,J1*%
X122750000Y-149000000D03*
D12*
X121225000Y-150475000D03*
X121225000Y-147525000D03*
%TD*%
D11*
%TO.C,J1*%
X122750000Y-156600000D03*
D12*
X121225000Y-158075000D03*
X121225000Y-155125000D03*
%TD*%
D11*
%TO.C,J1*%
X122750000Y-164200000D03*
D12*
X121225000Y-165675000D03*
X121225000Y-162725000D03*
%TD*%
D11*
%TO.C,J1*%
X122750000Y-171800000D03*
D12*
X121225000Y-173275000D03*
X121225000Y-170325000D03*
%TD*%
D11*
%TO.C,J1*%
X122750000Y-179400000D03*
D12*
X121225000Y-180875000D03*
X121225000Y-177925000D03*
%TD*%
D11*
%TO.C,J1*%
X133850000Y-111000000D03*
D12*
X132325000Y-112475000D03*
X132325000Y-109525000D03*
%TD*%
D11*
%TO.C,J1*%
X133850000Y-118600000D03*
D12*
X132325000Y-120075000D03*
X132325000Y-117125000D03*
%TD*%
D11*
%TO.C,J1*%
X133850000Y-126200000D03*
D12*
X132325000Y-127675000D03*
X132325000Y-124725000D03*
%TD*%
D11*
%TO.C,J1*%
X133850000Y-133800000D03*
D12*
X132325000Y-135275000D03*
X132325000Y-132325000D03*
%TD*%
D11*
%TO.C,J1*%
X133850000Y-141400000D03*
D12*
X132325000Y-142875000D03*
X132325000Y-139925000D03*
%TD*%
D11*
%TO.C,J1*%
X133850000Y-149000000D03*
D12*
X132325000Y-150475000D03*
X132325000Y-147525000D03*
%TD*%
D11*
%TO.C,J1*%
X133850000Y-156600000D03*
D12*
X132325000Y-158075000D03*
X132325000Y-155125000D03*
%TD*%
D11*
%TO.C,J1*%
X133850000Y-164200000D03*
D12*
X132325000Y-165675000D03*
X132325000Y-162725000D03*
%TD*%
D11*
%TO.C,J1*%
X133850000Y-171800000D03*
D12*
X132325000Y-173275000D03*
X132325000Y-170325000D03*
%TD*%
D11*
%TO.C,J1*%
X133850000Y-179400000D03*
D12*
X132325000Y-180875000D03*
X132325000Y-177925000D03*
%TD*%
D11*
%TO.C,J1*%
X144950000Y-111000000D03*
D12*
X143425000Y-112475000D03*
X143425000Y-109525000D03*
%TD*%
D11*
%TO.C,J1*%
X144950000Y-118600000D03*
D12*
X143425000Y-120075000D03*
X143425000Y-117125000D03*
%TD*%
D11*
%TO.C,J1*%
X144950000Y-126200000D03*
D12*
X143425000Y-127675000D03*
X143425000Y-124725000D03*
%TD*%
D11*
%TO.C,J1*%
X144950000Y-133800000D03*
D12*
X143425000Y-135275000D03*
X143425000Y-132325000D03*
%TD*%
D11*
%TO.C,J1*%
X144950000Y-141400000D03*
D12*
X143425000Y-142875000D03*
X143425000Y-139925000D03*
%TD*%
D11*
%TO.C,J1*%
X144950000Y-149000000D03*
D12*
X143425000Y-150475000D03*
X143425000Y-147525000D03*
%TD*%
D11*
%TO.C,J1*%
X144950000Y-156600000D03*
D12*
X143425000Y-158075000D03*
X143425000Y-155125000D03*
%TD*%
D11*
%TO.C,J1*%
X144950000Y-164200000D03*
D12*
X143425000Y-165675000D03*
X143425000Y-162725000D03*
%TD*%
D11*
%TO.C,J1*%
X144950000Y-171800000D03*
D12*
X143425000Y-173275000D03*
X143425000Y-170325000D03*
%TD*%
D11*
%TO.C,J1*%
X144950000Y-179400000D03*
D12*
X143425000Y-180875000D03*
X143425000Y-177925000D03*
%TD*%
D11*
%TO.C,J1*%
X156050000Y-111000000D03*
D12*
X154525000Y-112475000D03*
X154525000Y-109525000D03*
%TD*%
D11*
%TO.C,J1*%
X156050000Y-118600000D03*
D12*
X154525000Y-120075000D03*
X154525000Y-117125000D03*
%TD*%
D11*
%TO.C,J1*%
X156050000Y-126200000D03*
D12*
X154525000Y-127675000D03*
X154525000Y-124725000D03*
%TD*%
D11*
%TO.C,J1*%
X156050000Y-133800000D03*
D12*
X154525000Y-135275000D03*
X154525000Y-132325000D03*
%TD*%
D11*
%TO.C,J1*%
X156050000Y-141400000D03*
D12*
X154525000Y-142875000D03*
X154525000Y-139925000D03*
%TD*%
D11*
%TO.C,J1*%
X156050000Y-149000000D03*
D12*
X154525000Y-150475000D03*
X154525000Y-147525000D03*
%TD*%
D11*
%TO.C,J1*%
X156050000Y-156600000D03*
D12*
X154525000Y-158075000D03*
X154525000Y-155125000D03*
%TD*%
D11*
%TO.C,J1*%
X156050000Y-164200000D03*
D12*
X154525000Y-165675000D03*
X154525000Y-162725000D03*
%TD*%
D11*
%TO.C,J1*%
X156050000Y-171800000D03*
D12*
X154525000Y-173275000D03*
X154525000Y-170325000D03*
%TD*%
D11*
%TO.C,J1*%
X156050000Y-179400000D03*
D12*
X154525000Y-180875000D03*
X154525000Y-177925000D03*
%TD*%
D11*
%TO.C,J1*%
X167150000Y-111000000D03*
D12*
X165625000Y-112475000D03*
X165625000Y-109525000D03*
%TD*%
D11*
%TO.C,J1*%
X167150000Y-118600000D03*
D12*
X165625000Y-120075000D03*
X165625000Y-117125000D03*
%TD*%
D11*
%TO.C,J1*%
X167150000Y-126200000D03*
D12*
X165625000Y-127675000D03*
X165625000Y-124725000D03*
%TD*%
D11*
%TO.C,J1*%
X167150000Y-133800000D03*
D12*
X165625000Y-135275000D03*
X165625000Y-132325000D03*
%TD*%
D11*
%TO.C,J1*%
X167150000Y-141400000D03*
D12*
X165625000Y-142875000D03*
X165625000Y-139925000D03*
%TD*%
D11*
%TO.C,J1*%
X167150000Y-149000000D03*
D12*
X165625000Y-150475000D03*
X165625000Y-147525000D03*
%TD*%
D11*
%TO.C,J1*%
X167150000Y-156600000D03*
D12*
X165625000Y-158075000D03*
X165625000Y-155125000D03*
%TD*%
D11*
%TO.C,J1*%
X167150000Y-164200000D03*
D12*
X165625000Y-165675000D03*
X165625000Y-162725000D03*
%TD*%
D11*
%TO.C,J1*%
X167150000Y-171800000D03*
D12*
X165625000Y-173275000D03*
X165625000Y-170325000D03*
%TD*%
D11*
%TO.C,J1*%
X167150000Y-179400000D03*
D12*
X165625000Y-180875000D03*
X165625000Y-177925000D03*
%TD*%
M02*
