%TF.GenerationSoftware,KiCad,Pcbnew,6.0.7-f9a2dced07~116~ubuntu20.04.1*%
%TF.CreationDate,2022-10-06T22:18:55-07:00*%
%TF.ProjectId,test-amp,74657374-2d61-46d7-902e-6b696361645f,rev?*%
%TF.SameCoordinates,Original*%
%TF.FileFunction,Copper,L4,Bot*%
%TF.FilePolarity,Positive*%
%FSLAX46Y46*%
G04 Gerber Fmt 4.6, Leading zero omitted, Abs format (unit mm)*
G04 Created by KiCad (PCBNEW 6.0.7-f9a2dced07~116~ubuntu20.04.1) date 2022-10-06 22:18:55*
%MOMM*%
%LPD*%
G01*
G04 APERTURE LIST*
G04 Aperture macros list*
%AMRoundRect*
0 Rectangle with rounded corners*
0 $1 Rounding radius*
0 $2 $3 $4 $5 $6 $7 $8 $9 X,Y pos of 4 corners*
0 Add a 4 corners polygon primitive as box body*
4,1,4,$2,$3,$4,$5,$6,$7,$8,$9,$2,$3,0*
0 Add four circle primitives for the rounded corners*
1,1,$1+$1,$2,$3*
1,1,$1+$1,$4,$5*
1,1,$1+$1,$6,$7*
1,1,$1+$1,$8,$9*
0 Add four rect primitives between the rounded corners*
20,1,$1+$1,$2,$3,$4,$5,0*
20,1,$1+$1,$4,$5,$6,$7,0*
20,1,$1+$1,$6,$7,$8,$9,0*
20,1,$1+$1,$8,$9,$2,$3,0*%
G04 Aperture macros list end*
%TA.AperFunction,ComponentPad*%
%ADD10C,2.000000*%
%TD*%
%TA.AperFunction,SMDPad,CuDef*%
%ADD11R,4.500000X2.000000*%
%TD*%
%TA.AperFunction,ComponentPad*%
%ADD12C,6.400000*%
%TD*%
%TA.AperFunction,ComponentPad*%
%ADD13C,0.800000*%
%TD*%
%TA.AperFunction,ComponentPad*%
%ADD14RoundRect,0.250000X-0.600000X-0.725000X0.600000X-0.725000X0.600000X0.725000X-0.600000X0.725000X0*%
%TD*%
%TA.AperFunction,ComponentPad*%
%ADD15O,1.700000X1.950000*%
%TD*%
%TA.AperFunction,ComponentPad*%
%ADD16R,1.600000X1.600000*%
%TD*%
%TA.AperFunction,ComponentPad*%
%ADD17C,1.600000*%
%TD*%
%TA.AperFunction,ViaPad*%
%ADD18C,0.600000*%
%TD*%
G04 APERTURE END LIST*
D10*
%TO.P,TP10,1,1*%
%TO.N,VSS*%
X186250000Y-119000000D03*
%TD*%
%TO.P,TP9,1,1*%
%TO.N,VDD*%
X164750000Y-121250000D03*
%TD*%
%TO.P,TP8,1,1*%
%TO.N,Net-(R12-Pad1)*%
X190750000Y-96000000D03*
%TD*%
%TO.P,TP7,1,1*%
%TO.N,GND*%
X195750000Y-85650000D03*
%TD*%
%TO.P,TP6,1,1*%
%TO.N,GND*%
X152950000Y-86050000D03*
%TD*%
%TO.P,TP5,1,1*%
%TO.N,GND*%
X196500000Y-110750000D03*
%TD*%
%TO.P,TP4,1,1*%
%TO.N,GND*%
X151750000Y-113500000D03*
%TD*%
%TO.P,TP3,1,1*%
%TO.N,Net-(C14-Pad2)*%
X174250000Y-87000000D03*
%TD*%
%TO.P,TP2,1,1*%
%TO.N,Net-(C15-Pad1)*%
X180750000Y-106500000D03*
%TD*%
%TO.P,TP1,1,1*%
%TO.N,Net-(C10-Pad1)*%
X158000000Y-94000000D03*
%TD*%
D11*
%TO.P,J7,2,Ext*%
%TO.N,GND*%
X197500000Y-102975000D03*
X197500000Y-97025000D03*
%TD*%
D12*
%TO.P,J6,1*%
%TO.N,GND*%
X195500000Y-120500000D03*
D13*
X198000000Y-120500000D03*
X197250000Y-118750000D03*
X195500000Y-118000000D03*
X193000000Y-120500000D03*
X195500000Y-123000000D03*
X193750000Y-122250000D03*
X193750000Y-118750000D03*
X197250000Y-122250000D03*
%TD*%
D12*
%TO.P,J5,1*%
%TO.N,GND*%
X154500000Y-120500000D03*
D13*
X157000000Y-120500000D03*
X156250000Y-118750000D03*
X154500000Y-118000000D03*
X152000000Y-120500000D03*
X154500000Y-123000000D03*
X152750000Y-122250000D03*
X152750000Y-118750000D03*
X156250000Y-122250000D03*
%TD*%
D12*
%TO.P,J4,1*%
%TO.N,GND*%
X195500000Y-79500000D03*
D13*
X198000000Y-79500000D03*
X197250000Y-77750000D03*
X195500000Y-77000000D03*
X193000000Y-79500000D03*
X195500000Y-82000000D03*
X193750000Y-81250000D03*
X193750000Y-77750000D03*
X197250000Y-81250000D03*
%TD*%
D12*
%TO.P,J3,1*%
%TO.N,GND*%
X154500000Y-79500000D03*
D13*
X157000000Y-79500000D03*
X156250000Y-77750000D03*
X154500000Y-77000000D03*
X152000000Y-79500000D03*
X154500000Y-82000000D03*
X152750000Y-81250000D03*
X152750000Y-77750000D03*
X156250000Y-81250000D03*
%TD*%
D14*
%TO.P,J2,1,Pin_1*%
%TO.N,Net-(FB1-Pad2)*%
X172500000Y-120750000D03*
D15*
%TO.P,J2,2,Pin_2*%
%TO.N,GND*%
X175000000Y-120750000D03*
%TO.P,J2,3,Pin_3*%
%TO.N,Net-(FB2-Pad1)*%
X177500000Y-120750000D03*
%TD*%
D11*
%TO.P,J1,2,Ext*%
%TO.N,GND*%
X152500000Y-97025000D03*
X152500000Y-102975000D03*
%TD*%
D16*
%TO.P,C2,1*%
%TO.N,GND*%
X188902651Y-112250000D03*
D17*
%TO.P,C2,2*%
%TO.N,VSS*%
X185402651Y-112250000D03*
%TD*%
D16*
%TO.P,C1,1*%
%TO.N,VDD*%
X163902651Y-112250000D03*
D17*
%TO.P,C1,2*%
%TO.N,GND*%
X160402651Y-112250000D03*
%TD*%
D18*
%TO.N,Net-(J1-Pad1)*%
X153100000Y-100000000D03*
X154350000Y-100000000D03*
X151750000Y-100000000D03*
%TO.N,GND*%
X158000000Y-97000000D03*
X165000000Y-92000000D03*
X178000000Y-107000000D03*
X175000000Y-107000000D03*
X168000000Y-108000000D03*
X164000000Y-106000000D03*
X194000000Y-115000000D03*
X182000000Y-116000000D03*
X168000000Y-117000000D03*
X161000000Y-119000000D03*
X180000000Y-81000000D03*
X165000000Y-82000000D03*
X171000000Y-84000000D03*
X165000000Y-89000000D03*
X156000000Y-88000000D03*
X152000000Y-93000000D03*
X155000000Y-106000000D03*
X158000000Y-103000000D03*
X193000000Y-108000000D03*
X191000000Y-103000000D03*
X187000000Y-104000000D03*
X186000000Y-85000000D03*
X189000000Y-79000000D03*
X197000000Y-94000000D03*
X194000000Y-92000000D03*
X189000000Y-88000000D03*
X162500000Y-90000000D03*
X166850000Y-93900000D03*
X166850000Y-89650000D03*
%TO.N,VSS*%
X179900000Y-110250000D03*
X178950000Y-108900000D03*
%TO.N,GND*%
X176000000Y-111550000D03*
X174000000Y-111500000D03*
%TO.N,VDD*%
X171000000Y-108950000D03*
X170050000Y-110250000D03*
%TO.N,GND*%
X176000000Y-108900000D03*
X174000000Y-108900000D03*
%TO.N,Net-(C14-Pad2)*%
X179600000Y-95450000D03*
X170600000Y-103250000D03*
%TO.N,Net-(C10-Pad1)*%
X169500000Y-97800000D03*
%TO.N,GND*%
X170700000Y-101750000D03*
X170700000Y-96000000D03*
X168500000Y-95450000D03*
%TO.N,VSS*%
X163450000Y-100500000D03*
%TO.N,VDD*%
X167100000Y-100500000D03*
%TO.N,GND*%
X164250000Y-102800000D03*
X166250000Y-102800000D03*
X168500000Y-101800000D03*
X183700000Y-96250000D03*
X186800000Y-92750000D03*
X186800000Y-91000000D03*
X198500000Y-103000000D03*
X196500000Y-103000000D03*
X197500000Y-103000000D03*
X198500000Y-97000000D03*
X196500000Y-97000000D03*
X197500000Y-97000000D03*
X154000000Y-103000000D03*
X151250000Y-103000000D03*
X152500000Y-103000000D03*
X154000000Y-97000000D03*
X152500000Y-97000000D03*
X151250000Y-97000000D03*
X167450000Y-105000000D03*
X173850000Y-105000000D03*
X179450000Y-97500000D03*
%TO.N,VDD*%
X182550000Y-97500000D03*
%TO.N,GND*%
X182550000Y-102900000D03*
X178050000Y-104500000D03*
%TO.N,VSS*%
X174950000Y-104500000D03*
%TO.N,GND*%
X179450000Y-88750000D03*
%TO.N,VDD*%
X182550000Y-88750000D03*
%TO.N,GND*%
X178050000Y-95750000D03*
%TO.N,VSS*%
X174950000Y-95750000D03*
%TO.N,Net-(C10-Pad1)*%
X174800000Y-92900000D03*
%TD*%
%TA.AperFunction,Conductor*%
%TO.N,VSS*%
G36*
X199625000Y-75320462D02*
G01*
X199679538Y-75375000D01*
X199699500Y-75449500D01*
X199699500Y-95575500D01*
X199679538Y-95650000D01*
X199625000Y-95704538D01*
X199550500Y-95724500D01*
X195205354Y-95724500D01*
X195179154Y-95727618D01*
X195076847Y-95773061D01*
X195067129Y-95782796D01*
X195015799Y-95834216D01*
X194997759Y-95852287D01*
X194992197Y-95864867D01*
X194992196Y-95864869D01*
X194969687Y-95915784D01*
X194952494Y-95954673D01*
X194949500Y-95980354D01*
X194949500Y-98069646D01*
X194952618Y-98095846D01*
X194998061Y-98198153D01*
X195077287Y-98277241D01*
X195089867Y-98282803D01*
X195089869Y-98282804D01*
X195169426Y-98317976D01*
X195179673Y-98322506D01*
X195194318Y-98324213D01*
X195201070Y-98325001D01*
X195201078Y-98325001D01*
X195205354Y-98325500D01*
X199550500Y-98325500D01*
X199625000Y-98345462D01*
X199679538Y-98400000D01*
X199699500Y-98474500D01*
X199699500Y-101525500D01*
X199679538Y-101600000D01*
X199625000Y-101654538D01*
X199550500Y-101674500D01*
X195205354Y-101674500D01*
X195179154Y-101677618D01*
X195076847Y-101723061D01*
X194997759Y-101802287D01*
X194952494Y-101904673D01*
X194949500Y-101930354D01*
X194949500Y-104019646D01*
X194952618Y-104045846D01*
X194998061Y-104148153D01*
X195007796Y-104157871D01*
X195047153Y-104197159D01*
X195077287Y-104227241D01*
X195089867Y-104232803D01*
X195089869Y-104232804D01*
X195169426Y-104267976D01*
X195179673Y-104272506D01*
X195194318Y-104274213D01*
X195201070Y-104275001D01*
X195201078Y-104275001D01*
X195205354Y-104275500D01*
X199550500Y-104275500D01*
X199625000Y-104295462D01*
X199679538Y-104350000D01*
X199699500Y-104424500D01*
X199699500Y-124550500D01*
X199679538Y-124625000D01*
X199625000Y-124679538D01*
X199550500Y-124699500D01*
X150449500Y-124699500D01*
X150375000Y-124679538D01*
X150320462Y-124625000D01*
X150300500Y-124550500D01*
X150300500Y-120500000D01*
X150994696Y-120500000D01*
X151013898Y-120866404D01*
X151071295Y-121228794D01*
X151087446Y-121289069D01*
X151149920Y-121522224D01*
X151166258Y-121583199D01*
X151297745Y-121925736D01*
X151299514Y-121929208D01*
X151299515Y-121929210D01*
X151348685Y-122025710D01*
X151464318Y-122252652D01*
X151466445Y-122255928D01*
X151466446Y-122255929D01*
X151648089Y-122535635D01*
X151664149Y-122560366D01*
X151895051Y-122845506D01*
X152154494Y-123104949D01*
X152439634Y-123335851D01*
X152747348Y-123535682D01*
X152750822Y-123537452D01*
X152750827Y-123537455D01*
X153070790Y-123700485D01*
X153074264Y-123702255D01*
X153416801Y-123833742D01*
X153420563Y-123834750D01*
X153420569Y-123834752D01*
X153578376Y-123877036D01*
X153771206Y-123928705D01*
X154133596Y-123986102D01*
X154137483Y-123986306D01*
X154137486Y-123986306D01*
X154496107Y-124005100D01*
X154500000Y-124005304D01*
X154503893Y-124005100D01*
X154862514Y-123986306D01*
X154862517Y-123986306D01*
X154866404Y-123986102D01*
X155228794Y-123928705D01*
X155421624Y-123877036D01*
X155579431Y-123834752D01*
X155579437Y-123834750D01*
X155583199Y-123833742D01*
X155925736Y-123702255D01*
X155929210Y-123700485D01*
X156249173Y-123537455D01*
X156249178Y-123537452D01*
X156252652Y-123535682D01*
X156560366Y-123335851D01*
X156845506Y-123104949D01*
X157104949Y-122845506D01*
X157335851Y-122560366D01*
X157351912Y-122535635D01*
X157533554Y-122255929D01*
X157533555Y-122255928D01*
X157535682Y-122252652D01*
X157651316Y-122025710D01*
X157700485Y-121929210D01*
X157700486Y-121929208D01*
X157702255Y-121925736D01*
X157833742Y-121583199D01*
X157850081Y-121522224D01*
X157912554Y-121289069D01*
X157923023Y-121250000D01*
X163444532Y-121250000D01*
X163445099Y-121256481D01*
X163455813Y-121378938D01*
X163464365Y-121476692D01*
X163466046Y-121482966D01*
X163466047Y-121482971D01*
X163492903Y-121583199D01*
X163523261Y-121696496D01*
X163526009Y-121702389D01*
X163616683Y-121896840D01*
X163616686Y-121896845D01*
X163619432Y-121902734D01*
X163749953Y-122089139D01*
X163910861Y-122250047D01*
X164097266Y-122380568D01*
X164103155Y-122383314D01*
X164103160Y-122383317D01*
X164287594Y-122469320D01*
X164303504Y-122476739D01*
X164309785Y-122478422D01*
X164517029Y-122533953D01*
X164517034Y-122533954D01*
X164523308Y-122535635D01*
X164529779Y-122536201D01*
X164529784Y-122536202D01*
X164743519Y-122554901D01*
X164750000Y-122555468D01*
X164756481Y-122554901D01*
X164970216Y-122536202D01*
X164970221Y-122536201D01*
X164976692Y-122535635D01*
X164982966Y-122533954D01*
X164982971Y-122533953D01*
X165190215Y-122478422D01*
X165196496Y-122476739D01*
X165212406Y-122469320D01*
X165396840Y-122383317D01*
X165396845Y-122383314D01*
X165402734Y-122380568D01*
X165589139Y-122250047D01*
X165750047Y-122089139D01*
X165880568Y-121902734D01*
X165883314Y-121896845D01*
X165883317Y-121896840D01*
X165973991Y-121702389D01*
X165976739Y-121696496D01*
X166007097Y-121583199D01*
X166024628Y-121517772D01*
X171349500Y-121517772D01*
X171360364Y-121607547D01*
X171415887Y-121747783D01*
X171507078Y-121867922D01*
X171627217Y-121959113D01*
X171767453Y-122014636D01*
X171857228Y-122025500D01*
X173142772Y-122025500D01*
X173232547Y-122014636D01*
X173372783Y-121959113D01*
X173492922Y-121867922D01*
X173584113Y-121747783D01*
X173639636Y-121607547D01*
X173650500Y-121517772D01*
X173650500Y-121378938D01*
X173670462Y-121304438D01*
X173725000Y-121249900D01*
X173799500Y-121229938D01*
X173874000Y-121249900D01*
X173928538Y-121304438D01*
X173933131Y-121313031D01*
X174014835Y-121478710D01*
X174018916Y-121484175D01*
X174018919Y-121484180D01*
X174111042Y-121607547D01*
X174141349Y-121648133D01*
X174296619Y-121791663D01*
X174475446Y-121904495D01*
X174481785Y-121907024D01*
X174481791Y-121907027D01*
X174621719Y-121962852D01*
X174671840Y-121982848D01*
X174678543Y-121984181D01*
X174678542Y-121984181D01*
X174872522Y-122022766D01*
X174872525Y-122022766D01*
X174879225Y-122024099D01*
X174984939Y-122025483D01*
X175083820Y-122026778D01*
X175083825Y-122026778D01*
X175090654Y-122026867D01*
X175097387Y-122025710D01*
X175097388Y-122025710D01*
X175292316Y-121992216D01*
X175292320Y-121992215D01*
X175299047Y-121991059D01*
X175497425Y-121917873D01*
X175515656Y-121907027D01*
X175673273Y-121813255D01*
X175673274Y-121813254D01*
X175679144Y-121809762D01*
X175801580Y-121702389D01*
X175832978Y-121674854D01*
X175832981Y-121674851D01*
X175838119Y-121670345D01*
X175906819Y-121583199D01*
X175964793Y-121509660D01*
X175964797Y-121509654D01*
X175969024Y-121504292D01*
X175972203Y-121498249D01*
X175972206Y-121498245D01*
X176034976Y-121378938D01*
X176067477Y-121317164D01*
X176069501Y-121310644D01*
X176069504Y-121310638D01*
X176107886Y-121187026D01*
X176149043Y-121121796D01*
X176217300Y-121085884D01*
X176294368Y-121088912D01*
X176359598Y-121130069D01*
X176393590Y-121190766D01*
X176421314Y-121289069D01*
X176514835Y-121478710D01*
X176518916Y-121484175D01*
X176518919Y-121484180D01*
X176611042Y-121607547D01*
X176641349Y-121648133D01*
X176796619Y-121791663D01*
X176975446Y-121904495D01*
X176981785Y-121907024D01*
X176981791Y-121907027D01*
X177121719Y-121962852D01*
X177171840Y-121982848D01*
X177178543Y-121984181D01*
X177178542Y-121984181D01*
X177372522Y-122022766D01*
X177372525Y-122022766D01*
X177379225Y-122024099D01*
X177484939Y-122025483D01*
X177583820Y-122026778D01*
X177583825Y-122026778D01*
X177590654Y-122026867D01*
X177597387Y-122025710D01*
X177597388Y-122025710D01*
X177792316Y-121992216D01*
X177792320Y-121992215D01*
X177799047Y-121991059D01*
X177997425Y-121917873D01*
X178015656Y-121907027D01*
X178173273Y-121813255D01*
X178173274Y-121813254D01*
X178179144Y-121809762D01*
X178301580Y-121702389D01*
X178332978Y-121674854D01*
X178332981Y-121674851D01*
X178338119Y-121670345D01*
X178406819Y-121583199D01*
X178464793Y-121509660D01*
X178464797Y-121509654D01*
X178469024Y-121504292D01*
X178472203Y-121498249D01*
X178472206Y-121498245D01*
X178534976Y-121378938D01*
X178567477Y-121317164D01*
X178607886Y-121187026D01*
X178628156Y-121121747D01*
X178628157Y-121121742D01*
X178630180Y-121115227D01*
X178633692Y-121085560D01*
X178649985Y-120947898D01*
X178649985Y-120947894D01*
X178650500Y-120943545D01*
X178650500Y-120571359D01*
X178636081Y-120414440D01*
X178625862Y-120378204D01*
X178584939Y-120233102D01*
X185381971Y-120233102D01*
X185385180Y-120238662D01*
X185558271Y-120344733D01*
X185568676Y-120350034D01*
X185777156Y-120436389D01*
X185788250Y-120439994D01*
X186007680Y-120492675D01*
X186019196Y-120494499D01*
X186244168Y-120512204D01*
X186255832Y-120512204D01*
X186410904Y-120500000D01*
X191994696Y-120500000D01*
X192013898Y-120866404D01*
X192071295Y-121228794D01*
X192087446Y-121289069D01*
X192149920Y-121522224D01*
X192166258Y-121583199D01*
X192297745Y-121925736D01*
X192299514Y-121929208D01*
X192299515Y-121929210D01*
X192348685Y-122025710D01*
X192464318Y-122252652D01*
X192466445Y-122255928D01*
X192466446Y-122255929D01*
X192648089Y-122535635D01*
X192664149Y-122560366D01*
X192895051Y-122845506D01*
X193154494Y-123104949D01*
X193439634Y-123335851D01*
X193747348Y-123535682D01*
X193750822Y-123537452D01*
X193750827Y-123537455D01*
X194070790Y-123700485D01*
X194074264Y-123702255D01*
X194416801Y-123833742D01*
X194420563Y-123834750D01*
X194420569Y-123834752D01*
X194578376Y-123877036D01*
X194771206Y-123928705D01*
X195133596Y-123986102D01*
X195137483Y-123986306D01*
X195137486Y-123986306D01*
X195496107Y-124005100D01*
X195500000Y-124005304D01*
X195503893Y-124005100D01*
X195862514Y-123986306D01*
X195862517Y-123986306D01*
X195866404Y-123986102D01*
X196228794Y-123928705D01*
X196421624Y-123877036D01*
X196579431Y-123834752D01*
X196579437Y-123834750D01*
X196583199Y-123833742D01*
X196925736Y-123702255D01*
X196929210Y-123700485D01*
X197249173Y-123537455D01*
X197249178Y-123537452D01*
X197252652Y-123535682D01*
X197560366Y-123335851D01*
X197845506Y-123104949D01*
X198104949Y-122845506D01*
X198335851Y-122560366D01*
X198351912Y-122535635D01*
X198533554Y-122255929D01*
X198533555Y-122255928D01*
X198535682Y-122252652D01*
X198651316Y-122025710D01*
X198700485Y-121929210D01*
X198700486Y-121929208D01*
X198702255Y-121925736D01*
X198833742Y-121583199D01*
X198850081Y-121522224D01*
X198912554Y-121289069D01*
X198928705Y-121228794D01*
X198986102Y-120866404D01*
X199005304Y-120500000D01*
X198992441Y-120254549D01*
X198986306Y-120137486D01*
X198986306Y-120137483D01*
X198986102Y-120133596D01*
X198928705Y-119771206D01*
X198861309Y-119519683D01*
X198834752Y-119420569D01*
X198834750Y-119420563D01*
X198833742Y-119416801D01*
X198702255Y-119074264D01*
X198667387Y-119005832D01*
X198537455Y-118750827D01*
X198537452Y-118750822D01*
X198535682Y-118747348D01*
X198335851Y-118439634D01*
X198318894Y-118418693D01*
X198107399Y-118157520D01*
X198104949Y-118154494D01*
X197845506Y-117895051D01*
X197560366Y-117664149D01*
X197470335Y-117605682D01*
X197255929Y-117466446D01*
X197255928Y-117466445D01*
X197252652Y-117464318D01*
X197249178Y-117462548D01*
X197249173Y-117462545D01*
X196929210Y-117299515D01*
X196929208Y-117299514D01*
X196925736Y-117297745D01*
X196583199Y-117166258D01*
X196579437Y-117165250D01*
X196579431Y-117165248D01*
X196421624Y-117122964D01*
X196228794Y-117071295D01*
X195866404Y-117013898D01*
X195862517Y-117013694D01*
X195862514Y-117013694D01*
X195503893Y-116994900D01*
X195500000Y-116994696D01*
X195496107Y-116994900D01*
X195137486Y-117013694D01*
X195137483Y-117013694D01*
X195133596Y-117013898D01*
X194771206Y-117071295D01*
X194578376Y-117122964D01*
X194420569Y-117165248D01*
X194420563Y-117165250D01*
X194416801Y-117166258D01*
X194074264Y-117297745D01*
X194070792Y-117299514D01*
X194070790Y-117299515D01*
X193750827Y-117462545D01*
X193750822Y-117462548D01*
X193747348Y-117464318D01*
X193744072Y-117466445D01*
X193744071Y-117466446D01*
X193529666Y-117605682D01*
X193439634Y-117664149D01*
X193154494Y-117895051D01*
X192895051Y-118154494D01*
X192892601Y-118157520D01*
X192681107Y-118418693D01*
X192664149Y-118439634D01*
X192464318Y-118747348D01*
X192462548Y-118750822D01*
X192462545Y-118750827D01*
X192332613Y-119005832D01*
X192297745Y-119074264D01*
X192166258Y-119416801D01*
X192165250Y-119420563D01*
X192165248Y-119420569D01*
X192138691Y-119519683D01*
X192071295Y-119771206D01*
X192013898Y-120133596D01*
X192013694Y-120137483D01*
X192013694Y-120137486D01*
X192007559Y-120254549D01*
X191994696Y-120500000D01*
X186410904Y-120500000D01*
X186480804Y-120494499D01*
X186492320Y-120492675D01*
X186711750Y-120439994D01*
X186722844Y-120436389D01*
X186931324Y-120350034D01*
X186941729Y-120344733D01*
X187107168Y-120243351D01*
X187118192Y-120231734D01*
X187116368Y-120225578D01*
X186263871Y-119373081D01*
X186250000Y-119365073D01*
X186236129Y-119373081D01*
X185389979Y-120219231D01*
X185381971Y-120233102D01*
X178584939Y-120233102D01*
X178580542Y-120217512D01*
X178578686Y-120210931D01*
X178485165Y-120021290D01*
X178481084Y-120015825D01*
X178481081Y-120015820D01*
X178362739Y-119857341D01*
X178362737Y-119857339D01*
X178358651Y-119851867D01*
X178203381Y-119708337D01*
X178024554Y-119595505D01*
X178018215Y-119592976D01*
X178018209Y-119592973D01*
X177834504Y-119519683D01*
X177828160Y-119517152D01*
X177773713Y-119506322D01*
X177627478Y-119477234D01*
X177627475Y-119477234D01*
X177620775Y-119475901D01*
X177513762Y-119474500D01*
X177416180Y-119473222D01*
X177416175Y-119473222D01*
X177409346Y-119473133D01*
X177402613Y-119474290D01*
X177402612Y-119474290D01*
X177207684Y-119507784D01*
X177207680Y-119507785D01*
X177200953Y-119508941D01*
X177002575Y-119582127D01*
X176996702Y-119585621D01*
X176918615Y-119632078D01*
X176820856Y-119690238D01*
X176788641Y-119718489D01*
X176667022Y-119825146D01*
X176667019Y-119825149D01*
X176661881Y-119829655D01*
X176612375Y-119892453D01*
X176535207Y-119990340D01*
X176535203Y-119990346D01*
X176530976Y-119995708D01*
X176527797Y-120001751D01*
X176527794Y-120001755D01*
X176514295Y-120027413D01*
X176432523Y-120182836D01*
X176430499Y-120189356D01*
X176430496Y-120189362D01*
X176392114Y-120312974D01*
X176350957Y-120378204D01*
X176282700Y-120414116D01*
X176205632Y-120411088D01*
X176140402Y-120369931D01*
X176106410Y-120309234D01*
X176080542Y-120217512D01*
X176078686Y-120210931D01*
X175985165Y-120021290D01*
X175981084Y-120015825D01*
X175981081Y-120015820D01*
X175862739Y-119857341D01*
X175862737Y-119857339D01*
X175858651Y-119851867D01*
X175703381Y-119708337D01*
X175524554Y-119595505D01*
X175518215Y-119592976D01*
X175518209Y-119592973D01*
X175334504Y-119519683D01*
X175328160Y-119517152D01*
X175273713Y-119506322D01*
X175127478Y-119477234D01*
X175127475Y-119477234D01*
X175120775Y-119475901D01*
X175013762Y-119474500D01*
X174916180Y-119473222D01*
X174916175Y-119473222D01*
X174909346Y-119473133D01*
X174902613Y-119474290D01*
X174902612Y-119474290D01*
X174707684Y-119507784D01*
X174707680Y-119507785D01*
X174700953Y-119508941D01*
X174502575Y-119582127D01*
X174496702Y-119585621D01*
X174418615Y-119632078D01*
X174320856Y-119690238D01*
X174288641Y-119718489D01*
X174167022Y-119825146D01*
X174167019Y-119825149D01*
X174161881Y-119829655D01*
X174112375Y-119892453D01*
X174035207Y-119990340D01*
X174035203Y-119990346D01*
X174030976Y-119995708D01*
X174027797Y-120001751D01*
X174027794Y-120001755D01*
X173932523Y-120182836D01*
X173930602Y-120181825D01*
X173890198Y-120234474D01*
X173818939Y-120263985D01*
X173742472Y-120253914D01*
X173681285Y-120206957D01*
X173651774Y-120135698D01*
X173650500Y-120116259D01*
X173650500Y-119982228D01*
X173639636Y-119892453D01*
X173584113Y-119752217D01*
X173492922Y-119632078D01*
X173372783Y-119540887D01*
X173232547Y-119485364D01*
X173142772Y-119474500D01*
X171857228Y-119474500D01*
X171767453Y-119485364D01*
X171627217Y-119540887D01*
X171507078Y-119632078D01*
X171415887Y-119752217D01*
X171360364Y-119892453D01*
X171349500Y-119982228D01*
X171349500Y-121517772D01*
X166024628Y-121517772D01*
X166033953Y-121482971D01*
X166033954Y-121482966D01*
X166035635Y-121476692D01*
X166044188Y-121378938D01*
X166054901Y-121256481D01*
X166055468Y-121250000D01*
X166050286Y-121190766D01*
X166036202Y-121029784D01*
X166036201Y-121029779D01*
X166035635Y-121023308D01*
X165976739Y-120803504D01*
X165969320Y-120787594D01*
X165883317Y-120603160D01*
X165883314Y-120603155D01*
X165880568Y-120597266D01*
X165750047Y-120410861D01*
X165589139Y-120249953D01*
X165402734Y-120119432D01*
X165396845Y-120116686D01*
X165396840Y-120116683D01*
X165202389Y-120026009D01*
X165196496Y-120023261D01*
X165168726Y-120015820D01*
X164982971Y-119966047D01*
X164982966Y-119966046D01*
X164976692Y-119964365D01*
X164970221Y-119963799D01*
X164970216Y-119963798D01*
X164756481Y-119945099D01*
X164750000Y-119944532D01*
X164743519Y-119945099D01*
X164529784Y-119963798D01*
X164529779Y-119963799D01*
X164523308Y-119964365D01*
X164517034Y-119966046D01*
X164517029Y-119966047D01*
X164331274Y-120015820D01*
X164303504Y-120023261D01*
X164297611Y-120026009D01*
X164103160Y-120116683D01*
X164103155Y-120116686D01*
X164097266Y-120119432D01*
X163910861Y-120249953D01*
X163749953Y-120410861D01*
X163619432Y-120597266D01*
X163616686Y-120603155D01*
X163616683Y-120603160D01*
X163530680Y-120787594D01*
X163523261Y-120803504D01*
X163464365Y-121023308D01*
X163463799Y-121029779D01*
X163463798Y-121029784D01*
X163449714Y-121190766D01*
X163444532Y-121250000D01*
X157923023Y-121250000D01*
X157928705Y-121228794D01*
X157986102Y-120866404D01*
X158005304Y-120500000D01*
X157992441Y-120254549D01*
X157986306Y-120137486D01*
X157986306Y-120137483D01*
X157986102Y-120133596D01*
X157928705Y-119771206D01*
X157861309Y-119519683D01*
X157834752Y-119420569D01*
X157834750Y-119420563D01*
X157833742Y-119416801D01*
X157702255Y-119074264D01*
X157667387Y-119005832D01*
X157664415Y-119000000D01*
X160394318Y-119000000D01*
X160414956Y-119156762D01*
X160475464Y-119302841D01*
X160571718Y-119428282D01*
X160697159Y-119524536D01*
X160706182Y-119528274D01*
X160706183Y-119528274D01*
X160751459Y-119547028D01*
X160843238Y-119585044D01*
X160852919Y-119586319D01*
X160852921Y-119586319D01*
X160990315Y-119604407D01*
X161000000Y-119605682D01*
X161009685Y-119604407D01*
X161147079Y-119586319D01*
X161147081Y-119586319D01*
X161156762Y-119585044D01*
X161248541Y-119547028D01*
X161293817Y-119528274D01*
X161293818Y-119528274D01*
X161302841Y-119524536D01*
X161428282Y-119428282D01*
X161524536Y-119302841D01*
X161585044Y-119156762D01*
X161604914Y-119005832D01*
X184737796Y-119005832D01*
X184755501Y-119230804D01*
X184757325Y-119242320D01*
X184810006Y-119461750D01*
X184813611Y-119472844D01*
X184899966Y-119681324D01*
X184905267Y-119691729D01*
X185006649Y-119857168D01*
X185018266Y-119868192D01*
X185024422Y-119866368D01*
X185876919Y-119013871D01*
X185884927Y-119000000D01*
X186615073Y-119000000D01*
X186623081Y-119013871D01*
X187469231Y-119860021D01*
X187483102Y-119868029D01*
X187488662Y-119864820D01*
X187594733Y-119691729D01*
X187600034Y-119681324D01*
X187686389Y-119472844D01*
X187689994Y-119461750D01*
X187742675Y-119242320D01*
X187744499Y-119230804D01*
X187762204Y-119005832D01*
X187762204Y-118994168D01*
X187744499Y-118769196D01*
X187742675Y-118757680D01*
X187689994Y-118538250D01*
X187686389Y-118527156D01*
X187600034Y-118318676D01*
X187594733Y-118308271D01*
X187493351Y-118142832D01*
X187481734Y-118131808D01*
X187475578Y-118133632D01*
X186623081Y-118986129D01*
X186615073Y-119000000D01*
X185884927Y-119000000D01*
X185876919Y-118986129D01*
X185030769Y-118139979D01*
X185016898Y-118131971D01*
X185011338Y-118135180D01*
X184905267Y-118308271D01*
X184899966Y-118318676D01*
X184813611Y-118527156D01*
X184810006Y-118538250D01*
X184757325Y-118757680D01*
X184755501Y-118769196D01*
X184737796Y-118994168D01*
X184737796Y-119005832D01*
X161604914Y-119005832D01*
X161605682Y-119000000D01*
X161585044Y-118843238D01*
X161524536Y-118697159D01*
X161428282Y-118571718D01*
X161302841Y-118475464D01*
X161224247Y-118442909D01*
X161165784Y-118418693D01*
X161156762Y-118414956D01*
X161147081Y-118413681D01*
X161147079Y-118413681D01*
X161009685Y-118395593D01*
X161000000Y-118394318D01*
X160990315Y-118395593D01*
X160852921Y-118413681D01*
X160852919Y-118413681D01*
X160843238Y-118414956D01*
X160834216Y-118418693D01*
X160775754Y-118442909D01*
X160697159Y-118475464D01*
X160571718Y-118571718D01*
X160475464Y-118697159D01*
X160414956Y-118843238D01*
X160394318Y-119000000D01*
X157664415Y-119000000D01*
X157537455Y-118750827D01*
X157537452Y-118750822D01*
X157535682Y-118747348D01*
X157335851Y-118439634D01*
X157318894Y-118418693D01*
X157107399Y-118157520D01*
X157104949Y-118154494D01*
X156845506Y-117895051D01*
X156688940Y-117768266D01*
X185381808Y-117768266D01*
X185383632Y-117774422D01*
X186236129Y-118626919D01*
X186250000Y-118634927D01*
X186263871Y-118626919D01*
X187110021Y-117780769D01*
X187118029Y-117766898D01*
X187114820Y-117761338D01*
X186941729Y-117655267D01*
X186931324Y-117649966D01*
X186722844Y-117563611D01*
X186711750Y-117560006D01*
X186492320Y-117507325D01*
X186480804Y-117505501D01*
X186255832Y-117487796D01*
X186244168Y-117487796D01*
X186019196Y-117505501D01*
X186007680Y-117507325D01*
X185788250Y-117560006D01*
X185777156Y-117563611D01*
X185568676Y-117649966D01*
X185558271Y-117655267D01*
X185392832Y-117756649D01*
X185381808Y-117768266D01*
X156688940Y-117768266D01*
X156560366Y-117664149D01*
X156470335Y-117605682D01*
X156255929Y-117466446D01*
X156255928Y-117466445D01*
X156252652Y-117464318D01*
X156249178Y-117462548D01*
X156249173Y-117462545D01*
X155929210Y-117299515D01*
X155929208Y-117299514D01*
X155925736Y-117297745D01*
X155583199Y-117166258D01*
X155579437Y-117165250D01*
X155579431Y-117165248D01*
X155421624Y-117122964D01*
X155228794Y-117071295D01*
X154866404Y-117013898D01*
X154862517Y-117013694D01*
X154862514Y-117013694D01*
X154601210Y-117000000D01*
X167394318Y-117000000D01*
X167414956Y-117156762D01*
X167475464Y-117302841D01*
X167571718Y-117428282D01*
X167697159Y-117524536D01*
X167843238Y-117585044D01*
X167852919Y-117586319D01*
X167852921Y-117586319D01*
X167990315Y-117604407D01*
X168000000Y-117605682D01*
X168009685Y-117604407D01*
X168147079Y-117586319D01*
X168147081Y-117586319D01*
X168156762Y-117585044D01*
X168302841Y-117524536D01*
X168428282Y-117428282D01*
X168524536Y-117302841D01*
X168585044Y-117156762D01*
X168605682Y-117000000D01*
X168585044Y-116843238D01*
X168524536Y-116697159D01*
X168428282Y-116571718D01*
X168302841Y-116475464D01*
X168156762Y-116414956D01*
X168147081Y-116413681D01*
X168147079Y-116413681D01*
X168009685Y-116395593D01*
X168000000Y-116394318D01*
X167990315Y-116395593D01*
X167852921Y-116413681D01*
X167852919Y-116413681D01*
X167843238Y-116414956D01*
X167697159Y-116475464D01*
X167571718Y-116571718D01*
X167475464Y-116697159D01*
X167414956Y-116843238D01*
X167394318Y-117000000D01*
X154601210Y-117000000D01*
X154503893Y-116994900D01*
X154500000Y-116994696D01*
X154496107Y-116994900D01*
X154137486Y-117013694D01*
X154137483Y-117013694D01*
X154133596Y-117013898D01*
X153771206Y-117071295D01*
X153578376Y-117122964D01*
X153420569Y-117165248D01*
X153420563Y-117165250D01*
X153416801Y-117166258D01*
X153074264Y-117297745D01*
X153070792Y-117299514D01*
X153070790Y-117299515D01*
X152750827Y-117462545D01*
X152750822Y-117462548D01*
X152747348Y-117464318D01*
X152744072Y-117466445D01*
X152744071Y-117466446D01*
X152529666Y-117605682D01*
X152439634Y-117664149D01*
X152154494Y-117895051D01*
X151895051Y-118154494D01*
X151892601Y-118157520D01*
X151681107Y-118418693D01*
X151664149Y-118439634D01*
X151464318Y-118747348D01*
X151462548Y-118750822D01*
X151462545Y-118750827D01*
X151332613Y-119005832D01*
X151297745Y-119074264D01*
X151166258Y-119416801D01*
X151165250Y-119420563D01*
X151165248Y-119420569D01*
X151138691Y-119519683D01*
X151071295Y-119771206D01*
X151013898Y-120133596D01*
X151013694Y-120137483D01*
X151013694Y-120137486D01*
X151007559Y-120254549D01*
X150994696Y-120500000D01*
X150300500Y-120500000D01*
X150300500Y-116000000D01*
X181394318Y-116000000D01*
X181414956Y-116156762D01*
X181475464Y-116302841D01*
X181571718Y-116428282D01*
X181697159Y-116524536D01*
X181843238Y-116585044D01*
X181852919Y-116586319D01*
X181852921Y-116586319D01*
X181990315Y-116604407D01*
X182000000Y-116605682D01*
X182009685Y-116604407D01*
X182147079Y-116586319D01*
X182147081Y-116586319D01*
X182156762Y-116585044D01*
X182302841Y-116524536D01*
X182428282Y-116428282D01*
X182524536Y-116302841D01*
X182585044Y-116156762D01*
X182605682Y-116000000D01*
X182585044Y-115843238D01*
X182524536Y-115697159D01*
X182428282Y-115571718D01*
X182302841Y-115475464D01*
X182156762Y-115414956D01*
X182147081Y-115413681D01*
X182147079Y-115413681D01*
X182009685Y-115395593D01*
X182000000Y-115394318D01*
X181990315Y-115395593D01*
X181852921Y-115413681D01*
X181852919Y-115413681D01*
X181843238Y-115414956D01*
X181697159Y-115475464D01*
X181571718Y-115571718D01*
X181475464Y-115697159D01*
X181414956Y-115843238D01*
X181394318Y-116000000D01*
X150300500Y-116000000D01*
X150300500Y-115000000D01*
X193394318Y-115000000D01*
X193414956Y-115156762D01*
X193475464Y-115302841D01*
X193571718Y-115428282D01*
X193697159Y-115524536D01*
X193843238Y-115585044D01*
X193852919Y-115586319D01*
X193852921Y-115586319D01*
X193990315Y-115604407D01*
X194000000Y-115605682D01*
X194009685Y-115604407D01*
X194147079Y-115586319D01*
X194147081Y-115586319D01*
X194156762Y-115585044D01*
X194302841Y-115524536D01*
X194428282Y-115428282D01*
X194524536Y-115302841D01*
X194585044Y-115156762D01*
X194605682Y-115000000D01*
X194585044Y-114843238D01*
X194537486Y-114728422D01*
X194528274Y-114706183D01*
X194528274Y-114706182D01*
X194524536Y-114697159D01*
X194428282Y-114571718D01*
X194302841Y-114475464D01*
X194156762Y-114414956D01*
X194147081Y-114413681D01*
X194147079Y-114413681D01*
X194009685Y-114395593D01*
X194000000Y-114394318D01*
X193990315Y-114395593D01*
X193852921Y-114413681D01*
X193852919Y-114413681D01*
X193843238Y-114414956D01*
X193697159Y-114475464D01*
X193571718Y-114571718D01*
X193475464Y-114697159D01*
X193471726Y-114706182D01*
X193471726Y-114706183D01*
X193462514Y-114728422D01*
X193414956Y-114843238D01*
X193394318Y-115000000D01*
X150300500Y-115000000D01*
X150300500Y-114140878D01*
X150320462Y-114066378D01*
X150375000Y-114011840D01*
X150449500Y-113991878D01*
X150524000Y-114011840D01*
X150578538Y-114066378D01*
X150584538Y-114077905D01*
X150619432Y-114152734D01*
X150749953Y-114339139D01*
X150910861Y-114500047D01*
X151097266Y-114630568D01*
X151103155Y-114633314D01*
X151103160Y-114633317D01*
X151223452Y-114689410D01*
X151303504Y-114726739D01*
X151309785Y-114728422D01*
X151517029Y-114783953D01*
X151517034Y-114783954D01*
X151523308Y-114785635D01*
X151529779Y-114786201D01*
X151529784Y-114786202D01*
X151743519Y-114804901D01*
X151750000Y-114805468D01*
X151756481Y-114804901D01*
X151970216Y-114786202D01*
X151970221Y-114786201D01*
X151976692Y-114785635D01*
X151982966Y-114783954D01*
X151982971Y-114783953D01*
X152190215Y-114728422D01*
X152196496Y-114726739D01*
X152276548Y-114689410D01*
X152396840Y-114633317D01*
X152396845Y-114633314D01*
X152402734Y-114630568D01*
X152589139Y-114500047D01*
X152750047Y-114339139D01*
X152880568Y-114152734D01*
X152883314Y-114146845D01*
X152883317Y-114146840D01*
X152973991Y-113952389D01*
X152976739Y-113946496D01*
X153035635Y-113726692D01*
X153055468Y-113500000D01*
X153045263Y-113383355D01*
X153036202Y-113279784D01*
X153036201Y-113279779D01*
X153035635Y-113273308D01*
X153032568Y-113261859D01*
X152978422Y-113059785D01*
X152976739Y-113053504D01*
X152964032Y-113026253D01*
X152883317Y-112853160D01*
X152883314Y-112853155D01*
X152880568Y-112847266D01*
X152750047Y-112660861D01*
X152589139Y-112499953D01*
X152402734Y-112369432D01*
X152396845Y-112366686D01*
X152396840Y-112366683D01*
X152202389Y-112276009D01*
X152196496Y-112273261D01*
X152133872Y-112256481D01*
X152001713Y-112221069D01*
X159297815Y-112221069D01*
X159300136Y-112256481D01*
X159307784Y-112373163D01*
X159311043Y-112422894D01*
X159360829Y-112618928D01*
X159363687Y-112625128D01*
X159363689Y-112625133D01*
X159400736Y-112705493D01*
X159445507Y-112802607D01*
X159562239Y-112967780D01*
X159567135Y-112972549D01*
X159567138Y-112972553D01*
X159702220Y-113104143D01*
X159707117Y-113108913D01*
X159875288Y-113221282D01*
X159881556Y-113223975D01*
X159881558Y-113223976D01*
X159902262Y-113232871D01*
X160061121Y-113301122D01*
X160258391Y-113345760D01*
X160265213Y-113346028D01*
X160453664Y-113353432D01*
X160453667Y-113353432D01*
X160460493Y-113353700D01*
X160660658Y-113324678D01*
X160852182Y-113259664D01*
X161028652Y-113160837D01*
X161108238Y-113094646D01*
X162802151Y-113094646D01*
X162805269Y-113120846D01*
X162850712Y-113223153D01*
X162860447Y-113232871D01*
X162900955Y-113273308D01*
X162929938Y-113302241D01*
X162942518Y-113307803D01*
X162942520Y-113307804D01*
X163022077Y-113342976D01*
X163032324Y-113347506D01*
X163046969Y-113349213D01*
X163053721Y-113350001D01*
X163053729Y-113350001D01*
X163058005Y-113350500D01*
X164747297Y-113350500D01*
X164773497Y-113347382D01*
X164796647Y-113337099D01*
X184680625Y-113337099D01*
X184684603Y-113343990D01*
X184740821Y-113383355D01*
X184752049Y-113389838D01*
X184947687Y-113481065D01*
X184959861Y-113485496D01*
X185168373Y-113541367D01*
X185181128Y-113543616D01*
X185396170Y-113562429D01*
X185409132Y-113562429D01*
X185624174Y-113543616D01*
X185636929Y-113541367D01*
X185845441Y-113485496D01*
X185857615Y-113481065D01*
X186053253Y-113389838D01*
X186064481Y-113383355D01*
X186114471Y-113348351D01*
X186124766Y-113336081D01*
X186122044Y-113328603D01*
X185888087Y-113094646D01*
X187802151Y-113094646D01*
X187805269Y-113120846D01*
X187850712Y-113223153D01*
X187860447Y-113232871D01*
X187900955Y-113273308D01*
X187929938Y-113302241D01*
X187942518Y-113307803D01*
X187942520Y-113307804D01*
X188022077Y-113342976D01*
X188032324Y-113347506D01*
X188046969Y-113349213D01*
X188053721Y-113350001D01*
X188053729Y-113350001D01*
X188058005Y-113350500D01*
X189747297Y-113350500D01*
X189773497Y-113347382D01*
X189875804Y-113301939D01*
X189954892Y-113222713D01*
X189982248Y-113160837D01*
X189995627Y-113130574D01*
X189995627Y-113130573D01*
X190000157Y-113120327D01*
X190003151Y-113094646D01*
X190003151Y-111405354D01*
X190000033Y-111379154D01*
X189954590Y-111276847D01*
X189875364Y-111197759D01*
X189862784Y-111192197D01*
X189862782Y-111192196D01*
X189783225Y-111157024D01*
X189783224Y-111157024D01*
X189772978Y-111152494D01*
X189758019Y-111150750D01*
X189751581Y-111149999D01*
X189751573Y-111149999D01*
X189747297Y-111149500D01*
X188058005Y-111149500D01*
X188031805Y-111152618D01*
X187929498Y-111198061D01*
X187850410Y-111277287D01*
X187844848Y-111289867D01*
X187844847Y-111289869D01*
X187809892Y-111368936D01*
X187805145Y-111379673D01*
X187803848Y-111390800D01*
X187803144Y-111396840D01*
X187802151Y-111405354D01*
X187802151Y-113094646D01*
X185888087Y-113094646D01*
X185416522Y-112623081D01*
X185402651Y-112615073D01*
X185388780Y-112623081D01*
X184688633Y-113323228D01*
X184680625Y-113337099D01*
X164796647Y-113337099D01*
X164875804Y-113301939D01*
X164954892Y-113222713D01*
X164982248Y-113160837D01*
X164995627Y-113130574D01*
X164995627Y-113130573D01*
X165000157Y-113120327D01*
X165003151Y-113094646D01*
X165003151Y-112256481D01*
X184090222Y-112256481D01*
X184109035Y-112471523D01*
X184111284Y-112484278D01*
X184167155Y-112692790D01*
X184171586Y-112704964D01*
X184262813Y-112900602D01*
X184269296Y-112911830D01*
X184304300Y-112961820D01*
X184316570Y-112972115D01*
X184324048Y-112969393D01*
X185029570Y-112263871D01*
X185037578Y-112250000D01*
X185767724Y-112250000D01*
X185775732Y-112263871D01*
X186475879Y-112964018D01*
X186489750Y-112972026D01*
X186496641Y-112968048D01*
X186536006Y-112911830D01*
X186542489Y-112900602D01*
X186633716Y-112704964D01*
X186638147Y-112692790D01*
X186694018Y-112484278D01*
X186696267Y-112471523D01*
X186715080Y-112256481D01*
X186715080Y-112243519D01*
X186696267Y-112028477D01*
X186694018Y-112015722D01*
X186638147Y-111807210D01*
X186633716Y-111795036D01*
X186542489Y-111599398D01*
X186536006Y-111588170D01*
X186501002Y-111538180D01*
X186488732Y-111527885D01*
X186481254Y-111530607D01*
X185775732Y-112236129D01*
X185767724Y-112250000D01*
X185037578Y-112250000D01*
X185029570Y-112236129D01*
X184329423Y-111535982D01*
X184315552Y-111527974D01*
X184308661Y-111531952D01*
X184269296Y-111588170D01*
X184262813Y-111599398D01*
X184171586Y-111795036D01*
X184167155Y-111807210D01*
X184111284Y-112015722D01*
X184109035Y-112028477D01*
X184090222Y-112243519D01*
X184090222Y-112256481D01*
X165003151Y-112256481D01*
X165003151Y-111500000D01*
X173394318Y-111500000D01*
X173395593Y-111509685D01*
X173413104Y-111642692D01*
X173414956Y-111656762D01*
X173418693Y-111665784D01*
X173455141Y-111753776D01*
X173475464Y-111802841D01*
X173571718Y-111928282D01*
X173697159Y-112024536D01*
X173706182Y-112028274D01*
X173706183Y-112028274D01*
X173817869Y-112074536D01*
X173843238Y-112085044D01*
X173852919Y-112086319D01*
X173852921Y-112086319D01*
X173990315Y-112104407D01*
X174000000Y-112105682D01*
X174009685Y-112104407D01*
X174147079Y-112086319D01*
X174147081Y-112086319D01*
X174156762Y-112085044D01*
X174182131Y-112074536D01*
X174293817Y-112028274D01*
X174293818Y-112028274D01*
X174302841Y-112024536D01*
X174428282Y-111928282D01*
X174524536Y-111802841D01*
X174544860Y-111753776D01*
X174581307Y-111665784D01*
X174585044Y-111656762D01*
X174586897Y-111642692D01*
X174599100Y-111550000D01*
X175394318Y-111550000D01*
X175395593Y-111559685D01*
X175407099Y-111647079D01*
X175414956Y-111706762D01*
X175418693Y-111715784D01*
X175430982Y-111745451D01*
X175475464Y-111852841D01*
X175571718Y-111978282D01*
X175697159Y-112074536D01*
X175706182Y-112078274D01*
X175706183Y-112078274D01*
X175769274Y-112104407D01*
X175843238Y-112135044D01*
X175852919Y-112136319D01*
X175852921Y-112136319D01*
X175990315Y-112154407D01*
X176000000Y-112155682D01*
X176009685Y-112154407D01*
X176147079Y-112136319D01*
X176147081Y-112136319D01*
X176156762Y-112135044D01*
X176230726Y-112104407D01*
X176293817Y-112078274D01*
X176293818Y-112078274D01*
X176302841Y-112074536D01*
X176428282Y-111978282D01*
X176524536Y-111852841D01*
X176569019Y-111745451D01*
X176581307Y-111715784D01*
X176585044Y-111706762D01*
X176592902Y-111647079D01*
X176604407Y-111559685D01*
X176605682Y-111550000D01*
X176600477Y-111510467D01*
X176586319Y-111402921D01*
X176586319Y-111402919D01*
X176585044Y-111393238D01*
X176542041Y-111289419D01*
X176528274Y-111256183D01*
X176528274Y-111256182D01*
X176524536Y-111247159D01*
X176460664Y-111163919D01*
X184680536Y-111163919D01*
X184683258Y-111171397D01*
X185388780Y-111876919D01*
X185402651Y-111884927D01*
X185416522Y-111876919D01*
X186116669Y-111176772D01*
X186124677Y-111162901D01*
X186120699Y-111156010D01*
X186064481Y-111116645D01*
X186053253Y-111110162D01*
X185857615Y-111018935D01*
X185845441Y-111014504D01*
X185636929Y-110958633D01*
X185624174Y-110956384D01*
X185409132Y-110937571D01*
X185396170Y-110937571D01*
X185181128Y-110956384D01*
X185168373Y-110958633D01*
X184959861Y-111014504D01*
X184947687Y-111018935D01*
X184752049Y-111110162D01*
X184740821Y-111116645D01*
X184690831Y-111151649D01*
X184680536Y-111163919D01*
X176460664Y-111163919D01*
X176428282Y-111121718D01*
X176302841Y-111025464D01*
X176276382Y-111014504D01*
X176165784Y-110968693D01*
X176156762Y-110964956D01*
X176147081Y-110963681D01*
X176147079Y-110963681D01*
X176009685Y-110945593D01*
X176000000Y-110944318D01*
X175990315Y-110945593D01*
X175852921Y-110963681D01*
X175852919Y-110963681D01*
X175843238Y-110964956D01*
X175834216Y-110968693D01*
X175723619Y-111014504D01*
X175697159Y-111025464D01*
X175571718Y-111121718D01*
X175475464Y-111247159D01*
X175471726Y-111256182D01*
X175471726Y-111256183D01*
X175457959Y-111289419D01*
X175414956Y-111393238D01*
X175413681Y-111402919D01*
X175413681Y-111402921D01*
X175399523Y-111510467D01*
X175394318Y-111550000D01*
X174599100Y-111550000D01*
X174604407Y-111509685D01*
X174605682Y-111500000D01*
X174593222Y-111405354D01*
X174586319Y-111352921D01*
X174586319Y-111352919D01*
X174585044Y-111343238D01*
X174524536Y-111197159D01*
X174428282Y-111071718D01*
X174302841Y-110975464D01*
X174290172Y-110970216D01*
X174165784Y-110918693D01*
X174156762Y-110914956D01*
X174147081Y-110913681D01*
X174147079Y-110913681D01*
X174009685Y-110895593D01*
X174000000Y-110894318D01*
X173990315Y-110895593D01*
X173852921Y-110913681D01*
X173852919Y-110913681D01*
X173843238Y-110914956D01*
X173834216Y-110918693D01*
X173709829Y-110970216D01*
X173697159Y-110975464D01*
X173571718Y-111071718D01*
X173475464Y-111197159D01*
X173414956Y-111343238D01*
X173413681Y-111352919D01*
X173413681Y-111352921D01*
X173406778Y-111405354D01*
X173394318Y-111500000D01*
X165003151Y-111500000D01*
X165003151Y-111405354D01*
X165000033Y-111379154D01*
X164954590Y-111276847D01*
X164875364Y-111197759D01*
X164862784Y-111192197D01*
X164862782Y-111192196D01*
X164783225Y-111157024D01*
X164783224Y-111157024D01*
X164772978Y-111152494D01*
X164758019Y-111150750D01*
X164751581Y-111149999D01*
X164751573Y-111149999D01*
X164747297Y-111149500D01*
X163058005Y-111149500D01*
X163031805Y-111152618D01*
X162929498Y-111198061D01*
X162850410Y-111277287D01*
X162844848Y-111289867D01*
X162844847Y-111289869D01*
X162809892Y-111368936D01*
X162805145Y-111379673D01*
X162803848Y-111390800D01*
X162803144Y-111396840D01*
X162802151Y-111405354D01*
X162802151Y-113094646D01*
X161108238Y-113094646D01*
X161184156Y-113031505D01*
X161313488Y-112876001D01*
X161326280Y-112853160D01*
X161408976Y-112705493D01*
X161412315Y-112699531D01*
X161477329Y-112508007D01*
X161506351Y-112307842D01*
X161507866Y-112250000D01*
X161507271Y-112243519D01*
X161489984Y-112055393D01*
X161489359Y-112048591D01*
X161434458Y-111853926D01*
X161424427Y-111833584D01*
X161348021Y-111678649D01*
X161345002Y-111672527D01*
X161340921Y-111667062D01*
X161340918Y-111667057D01*
X161228074Y-111515941D01*
X161228072Y-111515939D01*
X161223986Y-111510467D01*
X161075463Y-111373174D01*
X160904408Y-111265246D01*
X160898068Y-111262717D01*
X160898063Y-111262714D01*
X160722886Y-111192826D01*
X160722884Y-111192825D01*
X160716549Y-111190298D01*
X160518177Y-111150839D01*
X160418461Y-111149534D01*
X160322771Y-111148281D01*
X160322766Y-111148281D01*
X160315937Y-111148192D01*
X160309204Y-111149349D01*
X160309203Y-111149349D01*
X160123331Y-111181287D01*
X160123327Y-111181288D01*
X160116600Y-111182444D01*
X159926844Y-111252449D01*
X159753022Y-111355862D01*
X159600956Y-111489220D01*
X159596729Y-111494582D01*
X159596728Y-111494583D01*
X159518564Y-111593735D01*
X159475740Y-111648057D01*
X159381565Y-111827053D01*
X159321588Y-112020213D01*
X159320785Y-112026996D01*
X159320785Y-112026997D01*
X159298676Y-112213798D01*
X159297815Y-112221069D01*
X152001713Y-112221069D01*
X151982971Y-112216047D01*
X151982966Y-112216046D01*
X151976692Y-112214365D01*
X151970221Y-112213799D01*
X151970216Y-112213798D01*
X151756481Y-112195099D01*
X151750000Y-112194532D01*
X151743519Y-112195099D01*
X151529784Y-112213798D01*
X151529779Y-112213799D01*
X151523308Y-112214365D01*
X151517034Y-112216046D01*
X151517029Y-112216047D01*
X151366128Y-112256481D01*
X151303504Y-112273261D01*
X151297611Y-112276009D01*
X151103160Y-112366683D01*
X151103155Y-112366686D01*
X151097266Y-112369432D01*
X150910861Y-112499953D01*
X150749953Y-112660861D01*
X150619432Y-112847266D01*
X150608812Y-112870041D01*
X150584540Y-112922092D01*
X150534963Y-112981176D01*
X150462486Y-113007555D01*
X150386530Y-112994162D01*
X150327446Y-112944585D01*
X150301067Y-112872108D01*
X150300500Y-112859122D01*
X150300500Y-110250000D01*
X169444318Y-110250000D01*
X169464956Y-110406762D01*
X169525464Y-110552841D01*
X169621718Y-110678282D01*
X169747159Y-110774536D01*
X169893238Y-110835044D01*
X169902919Y-110836319D01*
X169902921Y-110836319D01*
X170040315Y-110854407D01*
X170050000Y-110855682D01*
X170059685Y-110854407D01*
X170197079Y-110836319D01*
X170197081Y-110836319D01*
X170206762Y-110835044D01*
X170352841Y-110774536D01*
X170384817Y-110750000D01*
X195194532Y-110750000D01*
X195195099Y-110756481D01*
X195213227Y-110963681D01*
X195214365Y-110976692D01*
X195216046Y-110982966D01*
X195216047Y-110982971D01*
X195262720Y-111157157D01*
X195273261Y-111196496D01*
X195276009Y-111202389D01*
X195366683Y-111396840D01*
X195366686Y-111396845D01*
X195369432Y-111402734D01*
X195499953Y-111589139D01*
X195660861Y-111750047D01*
X195847266Y-111880568D01*
X195853155Y-111883314D01*
X195853160Y-111883317D01*
X195949588Y-111928282D01*
X196053504Y-111976739D01*
X196059785Y-111978422D01*
X196267029Y-112033953D01*
X196267034Y-112033954D01*
X196273308Y-112035635D01*
X196279779Y-112036201D01*
X196279784Y-112036202D01*
X196493519Y-112054901D01*
X196500000Y-112055468D01*
X196506481Y-112054901D01*
X196720216Y-112036202D01*
X196720221Y-112036201D01*
X196726692Y-112035635D01*
X196732966Y-112033954D01*
X196732971Y-112033953D01*
X196940215Y-111978422D01*
X196946496Y-111976739D01*
X197050412Y-111928282D01*
X197146840Y-111883317D01*
X197146845Y-111883314D01*
X197152734Y-111880568D01*
X197339139Y-111750047D01*
X197500047Y-111589139D01*
X197630568Y-111402734D01*
X197633314Y-111396845D01*
X197633317Y-111396840D01*
X197723991Y-111202389D01*
X197726739Y-111196496D01*
X197737280Y-111157157D01*
X197783953Y-110982971D01*
X197783954Y-110982966D01*
X197785635Y-110976692D01*
X197786774Y-110963681D01*
X197804901Y-110756481D01*
X197805468Y-110750000D01*
X197799714Y-110684228D01*
X197786202Y-110529784D01*
X197786201Y-110529779D01*
X197785635Y-110523308D01*
X197726739Y-110303504D01*
X197697273Y-110240315D01*
X197633317Y-110103160D01*
X197633314Y-110103155D01*
X197630568Y-110097266D01*
X197500047Y-109910861D01*
X197339139Y-109749953D01*
X197152734Y-109619432D01*
X197146845Y-109616686D01*
X197146840Y-109616683D01*
X196952389Y-109526009D01*
X196946496Y-109523261D01*
X196876132Y-109504407D01*
X196732971Y-109466047D01*
X196732966Y-109466046D01*
X196726692Y-109464365D01*
X196720221Y-109463799D01*
X196720216Y-109463798D01*
X196506481Y-109445099D01*
X196500000Y-109444532D01*
X196493519Y-109445099D01*
X196279784Y-109463798D01*
X196279779Y-109463799D01*
X196273308Y-109464365D01*
X196267034Y-109466046D01*
X196267029Y-109466047D01*
X196123868Y-109504407D01*
X196053504Y-109523261D01*
X196047611Y-109526009D01*
X195853160Y-109616683D01*
X195853155Y-109616686D01*
X195847266Y-109619432D01*
X195660861Y-109749953D01*
X195499953Y-109910861D01*
X195369432Y-110097266D01*
X195366686Y-110103155D01*
X195366683Y-110103160D01*
X195302727Y-110240315D01*
X195273261Y-110303504D01*
X195214365Y-110523308D01*
X195213799Y-110529779D01*
X195213798Y-110529784D01*
X195200286Y-110684228D01*
X195194532Y-110750000D01*
X170384817Y-110750000D01*
X170478282Y-110678282D01*
X170574536Y-110552841D01*
X170635044Y-110406762D01*
X170655682Y-110250000D01*
X170635044Y-110093238D01*
X170574536Y-109947159D01*
X170478282Y-109821718D01*
X170352841Y-109725464D01*
X170206762Y-109664956D01*
X170197081Y-109663681D01*
X170197079Y-109663681D01*
X170059685Y-109645593D01*
X170050000Y-109644318D01*
X170040315Y-109645593D01*
X169902921Y-109663681D01*
X169902919Y-109663681D01*
X169893238Y-109664956D01*
X169747159Y-109725464D01*
X169621718Y-109821718D01*
X169525464Y-109947159D01*
X169464956Y-110093238D01*
X169444318Y-110250000D01*
X150300500Y-110250000D01*
X150300500Y-108950000D01*
X170394318Y-108950000D01*
X170395593Y-108959685D01*
X170407099Y-109047079D01*
X170414956Y-109106762D01*
X170475464Y-109252841D01*
X170571718Y-109378282D01*
X170697159Y-109474536D01*
X170706182Y-109478274D01*
X170706183Y-109478274D01*
X170834216Y-109531307D01*
X170843238Y-109535044D01*
X170852919Y-109536319D01*
X170852921Y-109536319D01*
X170990315Y-109554407D01*
X171000000Y-109555682D01*
X171009685Y-109554407D01*
X171147079Y-109536319D01*
X171147081Y-109536319D01*
X171156762Y-109535044D01*
X171165784Y-109531307D01*
X171293817Y-109478274D01*
X171293818Y-109478274D01*
X171302841Y-109474536D01*
X171428282Y-109378282D01*
X171524536Y-109252841D01*
X171585044Y-109106762D01*
X171592902Y-109047079D01*
X171604407Y-108959685D01*
X171605682Y-108950000D01*
X171604407Y-108940315D01*
X171599100Y-108900000D01*
X173394318Y-108900000D01*
X173395593Y-108909685D01*
X173400901Y-108950000D01*
X173414956Y-109056762D01*
X173475464Y-109202841D01*
X173571718Y-109328282D01*
X173697159Y-109424536D01*
X173706182Y-109428274D01*
X173706183Y-109428274D01*
X173817869Y-109474536D01*
X173843238Y-109485044D01*
X173852919Y-109486319D01*
X173852921Y-109486319D01*
X173990315Y-109504407D01*
X174000000Y-109505682D01*
X174009685Y-109504407D01*
X174147079Y-109486319D01*
X174147081Y-109486319D01*
X174156762Y-109485044D01*
X174182131Y-109474536D01*
X174293817Y-109428274D01*
X174293818Y-109428274D01*
X174302841Y-109424536D01*
X174428282Y-109328282D01*
X174524536Y-109202841D01*
X174585044Y-109056762D01*
X174599100Y-108950000D01*
X174604407Y-108909685D01*
X174605682Y-108900000D01*
X175394318Y-108900000D01*
X175395593Y-108909685D01*
X175400901Y-108950000D01*
X175414956Y-109056762D01*
X175475464Y-109202841D01*
X175571718Y-109328282D01*
X175697159Y-109424536D01*
X175706182Y-109428274D01*
X175706183Y-109428274D01*
X175817869Y-109474536D01*
X175843238Y-109485044D01*
X175852919Y-109486319D01*
X175852921Y-109486319D01*
X175990315Y-109504407D01*
X176000000Y-109505682D01*
X176009685Y-109504407D01*
X176147079Y-109486319D01*
X176147081Y-109486319D01*
X176156762Y-109485044D01*
X176182131Y-109474536D01*
X176293817Y-109428274D01*
X176293818Y-109428274D01*
X176302841Y-109424536D01*
X176428282Y-109328282D01*
X176524536Y-109202841D01*
X176585044Y-109056762D01*
X176599100Y-108950000D01*
X176604407Y-108909685D01*
X176605682Y-108900000D01*
X176604407Y-108890315D01*
X176586319Y-108752921D01*
X176586319Y-108752919D01*
X176585044Y-108743238D01*
X176524536Y-108597159D01*
X176428282Y-108471718D01*
X176302841Y-108375464D01*
X176286495Y-108368693D01*
X176165784Y-108318693D01*
X176156762Y-108314956D01*
X176147081Y-108313681D01*
X176147079Y-108313681D01*
X176009685Y-108295593D01*
X176000000Y-108294318D01*
X175990315Y-108295593D01*
X175852921Y-108313681D01*
X175852919Y-108313681D01*
X175843238Y-108314956D01*
X175834216Y-108318693D01*
X175713506Y-108368693D01*
X175697159Y-108375464D01*
X175571718Y-108471718D01*
X175475464Y-108597159D01*
X175414956Y-108743238D01*
X175413681Y-108752919D01*
X175413681Y-108752921D01*
X175395593Y-108890315D01*
X175394318Y-108900000D01*
X174605682Y-108900000D01*
X174604407Y-108890315D01*
X174586319Y-108752921D01*
X174586319Y-108752919D01*
X174585044Y-108743238D01*
X174524536Y-108597159D01*
X174428282Y-108471718D01*
X174302841Y-108375464D01*
X174286495Y-108368693D01*
X174165784Y-108318693D01*
X174156762Y-108314956D01*
X174147081Y-108313681D01*
X174147079Y-108313681D01*
X174009685Y-108295593D01*
X174000000Y-108294318D01*
X173990315Y-108295593D01*
X173852921Y-108313681D01*
X173852919Y-108313681D01*
X173843238Y-108314956D01*
X173834216Y-108318693D01*
X173713506Y-108368693D01*
X173697159Y-108375464D01*
X173571718Y-108471718D01*
X173475464Y-108597159D01*
X173414956Y-108743238D01*
X173413681Y-108752919D01*
X173413681Y-108752921D01*
X173395593Y-108890315D01*
X173394318Y-108900000D01*
X171599100Y-108900000D01*
X171586319Y-108802921D01*
X171586319Y-108802919D01*
X171585044Y-108793238D01*
X171524536Y-108647159D01*
X171428282Y-108521718D01*
X171302841Y-108425464D01*
X171196486Y-108381410D01*
X171165784Y-108368693D01*
X171156762Y-108364956D01*
X171147081Y-108363681D01*
X171147079Y-108363681D01*
X171009685Y-108345593D01*
X171000000Y-108344318D01*
X170990315Y-108345593D01*
X170852921Y-108363681D01*
X170852919Y-108363681D01*
X170843238Y-108364956D01*
X170834216Y-108368693D01*
X170803515Y-108381410D01*
X170697159Y-108425464D01*
X170571718Y-108521718D01*
X170475464Y-108647159D01*
X170414956Y-108793238D01*
X170413681Y-108802919D01*
X170413681Y-108802921D01*
X170395593Y-108940315D01*
X170394318Y-108950000D01*
X150300500Y-108950000D01*
X150300500Y-108000000D01*
X167394318Y-108000000D01*
X167414956Y-108156762D01*
X167475464Y-108302841D01*
X167571718Y-108428282D01*
X167697159Y-108524536D01*
X167843238Y-108585044D01*
X167852919Y-108586319D01*
X167852921Y-108586319D01*
X167990315Y-108604407D01*
X168000000Y-108605682D01*
X168009685Y-108604407D01*
X168147079Y-108586319D01*
X168147081Y-108586319D01*
X168156762Y-108585044D01*
X168302841Y-108524536D01*
X168428282Y-108428282D01*
X168524536Y-108302841D01*
X168585044Y-108156762D01*
X168605682Y-108000000D01*
X192394318Y-108000000D01*
X192414956Y-108156762D01*
X192475464Y-108302841D01*
X192571718Y-108428282D01*
X192697159Y-108524536D01*
X192843238Y-108585044D01*
X192852919Y-108586319D01*
X192852921Y-108586319D01*
X192990315Y-108604407D01*
X193000000Y-108605682D01*
X193009685Y-108604407D01*
X193147079Y-108586319D01*
X193147081Y-108586319D01*
X193156762Y-108585044D01*
X193302841Y-108524536D01*
X193428282Y-108428282D01*
X193524536Y-108302841D01*
X193585044Y-108156762D01*
X193605682Y-108000000D01*
X193585044Y-107843238D01*
X193537486Y-107728422D01*
X193528274Y-107706183D01*
X193528274Y-107706182D01*
X193524536Y-107697159D01*
X193428282Y-107571718D01*
X193302841Y-107475464D01*
X193156762Y-107414956D01*
X193147081Y-107413681D01*
X193147079Y-107413681D01*
X193009685Y-107395593D01*
X193000000Y-107394318D01*
X192990315Y-107395593D01*
X192852921Y-107413681D01*
X192852919Y-107413681D01*
X192843238Y-107414956D01*
X192697159Y-107475464D01*
X192571718Y-107571718D01*
X192475464Y-107697159D01*
X192471726Y-107706182D01*
X192471726Y-107706183D01*
X192462514Y-107728422D01*
X192414956Y-107843238D01*
X192394318Y-108000000D01*
X168605682Y-108000000D01*
X168585044Y-107843238D01*
X168537486Y-107728422D01*
X168528274Y-107706183D01*
X168528274Y-107706182D01*
X168524536Y-107697159D01*
X168428282Y-107571718D01*
X168302841Y-107475464D01*
X168156762Y-107414956D01*
X168147081Y-107413681D01*
X168147079Y-107413681D01*
X168009685Y-107395593D01*
X168000000Y-107394318D01*
X167990315Y-107395593D01*
X167852921Y-107413681D01*
X167852919Y-107413681D01*
X167843238Y-107414956D01*
X167697159Y-107475464D01*
X167571718Y-107571718D01*
X167475464Y-107697159D01*
X167471726Y-107706182D01*
X167471726Y-107706183D01*
X167462514Y-107728422D01*
X167414956Y-107843238D01*
X167394318Y-108000000D01*
X150300500Y-108000000D01*
X150300500Y-107000000D01*
X174394318Y-107000000D01*
X174414956Y-107156762D01*
X174475464Y-107302841D01*
X174571718Y-107428282D01*
X174697159Y-107524536D01*
X174843238Y-107585044D01*
X174852919Y-107586319D01*
X174852921Y-107586319D01*
X174990315Y-107604407D01*
X175000000Y-107605682D01*
X175009685Y-107604407D01*
X175147079Y-107586319D01*
X175147081Y-107586319D01*
X175156762Y-107585044D01*
X175302841Y-107524536D01*
X175428282Y-107428282D01*
X175524536Y-107302841D01*
X175585044Y-107156762D01*
X175605682Y-107000000D01*
X177394318Y-107000000D01*
X177414956Y-107156762D01*
X177475464Y-107302841D01*
X177571718Y-107428282D01*
X177697159Y-107524536D01*
X177843238Y-107585044D01*
X177852919Y-107586319D01*
X177852921Y-107586319D01*
X177990315Y-107604407D01*
X178000000Y-107605682D01*
X178009685Y-107604407D01*
X178147079Y-107586319D01*
X178147081Y-107586319D01*
X178156762Y-107585044D01*
X178302841Y-107524536D01*
X178428282Y-107428282D01*
X178524536Y-107302841D01*
X178585044Y-107156762D01*
X178605682Y-107000000D01*
X178585044Y-106843238D01*
X178524536Y-106697159D01*
X178428282Y-106571718D01*
X178334817Y-106500000D01*
X179444532Y-106500000D01*
X179445099Y-106506481D01*
X179462571Y-106706183D01*
X179464365Y-106726692D01*
X179523261Y-106946496D01*
X179526009Y-106952389D01*
X179616683Y-107146840D01*
X179616686Y-107146845D01*
X179619432Y-107152734D01*
X179749953Y-107339139D01*
X179910861Y-107500047D01*
X180097266Y-107630568D01*
X180103155Y-107633314D01*
X180103160Y-107633317D01*
X180223452Y-107689410D01*
X180303504Y-107726739D01*
X180309785Y-107728422D01*
X180517029Y-107783953D01*
X180517034Y-107783954D01*
X180523308Y-107785635D01*
X180529779Y-107786201D01*
X180529784Y-107786202D01*
X180743519Y-107804901D01*
X180750000Y-107805468D01*
X180756481Y-107804901D01*
X180970216Y-107786202D01*
X180970221Y-107786201D01*
X180976692Y-107785635D01*
X180982966Y-107783954D01*
X180982971Y-107783953D01*
X181190215Y-107728422D01*
X181196496Y-107726739D01*
X181276548Y-107689410D01*
X181396840Y-107633317D01*
X181396845Y-107633314D01*
X181402734Y-107630568D01*
X181589139Y-107500047D01*
X181750047Y-107339139D01*
X181880568Y-107152734D01*
X181883314Y-107146845D01*
X181883317Y-107146840D01*
X181973991Y-106952389D01*
X181976739Y-106946496D01*
X182035635Y-106726692D01*
X182037430Y-106706183D01*
X182054901Y-106506481D01*
X182055468Y-106500000D01*
X182049714Y-106434228D01*
X182036202Y-106279784D01*
X182036201Y-106279779D01*
X182035635Y-106273308D01*
X181976739Y-106053504D01*
X181947273Y-105990315D01*
X181883317Y-105853160D01*
X181883314Y-105853155D01*
X181880568Y-105847266D01*
X181750047Y-105660861D01*
X181589139Y-105499953D01*
X181402734Y-105369432D01*
X181396845Y-105366686D01*
X181396840Y-105366683D01*
X181202389Y-105276009D01*
X181196496Y-105273261D01*
X181190215Y-105271578D01*
X180982971Y-105216047D01*
X180982966Y-105216046D01*
X180976692Y-105214365D01*
X180970221Y-105213799D01*
X180970216Y-105213798D01*
X180756481Y-105195099D01*
X180750000Y-105194532D01*
X180743519Y-105195099D01*
X180529784Y-105213798D01*
X180529779Y-105213799D01*
X180523308Y-105214365D01*
X180517034Y-105216046D01*
X180517029Y-105216047D01*
X180309785Y-105271578D01*
X180303504Y-105273261D01*
X180297611Y-105276009D01*
X180103160Y-105366683D01*
X180103155Y-105366686D01*
X180097266Y-105369432D01*
X179910861Y-105499953D01*
X179749953Y-105660861D01*
X179619432Y-105847266D01*
X179616686Y-105853155D01*
X179616683Y-105853160D01*
X179552727Y-105990315D01*
X179523261Y-106053504D01*
X179464365Y-106273308D01*
X179463799Y-106279779D01*
X179463798Y-106279784D01*
X179450286Y-106434228D01*
X179444532Y-106500000D01*
X178334817Y-106500000D01*
X178302841Y-106475464D01*
X178156762Y-106414956D01*
X178147081Y-106413681D01*
X178147079Y-106413681D01*
X178009685Y-106395593D01*
X178000000Y-106394318D01*
X177990315Y-106395593D01*
X177852921Y-106413681D01*
X177852919Y-106413681D01*
X177843238Y-106414956D01*
X177697159Y-106475464D01*
X177571718Y-106571718D01*
X177475464Y-106697159D01*
X177414956Y-106843238D01*
X177394318Y-107000000D01*
X175605682Y-107000000D01*
X175585044Y-106843238D01*
X175524536Y-106697159D01*
X175428282Y-106571718D01*
X175302841Y-106475464D01*
X175156762Y-106414956D01*
X175147081Y-106413681D01*
X175147079Y-106413681D01*
X175009685Y-106395593D01*
X175000000Y-106394318D01*
X174990315Y-106395593D01*
X174852921Y-106413681D01*
X174852919Y-106413681D01*
X174843238Y-106414956D01*
X174697159Y-106475464D01*
X174571718Y-106571718D01*
X174475464Y-106697159D01*
X174414956Y-106843238D01*
X174394318Y-107000000D01*
X150300500Y-107000000D01*
X150300500Y-106000000D01*
X154394318Y-106000000D01*
X154414956Y-106156762D01*
X154475464Y-106302841D01*
X154571718Y-106428282D01*
X154697159Y-106524536D01*
X154843238Y-106585044D01*
X154852919Y-106586319D01*
X154852921Y-106586319D01*
X154990315Y-106604407D01*
X155000000Y-106605682D01*
X155009685Y-106604407D01*
X155147079Y-106586319D01*
X155147081Y-106586319D01*
X155156762Y-106585044D01*
X155302841Y-106524536D01*
X155428282Y-106428282D01*
X155524536Y-106302841D01*
X155585044Y-106156762D01*
X155605682Y-106000000D01*
X163394318Y-106000000D01*
X163414956Y-106156762D01*
X163475464Y-106302841D01*
X163571718Y-106428282D01*
X163697159Y-106524536D01*
X163843238Y-106585044D01*
X163852919Y-106586319D01*
X163852921Y-106586319D01*
X163990315Y-106604407D01*
X164000000Y-106605682D01*
X164009685Y-106604407D01*
X164147079Y-106586319D01*
X164147081Y-106586319D01*
X164156762Y-106585044D01*
X164302841Y-106524536D01*
X164428282Y-106428282D01*
X164524536Y-106302841D01*
X164585044Y-106156762D01*
X164605682Y-106000000D01*
X164585044Y-105843238D01*
X164524536Y-105697159D01*
X164428282Y-105571718D01*
X164302841Y-105475464D01*
X164156762Y-105414956D01*
X164147081Y-105413681D01*
X164147079Y-105413681D01*
X164009685Y-105395593D01*
X164000000Y-105394318D01*
X163990315Y-105395593D01*
X163852921Y-105413681D01*
X163852919Y-105413681D01*
X163843238Y-105414956D01*
X163697159Y-105475464D01*
X163571718Y-105571718D01*
X163475464Y-105697159D01*
X163414956Y-105843238D01*
X163394318Y-106000000D01*
X155605682Y-106000000D01*
X155585044Y-105843238D01*
X155524536Y-105697159D01*
X155428282Y-105571718D01*
X155302841Y-105475464D01*
X155156762Y-105414956D01*
X155147081Y-105413681D01*
X155147079Y-105413681D01*
X155009685Y-105395593D01*
X155000000Y-105394318D01*
X154990315Y-105395593D01*
X154852921Y-105413681D01*
X154852919Y-105413681D01*
X154843238Y-105414956D01*
X154697159Y-105475464D01*
X154571718Y-105571718D01*
X154475464Y-105697159D01*
X154414956Y-105843238D01*
X154394318Y-106000000D01*
X150300500Y-106000000D01*
X150300500Y-105000000D01*
X166844318Y-105000000D01*
X166864956Y-105156762D01*
X166868693Y-105165784D01*
X166913212Y-105273261D01*
X166925464Y-105302841D01*
X167021718Y-105428282D01*
X167147159Y-105524536D01*
X167293238Y-105585044D01*
X167302919Y-105586319D01*
X167302921Y-105586319D01*
X167440315Y-105604407D01*
X167450000Y-105605682D01*
X167459685Y-105604407D01*
X167597079Y-105586319D01*
X167597081Y-105586319D01*
X167606762Y-105585044D01*
X167752841Y-105524536D01*
X167878282Y-105428282D01*
X167974536Y-105302841D01*
X167986789Y-105273261D01*
X168031307Y-105165784D01*
X168035044Y-105156762D01*
X168055682Y-105000000D01*
X173244318Y-105000000D01*
X173264956Y-105156762D01*
X173268693Y-105165784D01*
X173313212Y-105273261D01*
X173325464Y-105302841D01*
X173421718Y-105428282D01*
X173547159Y-105524536D01*
X173693238Y-105585044D01*
X173702919Y-105586319D01*
X173702921Y-105586319D01*
X173840315Y-105604407D01*
X173850000Y-105605682D01*
X173859685Y-105604407D01*
X173997079Y-105586319D01*
X173997081Y-105586319D01*
X174006762Y-105585044D01*
X174152841Y-105524536D01*
X174278282Y-105428282D01*
X174374536Y-105302841D01*
X174386789Y-105273261D01*
X174431307Y-105165784D01*
X174435044Y-105156762D01*
X174455682Y-105000000D01*
X174435044Y-104843238D01*
X174374536Y-104697159D01*
X174278282Y-104571718D01*
X174184817Y-104500000D01*
X177444318Y-104500000D01*
X177464956Y-104656762D01*
X177525464Y-104802841D01*
X177621718Y-104928282D01*
X177747159Y-105024536D01*
X177893238Y-105085044D01*
X177902919Y-105086319D01*
X177902921Y-105086319D01*
X178040315Y-105104407D01*
X178050000Y-105105682D01*
X178059685Y-105104407D01*
X178197079Y-105086319D01*
X178197081Y-105086319D01*
X178206762Y-105085044D01*
X178352841Y-105024536D01*
X178478282Y-104928282D01*
X178574536Y-104802841D01*
X178635044Y-104656762D01*
X178655682Y-104500000D01*
X178635044Y-104343238D01*
X178605746Y-104272506D01*
X178578274Y-104206183D01*
X178578274Y-104206182D01*
X178574536Y-104197159D01*
X178478282Y-104071718D01*
X178384817Y-104000000D01*
X186394318Y-104000000D01*
X186414956Y-104156762D01*
X186475464Y-104302841D01*
X186571718Y-104428282D01*
X186697159Y-104524536D01*
X186843238Y-104585044D01*
X186852919Y-104586319D01*
X186852921Y-104586319D01*
X186990315Y-104604407D01*
X187000000Y-104605682D01*
X187009685Y-104604407D01*
X187147079Y-104586319D01*
X187147081Y-104586319D01*
X187156762Y-104585044D01*
X187302841Y-104524536D01*
X187428282Y-104428282D01*
X187524536Y-104302841D01*
X187585044Y-104156762D01*
X187605682Y-104000000D01*
X187586682Y-103855682D01*
X187586319Y-103852921D01*
X187586319Y-103852919D01*
X187585044Y-103843238D01*
X187524536Y-103697159D01*
X187428282Y-103571718D01*
X187302841Y-103475464D01*
X187188915Y-103428274D01*
X187165784Y-103418693D01*
X187156762Y-103414956D01*
X187147081Y-103413681D01*
X187147079Y-103413681D01*
X187009685Y-103395593D01*
X187000000Y-103394318D01*
X186990315Y-103395593D01*
X186852921Y-103413681D01*
X186852919Y-103413681D01*
X186843238Y-103414956D01*
X186834216Y-103418693D01*
X186811086Y-103428274D01*
X186697159Y-103475464D01*
X186571718Y-103571718D01*
X186475464Y-103697159D01*
X186414956Y-103843238D01*
X186413681Y-103852919D01*
X186413681Y-103852921D01*
X186413318Y-103855682D01*
X186394318Y-104000000D01*
X178384817Y-104000000D01*
X178352841Y-103975464D01*
X178206762Y-103914956D01*
X178197081Y-103913681D01*
X178197079Y-103913681D01*
X178059685Y-103895593D01*
X178050000Y-103894318D01*
X178040315Y-103895593D01*
X177902921Y-103913681D01*
X177902919Y-103913681D01*
X177893238Y-103914956D01*
X177747159Y-103975464D01*
X177621718Y-104071718D01*
X177525464Y-104197159D01*
X177521726Y-104206182D01*
X177521726Y-104206183D01*
X177494254Y-104272506D01*
X177464956Y-104343238D01*
X177444318Y-104500000D01*
X174184817Y-104500000D01*
X174152841Y-104475464D01*
X174006762Y-104414956D01*
X173997081Y-104413681D01*
X173997079Y-104413681D01*
X173859685Y-104395593D01*
X173850000Y-104394318D01*
X173840315Y-104395593D01*
X173702921Y-104413681D01*
X173702919Y-104413681D01*
X173693238Y-104414956D01*
X173547159Y-104475464D01*
X173421718Y-104571718D01*
X173325464Y-104697159D01*
X173264956Y-104843238D01*
X173244318Y-105000000D01*
X168055682Y-105000000D01*
X168035044Y-104843238D01*
X167974536Y-104697159D01*
X167878282Y-104571718D01*
X167752841Y-104475464D01*
X167606762Y-104414956D01*
X167597081Y-104413681D01*
X167597079Y-104413681D01*
X167459685Y-104395593D01*
X167450000Y-104394318D01*
X167440315Y-104395593D01*
X167302921Y-104413681D01*
X167302919Y-104413681D01*
X167293238Y-104414956D01*
X167147159Y-104475464D01*
X167021718Y-104571718D01*
X166925464Y-104697159D01*
X166864956Y-104843238D01*
X166844318Y-105000000D01*
X150300500Y-105000000D01*
X150300500Y-104424500D01*
X150320462Y-104350000D01*
X150375000Y-104295462D01*
X150449500Y-104275500D01*
X154794646Y-104275500D01*
X154820846Y-104272382D01*
X154923153Y-104226939D01*
X154962697Y-104187326D01*
X154992523Y-104157448D01*
X155002241Y-104147713D01*
X155047506Y-104045327D01*
X155050500Y-104019646D01*
X155050500Y-103000000D01*
X157394318Y-103000000D01*
X157395593Y-103009685D01*
X157402979Y-103065784D01*
X157414956Y-103156762D01*
X157418693Y-103165784D01*
X157453577Y-103250000D01*
X157475464Y-103302841D01*
X157571718Y-103428282D01*
X157697159Y-103524536D01*
X157843238Y-103585044D01*
X157852919Y-103586319D01*
X157852921Y-103586319D01*
X157990315Y-103604407D01*
X158000000Y-103605682D01*
X158009685Y-103604407D01*
X158147079Y-103586319D01*
X158147081Y-103586319D01*
X158156762Y-103585044D01*
X158302841Y-103524536D01*
X158428282Y-103428282D01*
X158524536Y-103302841D01*
X158546424Y-103250000D01*
X158581307Y-103165784D01*
X158585044Y-103156762D01*
X158597022Y-103065784D01*
X158604407Y-103009685D01*
X158605682Y-103000000D01*
X158599990Y-102956762D01*
X158586319Y-102852921D01*
X158586319Y-102852919D01*
X158585044Y-102843238D01*
X158567135Y-102800000D01*
X163644318Y-102800000D01*
X163645593Y-102809685D01*
X163662672Y-102939410D01*
X163664956Y-102956762D01*
X163668693Y-102965784D01*
X163702367Y-103047079D01*
X163725464Y-103102841D01*
X163821718Y-103228282D01*
X163947159Y-103324536D01*
X163956182Y-103328274D01*
X163956183Y-103328274D01*
X164084216Y-103381307D01*
X164093238Y-103385044D01*
X164102919Y-103386319D01*
X164102921Y-103386319D01*
X164240315Y-103404407D01*
X164250000Y-103405682D01*
X164259685Y-103404407D01*
X164397079Y-103386319D01*
X164397081Y-103386319D01*
X164406762Y-103385044D01*
X164415784Y-103381307D01*
X164543817Y-103328274D01*
X164543818Y-103328274D01*
X164552841Y-103324536D01*
X164678282Y-103228282D01*
X164774536Y-103102841D01*
X164797634Y-103047079D01*
X164831307Y-102965784D01*
X164835044Y-102956762D01*
X164837329Y-102939410D01*
X164854407Y-102809685D01*
X164855682Y-102800000D01*
X165644318Y-102800000D01*
X165645593Y-102809685D01*
X165662672Y-102939410D01*
X165664956Y-102956762D01*
X165668693Y-102965784D01*
X165702367Y-103047079D01*
X165725464Y-103102841D01*
X165821718Y-103228282D01*
X165947159Y-103324536D01*
X165956182Y-103328274D01*
X165956183Y-103328274D01*
X166084216Y-103381307D01*
X166093238Y-103385044D01*
X166102919Y-103386319D01*
X166102921Y-103386319D01*
X166240315Y-103404407D01*
X166250000Y-103405682D01*
X166259685Y-103404407D01*
X166397079Y-103386319D01*
X166397081Y-103386319D01*
X166406762Y-103385044D01*
X166415784Y-103381307D01*
X166543817Y-103328274D01*
X166543818Y-103328274D01*
X166552841Y-103324536D01*
X166649978Y-103250000D01*
X169994318Y-103250000D01*
X169995593Y-103259685D01*
X170013486Y-103395593D01*
X170014956Y-103406762D01*
X170018693Y-103415784D01*
X170047382Y-103485044D01*
X170075464Y-103552841D01*
X170171718Y-103678282D01*
X170297159Y-103774536D01*
X170443238Y-103835044D01*
X170452919Y-103836319D01*
X170452921Y-103836319D01*
X170590315Y-103854407D01*
X170600000Y-103855682D01*
X170609685Y-103854407D01*
X170747079Y-103836319D01*
X170747081Y-103836319D01*
X170756762Y-103835044D01*
X170902841Y-103774536D01*
X171028282Y-103678282D01*
X171124536Y-103552841D01*
X171152619Y-103485044D01*
X171181307Y-103415784D01*
X171185044Y-103406762D01*
X171186515Y-103395593D01*
X171204407Y-103259685D01*
X171205682Y-103250000D01*
X171200494Y-103210590D01*
X171186319Y-103102921D01*
X171186319Y-103102919D01*
X171185044Y-103093238D01*
X171150435Y-103009685D01*
X171128274Y-102956183D01*
X171128274Y-102956182D01*
X171124536Y-102947159D01*
X171088350Y-102900000D01*
X181944318Y-102900000D01*
X181945593Y-102909685D01*
X181952979Y-102965784D01*
X181964956Y-103056762D01*
X181968693Y-103065784D01*
X182002367Y-103147079D01*
X182025464Y-103202841D01*
X182121718Y-103328282D01*
X182247159Y-103424536D01*
X182256182Y-103428274D01*
X182256183Y-103428274D01*
X182370110Y-103475464D01*
X182393238Y-103485044D01*
X182402919Y-103486319D01*
X182402921Y-103486319D01*
X182540315Y-103504407D01*
X182550000Y-103505682D01*
X182559685Y-103504407D01*
X182697079Y-103486319D01*
X182697081Y-103486319D01*
X182706762Y-103485044D01*
X182729890Y-103475464D01*
X182843817Y-103428274D01*
X182843818Y-103428274D01*
X182852841Y-103424536D01*
X182978282Y-103328282D01*
X183074536Y-103202841D01*
X183097634Y-103147079D01*
X183131307Y-103065784D01*
X183135044Y-103056762D01*
X183142517Y-103000000D01*
X190394318Y-103000000D01*
X190395593Y-103009685D01*
X190402979Y-103065784D01*
X190414956Y-103156762D01*
X190418693Y-103165784D01*
X190453577Y-103250000D01*
X190475464Y-103302841D01*
X190571718Y-103428282D01*
X190697159Y-103524536D01*
X190843238Y-103585044D01*
X190852919Y-103586319D01*
X190852921Y-103586319D01*
X190990315Y-103604407D01*
X191000000Y-103605682D01*
X191009685Y-103604407D01*
X191147079Y-103586319D01*
X191147081Y-103586319D01*
X191156762Y-103585044D01*
X191302841Y-103524536D01*
X191428282Y-103428282D01*
X191524536Y-103302841D01*
X191546424Y-103250000D01*
X191581307Y-103165784D01*
X191585044Y-103156762D01*
X191597022Y-103065784D01*
X191604407Y-103009685D01*
X191605682Y-103000000D01*
X191599990Y-102956762D01*
X191586319Y-102852921D01*
X191586319Y-102852919D01*
X191585044Y-102843238D01*
X191563123Y-102790315D01*
X191528274Y-102706183D01*
X191528274Y-102706182D01*
X191524536Y-102697159D01*
X191428282Y-102571718D01*
X191302841Y-102475464D01*
X191293798Y-102471718D01*
X191165784Y-102418693D01*
X191156762Y-102414956D01*
X191147081Y-102413681D01*
X191147079Y-102413681D01*
X191009685Y-102395593D01*
X191000000Y-102394318D01*
X190990315Y-102395593D01*
X190852921Y-102413681D01*
X190852919Y-102413681D01*
X190843238Y-102414956D01*
X190834216Y-102418693D01*
X190706203Y-102471718D01*
X190697159Y-102475464D01*
X190571718Y-102571718D01*
X190475464Y-102697159D01*
X190471726Y-102706182D01*
X190471726Y-102706183D01*
X190436877Y-102790315D01*
X190414956Y-102843238D01*
X190413681Y-102852919D01*
X190413681Y-102852921D01*
X190400010Y-102956762D01*
X190394318Y-103000000D01*
X183142517Y-103000000D01*
X183147022Y-102965784D01*
X183154407Y-102909685D01*
X183155682Y-102900000D01*
X183148209Y-102843238D01*
X183136319Y-102752921D01*
X183136319Y-102752919D01*
X183135044Y-102743238D01*
X183104166Y-102668693D01*
X183078274Y-102606183D01*
X183078274Y-102606182D01*
X183074536Y-102597159D01*
X182978282Y-102471718D01*
X182852841Y-102375464D01*
X182843798Y-102371718D01*
X182715784Y-102318693D01*
X182706762Y-102314956D01*
X182697081Y-102313681D01*
X182697079Y-102313681D01*
X182559685Y-102295593D01*
X182550000Y-102294318D01*
X182540315Y-102295593D01*
X182402921Y-102313681D01*
X182402919Y-102313681D01*
X182393238Y-102314956D01*
X182384216Y-102318693D01*
X182256203Y-102371718D01*
X182247159Y-102375464D01*
X182121718Y-102471718D01*
X182025464Y-102597159D01*
X182021726Y-102606182D01*
X182021726Y-102606183D01*
X181995834Y-102668693D01*
X181964956Y-102743238D01*
X181963681Y-102752919D01*
X181963681Y-102752921D01*
X181951791Y-102843238D01*
X181944318Y-102900000D01*
X171088350Y-102900000D01*
X171028282Y-102821718D01*
X170902841Y-102725464D01*
X170756762Y-102664956D01*
X170747081Y-102663681D01*
X170747079Y-102663681D01*
X170609685Y-102645593D01*
X170600000Y-102644318D01*
X170590315Y-102645593D01*
X170452921Y-102663681D01*
X170452919Y-102663681D01*
X170443238Y-102664956D01*
X170297159Y-102725464D01*
X170171718Y-102821718D01*
X170075464Y-102947159D01*
X170071726Y-102956182D01*
X170071726Y-102956183D01*
X170049565Y-103009685D01*
X170014956Y-103093238D01*
X170013681Y-103102919D01*
X170013681Y-103102921D01*
X169999506Y-103210590D01*
X169994318Y-103250000D01*
X166649978Y-103250000D01*
X166678282Y-103228282D01*
X166774536Y-103102841D01*
X166797634Y-103047079D01*
X166831307Y-102965784D01*
X166835044Y-102956762D01*
X166837329Y-102939410D01*
X166854407Y-102809685D01*
X166855682Y-102800000D01*
X166848209Y-102743238D01*
X166836319Y-102652921D01*
X166836319Y-102652919D01*
X166835044Y-102643238D01*
X166805419Y-102571718D01*
X166778274Y-102506183D01*
X166778274Y-102506182D01*
X166774536Y-102497159D01*
X166678282Y-102371718D01*
X166552841Y-102275464D01*
X166406762Y-102214956D01*
X166397081Y-102213681D01*
X166397079Y-102213681D01*
X166259685Y-102195593D01*
X166250000Y-102194318D01*
X166240315Y-102195593D01*
X166102921Y-102213681D01*
X166102919Y-102213681D01*
X166093238Y-102214956D01*
X165947159Y-102275464D01*
X165821718Y-102371718D01*
X165725464Y-102497159D01*
X165721726Y-102506182D01*
X165721726Y-102506183D01*
X165694581Y-102571718D01*
X165664956Y-102643238D01*
X165663681Y-102652919D01*
X165663681Y-102652921D01*
X165651791Y-102743238D01*
X165644318Y-102800000D01*
X164855682Y-102800000D01*
X164848209Y-102743238D01*
X164836319Y-102652921D01*
X164836319Y-102652919D01*
X164835044Y-102643238D01*
X164805419Y-102571718D01*
X164778274Y-102506183D01*
X164778274Y-102506182D01*
X164774536Y-102497159D01*
X164678282Y-102371718D01*
X164552841Y-102275464D01*
X164406762Y-102214956D01*
X164397081Y-102213681D01*
X164397079Y-102213681D01*
X164259685Y-102195593D01*
X164250000Y-102194318D01*
X164240315Y-102195593D01*
X164102921Y-102213681D01*
X164102919Y-102213681D01*
X164093238Y-102214956D01*
X163947159Y-102275464D01*
X163821718Y-102371718D01*
X163725464Y-102497159D01*
X163721726Y-102506182D01*
X163721726Y-102506183D01*
X163694581Y-102571718D01*
X163664956Y-102643238D01*
X163663681Y-102652919D01*
X163663681Y-102652921D01*
X163651791Y-102743238D01*
X163644318Y-102800000D01*
X158567135Y-102800000D01*
X158563123Y-102790315D01*
X158528274Y-102706183D01*
X158528274Y-102706182D01*
X158524536Y-102697159D01*
X158428282Y-102571718D01*
X158302841Y-102475464D01*
X158293798Y-102471718D01*
X158165784Y-102418693D01*
X158156762Y-102414956D01*
X158147081Y-102413681D01*
X158147079Y-102413681D01*
X158009685Y-102395593D01*
X158000000Y-102394318D01*
X157990315Y-102395593D01*
X157852921Y-102413681D01*
X157852919Y-102413681D01*
X157843238Y-102414956D01*
X157834216Y-102418693D01*
X157706203Y-102471718D01*
X157697159Y-102475464D01*
X157571718Y-102571718D01*
X157475464Y-102697159D01*
X157471726Y-102706182D01*
X157471726Y-102706183D01*
X157436877Y-102790315D01*
X157414956Y-102843238D01*
X157413681Y-102852919D01*
X157413681Y-102852921D01*
X157400010Y-102956762D01*
X157394318Y-103000000D01*
X155050500Y-103000000D01*
X155050500Y-101930354D01*
X155047382Y-101904154D01*
X155001939Y-101801847D01*
X155000089Y-101800000D01*
X167894318Y-101800000D01*
X167895593Y-101809685D01*
X167912048Y-101934670D01*
X167914956Y-101956762D01*
X167975464Y-102102841D01*
X168071718Y-102228282D01*
X168197159Y-102324536D01*
X168206182Y-102328274D01*
X168206183Y-102328274D01*
X168320110Y-102375464D01*
X168343238Y-102385044D01*
X168352919Y-102386319D01*
X168352921Y-102386319D01*
X168490315Y-102404407D01*
X168500000Y-102405682D01*
X168509685Y-102404407D01*
X168647079Y-102386319D01*
X168647081Y-102386319D01*
X168656762Y-102385044D01*
X168679890Y-102375464D01*
X168793817Y-102328274D01*
X168793818Y-102328274D01*
X168802841Y-102324536D01*
X168928282Y-102228282D01*
X169024536Y-102102841D01*
X169085044Y-101956762D01*
X169087953Y-101934670D01*
X169104407Y-101809685D01*
X169105682Y-101800000D01*
X169104407Y-101790315D01*
X169099100Y-101750000D01*
X170094318Y-101750000D01*
X170095593Y-101759685D01*
X170100901Y-101800000D01*
X170114956Y-101906762D01*
X170175464Y-102052841D01*
X170271718Y-102178282D01*
X170397159Y-102274536D01*
X170406182Y-102278274D01*
X170406183Y-102278274D01*
X170503763Y-102318693D01*
X170543238Y-102335044D01*
X170552919Y-102336319D01*
X170552921Y-102336319D01*
X170690315Y-102354407D01*
X170700000Y-102355682D01*
X170709685Y-102354407D01*
X170847079Y-102336319D01*
X170847081Y-102336319D01*
X170856762Y-102335044D01*
X170896237Y-102318693D01*
X170993817Y-102278274D01*
X170993818Y-102278274D01*
X171002841Y-102274536D01*
X171128282Y-102178282D01*
X171224536Y-102052841D01*
X171285044Y-101906762D01*
X171299100Y-101800000D01*
X171304407Y-101759685D01*
X171305682Y-101750000D01*
X171303375Y-101732477D01*
X171286319Y-101602921D01*
X171286319Y-101602919D01*
X171285044Y-101593238D01*
X171224536Y-101447159D01*
X171128282Y-101321718D01*
X171002841Y-101225464D01*
X170986495Y-101218693D01*
X170865784Y-101168693D01*
X170856762Y-101164956D01*
X170847081Y-101163681D01*
X170847079Y-101163681D01*
X170709685Y-101145593D01*
X170700000Y-101144318D01*
X170690315Y-101145593D01*
X170552921Y-101163681D01*
X170552919Y-101163681D01*
X170543238Y-101164956D01*
X170534216Y-101168693D01*
X170413506Y-101218693D01*
X170397159Y-101225464D01*
X170271718Y-101321718D01*
X170175464Y-101447159D01*
X170114956Y-101593238D01*
X170113681Y-101602919D01*
X170113681Y-101602921D01*
X170096625Y-101732477D01*
X170094318Y-101750000D01*
X169099100Y-101750000D01*
X169086319Y-101652921D01*
X169086319Y-101652919D01*
X169085044Y-101643238D01*
X169024536Y-101497159D01*
X168928282Y-101371718D01*
X168802841Y-101275464D01*
X168696486Y-101231410D01*
X168665784Y-101218693D01*
X168656762Y-101214956D01*
X168647081Y-101213681D01*
X168647079Y-101213681D01*
X168509685Y-101195593D01*
X168500000Y-101194318D01*
X168490315Y-101195593D01*
X168352921Y-101213681D01*
X168352919Y-101213681D01*
X168343238Y-101214956D01*
X168334216Y-101218693D01*
X168303515Y-101231410D01*
X168197159Y-101275464D01*
X168071718Y-101371718D01*
X167975464Y-101497159D01*
X167914956Y-101643238D01*
X167913681Y-101652919D01*
X167913681Y-101652921D01*
X167895593Y-101790315D01*
X167894318Y-101800000D01*
X155000089Y-101800000D01*
X154922713Y-101722759D01*
X154910133Y-101717197D01*
X154910131Y-101717196D01*
X154830574Y-101682024D01*
X154830573Y-101682024D01*
X154820327Y-101677494D01*
X154805682Y-101675787D01*
X154798930Y-101674999D01*
X154798922Y-101674999D01*
X154794646Y-101674500D01*
X150449500Y-101674500D01*
X150375000Y-101654538D01*
X150320462Y-101600000D01*
X150300500Y-101525500D01*
X150300500Y-100000000D01*
X151144318Y-100000000D01*
X151164956Y-100156762D01*
X151225464Y-100302841D01*
X151321718Y-100428282D01*
X151447159Y-100524536D01*
X151593238Y-100585044D01*
X151602919Y-100586319D01*
X151602921Y-100586319D01*
X151740315Y-100604407D01*
X151750000Y-100605682D01*
X151759685Y-100604407D01*
X151897079Y-100586319D01*
X151897081Y-100586319D01*
X151906762Y-100585044D01*
X152052841Y-100524536D01*
X152178282Y-100428282D01*
X152274536Y-100302841D01*
X152287342Y-100271925D01*
X152334295Y-100210735D01*
X152405552Y-100181220D01*
X152482020Y-100191287D01*
X152543210Y-100238240D01*
X152562658Y-100271925D01*
X152575464Y-100302841D01*
X152671718Y-100428282D01*
X152797159Y-100524536D01*
X152943238Y-100585044D01*
X152952919Y-100586319D01*
X152952921Y-100586319D01*
X153090315Y-100604407D01*
X153100000Y-100605682D01*
X153109685Y-100604407D01*
X153247079Y-100586319D01*
X153247081Y-100586319D01*
X153256762Y-100585044D01*
X153402841Y-100524536D01*
X153528282Y-100428282D01*
X153606790Y-100325968D01*
X153667980Y-100279015D01*
X153744448Y-100268948D01*
X153815705Y-100298463D01*
X153843210Y-100325968D01*
X153921718Y-100428282D01*
X154047159Y-100524536D01*
X154193238Y-100585044D01*
X154202919Y-100586319D01*
X154202921Y-100586319D01*
X154340315Y-100604407D01*
X154350000Y-100605682D01*
X154359685Y-100604407D01*
X154497079Y-100586319D01*
X154497081Y-100586319D01*
X154506762Y-100585044D01*
X154652841Y-100524536D01*
X154684817Y-100500000D01*
X166494318Y-100500000D01*
X166514956Y-100656762D01*
X166575464Y-100802841D01*
X166671718Y-100928282D01*
X166797159Y-101024536D01*
X166943238Y-101085044D01*
X166952919Y-101086319D01*
X166952921Y-101086319D01*
X167090315Y-101104407D01*
X167100000Y-101105682D01*
X167109685Y-101104407D01*
X167247079Y-101086319D01*
X167247081Y-101086319D01*
X167256762Y-101085044D01*
X167402841Y-101024536D01*
X167528282Y-100928282D01*
X167624536Y-100802841D01*
X167685044Y-100656762D01*
X167705682Y-100500000D01*
X167685044Y-100343238D01*
X167624536Y-100197159D01*
X167528282Y-100071718D01*
X167402841Y-99975464D01*
X167256762Y-99914956D01*
X167247081Y-99913681D01*
X167247079Y-99913681D01*
X167109685Y-99895593D01*
X167100000Y-99894318D01*
X167090315Y-99895593D01*
X166952921Y-99913681D01*
X166952919Y-99913681D01*
X166943238Y-99914956D01*
X166797159Y-99975464D01*
X166671718Y-100071718D01*
X166575464Y-100197159D01*
X166514956Y-100343238D01*
X166494318Y-100500000D01*
X154684817Y-100500000D01*
X154778282Y-100428282D01*
X154874536Y-100302841D01*
X154935044Y-100156762D01*
X154955682Y-100000000D01*
X154935044Y-99843238D01*
X154874536Y-99697159D01*
X154778282Y-99571718D01*
X154652841Y-99475464D01*
X154506762Y-99414956D01*
X154497081Y-99413681D01*
X154497079Y-99413681D01*
X154359685Y-99395593D01*
X154350000Y-99394318D01*
X154340315Y-99395593D01*
X154202921Y-99413681D01*
X154202919Y-99413681D01*
X154193238Y-99414956D01*
X154047159Y-99475464D01*
X153921718Y-99571718D01*
X153915772Y-99579467D01*
X153843210Y-99674032D01*
X153782020Y-99720985D01*
X153705552Y-99731052D01*
X153634295Y-99701537D01*
X153606790Y-99674032D01*
X153534228Y-99579467D01*
X153528282Y-99571718D01*
X153402841Y-99475464D01*
X153256762Y-99414956D01*
X153247081Y-99413681D01*
X153247079Y-99413681D01*
X153109685Y-99395593D01*
X153100000Y-99394318D01*
X153090315Y-99395593D01*
X152952921Y-99413681D01*
X152952919Y-99413681D01*
X152943238Y-99414956D01*
X152797159Y-99475464D01*
X152671718Y-99571718D01*
X152575464Y-99697159D01*
X152571726Y-99706182D01*
X152571726Y-99706183D01*
X152562658Y-99728075D01*
X152515705Y-99789265D01*
X152444448Y-99818780D01*
X152367980Y-99808713D01*
X152306790Y-99761760D01*
X152287342Y-99728075D01*
X152278274Y-99706183D01*
X152278274Y-99706182D01*
X152274536Y-99697159D01*
X152178282Y-99571718D01*
X152052841Y-99475464D01*
X151906762Y-99414956D01*
X151897081Y-99413681D01*
X151897079Y-99413681D01*
X151759685Y-99395593D01*
X151750000Y-99394318D01*
X151740315Y-99395593D01*
X151602921Y-99413681D01*
X151602919Y-99413681D01*
X151593238Y-99414956D01*
X151447159Y-99475464D01*
X151321718Y-99571718D01*
X151225464Y-99697159D01*
X151164956Y-99843238D01*
X151144318Y-100000000D01*
X150300500Y-100000000D01*
X150300500Y-98474500D01*
X150320462Y-98400000D01*
X150375000Y-98345462D01*
X150449500Y-98325500D01*
X154794646Y-98325500D01*
X154820846Y-98322382D01*
X154923153Y-98276939D01*
X155002241Y-98197713D01*
X155047506Y-98095327D01*
X155050500Y-98069646D01*
X155050500Y-97800000D01*
X168894318Y-97800000D01*
X168895593Y-97809685D01*
X168911207Y-97928282D01*
X168914956Y-97956762D01*
X168918693Y-97965784D01*
X168959885Y-98065229D01*
X168975464Y-98102841D01*
X169071718Y-98228282D01*
X169197159Y-98324536D01*
X169343238Y-98385044D01*
X169352919Y-98386319D01*
X169352921Y-98386319D01*
X169490315Y-98404407D01*
X169500000Y-98405682D01*
X169509685Y-98404407D01*
X169647079Y-98386319D01*
X169647081Y-98386319D01*
X169656762Y-98385044D01*
X169802841Y-98324536D01*
X169928282Y-98228282D01*
X170024536Y-98102841D01*
X170040116Y-98065229D01*
X170081307Y-97965784D01*
X170085044Y-97956762D01*
X170088794Y-97928282D01*
X170104407Y-97809685D01*
X170105682Y-97800000D01*
X170088012Y-97665784D01*
X170086319Y-97652921D01*
X170086319Y-97652919D01*
X170085044Y-97643238D01*
X170033413Y-97518590D01*
X170028274Y-97506183D01*
X170028274Y-97506182D01*
X170025713Y-97500000D01*
X178844318Y-97500000D01*
X178845593Y-97509685D01*
X178863176Y-97643238D01*
X178864956Y-97656762D01*
X178868693Y-97665784D01*
X178920276Y-97790315D01*
X178925464Y-97802841D01*
X179021718Y-97928282D01*
X179147159Y-98024536D01*
X179293238Y-98085044D01*
X179302919Y-98086319D01*
X179302921Y-98086319D01*
X179440315Y-98104407D01*
X179450000Y-98105682D01*
X179459685Y-98104407D01*
X179597079Y-98086319D01*
X179597081Y-98086319D01*
X179606762Y-98085044D01*
X179752841Y-98024536D01*
X179878282Y-97928282D01*
X179974536Y-97802841D01*
X179979725Y-97790315D01*
X180031307Y-97665784D01*
X180035044Y-97656762D01*
X180036825Y-97643238D01*
X180054407Y-97509685D01*
X180055682Y-97500000D01*
X181944318Y-97500000D01*
X181945593Y-97509685D01*
X181963176Y-97643238D01*
X181964956Y-97656762D01*
X181968693Y-97665784D01*
X182020276Y-97790315D01*
X182025464Y-97802841D01*
X182121718Y-97928282D01*
X182247159Y-98024536D01*
X182393238Y-98085044D01*
X182402919Y-98086319D01*
X182402921Y-98086319D01*
X182540315Y-98104407D01*
X182550000Y-98105682D01*
X182559685Y-98104407D01*
X182697079Y-98086319D01*
X182697081Y-98086319D01*
X182706762Y-98085044D01*
X182852841Y-98024536D01*
X182978282Y-97928282D01*
X183074536Y-97802841D01*
X183079725Y-97790315D01*
X183131307Y-97665784D01*
X183135044Y-97656762D01*
X183136825Y-97643238D01*
X183154407Y-97509685D01*
X183155682Y-97500000D01*
X183139814Y-97379467D01*
X183136319Y-97352921D01*
X183136319Y-97352919D01*
X183135044Y-97343238D01*
X183087486Y-97228422D01*
X183078274Y-97206183D01*
X183078274Y-97206182D01*
X183074536Y-97197159D01*
X182978282Y-97071718D01*
X182852841Y-96975464D01*
X182706762Y-96914956D01*
X182697081Y-96913681D01*
X182697079Y-96913681D01*
X182559685Y-96895593D01*
X182550000Y-96894318D01*
X182540315Y-96895593D01*
X182402921Y-96913681D01*
X182402919Y-96913681D01*
X182393238Y-96914956D01*
X182247159Y-96975464D01*
X182121718Y-97071718D01*
X182025464Y-97197159D01*
X182021726Y-97206182D01*
X182021726Y-97206183D01*
X182012514Y-97228422D01*
X181964956Y-97343238D01*
X181963681Y-97352919D01*
X181963681Y-97352921D01*
X181960186Y-97379467D01*
X181944318Y-97500000D01*
X180055682Y-97500000D01*
X180039814Y-97379467D01*
X180036319Y-97352921D01*
X180036319Y-97352919D01*
X180035044Y-97343238D01*
X179987486Y-97228422D01*
X179978274Y-97206183D01*
X179978274Y-97206182D01*
X179974536Y-97197159D01*
X179878282Y-97071718D01*
X179752841Y-96975464D01*
X179606762Y-96914956D01*
X179597081Y-96913681D01*
X179597079Y-96913681D01*
X179459685Y-96895593D01*
X179450000Y-96894318D01*
X179440315Y-96895593D01*
X179302921Y-96913681D01*
X179302919Y-96913681D01*
X179293238Y-96914956D01*
X179147159Y-96975464D01*
X179021718Y-97071718D01*
X178925464Y-97197159D01*
X178921726Y-97206182D01*
X178921726Y-97206183D01*
X178912514Y-97228422D01*
X178864956Y-97343238D01*
X178863681Y-97352919D01*
X178863681Y-97352921D01*
X178860186Y-97379467D01*
X178844318Y-97500000D01*
X170025713Y-97500000D01*
X170024536Y-97497159D01*
X169928282Y-97371718D01*
X169802841Y-97275464D01*
X169678575Y-97223991D01*
X169665784Y-97218693D01*
X169656762Y-97214956D01*
X169647081Y-97213681D01*
X169647079Y-97213681D01*
X169509685Y-97195593D01*
X169500000Y-97194318D01*
X169490315Y-97195593D01*
X169352921Y-97213681D01*
X169352919Y-97213681D01*
X169343238Y-97214956D01*
X169334216Y-97218693D01*
X169321426Y-97223991D01*
X169197159Y-97275464D01*
X169071718Y-97371718D01*
X168975464Y-97497159D01*
X168971726Y-97506182D01*
X168971726Y-97506183D01*
X168966587Y-97518590D01*
X168914956Y-97643238D01*
X168913681Y-97652919D01*
X168913681Y-97652921D01*
X168911988Y-97665784D01*
X168894318Y-97800000D01*
X155050500Y-97800000D01*
X155050500Y-97000000D01*
X157394318Y-97000000D01*
X157395593Y-97009685D01*
X157411508Y-97130568D01*
X157414956Y-97156762D01*
X157475464Y-97302841D01*
X157571718Y-97428282D01*
X157697159Y-97524536D01*
X157843238Y-97585044D01*
X157852919Y-97586319D01*
X157852921Y-97586319D01*
X157990315Y-97604407D01*
X158000000Y-97605682D01*
X158009685Y-97604407D01*
X158147079Y-97586319D01*
X158147081Y-97586319D01*
X158156762Y-97585044D01*
X158302841Y-97524536D01*
X158428282Y-97428282D01*
X158524536Y-97302841D01*
X158585044Y-97156762D01*
X158588493Y-97130568D01*
X158604407Y-97009685D01*
X158605682Y-97000000D01*
X158586682Y-96855682D01*
X158586319Y-96852921D01*
X158586319Y-96852919D01*
X158585044Y-96843238D01*
X158524536Y-96697159D01*
X158428282Y-96571718D01*
X158302841Y-96475464D01*
X158156762Y-96414956D01*
X158147081Y-96413681D01*
X158147079Y-96413681D01*
X158009685Y-96395593D01*
X158000000Y-96394318D01*
X157990315Y-96395593D01*
X157852921Y-96413681D01*
X157852919Y-96413681D01*
X157843238Y-96414956D01*
X157697159Y-96475464D01*
X157571718Y-96571718D01*
X157475464Y-96697159D01*
X157414956Y-96843238D01*
X157413681Y-96852919D01*
X157413681Y-96852921D01*
X157413318Y-96855682D01*
X157394318Y-97000000D01*
X155050500Y-97000000D01*
X155050500Y-95980354D01*
X155047382Y-95954154D01*
X155001939Y-95851847D01*
X154922713Y-95772759D01*
X154910133Y-95767197D01*
X154910131Y-95767196D01*
X154830574Y-95732024D01*
X154830573Y-95732024D01*
X154820327Y-95727494D01*
X154805682Y-95725787D01*
X154798930Y-95724999D01*
X154798922Y-95724999D01*
X154794646Y-95724500D01*
X150449500Y-95724500D01*
X150375000Y-95704538D01*
X150320462Y-95650000D01*
X150300500Y-95575500D01*
X150300500Y-95450000D01*
X167894318Y-95450000D01*
X167895593Y-95459685D01*
X167913176Y-95593238D01*
X167914956Y-95606762D01*
X167918693Y-95615784D01*
X167970276Y-95740315D01*
X167975464Y-95752841D01*
X168071718Y-95878282D01*
X168197159Y-95974536D01*
X168206182Y-95978274D01*
X168206183Y-95978274D01*
X168221868Y-95984771D01*
X168343238Y-96035044D01*
X168352919Y-96036319D01*
X168352921Y-96036319D01*
X168490315Y-96054407D01*
X168500000Y-96055682D01*
X168509685Y-96054407D01*
X168647079Y-96036319D01*
X168647081Y-96036319D01*
X168656762Y-96035044D01*
X168741366Y-96000000D01*
X170094318Y-96000000D01*
X170095593Y-96009685D01*
X170100087Y-96043817D01*
X170114956Y-96156762D01*
X170118693Y-96165784D01*
X170153577Y-96250000D01*
X170175464Y-96302841D01*
X170271718Y-96428282D01*
X170397159Y-96524536D01*
X170543238Y-96585044D01*
X170552919Y-96586319D01*
X170552921Y-96586319D01*
X170690315Y-96604407D01*
X170700000Y-96605682D01*
X170709685Y-96604407D01*
X170847079Y-96586319D01*
X170847081Y-96586319D01*
X170856762Y-96585044D01*
X171002841Y-96524536D01*
X171128282Y-96428282D01*
X171224536Y-96302841D01*
X171246424Y-96250000D01*
X171281307Y-96165784D01*
X171285044Y-96156762D01*
X171299914Y-96043817D01*
X171304407Y-96009685D01*
X171305682Y-96000000D01*
X171301108Y-95965255D01*
X171286319Y-95852921D01*
X171286319Y-95852919D01*
X171285044Y-95843238D01*
X171259876Y-95782477D01*
X171246424Y-95750000D01*
X177444318Y-95750000D01*
X177445593Y-95759685D01*
X177461207Y-95878282D01*
X177464956Y-95906762D01*
X177468693Y-95915784D01*
X177503577Y-96000000D01*
X177525464Y-96052841D01*
X177621718Y-96178282D01*
X177747159Y-96274536D01*
X177893238Y-96335044D01*
X177902919Y-96336319D01*
X177902921Y-96336319D01*
X178040315Y-96354407D01*
X178050000Y-96355682D01*
X178059685Y-96354407D01*
X178197079Y-96336319D01*
X178197081Y-96336319D01*
X178206762Y-96335044D01*
X178352841Y-96274536D01*
X178384817Y-96250000D01*
X183094318Y-96250000D01*
X183095593Y-96259685D01*
X183113486Y-96395593D01*
X183114956Y-96406762D01*
X183175464Y-96552841D01*
X183271718Y-96678282D01*
X183397159Y-96774536D01*
X183543238Y-96835044D01*
X183552919Y-96836319D01*
X183552921Y-96836319D01*
X183690315Y-96854407D01*
X183700000Y-96855682D01*
X183709685Y-96854407D01*
X183847079Y-96836319D01*
X183847081Y-96836319D01*
X183856762Y-96835044D01*
X184002841Y-96774536D01*
X184128282Y-96678282D01*
X184224536Y-96552841D01*
X184285044Y-96406762D01*
X184286515Y-96395593D01*
X184304407Y-96259685D01*
X184305682Y-96250000D01*
X184303440Y-96232971D01*
X184286319Y-96102921D01*
X184286319Y-96102919D01*
X184285044Y-96093238D01*
X184249108Y-96006481D01*
X184246423Y-96000000D01*
X189444532Y-96000000D01*
X189445099Y-96006481D01*
X189460130Y-96178282D01*
X189464365Y-96226692D01*
X189466046Y-96232966D01*
X189466047Y-96232971D01*
X189509280Y-96394318D01*
X189523261Y-96446496D01*
X189526009Y-96452389D01*
X189616683Y-96646840D01*
X189616686Y-96646845D01*
X189619432Y-96652734D01*
X189749953Y-96839139D01*
X189910861Y-97000047D01*
X190097266Y-97130568D01*
X190103155Y-97133314D01*
X190103160Y-97133317D01*
X190240070Y-97197159D01*
X190303504Y-97226739D01*
X190309785Y-97228422D01*
X190517029Y-97283953D01*
X190517034Y-97283954D01*
X190523308Y-97285635D01*
X190529779Y-97286201D01*
X190529784Y-97286202D01*
X190743519Y-97304901D01*
X190750000Y-97305468D01*
X190756481Y-97304901D01*
X190970216Y-97286202D01*
X190970221Y-97286201D01*
X190976692Y-97285635D01*
X190982966Y-97283954D01*
X190982971Y-97283953D01*
X191190215Y-97228422D01*
X191196496Y-97226739D01*
X191259930Y-97197159D01*
X191396840Y-97133317D01*
X191396845Y-97133314D01*
X191402734Y-97130568D01*
X191589139Y-97000047D01*
X191750047Y-96839139D01*
X191880568Y-96652734D01*
X191883314Y-96646845D01*
X191883317Y-96646840D01*
X191973991Y-96452389D01*
X191976739Y-96446496D01*
X191990720Y-96394318D01*
X192033953Y-96232971D01*
X192033954Y-96232966D01*
X192035635Y-96226692D01*
X192039871Y-96178282D01*
X192054901Y-96006481D01*
X192055468Y-96000000D01*
X192053374Y-95976070D01*
X192036202Y-95779784D01*
X192036201Y-95779779D01*
X192035635Y-95773308D01*
X192032228Y-95760590D01*
X191978422Y-95559785D01*
X191976739Y-95553504D01*
X191923536Y-95439410D01*
X191883317Y-95353160D01*
X191883314Y-95353155D01*
X191880568Y-95347266D01*
X191750047Y-95160861D01*
X191589139Y-94999953D01*
X191402734Y-94869432D01*
X191396845Y-94866686D01*
X191396840Y-94866683D01*
X191202389Y-94776009D01*
X191196496Y-94773261D01*
X191190215Y-94771578D01*
X190982971Y-94716047D01*
X190982966Y-94716046D01*
X190976692Y-94714365D01*
X190970221Y-94713799D01*
X190970216Y-94713798D01*
X190756481Y-94695099D01*
X190750000Y-94694532D01*
X190743519Y-94695099D01*
X190529784Y-94713798D01*
X190529779Y-94713799D01*
X190523308Y-94714365D01*
X190517034Y-94716046D01*
X190517029Y-94716047D01*
X190309785Y-94771578D01*
X190303504Y-94773261D01*
X190297611Y-94776009D01*
X190103160Y-94866683D01*
X190103155Y-94866686D01*
X190097266Y-94869432D01*
X189910861Y-94999953D01*
X189749953Y-95160861D01*
X189619432Y-95347266D01*
X189616686Y-95353155D01*
X189616683Y-95353160D01*
X189576464Y-95439410D01*
X189523261Y-95553504D01*
X189521578Y-95559785D01*
X189467773Y-95760590D01*
X189464365Y-95773308D01*
X189463799Y-95779779D01*
X189463798Y-95779784D01*
X189446626Y-95976070D01*
X189444532Y-96000000D01*
X184246423Y-96000000D01*
X184228274Y-95956183D01*
X184228274Y-95956182D01*
X184224536Y-95947159D01*
X184128282Y-95821718D01*
X184002841Y-95725464D01*
X183856762Y-95664956D01*
X183847081Y-95663681D01*
X183847079Y-95663681D01*
X183709685Y-95645593D01*
X183700000Y-95644318D01*
X183690315Y-95645593D01*
X183552921Y-95663681D01*
X183552919Y-95663681D01*
X183543238Y-95664956D01*
X183397159Y-95725464D01*
X183271718Y-95821718D01*
X183175464Y-95947159D01*
X183171726Y-95956182D01*
X183171726Y-95956183D01*
X183150892Y-96006481D01*
X183114956Y-96093238D01*
X183113681Y-96102919D01*
X183113681Y-96102921D01*
X183096560Y-96232971D01*
X183094318Y-96250000D01*
X178384817Y-96250000D01*
X178478282Y-96178282D01*
X178574536Y-96052841D01*
X178596424Y-96000000D01*
X178631307Y-95915784D01*
X178635044Y-95906762D01*
X178638794Y-95878282D01*
X178654407Y-95759685D01*
X178655682Y-95750000D01*
X178652719Y-95727494D01*
X178636319Y-95602921D01*
X178636319Y-95602919D01*
X178635044Y-95593238D01*
X178584712Y-95471726D01*
X178578274Y-95456183D01*
X178578274Y-95456182D01*
X178575713Y-95450000D01*
X178994318Y-95450000D01*
X178995593Y-95459685D01*
X179013176Y-95593238D01*
X179014956Y-95606762D01*
X179018693Y-95615784D01*
X179070276Y-95740315D01*
X179075464Y-95752841D01*
X179171718Y-95878282D01*
X179297159Y-95974536D01*
X179306182Y-95978274D01*
X179306183Y-95978274D01*
X179321868Y-95984771D01*
X179443238Y-96035044D01*
X179452919Y-96036319D01*
X179452921Y-96036319D01*
X179590315Y-96054407D01*
X179600000Y-96055682D01*
X179609685Y-96054407D01*
X179747079Y-96036319D01*
X179747081Y-96036319D01*
X179756762Y-96035044D01*
X179878132Y-95984771D01*
X179893817Y-95978274D01*
X179893818Y-95978274D01*
X179902841Y-95974536D01*
X180028282Y-95878282D01*
X180124536Y-95752841D01*
X180129725Y-95740315D01*
X180181307Y-95615784D01*
X180185044Y-95606762D01*
X180186825Y-95593238D01*
X180204407Y-95459685D01*
X180205682Y-95450000D01*
X180192157Y-95347266D01*
X180186319Y-95302921D01*
X180186319Y-95302919D01*
X180185044Y-95293238D01*
X180124536Y-95147159D01*
X180028282Y-95021718D01*
X179902841Y-94925464D01*
X179776576Y-94873163D01*
X179765784Y-94868693D01*
X179756762Y-94864956D01*
X179747081Y-94863681D01*
X179747079Y-94863681D01*
X179609685Y-94845593D01*
X179600000Y-94844318D01*
X179590315Y-94845593D01*
X179452921Y-94863681D01*
X179452919Y-94863681D01*
X179443238Y-94864956D01*
X179434216Y-94868693D01*
X179423425Y-94873163D01*
X179297159Y-94925464D01*
X179171718Y-95021718D01*
X179075464Y-95147159D01*
X179014956Y-95293238D01*
X179013681Y-95302919D01*
X179013681Y-95302921D01*
X179007843Y-95347266D01*
X178994318Y-95450000D01*
X178575713Y-95450000D01*
X178574536Y-95447159D01*
X178478282Y-95321718D01*
X178352841Y-95225464D01*
X178206762Y-95164956D01*
X178197081Y-95163681D01*
X178197079Y-95163681D01*
X178059685Y-95145593D01*
X178050000Y-95144318D01*
X178040315Y-95145593D01*
X177902921Y-95163681D01*
X177902919Y-95163681D01*
X177893238Y-95164956D01*
X177747159Y-95225464D01*
X177621718Y-95321718D01*
X177525464Y-95447159D01*
X177521726Y-95456182D01*
X177521726Y-95456183D01*
X177515288Y-95471726D01*
X177464956Y-95593238D01*
X177463681Y-95602919D01*
X177463681Y-95602921D01*
X177447281Y-95727494D01*
X177444318Y-95750000D01*
X171246424Y-95750000D01*
X171228274Y-95706183D01*
X171228274Y-95706182D01*
X171224536Y-95697159D01*
X171128282Y-95571718D01*
X171002841Y-95475464D01*
X170856762Y-95414956D01*
X170847081Y-95413681D01*
X170847079Y-95413681D01*
X170709685Y-95395593D01*
X170700000Y-95394318D01*
X170690315Y-95395593D01*
X170552921Y-95413681D01*
X170552919Y-95413681D01*
X170543238Y-95414956D01*
X170397159Y-95475464D01*
X170271718Y-95571718D01*
X170175464Y-95697159D01*
X170171726Y-95706182D01*
X170171726Y-95706183D01*
X170140124Y-95782477D01*
X170114956Y-95843238D01*
X170113681Y-95852919D01*
X170113681Y-95852921D01*
X170098892Y-95965255D01*
X170094318Y-96000000D01*
X168741366Y-96000000D01*
X168778132Y-95984771D01*
X168793817Y-95978274D01*
X168793818Y-95978274D01*
X168802841Y-95974536D01*
X168928282Y-95878282D01*
X169024536Y-95752841D01*
X169029725Y-95740315D01*
X169081307Y-95615784D01*
X169085044Y-95606762D01*
X169086825Y-95593238D01*
X169104407Y-95459685D01*
X169105682Y-95450000D01*
X169092157Y-95347266D01*
X169086319Y-95302921D01*
X169086319Y-95302919D01*
X169085044Y-95293238D01*
X169024536Y-95147159D01*
X168928282Y-95021718D01*
X168802841Y-94925464D01*
X168676576Y-94873163D01*
X168665784Y-94868693D01*
X168656762Y-94864956D01*
X168647081Y-94863681D01*
X168647079Y-94863681D01*
X168509685Y-94845593D01*
X168500000Y-94844318D01*
X168490315Y-94845593D01*
X168352921Y-94863681D01*
X168352919Y-94863681D01*
X168343238Y-94864956D01*
X168334216Y-94868693D01*
X168323425Y-94873163D01*
X168197159Y-94925464D01*
X168071718Y-95021718D01*
X167975464Y-95147159D01*
X167914956Y-95293238D01*
X167913681Y-95302919D01*
X167913681Y-95302921D01*
X167907843Y-95347266D01*
X167894318Y-95450000D01*
X150300500Y-95450000D01*
X150300500Y-94000000D01*
X156694532Y-94000000D01*
X156695099Y-94006481D01*
X156711489Y-94193817D01*
X156714365Y-94226692D01*
X156773261Y-94446496D01*
X156776009Y-94452389D01*
X156866683Y-94646840D01*
X156866686Y-94646845D01*
X156869432Y-94652734D01*
X156999953Y-94839139D01*
X157160861Y-95000047D01*
X157347266Y-95130568D01*
X157353155Y-95133314D01*
X157353160Y-95133317D01*
X157537594Y-95219320D01*
X157553504Y-95226739D01*
X157559785Y-95228422D01*
X157767029Y-95283953D01*
X157767034Y-95283954D01*
X157773308Y-95285635D01*
X157779779Y-95286201D01*
X157779784Y-95286202D01*
X157993519Y-95304901D01*
X158000000Y-95305468D01*
X158006481Y-95304901D01*
X158220216Y-95286202D01*
X158220221Y-95286201D01*
X158226692Y-95285635D01*
X158232966Y-95283954D01*
X158232971Y-95283953D01*
X158440215Y-95228422D01*
X158446496Y-95226739D01*
X158462406Y-95219320D01*
X158646840Y-95133317D01*
X158646845Y-95133314D01*
X158652734Y-95130568D01*
X158839139Y-95000047D01*
X159000047Y-94839139D01*
X159130568Y-94652734D01*
X159133314Y-94646845D01*
X159133317Y-94646840D01*
X159223991Y-94452389D01*
X159226739Y-94446496D01*
X159285635Y-94226692D01*
X159288512Y-94193817D01*
X159304901Y-94006481D01*
X159305468Y-94000000D01*
X159304621Y-93990315D01*
X159296719Y-93900000D01*
X166244318Y-93900000D01*
X166264956Y-94056762D01*
X166268693Y-94065784D01*
X166302367Y-94147079D01*
X166325464Y-94202841D01*
X166421718Y-94328282D01*
X166547159Y-94424536D01*
X166556182Y-94428274D01*
X166556183Y-94428274D01*
X166585011Y-94440215D01*
X166693238Y-94485044D01*
X166702919Y-94486319D01*
X166702921Y-94486319D01*
X166840315Y-94504407D01*
X166850000Y-94505682D01*
X166859685Y-94504407D01*
X166997079Y-94486319D01*
X166997081Y-94486319D01*
X167006762Y-94485044D01*
X167114989Y-94440215D01*
X167143817Y-94428274D01*
X167143818Y-94428274D01*
X167152841Y-94424536D01*
X167278282Y-94328282D01*
X167374536Y-94202841D01*
X167397634Y-94147079D01*
X167431307Y-94065784D01*
X167435044Y-94056762D01*
X167442517Y-94000000D01*
X196394318Y-94000000D01*
X196395593Y-94009685D01*
X196402979Y-94065784D01*
X196414956Y-94156762D01*
X196418693Y-94165784D01*
X196441240Y-94220216D01*
X196475464Y-94302841D01*
X196571718Y-94428282D01*
X196697159Y-94524536D01*
X196843238Y-94585044D01*
X196852919Y-94586319D01*
X196852921Y-94586319D01*
X196990315Y-94604407D01*
X197000000Y-94605682D01*
X197009685Y-94604407D01*
X197147079Y-94586319D01*
X197147081Y-94586319D01*
X197156762Y-94585044D01*
X197302841Y-94524536D01*
X197428282Y-94428282D01*
X197524536Y-94302841D01*
X197558761Y-94220216D01*
X197581307Y-94165784D01*
X197585044Y-94156762D01*
X197597022Y-94065784D01*
X197604407Y-94009685D01*
X197605682Y-94000000D01*
X197585044Y-93843238D01*
X197581307Y-93834216D01*
X197528274Y-93706183D01*
X197528274Y-93706182D01*
X197524536Y-93697159D01*
X197428282Y-93571718D01*
X197302841Y-93475464D01*
X197293798Y-93471718D01*
X197165784Y-93418693D01*
X197156762Y-93414956D01*
X197147081Y-93413681D01*
X197147079Y-93413681D01*
X197009685Y-93395593D01*
X197000000Y-93394318D01*
X196990315Y-93395593D01*
X196852921Y-93413681D01*
X196852919Y-93413681D01*
X196843238Y-93414956D01*
X196834216Y-93418693D01*
X196706203Y-93471718D01*
X196697159Y-93475464D01*
X196571718Y-93571718D01*
X196475464Y-93697159D01*
X196471726Y-93706182D01*
X196471726Y-93706183D01*
X196418693Y-93834216D01*
X196414956Y-93843238D01*
X196394318Y-94000000D01*
X167442517Y-94000000D01*
X167455682Y-93900000D01*
X167448209Y-93843238D01*
X167436319Y-93752921D01*
X167436319Y-93752919D01*
X167435044Y-93743238D01*
X167374536Y-93597159D01*
X167278282Y-93471718D01*
X167152841Y-93375464D01*
X167098995Y-93353160D01*
X167015784Y-93318693D01*
X167006762Y-93314956D01*
X166997081Y-93313681D01*
X166997079Y-93313681D01*
X166859685Y-93295593D01*
X166850000Y-93294318D01*
X166840315Y-93295593D01*
X166702921Y-93313681D01*
X166702919Y-93313681D01*
X166693238Y-93314956D01*
X166684216Y-93318693D01*
X166601006Y-93353160D01*
X166547159Y-93375464D01*
X166421718Y-93471718D01*
X166325464Y-93597159D01*
X166264956Y-93743238D01*
X166263681Y-93752919D01*
X166263681Y-93752921D01*
X166251791Y-93843238D01*
X166244318Y-93900000D01*
X159296719Y-93900000D01*
X159286202Y-93779784D01*
X159286201Y-93779779D01*
X159285635Y-93773308D01*
X159280173Y-93752921D01*
X159228422Y-93559785D01*
X159226739Y-93553504D01*
X159195410Y-93486319D01*
X159133317Y-93353160D01*
X159133314Y-93353155D01*
X159130568Y-93347266D01*
X159000047Y-93160861D01*
X158839139Y-92999953D01*
X158696390Y-92900000D01*
X174194318Y-92900000D01*
X174214956Y-93056762D01*
X174218693Y-93065784D01*
X174262082Y-93170533D01*
X174275464Y-93202841D01*
X174371718Y-93328282D01*
X174497159Y-93424536D01*
X174506182Y-93428274D01*
X174506183Y-93428274D01*
X174620110Y-93475464D01*
X174643238Y-93485044D01*
X174652919Y-93486319D01*
X174652921Y-93486319D01*
X174790315Y-93504407D01*
X174800000Y-93505682D01*
X174809685Y-93504407D01*
X174947079Y-93486319D01*
X174947081Y-93486319D01*
X174956762Y-93485044D01*
X174979890Y-93475464D01*
X175093817Y-93428274D01*
X175093818Y-93428274D01*
X175102841Y-93424536D01*
X175228282Y-93328282D01*
X175324536Y-93202841D01*
X175337919Y-93170533D01*
X175381307Y-93065784D01*
X175385044Y-93056762D01*
X175405682Y-92900000D01*
X175398209Y-92843238D01*
X175386319Y-92752921D01*
X175386319Y-92752919D01*
X175385935Y-92750000D01*
X186194318Y-92750000D01*
X186195593Y-92759685D01*
X186210533Y-92873163D01*
X186214956Y-92906762D01*
X186218693Y-92915784D01*
X186253577Y-93000000D01*
X186275464Y-93052841D01*
X186371718Y-93178282D01*
X186497159Y-93274536D01*
X186643238Y-93335044D01*
X186652919Y-93336319D01*
X186652921Y-93336319D01*
X186790315Y-93354407D01*
X186800000Y-93355682D01*
X186809685Y-93354407D01*
X186947079Y-93336319D01*
X186947081Y-93336319D01*
X186956762Y-93335044D01*
X187102841Y-93274536D01*
X187228282Y-93178282D01*
X187324536Y-93052841D01*
X187346424Y-93000000D01*
X187381307Y-92915784D01*
X187385044Y-92906762D01*
X187389468Y-92873163D01*
X187404407Y-92759685D01*
X187405682Y-92750000D01*
X187400916Y-92713798D01*
X187386319Y-92602921D01*
X187386319Y-92602919D01*
X187385044Y-92593238D01*
X187338723Y-92481410D01*
X187328274Y-92456183D01*
X187328274Y-92456182D01*
X187324536Y-92447159D01*
X187228282Y-92321718D01*
X187102841Y-92225464D01*
X186956762Y-92164956D01*
X186947081Y-92163681D01*
X186947079Y-92163681D01*
X186809685Y-92145593D01*
X186800000Y-92144318D01*
X186790315Y-92145593D01*
X186652921Y-92163681D01*
X186652919Y-92163681D01*
X186643238Y-92164956D01*
X186497159Y-92225464D01*
X186371718Y-92321718D01*
X186275464Y-92447159D01*
X186271726Y-92456182D01*
X186271726Y-92456183D01*
X186261277Y-92481410D01*
X186214956Y-92593238D01*
X186213681Y-92602919D01*
X186213681Y-92602921D01*
X186199084Y-92713798D01*
X186194318Y-92750000D01*
X175385935Y-92750000D01*
X175385044Y-92743238D01*
X175324536Y-92597159D01*
X175228282Y-92471718D01*
X175102841Y-92375464D01*
X174956762Y-92314956D01*
X174947081Y-92313681D01*
X174947079Y-92313681D01*
X174809685Y-92295593D01*
X174800000Y-92294318D01*
X174790315Y-92295593D01*
X174652921Y-92313681D01*
X174652919Y-92313681D01*
X174643238Y-92314956D01*
X174497159Y-92375464D01*
X174371718Y-92471718D01*
X174275464Y-92597159D01*
X174214956Y-92743238D01*
X174213681Y-92752919D01*
X174213681Y-92752921D01*
X174201791Y-92843238D01*
X174194318Y-92900000D01*
X158696390Y-92900000D01*
X158652734Y-92869432D01*
X158646845Y-92866686D01*
X158646840Y-92866683D01*
X158452389Y-92776009D01*
X158446496Y-92773261D01*
X158440215Y-92771578D01*
X158232971Y-92716047D01*
X158232966Y-92716046D01*
X158226692Y-92714365D01*
X158220221Y-92713799D01*
X158220216Y-92713798D01*
X158006481Y-92695099D01*
X158000000Y-92694532D01*
X157993519Y-92695099D01*
X157779784Y-92713798D01*
X157779779Y-92713799D01*
X157773308Y-92714365D01*
X157767034Y-92716046D01*
X157767029Y-92716047D01*
X157559785Y-92771578D01*
X157553504Y-92773261D01*
X157547611Y-92776009D01*
X157353160Y-92866683D01*
X157353155Y-92866686D01*
X157347266Y-92869432D01*
X157160861Y-92999953D01*
X156999953Y-93160861D01*
X156869432Y-93347266D01*
X156866686Y-93353155D01*
X156866683Y-93353160D01*
X156804590Y-93486319D01*
X156773261Y-93553504D01*
X156771578Y-93559785D01*
X156719828Y-93752921D01*
X156714365Y-93773308D01*
X156713799Y-93779779D01*
X156713798Y-93779784D01*
X156695379Y-93990315D01*
X156694532Y-94000000D01*
X150300500Y-94000000D01*
X150300500Y-93000000D01*
X151394318Y-93000000D01*
X151395593Y-93009685D01*
X151402979Y-93065784D01*
X151414956Y-93156762D01*
X151475464Y-93302841D01*
X151571718Y-93428282D01*
X151697159Y-93524536D01*
X151843238Y-93585044D01*
X151852919Y-93586319D01*
X151852921Y-93586319D01*
X151990315Y-93604407D01*
X152000000Y-93605682D01*
X152009685Y-93604407D01*
X152147079Y-93586319D01*
X152147081Y-93586319D01*
X152156762Y-93585044D01*
X152302841Y-93524536D01*
X152428282Y-93428282D01*
X152524536Y-93302841D01*
X152585044Y-93156762D01*
X152597022Y-93065784D01*
X152604407Y-93009685D01*
X152605682Y-93000000D01*
X152588984Y-92873163D01*
X152586319Y-92852921D01*
X152586319Y-92852919D01*
X152585044Y-92843238D01*
X152550435Y-92759685D01*
X152528274Y-92706183D01*
X152528274Y-92706182D01*
X152524536Y-92697159D01*
X152428282Y-92571718D01*
X152302841Y-92475464D01*
X152293798Y-92471718D01*
X152165784Y-92418693D01*
X152156762Y-92414956D01*
X152147081Y-92413681D01*
X152147079Y-92413681D01*
X152009685Y-92395593D01*
X152000000Y-92394318D01*
X151990315Y-92395593D01*
X151852921Y-92413681D01*
X151852919Y-92413681D01*
X151843238Y-92414956D01*
X151834216Y-92418693D01*
X151706203Y-92471718D01*
X151697159Y-92475464D01*
X151571718Y-92571718D01*
X151475464Y-92697159D01*
X151471726Y-92706182D01*
X151471726Y-92706183D01*
X151449565Y-92759685D01*
X151414956Y-92843238D01*
X151413681Y-92852919D01*
X151413681Y-92852921D01*
X151411016Y-92873163D01*
X151394318Y-93000000D01*
X150300500Y-93000000D01*
X150300500Y-92000000D01*
X164394318Y-92000000D01*
X164395593Y-92009685D01*
X164413486Y-92145593D01*
X164414956Y-92156762D01*
X164475464Y-92302841D01*
X164571718Y-92428282D01*
X164697159Y-92524536D01*
X164843238Y-92585044D01*
X164852919Y-92586319D01*
X164852921Y-92586319D01*
X164990315Y-92604407D01*
X165000000Y-92605682D01*
X165009685Y-92604407D01*
X165147079Y-92586319D01*
X165147081Y-92586319D01*
X165156762Y-92585044D01*
X165302841Y-92524536D01*
X165428282Y-92428282D01*
X165524536Y-92302841D01*
X165585044Y-92156762D01*
X165586515Y-92145593D01*
X165604407Y-92009685D01*
X165605682Y-92000000D01*
X193394318Y-92000000D01*
X193395593Y-92009685D01*
X193413486Y-92145593D01*
X193414956Y-92156762D01*
X193475464Y-92302841D01*
X193571718Y-92428282D01*
X193697159Y-92524536D01*
X193843238Y-92585044D01*
X193852919Y-92586319D01*
X193852921Y-92586319D01*
X193990315Y-92604407D01*
X194000000Y-92605682D01*
X194009685Y-92604407D01*
X194147079Y-92586319D01*
X194147081Y-92586319D01*
X194156762Y-92585044D01*
X194302841Y-92524536D01*
X194428282Y-92428282D01*
X194524536Y-92302841D01*
X194585044Y-92156762D01*
X194586515Y-92145593D01*
X194604407Y-92009685D01*
X194605682Y-92000000D01*
X194585044Y-91843238D01*
X194524536Y-91697159D01*
X194428282Y-91571718D01*
X194302841Y-91475464D01*
X194156762Y-91414956D01*
X194147081Y-91413681D01*
X194147079Y-91413681D01*
X194009685Y-91395593D01*
X194000000Y-91394318D01*
X193990315Y-91395593D01*
X193852921Y-91413681D01*
X193852919Y-91413681D01*
X193843238Y-91414956D01*
X193697159Y-91475464D01*
X193571718Y-91571718D01*
X193475464Y-91697159D01*
X193414956Y-91843238D01*
X193394318Y-92000000D01*
X165605682Y-92000000D01*
X165585044Y-91843238D01*
X165524536Y-91697159D01*
X165428282Y-91571718D01*
X165302841Y-91475464D01*
X165156762Y-91414956D01*
X165147081Y-91413681D01*
X165147079Y-91413681D01*
X165009685Y-91395593D01*
X165000000Y-91394318D01*
X164990315Y-91395593D01*
X164852921Y-91413681D01*
X164852919Y-91413681D01*
X164843238Y-91414956D01*
X164697159Y-91475464D01*
X164571718Y-91571718D01*
X164475464Y-91697159D01*
X164414956Y-91843238D01*
X164394318Y-92000000D01*
X150300500Y-92000000D01*
X150300500Y-91000000D01*
X186194318Y-91000000D01*
X186214956Y-91156762D01*
X186275464Y-91302841D01*
X186371718Y-91428282D01*
X186497159Y-91524536D01*
X186643238Y-91585044D01*
X186652919Y-91586319D01*
X186652921Y-91586319D01*
X186790315Y-91604407D01*
X186800000Y-91605682D01*
X186809685Y-91604407D01*
X186947079Y-91586319D01*
X186947081Y-91586319D01*
X186956762Y-91585044D01*
X187102841Y-91524536D01*
X187228282Y-91428282D01*
X187324536Y-91302841D01*
X187385044Y-91156762D01*
X187405682Y-91000000D01*
X187385044Y-90843238D01*
X187324536Y-90697159D01*
X187228282Y-90571718D01*
X187102841Y-90475464D01*
X186956762Y-90414956D01*
X186947081Y-90413681D01*
X186947079Y-90413681D01*
X186809685Y-90395593D01*
X186800000Y-90394318D01*
X186790315Y-90395593D01*
X186652921Y-90413681D01*
X186652919Y-90413681D01*
X186643238Y-90414956D01*
X186497159Y-90475464D01*
X186371718Y-90571718D01*
X186275464Y-90697159D01*
X186214956Y-90843238D01*
X186194318Y-91000000D01*
X150300500Y-91000000D01*
X150300500Y-90000000D01*
X161894318Y-90000000D01*
X161914956Y-90156762D01*
X161918693Y-90165784D01*
X161947382Y-90235044D01*
X161975464Y-90302841D01*
X162071718Y-90428282D01*
X162197159Y-90524536D01*
X162343238Y-90585044D01*
X162352919Y-90586319D01*
X162352921Y-90586319D01*
X162490315Y-90604407D01*
X162500000Y-90605682D01*
X162509685Y-90604407D01*
X162647079Y-90586319D01*
X162647081Y-90586319D01*
X162656762Y-90585044D01*
X162802841Y-90524536D01*
X162928282Y-90428282D01*
X163024536Y-90302841D01*
X163052619Y-90235044D01*
X163081307Y-90165784D01*
X163085044Y-90156762D01*
X163105682Y-90000000D01*
X163100494Y-89960590D01*
X163086319Y-89852921D01*
X163086319Y-89852919D01*
X163085044Y-89843238D01*
X163024536Y-89697159D01*
X162988350Y-89650000D01*
X166244318Y-89650000D01*
X166245593Y-89659685D01*
X166251715Y-89706183D01*
X166264956Y-89806762D01*
X166325464Y-89952841D01*
X166421718Y-90078282D01*
X166547159Y-90174536D01*
X166693238Y-90235044D01*
X166702919Y-90236319D01*
X166702921Y-90236319D01*
X166840315Y-90254407D01*
X166850000Y-90255682D01*
X166859685Y-90254407D01*
X166997079Y-90236319D01*
X166997081Y-90236319D01*
X167006762Y-90235044D01*
X167152841Y-90174536D01*
X167278282Y-90078282D01*
X167374536Y-89952841D01*
X167435044Y-89806762D01*
X167448286Y-89706183D01*
X167454407Y-89659685D01*
X167455682Y-89650000D01*
X167454407Y-89640315D01*
X167436319Y-89502921D01*
X167436319Y-89502919D01*
X167435044Y-89493238D01*
X167404166Y-89418693D01*
X167378274Y-89356183D01*
X167378274Y-89356182D01*
X167374536Y-89347159D01*
X167278282Y-89221718D01*
X167152841Y-89125464D01*
X167006762Y-89064956D01*
X166997081Y-89063681D01*
X166997079Y-89063681D01*
X166859685Y-89045593D01*
X166850000Y-89044318D01*
X166840315Y-89045593D01*
X166702921Y-89063681D01*
X166702919Y-89063681D01*
X166693238Y-89064956D01*
X166547159Y-89125464D01*
X166421718Y-89221718D01*
X166325464Y-89347159D01*
X166321726Y-89356182D01*
X166321726Y-89356183D01*
X166295834Y-89418693D01*
X166264956Y-89493238D01*
X166263681Y-89502919D01*
X166263681Y-89502921D01*
X166245593Y-89640315D01*
X166244318Y-89650000D01*
X162988350Y-89650000D01*
X162928282Y-89571718D01*
X162802841Y-89475464D01*
X162656762Y-89414956D01*
X162647081Y-89413681D01*
X162647079Y-89413681D01*
X162509685Y-89395593D01*
X162500000Y-89394318D01*
X162490315Y-89395593D01*
X162352921Y-89413681D01*
X162352919Y-89413681D01*
X162343238Y-89414956D01*
X162197159Y-89475464D01*
X162071718Y-89571718D01*
X161975464Y-89697159D01*
X161914956Y-89843238D01*
X161913681Y-89852919D01*
X161913681Y-89852921D01*
X161899506Y-89960590D01*
X161894318Y-90000000D01*
X150300500Y-90000000D01*
X150300500Y-89000000D01*
X164394318Y-89000000D01*
X164395593Y-89009685D01*
X164410836Y-89125464D01*
X164414956Y-89156762D01*
X164475464Y-89302841D01*
X164571718Y-89428282D01*
X164697159Y-89524536D01*
X164843238Y-89585044D01*
X164852919Y-89586319D01*
X164852921Y-89586319D01*
X164990315Y-89604407D01*
X165000000Y-89605682D01*
X165009685Y-89604407D01*
X165147079Y-89586319D01*
X165147081Y-89586319D01*
X165156762Y-89585044D01*
X165302841Y-89524536D01*
X165428282Y-89428282D01*
X165524536Y-89302841D01*
X165585044Y-89156762D01*
X165589165Y-89125464D01*
X165604407Y-89009685D01*
X165605682Y-89000000D01*
X165585044Y-88843238D01*
X165550435Y-88759685D01*
X165546423Y-88750000D01*
X178844318Y-88750000D01*
X178864956Y-88906762D01*
X178868693Y-88915784D01*
X178903577Y-89000000D01*
X178925464Y-89052841D01*
X179021718Y-89178282D01*
X179147159Y-89274536D01*
X179293238Y-89335044D01*
X179302919Y-89336319D01*
X179302921Y-89336319D01*
X179440315Y-89354407D01*
X179450000Y-89355682D01*
X179459685Y-89354407D01*
X179597079Y-89336319D01*
X179597081Y-89336319D01*
X179606762Y-89335044D01*
X179752841Y-89274536D01*
X179878282Y-89178282D01*
X179974536Y-89052841D01*
X179996424Y-89000000D01*
X180031307Y-88915784D01*
X180035044Y-88906762D01*
X180055682Y-88750000D01*
X181944318Y-88750000D01*
X181964956Y-88906762D01*
X181968693Y-88915784D01*
X182003577Y-89000000D01*
X182025464Y-89052841D01*
X182121718Y-89178282D01*
X182247159Y-89274536D01*
X182393238Y-89335044D01*
X182402919Y-89336319D01*
X182402921Y-89336319D01*
X182540315Y-89354407D01*
X182550000Y-89355682D01*
X182559685Y-89354407D01*
X182697079Y-89336319D01*
X182697081Y-89336319D01*
X182706762Y-89335044D01*
X182852841Y-89274536D01*
X182978282Y-89178282D01*
X183074536Y-89052841D01*
X183096424Y-89000000D01*
X183131307Y-88915784D01*
X183135044Y-88906762D01*
X183155682Y-88750000D01*
X183154407Y-88740315D01*
X183136319Y-88602921D01*
X183136319Y-88602919D01*
X183135044Y-88593238D01*
X183074536Y-88447159D01*
X182978282Y-88321718D01*
X182852841Y-88225464D01*
X182706762Y-88164956D01*
X182697081Y-88163681D01*
X182697079Y-88163681D01*
X182559685Y-88145593D01*
X182550000Y-88144318D01*
X182540315Y-88145593D01*
X182402921Y-88163681D01*
X182402919Y-88163681D01*
X182393238Y-88164956D01*
X182247159Y-88225464D01*
X182121718Y-88321718D01*
X182025464Y-88447159D01*
X181964956Y-88593238D01*
X181963681Y-88602919D01*
X181963681Y-88602921D01*
X181945593Y-88740315D01*
X181944318Y-88750000D01*
X180055682Y-88750000D01*
X180054407Y-88740315D01*
X180036319Y-88602921D01*
X180036319Y-88602919D01*
X180035044Y-88593238D01*
X179974536Y-88447159D01*
X179878282Y-88321718D01*
X179752841Y-88225464D01*
X179606762Y-88164956D01*
X179597081Y-88163681D01*
X179597079Y-88163681D01*
X179459685Y-88145593D01*
X179450000Y-88144318D01*
X179440315Y-88145593D01*
X179302921Y-88163681D01*
X179302919Y-88163681D01*
X179293238Y-88164956D01*
X179147159Y-88225464D01*
X179021718Y-88321718D01*
X178925464Y-88447159D01*
X178864956Y-88593238D01*
X178863681Y-88602919D01*
X178863681Y-88602921D01*
X178845593Y-88740315D01*
X178844318Y-88750000D01*
X165546423Y-88750000D01*
X165528274Y-88706183D01*
X165528274Y-88706182D01*
X165524536Y-88697159D01*
X165428282Y-88571718D01*
X165302841Y-88475464D01*
X165156762Y-88414956D01*
X165147081Y-88413681D01*
X165147079Y-88413681D01*
X165009685Y-88395593D01*
X165000000Y-88394318D01*
X164990315Y-88395593D01*
X164852921Y-88413681D01*
X164852919Y-88413681D01*
X164843238Y-88414956D01*
X164697159Y-88475464D01*
X164571718Y-88571718D01*
X164475464Y-88697159D01*
X164471726Y-88706182D01*
X164471726Y-88706183D01*
X164449565Y-88759685D01*
X164414956Y-88843238D01*
X164394318Y-89000000D01*
X150300500Y-89000000D01*
X150300500Y-88000000D01*
X155394318Y-88000000D01*
X155395593Y-88009685D01*
X155413486Y-88145593D01*
X155414956Y-88156762D01*
X155475464Y-88302841D01*
X155571718Y-88428282D01*
X155697159Y-88524536D01*
X155843238Y-88585044D01*
X155852919Y-88586319D01*
X155852921Y-88586319D01*
X155990315Y-88604407D01*
X156000000Y-88605682D01*
X156009685Y-88604407D01*
X156147079Y-88586319D01*
X156147081Y-88586319D01*
X156156762Y-88585044D01*
X156302841Y-88524536D01*
X156428282Y-88428282D01*
X156524536Y-88302841D01*
X156585044Y-88156762D01*
X156586515Y-88145593D01*
X156604407Y-88009685D01*
X156605682Y-88000000D01*
X156585044Y-87843238D01*
X156524536Y-87697159D01*
X156428282Y-87571718D01*
X156302841Y-87475464D01*
X156156762Y-87414956D01*
X156147081Y-87413681D01*
X156147079Y-87413681D01*
X156009685Y-87395593D01*
X156000000Y-87394318D01*
X155990315Y-87395593D01*
X155852921Y-87413681D01*
X155852919Y-87413681D01*
X155843238Y-87414956D01*
X155697159Y-87475464D01*
X155571718Y-87571718D01*
X155475464Y-87697159D01*
X155414956Y-87843238D01*
X155394318Y-88000000D01*
X150300500Y-88000000D01*
X150300500Y-86050000D01*
X151644532Y-86050000D01*
X151664365Y-86276692D01*
X151666046Y-86282966D01*
X151666047Y-86282971D01*
X151683275Y-86347266D01*
X151723261Y-86496496D01*
X151726009Y-86502389D01*
X151816683Y-86696840D01*
X151816686Y-86696845D01*
X151819432Y-86702734D01*
X151949953Y-86889139D01*
X152110861Y-87050047D01*
X152297266Y-87180568D01*
X152303155Y-87183314D01*
X152303160Y-87183317D01*
X152487594Y-87269320D01*
X152503504Y-87276739D01*
X152509785Y-87278422D01*
X152717029Y-87333953D01*
X152717034Y-87333954D01*
X152723308Y-87335635D01*
X152729779Y-87336201D01*
X152729784Y-87336202D01*
X152943519Y-87354901D01*
X152950000Y-87355468D01*
X152956481Y-87354901D01*
X153170216Y-87336202D01*
X153170221Y-87336201D01*
X153176692Y-87335635D01*
X153182966Y-87333954D01*
X153182971Y-87333953D01*
X153390215Y-87278422D01*
X153396496Y-87276739D01*
X153412406Y-87269320D01*
X153596840Y-87183317D01*
X153596845Y-87183314D01*
X153602734Y-87180568D01*
X153789139Y-87050047D01*
X153839186Y-87000000D01*
X172944532Y-87000000D01*
X172945099Y-87006481D01*
X172960330Y-87180568D01*
X172964365Y-87226692D01*
X172966046Y-87232966D01*
X172966047Y-87232971D01*
X172977775Y-87276739D01*
X173023261Y-87446496D01*
X173026009Y-87452389D01*
X173116683Y-87646840D01*
X173116686Y-87646845D01*
X173119432Y-87652734D01*
X173249953Y-87839139D01*
X173410861Y-88000047D01*
X173597266Y-88130568D01*
X173603155Y-88133314D01*
X173603160Y-88133317D01*
X173787594Y-88219320D01*
X173803504Y-88226739D01*
X173809785Y-88228422D01*
X174017029Y-88283953D01*
X174017034Y-88283954D01*
X174023308Y-88285635D01*
X174029779Y-88286201D01*
X174029784Y-88286202D01*
X174243519Y-88304901D01*
X174250000Y-88305468D01*
X174256481Y-88304901D01*
X174470216Y-88286202D01*
X174470221Y-88286201D01*
X174476692Y-88285635D01*
X174482966Y-88283954D01*
X174482971Y-88283953D01*
X174690215Y-88228422D01*
X174696496Y-88226739D01*
X174712406Y-88219320D01*
X174896840Y-88133317D01*
X174896845Y-88133314D01*
X174902734Y-88130568D01*
X175089139Y-88000047D01*
X175089186Y-88000000D01*
X188394318Y-88000000D01*
X188395593Y-88009685D01*
X188413486Y-88145593D01*
X188414956Y-88156762D01*
X188475464Y-88302841D01*
X188571718Y-88428282D01*
X188697159Y-88524536D01*
X188843238Y-88585044D01*
X188852919Y-88586319D01*
X188852921Y-88586319D01*
X188990315Y-88604407D01*
X189000000Y-88605682D01*
X189009685Y-88604407D01*
X189147079Y-88586319D01*
X189147081Y-88586319D01*
X189156762Y-88585044D01*
X189302841Y-88524536D01*
X189428282Y-88428282D01*
X189524536Y-88302841D01*
X189585044Y-88156762D01*
X189586515Y-88145593D01*
X189604407Y-88009685D01*
X189605682Y-88000000D01*
X189585044Y-87843238D01*
X189524536Y-87697159D01*
X189428282Y-87571718D01*
X189302841Y-87475464D01*
X189156762Y-87414956D01*
X189147081Y-87413681D01*
X189147079Y-87413681D01*
X189009685Y-87395593D01*
X189000000Y-87394318D01*
X188990315Y-87395593D01*
X188852921Y-87413681D01*
X188852919Y-87413681D01*
X188843238Y-87414956D01*
X188697159Y-87475464D01*
X188571718Y-87571718D01*
X188475464Y-87697159D01*
X188414956Y-87843238D01*
X188394318Y-88000000D01*
X175089186Y-88000000D01*
X175250047Y-87839139D01*
X175380568Y-87652734D01*
X175383314Y-87646845D01*
X175383317Y-87646840D01*
X175473991Y-87452389D01*
X175476739Y-87446496D01*
X175522225Y-87276739D01*
X175533953Y-87232971D01*
X175533954Y-87232966D01*
X175535635Y-87226692D01*
X175539671Y-87180568D01*
X175554901Y-87006481D01*
X175555468Y-87000000D01*
X175551522Y-86954901D01*
X175536202Y-86779784D01*
X175536201Y-86779779D01*
X175535635Y-86773308D01*
X175518153Y-86708062D01*
X175478422Y-86559785D01*
X175476739Y-86553504D01*
X175446725Y-86489139D01*
X175383317Y-86353160D01*
X175383314Y-86353155D01*
X175380568Y-86347266D01*
X175250047Y-86160861D01*
X175089139Y-85999953D01*
X174902734Y-85869432D01*
X174896845Y-85866686D01*
X174896840Y-85866683D01*
X174702389Y-85776009D01*
X174696496Y-85773261D01*
X174690215Y-85771578D01*
X174482971Y-85716047D01*
X174482966Y-85716046D01*
X174476692Y-85714365D01*
X174470221Y-85713799D01*
X174470216Y-85713798D01*
X174256481Y-85695099D01*
X174250000Y-85694532D01*
X174243519Y-85695099D01*
X174029784Y-85713798D01*
X174029779Y-85713799D01*
X174023308Y-85714365D01*
X174017034Y-85716046D01*
X174017029Y-85716047D01*
X173809785Y-85771578D01*
X173803504Y-85773261D01*
X173797611Y-85776009D01*
X173603160Y-85866683D01*
X173603155Y-85866686D01*
X173597266Y-85869432D01*
X173410861Y-85999953D01*
X173249953Y-86160861D01*
X173119432Y-86347266D01*
X173116686Y-86353155D01*
X173116683Y-86353160D01*
X173053275Y-86489139D01*
X173023261Y-86553504D01*
X173021578Y-86559785D01*
X172981848Y-86708062D01*
X172964365Y-86773308D01*
X172963799Y-86779779D01*
X172963798Y-86779784D01*
X172948478Y-86954901D01*
X172944532Y-87000000D01*
X153839186Y-87000000D01*
X153950047Y-86889139D01*
X154080568Y-86702734D01*
X154083314Y-86696845D01*
X154083317Y-86696840D01*
X154173991Y-86502389D01*
X154176739Y-86496496D01*
X154216725Y-86347266D01*
X154233953Y-86282971D01*
X154233954Y-86282966D01*
X154235635Y-86276692D01*
X154255468Y-86050000D01*
X154251492Y-86004549D01*
X154236202Y-85829784D01*
X154236201Y-85829779D01*
X154235635Y-85823308D01*
X154222962Y-85776009D01*
X154189198Y-85650000D01*
X194444532Y-85650000D01*
X194445099Y-85656481D01*
X194463730Y-85869432D01*
X194464365Y-85876692D01*
X194466046Y-85882966D01*
X194466047Y-85882971D01*
X194498624Y-86004549D01*
X194523261Y-86096496D01*
X194526009Y-86102389D01*
X194616683Y-86296840D01*
X194616686Y-86296845D01*
X194619432Y-86302734D01*
X194749953Y-86489139D01*
X194910861Y-86650047D01*
X195097266Y-86780568D01*
X195103155Y-86783314D01*
X195103160Y-86783317D01*
X195287594Y-86869320D01*
X195303504Y-86876739D01*
X195309785Y-86878422D01*
X195517029Y-86933953D01*
X195517034Y-86933954D01*
X195523308Y-86935635D01*
X195529779Y-86936201D01*
X195529784Y-86936202D01*
X195743519Y-86954901D01*
X195750000Y-86955468D01*
X195756481Y-86954901D01*
X195970216Y-86936202D01*
X195970221Y-86936201D01*
X195976692Y-86935635D01*
X195982966Y-86933954D01*
X195982971Y-86933953D01*
X196190215Y-86878422D01*
X196196496Y-86876739D01*
X196212406Y-86869320D01*
X196396840Y-86783317D01*
X196396845Y-86783314D01*
X196402734Y-86780568D01*
X196589139Y-86650047D01*
X196750047Y-86489139D01*
X196880568Y-86302734D01*
X196883314Y-86296845D01*
X196883317Y-86296840D01*
X196973991Y-86102389D01*
X196976739Y-86096496D01*
X197001376Y-86004549D01*
X197033953Y-85882971D01*
X197033954Y-85882966D01*
X197035635Y-85876692D01*
X197036271Y-85869432D01*
X197054901Y-85656481D01*
X197055468Y-85650000D01*
X197049458Y-85581307D01*
X197036202Y-85429784D01*
X197036201Y-85429779D01*
X197035635Y-85423308D01*
X197030237Y-85403160D01*
X196978422Y-85209785D01*
X196976739Y-85203504D01*
X196954943Y-85156762D01*
X196883317Y-85003160D01*
X196883314Y-85003155D01*
X196880568Y-84997266D01*
X196750047Y-84810861D01*
X196589139Y-84649953D01*
X196402734Y-84519432D01*
X196396845Y-84516686D01*
X196396840Y-84516683D01*
X196202389Y-84426009D01*
X196196496Y-84423261D01*
X196160743Y-84413681D01*
X195982971Y-84366047D01*
X195982966Y-84366046D01*
X195976692Y-84364365D01*
X195970221Y-84363799D01*
X195970216Y-84363798D01*
X195756481Y-84345099D01*
X195750000Y-84344532D01*
X195743519Y-84345099D01*
X195529784Y-84363798D01*
X195529779Y-84363799D01*
X195523308Y-84364365D01*
X195517034Y-84366046D01*
X195517029Y-84366047D01*
X195339257Y-84413681D01*
X195303504Y-84423261D01*
X195297611Y-84426009D01*
X195103160Y-84516683D01*
X195103155Y-84516686D01*
X195097266Y-84519432D01*
X194910861Y-84649953D01*
X194749953Y-84810861D01*
X194619432Y-84997266D01*
X194616686Y-85003155D01*
X194616683Y-85003160D01*
X194545057Y-85156762D01*
X194523261Y-85203504D01*
X194521578Y-85209785D01*
X194469764Y-85403160D01*
X194464365Y-85423308D01*
X194463799Y-85429779D01*
X194463798Y-85429784D01*
X194450542Y-85581307D01*
X194444532Y-85650000D01*
X154189198Y-85650000D01*
X154178422Y-85609785D01*
X154176739Y-85603504D01*
X154166388Y-85581307D01*
X154083317Y-85403160D01*
X154083314Y-85403155D01*
X154080568Y-85397266D01*
X153950047Y-85210861D01*
X153789139Y-85049953D01*
X153717798Y-85000000D01*
X185394318Y-85000000D01*
X185414956Y-85156762D01*
X185475464Y-85302841D01*
X185571718Y-85428282D01*
X185697159Y-85524536D01*
X185843238Y-85585044D01*
X185852919Y-85586319D01*
X185852921Y-85586319D01*
X185990315Y-85604407D01*
X186000000Y-85605682D01*
X186009685Y-85604407D01*
X186147079Y-85586319D01*
X186147081Y-85586319D01*
X186156762Y-85585044D01*
X186302841Y-85524536D01*
X186428282Y-85428282D01*
X186524536Y-85302841D01*
X186585044Y-85156762D01*
X186605682Y-85000000D01*
X186585044Y-84843238D01*
X186552139Y-84763798D01*
X186528274Y-84706183D01*
X186528274Y-84706182D01*
X186524536Y-84697159D01*
X186428282Y-84571718D01*
X186302841Y-84475464D01*
X186156762Y-84414956D01*
X186147081Y-84413681D01*
X186147079Y-84413681D01*
X186009685Y-84395593D01*
X186000000Y-84394318D01*
X185990315Y-84395593D01*
X185852921Y-84413681D01*
X185852919Y-84413681D01*
X185843238Y-84414956D01*
X185697159Y-84475464D01*
X185571718Y-84571718D01*
X185475464Y-84697159D01*
X185471726Y-84706182D01*
X185471726Y-84706183D01*
X185447861Y-84763798D01*
X185414956Y-84843238D01*
X185394318Y-85000000D01*
X153717798Y-85000000D01*
X153602734Y-84919432D01*
X153596845Y-84916686D01*
X153596840Y-84916683D01*
X153402389Y-84826009D01*
X153396496Y-84823261D01*
X153390215Y-84821578D01*
X153182971Y-84766047D01*
X153182966Y-84766046D01*
X153176692Y-84764365D01*
X153170221Y-84763799D01*
X153170216Y-84763798D01*
X152956481Y-84745099D01*
X152950000Y-84744532D01*
X152943519Y-84745099D01*
X152729784Y-84763798D01*
X152729779Y-84763799D01*
X152723308Y-84764365D01*
X152717034Y-84766046D01*
X152717029Y-84766047D01*
X152509785Y-84821578D01*
X152503504Y-84823261D01*
X152497611Y-84826009D01*
X152303160Y-84916683D01*
X152303155Y-84916686D01*
X152297266Y-84919432D01*
X152110861Y-85049953D01*
X151949953Y-85210861D01*
X151819432Y-85397266D01*
X151816686Y-85403155D01*
X151816683Y-85403160D01*
X151733612Y-85581307D01*
X151723261Y-85603504D01*
X151721578Y-85609785D01*
X151677039Y-85776009D01*
X151664365Y-85823308D01*
X151663799Y-85829779D01*
X151663798Y-85829784D01*
X151648508Y-86004549D01*
X151644532Y-86050000D01*
X150300500Y-86050000D01*
X150300500Y-84000000D01*
X170394318Y-84000000D01*
X170414956Y-84156762D01*
X170475464Y-84302841D01*
X170571718Y-84428282D01*
X170697159Y-84524536D01*
X170843238Y-84585044D01*
X170852919Y-84586319D01*
X170852921Y-84586319D01*
X170990315Y-84604407D01*
X171000000Y-84605682D01*
X171009685Y-84604407D01*
X171147079Y-84586319D01*
X171147081Y-84586319D01*
X171156762Y-84585044D01*
X171302841Y-84524536D01*
X171428282Y-84428282D01*
X171524536Y-84302841D01*
X171585044Y-84156762D01*
X171605682Y-84000000D01*
X171585044Y-83843238D01*
X171524536Y-83697159D01*
X171428282Y-83571718D01*
X171302841Y-83475464D01*
X171156762Y-83414956D01*
X171147081Y-83413681D01*
X171147079Y-83413681D01*
X171009685Y-83395593D01*
X171000000Y-83394318D01*
X170990315Y-83395593D01*
X170852921Y-83413681D01*
X170852919Y-83413681D01*
X170843238Y-83414956D01*
X170697159Y-83475464D01*
X170571718Y-83571718D01*
X170475464Y-83697159D01*
X170414956Y-83843238D01*
X170394318Y-84000000D01*
X150300500Y-84000000D01*
X150300500Y-79500000D01*
X150994696Y-79500000D01*
X151013898Y-79866404D01*
X151071295Y-80228794D01*
X151072304Y-80232558D01*
X151163182Y-80571718D01*
X151166258Y-80583199D01*
X151297745Y-80925736D01*
X151299514Y-80929208D01*
X151299515Y-80929210D01*
X151410526Y-81147079D01*
X151464318Y-81252652D01*
X151466445Y-81255928D01*
X151466446Y-81255929D01*
X151612875Y-81481410D01*
X151664149Y-81560366D01*
X151666602Y-81563395D01*
X151666604Y-81563398D01*
X151684133Y-81585044D01*
X151895051Y-81845506D01*
X152154494Y-82104949D01*
X152439634Y-82335851D01*
X152442906Y-82337976D01*
X152442909Y-82337978D01*
X152744071Y-82533554D01*
X152747348Y-82535682D01*
X152750822Y-82537452D01*
X152750827Y-82537455D01*
X153070790Y-82700485D01*
X153074264Y-82702255D01*
X153416801Y-82833742D01*
X153420563Y-82834750D01*
X153420569Y-82834752D01*
X153578376Y-82877036D01*
X153771206Y-82928705D01*
X154133596Y-82986102D01*
X154137483Y-82986306D01*
X154137486Y-82986306D01*
X154496107Y-83005100D01*
X154500000Y-83005304D01*
X154503893Y-83005100D01*
X154862514Y-82986306D01*
X154862517Y-82986306D01*
X154866404Y-82986102D01*
X155228794Y-82928705D01*
X155421624Y-82877036D01*
X155579431Y-82834752D01*
X155579437Y-82834750D01*
X155583199Y-82833742D01*
X155925736Y-82702255D01*
X155929210Y-82700485D01*
X156249173Y-82537455D01*
X156249178Y-82537452D01*
X156252652Y-82535682D01*
X156255929Y-82533554D01*
X156557091Y-82337978D01*
X156557094Y-82337976D01*
X156560366Y-82335851D01*
X156845506Y-82104949D01*
X156950455Y-82000000D01*
X164394318Y-82000000D01*
X164414956Y-82156762D01*
X164475464Y-82302841D01*
X164571718Y-82428282D01*
X164697159Y-82524536D01*
X164706182Y-82528274D01*
X164706183Y-82528274D01*
X164728348Y-82537455D01*
X164843238Y-82585044D01*
X164852919Y-82586319D01*
X164852921Y-82586319D01*
X164990315Y-82604407D01*
X165000000Y-82605682D01*
X165009685Y-82604407D01*
X165147079Y-82586319D01*
X165147081Y-82586319D01*
X165156762Y-82585044D01*
X165271652Y-82537455D01*
X165293817Y-82528274D01*
X165293818Y-82528274D01*
X165302841Y-82524536D01*
X165428282Y-82428282D01*
X165524536Y-82302841D01*
X165585044Y-82156762D01*
X165605682Y-82000000D01*
X165585044Y-81843238D01*
X165524536Y-81697159D01*
X165428282Y-81571718D01*
X165302841Y-81475464D01*
X165156762Y-81414956D01*
X165147081Y-81413681D01*
X165147079Y-81413681D01*
X165009685Y-81395593D01*
X165000000Y-81394318D01*
X164990315Y-81395593D01*
X164852921Y-81413681D01*
X164852919Y-81413681D01*
X164843238Y-81414956D01*
X164697159Y-81475464D01*
X164571718Y-81571718D01*
X164475464Y-81697159D01*
X164414956Y-81843238D01*
X164394318Y-82000000D01*
X156950455Y-82000000D01*
X157104949Y-81845506D01*
X157315867Y-81585044D01*
X157333396Y-81563398D01*
X157333398Y-81563395D01*
X157335851Y-81560366D01*
X157387126Y-81481410D01*
X157533554Y-81255929D01*
X157533555Y-81255928D01*
X157535682Y-81252652D01*
X157589475Y-81147079D01*
X157664416Y-81000000D01*
X179394318Y-81000000D01*
X179414956Y-81156762D01*
X179475464Y-81302841D01*
X179571718Y-81428282D01*
X179697159Y-81524536D01*
X179706182Y-81528274D01*
X179706183Y-81528274D01*
X179783660Y-81560366D01*
X179843238Y-81585044D01*
X179852919Y-81586319D01*
X179852921Y-81586319D01*
X179990315Y-81604407D01*
X180000000Y-81605682D01*
X180009685Y-81604407D01*
X180147079Y-81586319D01*
X180147081Y-81586319D01*
X180156762Y-81585044D01*
X180216340Y-81560366D01*
X180293817Y-81528274D01*
X180293818Y-81528274D01*
X180302841Y-81524536D01*
X180428282Y-81428282D01*
X180524536Y-81302841D01*
X180585044Y-81156762D01*
X180605682Y-81000000D01*
X180585044Y-80843238D01*
X180524536Y-80697159D01*
X180428282Y-80571718D01*
X180302841Y-80475464D01*
X180156762Y-80414956D01*
X180147081Y-80413681D01*
X180147079Y-80413681D01*
X180009685Y-80395593D01*
X180000000Y-80394318D01*
X179990315Y-80395593D01*
X179852921Y-80413681D01*
X179852919Y-80413681D01*
X179843238Y-80414956D01*
X179697159Y-80475464D01*
X179571718Y-80571718D01*
X179475464Y-80697159D01*
X179414956Y-80843238D01*
X179394318Y-81000000D01*
X157664416Y-81000000D01*
X157700485Y-80929210D01*
X157700486Y-80929208D01*
X157702255Y-80925736D01*
X157833742Y-80583199D01*
X157836819Y-80571718D01*
X157927696Y-80232558D01*
X157928705Y-80228794D01*
X157986102Y-79866404D01*
X158005304Y-79500000D01*
X157986102Y-79133596D01*
X157964942Y-79000000D01*
X188394318Y-79000000D01*
X188414956Y-79156762D01*
X188475464Y-79302841D01*
X188571718Y-79428282D01*
X188697159Y-79524536D01*
X188843238Y-79585044D01*
X188852919Y-79586319D01*
X188852921Y-79586319D01*
X188990315Y-79604407D01*
X189000000Y-79605682D01*
X189009685Y-79604407D01*
X189147079Y-79586319D01*
X189147081Y-79586319D01*
X189156762Y-79585044D01*
X189302841Y-79524536D01*
X189334817Y-79500000D01*
X191994696Y-79500000D01*
X192013898Y-79866404D01*
X192071295Y-80228794D01*
X192072304Y-80232558D01*
X192163182Y-80571718D01*
X192166258Y-80583199D01*
X192297745Y-80925736D01*
X192299514Y-80929208D01*
X192299515Y-80929210D01*
X192410526Y-81147079D01*
X192464318Y-81252652D01*
X192466445Y-81255928D01*
X192466446Y-81255929D01*
X192612875Y-81481410D01*
X192664149Y-81560366D01*
X192666602Y-81563395D01*
X192666604Y-81563398D01*
X192684133Y-81585044D01*
X192895051Y-81845506D01*
X193154494Y-82104949D01*
X193439634Y-82335851D01*
X193442906Y-82337976D01*
X193442909Y-82337978D01*
X193744071Y-82533554D01*
X193747348Y-82535682D01*
X193750822Y-82537452D01*
X193750827Y-82537455D01*
X194070790Y-82700485D01*
X194074264Y-82702255D01*
X194416801Y-82833742D01*
X194420563Y-82834750D01*
X194420569Y-82834752D01*
X194578376Y-82877036D01*
X194771206Y-82928705D01*
X195133596Y-82986102D01*
X195137483Y-82986306D01*
X195137486Y-82986306D01*
X195496107Y-83005100D01*
X195500000Y-83005304D01*
X195503893Y-83005100D01*
X195862514Y-82986306D01*
X195862517Y-82986306D01*
X195866404Y-82986102D01*
X196228794Y-82928705D01*
X196421624Y-82877036D01*
X196579431Y-82834752D01*
X196579437Y-82834750D01*
X196583199Y-82833742D01*
X196925736Y-82702255D01*
X196929210Y-82700485D01*
X197249173Y-82537455D01*
X197249178Y-82537452D01*
X197252652Y-82535682D01*
X197255929Y-82533554D01*
X197557091Y-82337978D01*
X197557094Y-82337976D01*
X197560366Y-82335851D01*
X197845506Y-82104949D01*
X198104949Y-81845506D01*
X198315867Y-81585044D01*
X198333396Y-81563398D01*
X198333398Y-81563395D01*
X198335851Y-81560366D01*
X198387126Y-81481410D01*
X198533554Y-81255929D01*
X198533555Y-81255928D01*
X198535682Y-81252652D01*
X198589475Y-81147079D01*
X198700485Y-80929210D01*
X198700486Y-80929208D01*
X198702255Y-80925736D01*
X198833742Y-80583199D01*
X198836819Y-80571718D01*
X198927696Y-80232558D01*
X198928705Y-80228794D01*
X198986102Y-79866404D01*
X199005304Y-79500000D01*
X198986102Y-79133596D01*
X198928705Y-78771206D01*
X198833742Y-78416801D01*
X198702255Y-78074264D01*
X198535682Y-77747348D01*
X198335851Y-77439634D01*
X198104949Y-77154494D01*
X197845506Y-76895051D01*
X197560366Y-76664149D01*
X197252652Y-76464318D01*
X197249178Y-76462548D01*
X197249173Y-76462545D01*
X196929210Y-76299515D01*
X196929208Y-76299514D01*
X196925736Y-76297745D01*
X196583199Y-76166258D01*
X196579437Y-76165250D01*
X196579431Y-76165248D01*
X196421624Y-76122964D01*
X196228794Y-76071295D01*
X195866404Y-76013898D01*
X195862517Y-76013694D01*
X195862514Y-76013694D01*
X195503893Y-75994900D01*
X195500000Y-75994696D01*
X195496107Y-75994900D01*
X195137486Y-76013694D01*
X195137483Y-76013694D01*
X195133596Y-76013898D01*
X194771206Y-76071295D01*
X194578376Y-76122964D01*
X194420569Y-76165248D01*
X194420563Y-76165250D01*
X194416801Y-76166258D01*
X194074264Y-76297745D01*
X194070792Y-76299514D01*
X194070790Y-76299515D01*
X193750827Y-76462545D01*
X193750822Y-76462548D01*
X193747348Y-76464318D01*
X193439634Y-76664149D01*
X193154494Y-76895051D01*
X192895051Y-77154494D01*
X192664149Y-77439634D01*
X192464318Y-77747348D01*
X192297745Y-78074264D01*
X192166258Y-78416801D01*
X192071295Y-78771206D01*
X192013898Y-79133596D01*
X191994696Y-79500000D01*
X189334817Y-79500000D01*
X189428282Y-79428282D01*
X189524536Y-79302841D01*
X189585044Y-79156762D01*
X189605682Y-79000000D01*
X189585044Y-78843238D01*
X189524536Y-78697159D01*
X189428282Y-78571718D01*
X189302841Y-78475464D01*
X189156762Y-78414956D01*
X189147081Y-78413681D01*
X189147079Y-78413681D01*
X189009685Y-78395593D01*
X189000000Y-78394318D01*
X188990315Y-78395593D01*
X188852921Y-78413681D01*
X188852919Y-78413681D01*
X188843238Y-78414956D01*
X188697159Y-78475464D01*
X188571718Y-78571718D01*
X188475464Y-78697159D01*
X188414956Y-78843238D01*
X188394318Y-79000000D01*
X157964942Y-79000000D01*
X157928705Y-78771206D01*
X157833742Y-78416801D01*
X157702255Y-78074264D01*
X157535682Y-77747348D01*
X157335851Y-77439634D01*
X157104949Y-77154494D01*
X156845506Y-76895051D01*
X156560366Y-76664149D01*
X156252652Y-76464318D01*
X156249178Y-76462548D01*
X156249173Y-76462545D01*
X155929210Y-76299515D01*
X155929208Y-76299514D01*
X155925736Y-76297745D01*
X155583199Y-76166258D01*
X155579437Y-76165250D01*
X155579431Y-76165248D01*
X155421624Y-76122964D01*
X155228794Y-76071295D01*
X154866404Y-76013898D01*
X154862517Y-76013694D01*
X154862514Y-76013694D01*
X154503893Y-75994900D01*
X154500000Y-75994696D01*
X154496107Y-75994900D01*
X154137486Y-76013694D01*
X154137483Y-76013694D01*
X154133596Y-76013898D01*
X153771206Y-76071295D01*
X153578376Y-76122964D01*
X153420569Y-76165248D01*
X153420563Y-76165250D01*
X153416801Y-76166258D01*
X153074264Y-76297745D01*
X153070792Y-76299514D01*
X153070790Y-76299515D01*
X152750827Y-76462545D01*
X152750822Y-76462548D01*
X152747348Y-76464318D01*
X152439634Y-76664149D01*
X152154494Y-76895051D01*
X151895051Y-77154494D01*
X151664149Y-77439634D01*
X151464318Y-77747348D01*
X151297745Y-78074264D01*
X151166258Y-78416801D01*
X151071295Y-78771206D01*
X151013898Y-79133596D01*
X150994696Y-79500000D01*
X150300500Y-79500000D01*
X150300500Y-75449500D01*
X150320462Y-75375000D01*
X150375000Y-75320462D01*
X150449500Y-75300500D01*
X199550500Y-75300500D01*
X199625000Y-75320462D01*
G37*
%TD.AperFunction*%
%TD*%
M02*
