M48
; DRILL file {KiCad 6.0.7-f9a2dced07~116~ubuntu20.04.1} date Thu 06 Oct 2022 10:19:11 PM PDT
; FORMAT={-:-/ absolute / inch / decimal}
; #@! TF.CreationDate,2022-10-06T22:19:11-07:00
; #@! TF.GenerationSoftware,Kicad,Pcbnew,6.0.7-f9a2dced07~116~ubuntu20.04.1
; #@! TF.FileFunction,MixedPlating,1,4
FMAT,2
INCH
; #@! TA.AperFunction,Plated,PTH,ViaDrill
T1C0.0118
; #@! TA.AperFunction,Plated,PTH,ComponentDrill
T2C0.0157
; #@! TA.AperFunction,Plated,PTH,ComponentDrill
T3C0.0315
; #@! TA.AperFunction,Plated,PTH,ComponentDrill
T4C0.0374
; #@! TA.AperFunction,Plated,PTH,ComponentDrill
T5C0.0394
; #@! TA.AperFunction,Plated,PTH,ComponentDrill
T6C0.1299
%
G90
G05
T1
X5.9547Y-3.8189
X5.9547Y-4.0551
X5.9744Y-3.937
X5.9843Y-3.6614
X6.0039Y-3.8189
X6.0039Y-4.0551
X6.0276Y-3.937
X6.063Y-3.8189
X6.063Y-4.0551
X6.0768Y-3.937
X6.1024Y-4.1732
X6.1417Y-3.4646
X6.2205Y-3.8189
X6.2205Y-4.0551
X6.3386Y-4.685
X6.3976Y-3.5433
X6.435Y-3.9567
X6.4567Y-4.1732
X6.4665Y-4.0472
X6.4961Y-3.2283
X6.4961Y-3.5039
X6.4961Y-3.622
X6.5453Y-4.0472
X6.5689Y-3.5295
X6.5689Y-3.6969
X6.5787Y-3.9567
X6.5925Y-4.1339
X6.6142Y-4.252
X6.6142Y-4.6063
X6.6339Y-3.7579
X6.6339Y-4.0079
X6.6732Y-3.8504
X6.6949Y-4.3406
X6.7165Y-4.065
X6.7205Y-3.7795
X6.7205Y-4.0059
X6.7323Y-3.3071
X6.7323Y-4.2894
X6.8445Y-4.1339
X6.8504Y-4.2874
X6.8504Y-4.3898
X6.8819Y-3.6575
X6.8878Y-3.7697
X6.8878Y-4.1142
X6.8898Y-4.2126
X6.9291Y-4.2874
X6.9291Y-4.3917
X7.0079Y-4.2126
X7.0098Y-3.7697
X7.0098Y-4.1142
X7.0453Y-4.2874
X7.065Y-3.4941
X7.065Y-3.8386
X7.0709Y-3.7579
X7.0827Y-4.3406
X7.0866Y-3.189
X7.1654Y-4.5669
X7.187Y-3.4941
X7.187Y-3.8386
X7.187Y-4.0512
X7.2323Y-3.7894
X7.3228Y-3.3465
X7.3543Y-3.5827
X7.3543Y-3.6516
X7.3622Y-4.0945
X7.4409Y-3.1102
X7.4409Y-3.4646
X7.5197Y-4.0551
X7.5984Y-4.252
X7.6378Y-3.622
X7.6378Y-4.5276
X7.7362Y-3.8189
X7.7362Y-4.0551
X7.7559Y-3.7008
X7.7756Y-3.8189
X7.7756Y-4.0551
X7.815Y-3.8189
X7.815Y-4.0551
T2
X5.9843Y-3.1299
X5.9843Y-4.7441
X6.0138Y-3.061
X6.0138Y-3.1988
X6.0138Y-4.6752
X6.0138Y-4.813
X6.0827Y-3.0315
X6.0827Y-3.2283
X6.0827Y-4.6457
X6.0827Y-4.8425
X6.1516Y-3.061
X6.1516Y-3.1988
X6.1516Y-4.6752
X6.1516Y-4.813
X6.1811Y-3.1299
X6.1811Y-4.7441
X7.5984Y-3.1299
X7.5984Y-4.7441
X7.628Y-3.061
X7.628Y-3.1988
X7.628Y-4.6752
X7.628Y-4.813
X7.6969Y-3.0315
X7.6969Y-3.2283
X7.6969Y-4.6457
X7.6969Y-4.8425
X7.7657Y-3.061
X7.7657Y-3.1988
X7.7657Y-4.6752
X7.7657Y-4.813
X7.7953Y-3.1299
X7.7953Y-4.7441
T3
X6.3151Y-4.4193
X6.4529Y-4.4193
X7.2993Y-4.4193
X7.4371Y-4.4193
T4
X6.7913Y-4.7539
X6.8898Y-4.7539
X6.9882Y-4.7539
T5
X5.9744Y-4.4685
X6.0217Y-3.3878
X6.2205Y-3.7008
X6.4862Y-4.7736
X6.8602Y-3.4252
X7.1161Y-4.1929
X7.3327Y-4.685
X7.5098Y-3.7795
X7.7067Y-3.372
X7.7362Y-4.3602
T6
X6.0827Y-3.1299
X6.0827Y-4.7441
X7.6969Y-3.1299
X7.6969Y-4.7441
T0
M30
