%TF.GenerationSoftware,KiCad,Pcbnew,6.0.7-f9a2dced07~116~ubuntu20.04.1*%
%TF.CreationDate,2022-10-06T22:19:13-07:00*%
%TF.ProjectId,test-amp,74657374-2d61-46d7-902e-6b696361645f,rev?*%
%TF.SameCoordinates,Original*%
%TF.FileFunction,Drillmap*%
%TF.FilePolarity,Positive*%
%FSLAX45Y45*%
G04 Gerber Fmt 4.5, Leading zero omitted, Abs format (unit mm)*
G04 Created by KiCad (PCBNEW 6.0.7-f9a2dced07~116~ubuntu20.04.1) date 2022-10-06 22:19:13*
%MOMM*%
%LPD*%
G01*
G04 APERTURE LIST*
%ADD10C,0.100000*%
%ADD11C,0.200000*%
%ADD12C,0.030000*%
%ADD13C,0.040000*%
%ADD14C,0.080000*%
%ADD15C,0.095000*%
%ADD16C,0.330000*%
G04 APERTURE END LIST*
D10*
X15000000Y-7500000D02*
X15000000Y-12500000D01*
X20000000Y-7500000D02*
X15000000Y-7500000D01*
X20000000Y-12500000D02*
X20000000Y-7500000D01*
X15000000Y-12500000D02*
X20000000Y-12500000D01*
D11*
D12*
X15110000Y-9685000D02*
X15140000Y-9715000D01*
X15140000Y-9685000D02*
X15110000Y-9715000D01*
X15110000Y-10285000D02*
X15140000Y-10315000D01*
X15140000Y-10285000D02*
X15110000Y-10315000D01*
X15160000Y-9985000D02*
X15190000Y-10015000D01*
X15190000Y-9985000D02*
X15160000Y-10015000D01*
X15185000Y-9285000D02*
X15215000Y-9315000D01*
X15215000Y-9285000D02*
X15185000Y-9315000D01*
X15235000Y-9685000D02*
X15265000Y-9715000D01*
X15265000Y-9685000D02*
X15235000Y-9715000D01*
X15235000Y-10285000D02*
X15265000Y-10315000D01*
X15265000Y-10285000D02*
X15235000Y-10315000D01*
X15295000Y-9985000D02*
X15325000Y-10015000D01*
X15325000Y-9985000D02*
X15295000Y-10015000D01*
X15385000Y-9685000D02*
X15415000Y-9715000D01*
X15415000Y-9685000D02*
X15385000Y-9715000D01*
X15385000Y-10285000D02*
X15415000Y-10315000D01*
X15415000Y-10285000D02*
X15385000Y-10315000D01*
X15420000Y-9985000D02*
X15450000Y-10015000D01*
X15450000Y-9985000D02*
X15420000Y-10015000D01*
X15485000Y-10585000D02*
X15515000Y-10615000D01*
X15515000Y-10585000D02*
X15485000Y-10615000D01*
X15585000Y-8785000D02*
X15615000Y-8815000D01*
X15615000Y-8785000D02*
X15585000Y-8815000D01*
X15785000Y-9685000D02*
X15815000Y-9715000D01*
X15815000Y-9685000D02*
X15785000Y-9715000D01*
X15785000Y-10285000D02*
X15815000Y-10315000D01*
X15815000Y-10285000D02*
X15785000Y-10315000D01*
X16085000Y-11885000D02*
X16115000Y-11915000D01*
X16115000Y-11885000D02*
X16085000Y-11915000D01*
X16235000Y-8985000D02*
X16265000Y-9015000D01*
X16265000Y-8985000D02*
X16235000Y-9015000D01*
X16330000Y-10035000D02*
X16360000Y-10065000D01*
X16360000Y-10035000D02*
X16330000Y-10065000D01*
X16385000Y-10585000D02*
X16415000Y-10615000D01*
X16415000Y-10585000D02*
X16385000Y-10615000D01*
X16410000Y-10265000D02*
X16440000Y-10295000D01*
X16440000Y-10265000D02*
X16410000Y-10295000D01*
X16485000Y-8185000D02*
X16515000Y-8215000D01*
X16515000Y-8185000D02*
X16485000Y-8215000D01*
X16485000Y-8885000D02*
X16515000Y-8915000D01*
X16515000Y-8885000D02*
X16485000Y-8915000D01*
X16485000Y-9185000D02*
X16515000Y-9215000D01*
X16515000Y-9185000D02*
X16485000Y-9215000D01*
X16610000Y-10265000D02*
X16640000Y-10295000D01*
X16640000Y-10265000D02*
X16610000Y-10295000D01*
X16670000Y-8950000D02*
X16700000Y-8980000D01*
X16700000Y-8950000D02*
X16670000Y-8980000D01*
X16670000Y-9375000D02*
X16700000Y-9405000D01*
X16700000Y-9375000D02*
X16670000Y-9405000D01*
X16695000Y-10035000D02*
X16725000Y-10065000D01*
X16725000Y-10035000D02*
X16695000Y-10065000D01*
X16730000Y-10485000D02*
X16760000Y-10515000D01*
X16760000Y-10485000D02*
X16730000Y-10515000D01*
X16785000Y-10785000D02*
X16815000Y-10815000D01*
X16815000Y-10785000D02*
X16785000Y-10815000D01*
X16785000Y-11685000D02*
X16815000Y-11715000D01*
X16815000Y-11685000D02*
X16785000Y-11715000D01*
X16835000Y-9530000D02*
X16865000Y-9560000D01*
X16865000Y-9530000D02*
X16835000Y-9560000D01*
X16835000Y-10165000D02*
X16865000Y-10195000D01*
X16865000Y-10165000D02*
X16835000Y-10195000D01*
X16935000Y-9765000D02*
X16965000Y-9795000D01*
X16965000Y-9765000D02*
X16935000Y-9795000D01*
X16990000Y-11010000D02*
X17020000Y-11040000D01*
X17020000Y-11010000D02*
X16990000Y-11040000D01*
X17045000Y-10310000D02*
X17075000Y-10340000D01*
X17075000Y-10310000D02*
X17045000Y-10340000D01*
X17055000Y-9585000D02*
X17085000Y-9615000D01*
X17085000Y-9585000D02*
X17055000Y-9615000D01*
X17055000Y-10160000D02*
X17085000Y-10190000D01*
X17085000Y-10160000D02*
X17055000Y-10190000D01*
X17085000Y-8385000D02*
X17115000Y-8415000D01*
X17115000Y-8385000D02*
X17085000Y-8415000D01*
X17085000Y-10880000D02*
X17115000Y-10910000D01*
X17115000Y-10880000D02*
X17085000Y-10910000D01*
X17370000Y-10485000D02*
X17400000Y-10515000D01*
X17400000Y-10485000D02*
X17370000Y-10515000D01*
X17385000Y-10875000D02*
X17415000Y-10905000D01*
X17415000Y-10875000D02*
X17385000Y-10905000D01*
X17385000Y-11135000D02*
X17415000Y-11165000D01*
X17415000Y-11135000D02*
X17385000Y-11165000D01*
X17465000Y-9275000D02*
X17495000Y-9305000D01*
X17495000Y-9275000D02*
X17465000Y-9305000D01*
X17480000Y-9560000D02*
X17510000Y-9590000D01*
X17510000Y-9560000D02*
X17480000Y-9590000D01*
X17480000Y-10435000D02*
X17510000Y-10465000D01*
X17510000Y-10435000D02*
X17480000Y-10465000D01*
X17485000Y-10685000D02*
X17515000Y-10715000D01*
X17515000Y-10685000D02*
X17485000Y-10715000D01*
X17585000Y-10875000D02*
X17615000Y-10905000D01*
X17615000Y-10875000D02*
X17585000Y-10905000D01*
X17585000Y-11140000D02*
X17615000Y-11170000D01*
X17615000Y-11140000D02*
X17585000Y-11170000D01*
X17785000Y-10685000D02*
X17815000Y-10715000D01*
X17815000Y-10685000D02*
X17785000Y-10715000D01*
X17790000Y-9560000D02*
X17820000Y-9590000D01*
X17820000Y-9560000D02*
X17790000Y-9590000D01*
X17790000Y-10435000D02*
X17820000Y-10465000D01*
X17820000Y-10435000D02*
X17790000Y-10465000D01*
X17880000Y-10875000D02*
X17910000Y-10905000D01*
X17910000Y-10875000D02*
X17880000Y-10905000D01*
X17930000Y-8860000D02*
X17960000Y-8890000D01*
X17960000Y-8860000D02*
X17930000Y-8890000D01*
X17930000Y-9735000D02*
X17960000Y-9765000D01*
X17960000Y-9735000D02*
X17930000Y-9765000D01*
X17945000Y-9530000D02*
X17975000Y-9560000D01*
X17975000Y-9530000D02*
X17945000Y-9560000D01*
X17975000Y-11010000D02*
X18005000Y-11040000D01*
X18005000Y-11010000D02*
X17975000Y-11040000D01*
X17985000Y-8085000D02*
X18015000Y-8115000D01*
X18015000Y-8085000D02*
X17985000Y-8115000D01*
X18185000Y-11585000D02*
X18215000Y-11615000D01*
X18215000Y-11585000D02*
X18185000Y-11615000D01*
X18240000Y-8860000D02*
X18270000Y-8890000D01*
X18270000Y-8860000D02*
X18240000Y-8890000D01*
X18240000Y-9735000D02*
X18270000Y-9765000D01*
X18270000Y-9735000D02*
X18240000Y-9765000D01*
X18240000Y-10275000D02*
X18270000Y-10305000D01*
X18270000Y-10275000D02*
X18240000Y-10305000D01*
X18355000Y-9610000D02*
X18385000Y-9640000D01*
X18385000Y-9610000D02*
X18355000Y-9640000D01*
X18585000Y-8485000D02*
X18615000Y-8515000D01*
X18615000Y-8485000D02*
X18585000Y-8515000D01*
X18665000Y-9085000D02*
X18695000Y-9115000D01*
X18695000Y-9085000D02*
X18665000Y-9115000D01*
X18665000Y-9260000D02*
X18695000Y-9290000D01*
X18695000Y-9260000D02*
X18665000Y-9290000D01*
X18685000Y-10385000D02*
X18715000Y-10415000D01*
X18715000Y-10385000D02*
X18685000Y-10415000D01*
X18885000Y-7885000D02*
X18915000Y-7915000D01*
X18915000Y-7885000D02*
X18885000Y-7915000D01*
X18885000Y-8785000D02*
X18915000Y-8815000D01*
X18915000Y-8785000D02*
X18885000Y-8815000D01*
X19085000Y-10285000D02*
X19115000Y-10315000D01*
X19115000Y-10285000D02*
X19085000Y-10315000D01*
X19285000Y-10785000D02*
X19315000Y-10815000D01*
X19315000Y-10785000D02*
X19285000Y-10815000D01*
X19385000Y-9185000D02*
X19415000Y-9215000D01*
X19415000Y-9185000D02*
X19385000Y-9215000D01*
X19385000Y-11485000D02*
X19415000Y-11515000D01*
X19415000Y-11485000D02*
X19385000Y-11515000D01*
X19635000Y-9685000D02*
X19665000Y-9715000D01*
X19665000Y-9685000D02*
X19635000Y-9715000D01*
X19635000Y-10285000D02*
X19665000Y-10315000D01*
X19665000Y-10285000D02*
X19635000Y-10315000D01*
X19685000Y-9385000D02*
X19715000Y-9415000D01*
X19715000Y-9385000D02*
X19685000Y-9415000D01*
X19735000Y-9685000D02*
X19765000Y-9715000D01*
X19765000Y-9685000D02*
X19735000Y-9715000D01*
X19735000Y-10285000D02*
X19765000Y-10315000D01*
X19765000Y-10285000D02*
X19735000Y-10315000D01*
X19835000Y-9685000D02*
X19865000Y-9715000D01*
X19865000Y-9685000D02*
X19835000Y-9715000D01*
X19835000Y-10285000D02*
X19865000Y-10315000D01*
X19865000Y-10285000D02*
X19835000Y-10315000D01*
D13*
X15220000Y-7950000D02*
G75*
G03*
X15220000Y-7950000I-20000J0D01*
G01*
X15220000Y-12050000D02*
G75*
G03*
X15220000Y-12050000I-20000J0D01*
G01*
X15295000Y-7775000D02*
G75*
G03*
X15295000Y-7775000I-20000J0D01*
G01*
X15295000Y-8125000D02*
G75*
G03*
X15295000Y-8125000I-20000J0D01*
G01*
X15295000Y-11875000D02*
G75*
G03*
X15295000Y-11875000I-20000J0D01*
G01*
X15295000Y-12225000D02*
G75*
G03*
X15295000Y-12225000I-20000J0D01*
G01*
X15470000Y-7700000D02*
G75*
G03*
X15470000Y-7700000I-20000J0D01*
G01*
X15470000Y-8200000D02*
G75*
G03*
X15470000Y-8200000I-20000J0D01*
G01*
X15470000Y-11800000D02*
G75*
G03*
X15470000Y-11800000I-20000J0D01*
G01*
X15470000Y-12300000D02*
G75*
G03*
X15470000Y-12300000I-20000J0D01*
G01*
X15645000Y-7775000D02*
G75*
G03*
X15645000Y-7775000I-20000J0D01*
G01*
X15645000Y-8125000D02*
G75*
G03*
X15645000Y-8125000I-20000J0D01*
G01*
X15645000Y-11875000D02*
G75*
G03*
X15645000Y-11875000I-20000J0D01*
G01*
X15645000Y-12225000D02*
G75*
G03*
X15645000Y-12225000I-20000J0D01*
G01*
X15720000Y-7950000D02*
G75*
G03*
X15720000Y-7950000I-20000J0D01*
G01*
X15720000Y-12050000D02*
G75*
G03*
X15720000Y-12050000I-20000J0D01*
G01*
X19320000Y-7950000D02*
G75*
G03*
X19320000Y-7950000I-20000J0D01*
G01*
X19320000Y-12050000D02*
G75*
G03*
X19320000Y-12050000I-20000J0D01*
G01*
X19395000Y-7775000D02*
G75*
G03*
X19395000Y-7775000I-20000J0D01*
G01*
X19395000Y-8125000D02*
G75*
G03*
X19395000Y-8125000I-20000J0D01*
G01*
X19395000Y-11875000D02*
G75*
G03*
X19395000Y-11875000I-20000J0D01*
G01*
X19395000Y-12225000D02*
G75*
G03*
X19395000Y-12225000I-20000J0D01*
G01*
X19570000Y-7700000D02*
G75*
G03*
X19570000Y-7700000I-20000J0D01*
G01*
X19570000Y-8200000D02*
G75*
G03*
X19570000Y-8200000I-20000J0D01*
G01*
X19570000Y-11800000D02*
G75*
G03*
X19570000Y-11800000I-20000J0D01*
G01*
X19570000Y-12300000D02*
G75*
G03*
X19570000Y-12300000I-20000J0D01*
G01*
X19745000Y-7775000D02*
G75*
G03*
X19745000Y-7775000I-20000J0D01*
G01*
X19745000Y-8125000D02*
G75*
G03*
X19745000Y-8125000I-20000J0D01*
G01*
X19745000Y-11875000D02*
G75*
G03*
X19745000Y-11875000I-20000J0D01*
G01*
X19745000Y-12225000D02*
G75*
G03*
X19745000Y-12225000I-20000J0D01*
G01*
X19820000Y-7950000D02*
G75*
G03*
X19820000Y-7950000I-20000J0D01*
G01*
X19820000Y-12050000D02*
G75*
G03*
X19820000Y-12050000I-20000J0D01*
G01*
D14*
X16040265Y-11185000D02*
X16040265Y-11265000D01*
X16000265Y-11225000D02*
X16080265Y-11225000D01*
X16390265Y-11185000D02*
X16390265Y-11265000D01*
X16350265Y-11225000D02*
X16430265Y-11225000D01*
X18540265Y-11185000D02*
X18540265Y-11265000D01*
X18500265Y-11225000D02*
X18580265Y-11225000D01*
X18890265Y-11185000D02*
X18890265Y-11265000D01*
X18850265Y-11225000D02*
X18930265Y-11225000D01*
D15*
X17283588Y-12108588D02*
X17283588Y-12041412D01*
X17216412Y-12041412D01*
X17216412Y-12108588D01*
X17283588Y-12108588D01*
X17533588Y-12108588D02*
X17533588Y-12041412D01*
X17466412Y-12041412D01*
X17466412Y-12108588D01*
X17533588Y-12108588D01*
X17783588Y-12108588D02*
X17783588Y-12041412D01*
X17716412Y-12041412D01*
X17716412Y-12108588D01*
X17783588Y-12108588D01*
D10*
X15175000Y-11400000D02*
X15225000Y-11350000D01*
X15175000Y-11300000D01*
X15125000Y-11350000D01*
X15175000Y-11400000D01*
X15295000Y-8655000D02*
X15345000Y-8605000D01*
X15295000Y-8555000D01*
X15245000Y-8605000D01*
X15295000Y-8655000D01*
X15800000Y-9450000D02*
X15850000Y-9400000D01*
X15800000Y-9350000D01*
X15750000Y-9400000D01*
X15800000Y-9450000D01*
X16475000Y-12175000D02*
X16525000Y-12125000D01*
X16475000Y-12075000D01*
X16425000Y-12125000D01*
X16475000Y-12175000D01*
X17425000Y-8750000D02*
X17475000Y-8700000D01*
X17425000Y-8650000D01*
X17375000Y-8700000D01*
X17425000Y-8750000D01*
X18075000Y-10700000D02*
X18125000Y-10650000D01*
X18075000Y-10600000D01*
X18025000Y-10650000D01*
X18075000Y-10700000D01*
X18625000Y-11950000D02*
X18675000Y-11900000D01*
X18625000Y-11850000D01*
X18575000Y-11900000D01*
X18625000Y-11950000D01*
X19075000Y-9650000D02*
X19125000Y-9600000D01*
X19075000Y-9550000D01*
X19025000Y-9600000D01*
X19075000Y-9650000D01*
X19575000Y-8615000D02*
X19625000Y-8565000D01*
X19575000Y-8515000D01*
X19525000Y-8565000D01*
X19575000Y-8615000D01*
X19650000Y-11125000D02*
X19700000Y-11075000D01*
X19650000Y-11025000D01*
X19600000Y-11075000D01*
X19650000Y-11125000D01*
D16*
X15285000Y-7785000D02*
X15615000Y-8115000D01*
X15615000Y-7785000D02*
X15285000Y-8115000D01*
X15615000Y-7950000D02*
G75*
G03*
X15615000Y-7950000I-165000J0D01*
G01*
X15285000Y-11885000D02*
X15615000Y-12215000D01*
X15615000Y-11885000D02*
X15285000Y-12215000D01*
X15615000Y-12050000D02*
G75*
G03*
X15615000Y-12050000I-165000J0D01*
G01*
X19385000Y-7785000D02*
X19715000Y-8115000D01*
X19715000Y-7785000D02*
X19385000Y-8115000D01*
X19715000Y-7950000D02*
G75*
G03*
X19715000Y-7950000I-165000J0D01*
G01*
X19385000Y-11885000D02*
X19715000Y-12215000D01*
X19715000Y-11885000D02*
X19385000Y-12215000D01*
X19715000Y-12050000D02*
G75*
G03*
X19715000Y-12050000I-165000J0D01*
G01*
D11*
X15252619Y-12815476D02*
X15252619Y-12615476D01*
X15300238Y-12615476D01*
X15328809Y-12625000D01*
X15347857Y-12644048D01*
X15357381Y-12663095D01*
X15366905Y-12701190D01*
X15366905Y-12729762D01*
X15357381Y-12767857D01*
X15347857Y-12786905D01*
X15328809Y-12805952D01*
X15300238Y-12815476D01*
X15252619Y-12815476D01*
X15452619Y-12815476D02*
X15452619Y-12682143D01*
X15452619Y-12720238D02*
X15462143Y-12701190D01*
X15471667Y-12691667D01*
X15490714Y-12682143D01*
X15509762Y-12682143D01*
X15576428Y-12815476D02*
X15576428Y-12682143D01*
X15576428Y-12615476D02*
X15566905Y-12625000D01*
X15576428Y-12634524D01*
X15585952Y-12625000D01*
X15576428Y-12615476D01*
X15576428Y-12634524D01*
X15700238Y-12815476D02*
X15681190Y-12805952D01*
X15671667Y-12786905D01*
X15671667Y-12615476D01*
X15805000Y-12815476D02*
X15785952Y-12805952D01*
X15776428Y-12786905D01*
X15776428Y-12615476D01*
X16033571Y-12815476D02*
X16033571Y-12615476D01*
X16100238Y-12758333D01*
X16166905Y-12615476D01*
X16166905Y-12815476D01*
X16347857Y-12815476D02*
X16347857Y-12710714D01*
X16338333Y-12691667D01*
X16319286Y-12682143D01*
X16281190Y-12682143D01*
X16262143Y-12691667D01*
X16347857Y-12805952D02*
X16328809Y-12815476D01*
X16281190Y-12815476D01*
X16262143Y-12805952D01*
X16252619Y-12786905D01*
X16252619Y-12767857D01*
X16262143Y-12748809D01*
X16281190Y-12739286D01*
X16328809Y-12739286D01*
X16347857Y-12729762D01*
X16443095Y-12682143D02*
X16443095Y-12882143D01*
X16443095Y-12691667D02*
X16462143Y-12682143D01*
X16500238Y-12682143D01*
X16519286Y-12691667D01*
X16528809Y-12701190D01*
X16538333Y-12720238D01*
X16538333Y-12777381D01*
X16528809Y-12796428D01*
X16519286Y-12805952D01*
X16500238Y-12815476D01*
X16462143Y-12815476D01*
X16443095Y-12805952D01*
X16624048Y-12796428D02*
X16633571Y-12805952D01*
X16624048Y-12815476D01*
X16614524Y-12805952D01*
X16624048Y-12796428D01*
X16624048Y-12815476D01*
X16624048Y-12691667D02*
X16633571Y-12701190D01*
X16624048Y-12710714D01*
X16614524Y-12701190D01*
X16624048Y-12691667D01*
X16624048Y-12710714D01*
D12*
X14965000Y-13130000D02*
X14995000Y-13160000D01*
X14995000Y-13130000D02*
X14965000Y-13160000D01*
D11*
X15290714Y-13035476D02*
X15309762Y-13035476D01*
X15328809Y-13045000D01*
X15338333Y-13054524D01*
X15347857Y-13073571D01*
X15357381Y-13111667D01*
X15357381Y-13159286D01*
X15347857Y-13197381D01*
X15338333Y-13216428D01*
X15328809Y-13225952D01*
X15309762Y-13235476D01*
X15290714Y-13235476D01*
X15271667Y-13225952D01*
X15262143Y-13216428D01*
X15252619Y-13197381D01*
X15243095Y-13159286D01*
X15243095Y-13111667D01*
X15252619Y-13073571D01*
X15262143Y-13054524D01*
X15271667Y-13045000D01*
X15290714Y-13035476D01*
X15443095Y-13216428D02*
X15452619Y-13225952D01*
X15443095Y-13235476D01*
X15433571Y-13225952D01*
X15443095Y-13216428D01*
X15443095Y-13235476D01*
X15519286Y-13035476D02*
X15643095Y-13035476D01*
X15576428Y-13111667D01*
X15605000Y-13111667D01*
X15624048Y-13121190D01*
X15633571Y-13130714D01*
X15643095Y-13149762D01*
X15643095Y-13197381D01*
X15633571Y-13216428D01*
X15624048Y-13225952D01*
X15605000Y-13235476D01*
X15547857Y-13235476D01*
X15528809Y-13225952D01*
X15519286Y-13216428D01*
X15766905Y-13035476D02*
X15785952Y-13035476D01*
X15805000Y-13045000D01*
X15814524Y-13054524D01*
X15824048Y-13073571D01*
X15833571Y-13111667D01*
X15833571Y-13159286D01*
X15824048Y-13197381D01*
X15814524Y-13216428D01*
X15805000Y-13225952D01*
X15785952Y-13235476D01*
X15766905Y-13235476D01*
X15747857Y-13225952D01*
X15738333Y-13216428D01*
X15728809Y-13197381D01*
X15719286Y-13159286D01*
X15719286Y-13111667D01*
X15728809Y-13073571D01*
X15738333Y-13054524D01*
X15747857Y-13045000D01*
X15766905Y-13035476D01*
X15957381Y-13035476D02*
X15976428Y-13035476D01*
X15995476Y-13045000D01*
X16005000Y-13054524D01*
X16014524Y-13073571D01*
X16024048Y-13111667D01*
X16024048Y-13159286D01*
X16014524Y-13197381D01*
X16005000Y-13216428D01*
X15995476Y-13225952D01*
X15976428Y-13235476D01*
X15957381Y-13235476D01*
X15938333Y-13225952D01*
X15928809Y-13216428D01*
X15919286Y-13197381D01*
X15909762Y-13159286D01*
X15909762Y-13111667D01*
X15919286Y-13073571D01*
X15928809Y-13054524D01*
X15938333Y-13045000D01*
X15957381Y-13035476D01*
X16109762Y-13235476D02*
X16109762Y-13102143D01*
X16109762Y-13121190D02*
X16119286Y-13111667D01*
X16138333Y-13102143D01*
X16166905Y-13102143D01*
X16185952Y-13111667D01*
X16195476Y-13130714D01*
X16195476Y-13235476D01*
X16195476Y-13130714D02*
X16205000Y-13111667D01*
X16224048Y-13102143D01*
X16252619Y-13102143D01*
X16271667Y-13111667D01*
X16281190Y-13130714D01*
X16281190Y-13235476D01*
X16376428Y-13235476D02*
X16376428Y-13102143D01*
X16376428Y-13121190D02*
X16385952Y-13111667D01*
X16405000Y-13102143D01*
X16433571Y-13102143D01*
X16452619Y-13111667D01*
X16462143Y-13130714D01*
X16462143Y-13235476D01*
X16462143Y-13130714D02*
X16471667Y-13111667D01*
X16490714Y-13102143D01*
X16519286Y-13102143D01*
X16538333Y-13111667D01*
X16547857Y-13130714D01*
X16547857Y-13235476D01*
X16938333Y-13025952D02*
X16766905Y-13283095D01*
X17195476Y-13035476D02*
X17214524Y-13035476D01*
X17233571Y-13045000D01*
X17243095Y-13054524D01*
X17252619Y-13073571D01*
X17262143Y-13111667D01*
X17262143Y-13159286D01*
X17252619Y-13197381D01*
X17243095Y-13216428D01*
X17233571Y-13225952D01*
X17214524Y-13235476D01*
X17195476Y-13235476D01*
X17176429Y-13225952D01*
X17166905Y-13216428D01*
X17157381Y-13197381D01*
X17147857Y-13159286D01*
X17147857Y-13111667D01*
X17157381Y-13073571D01*
X17166905Y-13054524D01*
X17176429Y-13045000D01*
X17195476Y-13035476D01*
X17347857Y-13216428D02*
X17357381Y-13225952D01*
X17347857Y-13235476D01*
X17338333Y-13225952D01*
X17347857Y-13216428D01*
X17347857Y-13235476D01*
X17481190Y-13035476D02*
X17500238Y-13035476D01*
X17519286Y-13045000D01*
X17528810Y-13054524D01*
X17538333Y-13073571D01*
X17547857Y-13111667D01*
X17547857Y-13159286D01*
X17538333Y-13197381D01*
X17528810Y-13216428D01*
X17519286Y-13225952D01*
X17500238Y-13235476D01*
X17481190Y-13235476D01*
X17462143Y-13225952D01*
X17452619Y-13216428D01*
X17443095Y-13197381D01*
X17433571Y-13159286D01*
X17433571Y-13111667D01*
X17443095Y-13073571D01*
X17452619Y-13054524D01*
X17462143Y-13045000D01*
X17481190Y-13035476D01*
X17738333Y-13235476D02*
X17624048Y-13235476D01*
X17681190Y-13235476D02*
X17681190Y-13035476D01*
X17662143Y-13064048D01*
X17643095Y-13083095D01*
X17624048Y-13092619D01*
X17928810Y-13235476D02*
X17814524Y-13235476D01*
X17871667Y-13235476D02*
X17871667Y-13035476D01*
X17852619Y-13064048D01*
X17833571Y-13083095D01*
X17814524Y-13092619D01*
X18043095Y-13121190D02*
X18024048Y-13111667D01*
X18014524Y-13102143D01*
X18005000Y-13083095D01*
X18005000Y-13073571D01*
X18014524Y-13054524D01*
X18024048Y-13045000D01*
X18043095Y-13035476D01*
X18081190Y-13035476D01*
X18100238Y-13045000D01*
X18109762Y-13054524D01*
X18119286Y-13073571D01*
X18119286Y-13083095D01*
X18109762Y-13102143D01*
X18100238Y-13111667D01*
X18081190Y-13121190D01*
X18043095Y-13121190D01*
X18024048Y-13130714D01*
X18014524Y-13140238D01*
X18005000Y-13159286D01*
X18005000Y-13197381D01*
X18014524Y-13216428D01*
X18024048Y-13225952D01*
X18043095Y-13235476D01*
X18081190Y-13235476D01*
X18100238Y-13225952D01*
X18109762Y-13216428D01*
X18119286Y-13197381D01*
X18119286Y-13159286D01*
X18109762Y-13140238D01*
X18100238Y-13130714D01*
X18081190Y-13121190D01*
X18195476Y-13035476D02*
X18195476Y-13073571D01*
X18271667Y-13035476D02*
X18271667Y-13073571D01*
X18566905Y-13311667D02*
X18557381Y-13302143D01*
X18538333Y-13273571D01*
X18528810Y-13254524D01*
X18519286Y-13225952D01*
X18509762Y-13178333D01*
X18509762Y-13140238D01*
X18519286Y-13092619D01*
X18528810Y-13064048D01*
X18538333Y-13045000D01*
X18557381Y-13016428D01*
X18566905Y-13006905D01*
X18624048Y-13035476D02*
X18757381Y-13035476D01*
X18671667Y-13235476D01*
X18862143Y-13121190D02*
X18843095Y-13111667D01*
X18833571Y-13102143D01*
X18824048Y-13083095D01*
X18824048Y-13073571D01*
X18833571Y-13054524D01*
X18843095Y-13045000D01*
X18862143Y-13035476D01*
X18900238Y-13035476D01*
X18919286Y-13045000D01*
X18928810Y-13054524D01*
X18938333Y-13073571D01*
X18938333Y-13083095D01*
X18928810Y-13102143D01*
X18919286Y-13111667D01*
X18900238Y-13121190D01*
X18862143Y-13121190D01*
X18843095Y-13130714D01*
X18833571Y-13140238D01*
X18824048Y-13159286D01*
X18824048Y-13197381D01*
X18833571Y-13216428D01*
X18843095Y-13225952D01*
X18862143Y-13235476D01*
X18900238Y-13235476D01*
X18919286Y-13225952D01*
X18928810Y-13216428D01*
X18938333Y-13197381D01*
X18938333Y-13159286D01*
X18928810Y-13140238D01*
X18919286Y-13130714D01*
X18900238Y-13121190D01*
X19176429Y-13235476D02*
X19176429Y-13035476D01*
X19262143Y-13235476D02*
X19262143Y-13130714D01*
X19252619Y-13111667D01*
X19233571Y-13102143D01*
X19205000Y-13102143D01*
X19185952Y-13111667D01*
X19176429Y-13121190D01*
X19385952Y-13235476D02*
X19366905Y-13225952D01*
X19357381Y-13216428D01*
X19347857Y-13197381D01*
X19347857Y-13140238D01*
X19357381Y-13121190D01*
X19366905Y-13111667D01*
X19385952Y-13102143D01*
X19414524Y-13102143D01*
X19433571Y-13111667D01*
X19443095Y-13121190D01*
X19452619Y-13140238D01*
X19452619Y-13197381D01*
X19443095Y-13216428D01*
X19433571Y-13225952D01*
X19414524Y-13235476D01*
X19385952Y-13235476D01*
X19566905Y-13235476D02*
X19547857Y-13225952D01*
X19538333Y-13206905D01*
X19538333Y-13035476D01*
X19719286Y-13225952D02*
X19700238Y-13235476D01*
X19662143Y-13235476D01*
X19643095Y-13225952D01*
X19633571Y-13206905D01*
X19633571Y-13130714D01*
X19643095Y-13111667D01*
X19662143Y-13102143D01*
X19700238Y-13102143D01*
X19719286Y-13111667D01*
X19728810Y-13130714D01*
X19728810Y-13149762D01*
X19633571Y-13168809D01*
X19805000Y-13225952D02*
X19824048Y-13235476D01*
X19862143Y-13235476D01*
X19881190Y-13225952D01*
X19890714Y-13206905D01*
X19890714Y-13197381D01*
X19881190Y-13178333D01*
X19862143Y-13168809D01*
X19833571Y-13168809D01*
X19814524Y-13159286D01*
X19805000Y-13140238D01*
X19805000Y-13130714D01*
X19814524Y-13111667D01*
X19833571Y-13102143D01*
X19862143Y-13102143D01*
X19881190Y-13111667D01*
X19957381Y-13311667D02*
X19966905Y-13302143D01*
X19985952Y-13273571D01*
X19995476Y-13254524D01*
X20005000Y-13225952D01*
X20014524Y-13178333D01*
X20014524Y-13140238D01*
X20005000Y-13092619D01*
X19995476Y-13064048D01*
X19985952Y-13045000D01*
X19966905Y-13016428D01*
X19957381Y-13006905D01*
D13*
X14995000Y-13409000D02*
G75*
G03*
X14995000Y-13409000I-20000J0D01*
G01*
D11*
X15290714Y-13299476D02*
X15309762Y-13299476D01*
X15328809Y-13309000D01*
X15338333Y-13318524D01*
X15347857Y-13337571D01*
X15357381Y-13375667D01*
X15357381Y-13423286D01*
X15347857Y-13461381D01*
X15338333Y-13480428D01*
X15328809Y-13489952D01*
X15309762Y-13499476D01*
X15290714Y-13499476D01*
X15271667Y-13489952D01*
X15262143Y-13480428D01*
X15252619Y-13461381D01*
X15243095Y-13423286D01*
X15243095Y-13375667D01*
X15252619Y-13337571D01*
X15262143Y-13318524D01*
X15271667Y-13309000D01*
X15290714Y-13299476D01*
X15443095Y-13480428D02*
X15452619Y-13489952D01*
X15443095Y-13499476D01*
X15433571Y-13489952D01*
X15443095Y-13480428D01*
X15443095Y-13499476D01*
X15624048Y-13366143D02*
X15624048Y-13499476D01*
X15576428Y-13289952D02*
X15528809Y-13432809D01*
X15652619Y-13432809D01*
X15766905Y-13299476D02*
X15785952Y-13299476D01*
X15805000Y-13309000D01*
X15814524Y-13318524D01*
X15824048Y-13337571D01*
X15833571Y-13375667D01*
X15833571Y-13423286D01*
X15824048Y-13461381D01*
X15814524Y-13480428D01*
X15805000Y-13489952D01*
X15785952Y-13499476D01*
X15766905Y-13499476D01*
X15747857Y-13489952D01*
X15738333Y-13480428D01*
X15728809Y-13461381D01*
X15719286Y-13423286D01*
X15719286Y-13375667D01*
X15728809Y-13337571D01*
X15738333Y-13318524D01*
X15747857Y-13309000D01*
X15766905Y-13299476D01*
X15957381Y-13299476D02*
X15976428Y-13299476D01*
X15995476Y-13309000D01*
X16005000Y-13318524D01*
X16014524Y-13337571D01*
X16024048Y-13375667D01*
X16024048Y-13423286D01*
X16014524Y-13461381D01*
X16005000Y-13480428D01*
X15995476Y-13489952D01*
X15976428Y-13499476D01*
X15957381Y-13499476D01*
X15938333Y-13489952D01*
X15928809Y-13480428D01*
X15919286Y-13461381D01*
X15909762Y-13423286D01*
X15909762Y-13375667D01*
X15919286Y-13337571D01*
X15928809Y-13318524D01*
X15938333Y-13309000D01*
X15957381Y-13299476D01*
X16109762Y-13499476D02*
X16109762Y-13366143D01*
X16109762Y-13385190D02*
X16119286Y-13375667D01*
X16138333Y-13366143D01*
X16166905Y-13366143D01*
X16185952Y-13375667D01*
X16195476Y-13394714D01*
X16195476Y-13499476D01*
X16195476Y-13394714D02*
X16205000Y-13375667D01*
X16224048Y-13366143D01*
X16252619Y-13366143D01*
X16271667Y-13375667D01*
X16281190Y-13394714D01*
X16281190Y-13499476D01*
X16376428Y-13499476D02*
X16376428Y-13366143D01*
X16376428Y-13385190D02*
X16385952Y-13375667D01*
X16405000Y-13366143D01*
X16433571Y-13366143D01*
X16452619Y-13375667D01*
X16462143Y-13394714D01*
X16462143Y-13499476D01*
X16462143Y-13394714D02*
X16471667Y-13375667D01*
X16490714Y-13366143D01*
X16519286Y-13366143D01*
X16538333Y-13375667D01*
X16547857Y-13394714D01*
X16547857Y-13499476D01*
X16938333Y-13289952D02*
X16766905Y-13547095D01*
X17195476Y-13299476D02*
X17214524Y-13299476D01*
X17233571Y-13309000D01*
X17243095Y-13318524D01*
X17252619Y-13337571D01*
X17262143Y-13375667D01*
X17262143Y-13423286D01*
X17252619Y-13461381D01*
X17243095Y-13480428D01*
X17233571Y-13489952D01*
X17214524Y-13499476D01*
X17195476Y-13499476D01*
X17176429Y-13489952D01*
X17166905Y-13480428D01*
X17157381Y-13461381D01*
X17147857Y-13423286D01*
X17147857Y-13375667D01*
X17157381Y-13337571D01*
X17166905Y-13318524D01*
X17176429Y-13309000D01*
X17195476Y-13299476D01*
X17347857Y-13480428D02*
X17357381Y-13489952D01*
X17347857Y-13499476D01*
X17338333Y-13489952D01*
X17347857Y-13480428D01*
X17347857Y-13499476D01*
X17481190Y-13299476D02*
X17500238Y-13299476D01*
X17519286Y-13309000D01*
X17528810Y-13318524D01*
X17538333Y-13337571D01*
X17547857Y-13375667D01*
X17547857Y-13423286D01*
X17538333Y-13461381D01*
X17528810Y-13480428D01*
X17519286Y-13489952D01*
X17500238Y-13499476D01*
X17481190Y-13499476D01*
X17462143Y-13489952D01*
X17452619Y-13480428D01*
X17443095Y-13461381D01*
X17433571Y-13423286D01*
X17433571Y-13375667D01*
X17443095Y-13337571D01*
X17452619Y-13318524D01*
X17462143Y-13309000D01*
X17481190Y-13299476D01*
X17738333Y-13499476D02*
X17624048Y-13499476D01*
X17681190Y-13499476D02*
X17681190Y-13299476D01*
X17662143Y-13328048D01*
X17643095Y-13347095D01*
X17624048Y-13356619D01*
X17919286Y-13299476D02*
X17824048Y-13299476D01*
X17814524Y-13394714D01*
X17824048Y-13385190D01*
X17843095Y-13375667D01*
X17890714Y-13375667D01*
X17909762Y-13385190D01*
X17919286Y-13394714D01*
X17928810Y-13413762D01*
X17928810Y-13461381D01*
X17919286Y-13480428D01*
X17909762Y-13489952D01*
X17890714Y-13499476D01*
X17843095Y-13499476D01*
X17824048Y-13489952D01*
X17814524Y-13480428D01*
X17995476Y-13299476D02*
X18128810Y-13299476D01*
X18043095Y-13499476D01*
X18195476Y-13299476D02*
X18195476Y-13337571D01*
X18271667Y-13299476D02*
X18271667Y-13337571D01*
X18566905Y-13575667D02*
X18557381Y-13566143D01*
X18538333Y-13537571D01*
X18528810Y-13518524D01*
X18519286Y-13489952D01*
X18509762Y-13442333D01*
X18509762Y-13404238D01*
X18519286Y-13356619D01*
X18528810Y-13328048D01*
X18538333Y-13309000D01*
X18557381Y-13280428D01*
X18566905Y-13270905D01*
X18624048Y-13299476D02*
X18747857Y-13299476D01*
X18681190Y-13375667D01*
X18709762Y-13375667D01*
X18728810Y-13385190D01*
X18738333Y-13394714D01*
X18747857Y-13413762D01*
X18747857Y-13461381D01*
X18738333Y-13480428D01*
X18728810Y-13489952D01*
X18709762Y-13499476D01*
X18652619Y-13499476D01*
X18633571Y-13489952D01*
X18624048Y-13480428D01*
X18824048Y-13318524D02*
X18833571Y-13309000D01*
X18852619Y-13299476D01*
X18900238Y-13299476D01*
X18919286Y-13309000D01*
X18928810Y-13318524D01*
X18938333Y-13337571D01*
X18938333Y-13356619D01*
X18928810Y-13385190D01*
X18814524Y-13499476D01*
X18938333Y-13499476D01*
X19176429Y-13499476D02*
X19176429Y-13299476D01*
X19262143Y-13499476D02*
X19262143Y-13394714D01*
X19252619Y-13375667D01*
X19233571Y-13366143D01*
X19205000Y-13366143D01*
X19185952Y-13375667D01*
X19176429Y-13385190D01*
X19385952Y-13499476D02*
X19366905Y-13489952D01*
X19357381Y-13480428D01*
X19347857Y-13461381D01*
X19347857Y-13404238D01*
X19357381Y-13385190D01*
X19366905Y-13375667D01*
X19385952Y-13366143D01*
X19414524Y-13366143D01*
X19433571Y-13375667D01*
X19443095Y-13385190D01*
X19452619Y-13404238D01*
X19452619Y-13461381D01*
X19443095Y-13480428D01*
X19433571Y-13489952D01*
X19414524Y-13499476D01*
X19385952Y-13499476D01*
X19566905Y-13499476D02*
X19547857Y-13489952D01*
X19538333Y-13470905D01*
X19538333Y-13299476D01*
X19719286Y-13489952D02*
X19700238Y-13499476D01*
X19662143Y-13499476D01*
X19643095Y-13489952D01*
X19633571Y-13470905D01*
X19633571Y-13394714D01*
X19643095Y-13375667D01*
X19662143Y-13366143D01*
X19700238Y-13366143D01*
X19719286Y-13375667D01*
X19728810Y-13394714D01*
X19728810Y-13413762D01*
X19633571Y-13432809D01*
X19805000Y-13489952D02*
X19824048Y-13499476D01*
X19862143Y-13499476D01*
X19881190Y-13489952D01*
X19890714Y-13470905D01*
X19890714Y-13461381D01*
X19881190Y-13442333D01*
X19862143Y-13432809D01*
X19833571Y-13432809D01*
X19814524Y-13423286D01*
X19805000Y-13404238D01*
X19805000Y-13394714D01*
X19814524Y-13375667D01*
X19833571Y-13366143D01*
X19862143Y-13366143D01*
X19881190Y-13375667D01*
X19957381Y-13575667D02*
X19966905Y-13566143D01*
X19985952Y-13537571D01*
X19995476Y-13518524D01*
X20005000Y-13489952D01*
X20014524Y-13442333D01*
X20014524Y-13404238D01*
X20005000Y-13356619D01*
X19995476Y-13328048D01*
X19985952Y-13309000D01*
X19966905Y-13280428D01*
X19957381Y-13270905D01*
D14*
X14955000Y-13633000D02*
X14955000Y-13713000D01*
X14915000Y-13673000D02*
X14995000Y-13673000D01*
D11*
X15290714Y-13563476D02*
X15309762Y-13563476D01*
X15328809Y-13573000D01*
X15338333Y-13582524D01*
X15347857Y-13601571D01*
X15357381Y-13639667D01*
X15357381Y-13687286D01*
X15347857Y-13725381D01*
X15338333Y-13744428D01*
X15328809Y-13753952D01*
X15309762Y-13763476D01*
X15290714Y-13763476D01*
X15271667Y-13753952D01*
X15262143Y-13744428D01*
X15252619Y-13725381D01*
X15243095Y-13687286D01*
X15243095Y-13639667D01*
X15252619Y-13601571D01*
X15262143Y-13582524D01*
X15271667Y-13573000D01*
X15290714Y-13563476D01*
X15443095Y-13744428D02*
X15452619Y-13753952D01*
X15443095Y-13763476D01*
X15433571Y-13753952D01*
X15443095Y-13744428D01*
X15443095Y-13763476D01*
X15566905Y-13649190D02*
X15547857Y-13639667D01*
X15538333Y-13630143D01*
X15528809Y-13611095D01*
X15528809Y-13601571D01*
X15538333Y-13582524D01*
X15547857Y-13573000D01*
X15566905Y-13563476D01*
X15605000Y-13563476D01*
X15624048Y-13573000D01*
X15633571Y-13582524D01*
X15643095Y-13601571D01*
X15643095Y-13611095D01*
X15633571Y-13630143D01*
X15624048Y-13639667D01*
X15605000Y-13649190D01*
X15566905Y-13649190D01*
X15547857Y-13658714D01*
X15538333Y-13668238D01*
X15528809Y-13687286D01*
X15528809Y-13725381D01*
X15538333Y-13744428D01*
X15547857Y-13753952D01*
X15566905Y-13763476D01*
X15605000Y-13763476D01*
X15624048Y-13753952D01*
X15633571Y-13744428D01*
X15643095Y-13725381D01*
X15643095Y-13687286D01*
X15633571Y-13668238D01*
X15624048Y-13658714D01*
X15605000Y-13649190D01*
X15766905Y-13563476D02*
X15785952Y-13563476D01*
X15805000Y-13573000D01*
X15814524Y-13582524D01*
X15824048Y-13601571D01*
X15833571Y-13639667D01*
X15833571Y-13687286D01*
X15824048Y-13725381D01*
X15814524Y-13744428D01*
X15805000Y-13753952D01*
X15785952Y-13763476D01*
X15766905Y-13763476D01*
X15747857Y-13753952D01*
X15738333Y-13744428D01*
X15728809Y-13725381D01*
X15719286Y-13687286D01*
X15719286Y-13639667D01*
X15728809Y-13601571D01*
X15738333Y-13582524D01*
X15747857Y-13573000D01*
X15766905Y-13563476D01*
X15957381Y-13563476D02*
X15976428Y-13563476D01*
X15995476Y-13573000D01*
X16005000Y-13582524D01*
X16014524Y-13601571D01*
X16024048Y-13639667D01*
X16024048Y-13687286D01*
X16014524Y-13725381D01*
X16005000Y-13744428D01*
X15995476Y-13753952D01*
X15976428Y-13763476D01*
X15957381Y-13763476D01*
X15938333Y-13753952D01*
X15928809Y-13744428D01*
X15919286Y-13725381D01*
X15909762Y-13687286D01*
X15909762Y-13639667D01*
X15919286Y-13601571D01*
X15928809Y-13582524D01*
X15938333Y-13573000D01*
X15957381Y-13563476D01*
X16109762Y-13763476D02*
X16109762Y-13630143D01*
X16109762Y-13649190D02*
X16119286Y-13639667D01*
X16138333Y-13630143D01*
X16166905Y-13630143D01*
X16185952Y-13639667D01*
X16195476Y-13658714D01*
X16195476Y-13763476D01*
X16195476Y-13658714D02*
X16205000Y-13639667D01*
X16224048Y-13630143D01*
X16252619Y-13630143D01*
X16271667Y-13639667D01*
X16281190Y-13658714D01*
X16281190Y-13763476D01*
X16376428Y-13763476D02*
X16376428Y-13630143D01*
X16376428Y-13649190D02*
X16385952Y-13639667D01*
X16405000Y-13630143D01*
X16433571Y-13630143D01*
X16452619Y-13639667D01*
X16462143Y-13658714D01*
X16462143Y-13763476D01*
X16462143Y-13658714D02*
X16471667Y-13639667D01*
X16490714Y-13630143D01*
X16519286Y-13630143D01*
X16538333Y-13639667D01*
X16547857Y-13658714D01*
X16547857Y-13763476D01*
X16938333Y-13553952D02*
X16766905Y-13811095D01*
X17195476Y-13563476D02*
X17214524Y-13563476D01*
X17233571Y-13573000D01*
X17243095Y-13582524D01*
X17252619Y-13601571D01*
X17262143Y-13639667D01*
X17262143Y-13687286D01*
X17252619Y-13725381D01*
X17243095Y-13744428D01*
X17233571Y-13753952D01*
X17214524Y-13763476D01*
X17195476Y-13763476D01*
X17176429Y-13753952D01*
X17166905Y-13744428D01*
X17157381Y-13725381D01*
X17147857Y-13687286D01*
X17147857Y-13639667D01*
X17157381Y-13601571D01*
X17166905Y-13582524D01*
X17176429Y-13573000D01*
X17195476Y-13563476D01*
X17347857Y-13744428D02*
X17357381Y-13753952D01*
X17347857Y-13763476D01*
X17338333Y-13753952D01*
X17347857Y-13744428D01*
X17347857Y-13763476D01*
X17481190Y-13563476D02*
X17500238Y-13563476D01*
X17519286Y-13573000D01*
X17528810Y-13582524D01*
X17538333Y-13601571D01*
X17547857Y-13639667D01*
X17547857Y-13687286D01*
X17538333Y-13725381D01*
X17528810Y-13744428D01*
X17519286Y-13753952D01*
X17500238Y-13763476D01*
X17481190Y-13763476D01*
X17462143Y-13753952D01*
X17452619Y-13744428D01*
X17443095Y-13725381D01*
X17433571Y-13687286D01*
X17433571Y-13639667D01*
X17443095Y-13601571D01*
X17452619Y-13582524D01*
X17462143Y-13573000D01*
X17481190Y-13563476D01*
X17614524Y-13563476D02*
X17738333Y-13563476D01*
X17671667Y-13639667D01*
X17700238Y-13639667D01*
X17719286Y-13649190D01*
X17728810Y-13658714D01*
X17738333Y-13677762D01*
X17738333Y-13725381D01*
X17728810Y-13744428D01*
X17719286Y-13753952D01*
X17700238Y-13763476D01*
X17643095Y-13763476D01*
X17624048Y-13753952D01*
X17614524Y-13744428D01*
X17928810Y-13763476D02*
X17814524Y-13763476D01*
X17871667Y-13763476D02*
X17871667Y-13563476D01*
X17852619Y-13592048D01*
X17833571Y-13611095D01*
X17814524Y-13620619D01*
X18109762Y-13563476D02*
X18014524Y-13563476D01*
X18005000Y-13658714D01*
X18014524Y-13649190D01*
X18033571Y-13639667D01*
X18081190Y-13639667D01*
X18100238Y-13649190D01*
X18109762Y-13658714D01*
X18119286Y-13677762D01*
X18119286Y-13725381D01*
X18109762Y-13744428D01*
X18100238Y-13753952D01*
X18081190Y-13763476D01*
X18033571Y-13763476D01*
X18014524Y-13753952D01*
X18005000Y-13744428D01*
X18195476Y-13563476D02*
X18195476Y-13601571D01*
X18271667Y-13563476D02*
X18271667Y-13601571D01*
X18566905Y-13839667D02*
X18557381Y-13830143D01*
X18538333Y-13801571D01*
X18528810Y-13782524D01*
X18519286Y-13753952D01*
X18509762Y-13706333D01*
X18509762Y-13668238D01*
X18519286Y-13620619D01*
X18528810Y-13592048D01*
X18538333Y-13573000D01*
X18557381Y-13544428D01*
X18566905Y-13534905D01*
X18728810Y-13630143D02*
X18728810Y-13763476D01*
X18681190Y-13553952D02*
X18633571Y-13696809D01*
X18757381Y-13696809D01*
X18985952Y-13763476D02*
X18985952Y-13563476D01*
X19071667Y-13763476D02*
X19071667Y-13658714D01*
X19062143Y-13639667D01*
X19043095Y-13630143D01*
X19014524Y-13630143D01*
X18995476Y-13639667D01*
X18985952Y-13649190D01*
X19195476Y-13763476D02*
X19176429Y-13753952D01*
X19166905Y-13744428D01*
X19157381Y-13725381D01*
X19157381Y-13668238D01*
X19166905Y-13649190D01*
X19176429Y-13639667D01*
X19195476Y-13630143D01*
X19224048Y-13630143D01*
X19243095Y-13639667D01*
X19252619Y-13649190D01*
X19262143Y-13668238D01*
X19262143Y-13725381D01*
X19252619Y-13744428D01*
X19243095Y-13753952D01*
X19224048Y-13763476D01*
X19195476Y-13763476D01*
X19376429Y-13763476D02*
X19357381Y-13753952D01*
X19347857Y-13734905D01*
X19347857Y-13563476D01*
X19528810Y-13753952D02*
X19509762Y-13763476D01*
X19471667Y-13763476D01*
X19452619Y-13753952D01*
X19443095Y-13734905D01*
X19443095Y-13658714D01*
X19452619Y-13639667D01*
X19471667Y-13630143D01*
X19509762Y-13630143D01*
X19528810Y-13639667D01*
X19538333Y-13658714D01*
X19538333Y-13677762D01*
X19443095Y-13696809D01*
X19614524Y-13753952D02*
X19633571Y-13763476D01*
X19671667Y-13763476D01*
X19690714Y-13753952D01*
X19700238Y-13734905D01*
X19700238Y-13725381D01*
X19690714Y-13706333D01*
X19671667Y-13696809D01*
X19643095Y-13696809D01*
X19624048Y-13687286D01*
X19614524Y-13668238D01*
X19614524Y-13658714D01*
X19624048Y-13639667D01*
X19643095Y-13630143D01*
X19671667Y-13630143D01*
X19690714Y-13639667D01*
X19766905Y-13839667D02*
X19776429Y-13830143D01*
X19795476Y-13801571D01*
X19805000Y-13782524D01*
X19814524Y-13753952D01*
X19824048Y-13706333D01*
X19824048Y-13668238D01*
X19814524Y-13620619D01*
X19805000Y-13592048D01*
X19795476Y-13573000D01*
X19776429Y-13544428D01*
X19766905Y-13534905D01*
D15*
X14981088Y-13970588D02*
X14981088Y-13903412D01*
X14913912Y-13903412D01*
X14913912Y-13970588D01*
X14981088Y-13970588D01*
D11*
X15290714Y-13827476D02*
X15309762Y-13827476D01*
X15328809Y-13837000D01*
X15338333Y-13846524D01*
X15347857Y-13865571D01*
X15357381Y-13903667D01*
X15357381Y-13951286D01*
X15347857Y-13989381D01*
X15338333Y-14008428D01*
X15328809Y-14017952D01*
X15309762Y-14027476D01*
X15290714Y-14027476D01*
X15271667Y-14017952D01*
X15262143Y-14008428D01*
X15252619Y-13989381D01*
X15243095Y-13951286D01*
X15243095Y-13903667D01*
X15252619Y-13865571D01*
X15262143Y-13846524D01*
X15271667Y-13837000D01*
X15290714Y-13827476D01*
X15443095Y-14008428D02*
X15452619Y-14017952D01*
X15443095Y-14027476D01*
X15433571Y-14017952D01*
X15443095Y-14008428D01*
X15443095Y-14027476D01*
X15547857Y-14027476D02*
X15585952Y-14027476D01*
X15605000Y-14017952D01*
X15614524Y-14008428D01*
X15633571Y-13979857D01*
X15643095Y-13941762D01*
X15643095Y-13865571D01*
X15633571Y-13846524D01*
X15624048Y-13837000D01*
X15605000Y-13827476D01*
X15566905Y-13827476D01*
X15547857Y-13837000D01*
X15538333Y-13846524D01*
X15528809Y-13865571D01*
X15528809Y-13913190D01*
X15538333Y-13932238D01*
X15547857Y-13941762D01*
X15566905Y-13951286D01*
X15605000Y-13951286D01*
X15624048Y-13941762D01*
X15633571Y-13932238D01*
X15643095Y-13913190D01*
X15824048Y-13827476D02*
X15728809Y-13827476D01*
X15719286Y-13922714D01*
X15728809Y-13913190D01*
X15747857Y-13903667D01*
X15795476Y-13903667D01*
X15814524Y-13913190D01*
X15824048Y-13922714D01*
X15833571Y-13941762D01*
X15833571Y-13989381D01*
X15824048Y-14008428D01*
X15814524Y-14017952D01*
X15795476Y-14027476D01*
X15747857Y-14027476D01*
X15728809Y-14017952D01*
X15719286Y-14008428D01*
X15957381Y-13827476D02*
X15976428Y-13827476D01*
X15995476Y-13837000D01*
X16005000Y-13846524D01*
X16014524Y-13865571D01*
X16024048Y-13903667D01*
X16024048Y-13951286D01*
X16014524Y-13989381D01*
X16005000Y-14008428D01*
X15995476Y-14017952D01*
X15976428Y-14027476D01*
X15957381Y-14027476D01*
X15938333Y-14017952D01*
X15928809Y-14008428D01*
X15919286Y-13989381D01*
X15909762Y-13951286D01*
X15909762Y-13903667D01*
X15919286Y-13865571D01*
X15928809Y-13846524D01*
X15938333Y-13837000D01*
X15957381Y-13827476D01*
X16109762Y-14027476D02*
X16109762Y-13894143D01*
X16109762Y-13913190D02*
X16119286Y-13903667D01*
X16138333Y-13894143D01*
X16166905Y-13894143D01*
X16185952Y-13903667D01*
X16195476Y-13922714D01*
X16195476Y-14027476D01*
X16195476Y-13922714D02*
X16205000Y-13903667D01*
X16224048Y-13894143D01*
X16252619Y-13894143D01*
X16271667Y-13903667D01*
X16281190Y-13922714D01*
X16281190Y-14027476D01*
X16376428Y-14027476D02*
X16376428Y-13894143D01*
X16376428Y-13913190D02*
X16385952Y-13903667D01*
X16405000Y-13894143D01*
X16433571Y-13894143D01*
X16452619Y-13903667D01*
X16462143Y-13922714D01*
X16462143Y-14027476D01*
X16462143Y-13922714D02*
X16471667Y-13903667D01*
X16490714Y-13894143D01*
X16519286Y-13894143D01*
X16538333Y-13903667D01*
X16547857Y-13922714D01*
X16547857Y-14027476D01*
X16938333Y-13817952D02*
X16766905Y-14075095D01*
X17195476Y-13827476D02*
X17214524Y-13827476D01*
X17233571Y-13837000D01*
X17243095Y-13846524D01*
X17252619Y-13865571D01*
X17262143Y-13903667D01*
X17262143Y-13951286D01*
X17252619Y-13989381D01*
X17243095Y-14008428D01*
X17233571Y-14017952D01*
X17214524Y-14027476D01*
X17195476Y-14027476D01*
X17176429Y-14017952D01*
X17166905Y-14008428D01*
X17157381Y-13989381D01*
X17147857Y-13951286D01*
X17147857Y-13903667D01*
X17157381Y-13865571D01*
X17166905Y-13846524D01*
X17176429Y-13837000D01*
X17195476Y-13827476D01*
X17347857Y-14008428D02*
X17357381Y-14017952D01*
X17347857Y-14027476D01*
X17338333Y-14017952D01*
X17347857Y-14008428D01*
X17347857Y-14027476D01*
X17481190Y-13827476D02*
X17500238Y-13827476D01*
X17519286Y-13837000D01*
X17528810Y-13846524D01*
X17538333Y-13865571D01*
X17547857Y-13903667D01*
X17547857Y-13951286D01*
X17538333Y-13989381D01*
X17528810Y-14008428D01*
X17519286Y-14017952D01*
X17500238Y-14027476D01*
X17481190Y-14027476D01*
X17462143Y-14017952D01*
X17452619Y-14008428D01*
X17443095Y-13989381D01*
X17433571Y-13951286D01*
X17433571Y-13903667D01*
X17443095Y-13865571D01*
X17452619Y-13846524D01*
X17462143Y-13837000D01*
X17481190Y-13827476D01*
X17614524Y-13827476D02*
X17738333Y-13827476D01*
X17671667Y-13903667D01*
X17700238Y-13903667D01*
X17719286Y-13913190D01*
X17728810Y-13922714D01*
X17738333Y-13941762D01*
X17738333Y-13989381D01*
X17728810Y-14008428D01*
X17719286Y-14017952D01*
X17700238Y-14027476D01*
X17643095Y-14027476D01*
X17624048Y-14017952D01*
X17614524Y-14008428D01*
X17805000Y-13827476D02*
X17938333Y-13827476D01*
X17852619Y-14027476D01*
X18100238Y-13894143D02*
X18100238Y-14027476D01*
X18052619Y-13817952D02*
X18005000Y-13960809D01*
X18128810Y-13960809D01*
X18195476Y-13827476D02*
X18195476Y-13865571D01*
X18271667Y-13827476D02*
X18271667Y-13865571D01*
X18566905Y-14103667D02*
X18557381Y-14094143D01*
X18538333Y-14065571D01*
X18528810Y-14046524D01*
X18519286Y-14017952D01*
X18509762Y-13970333D01*
X18509762Y-13932238D01*
X18519286Y-13884619D01*
X18528810Y-13856048D01*
X18538333Y-13837000D01*
X18557381Y-13808428D01*
X18566905Y-13798905D01*
X18624048Y-13827476D02*
X18747857Y-13827476D01*
X18681190Y-13903667D01*
X18709762Y-13903667D01*
X18728810Y-13913190D01*
X18738333Y-13922714D01*
X18747857Y-13941762D01*
X18747857Y-13989381D01*
X18738333Y-14008428D01*
X18728810Y-14017952D01*
X18709762Y-14027476D01*
X18652619Y-14027476D01*
X18633571Y-14017952D01*
X18624048Y-14008428D01*
X18985952Y-14027476D02*
X18985952Y-13827476D01*
X19071667Y-14027476D02*
X19071667Y-13922714D01*
X19062143Y-13903667D01*
X19043095Y-13894143D01*
X19014524Y-13894143D01*
X18995476Y-13903667D01*
X18985952Y-13913190D01*
X19195476Y-14027476D02*
X19176429Y-14017952D01*
X19166905Y-14008428D01*
X19157381Y-13989381D01*
X19157381Y-13932238D01*
X19166905Y-13913190D01*
X19176429Y-13903667D01*
X19195476Y-13894143D01*
X19224048Y-13894143D01*
X19243095Y-13903667D01*
X19252619Y-13913190D01*
X19262143Y-13932238D01*
X19262143Y-13989381D01*
X19252619Y-14008428D01*
X19243095Y-14017952D01*
X19224048Y-14027476D01*
X19195476Y-14027476D01*
X19376429Y-14027476D02*
X19357381Y-14017952D01*
X19347857Y-13998905D01*
X19347857Y-13827476D01*
X19528810Y-14017952D02*
X19509762Y-14027476D01*
X19471667Y-14027476D01*
X19452619Y-14017952D01*
X19443095Y-13998905D01*
X19443095Y-13922714D01*
X19452619Y-13903667D01*
X19471667Y-13894143D01*
X19509762Y-13894143D01*
X19528810Y-13903667D01*
X19538333Y-13922714D01*
X19538333Y-13941762D01*
X19443095Y-13960809D01*
X19614524Y-14017952D02*
X19633571Y-14027476D01*
X19671667Y-14027476D01*
X19690714Y-14017952D01*
X19700238Y-13998905D01*
X19700238Y-13989381D01*
X19690714Y-13970333D01*
X19671667Y-13960809D01*
X19643095Y-13960809D01*
X19624048Y-13951286D01*
X19614524Y-13932238D01*
X19614524Y-13922714D01*
X19624048Y-13903667D01*
X19643095Y-13894143D01*
X19671667Y-13894143D01*
X19690714Y-13903667D01*
X19766905Y-14103667D02*
X19776429Y-14094143D01*
X19795476Y-14065571D01*
X19805000Y-14046524D01*
X19814524Y-14017952D01*
X19824048Y-13970333D01*
X19824048Y-13932238D01*
X19814524Y-13884619D01*
X19805000Y-13856048D01*
X19795476Y-13837000D01*
X19776429Y-13808428D01*
X19766905Y-13798905D01*
D10*
X14945000Y-14251000D02*
X14995000Y-14201000D01*
X14945000Y-14151000D01*
X14895000Y-14201000D01*
X14945000Y-14251000D01*
D11*
X15357381Y-14291476D02*
X15243095Y-14291476D01*
X15300238Y-14291476D02*
X15300238Y-14091476D01*
X15281190Y-14120048D01*
X15262143Y-14139095D01*
X15243095Y-14148619D01*
X15443095Y-14272428D02*
X15452619Y-14281952D01*
X15443095Y-14291476D01*
X15433571Y-14281952D01*
X15443095Y-14272428D01*
X15443095Y-14291476D01*
X15576428Y-14091476D02*
X15595476Y-14091476D01*
X15614524Y-14101000D01*
X15624048Y-14110524D01*
X15633571Y-14129571D01*
X15643095Y-14167667D01*
X15643095Y-14215286D01*
X15633571Y-14253381D01*
X15624048Y-14272428D01*
X15614524Y-14281952D01*
X15595476Y-14291476D01*
X15576428Y-14291476D01*
X15557381Y-14281952D01*
X15547857Y-14272428D01*
X15538333Y-14253381D01*
X15528809Y-14215286D01*
X15528809Y-14167667D01*
X15538333Y-14129571D01*
X15547857Y-14110524D01*
X15557381Y-14101000D01*
X15576428Y-14091476D01*
X15766905Y-14091476D02*
X15785952Y-14091476D01*
X15805000Y-14101000D01*
X15814524Y-14110524D01*
X15824048Y-14129571D01*
X15833571Y-14167667D01*
X15833571Y-14215286D01*
X15824048Y-14253381D01*
X15814524Y-14272428D01*
X15805000Y-14281952D01*
X15785952Y-14291476D01*
X15766905Y-14291476D01*
X15747857Y-14281952D01*
X15738333Y-14272428D01*
X15728809Y-14253381D01*
X15719286Y-14215286D01*
X15719286Y-14167667D01*
X15728809Y-14129571D01*
X15738333Y-14110524D01*
X15747857Y-14101000D01*
X15766905Y-14091476D01*
X15957381Y-14091476D02*
X15976428Y-14091476D01*
X15995476Y-14101000D01*
X16005000Y-14110524D01*
X16014524Y-14129571D01*
X16024048Y-14167667D01*
X16024048Y-14215286D01*
X16014524Y-14253381D01*
X16005000Y-14272428D01*
X15995476Y-14281952D01*
X15976428Y-14291476D01*
X15957381Y-14291476D01*
X15938333Y-14281952D01*
X15928809Y-14272428D01*
X15919286Y-14253381D01*
X15909762Y-14215286D01*
X15909762Y-14167667D01*
X15919286Y-14129571D01*
X15928809Y-14110524D01*
X15938333Y-14101000D01*
X15957381Y-14091476D01*
X16109762Y-14291476D02*
X16109762Y-14158143D01*
X16109762Y-14177190D02*
X16119286Y-14167667D01*
X16138333Y-14158143D01*
X16166905Y-14158143D01*
X16185952Y-14167667D01*
X16195476Y-14186714D01*
X16195476Y-14291476D01*
X16195476Y-14186714D02*
X16205000Y-14167667D01*
X16224048Y-14158143D01*
X16252619Y-14158143D01*
X16271667Y-14167667D01*
X16281190Y-14186714D01*
X16281190Y-14291476D01*
X16376428Y-14291476D02*
X16376428Y-14158143D01*
X16376428Y-14177190D02*
X16385952Y-14167667D01*
X16405000Y-14158143D01*
X16433571Y-14158143D01*
X16452619Y-14167667D01*
X16462143Y-14186714D01*
X16462143Y-14291476D01*
X16462143Y-14186714D02*
X16471667Y-14167667D01*
X16490714Y-14158143D01*
X16519286Y-14158143D01*
X16538333Y-14167667D01*
X16547857Y-14186714D01*
X16547857Y-14291476D01*
X16938333Y-14081952D02*
X16766905Y-14339095D01*
X17195476Y-14091476D02*
X17214524Y-14091476D01*
X17233571Y-14101000D01*
X17243095Y-14110524D01*
X17252619Y-14129571D01*
X17262143Y-14167667D01*
X17262143Y-14215286D01*
X17252619Y-14253381D01*
X17243095Y-14272428D01*
X17233571Y-14281952D01*
X17214524Y-14291476D01*
X17195476Y-14291476D01*
X17176429Y-14281952D01*
X17166905Y-14272428D01*
X17157381Y-14253381D01*
X17147857Y-14215286D01*
X17147857Y-14167667D01*
X17157381Y-14129571D01*
X17166905Y-14110524D01*
X17176429Y-14101000D01*
X17195476Y-14091476D01*
X17347857Y-14272428D02*
X17357381Y-14281952D01*
X17347857Y-14291476D01*
X17338333Y-14281952D01*
X17347857Y-14272428D01*
X17347857Y-14291476D01*
X17481190Y-14091476D02*
X17500238Y-14091476D01*
X17519286Y-14101000D01*
X17528810Y-14110524D01*
X17538333Y-14129571D01*
X17547857Y-14167667D01*
X17547857Y-14215286D01*
X17538333Y-14253381D01*
X17528810Y-14272428D01*
X17519286Y-14281952D01*
X17500238Y-14291476D01*
X17481190Y-14291476D01*
X17462143Y-14281952D01*
X17452619Y-14272428D01*
X17443095Y-14253381D01*
X17433571Y-14215286D01*
X17433571Y-14167667D01*
X17443095Y-14129571D01*
X17452619Y-14110524D01*
X17462143Y-14101000D01*
X17481190Y-14091476D01*
X17614524Y-14091476D02*
X17738333Y-14091476D01*
X17671667Y-14167667D01*
X17700238Y-14167667D01*
X17719286Y-14177190D01*
X17728810Y-14186714D01*
X17738333Y-14205762D01*
X17738333Y-14253381D01*
X17728810Y-14272428D01*
X17719286Y-14281952D01*
X17700238Y-14291476D01*
X17643095Y-14291476D01*
X17624048Y-14281952D01*
X17614524Y-14272428D01*
X17833571Y-14291476D02*
X17871667Y-14291476D01*
X17890714Y-14281952D01*
X17900238Y-14272428D01*
X17919286Y-14243857D01*
X17928810Y-14205762D01*
X17928810Y-14129571D01*
X17919286Y-14110524D01*
X17909762Y-14101000D01*
X17890714Y-14091476D01*
X17852619Y-14091476D01*
X17833571Y-14101000D01*
X17824048Y-14110524D01*
X17814524Y-14129571D01*
X17814524Y-14177190D01*
X17824048Y-14196238D01*
X17833571Y-14205762D01*
X17852619Y-14215286D01*
X17890714Y-14215286D01*
X17909762Y-14205762D01*
X17919286Y-14196238D01*
X17928810Y-14177190D01*
X18100238Y-14158143D02*
X18100238Y-14291476D01*
X18052619Y-14081952D02*
X18005000Y-14224809D01*
X18128810Y-14224809D01*
X18195476Y-14091476D02*
X18195476Y-14129571D01*
X18271667Y-14091476D02*
X18271667Y-14129571D01*
X18566905Y-14367667D02*
X18557381Y-14358143D01*
X18538333Y-14329571D01*
X18528810Y-14310524D01*
X18519286Y-14281952D01*
X18509762Y-14234333D01*
X18509762Y-14196238D01*
X18519286Y-14148619D01*
X18528810Y-14120048D01*
X18538333Y-14101000D01*
X18557381Y-14072428D01*
X18566905Y-14062905D01*
X18747857Y-14291476D02*
X18633571Y-14291476D01*
X18690714Y-14291476D02*
X18690714Y-14091476D01*
X18671667Y-14120048D01*
X18652619Y-14139095D01*
X18633571Y-14148619D01*
X18871667Y-14091476D02*
X18890714Y-14091476D01*
X18909762Y-14101000D01*
X18919286Y-14110524D01*
X18928810Y-14129571D01*
X18938333Y-14167667D01*
X18938333Y-14215286D01*
X18928810Y-14253381D01*
X18919286Y-14272428D01*
X18909762Y-14281952D01*
X18890714Y-14291476D01*
X18871667Y-14291476D01*
X18852619Y-14281952D01*
X18843095Y-14272428D01*
X18833571Y-14253381D01*
X18824048Y-14215286D01*
X18824048Y-14167667D01*
X18833571Y-14129571D01*
X18843095Y-14110524D01*
X18852619Y-14101000D01*
X18871667Y-14091476D01*
X19176429Y-14291476D02*
X19176429Y-14091476D01*
X19262143Y-14291476D02*
X19262143Y-14186714D01*
X19252619Y-14167667D01*
X19233571Y-14158143D01*
X19205000Y-14158143D01*
X19185952Y-14167667D01*
X19176429Y-14177190D01*
X19385952Y-14291476D02*
X19366905Y-14281952D01*
X19357381Y-14272428D01*
X19347857Y-14253381D01*
X19347857Y-14196238D01*
X19357381Y-14177190D01*
X19366905Y-14167667D01*
X19385952Y-14158143D01*
X19414524Y-14158143D01*
X19433571Y-14167667D01*
X19443095Y-14177190D01*
X19452619Y-14196238D01*
X19452619Y-14253381D01*
X19443095Y-14272428D01*
X19433571Y-14281952D01*
X19414524Y-14291476D01*
X19385952Y-14291476D01*
X19566905Y-14291476D02*
X19547857Y-14281952D01*
X19538333Y-14262905D01*
X19538333Y-14091476D01*
X19719286Y-14281952D02*
X19700238Y-14291476D01*
X19662143Y-14291476D01*
X19643095Y-14281952D01*
X19633571Y-14262905D01*
X19633571Y-14186714D01*
X19643095Y-14167667D01*
X19662143Y-14158143D01*
X19700238Y-14158143D01*
X19719286Y-14167667D01*
X19728810Y-14186714D01*
X19728810Y-14205762D01*
X19633571Y-14224809D01*
X19805000Y-14281952D02*
X19824048Y-14291476D01*
X19862143Y-14291476D01*
X19881190Y-14281952D01*
X19890714Y-14262905D01*
X19890714Y-14253381D01*
X19881190Y-14234333D01*
X19862143Y-14224809D01*
X19833571Y-14224809D01*
X19814524Y-14215286D01*
X19805000Y-14196238D01*
X19805000Y-14186714D01*
X19814524Y-14167667D01*
X19833571Y-14158143D01*
X19862143Y-14158143D01*
X19881190Y-14167667D01*
X19957381Y-14367667D02*
X19966905Y-14358143D01*
X19985952Y-14329571D01*
X19995476Y-14310524D01*
X20005000Y-14281952D01*
X20014524Y-14234333D01*
X20014524Y-14196238D01*
X20005000Y-14148619D01*
X19995476Y-14120048D01*
X19985952Y-14101000D01*
X19966905Y-14072428D01*
X19957381Y-14062905D01*
X14795000Y-14365000D02*
X14995000Y-14565000D01*
X14995000Y-14365000D02*
X14795000Y-14565000D01*
X14995000Y-14465000D02*
G75*
G03*
X14995000Y-14465000I-100000J0D01*
G01*
X15233571Y-14355476D02*
X15357381Y-14355476D01*
X15290714Y-14431667D01*
X15319286Y-14431667D01*
X15338333Y-14441190D01*
X15347857Y-14450714D01*
X15357381Y-14469762D01*
X15357381Y-14517381D01*
X15347857Y-14536428D01*
X15338333Y-14545952D01*
X15319286Y-14555476D01*
X15262143Y-14555476D01*
X15243095Y-14545952D01*
X15233571Y-14536428D01*
X15443095Y-14536428D02*
X15452619Y-14545952D01*
X15443095Y-14555476D01*
X15433571Y-14545952D01*
X15443095Y-14536428D01*
X15443095Y-14555476D01*
X15519286Y-14355476D02*
X15643095Y-14355476D01*
X15576428Y-14431667D01*
X15605000Y-14431667D01*
X15624048Y-14441190D01*
X15633571Y-14450714D01*
X15643095Y-14469762D01*
X15643095Y-14517381D01*
X15633571Y-14536428D01*
X15624048Y-14545952D01*
X15605000Y-14555476D01*
X15547857Y-14555476D01*
X15528809Y-14545952D01*
X15519286Y-14536428D01*
X15766905Y-14355476D02*
X15785952Y-14355476D01*
X15805000Y-14365000D01*
X15814524Y-14374524D01*
X15824048Y-14393571D01*
X15833571Y-14431667D01*
X15833571Y-14479286D01*
X15824048Y-14517381D01*
X15814524Y-14536428D01*
X15805000Y-14545952D01*
X15785952Y-14555476D01*
X15766905Y-14555476D01*
X15747857Y-14545952D01*
X15738333Y-14536428D01*
X15728809Y-14517381D01*
X15719286Y-14479286D01*
X15719286Y-14431667D01*
X15728809Y-14393571D01*
X15738333Y-14374524D01*
X15747857Y-14365000D01*
X15766905Y-14355476D01*
X15957381Y-14355476D02*
X15976428Y-14355476D01*
X15995476Y-14365000D01*
X16005000Y-14374524D01*
X16014524Y-14393571D01*
X16024048Y-14431667D01*
X16024048Y-14479286D01*
X16014524Y-14517381D01*
X16005000Y-14536428D01*
X15995476Y-14545952D01*
X15976428Y-14555476D01*
X15957381Y-14555476D01*
X15938333Y-14545952D01*
X15928809Y-14536428D01*
X15919286Y-14517381D01*
X15909762Y-14479286D01*
X15909762Y-14431667D01*
X15919286Y-14393571D01*
X15928809Y-14374524D01*
X15938333Y-14365000D01*
X15957381Y-14355476D01*
X16109762Y-14555476D02*
X16109762Y-14422143D01*
X16109762Y-14441190D02*
X16119286Y-14431667D01*
X16138333Y-14422143D01*
X16166905Y-14422143D01*
X16185952Y-14431667D01*
X16195476Y-14450714D01*
X16195476Y-14555476D01*
X16195476Y-14450714D02*
X16205000Y-14431667D01*
X16224048Y-14422143D01*
X16252619Y-14422143D01*
X16271667Y-14431667D01*
X16281190Y-14450714D01*
X16281190Y-14555476D01*
X16376428Y-14555476D02*
X16376428Y-14422143D01*
X16376428Y-14441190D02*
X16385952Y-14431667D01*
X16405000Y-14422143D01*
X16433571Y-14422143D01*
X16452619Y-14431667D01*
X16462143Y-14450714D01*
X16462143Y-14555476D01*
X16462143Y-14450714D02*
X16471667Y-14431667D01*
X16490714Y-14422143D01*
X16519286Y-14422143D01*
X16538333Y-14431667D01*
X16547857Y-14450714D01*
X16547857Y-14555476D01*
X16938333Y-14345952D02*
X16766905Y-14603095D01*
X17195476Y-14355476D02*
X17214524Y-14355476D01*
X17233571Y-14365000D01*
X17243095Y-14374524D01*
X17252619Y-14393571D01*
X17262143Y-14431667D01*
X17262143Y-14479286D01*
X17252619Y-14517381D01*
X17243095Y-14536428D01*
X17233571Y-14545952D01*
X17214524Y-14555476D01*
X17195476Y-14555476D01*
X17176429Y-14545952D01*
X17166905Y-14536428D01*
X17157381Y-14517381D01*
X17147857Y-14479286D01*
X17147857Y-14431667D01*
X17157381Y-14393571D01*
X17166905Y-14374524D01*
X17176429Y-14365000D01*
X17195476Y-14355476D01*
X17347857Y-14536428D02*
X17357381Y-14545952D01*
X17347857Y-14555476D01*
X17338333Y-14545952D01*
X17347857Y-14536428D01*
X17347857Y-14555476D01*
X17547857Y-14555476D02*
X17433571Y-14555476D01*
X17490714Y-14555476D02*
X17490714Y-14355476D01*
X17471667Y-14384048D01*
X17452619Y-14403095D01*
X17433571Y-14412619D01*
X17624048Y-14374524D02*
X17633571Y-14365000D01*
X17652619Y-14355476D01*
X17700238Y-14355476D01*
X17719286Y-14365000D01*
X17728810Y-14374524D01*
X17738333Y-14393571D01*
X17738333Y-14412619D01*
X17728810Y-14441190D01*
X17614524Y-14555476D01*
X17738333Y-14555476D01*
X17833571Y-14555476D02*
X17871667Y-14555476D01*
X17890714Y-14545952D01*
X17900238Y-14536428D01*
X17919286Y-14507857D01*
X17928810Y-14469762D01*
X17928810Y-14393571D01*
X17919286Y-14374524D01*
X17909762Y-14365000D01*
X17890714Y-14355476D01*
X17852619Y-14355476D01*
X17833571Y-14365000D01*
X17824048Y-14374524D01*
X17814524Y-14393571D01*
X17814524Y-14441190D01*
X17824048Y-14460238D01*
X17833571Y-14469762D01*
X17852619Y-14479286D01*
X17890714Y-14479286D01*
X17909762Y-14469762D01*
X17919286Y-14460238D01*
X17928810Y-14441190D01*
X18024048Y-14555476D02*
X18062143Y-14555476D01*
X18081190Y-14545952D01*
X18090714Y-14536428D01*
X18109762Y-14507857D01*
X18119286Y-14469762D01*
X18119286Y-14393571D01*
X18109762Y-14374524D01*
X18100238Y-14365000D01*
X18081190Y-14355476D01*
X18043095Y-14355476D01*
X18024048Y-14365000D01*
X18014524Y-14374524D01*
X18005000Y-14393571D01*
X18005000Y-14441190D01*
X18014524Y-14460238D01*
X18024048Y-14469762D01*
X18043095Y-14479286D01*
X18081190Y-14479286D01*
X18100238Y-14469762D01*
X18109762Y-14460238D01*
X18119286Y-14441190D01*
X18195476Y-14355476D02*
X18195476Y-14393571D01*
X18271667Y-14355476D02*
X18271667Y-14393571D01*
X18566905Y-14631667D02*
X18557381Y-14622143D01*
X18538333Y-14593571D01*
X18528810Y-14574524D01*
X18519286Y-14545952D01*
X18509762Y-14498333D01*
X18509762Y-14460238D01*
X18519286Y-14412619D01*
X18528810Y-14384048D01*
X18538333Y-14365000D01*
X18557381Y-14336428D01*
X18566905Y-14326905D01*
X18728810Y-14422143D02*
X18728810Y-14555476D01*
X18681190Y-14345952D02*
X18633571Y-14488809D01*
X18757381Y-14488809D01*
X18985952Y-14555476D02*
X18985952Y-14355476D01*
X19071667Y-14555476D02*
X19071667Y-14450714D01*
X19062143Y-14431667D01*
X19043095Y-14422143D01*
X19014524Y-14422143D01*
X18995476Y-14431667D01*
X18985952Y-14441190D01*
X19195476Y-14555476D02*
X19176429Y-14545952D01*
X19166905Y-14536428D01*
X19157381Y-14517381D01*
X19157381Y-14460238D01*
X19166905Y-14441190D01*
X19176429Y-14431667D01*
X19195476Y-14422143D01*
X19224048Y-14422143D01*
X19243095Y-14431667D01*
X19252619Y-14441190D01*
X19262143Y-14460238D01*
X19262143Y-14517381D01*
X19252619Y-14536428D01*
X19243095Y-14545952D01*
X19224048Y-14555476D01*
X19195476Y-14555476D01*
X19376429Y-14555476D02*
X19357381Y-14545952D01*
X19347857Y-14526905D01*
X19347857Y-14355476D01*
X19528810Y-14545952D02*
X19509762Y-14555476D01*
X19471667Y-14555476D01*
X19452619Y-14545952D01*
X19443095Y-14526905D01*
X19443095Y-14450714D01*
X19452619Y-14431667D01*
X19471667Y-14422143D01*
X19509762Y-14422143D01*
X19528810Y-14431667D01*
X19538333Y-14450714D01*
X19538333Y-14469762D01*
X19443095Y-14488809D01*
X19614524Y-14545952D02*
X19633571Y-14555476D01*
X19671667Y-14555476D01*
X19690714Y-14545952D01*
X19700238Y-14526905D01*
X19700238Y-14517381D01*
X19690714Y-14498333D01*
X19671667Y-14488809D01*
X19643095Y-14488809D01*
X19624048Y-14479286D01*
X19614524Y-14460238D01*
X19614524Y-14450714D01*
X19624048Y-14431667D01*
X19643095Y-14422143D01*
X19671667Y-14422143D01*
X19690714Y-14431667D01*
X19766905Y-14631667D02*
X19776429Y-14622143D01*
X19795476Y-14593571D01*
X19805000Y-14574524D01*
X19814524Y-14545952D01*
X19824048Y-14498333D01*
X19824048Y-14460238D01*
X19814524Y-14412619D01*
X19805000Y-14384048D01*
X19795476Y-14365000D01*
X19776429Y-14336428D01*
X19766905Y-14326905D01*
M02*
