%TF.GenerationSoftware,KiCad,Pcbnew,6.0.7-f9a2dced07~116~ubuntu20.04.1*%
%TF.CreationDate,2022-10-06T22:18:55-07:00*%
%TF.ProjectId,test-amp,74657374-2d61-46d7-902e-6b696361645f,rev?*%
%TF.SameCoordinates,Original*%
%TF.FileFunction,Paste,Top*%
%TF.FilePolarity,Positive*%
%FSLAX46Y46*%
G04 Gerber Fmt 4.6, Leading zero omitted, Abs format (unit mm)*
G04 Created by KiCad (PCBNEW 6.0.7-f9a2dced07~116~ubuntu20.04.1) date 2022-10-06 22:18:55*
%MOMM*%
%LPD*%
G01*
G04 APERTURE LIST*
G04 Aperture macros list*
%AMRoundRect*
0 Rectangle with rounded corners*
0 $1 Rounding radius*
0 $2 $3 $4 $5 $6 $7 $8 $9 X,Y pos of 4 corners*
0 Add a 4 corners polygon primitive as box body*
4,1,4,$2,$3,$4,$5,$6,$7,$8,$9,$2,$3,0*
0 Add four circle primitives for the rounded corners*
1,1,$1+$1,$2,$3*
1,1,$1+$1,$4,$5*
1,1,$1+$1,$6,$7*
1,1,$1+$1,$8,$9*
0 Add four rect primitives between the rounded corners*
20,1,$1+$1,$2,$3,$4,$5,0*
20,1,$1+$1,$4,$5,$6,$7,0*
20,1,$1+$1,$6,$7,$8,$9,0*
20,1,$1+$1,$8,$9,$2,$3,0*%
G04 Aperture macros list end*
%ADD10RoundRect,0.150000X-0.825000X-0.150000X0.825000X-0.150000X0.825000X0.150000X-0.825000X0.150000X0*%
%ADD11R,1.100000X0.900000*%
%ADD12R,1.400000X0.900000*%
%ADD13RoundRect,0.250000X0.312500X0.625000X-0.312500X0.625000X-0.312500X-0.625000X0.312500X-0.625000X0*%
%ADD14RoundRect,0.200000X0.200000X0.275000X-0.200000X0.275000X-0.200000X-0.275000X0.200000X-0.275000X0*%
%ADD15RoundRect,0.200000X-0.200000X-0.275000X0.200000X-0.275000X0.200000X0.275000X-0.200000X0.275000X0*%
%ADD16RoundRect,0.200000X-0.275000X0.200000X-0.275000X-0.200000X0.275000X-0.200000X0.275000X0.200000X0*%
%ADD17RoundRect,0.250000X0.625000X-0.312500X0.625000X0.312500X-0.625000X0.312500X-0.625000X-0.312500X0*%
%ADD18RoundRect,0.218750X0.381250X-0.218750X0.381250X0.218750X-0.381250X0.218750X-0.381250X-0.218750X0*%
%ADD19RoundRect,0.218750X-0.381250X0.218750X-0.381250X-0.218750X0.381250X-0.218750X0.381250X0.218750X0*%
%ADD20R,0.500000X0.500000*%
%ADD21RoundRect,0.225000X-0.225000X-0.250000X0.225000X-0.250000X0.225000X0.250000X-0.225000X0.250000X0*%
%ADD22RoundRect,0.250000X-0.250000X-0.475000X0.250000X-0.475000X0.250000X0.475000X-0.250000X0.475000X0*%
%ADD23RoundRect,0.225000X0.250000X-0.225000X0.250000X0.225000X-0.250000X0.225000X-0.250000X-0.225000X0*%
%ADD24RoundRect,0.225000X0.225000X0.250000X-0.225000X0.250000X-0.225000X-0.250000X0.225000X-0.250000X0*%
%ADD25RoundRect,0.225000X-0.250000X0.225000X-0.250000X-0.225000X0.250000X-0.225000X0.250000X0.225000X0*%
%ADD26RoundRect,0.250000X-0.325000X-0.650000X0.325000X-0.650000X0.325000X0.650000X-0.325000X0.650000X0*%
G04 APERTURE END LIST*
D10*
%TO.C,U2*%
X181225000Y-90345000D03*
X181225000Y-91615000D03*
X181225000Y-92885000D03*
X181225000Y-94155000D03*
X176275000Y-94155000D03*
X176275000Y-92885000D03*
X176275000Y-91615000D03*
X176275000Y-90345000D03*
%TD*%
%TO.C,U1*%
X181225000Y-99095000D03*
X181225000Y-100365000D03*
X181225000Y-101635000D03*
X181225000Y-102905000D03*
X176275000Y-102905000D03*
X176275000Y-101635000D03*
X176275000Y-100365000D03*
X176275000Y-99095000D03*
%TD*%
D11*
%TO.C,RV1*%
X166850000Y-90600000D03*
D12*
X168000000Y-93900000D03*
D11*
X169150000Y-90600000D03*
%TD*%
D13*
%TO.C,R13*%
X193712500Y-100000000D03*
X190787500Y-100000000D03*
%TD*%
D14*
%TO.C,R12*%
X184425000Y-89250000D03*
X186075000Y-89250000D03*
%TD*%
D15*
%TO.C,R11*%
X186075000Y-91000000D03*
X184425000Y-91000000D03*
%TD*%
D14*
%TO.C,R10*%
X184425000Y-94500000D03*
X186075000Y-94500000D03*
%TD*%
D15*
%TO.C,R9*%
X186075000Y-96250000D03*
X184425000Y-96250000D03*
%TD*%
%TO.C,R8*%
X169825000Y-105000000D03*
X168175000Y-105000000D03*
%TD*%
D14*
%TO.C,R7*%
X171425000Y-103250000D03*
X173075000Y-103250000D03*
%TD*%
%TO.C,R6*%
X171425000Y-101750000D03*
X173075000Y-101750000D03*
%TD*%
D16*
%TO.C,R5*%
X171500000Y-92325000D03*
X171500000Y-90675000D03*
%TD*%
D14*
%TO.C,R4*%
X171425000Y-97750000D03*
X173075000Y-97750000D03*
%TD*%
D15*
%TO.C,R3*%
X173075000Y-96000000D03*
X171425000Y-96000000D03*
%TD*%
%TO.C,R2*%
X173075000Y-94250000D03*
X171425000Y-94250000D03*
%TD*%
D17*
%TO.C,R1*%
X161500000Y-97037500D03*
X161500000Y-99962500D03*
%TD*%
D18*
%TO.C,FB2*%
X179000000Y-114562500D03*
X179000000Y-112437500D03*
%TD*%
D19*
%TO.C,FB1*%
X171000000Y-112687500D03*
X171000000Y-114812500D03*
%TD*%
D20*
%TO.C,D2*%
X164000000Y-98850000D03*
X164000000Y-96650000D03*
%TD*%
%TO.C,D1*%
X166250000Y-98850000D03*
X166250000Y-96650000D03*
%TD*%
D21*
%TO.C,C19*%
X186025000Y-92750000D03*
X184475000Y-92750000D03*
%TD*%
D22*
%TO.C,C18*%
X185950000Y-100250000D03*
X184050000Y-100250000D03*
%TD*%
%TO.C,C17*%
X185950000Y-98250000D03*
X184050000Y-98250000D03*
%TD*%
D21*
%TO.C,C16*%
X173025000Y-105000000D03*
X171475000Y-105000000D03*
%TD*%
D22*
%TO.C,C15*%
X172950000Y-99750000D03*
X171050000Y-99750000D03*
%TD*%
D23*
%TO.C,C14*%
X173250000Y-90725000D03*
X173250000Y-92275000D03*
%TD*%
D24*
%TO.C,C13*%
X175725000Y-95750000D03*
X177275000Y-95750000D03*
%TD*%
%TO.C,C12*%
X180225000Y-88750000D03*
X181775000Y-88750000D03*
%TD*%
D12*
%TO.C,C11*%
X162500000Y-90800000D03*
X162500000Y-94700000D03*
%TD*%
D23*
%TO.C,C10*%
X168500000Y-96225000D03*
X168500000Y-97775000D03*
%TD*%
D25*
%TO.C,C9*%
X168500000Y-101025000D03*
X168500000Y-99475000D03*
%TD*%
D23*
%TO.C,C8*%
X164250000Y-100475000D03*
X164250000Y-102025000D03*
%TD*%
D25*
%TO.C,C7*%
X166250000Y-102025000D03*
X166250000Y-100475000D03*
%TD*%
D24*
%TO.C,C6*%
X175725000Y-104500000D03*
X177275000Y-104500000D03*
%TD*%
%TO.C,C5*%
X180225000Y-97500000D03*
X181775000Y-97500000D03*
%TD*%
D26*
%TO.C,C4*%
X176025000Y-110250000D03*
X178975000Y-110250000D03*
%TD*%
%TO.C,C3*%
X171025000Y-110250000D03*
X173975000Y-110250000D03*
%TD*%
M02*
