%TF.GenerationSoftware,KiCad,Pcbnew,6.0.7-f9a2dced07~116~ubuntu20.04.1*%
%TF.CreationDate,2022-10-06T22:18:55-07:00*%
%TF.ProjectId,test-amp,74657374-2d61-46d7-902e-6b696361645f,rev?*%
%TF.SameCoordinates,Original*%
%TF.FileFunction,Legend,Top*%
%TF.FilePolarity,Positive*%
%FSLAX46Y46*%
G04 Gerber Fmt 4.6, Leading zero omitted, Abs format (unit mm)*
G04 Created by KiCad (PCBNEW 6.0.7-f9a2dced07~116~ubuntu20.04.1) date 2022-10-06 22:18:55*
%MOMM*%
%LPD*%
G01*
G04 APERTURE LIST*
%ADD10C,0.150000*%
%ADD11C,0.120000*%
%ADD12C,0.300000*%
G04 APERTURE END LIST*
D10*
X159135714Y-86952142D02*
X159088095Y-86999761D01*
X158945238Y-87047380D01*
X158850000Y-87047380D01*
X158707142Y-86999761D01*
X158611904Y-86904523D01*
X158564285Y-86809285D01*
X158516666Y-86618809D01*
X158516666Y-86475952D01*
X158564285Y-86285476D01*
X158611904Y-86190238D01*
X158707142Y-86095000D01*
X158850000Y-86047380D01*
X158945238Y-86047380D01*
X159088095Y-86095000D01*
X159135714Y-86142619D01*
X159564285Y-87047380D02*
X159564285Y-86380714D01*
X159564285Y-86571190D02*
X159611904Y-86475952D01*
X159659523Y-86428333D01*
X159754761Y-86380714D01*
X159850000Y-86380714D01*
X160326190Y-87047380D02*
X160230952Y-86999761D01*
X160183333Y-86952142D01*
X160135714Y-86856904D01*
X160135714Y-86571190D01*
X160183333Y-86475952D01*
X160230952Y-86428333D01*
X160326190Y-86380714D01*
X160469047Y-86380714D01*
X160564285Y-86428333D01*
X160611904Y-86475952D01*
X160659523Y-86571190D01*
X160659523Y-86856904D01*
X160611904Y-86952142D01*
X160564285Y-86999761D01*
X160469047Y-87047380D01*
X160326190Y-87047380D01*
X161040476Y-86999761D02*
X161135714Y-87047380D01*
X161326190Y-87047380D01*
X161421428Y-86999761D01*
X161469047Y-86904523D01*
X161469047Y-86856904D01*
X161421428Y-86761666D01*
X161326190Y-86714047D01*
X161183333Y-86714047D01*
X161088095Y-86666428D01*
X161040476Y-86571190D01*
X161040476Y-86523571D01*
X161088095Y-86428333D01*
X161183333Y-86380714D01*
X161326190Y-86380714D01*
X161421428Y-86428333D01*
X161850000Y-86999761D02*
X161945238Y-87047380D01*
X162135714Y-87047380D01*
X162230952Y-86999761D01*
X162278571Y-86904523D01*
X162278571Y-86856904D01*
X162230952Y-86761666D01*
X162135714Y-86714047D01*
X161992857Y-86714047D01*
X161897619Y-86666428D01*
X161850000Y-86571190D01*
X161850000Y-86523571D01*
X161897619Y-86428333D01*
X161992857Y-86380714D01*
X162135714Y-86380714D01*
X162230952Y-86428333D01*
X162850000Y-87047380D02*
X162754761Y-86999761D01*
X162707142Y-86952142D01*
X162659523Y-86856904D01*
X162659523Y-86571190D01*
X162707142Y-86475952D01*
X162754761Y-86428333D01*
X162850000Y-86380714D01*
X162992857Y-86380714D01*
X163088095Y-86428333D01*
X163135714Y-86475952D01*
X163183333Y-86571190D01*
X163183333Y-86856904D01*
X163135714Y-86952142D01*
X163088095Y-86999761D01*
X162992857Y-87047380D01*
X162850000Y-87047380D01*
X163516666Y-86380714D02*
X163754761Y-87047380D01*
X163992857Y-86380714D01*
X164754761Y-86999761D02*
X164659523Y-87047380D01*
X164469047Y-87047380D01*
X164373809Y-86999761D01*
X164326190Y-86904523D01*
X164326190Y-86523571D01*
X164373809Y-86428333D01*
X164469047Y-86380714D01*
X164659523Y-86380714D01*
X164754761Y-86428333D01*
X164802380Y-86523571D01*
X164802380Y-86618809D01*
X164326190Y-86714047D01*
X165230952Y-87047380D02*
X165230952Y-86380714D01*
X165230952Y-86571190D02*
X165278571Y-86475952D01*
X165326190Y-86428333D01*
X165421428Y-86380714D01*
X165516666Y-86380714D01*
X161421428Y-88371666D02*
X161897619Y-88371666D01*
X161326190Y-88657380D02*
X161659523Y-87657380D01*
X161992857Y-88657380D01*
X162754761Y-88657380D02*
X162754761Y-87657380D01*
X162754761Y-88609761D02*
X162659523Y-88657380D01*
X162469047Y-88657380D01*
X162373809Y-88609761D01*
X162326190Y-88562142D01*
X162278571Y-88466904D01*
X162278571Y-88181190D01*
X162326190Y-88085952D01*
X162373809Y-88038333D01*
X162469047Y-87990714D01*
X162659523Y-87990714D01*
X162754761Y-88038333D01*
X163230952Y-87990714D02*
X163230952Y-88847857D01*
X163183333Y-88943095D01*
X163088095Y-88990714D01*
X163040476Y-88990714D01*
X163230952Y-87657380D02*
X163183333Y-87705000D01*
X163230952Y-87752619D01*
X163278571Y-87705000D01*
X163230952Y-87657380D01*
X163230952Y-87752619D01*
X167969047Y-86145000D02*
X167873809Y-86097380D01*
X167730952Y-86097380D01*
X167588095Y-86145000D01*
X167492857Y-86240238D01*
X167445238Y-86335476D01*
X167397619Y-86525952D01*
X167397619Y-86668809D01*
X167445238Y-86859285D01*
X167492857Y-86954523D01*
X167588095Y-87049761D01*
X167730952Y-87097380D01*
X167826190Y-87097380D01*
X167969047Y-87049761D01*
X168016666Y-87002142D01*
X168016666Y-86668809D01*
X167826190Y-86668809D01*
X168873809Y-87097380D02*
X168873809Y-86573571D01*
X168826190Y-86478333D01*
X168730952Y-86430714D01*
X168540476Y-86430714D01*
X168445238Y-86478333D01*
X168873809Y-87049761D02*
X168778571Y-87097380D01*
X168540476Y-87097380D01*
X168445238Y-87049761D01*
X168397619Y-86954523D01*
X168397619Y-86859285D01*
X168445238Y-86764047D01*
X168540476Y-86716428D01*
X168778571Y-86716428D01*
X168873809Y-86668809D01*
X169350000Y-87097380D02*
X169350000Y-86430714D01*
X169350000Y-86097380D02*
X169302380Y-86145000D01*
X169350000Y-86192619D01*
X169397619Y-86145000D01*
X169350000Y-86097380D01*
X169350000Y-86192619D01*
X169826190Y-86430714D02*
X169826190Y-87097380D01*
X169826190Y-86525952D02*
X169873809Y-86478333D01*
X169969047Y-86430714D01*
X170111904Y-86430714D01*
X170207142Y-86478333D01*
X170254761Y-86573571D01*
X170254761Y-87097380D01*
X167921428Y-88421666D02*
X168397619Y-88421666D01*
X167826190Y-88707380D02*
X168159523Y-87707380D01*
X168492857Y-88707380D01*
X169254761Y-88707380D02*
X169254761Y-87707380D01*
X169254761Y-88659761D02*
X169159523Y-88707380D01*
X168969047Y-88707380D01*
X168873809Y-88659761D01*
X168826190Y-88612142D01*
X168778571Y-88516904D01*
X168778571Y-88231190D01*
X168826190Y-88135952D01*
X168873809Y-88088333D01*
X168969047Y-88040714D01*
X169159523Y-88040714D01*
X169254761Y-88088333D01*
X169730952Y-88040714D02*
X169730952Y-88897857D01*
X169683333Y-88993095D01*
X169588095Y-89040714D01*
X169540476Y-89040714D01*
X169730952Y-87707380D02*
X169683333Y-87755000D01*
X169730952Y-87802619D01*
X169778571Y-87755000D01*
X169730952Y-87707380D01*
X169730952Y-87802619D01*
X164459523Y-77747380D02*
X164459523Y-77080714D01*
X164459523Y-77271190D02*
X164507142Y-77175952D01*
X164554761Y-77128333D01*
X164650000Y-77080714D01*
X164745238Y-77080714D01*
X165221428Y-77747380D02*
X165126190Y-77699761D01*
X165078571Y-77652142D01*
X165030952Y-77556904D01*
X165030952Y-77271190D01*
X165078571Y-77175952D01*
X165126190Y-77128333D01*
X165221428Y-77080714D01*
X165364285Y-77080714D01*
X165459523Y-77128333D01*
X165507142Y-77175952D01*
X165554761Y-77271190D01*
X165554761Y-77556904D01*
X165507142Y-77652142D01*
X165459523Y-77699761D01*
X165364285Y-77747380D01*
X165221428Y-77747380D01*
X166411904Y-77080714D02*
X166411904Y-77890238D01*
X166364285Y-77985476D01*
X166316666Y-78033095D01*
X166221428Y-78080714D01*
X166078571Y-78080714D01*
X165983333Y-78033095D01*
X166411904Y-77699761D02*
X166316666Y-77747380D01*
X166126190Y-77747380D01*
X166030952Y-77699761D01*
X165983333Y-77652142D01*
X165935714Y-77556904D01*
X165935714Y-77271190D01*
X165983333Y-77175952D01*
X166030952Y-77128333D01*
X166126190Y-77080714D01*
X166316666Y-77080714D01*
X166411904Y-77128333D01*
X167030952Y-77747380D02*
X166935714Y-77699761D01*
X166888095Y-77652142D01*
X166840476Y-77556904D01*
X166840476Y-77271190D01*
X166888095Y-77175952D01*
X166935714Y-77128333D01*
X167030952Y-77080714D01*
X167173809Y-77080714D01*
X167269047Y-77128333D01*
X167316666Y-77175952D01*
X167364285Y-77271190D01*
X167364285Y-77556904D01*
X167316666Y-77652142D01*
X167269047Y-77699761D01*
X167173809Y-77747380D01*
X167030952Y-77747380D01*
X167697619Y-77080714D02*
X167888095Y-77747380D01*
X168078571Y-77271190D01*
X168269047Y-77747380D01*
X168459523Y-77080714D01*
X168792857Y-77699761D02*
X168888095Y-77747380D01*
X169078571Y-77747380D01*
X169173809Y-77699761D01*
X169221428Y-77604523D01*
X169221428Y-77556904D01*
X169173809Y-77461666D01*
X169078571Y-77414047D01*
X168935714Y-77414047D01*
X168840476Y-77366428D01*
X168792857Y-77271190D01*
X168792857Y-77223571D01*
X168840476Y-77128333D01*
X168935714Y-77080714D01*
X169078571Y-77080714D01*
X169173809Y-77128333D01*
X169650000Y-77747380D02*
X169650000Y-76747380D01*
X169745238Y-77366428D02*
X170030952Y-77747380D01*
X170030952Y-77080714D02*
X169650000Y-77461666D01*
X170459523Y-77747380D02*
X170459523Y-77080714D01*
X170459523Y-76747380D02*
X170411904Y-76795000D01*
X170459523Y-76842619D01*
X170507142Y-76795000D01*
X170459523Y-76747380D01*
X170459523Y-76842619D01*
X172126190Y-77699761D02*
X172030952Y-77747380D01*
X171840476Y-77747380D01*
X171745238Y-77699761D01*
X171697619Y-77652142D01*
X171650000Y-77556904D01*
X171650000Y-77271190D01*
X171697619Y-77175952D01*
X171745238Y-77128333D01*
X171840476Y-77080714D01*
X172030952Y-77080714D01*
X172126190Y-77128333D01*
X172697619Y-77747380D02*
X172602380Y-77699761D01*
X172554761Y-77652142D01*
X172507142Y-77556904D01*
X172507142Y-77271190D01*
X172554761Y-77175952D01*
X172602380Y-77128333D01*
X172697619Y-77080714D01*
X172840476Y-77080714D01*
X172935714Y-77128333D01*
X172983333Y-77175952D01*
X173030952Y-77271190D01*
X173030952Y-77556904D01*
X172983333Y-77652142D01*
X172935714Y-77699761D01*
X172840476Y-77747380D01*
X172697619Y-77747380D01*
X173459523Y-77747380D02*
X173459523Y-77080714D01*
X173459523Y-76747380D02*
X173411904Y-76795000D01*
X173459523Y-76842619D01*
X173507142Y-76795000D01*
X173459523Y-76747380D01*
X173459523Y-76842619D01*
X174078571Y-77747380D02*
X173983333Y-77699761D01*
X173935714Y-77604523D01*
X173935714Y-76747380D01*
X175221428Y-77747380D02*
X175221428Y-77080714D01*
X175221428Y-76747380D02*
X175173809Y-76795000D01*
X175221428Y-76842619D01*
X175269047Y-76795000D01*
X175221428Y-76747380D01*
X175221428Y-76842619D01*
X175697619Y-77080714D02*
X175697619Y-77747380D01*
X175697619Y-77175952D02*
X175745238Y-77128333D01*
X175840476Y-77080714D01*
X175983333Y-77080714D01*
X176078571Y-77128333D01*
X176126190Y-77223571D01*
X176126190Y-77747380D01*
X176459523Y-77080714D02*
X176840476Y-77080714D01*
X176602380Y-76747380D02*
X176602380Y-77604523D01*
X176650000Y-77699761D01*
X176745238Y-77747380D01*
X176840476Y-77747380D01*
X177554761Y-77699761D02*
X177459523Y-77747380D01*
X177269047Y-77747380D01*
X177173809Y-77699761D01*
X177126190Y-77604523D01*
X177126190Y-77223571D01*
X177173809Y-77128333D01*
X177269047Y-77080714D01*
X177459523Y-77080714D01*
X177554761Y-77128333D01*
X177602380Y-77223571D01*
X177602380Y-77318809D01*
X177126190Y-77414047D01*
X178459523Y-77080714D02*
X178459523Y-77890238D01*
X178411904Y-77985476D01*
X178364285Y-78033095D01*
X178269047Y-78080714D01*
X178126190Y-78080714D01*
X178030952Y-78033095D01*
X178459523Y-77699761D02*
X178364285Y-77747380D01*
X178173809Y-77747380D01*
X178078571Y-77699761D01*
X178030952Y-77652142D01*
X177983333Y-77556904D01*
X177983333Y-77271190D01*
X178030952Y-77175952D01*
X178078571Y-77128333D01*
X178173809Y-77080714D01*
X178364285Y-77080714D01*
X178459523Y-77128333D01*
X178935714Y-77747380D02*
X178935714Y-77080714D01*
X178935714Y-77271190D02*
X178983333Y-77175952D01*
X179030952Y-77128333D01*
X179126190Y-77080714D01*
X179221428Y-77080714D01*
X179983333Y-77747380D02*
X179983333Y-77223571D01*
X179935714Y-77128333D01*
X179840476Y-77080714D01*
X179650000Y-77080714D01*
X179554761Y-77128333D01*
X179983333Y-77699761D02*
X179888095Y-77747380D01*
X179650000Y-77747380D01*
X179554761Y-77699761D01*
X179507142Y-77604523D01*
X179507142Y-77509285D01*
X179554761Y-77414047D01*
X179650000Y-77366428D01*
X179888095Y-77366428D01*
X179983333Y-77318809D01*
X180316666Y-77080714D02*
X180697619Y-77080714D01*
X180459523Y-76747380D02*
X180459523Y-77604523D01*
X180507142Y-77699761D01*
X180602380Y-77747380D01*
X180697619Y-77747380D01*
X181173809Y-77747380D02*
X181078571Y-77699761D01*
X181030952Y-77652142D01*
X180983333Y-77556904D01*
X180983333Y-77271190D01*
X181030952Y-77175952D01*
X181078571Y-77128333D01*
X181173809Y-77080714D01*
X181316666Y-77080714D01*
X181411904Y-77128333D01*
X181459523Y-77175952D01*
X181507142Y-77271190D01*
X181507142Y-77556904D01*
X181459523Y-77652142D01*
X181411904Y-77699761D01*
X181316666Y-77747380D01*
X181173809Y-77747380D01*
X181935714Y-77747380D02*
X181935714Y-77080714D01*
X181935714Y-77271190D02*
X181983333Y-77175952D01*
X182030952Y-77128333D01*
X182126190Y-77080714D01*
X182221428Y-77080714D01*
X172126190Y-78357380D02*
X172459523Y-79357380D01*
X172792857Y-78357380D01*
X173650000Y-79357380D02*
X173078571Y-79357380D01*
X173364285Y-79357380D02*
X173364285Y-78357380D01*
X173269047Y-78500238D01*
X173173809Y-78595476D01*
X173078571Y-78643095D01*
X174078571Y-79262142D02*
X174126190Y-79309761D01*
X174078571Y-79357380D01*
X174030952Y-79309761D01*
X174078571Y-79262142D01*
X174078571Y-79357380D01*
X174745238Y-78357380D02*
X174840476Y-78357380D01*
X174935714Y-78405000D01*
X174983333Y-78452619D01*
X175030952Y-78547857D01*
X175078571Y-78738333D01*
X175078571Y-78976428D01*
X175030952Y-79166904D01*
X174983333Y-79262142D01*
X174935714Y-79309761D01*
X174840476Y-79357380D01*
X174745238Y-79357380D01*
X174650000Y-79309761D01*
X174602380Y-79262142D01*
X174554761Y-79166904D01*
X174507142Y-78976428D01*
X174507142Y-78738333D01*
X174554761Y-78547857D01*
X174602380Y-78452619D01*
X174650000Y-78405000D01*
X174745238Y-78357380D01*
X157576190Y-92152380D02*
X157576190Y-91152380D01*
X158052380Y-92152380D02*
X158052380Y-91152380D01*
X158623809Y-92152380D01*
X158623809Y-91152380D01*
X183738095Y-105647380D02*
X183738095Y-104647380D01*
X184309523Y-105647380D01*
X184309523Y-104647380D01*
X185214285Y-104980714D02*
X185214285Y-105647380D01*
X184785714Y-104980714D02*
X184785714Y-105504523D01*
X184833333Y-105599761D01*
X184928571Y-105647380D01*
X185071428Y-105647380D01*
X185166666Y-105599761D01*
X185214285Y-105552142D01*
X185833333Y-105647380D02*
X185738095Y-105599761D01*
X185690476Y-105504523D01*
X185690476Y-104647380D01*
X186357142Y-105647380D02*
X186261904Y-105599761D01*
X186214285Y-105504523D01*
X186214285Y-104647380D01*
X184166666Y-106257380D02*
X184357142Y-106257380D01*
X184452380Y-106305000D01*
X184547619Y-106400238D01*
X184595238Y-106590714D01*
X184595238Y-106924047D01*
X184547619Y-107114523D01*
X184452380Y-107209761D01*
X184357142Y-107257380D01*
X184166666Y-107257380D01*
X184071428Y-107209761D01*
X183976190Y-107114523D01*
X183928571Y-106924047D01*
X183928571Y-106590714D01*
X183976190Y-106400238D01*
X184071428Y-106305000D01*
X184166666Y-106257380D01*
X185452380Y-106590714D02*
X185452380Y-107257380D01*
X185023809Y-106590714D02*
X185023809Y-107114523D01*
X185071428Y-107209761D01*
X185166666Y-107257380D01*
X185309523Y-107257380D01*
X185404761Y-107209761D01*
X185452380Y-107162142D01*
X185785714Y-106590714D02*
X186166666Y-106590714D01*
X185928571Y-106257380D02*
X185928571Y-107114523D01*
X185976190Y-107209761D01*
X186071428Y-107257380D01*
X186166666Y-107257380D01*
X190166666Y-92452380D02*
X190357142Y-92452380D01*
X190452380Y-92500000D01*
X190547619Y-92595238D01*
X190595238Y-92785714D01*
X190595238Y-93119047D01*
X190547619Y-93309523D01*
X190452380Y-93404761D01*
X190357142Y-93452380D01*
X190166666Y-93452380D01*
X190071428Y-93404761D01*
X189976190Y-93309523D01*
X189928571Y-93119047D01*
X189928571Y-92785714D01*
X189976190Y-92595238D01*
X190071428Y-92500000D01*
X190166666Y-92452380D01*
X191452380Y-92785714D02*
X191452380Y-93452380D01*
X191023809Y-92785714D02*
X191023809Y-93309523D01*
X191071428Y-93404761D01*
X191166666Y-93452380D01*
X191309523Y-93452380D01*
X191404761Y-93404761D01*
X191452380Y-93357142D01*
X191785714Y-92785714D02*
X192166666Y-92785714D01*
X191928571Y-92452380D02*
X191928571Y-93309523D01*
X191976190Y-93404761D01*
X192071428Y-93452380D01*
X192166666Y-93452380D01*
X175571428Y-84647380D02*
X175571428Y-83647380D01*
X176047619Y-83980714D02*
X176047619Y-84647380D01*
X176047619Y-84075952D02*
X176095238Y-84028333D01*
X176190476Y-83980714D01*
X176333333Y-83980714D01*
X176428571Y-84028333D01*
X176476190Y-84123571D01*
X176476190Y-84647380D01*
X176809523Y-83980714D02*
X177190476Y-83980714D01*
X176952380Y-83647380D02*
X176952380Y-84504523D01*
X177000000Y-84599761D01*
X177095238Y-84647380D01*
X177190476Y-84647380D01*
X177904761Y-84599761D02*
X177809523Y-84647380D01*
X177619047Y-84647380D01*
X177523809Y-84599761D01*
X177476190Y-84504523D01*
X177476190Y-84123571D01*
X177523809Y-84028333D01*
X177619047Y-83980714D01*
X177809523Y-83980714D01*
X177904761Y-84028333D01*
X177952380Y-84123571D01*
X177952380Y-84218809D01*
X177476190Y-84314047D01*
X178809523Y-83980714D02*
X178809523Y-84790238D01*
X178761904Y-84885476D01*
X178714285Y-84933095D01*
X178619047Y-84980714D01*
X178476190Y-84980714D01*
X178380952Y-84933095D01*
X178809523Y-84599761D02*
X178714285Y-84647380D01*
X178523809Y-84647380D01*
X178428571Y-84599761D01*
X178380952Y-84552142D01*
X178333333Y-84456904D01*
X178333333Y-84171190D01*
X178380952Y-84075952D01*
X178428571Y-84028333D01*
X178523809Y-83980714D01*
X178714285Y-83980714D01*
X178809523Y-84028333D01*
X179285714Y-84647380D02*
X179285714Y-83980714D01*
X179285714Y-84171190D02*
X179333333Y-84075952D01*
X179380952Y-84028333D01*
X179476190Y-83980714D01*
X179571428Y-83980714D01*
X180333333Y-84647380D02*
X180333333Y-84123571D01*
X180285714Y-84028333D01*
X180190476Y-83980714D01*
X180000000Y-83980714D01*
X179904761Y-84028333D01*
X180333333Y-84599761D02*
X180238095Y-84647380D01*
X180000000Y-84647380D01*
X179904761Y-84599761D01*
X179857142Y-84504523D01*
X179857142Y-84409285D01*
X179904761Y-84314047D01*
X180000000Y-84266428D01*
X180238095Y-84266428D01*
X180333333Y-84218809D01*
X180666666Y-83980714D02*
X181047619Y-83980714D01*
X180809523Y-83647380D02*
X180809523Y-84504523D01*
X180857142Y-84599761D01*
X180952380Y-84647380D01*
X181047619Y-84647380D01*
X181523809Y-84647380D02*
X181428571Y-84599761D01*
X181380952Y-84552142D01*
X181333333Y-84456904D01*
X181333333Y-84171190D01*
X181380952Y-84075952D01*
X181428571Y-84028333D01*
X181523809Y-83980714D01*
X181666666Y-83980714D01*
X181761904Y-84028333D01*
X181809523Y-84075952D01*
X181857142Y-84171190D01*
X181857142Y-84456904D01*
X181809523Y-84552142D01*
X181761904Y-84599761D01*
X181666666Y-84647380D01*
X181523809Y-84647380D01*
X182285714Y-84647380D02*
X182285714Y-83980714D01*
X182285714Y-84171190D02*
X182333333Y-84075952D01*
X182380952Y-84028333D01*
X182476190Y-83980714D01*
X182571428Y-83980714D01*
X178166666Y-85257380D02*
X178357142Y-85257380D01*
X178452380Y-85305000D01*
X178547619Y-85400238D01*
X178595238Y-85590714D01*
X178595238Y-85924047D01*
X178547619Y-86114523D01*
X178452380Y-86209761D01*
X178357142Y-86257380D01*
X178166666Y-86257380D01*
X178071428Y-86209761D01*
X177976190Y-86114523D01*
X177928571Y-85924047D01*
X177928571Y-85590714D01*
X177976190Y-85400238D01*
X178071428Y-85305000D01*
X178166666Y-85257380D01*
X179452380Y-85590714D02*
X179452380Y-86257380D01*
X179023809Y-85590714D02*
X179023809Y-86114523D01*
X179071428Y-86209761D01*
X179166666Y-86257380D01*
X179309523Y-86257380D01*
X179404761Y-86209761D01*
X179452380Y-86162142D01*
X179785714Y-85590714D02*
X180166666Y-85590714D01*
X179928571Y-85257380D02*
X179928571Y-86114523D01*
X179976190Y-86209761D01*
X180071428Y-86257380D01*
X180166666Y-86257380D01*
X160266666Y-120802380D02*
X160600000Y-121802380D01*
X160933333Y-120802380D01*
X161266666Y-121802380D02*
X161266666Y-120802380D01*
X161504761Y-120802380D01*
X161647619Y-120850000D01*
X161742857Y-120945238D01*
X161790476Y-121040476D01*
X161838095Y-121230952D01*
X161838095Y-121373809D01*
X161790476Y-121564285D01*
X161742857Y-121659523D01*
X161647619Y-121754761D01*
X161504761Y-121802380D01*
X161266666Y-121802380D01*
X162266666Y-121802380D02*
X162266666Y-120802380D01*
X162504761Y-120802380D01*
X162647619Y-120850000D01*
X162742857Y-120945238D01*
X162790476Y-121040476D01*
X162838095Y-121230952D01*
X162838095Y-121373809D01*
X162790476Y-121564285D01*
X162742857Y-121659523D01*
X162647619Y-121754761D01*
X162504761Y-121802380D01*
X162266666Y-121802380D01*
X188114285Y-118652380D02*
X188447619Y-119652380D01*
X188780952Y-118652380D01*
X189066666Y-119604761D02*
X189209523Y-119652380D01*
X189447619Y-119652380D01*
X189542857Y-119604761D01*
X189590476Y-119557142D01*
X189638095Y-119461904D01*
X189638095Y-119366666D01*
X189590476Y-119271428D01*
X189542857Y-119223809D01*
X189447619Y-119176190D01*
X189257142Y-119128571D01*
X189161904Y-119080952D01*
X189114285Y-119033333D01*
X189066666Y-118938095D01*
X189066666Y-118842857D01*
X189114285Y-118747619D01*
X189161904Y-118700000D01*
X189257142Y-118652380D01*
X189495238Y-118652380D01*
X189638095Y-118700000D01*
X190019047Y-119604761D02*
X190161904Y-119652380D01*
X190400000Y-119652380D01*
X190495238Y-119604761D01*
X190542857Y-119557142D01*
X190590476Y-119461904D01*
X190590476Y-119366666D01*
X190542857Y-119271428D01*
X190495238Y-119223809D01*
X190400000Y-119176190D01*
X190209523Y-119128571D01*
X190114285Y-119080952D01*
X190066666Y-119033333D01*
X190019047Y-118938095D01*
X190019047Y-118842857D01*
X190066666Y-118747619D01*
X190114285Y-118700000D01*
X190209523Y-118652380D01*
X190447619Y-118652380D01*
X190590476Y-118700000D01*
X195738095Y-112750000D02*
X195642857Y-112702380D01*
X195500000Y-112702380D01*
X195357142Y-112750000D01*
X195261904Y-112845238D01*
X195214285Y-112940476D01*
X195166666Y-113130952D01*
X195166666Y-113273809D01*
X195214285Y-113464285D01*
X195261904Y-113559523D01*
X195357142Y-113654761D01*
X195500000Y-113702380D01*
X195595238Y-113702380D01*
X195738095Y-113654761D01*
X195785714Y-113607142D01*
X195785714Y-113273809D01*
X195595238Y-113273809D01*
X196214285Y-113702380D02*
X196214285Y-112702380D01*
X196785714Y-113702380D01*
X196785714Y-112702380D01*
X197261904Y-113702380D02*
X197261904Y-112702380D01*
X197500000Y-112702380D01*
X197642857Y-112750000D01*
X197738095Y-112845238D01*
X197785714Y-112940476D01*
X197833333Y-113130952D01*
X197833333Y-113273809D01*
X197785714Y-113464285D01*
X197738095Y-113559523D01*
X197642857Y-113654761D01*
X197500000Y-113702380D01*
X197261904Y-113702380D01*
X154138095Y-113050000D02*
X154042857Y-113002380D01*
X153900000Y-113002380D01*
X153757142Y-113050000D01*
X153661904Y-113145238D01*
X153614285Y-113240476D01*
X153566666Y-113430952D01*
X153566666Y-113573809D01*
X153614285Y-113764285D01*
X153661904Y-113859523D01*
X153757142Y-113954761D01*
X153900000Y-114002380D01*
X153995238Y-114002380D01*
X154138095Y-113954761D01*
X154185714Y-113907142D01*
X154185714Y-113573809D01*
X153995238Y-113573809D01*
X154614285Y-114002380D02*
X154614285Y-113002380D01*
X155185714Y-114002380D01*
X155185714Y-113002380D01*
X155661904Y-114002380D02*
X155661904Y-113002380D01*
X155900000Y-113002380D01*
X156042857Y-113050000D01*
X156138095Y-113145238D01*
X156185714Y-113240476D01*
X156233333Y-113430952D01*
X156233333Y-113573809D01*
X156185714Y-113764285D01*
X156138095Y-113859523D01*
X156042857Y-113954761D01*
X155900000Y-114002380D01*
X155661904Y-114002380D01*
X152288095Y-87950000D02*
X152192857Y-87902380D01*
X152050000Y-87902380D01*
X151907142Y-87950000D01*
X151811904Y-88045238D01*
X151764285Y-88140476D01*
X151716666Y-88330952D01*
X151716666Y-88473809D01*
X151764285Y-88664285D01*
X151811904Y-88759523D01*
X151907142Y-88854761D01*
X152050000Y-88902380D01*
X152145238Y-88902380D01*
X152288095Y-88854761D01*
X152335714Y-88807142D01*
X152335714Y-88473809D01*
X152145238Y-88473809D01*
X152764285Y-88902380D02*
X152764285Y-87902380D01*
X153335714Y-88902380D01*
X153335714Y-87902380D01*
X153811904Y-88902380D02*
X153811904Y-87902380D01*
X154050000Y-87902380D01*
X154192857Y-87950000D01*
X154288095Y-88045238D01*
X154335714Y-88140476D01*
X154383333Y-88330952D01*
X154383333Y-88473809D01*
X154335714Y-88664285D01*
X154288095Y-88759523D01*
X154192857Y-88854761D01*
X154050000Y-88902380D01*
X153811904Y-88902380D01*
X194988095Y-87550000D02*
X194892857Y-87502380D01*
X194750000Y-87502380D01*
X194607142Y-87550000D01*
X194511904Y-87645238D01*
X194464285Y-87740476D01*
X194416666Y-87930952D01*
X194416666Y-88073809D01*
X194464285Y-88264285D01*
X194511904Y-88359523D01*
X194607142Y-88454761D01*
X194750000Y-88502380D01*
X194845238Y-88502380D01*
X194988095Y-88454761D01*
X195035714Y-88407142D01*
X195035714Y-88073809D01*
X194845238Y-88073809D01*
X195464285Y-88502380D02*
X195464285Y-87502380D01*
X196035714Y-88502380D01*
X196035714Y-87502380D01*
X196511904Y-88502380D02*
X196511904Y-87502380D01*
X196750000Y-87502380D01*
X196892857Y-87550000D01*
X196988095Y-87645238D01*
X197035714Y-87740476D01*
X197083333Y-87930952D01*
X197083333Y-88073809D01*
X197035714Y-88264285D01*
X196988095Y-88359523D01*
X196892857Y-88454761D01*
X196750000Y-88502380D01*
X196511904Y-88502380D01*
X196500000Y-105202380D02*
X196690476Y-105202380D01*
X196785714Y-105250000D01*
X196880952Y-105345238D01*
X196928571Y-105535714D01*
X196928571Y-105869047D01*
X196880952Y-106059523D01*
X196785714Y-106154761D01*
X196690476Y-106202380D01*
X196500000Y-106202380D01*
X196404761Y-106154761D01*
X196309523Y-106059523D01*
X196261904Y-105869047D01*
X196261904Y-105535714D01*
X196309523Y-105345238D01*
X196404761Y-105250000D01*
X196500000Y-105202380D01*
X197357142Y-105202380D02*
X197357142Y-106011904D01*
X197404761Y-106107142D01*
X197452380Y-106154761D01*
X197547619Y-106202380D01*
X197738095Y-106202380D01*
X197833333Y-106154761D01*
X197880952Y-106107142D01*
X197928571Y-106011904D01*
X197928571Y-105202380D01*
X198261904Y-105202380D02*
X198833333Y-105202380D01*
X198547619Y-106202380D02*
X198547619Y-105202380D01*
X151726190Y-106452380D02*
X151726190Y-105452380D01*
X152202380Y-106452380D02*
X152202380Y-105452380D01*
X152773809Y-106452380D01*
X152773809Y-105452380D01*
X181440476Y-122821428D02*
X182202380Y-122821428D01*
X181821428Y-123202380D02*
X181821428Y-122440476D01*
X183392857Y-122154761D02*
X182535714Y-123440476D01*
X183726190Y-122821428D02*
X184488095Y-122821428D01*
X186154761Y-122202380D02*
X185964285Y-122202380D01*
X185869047Y-122250000D01*
X185821428Y-122297619D01*
X185726190Y-122440476D01*
X185678571Y-122630952D01*
X185678571Y-123011904D01*
X185726190Y-123107142D01*
X185773809Y-123154761D01*
X185869047Y-123202380D01*
X186059523Y-123202380D01*
X186154761Y-123154761D01*
X186202380Y-123107142D01*
X186250000Y-123011904D01*
X186250000Y-122773809D01*
X186202380Y-122678571D01*
X186154761Y-122630952D01*
X186059523Y-122583333D01*
X185869047Y-122583333D01*
X185773809Y-122630952D01*
X185726190Y-122678571D01*
X185678571Y-122773809D01*
X186535714Y-122202380D02*
X186869047Y-123202380D01*
X187202380Y-122202380D01*
X177464285Y-116202380D02*
X177797619Y-117202380D01*
X178130952Y-116202380D01*
X178416666Y-117154761D02*
X178559523Y-117202380D01*
X178797619Y-117202380D01*
X178892857Y-117154761D01*
X178940476Y-117107142D01*
X178988095Y-117011904D01*
X178988095Y-116916666D01*
X178940476Y-116821428D01*
X178892857Y-116773809D01*
X178797619Y-116726190D01*
X178607142Y-116678571D01*
X178511904Y-116630952D01*
X178464285Y-116583333D01*
X178416666Y-116488095D01*
X178416666Y-116392857D01*
X178464285Y-116297619D01*
X178511904Y-116250000D01*
X178607142Y-116202380D01*
X178845238Y-116202380D01*
X178988095Y-116250000D01*
X179369047Y-117154761D02*
X179511904Y-117202380D01*
X179750000Y-117202380D01*
X179845238Y-117154761D01*
X179892857Y-117107142D01*
X179940476Y-117011904D01*
X179940476Y-116916666D01*
X179892857Y-116821428D01*
X179845238Y-116773809D01*
X179750000Y-116726190D01*
X179559523Y-116678571D01*
X179464285Y-116630952D01*
X179416666Y-116583333D01*
X179369047Y-116488095D01*
X179369047Y-116392857D01*
X179416666Y-116297619D01*
X179464285Y-116250000D01*
X179559523Y-116202380D01*
X179797619Y-116202380D01*
X179940476Y-116250000D01*
X174238095Y-116250000D02*
X174142857Y-116202380D01*
X174000000Y-116202380D01*
X173857142Y-116250000D01*
X173761904Y-116345238D01*
X173714285Y-116440476D01*
X173666666Y-116630952D01*
X173666666Y-116773809D01*
X173714285Y-116964285D01*
X173761904Y-117059523D01*
X173857142Y-117154761D01*
X174000000Y-117202380D01*
X174095238Y-117202380D01*
X174238095Y-117154761D01*
X174285714Y-117107142D01*
X174285714Y-116773809D01*
X174095238Y-116773809D01*
X174714285Y-117202380D02*
X174714285Y-116202380D01*
X175285714Y-117202380D01*
X175285714Y-116202380D01*
X175761904Y-117202380D02*
X175761904Y-116202380D01*
X176000000Y-116202380D01*
X176142857Y-116250000D01*
X176238095Y-116345238D01*
X176285714Y-116440476D01*
X176333333Y-116630952D01*
X176333333Y-116773809D01*
X176285714Y-116964285D01*
X176238095Y-117059523D01*
X176142857Y-117154761D01*
X176000000Y-117202380D01*
X175761904Y-117202380D01*
X169666666Y-116202380D02*
X170000000Y-117202380D01*
X170333333Y-116202380D01*
X170666666Y-117202380D02*
X170666666Y-116202380D01*
X170904761Y-116202380D01*
X171047619Y-116250000D01*
X171142857Y-116345238D01*
X171190476Y-116440476D01*
X171238095Y-116630952D01*
X171238095Y-116773809D01*
X171190476Y-116964285D01*
X171142857Y-117059523D01*
X171047619Y-117154761D01*
X170904761Y-117202380D01*
X170666666Y-117202380D01*
X171666666Y-117202380D02*
X171666666Y-116202380D01*
X171904761Y-116202380D01*
X172047619Y-116250000D01*
X172142857Y-116345238D01*
X172190476Y-116440476D01*
X172238095Y-116630952D01*
X172238095Y-116773809D01*
X172190476Y-116964285D01*
X172142857Y-117059523D01*
X172047619Y-117154761D01*
X171904761Y-117202380D01*
X171666666Y-117202380D01*
D11*
%TO.C,U2*%
X178750000Y-94810000D02*
X176800000Y-94810000D01*
X178750000Y-89690000D02*
X175300000Y-89690000D01*
X178750000Y-94810000D02*
X180700000Y-94810000D01*
X178750000Y-89690000D02*
X180700000Y-89690000D01*
%TO.C,U1*%
X178750000Y-103560000D02*
X176800000Y-103560000D01*
X178750000Y-98440000D02*
X175300000Y-98440000D01*
X178750000Y-103560000D02*
X180700000Y-103560000D01*
X178750000Y-98440000D02*
X180700000Y-98440000D01*
D10*
%TO.C,RV1*%
X170000000Y-94250000D02*
X170000000Y-90250000D01*
X169000000Y-94250000D02*
X170000000Y-94250000D01*
X166000000Y-94250000D02*
X166000000Y-90250000D01*
X167000000Y-94250000D02*
X166000000Y-94250000D01*
D11*
%TO.C,R13*%
X192977064Y-99090000D02*
X191522936Y-99090000D01*
X192977064Y-100910000D02*
X191522936Y-100910000D01*
%TO.C,R12*%
X185487258Y-89772500D02*
X185012742Y-89772500D01*
X185487258Y-88727500D02*
X185012742Y-88727500D01*
%TO.C,R11*%
X185012742Y-90477500D02*
X185487258Y-90477500D01*
X185012742Y-91522500D02*
X185487258Y-91522500D01*
%TO.C,R10*%
X185487258Y-95022500D02*
X185012742Y-95022500D01*
X185487258Y-93977500D02*
X185012742Y-93977500D01*
%TO.C,R9*%
X185012742Y-95727500D02*
X185487258Y-95727500D01*
X185012742Y-96772500D02*
X185487258Y-96772500D01*
%TO.C,R8*%
X168762742Y-104477500D02*
X169237258Y-104477500D01*
X168762742Y-105522500D02*
X169237258Y-105522500D01*
%TO.C,R7*%
X172487258Y-103772500D02*
X172012742Y-103772500D01*
X172487258Y-102727500D02*
X172012742Y-102727500D01*
%TO.C,R6*%
X172487258Y-102272500D02*
X172012742Y-102272500D01*
X172487258Y-101227500D02*
X172012742Y-101227500D01*
%TO.C,R5*%
X172022500Y-91262742D02*
X172022500Y-91737258D01*
X170977500Y-91262742D02*
X170977500Y-91737258D01*
%TO.C,R4*%
X172487258Y-98272500D02*
X172012742Y-98272500D01*
X172487258Y-97227500D02*
X172012742Y-97227500D01*
%TO.C,R3*%
X172012742Y-95477500D02*
X172487258Y-95477500D01*
X172012742Y-96522500D02*
X172487258Y-96522500D01*
%TO.C,R2*%
X172012742Y-93727500D02*
X172487258Y-93727500D01*
X172012742Y-94772500D02*
X172487258Y-94772500D01*
%TO.C,R1*%
X160590000Y-99227064D02*
X160590000Y-97772936D01*
X162410000Y-99227064D02*
X162410000Y-97772936D01*
D12*
%TO.C,J7*%
X199750000Y-99000000D02*
X199750000Y-97250000D01*
X199750000Y-102750000D02*
X199750000Y-101000000D01*
D11*
%TO.C,J2*%
X179300000Y-123500000D02*
X175000000Y-123500000D01*
X180050000Y-118300000D02*
X178250000Y-118300000D01*
X171750000Y-118300000D02*
X169950000Y-118300000D01*
X178250000Y-118300000D02*
X178250000Y-119050000D01*
X180050000Y-120550000D02*
X179300000Y-120550000D01*
X179300000Y-120550000D02*
X179300000Y-123500000D01*
X176750000Y-118300000D02*
X173250000Y-118300000D01*
X180050000Y-119050000D02*
X180050000Y-118300000D01*
X170900000Y-118000000D02*
X169650000Y-118000000D01*
X180060000Y-118290000D02*
X169940000Y-118290000D01*
X169950000Y-118300000D02*
X169950000Y-119050000D01*
X170700000Y-123500000D02*
X175000000Y-123500000D01*
X176750000Y-119050000D02*
X176750000Y-118300000D01*
X169940000Y-118290000D02*
X169940000Y-124260000D01*
X169950000Y-120550000D02*
X170700000Y-120550000D01*
X170700000Y-120550000D02*
X170700000Y-123500000D01*
X178250000Y-119050000D02*
X180050000Y-119050000D01*
X171750000Y-119050000D02*
X171750000Y-118300000D01*
X173250000Y-118300000D02*
X173250000Y-119050000D01*
X180060000Y-124260000D02*
X180060000Y-118290000D01*
X169950000Y-119050000D02*
X171750000Y-119050000D01*
X173250000Y-119050000D02*
X176750000Y-119050000D01*
X169940000Y-124260000D02*
X180060000Y-124260000D01*
X169650000Y-118000000D02*
X169650000Y-119250000D01*
D12*
%TO.C,J1*%
X150250000Y-101000000D02*
X150250000Y-102750000D01*
X150250000Y-97250000D02*
X150250000Y-99000000D01*
D11*
%TO.C,FB2*%
X178440000Y-113899622D02*
X178440000Y-113100378D01*
X179560000Y-113899622D02*
X179560000Y-113100378D01*
%TO.C,FB1*%
X171560000Y-113350378D02*
X171560000Y-114149622D01*
X170440000Y-113350378D02*
X170440000Y-114149622D01*
%TO.C,D2*%
X164850000Y-96250000D02*
X163150000Y-96250000D01*
X164850000Y-96250000D02*
X164850000Y-98800000D01*
X163150000Y-96250000D02*
X163150000Y-98800000D01*
%TO.C,D1*%
X167100000Y-99250000D02*
X167100000Y-96700000D01*
X165400000Y-99250000D02*
X165400000Y-96700000D01*
X165400000Y-99250000D02*
X167100000Y-99250000D01*
%TO.C,C19*%
X185109420Y-92240000D02*
X185390580Y-92240000D01*
X185109420Y-93260000D02*
X185390580Y-93260000D01*
%TO.C,C18*%
X184738748Y-99515000D02*
X185261252Y-99515000D01*
X184738748Y-100985000D02*
X185261252Y-100985000D01*
%TO.C,C17*%
X184738748Y-97515000D02*
X185261252Y-97515000D01*
X184738748Y-98985000D02*
X185261252Y-98985000D01*
%TO.C,C16*%
X172109420Y-104490000D02*
X172390580Y-104490000D01*
X172109420Y-105510000D02*
X172390580Y-105510000D01*
%TO.C,C15*%
X171738748Y-99015000D02*
X172261252Y-99015000D01*
X171738748Y-100485000D02*
X172261252Y-100485000D01*
%TO.C,C14*%
X172740000Y-91640580D02*
X172740000Y-91359420D01*
X173760000Y-91640580D02*
X173760000Y-91359420D01*
%TO.C,C13*%
X176640580Y-96260000D02*
X176359420Y-96260000D01*
X176640580Y-95240000D02*
X176359420Y-95240000D01*
%TO.C,C12*%
X181140580Y-89260000D02*
X180859420Y-89260000D01*
X181140580Y-88240000D02*
X180859420Y-88240000D01*
%TO.C,C11*%
X161200000Y-95200000D02*
X160700000Y-94700000D01*
X160700000Y-90300000D02*
X161200000Y-90300000D01*
X160700000Y-90300000D02*
X160700000Y-90800000D01*
X164300000Y-90300000D02*
X163800000Y-90300000D01*
X164300000Y-90300000D02*
X164300000Y-90800000D01*
X163800000Y-95200000D02*
X164300000Y-94700000D01*
%TO.C,C10*%
X167990000Y-97140580D02*
X167990000Y-96859420D01*
X169010000Y-97140580D02*
X169010000Y-96859420D01*
%TO.C,C9*%
X169010000Y-100109420D02*
X169010000Y-100390580D01*
X167990000Y-100109420D02*
X167990000Y-100390580D01*
%TO.C,C8*%
X163740000Y-101390580D02*
X163740000Y-101109420D01*
X164760000Y-101390580D02*
X164760000Y-101109420D01*
%TO.C,C7*%
X166760000Y-101109420D02*
X166760000Y-101390580D01*
X165740000Y-101109420D02*
X165740000Y-101390580D01*
%TO.C,C6*%
X176640580Y-105010000D02*
X176359420Y-105010000D01*
X176640580Y-103990000D02*
X176359420Y-103990000D01*
%TO.C,C5*%
X181140580Y-98010000D02*
X180859420Y-98010000D01*
X181140580Y-96990000D02*
X180859420Y-96990000D01*
%TO.C,C4*%
X176788748Y-109340000D02*
X178211252Y-109340000D01*
X176788748Y-111160000D02*
X178211252Y-111160000D01*
%TO.C,C3*%
X171788748Y-109340000D02*
X173211252Y-109340000D01*
X171788748Y-111160000D02*
X173211252Y-111160000D01*
%TO.C,C2*%
X184311651Y-115195000D02*
X184311651Y-109305000D01*
X186592651Y-116292000D02*
X186592651Y-108208000D01*
X186311651Y-111210000D02*
X186311651Y-108256000D01*
X186952651Y-116326000D02*
X186952651Y-108174000D01*
X186752651Y-116311000D02*
X186752651Y-108189000D01*
X185871651Y-111210000D02*
X185871651Y-108373000D01*
X183751651Y-114537000D02*
X183751651Y-109963000D01*
X185791651Y-116100000D02*
X185791651Y-113290000D01*
X186111651Y-116197000D02*
X186111651Y-113290000D01*
X183391651Y-113895000D02*
X183391651Y-110605000D01*
X183911651Y-114755000D02*
X183911651Y-109745000D01*
X186992651Y-116327000D02*
X186992651Y-108173000D01*
X185111651Y-111210000D02*
X185111651Y-108710000D01*
X186191651Y-111210000D02*
X186191651Y-108283000D01*
X185591651Y-111210000D02*
X185591651Y-108476000D01*
X184271651Y-115157000D02*
X184271651Y-109343000D01*
X185391651Y-115936000D02*
X185391651Y-113290000D01*
X185511651Y-115990000D02*
X185511651Y-113290000D01*
X184071651Y-114947000D02*
X184071651Y-109553000D01*
X186351651Y-116252000D02*
X186351651Y-113290000D01*
X186391651Y-111210000D02*
X186391651Y-108240000D01*
X184871651Y-115642000D02*
X184871651Y-113290000D01*
X185631651Y-116040000D02*
X185631651Y-113290000D01*
X185951651Y-111210000D02*
X185951651Y-108348000D01*
X185911651Y-116139000D02*
X185911651Y-113290000D01*
X186191651Y-116217000D02*
X186191651Y-113290000D01*
X185031651Y-111210000D02*
X185031651Y-108757000D01*
X183951651Y-114806000D02*
X183951651Y-109694000D01*
X183471651Y-114063000D02*
X183471651Y-110437000D01*
X186391651Y-116260000D02*
X186391651Y-113290000D01*
X186512651Y-116280000D02*
X186512651Y-108220000D01*
X187112651Y-116330000D02*
X187112651Y-108170000D01*
X184991651Y-115719000D02*
X184991651Y-113290000D01*
X186071651Y-116186000D02*
X186071651Y-113290000D01*
X185831651Y-111210000D02*
X185831651Y-108387000D01*
X184191651Y-115076000D02*
X184191651Y-109424000D01*
X183671651Y-114416000D02*
X183671651Y-110084000D01*
X184511651Y-115374000D02*
X184511651Y-113290000D01*
X184631651Y-111210000D02*
X184631651Y-109030000D01*
X186792651Y-116315000D02*
X186792651Y-108185000D01*
X183231651Y-113479000D02*
X183231651Y-111021000D01*
X185191651Y-111210000D02*
X185191651Y-108666000D01*
X186231651Y-116226000D02*
X186231651Y-113290000D01*
X191162349Y-114965000D02*
X191162349Y-114165000D01*
X186031651Y-116175000D02*
X186031651Y-113290000D01*
X186351651Y-111210000D02*
X186351651Y-108248000D01*
X186151651Y-116207000D02*
X186151651Y-113290000D01*
X185471651Y-111210000D02*
X185471651Y-108528000D01*
X184911651Y-111210000D02*
X184911651Y-108832000D01*
X186872651Y-116321000D02*
X186872651Y-108179000D01*
X185751651Y-116085000D02*
X185751651Y-113290000D01*
X185231651Y-115856000D02*
X185231651Y-113290000D01*
X185351651Y-111210000D02*
X185351651Y-108584000D01*
X184591651Y-111210000D02*
X184591651Y-109061000D01*
X185991651Y-111210000D02*
X185991651Y-108336000D01*
X186311651Y-116244000D02*
X186311651Y-113290000D01*
X185231651Y-111210000D02*
X185231651Y-108644000D01*
X184031651Y-114901000D02*
X184031651Y-109599000D01*
X185511651Y-111210000D02*
X185511651Y-108510000D01*
X185911651Y-111210000D02*
X185911651Y-108361000D01*
X184831651Y-111210000D02*
X184831651Y-108885000D01*
X186431651Y-111210000D02*
X186431651Y-108233000D01*
X185151651Y-111210000D02*
X185151651Y-108688000D01*
X184551651Y-111210000D02*
X184551651Y-109094000D01*
X184431651Y-111210000D02*
X184431651Y-109195000D01*
X184111651Y-114991000D02*
X184111651Y-109509000D01*
X185071651Y-115767000D02*
X185071651Y-113290000D01*
X185751651Y-111210000D02*
X185751651Y-108415000D01*
X185111651Y-115790000D02*
X185111651Y-113290000D01*
X184511651Y-111210000D02*
X184511651Y-109126000D01*
X184391651Y-115269000D02*
X184391651Y-113290000D01*
X186632651Y-116298000D02*
X186632651Y-108202000D01*
X185431651Y-111210000D02*
X185431651Y-108546000D01*
X185631651Y-111210000D02*
X185631651Y-108460000D01*
X184791651Y-115588000D02*
X184791651Y-113290000D01*
X186472651Y-116274000D02*
X186472651Y-108226000D01*
X186271651Y-111210000D02*
X186271651Y-108265000D01*
X184471651Y-115340000D02*
X184471651Y-113290000D01*
X183551651Y-114214000D02*
X183551651Y-110286000D01*
X183631651Y-114352000D02*
X183631651Y-110148000D01*
X183071651Y-112783000D02*
X183071651Y-111717000D01*
X183831651Y-114650000D02*
X183831651Y-109850000D01*
X184871651Y-111210000D02*
X184871651Y-108858000D01*
X184711651Y-115530000D02*
X184711651Y-113290000D01*
X185831651Y-116113000D02*
X185831651Y-113290000D01*
X183591651Y-114284000D02*
X183591651Y-110216000D01*
X185071651Y-111210000D02*
X185071651Y-108733000D01*
X185151651Y-115812000D02*
X185151651Y-113290000D01*
X187032651Y-116329000D02*
X187032651Y-108171000D01*
X185711651Y-111210000D02*
X185711651Y-108429000D01*
X184351651Y-115233000D02*
X184351651Y-109267000D01*
X184391651Y-111210000D02*
X184391651Y-109231000D01*
X184471651Y-111210000D02*
X184471651Y-109160000D01*
X185271651Y-111210000D02*
X185271651Y-108623000D01*
X186912651Y-116324000D02*
X186912651Y-108176000D01*
X184151651Y-115034000D02*
X184151651Y-109466000D01*
X184431651Y-115305000D02*
X184431651Y-113290000D01*
X185431651Y-115954000D02*
X185431651Y-113290000D01*
X185711651Y-116071000D02*
X185711651Y-113290000D01*
X184791651Y-111210000D02*
X184791651Y-108912000D01*
X186071651Y-111210000D02*
X186071651Y-108314000D01*
X185871651Y-116127000D02*
X185871651Y-113290000D01*
X185471651Y-115972000D02*
X185471651Y-113290000D01*
X184711651Y-111210000D02*
X184711651Y-108970000D01*
X185031651Y-115743000D02*
X185031651Y-113290000D01*
X186151651Y-111210000D02*
X186151651Y-108293000D01*
X191562349Y-114565000D02*
X190762349Y-114565000D01*
X183111651Y-113018000D02*
X183111651Y-111482000D01*
X185671651Y-111210000D02*
X185671651Y-108445000D01*
X185951651Y-116152000D02*
X185951651Y-113290000D01*
X186111651Y-111210000D02*
X186111651Y-108303000D01*
X184231651Y-115117000D02*
X184231651Y-109383000D01*
X186271651Y-116235000D02*
X186271651Y-113290000D01*
X183511651Y-114140000D02*
X183511651Y-110360000D01*
X184671651Y-111210000D02*
X184671651Y-109000000D01*
X184831651Y-115615000D02*
X184831651Y-113290000D01*
X185191651Y-115834000D02*
X185191651Y-113290000D01*
X186031651Y-111210000D02*
X186031651Y-108325000D01*
X185551651Y-111210000D02*
X185551651Y-108493000D01*
X183791651Y-114595000D02*
X183791651Y-109905000D01*
X184951651Y-111210000D02*
X184951651Y-108806000D01*
X185351651Y-115916000D02*
X185351651Y-113290000D01*
X184591651Y-115439000D02*
X184591651Y-113290000D01*
X184631651Y-115470000D02*
X184631651Y-113290000D01*
X185591651Y-116024000D02*
X185591651Y-113290000D01*
X185271651Y-115877000D02*
X185271651Y-113290000D01*
X183351651Y-113802000D02*
X183351651Y-110698000D01*
X187152651Y-116330000D02*
X187152651Y-108170000D01*
X184991651Y-111210000D02*
X184991651Y-108781000D01*
X185671651Y-116055000D02*
X185671651Y-113290000D01*
X186231651Y-111210000D02*
X186231651Y-108274000D01*
X186672651Y-116302000D02*
X186672651Y-108198000D01*
X186431651Y-116267000D02*
X186431651Y-113290000D01*
X184911651Y-115668000D02*
X184911651Y-113290000D01*
X184551651Y-115406000D02*
X184551651Y-113290000D01*
X183711651Y-114478000D02*
X183711651Y-110022000D01*
X184671651Y-115500000D02*
X184671651Y-113290000D01*
X183271651Y-113596000D02*
X183271651Y-110904000D01*
X185791651Y-111210000D02*
X185791651Y-108400000D01*
X187072651Y-116330000D02*
X187072651Y-108170000D01*
X183991651Y-114854000D02*
X183991651Y-109646000D01*
X186552651Y-116287000D02*
X186552651Y-108213000D01*
X185311651Y-115897000D02*
X185311651Y-113290000D01*
X184751651Y-115559000D02*
X184751651Y-113290000D01*
X183191651Y-113348000D02*
X183191651Y-111152000D01*
X183431651Y-113981000D02*
X183431651Y-110519000D01*
X186832651Y-116318000D02*
X186832651Y-108182000D01*
X183311651Y-113703000D02*
X183311651Y-110797000D01*
X185311651Y-111210000D02*
X185311651Y-108603000D01*
X184951651Y-115694000D02*
X184951651Y-113290000D01*
X185551651Y-116007000D02*
X185551651Y-113290000D01*
X185391651Y-111210000D02*
X185391651Y-108564000D01*
X186712651Y-116307000D02*
X186712651Y-108193000D01*
X183151651Y-113198000D02*
X183151651Y-111302000D01*
X183871651Y-114704000D02*
X183871651Y-109796000D01*
X185991651Y-116164000D02*
X185991651Y-113290000D01*
X184751651Y-111210000D02*
X184751651Y-108941000D01*
X191272651Y-112250000D02*
G75*
G03*
X191272651Y-112250000I-4120000J0D01*
G01*
%TO.C,C1*%
X159311651Y-115195000D02*
X159311651Y-109305000D01*
X161592651Y-116292000D02*
X161592651Y-108208000D01*
X161311651Y-111210000D02*
X161311651Y-108256000D01*
X161952651Y-116326000D02*
X161952651Y-108174000D01*
X161752651Y-116311000D02*
X161752651Y-108189000D01*
X160871651Y-111210000D02*
X160871651Y-108373000D01*
X158751651Y-114537000D02*
X158751651Y-109963000D01*
X160791651Y-116100000D02*
X160791651Y-113290000D01*
X161111651Y-116197000D02*
X161111651Y-113290000D01*
X158391651Y-113895000D02*
X158391651Y-110605000D01*
X158911651Y-114755000D02*
X158911651Y-109745000D01*
X161992651Y-116327000D02*
X161992651Y-108173000D01*
X160111651Y-111210000D02*
X160111651Y-108710000D01*
X161191651Y-111210000D02*
X161191651Y-108283000D01*
X160591651Y-111210000D02*
X160591651Y-108476000D01*
X159271651Y-115157000D02*
X159271651Y-109343000D01*
X160391651Y-115936000D02*
X160391651Y-113290000D01*
X160511651Y-115990000D02*
X160511651Y-113290000D01*
X159071651Y-114947000D02*
X159071651Y-109553000D01*
X161351651Y-116252000D02*
X161351651Y-113290000D01*
X161391651Y-111210000D02*
X161391651Y-108240000D01*
X159871651Y-115642000D02*
X159871651Y-113290000D01*
X160631651Y-116040000D02*
X160631651Y-113290000D01*
X160951651Y-111210000D02*
X160951651Y-108348000D01*
X160911651Y-116139000D02*
X160911651Y-113290000D01*
X161191651Y-116217000D02*
X161191651Y-113290000D01*
X160031651Y-111210000D02*
X160031651Y-108757000D01*
X158951651Y-114806000D02*
X158951651Y-109694000D01*
X158471651Y-114063000D02*
X158471651Y-110437000D01*
X161391651Y-116260000D02*
X161391651Y-113290000D01*
X161512651Y-116280000D02*
X161512651Y-108220000D01*
X162112651Y-116330000D02*
X162112651Y-108170000D01*
X159991651Y-115719000D02*
X159991651Y-113290000D01*
X161071651Y-116186000D02*
X161071651Y-113290000D01*
X160831651Y-111210000D02*
X160831651Y-108387000D01*
X159191651Y-115076000D02*
X159191651Y-109424000D01*
X158671651Y-114416000D02*
X158671651Y-110084000D01*
X159511651Y-115374000D02*
X159511651Y-113290000D01*
X159631651Y-111210000D02*
X159631651Y-109030000D01*
X161792651Y-116315000D02*
X161792651Y-108185000D01*
X158231651Y-113479000D02*
X158231651Y-111021000D01*
X160191651Y-111210000D02*
X160191651Y-108666000D01*
X161231651Y-116226000D02*
X161231651Y-113290000D01*
X166162349Y-114965000D02*
X166162349Y-114165000D01*
X161031651Y-116175000D02*
X161031651Y-113290000D01*
X161351651Y-111210000D02*
X161351651Y-108248000D01*
X161151651Y-116207000D02*
X161151651Y-113290000D01*
X160471651Y-111210000D02*
X160471651Y-108528000D01*
X159911651Y-111210000D02*
X159911651Y-108832000D01*
X161872651Y-116321000D02*
X161872651Y-108179000D01*
X160751651Y-116085000D02*
X160751651Y-113290000D01*
X160231651Y-115856000D02*
X160231651Y-113290000D01*
X160351651Y-111210000D02*
X160351651Y-108584000D01*
X159591651Y-111210000D02*
X159591651Y-109061000D01*
X160991651Y-111210000D02*
X160991651Y-108336000D01*
X161311651Y-116244000D02*
X161311651Y-113290000D01*
X160231651Y-111210000D02*
X160231651Y-108644000D01*
X159031651Y-114901000D02*
X159031651Y-109599000D01*
X160511651Y-111210000D02*
X160511651Y-108510000D01*
X160911651Y-111210000D02*
X160911651Y-108361000D01*
X159831651Y-111210000D02*
X159831651Y-108885000D01*
X161431651Y-111210000D02*
X161431651Y-108233000D01*
X160151651Y-111210000D02*
X160151651Y-108688000D01*
X159551651Y-111210000D02*
X159551651Y-109094000D01*
X159431651Y-111210000D02*
X159431651Y-109195000D01*
X159111651Y-114991000D02*
X159111651Y-109509000D01*
X160071651Y-115767000D02*
X160071651Y-113290000D01*
X160751651Y-111210000D02*
X160751651Y-108415000D01*
X160111651Y-115790000D02*
X160111651Y-113290000D01*
X159511651Y-111210000D02*
X159511651Y-109126000D01*
X159391651Y-115269000D02*
X159391651Y-113290000D01*
X161632651Y-116298000D02*
X161632651Y-108202000D01*
X160431651Y-111210000D02*
X160431651Y-108546000D01*
X160631651Y-111210000D02*
X160631651Y-108460000D01*
X159791651Y-115588000D02*
X159791651Y-113290000D01*
X161472651Y-116274000D02*
X161472651Y-108226000D01*
X161271651Y-111210000D02*
X161271651Y-108265000D01*
X159471651Y-115340000D02*
X159471651Y-113290000D01*
X158551651Y-114214000D02*
X158551651Y-110286000D01*
X158631651Y-114352000D02*
X158631651Y-110148000D01*
X158071651Y-112783000D02*
X158071651Y-111717000D01*
X158831651Y-114650000D02*
X158831651Y-109850000D01*
X159871651Y-111210000D02*
X159871651Y-108858000D01*
X159711651Y-115530000D02*
X159711651Y-113290000D01*
X160831651Y-116113000D02*
X160831651Y-113290000D01*
X158591651Y-114284000D02*
X158591651Y-110216000D01*
X160071651Y-111210000D02*
X160071651Y-108733000D01*
X160151651Y-115812000D02*
X160151651Y-113290000D01*
X162032651Y-116329000D02*
X162032651Y-108171000D01*
X160711651Y-111210000D02*
X160711651Y-108429000D01*
X159351651Y-115233000D02*
X159351651Y-109267000D01*
X159391651Y-111210000D02*
X159391651Y-109231000D01*
X159471651Y-111210000D02*
X159471651Y-109160000D01*
X160271651Y-111210000D02*
X160271651Y-108623000D01*
X161912651Y-116324000D02*
X161912651Y-108176000D01*
X159151651Y-115034000D02*
X159151651Y-109466000D01*
X159431651Y-115305000D02*
X159431651Y-113290000D01*
X160431651Y-115954000D02*
X160431651Y-113290000D01*
X160711651Y-116071000D02*
X160711651Y-113290000D01*
X159791651Y-111210000D02*
X159791651Y-108912000D01*
X161071651Y-111210000D02*
X161071651Y-108314000D01*
X160871651Y-116127000D02*
X160871651Y-113290000D01*
X160471651Y-115972000D02*
X160471651Y-113290000D01*
X159711651Y-111210000D02*
X159711651Y-108970000D01*
X160031651Y-115743000D02*
X160031651Y-113290000D01*
X161151651Y-111210000D02*
X161151651Y-108293000D01*
X166562349Y-114565000D02*
X165762349Y-114565000D01*
X158111651Y-113018000D02*
X158111651Y-111482000D01*
X160671651Y-111210000D02*
X160671651Y-108445000D01*
X160951651Y-116152000D02*
X160951651Y-113290000D01*
X161111651Y-111210000D02*
X161111651Y-108303000D01*
X159231651Y-115117000D02*
X159231651Y-109383000D01*
X161271651Y-116235000D02*
X161271651Y-113290000D01*
X158511651Y-114140000D02*
X158511651Y-110360000D01*
X159671651Y-111210000D02*
X159671651Y-109000000D01*
X159831651Y-115615000D02*
X159831651Y-113290000D01*
X160191651Y-115834000D02*
X160191651Y-113290000D01*
X161031651Y-111210000D02*
X161031651Y-108325000D01*
X160551651Y-111210000D02*
X160551651Y-108493000D01*
X158791651Y-114595000D02*
X158791651Y-109905000D01*
X159951651Y-111210000D02*
X159951651Y-108806000D01*
X160351651Y-115916000D02*
X160351651Y-113290000D01*
X159591651Y-115439000D02*
X159591651Y-113290000D01*
X159631651Y-115470000D02*
X159631651Y-113290000D01*
X160591651Y-116024000D02*
X160591651Y-113290000D01*
X160271651Y-115877000D02*
X160271651Y-113290000D01*
X158351651Y-113802000D02*
X158351651Y-110698000D01*
X162152651Y-116330000D02*
X162152651Y-108170000D01*
X159991651Y-111210000D02*
X159991651Y-108781000D01*
X160671651Y-116055000D02*
X160671651Y-113290000D01*
X161231651Y-111210000D02*
X161231651Y-108274000D01*
X161672651Y-116302000D02*
X161672651Y-108198000D01*
X161431651Y-116267000D02*
X161431651Y-113290000D01*
X159911651Y-115668000D02*
X159911651Y-113290000D01*
X159551651Y-115406000D02*
X159551651Y-113290000D01*
X158711651Y-114478000D02*
X158711651Y-110022000D01*
X159671651Y-115500000D02*
X159671651Y-113290000D01*
X158271651Y-113596000D02*
X158271651Y-110904000D01*
X160791651Y-111210000D02*
X160791651Y-108400000D01*
X162072651Y-116330000D02*
X162072651Y-108170000D01*
X158991651Y-114854000D02*
X158991651Y-109646000D01*
X161552651Y-116287000D02*
X161552651Y-108213000D01*
X160311651Y-115897000D02*
X160311651Y-113290000D01*
X159751651Y-115559000D02*
X159751651Y-113290000D01*
X158191651Y-113348000D02*
X158191651Y-111152000D01*
X158431651Y-113981000D02*
X158431651Y-110519000D01*
X161832651Y-116318000D02*
X161832651Y-108182000D01*
X158311651Y-113703000D02*
X158311651Y-110797000D01*
X160311651Y-111210000D02*
X160311651Y-108603000D01*
X159951651Y-115694000D02*
X159951651Y-113290000D01*
X160551651Y-116007000D02*
X160551651Y-113290000D01*
X160391651Y-111210000D02*
X160391651Y-108564000D01*
X161712651Y-116307000D02*
X161712651Y-108193000D01*
X158151651Y-113198000D02*
X158151651Y-111302000D01*
X158871651Y-114704000D02*
X158871651Y-109796000D01*
X160991651Y-116164000D02*
X160991651Y-113290000D01*
X159751651Y-111210000D02*
X159751651Y-108941000D01*
X166272651Y-112250000D02*
G75*
G03*
X166272651Y-112250000I-4120000J0D01*
G01*
%TD*%
M02*
