%TF.GenerationSoftware,KiCad,Pcbnew,6.0.7-f9a2dced07~116~ubuntu20.04.1*%
%TF.CreationDate,2022-10-06T22:18:55-07:00*%
%TF.ProjectId,test-amp,74657374-2d61-46d7-902e-6b696361645f,rev?*%
%TF.SameCoordinates,Original*%
%TF.FileFunction,Copper,L2,Inr*%
%TF.FilePolarity,Positive*%
%FSLAX46Y46*%
G04 Gerber Fmt 4.6, Leading zero omitted, Abs format (unit mm)*
G04 Created by KiCad (PCBNEW 6.0.7-f9a2dced07~116~ubuntu20.04.1) date 2022-10-06 22:18:55*
%MOMM*%
%LPD*%
G01*
G04 APERTURE LIST*
G04 Aperture macros list*
%AMRoundRect*
0 Rectangle with rounded corners*
0 $1 Rounding radius*
0 $2 $3 $4 $5 $6 $7 $8 $9 X,Y pos of 4 corners*
0 Add a 4 corners polygon primitive as box body*
4,1,4,$2,$3,$4,$5,$6,$7,$8,$9,$2,$3,0*
0 Add four circle primitives for the rounded corners*
1,1,$1+$1,$2,$3*
1,1,$1+$1,$4,$5*
1,1,$1+$1,$6,$7*
1,1,$1+$1,$8,$9*
0 Add four rect primitives between the rounded corners*
20,1,$1+$1,$2,$3,$4,$5,0*
20,1,$1+$1,$4,$5,$6,$7,0*
20,1,$1+$1,$6,$7,$8,$9,0*
20,1,$1+$1,$8,$9,$2,$3,0*%
G04 Aperture macros list end*
%TA.AperFunction,ComponentPad*%
%ADD10C,2.000000*%
%TD*%
%TA.AperFunction,ComponentPad*%
%ADD11C,6.400000*%
%TD*%
%TA.AperFunction,ComponentPad*%
%ADD12C,0.800000*%
%TD*%
%TA.AperFunction,ComponentPad*%
%ADD13RoundRect,0.250000X-0.600000X-0.725000X0.600000X-0.725000X0.600000X0.725000X-0.600000X0.725000X0*%
%TD*%
%TA.AperFunction,ComponentPad*%
%ADD14O,1.700000X1.950000*%
%TD*%
%TA.AperFunction,ComponentPad*%
%ADD15R,1.600000X1.600000*%
%TD*%
%TA.AperFunction,ComponentPad*%
%ADD16C,1.600000*%
%TD*%
%TA.AperFunction,ViaPad*%
%ADD17C,0.600000*%
%TD*%
G04 APERTURE END LIST*
D10*
%TO.N,VSS*%
%TO.C,TP10*%
X186250000Y-119000000D03*
%TD*%
%TO.N,VDD*%
%TO.C,TP9*%
X164750000Y-121250000D03*
%TD*%
%TO.N,Net-(R12-Pad1)*%
%TO.C,TP8*%
X190750000Y-96000000D03*
%TD*%
%TO.N,GND*%
%TO.C,TP7*%
X195750000Y-85650000D03*
%TD*%
%TO.N,GND*%
%TO.C,TP6*%
X152950000Y-86050000D03*
%TD*%
%TO.N,GND*%
%TO.C,TP5*%
X196500000Y-110750000D03*
%TD*%
%TO.N,GND*%
%TO.C,TP4*%
X151750000Y-113500000D03*
%TD*%
%TO.N,Net-(C14-Pad2)*%
%TO.C,TP3*%
X174250000Y-87000000D03*
%TD*%
%TO.N,Net-(C15-Pad1)*%
%TO.C,TP2*%
X180750000Y-106500000D03*
%TD*%
%TO.N,Net-(C10-Pad1)*%
%TO.C,TP1*%
X158000000Y-94000000D03*
%TD*%
D11*
%TO.N,GND*%
%TO.C,J6*%
X195500000Y-120500000D03*
D12*
X198000000Y-120500000D03*
X197250000Y-118750000D03*
X195500000Y-118000000D03*
X193000000Y-120500000D03*
X195500000Y-123000000D03*
X193750000Y-122250000D03*
X193750000Y-118750000D03*
X197250000Y-122250000D03*
%TD*%
D11*
%TO.N,GND*%
%TO.C,J5*%
X154500000Y-120500000D03*
D12*
X157000000Y-120500000D03*
X156250000Y-118750000D03*
X154500000Y-118000000D03*
X152000000Y-120500000D03*
X154500000Y-123000000D03*
X152750000Y-122250000D03*
X152750000Y-118750000D03*
X156250000Y-122250000D03*
%TD*%
D11*
%TO.N,GND*%
%TO.C,J4*%
X195500000Y-79500000D03*
D12*
X198000000Y-79500000D03*
X197250000Y-77750000D03*
X195500000Y-77000000D03*
X193000000Y-79500000D03*
X195500000Y-82000000D03*
X193750000Y-81250000D03*
X193750000Y-77750000D03*
X197250000Y-81250000D03*
%TD*%
D11*
%TO.N,GND*%
%TO.C,J3*%
X154500000Y-79500000D03*
D12*
X157000000Y-79500000D03*
X156250000Y-77750000D03*
X154500000Y-77000000D03*
X152000000Y-79500000D03*
X154500000Y-82000000D03*
X152750000Y-81250000D03*
X152750000Y-77750000D03*
X156250000Y-81250000D03*
%TD*%
D13*
%TO.N,Net-(FB1-Pad2)*%
%TO.C,J2*%
X172500000Y-120750000D03*
D14*
%TO.N,GND*%
X175000000Y-120750000D03*
%TO.N,Net-(FB2-Pad1)*%
X177500000Y-120750000D03*
%TD*%
D15*
%TO.N,GND*%
%TO.C,C2*%
X188902651Y-112250000D03*
D16*
%TO.N,VSS*%
X185402651Y-112250000D03*
%TD*%
D15*
%TO.N,VDD*%
%TO.C,C1*%
X163902651Y-112250000D03*
D16*
%TO.N,GND*%
X160402651Y-112250000D03*
%TD*%
D17*
%TO.N,Net-(J1-Pad1)*%
X153100000Y-100000000D03*
X154350000Y-100000000D03*
X151750000Y-100000000D03*
%TO.N,GND*%
X158000000Y-97000000D03*
X165000000Y-92000000D03*
X178000000Y-107000000D03*
X175000000Y-107000000D03*
X168000000Y-108000000D03*
X164000000Y-106000000D03*
X194000000Y-115000000D03*
X182000000Y-116000000D03*
X168000000Y-117000000D03*
X161000000Y-119000000D03*
X180000000Y-81000000D03*
X165000000Y-82000000D03*
X171000000Y-84000000D03*
X165000000Y-89000000D03*
X156000000Y-88000000D03*
X152000000Y-93000000D03*
X155000000Y-106000000D03*
X158000000Y-103000000D03*
X193000000Y-108000000D03*
X191000000Y-103000000D03*
X187000000Y-104000000D03*
X186000000Y-85000000D03*
X189000000Y-79000000D03*
X197000000Y-94000000D03*
X194000000Y-92000000D03*
X189000000Y-88000000D03*
X162500000Y-90000000D03*
X166850000Y-93900000D03*
X166850000Y-89650000D03*
%TO.N,VSS*%
X179900000Y-110250000D03*
X178950000Y-108900000D03*
%TO.N,GND*%
X176000000Y-111550000D03*
X174000000Y-111500000D03*
%TO.N,VDD*%
X171000000Y-108950000D03*
X170050000Y-110250000D03*
%TO.N,GND*%
X176000000Y-108900000D03*
X174000000Y-108900000D03*
%TO.N,Net-(C14-Pad2)*%
X179600000Y-95450000D03*
X170600000Y-103250000D03*
%TO.N,Net-(C10-Pad1)*%
X169500000Y-97800000D03*
%TO.N,GND*%
X170700000Y-101750000D03*
X170700000Y-96000000D03*
X168500000Y-95450000D03*
%TO.N,VSS*%
X163450000Y-100500000D03*
%TO.N,VDD*%
X167100000Y-100500000D03*
%TO.N,GND*%
X164250000Y-102800000D03*
X166250000Y-102800000D03*
X168500000Y-101800000D03*
X183700000Y-96250000D03*
X186800000Y-92750000D03*
X186800000Y-91000000D03*
X198500000Y-103000000D03*
X196500000Y-103000000D03*
X197500000Y-103000000D03*
X198500000Y-97000000D03*
X196500000Y-97000000D03*
X197500000Y-97000000D03*
X154000000Y-103000000D03*
X151250000Y-103000000D03*
X152500000Y-103000000D03*
X154000000Y-97000000D03*
X152500000Y-97000000D03*
X151250000Y-97000000D03*
X167450000Y-105000000D03*
X173850000Y-105000000D03*
X179450000Y-97500000D03*
%TO.N,VDD*%
X182550000Y-97500000D03*
%TO.N,GND*%
X182550000Y-102900000D03*
X178050000Y-104500000D03*
%TO.N,VSS*%
X174950000Y-104500000D03*
%TO.N,GND*%
X179450000Y-88750000D03*
%TO.N,VDD*%
X182550000Y-88750000D03*
%TO.N,GND*%
X178050000Y-95750000D03*
%TO.N,VSS*%
X174950000Y-95750000D03*
%TO.N,Net-(C10-Pad1)*%
X174800000Y-92900000D03*
%TD*%
%TA.AperFunction,Conductor*%
%TO.N,GND*%
G36*
X199625000Y-75320462D02*
G01*
X199679538Y-75375000D01*
X199699500Y-75449500D01*
X199699500Y-124550500D01*
X199679538Y-124625000D01*
X199625000Y-124679538D01*
X199550500Y-124699500D01*
X150449500Y-124699500D01*
X150375000Y-124679538D01*
X150320462Y-124625000D01*
X150300500Y-124550500D01*
X150300500Y-123297122D01*
X152067951Y-123297122D01*
X152073098Y-123306038D01*
X152314469Y-123501497D01*
X152320776Y-123506079D01*
X152640178Y-123713501D01*
X152646934Y-123717402D01*
X152986277Y-123890306D01*
X152993388Y-123893472D01*
X153348955Y-124029961D01*
X153356360Y-124032367D01*
X153724241Y-124130940D01*
X153731850Y-124132558D01*
X154108032Y-124192139D01*
X154115768Y-124192952D01*
X154496108Y-124212885D01*
X154503892Y-124212885D01*
X154884232Y-124192952D01*
X154891968Y-124192139D01*
X155268150Y-124132558D01*
X155275759Y-124130940D01*
X155643640Y-124032367D01*
X155651045Y-124029961D01*
X156006612Y-123893472D01*
X156013723Y-123890306D01*
X156353066Y-123717402D01*
X156359822Y-123713501D01*
X156679224Y-123506079D01*
X156685531Y-123501497D01*
X156922670Y-123309465D01*
X156931637Y-123297122D01*
X193067951Y-123297122D01*
X193073098Y-123306038D01*
X193314469Y-123501497D01*
X193320776Y-123506079D01*
X193640178Y-123713501D01*
X193646934Y-123717402D01*
X193986277Y-123890306D01*
X193993388Y-123893472D01*
X194348955Y-124029961D01*
X194356360Y-124032367D01*
X194724241Y-124130940D01*
X194731850Y-124132558D01*
X195108032Y-124192139D01*
X195115768Y-124192952D01*
X195496108Y-124212885D01*
X195503892Y-124212885D01*
X195884232Y-124192952D01*
X195891968Y-124192139D01*
X196268150Y-124132558D01*
X196275759Y-124130940D01*
X196643640Y-124032367D01*
X196651045Y-124029961D01*
X197006612Y-123893472D01*
X197013723Y-123890306D01*
X197353066Y-123717402D01*
X197359822Y-123713501D01*
X197679224Y-123506079D01*
X197685531Y-123501497D01*
X197922670Y-123309465D01*
X197932082Y-123296510D01*
X197927895Y-123287105D01*
X195513871Y-120873081D01*
X195500000Y-120865073D01*
X195486129Y-120873081D01*
X193075959Y-123283251D01*
X193067951Y-123297122D01*
X156931637Y-123297122D01*
X156932082Y-123296510D01*
X156927895Y-123287105D01*
X154513871Y-120873081D01*
X154500000Y-120865073D01*
X154486129Y-120873081D01*
X152075959Y-123283251D01*
X152067951Y-123297122D01*
X150300500Y-123297122D01*
X150300500Y-120503892D01*
X150787115Y-120503892D01*
X150807048Y-120884232D01*
X150807861Y-120891968D01*
X150867442Y-121268150D01*
X150869060Y-121275759D01*
X150967633Y-121643640D01*
X150970039Y-121651045D01*
X151106528Y-122006612D01*
X151109694Y-122013723D01*
X151282598Y-122353065D01*
X151286499Y-122359821D01*
X151493921Y-122679224D01*
X151498503Y-122685531D01*
X151690535Y-122922670D01*
X151703490Y-122932082D01*
X151712895Y-122927895D01*
X154126919Y-120513871D01*
X154134927Y-120500000D01*
X154865073Y-120500000D01*
X154873081Y-120513871D01*
X157283251Y-122924041D01*
X157297122Y-122932049D01*
X157306038Y-122926902D01*
X157501497Y-122685531D01*
X157506079Y-122679224D01*
X157713501Y-122359821D01*
X157717402Y-122353065D01*
X157890306Y-122013723D01*
X157893472Y-122006612D01*
X158029961Y-121651045D01*
X158032367Y-121643640D01*
X158130940Y-121275759D01*
X158132558Y-121268150D01*
X158135433Y-121250000D01*
X163444532Y-121250000D01*
X163445099Y-121256481D01*
X163461739Y-121446675D01*
X163464365Y-121476692D01*
X163466046Y-121482966D01*
X163466047Y-121482971D01*
X163511296Y-121651842D01*
X163523261Y-121696496D01*
X163526009Y-121702389D01*
X163616683Y-121896840D01*
X163616686Y-121896845D01*
X163619432Y-121902734D01*
X163749953Y-122089139D01*
X163910861Y-122250047D01*
X164097266Y-122380568D01*
X164103155Y-122383314D01*
X164103160Y-122383317D01*
X164287594Y-122469320D01*
X164303504Y-122476739D01*
X164309785Y-122478422D01*
X164517029Y-122533953D01*
X164517034Y-122533954D01*
X164523308Y-122535635D01*
X164529779Y-122536201D01*
X164529784Y-122536202D01*
X164743519Y-122554901D01*
X164750000Y-122555468D01*
X164756481Y-122554901D01*
X164970216Y-122536202D01*
X164970221Y-122536201D01*
X164976692Y-122535635D01*
X164982966Y-122533954D01*
X164982971Y-122533953D01*
X165190215Y-122478422D01*
X165196496Y-122476739D01*
X165212406Y-122469320D01*
X165396840Y-122383317D01*
X165396845Y-122383314D01*
X165402734Y-122380568D01*
X165589139Y-122250047D01*
X165750047Y-122089139D01*
X165880568Y-121902734D01*
X165883314Y-121896845D01*
X165883317Y-121896840D01*
X165973991Y-121702389D01*
X165976739Y-121696496D01*
X165988704Y-121651842D01*
X166024628Y-121517772D01*
X171349500Y-121517772D01*
X171360364Y-121607547D01*
X171415887Y-121747783D01*
X171507078Y-121867922D01*
X171627217Y-121959113D01*
X171767453Y-122014636D01*
X171857228Y-122025500D01*
X173142772Y-122025500D01*
X173232547Y-122014636D01*
X173372783Y-121959113D01*
X173492922Y-121867922D01*
X173584113Y-121747783D01*
X173615638Y-121668159D01*
X173661624Y-121606240D01*
X173732409Y-121575608D01*
X173809026Y-121584473D01*
X173870945Y-121630459D01*
X173877775Y-121639799D01*
X173934307Y-121723770D01*
X173942187Y-121733571D01*
X174092551Y-121891191D01*
X174101974Y-121899527D01*
X174276744Y-122029560D01*
X174287430Y-122036186D01*
X174481616Y-122134916D01*
X174493265Y-122139646D01*
X174701311Y-122204245D01*
X174713589Y-122206945D01*
X174726555Y-122208664D01*
X174742436Y-122206587D01*
X174746000Y-122198003D01*
X174746000Y-122189691D01*
X175254000Y-122189691D01*
X175258145Y-122205162D01*
X175265001Y-122206999D01*
X175385480Y-122181720D01*
X175397508Y-122178111D01*
X175600130Y-122098092D01*
X175611390Y-122092503D01*
X175797634Y-121979487D01*
X175807784Y-121972085D01*
X175972322Y-121829306D01*
X175981085Y-121820295D01*
X176119208Y-121651842D01*
X176126332Y-121641477D01*
X176237219Y-121446675D01*
X176238969Y-121447671D01*
X176282072Y-121395954D01*
X176354461Y-121369333D01*
X176430461Y-121382473D01*
X176489709Y-121431853D01*
X176501575Y-121451822D01*
X176511813Y-121472584D01*
X176511818Y-121472592D01*
X176514835Y-121478710D01*
X176518916Y-121484175D01*
X176518919Y-121484180D01*
X176637261Y-121642659D01*
X176641349Y-121648133D01*
X176796619Y-121791663D01*
X176975446Y-121904495D01*
X176981785Y-121907024D01*
X176981791Y-121907027D01*
X177121719Y-121962852D01*
X177171840Y-121982848D01*
X177178543Y-121984181D01*
X177178542Y-121984181D01*
X177372522Y-122022766D01*
X177372525Y-122022766D01*
X177379225Y-122024099D01*
X177484939Y-122025483D01*
X177583820Y-122026778D01*
X177583825Y-122026778D01*
X177590654Y-122026867D01*
X177597387Y-122025710D01*
X177597388Y-122025710D01*
X177792316Y-121992216D01*
X177792320Y-121992215D01*
X177799047Y-121991059D01*
X177997425Y-121917873D01*
X178015656Y-121907027D01*
X178173273Y-121813255D01*
X178173274Y-121813254D01*
X178179144Y-121809762D01*
X178249818Y-121747783D01*
X178332978Y-121674854D01*
X178332981Y-121674851D01*
X178338119Y-121670345D01*
X178454888Y-121522224D01*
X178464793Y-121509660D01*
X178464797Y-121509654D01*
X178469024Y-121504292D01*
X178472203Y-121498249D01*
X178472206Y-121498245D01*
X178533116Y-121382473D01*
X178567477Y-121317164D01*
X178596720Y-121222985D01*
X178628156Y-121121747D01*
X178628157Y-121121742D01*
X178630180Y-121115227D01*
X178633692Y-121085560D01*
X178649985Y-120947898D01*
X178649985Y-120947894D01*
X178650500Y-120943545D01*
X178650500Y-120571359D01*
X178644301Y-120503892D01*
X191787115Y-120503892D01*
X191807048Y-120884232D01*
X191807861Y-120891968D01*
X191867442Y-121268150D01*
X191869060Y-121275759D01*
X191967633Y-121643640D01*
X191970039Y-121651045D01*
X192106528Y-122006612D01*
X192109694Y-122013723D01*
X192282598Y-122353065D01*
X192286499Y-122359821D01*
X192493921Y-122679224D01*
X192498503Y-122685531D01*
X192690535Y-122922670D01*
X192703490Y-122932082D01*
X192712895Y-122927895D01*
X195126919Y-120513871D01*
X195134927Y-120500000D01*
X195865073Y-120500000D01*
X195873081Y-120513871D01*
X198283251Y-122924041D01*
X198297122Y-122932049D01*
X198306038Y-122926902D01*
X198501497Y-122685531D01*
X198506079Y-122679224D01*
X198713501Y-122359821D01*
X198717402Y-122353065D01*
X198890306Y-122013723D01*
X198893472Y-122006612D01*
X199029961Y-121651045D01*
X199032367Y-121643640D01*
X199130940Y-121275759D01*
X199132558Y-121268150D01*
X199192139Y-120891968D01*
X199192952Y-120884232D01*
X199212885Y-120503892D01*
X199212885Y-120496108D01*
X199192952Y-120115768D01*
X199192139Y-120108032D01*
X199132558Y-119731850D01*
X199130940Y-119724241D01*
X199032367Y-119356360D01*
X199029961Y-119348955D01*
X198893472Y-118993388D01*
X198890306Y-118986277D01*
X198717402Y-118646935D01*
X198713501Y-118640179D01*
X198506079Y-118320776D01*
X198501497Y-118314469D01*
X198309465Y-118077330D01*
X198296510Y-118067918D01*
X198287105Y-118072105D01*
X195873081Y-120486129D01*
X195865073Y-120500000D01*
X195134927Y-120500000D01*
X195126919Y-120486129D01*
X192716749Y-118075959D01*
X192702878Y-118067951D01*
X192693962Y-118073098D01*
X192498503Y-118314469D01*
X192493921Y-118320776D01*
X192286499Y-118640179D01*
X192282598Y-118646935D01*
X192109694Y-118986277D01*
X192106528Y-118993388D01*
X191970039Y-119348955D01*
X191967633Y-119356360D01*
X191869060Y-119724241D01*
X191867442Y-119731850D01*
X191807861Y-120108032D01*
X191807048Y-120115768D01*
X191787115Y-120496108D01*
X191787115Y-120503892D01*
X178644301Y-120503892D01*
X178636081Y-120414440D01*
X178578686Y-120210931D01*
X178485165Y-120021290D01*
X178481084Y-120015825D01*
X178481081Y-120015820D01*
X178362739Y-119857341D01*
X178362737Y-119857339D01*
X178358651Y-119851867D01*
X178203381Y-119708337D01*
X178024554Y-119595505D01*
X178018215Y-119592976D01*
X178018209Y-119592973D01*
X177834504Y-119519683D01*
X177828160Y-119517152D01*
X177773713Y-119506322D01*
X177627478Y-119477234D01*
X177627475Y-119477234D01*
X177620775Y-119475901D01*
X177513762Y-119474500D01*
X177416180Y-119473222D01*
X177416175Y-119473222D01*
X177409346Y-119473133D01*
X177402613Y-119474290D01*
X177402612Y-119474290D01*
X177207684Y-119507784D01*
X177207680Y-119507785D01*
X177200953Y-119508941D01*
X177002575Y-119582127D01*
X176996702Y-119585621D01*
X176853707Y-119670694D01*
X176820856Y-119690238D01*
X176788641Y-119718489D01*
X176667022Y-119825146D01*
X176667019Y-119825149D01*
X176661881Y-119829655D01*
X176612375Y-119892453D01*
X176535207Y-119990340D01*
X176535203Y-119990346D01*
X176530976Y-119995708D01*
X176527797Y-120001751D01*
X176527794Y-120001755D01*
X176498132Y-120058134D01*
X176445777Y-120114771D01*
X176372119Y-120137642D01*
X176296892Y-120120620D01*
X176240255Y-120068265D01*
X176230416Y-120049954D01*
X176193463Y-119967921D01*
X176187348Y-119956933D01*
X176065689Y-119776225D01*
X176057813Y-119766429D01*
X175907449Y-119608809D01*
X175898026Y-119600473D01*
X175723256Y-119470440D01*
X175712570Y-119463814D01*
X175518384Y-119365084D01*
X175506735Y-119360354D01*
X175298689Y-119295755D01*
X175286411Y-119293055D01*
X175273445Y-119291336D01*
X175257564Y-119293413D01*
X175254000Y-119301997D01*
X175254000Y-122189691D01*
X174746000Y-122189691D01*
X174746000Y-119310309D01*
X174741855Y-119294838D01*
X174734999Y-119293001D01*
X174614520Y-119318280D01*
X174602492Y-119321889D01*
X174399870Y-119401908D01*
X174388610Y-119407497D01*
X174202366Y-119520513D01*
X174192216Y-119527915D01*
X174027678Y-119670694D01*
X174018915Y-119679705D01*
X173880788Y-119848163D01*
X173875043Y-119856522D01*
X173816395Y-119906613D01*
X173740558Y-119920668D01*
X173667854Y-119894921D01*
X173617763Y-119836273D01*
X173613712Y-119826977D01*
X173593618Y-119776225D01*
X173584113Y-119752217D01*
X173492922Y-119632078D01*
X173372783Y-119540887D01*
X173232547Y-119485364D01*
X173142772Y-119474500D01*
X171857228Y-119474500D01*
X171767453Y-119485364D01*
X171627217Y-119540887D01*
X171507078Y-119632078D01*
X171415887Y-119752217D01*
X171360364Y-119892453D01*
X171349500Y-119982228D01*
X171349500Y-121517772D01*
X166024628Y-121517772D01*
X166033953Y-121482971D01*
X166033954Y-121482966D01*
X166035635Y-121476692D01*
X166038262Y-121446675D01*
X166054901Y-121256481D01*
X166055468Y-121250000D01*
X166054901Y-121243519D01*
X166036202Y-121029784D01*
X166036201Y-121029779D01*
X166035635Y-121023308D01*
X165976739Y-120803504D01*
X165969320Y-120787594D01*
X165883317Y-120603160D01*
X165883314Y-120603155D01*
X165880568Y-120597266D01*
X165750047Y-120410861D01*
X165589139Y-120249953D01*
X165402734Y-120119432D01*
X165396845Y-120116686D01*
X165396840Y-120116683D01*
X165202389Y-120026009D01*
X165196496Y-120023261D01*
X165123777Y-120003776D01*
X164982971Y-119966047D01*
X164982966Y-119966046D01*
X164976692Y-119964365D01*
X164970221Y-119963799D01*
X164970216Y-119963798D01*
X164756481Y-119945099D01*
X164750000Y-119944532D01*
X164743519Y-119945099D01*
X164529784Y-119963798D01*
X164529779Y-119963799D01*
X164523308Y-119964365D01*
X164517034Y-119966046D01*
X164517029Y-119966047D01*
X164376223Y-120003776D01*
X164303504Y-120023261D01*
X164297611Y-120026009D01*
X164103160Y-120116683D01*
X164103155Y-120116686D01*
X164097266Y-120119432D01*
X163910861Y-120249953D01*
X163749953Y-120410861D01*
X163619432Y-120597266D01*
X163616686Y-120603155D01*
X163616683Y-120603160D01*
X163530680Y-120787594D01*
X163523261Y-120803504D01*
X163464365Y-121023308D01*
X163463799Y-121029779D01*
X163463798Y-121029784D01*
X163445099Y-121243519D01*
X163444532Y-121250000D01*
X158135433Y-121250000D01*
X158192139Y-120891968D01*
X158192952Y-120884232D01*
X158212885Y-120503892D01*
X158212885Y-120496108D01*
X158192952Y-120115768D01*
X158192139Y-120108032D01*
X158132558Y-119731850D01*
X158130940Y-119724241D01*
X158032367Y-119356360D01*
X158029961Y-119348955D01*
X157896010Y-119000000D01*
X184944532Y-119000000D01*
X184964365Y-119226692D01*
X184966046Y-119232966D01*
X184966047Y-119232971D01*
X184982870Y-119295755D01*
X185023261Y-119446496D01*
X185026009Y-119452389D01*
X185116683Y-119646840D01*
X185116686Y-119646845D01*
X185119432Y-119652734D01*
X185249953Y-119839139D01*
X185410861Y-120000047D01*
X185597266Y-120130568D01*
X185603155Y-120133314D01*
X185603160Y-120133317D01*
X185709354Y-120182836D01*
X185803504Y-120226739D01*
X185809785Y-120228422D01*
X186017029Y-120283953D01*
X186017034Y-120283954D01*
X186023308Y-120285635D01*
X186029779Y-120286201D01*
X186029784Y-120286202D01*
X186243519Y-120304901D01*
X186250000Y-120305468D01*
X186256481Y-120304901D01*
X186470216Y-120286202D01*
X186470221Y-120286201D01*
X186476692Y-120285635D01*
X186482966Y-120283954D01*
X186482971Y-120283953D01*
X186690215Y-120228422D01*
X186696496Y-120226739D01*
X186790646Y-120182836D01*
X186896840Y-120133317D01*
X186896845Y-120133314D01*
X186902734Y-120130568D01*
X187089139Y-120000047D01*
X187250047Y-119839139D01*
X187380568Y-119652734D01*
X187383314Y-119646845D01*
X187383317Y-119646840D01*
X187473991Y-119452389D01*
X187476739Y-119446496D01*
X187517130Y-119295755D01*
X187533953Y-119232971D01*
X187533954Y-119232966D01*
X187535635Y-119226692D01*
X187555468Y-119000000D01*
X187535635Y-118773308D01*
X187499964Y-118640179D01*
X187478422Y-118559785D01*
X187476739Y-118553504D01*
X187469320Y-118537594D01*
X187383317Y-118353160D01*
X187383314Y-118353155D01*
X187380568Y-118347266D01*
X187250047Y-118160861D01*
X187089139Y-117999953D01*
X186902734Y-117869432D01*
X186896845Y-117866686D01*
X186896840Y-117866683D01*
X186702389Y-117776009D01*
X186696496Y-117773261D01*
X186690215Y-117771578D01*
X186482971Y-117716047D01*
X186482966Y-117716046D01*
X186476692Y-117714365D01*
X186470221Y-117713799D01*
X186470216Y-117713798D01*
X186352393Y-117703490D01*
X193067918Y-117703490D01*
X193072105Y-117712895D01*
X195486129Y-120126919D01*
X195500000Y-120134927D01*
X195513871Y-120126919D01*
X197924041Y-117716749D01*
X197932049Y-117702878D01*
X197926902Y-117693962D01*
X197685531Y-117498503D01*
X197679224Y-117493921D01*
X197359822Y-117286499D01*
X197353066Y-117282598D01*
X197013723Y-117109694D01*
X197006612Y-117106528D01*
X196651045Y-116970039D01*
X196643640Y-116967633D01*
X196275759Y-116869060D01*
X196268150Y-116867442D01*
X195891968Y-116807861D01*
X195884232Y-116807048D01*
X195503892Y-116787115D01*
X195496108Y-116787115D01*
X195115768Y-116807048D01*
X195108032Y-116807861D01*
X194731850Y-116867442D01*
X194724241Y-116869060D01*
X194356360Y-116967633D01*
X194348955Y-116970039D01*
X193993388Y-117106528D01*
X193986277Y-117109694D01*
X193646935Y-117282598D01*
X193640179Y-117286499D01*
X193320776Y-117493921D01*
X193314469Y-117498503D01*
X193077330Y-117690535D01*
X193067918Y-117703490D01*
X186352393Y-117703490D01*
X186256481Y-117695099D01*
X186250000Y-117694532D01*
X186243519Y-117695099D01*
X186029784Y-117713798D01*
X186029779Y-117713799D01*
X186023308Y-117714365D01*
X186017034Y-117716046D01*
X186017029Y-117716047D01*
X185809785Y-117771578D01*
X185803504Y-117773261D01*
X185797611Y-117776009D01*
X185603160Y-117866683D01*
X185603155Y-117866686D01*
X185597266Y-117869432D01*
X185410861Y-117999953D01*
X185249953Y-118160861D01*
X185119432Y-118347266D01*
X185116686Y-118353155D01*
X185116683Y-118353160D01*
X185030680Y-118537594D01*
X185023261Y-118553504D01*
X185021578Y-118559785D01*
X185000037Y-118640179D01*
X184964365Y-118773308D01*
X184944532Y-119000000D01*
X157896010Y-119000000D01*
X157893472Y-118993388D01*
X157890306Y-118986277D01*
X157717402Y-118646935D01*
X157713501Y-118640179D01*
X157506079Y-118320776D01*
X157501497Y-118314469D01*
X157309465Y-118077330D01*
X157296510Y-118067918D01*
X157287105Y-118072105D01*
X154873081Y-120486129D01*
X154865073Y-120500000D01*
X154134927Y-120500000D01*
X154126919Y-120486129D01*
X151716749Y-118075959D01*
X151702878Y-118067951D01*
X151693962Y-118073098D01*
X151498503Y-118314469D01*
X151493921Y-118320776D01*
X151286499Y-118640179D01*
X151282598Y-118646935D01*
X151109694Y-118986277D01*
X151106528Y-118993388D01*
X150970039Y-119348955D01*
X150967633Y-119356360D01*
X150869060Y-119724241D01*
X150867442Y-119731850D01*
X150807861Y-120108032D01*
X150807048Y-120115768D01*
X150787115Y-120496108D01*
X150787115Y-120503892D01*
X150300500Y-120503892D01*
X150300500Y-117703490D01*
X152067918Y-117703490D01*
X152072105Y-117712895D01*
X154486129Y-120126919D01*
X154500000Y-120134927D01*
X154513871Y-120126919D01*
X156924041Y-117716749D01*
X156932049Y-117702878D01*
X156926902Y-117693962D01*
X156685531Y-117498503D01*
X156679224Y-117493921D01*
X156359822Y-117286499D01*
X156353066Y-117282598D01*
X156013723Y-117109694D01*
X156006612Y-117106528D01*
X155651045Y-116970039D01*
X155643640Y-116967633D01*
X155275759Y-116869060D01*
X155268150Y-116867442D01*
X154891968Y-116807861D01*
X154884232Y-116807048D01*
X154503892Y-116787115D01*
X154496108Y-116787115D01*
X154115768Y-116807048D01*
X154108032Y-116807861D01*
X153731850Y-116867442D01*
X153724241Y-116869060D01*
X153356360Y-116967633D01*
X153348955Y-116970039D01*
X152993388Y-117106528D01*
X152986277Y-117109694D01*
X152646935Y-117282598D01*
X152640179Y-117286499D01*
X152320776Y-117493921D01*
X152314469Y-117498503D01*
X152077330Y-117690535D01*
X152067918Y-117703490D01*
X150300500Y-117703490D01*
X150300500Y-114733102D01*
X150881971Y-114733102D01*
X150885180Y-114738662D01*
X151058271Y-114844733D01*
X151068676Y-114850034D01*
X151277156Y-114936389D01*
X151288250Y-114939994D01*
X151507680Y-114992675D01*
X151519196Y-114994499D01*
X151744168Y-115012204D01*
X151755832Y-115012204D01*
X151980804Y-114994499D01*
X151992320Y-114992675D01*
X152211750Y-114939994D01*
X152222844Y-114936389D01*
X152431324Y-114850034D01*
X152441729Y-114844733D01*
X152607168Y-114743351D01*
X152618192Y-114731734D01*
X152616368Y-114725578D01*
X151763871Y-113873081D01*
X151750000Y-113865073D01*
X151736129Y-113873081D01*
X150889979Y-114719231D01*
X150881971Y-114733102D01*
X150300500Y-114733102D01*
X150300500Y-114505724D01*
X150320462Y-114431224D01*
X150375000Y-114376686D01*
X150449500Y-114356724D01*
X150484283Y-114360841D01*
X150516760Y-114368638D01*
X150524422Y-114366368D01*
X151376919Y-113513871D01*
X151384927Y-113500000D01*
X152115073Y-113500000D01*
X152123081Y-113513871D01*
X152969231Y-114360021D01*
X152983102Y-114368029D01*
X152988662Y-114364820D01*
X153094733Y-114191729D01*
X153100034Y-114181324D01*
X153186389Y-113972844D01*
X153189994Y-113961750D01*
X153242675Y-113742320D01*
X153244499Y-113730804D01*
X153262204Y-113505832D01*
X153262204Y-113494168D01*
X153249843Y-113337099D01*
X159680625Y-113337099D01*
X159684603Y-113343990D01*
X159740821Y-113383355D01*
X159752049Y-113389838D01*
X159947687Y-113481065D01*
X159959861Y-113485496D01*
X160168373Y-113541367D01*
X160181128Y-113543616D01*
X160396170Y-113562429D01*
X160409132Y-113562429D01*
X160624174Y-113543616D01*
X160636929Y-113541367D01*
X160845441Y-113485496D01*
X160857615Y-113481065D01*
X161053253Y-113389838D01*
X161064481Y-113383355D01*
X161114471Y-113348351D01*
X161124766Y-113336081D01*
X161122044Y-113328603D01*
X160888087Y-113094646D01*
X162802151Y-113094646D01*
X162805269Y-113120846D01*
X162850712Y-113223153D01*
X162929938Y-113302241D01*
X162942518Y-113307803D01*
X162942520Y-113307804D01*
X163022077Y-113342976D01*
X163032324Y-113347506D01*
X163046969Y-113349213D01*
X163053721Y-113350001D01*
X163053729Y-113350001D01*
X163058005Y-113350500D01*
X164747297Y-113350500D01*
X164773497Y-113347382D01*
X164875804Y-113301939D01*
X164954892Y-113222713D01*
X164978660Y-113168953D01*
X164995627Y-113130574D01*
X164995627Y-113130573D01*
X165000157Y-113120327D01*
X165002283Y-113102091D01*
X165002652Y-113098930D01*
X165002652Y-113098922D01*
X165003151Y-113094646D01*
X165003151Y-112221069D01*
X184297815Y-112221069D01*
X184300136Y-112256481D01*
X184303215Y-112303452D01*
X184311043Y-112422894D01*
X184360829Y-112618928D01*
X184363687Y-112625128D01*
X184363689Y-112625133D01*
X184400736Y-112705493D01*
X184445507Y-112802607D01*
X184562239Y-112967780D01*
X184567135Y-112972549D01*
X184567138Y-112972553D01*
X184700114Y-113102091D01*
X184707117Y-113108913D01*
X184875288Y-113221282D01*
X184881556Y-113223975D01*
X184881558Y-113223976D01*
X184902262Y-113232871D01*
X185061121Y-113301122D01*
X185258391Y-113345760D01*
X185265213Y-113346028D01*
X185453664Y-113353432D01*
X185453667Y-113353432D01*
X185460493Y-113353700D01*
X185660658Y-113324678D01*
X185852182Y-113259664D01*
X185940630Y-113210131D01*
X186022692Y-113164175D01*
X186022694Y-113164174D01*
X186028652Y-113160837D01*
X186108942Y-113094060D01*
X187594652Y-113094060D01*
X187595087Y-113102091D01*
X187600391Y-113150923D01*
X187604678Y-113168953D01*
X187648752Y-113286520D01*
X187658847Y-113304959D01*
X187733379Y-113404407D01*
X187748244Y-113419272D01*
X187847692Y-113493804D01*
X187866131Y-113503899D01*
X187983695Y-113547972D01*
X188001730Y-113552261D01*
X188050563Y-113557566D01*
X188058589Y-113558000D01*
X188629035Y-113558000D01*
X188644506Y-113553855D01*
X188648651Y-113538384D01*
X188648651Y-113538383D01*
X189156651Y-113538383D01*
X189160796Y-113553854D01*
X189176267Y-113557999D01*
X189746711Y-113557999D01*
X189754742Y-113557564D01*
X189803574Y-113552260D01*
X189821604Y-113547973D01*
X189939171Y-113503899D01*
X189957610Y-113493804D01*
X190057058Y-113419272D01*
X190071923Y-113404407D01*
X190146455Y-113304959D01*
X190156550Y-113286520D01*
X190200623Y-113168956D01*
X190204912Y-113150921D01*
X190210217Y-113102088D01*
X190210651Y-113094062D01*
X190210651Y-112523616D01*
X190206506Y-112508145D01*
X190191035Y-112504000D01*
X189176267Y-112504000D01*
X189160796Y-112508145D01*
X189156651Y-112523616D01*
X189156651Y-113538383D01*
X188648651Y-113538383D01*
X188648651Y-112523616D01*
X188644506Y-112508145D01*
X188629035Y-112504000D01*
X187614268Y-112504000D01*
X187598797Y-112508145D01*
X187594652Y-112523616D01*
X187594652Y-113094060D01*
X186108942Y-113094060D01*
X186184156Y-113031505D01*
X186313488Y-112876001D01*
X186412315Y-112699531D01*
X186477329Y-112508007D01*
X186506351Y-112307842D01*
X186507866Y-112250000D01*
X186507271Y-112243519D01*
X186489984Y-112055393D01*
X186489359Y-112048591D01*
X186468995Y-111976384D01*
X187594651Y-111976384D01*
X187598796Y-111991855D01*
X187614267Y-111996000D01*
X188629035Y-111996000D01*
X188644506Y-111991855D01*
X188648651Y-111976384D01*
X189156651Y-111976384D01*
X189160796Y-111991855D01*
X189176267Y-111996000D01*
X190191034Y-111996000D01*
X190206505Y-111991855D01*
X190208850Y-111983102D01*
X195631971Y-111983102D01*
X195635180Y-111988662D01*
X195808271Y-112094733D01*
X195818676Y-112100034D01*
X196027156Y-112186389D01*
X196038250Y-112189994D01*
X196257680Y-112242675D01*
X196269196Y-112244499D01*
X196494168Y-112262204D01*
X196505832Y-112262204D01*
X196730804Y-112244499D01*
X196742320Y-112242675D01*
X196961750Y-112189994D01*
X196972844Y-112186389D01*
X197181324Y-112100034D01*
X197191729Y-112094733D01*
X197357168Y-111993351D01*
X197368192Y-111981734D01*
X197366368Y-111975578D01*
X196513871Y-111123081D01*
X196500000Y-111115073D01*
X196486129Y-111123081D01*
X195639979Y-111969231D01*
X195631971Y-111983102D01*
X190208850Y-111983102D01*
X190210650Y-111976384D01*
X190210650Y-111405940D01*
X190210215Y-111397909D01*
X190204911Y-111349077D01*
X190200624Y-111331047D01*
X190156550Y-111213480D01*
X190146455Y-111195041D01*
X190071923Y-111095593D01*
X190057058Y-111080728D01*
X189957610Y-111006196D01*
X189939171Y-110996101D01*
X189821607Y-110952028D01*
X189803572Y-110947739D01*
X189754739Y-110942434D01*
X189746713Y-110942000D01*
X189176267Y-110942000D01*
X189160796Y-110946145D01*
X189156651Y-110961616D01*
X189156651Y-111976384D01*
X188648651Y-111976384D01*
X188648651Y-110961617D01*
X188644506Y-110946146D01*
X188629035Y-110942001D01*
X188058591Y-110942001D01*
X188050560Y-110942436D01*
X188001728Y-110947740D01*
X187983698Y-110952027D01*
X187866131Y-110996101D01*
X187847692Y-111006196D01*
X187748244Y-111080728D01*
X187733379Y-111095593D01*
X187658847Y-111195041D01*
X187648752Y-111213480D01*
X187604679Y-111331044D01*
X187600390Y-111349079D01*
X187595085Y-111397912D01*
X187594651Y-111405938D01*
X187594651Y-111976384D01*
X186468995Y-111976384D01*
X186434458Y-111853926D01*
X186424427Y-111833584D01*
X186348021Y-111678649D01*
X186345002Y-111672527D01*
X186340921Y-111667062D01*
X186340918Y-111667057D01*
X186228074Y-111515941D01*
X186228072Y-111515939D01*
X186223986Y-111510467D01*
X186075463Y-111373174D01*
X185904408Y-111265246D01*
X185898068Y-111262717D01*
X185898063Y-111262714D01*
X185722886Y-111192826D01*
X185722884Y-111192825D01*
X185716549Y-111190298D01*
X185518177Y-111150839D01*
X185418461Y-111149534D01*
X185322771Y-111148281D01*
X185322766Y-111148281D01*
X185315937Y-111148192D01*
X185309204Y-111149349D01*
X185309203Y-111149349D01*
X185123331Y-111181287D01*
X185123327Y-111181288D01*
X185116600Y-111182444D01*
X184926844Y-111252449D01*
X184753022Y-111355862D01*
X184600956Y-111489220D01*
X184596729Y-111494582D01*
X184596728Y-111494583D01*
X184501942Y-111614820D01*
X184475740Y-111648057D01*
X184381565Y-111827053D01*
X184321588Y-112020213D01*
X184320785Y-112026996D01*
X184320785Y-112026997D01*
X184312141Y-112100034D01*
X184297815Y-112221069D01*
X165003151Y-112221069D01*
X165003151Y-111405354D01*
X165000033Y-111379154D01*
X164954590Y-111276847D01*
X164875364Y-111197759D01*
X164862784Y-111192197D01*
X164862782Y-111192196D01*
X164783225Y-111157024D01*
X164783224Y-111157024D01*
X164772978Y-111152494D01*
X164758019Y-111150750D01*
X164751581Y-111149999D01*
X164751573Y-111149999D01*
X164747297Y-111149500D01*
X163058005Y-111149500D01*
X163031805Y-111152618D01*
X162929498Y-111198061D01*
X162850410Y-111277287D01*
X162844848Y-111289867D01*
X162844847Y-111289869D01*
X162809892Y-111368936D01*
X162805145Y-111379673D01*
X162803848Y-111390800D01*
X162803019Y-111397912D01*
X162802151Y-111405354D01*
X162802151Y-113094646D01*
X160888087Y-113094646D01*
X160416522Y-112623081D01*
X160402651Y-112615073D01*
X160388780Y-112623081D01*
X159688633Y-113323228D01*
X159680625Y-113337099D01*
X153249843Y-113337099D01*
X153244499Y-113269196D01*
X153242675Y-113257680D01*
X153189994Y-113038250D01*
X153186389Y-113027156D01*
X153100034Y-112818676D01*
X153094733Y-112808271D01*
X152993351Y-112642832D01*
X152981734Y-112631808D01*
X152975578Y-112633632D01*
X152123081Y-113486129D01*
X152115073Y-113500000D01*
X151384927Y-113500000D01*
X151376919Y-113486129D01*
X150530769Y-112639979D01*
X150515537Y-112631185D01*
X150511627Y-112631185D01*
X150449499Y-112647832D01*
X150374999Y-112627869D01*
X150320462Y-112573331D01*
X150300500Y-112498832D01*
X150300500Y-112268266D01*
X150881808Y-112268266D01*
X150883632Y-112274422D01*
X151736129Y-113126919D01*
X151750000Y-113134927D01*
X151763871Y-113126919D01*
X152610021Y-112280769D01*
X152618029Y-112266898D01*
X152614820Y-112261338D01*
X152606894Y-112256481D01*
X159090222Y-112256481D01*
X159109035Y-112471523D01*
X159111284Y-112484278D01*
X159167155Y-112692790D01*
X159171586Y-112704964D01*
X159262813Y-112900602D01*
X159269296Y-112911830D01*
X159304300Y-112961820D01*
X159316570Y-112972115D01*
X159324048Y-112969393D01*
X160029570Y-112263871D01*
X160037578Y-112250000D01*
X160767724Y-112250000D01*
X160775732Y-112263871D01*
X161475879Y-112964018D01*
X161489750Y-112972026D01*
X161496641Y-112968048D01*
X161536006Y-112911830D01*
X161542489Y-112900602D01*
X161633716Y-112704964D01*
X161638147Y-112692790D01*
X161694018Y-112484278D01*
X161696267Y-112471523D01*
X161715080Y-112256481D01*
X161715080Y-112243519D01*
X161696267Y-112028477D01*
X161694018Y-112015722D01*
X161638147Y-111807210D01*
X161633716Y-111795036D01*
X161542489Y-111599398D01*
X161536006Y-111588170D01*
X161501002Y-111538180D01*
X161488732Y-111527885D01*
X161481254Y-111530607D01*
X160775732Y-112236129D01*
X160767724Y-112250000D01*
X160037578Y-112250000D01*
X160029570Y-112236129D01*
X159329423Y-111535982D01*
X159315552Y-111527974D01*
X159308661Y-111531952D01*
X159269296Y-111588170D01*
X159262813Y-111599398D01*
X159171586Y-111795036D01*
X159167155Y-111807210D01*
X159111284Y-112015722D01*
X159109035Y-112028477D01*
X159090222Y-112243519D01*
X159090222Y-112256481D01*
X152606894Y-112256481D01*
X152441729Y-112155267D01*
X152431324Y-112149966D01*
X152222844Y-112063611D01*
X152211750Y-112060006D01*
X151992320Y-112007325D01*
X151980804Y-112005501D01*
X151755832Y-111987796D01*
X151744168Y-111987796D01*
X151519196Y-112005501D01*
X151507680Y-112007325D01*
X151288250Y-112060006D01*
X151277156Y-112063611D01*
X151068676Y-112149966D01*
X151058271Y-112155267D01*
X150892832Y-112256649D01*
X150881808Y-112268266D01*
X150300500Y-112268266D01*
X150300500Y-111163919D01*
X159680536Y-111163919D01*
X159683258Y-111171397D01*
X160388780Y-111876919D01*
X160402651Y-111884927D01*
X160416522Y-111876919D01*
X161116669Y-111176772D01*
X161124677Y-111162901D01*
X161120699Y-111156010D01*
X161064481Y-111116645D01*
X161053253Y-111110162D01*
X160857615Y-111018935D01*
X160845441Y-111014504D01*
X160636929Y-110958633D01*
X160624174Y-110956384D01*
X160409132Y-110937571D01*
X160396170Y-110937571D01*
X160181128Y-110956384D01*
X160168373Y-110958633D01*
X159959861Y-111014504D01*
X159947687Y-111018935D01*
X159752049Y-111110162D01*
X159740821Y-111116645D01*
X159690831Y-111151649D01*
X159680536Y-111163919D01*
X150300500Y-111163919D01*
X150300500Y-110250000D01*
X169444318Y-110250000D01*
X169464956Y-110406762D01*
X169525464Y-110552841D01*
X169621718Y-110678282D01*
X169747159Y-110774536D01*
X169893238Y-110835044D01*
X169902919Y-110836319D01*
X169902921Y-110836319D01*
X170040315Y-110854407D01*
X170050000Y-110855682D01*
X170059685Y-110854407D01*
X170197079Y-110836319D01*
X170197081Y-110836319D01*
X170206762Y-110835044D01*
X170352841Y-110774536D01*
X170478282Y-110678282D01*
X170574536Y-110552841D01*
X170635044Y-110406762D01*
X170655682Y-110250000D01*
X179294318Y-110250000D01*
X179314956Y-110406762D01*
X179375464Y-110552841D01*
X179471718Y-110678282D01*
X179597159Y-110774536D01*
X179743238Y-110835044D01*
X179752919Y-110836319D01*
X179752921Y-110836319D01*
X179890315Y-110854407D01*
X179900000Y-110855682D01*
X179909685Y-110854407D01*
X180047079Y-110836319D01*
X180047081Y-110836319D01*
X180056762Y-110835044D01*
X180202841Y-110774536D01*
X180227217Y-110755832D01*
X194987796Y-110755832D01*
X195005501Y-110980804D01*
X195007325Y-110992320D01*
X195060006Y-111211750D01*
X195063611Y-111222844D01*
X195149966Y-111431324D01*
X195155267Y-111441729D01*
X195256649Y-111607168D01*
X195268266Y-111618192D01*
X195274422Y-111616368D01*
X196126919Y-110763871D01*
X196134927Y-110750000D01*
X196865073Y-110750000D01*
X196873081Y-110763871D01*
X197719231Y-111610021D01*
X197733102Y-111618029D01*
X197738662Y-111614820D01*
X197844733Y-111441729D01*
X197850034Y-111431324D01*
X197936389Y-111222844D01*
X197939994Y-111211750D01*
X197992675Y-110992320D01*
X197994499Y-110980804D01*
X198012204Y-110755832D01*
X198012204Y-110744168D01*
X197994499Y-110519196D01*
X197992675Y-110507680D01*
X197939994Y-110288250D01*
X197936389Y-110277156D01*
X197850034Y-110068676D01*
X197844733Y-110058271D01*
X197743351Y-109892832D01*
X197731734Y-109881808D01*
X197725578Y-109883632D01*
X196873081Y-110736129D01*
X196865073Y-110750000D01*
X196134927Y-110750000D01*
X196126919Y-110736129D01*
X195280769Y-109889979D01*
X195266898Y-109881971D01*
X195261338Y-109885180D01*
X195155267Y-110058271D01*
X195149966Y-110068676D01*
X195063611Y-110277156D01*
X195060006Y-110288250D01*
X195007325Y-110507680D01*
X195005501Y-110519196D01*
X194987796Y-110744168D01*
X194987796Y-110755832D01*
X180227217Y-110755832D01*
X180328282Y-110678282D01*
X180424536Y-110552841D01*
X180485044Y-110406762D01*
X180505682Y-110250000D01*
X180485044Y-110093238D01*
X180424536Y-109947159D01*
X180328282Y-109821718D01*
X180202841Y-109725464D01*
X180056762Y-109664956D01*
X180047081Y-109663681D01*
X180047079Y-109663681D01*
X179909685Y-109645593D01*
X179900000Y-109644318D01*
X179890315Y-109645593D01*
X179752921Y-109663681D01*
X179752919Y-109663681D01*
X179743238Y-109664956D01*
X179597159Y-109725464D01*
X179471718Y-109821718D01*
X179375464Y-109947159D01*
X179314956Y-110093238D01*
X179294318Y-110250000D01*
X170655682Y-110250000D01*
X170635044Y-110093238D01*
X170574536Y-109947159D01*
X170478282Y-109821718D01*
X170352841Y-109725464D01*
X170206762Y-109664956D01*
X170197081Y-109663681D01*
X170197079Y-109663681D01*
X170059685Y-109645593D01*
X170050000Y-109644318D01*
X170040315Y-109645593D01*
X169902921Y-109663681D01*
X169902919Y-109663681D01*
X169893238Y-109664956D01*
X169747159Y-109725464D01*
X169621718Y-109821718D01*
X169525464Y-109947159D01*
X169464956Y-110093238D01*
X169444318Y-110250000D01*
X150300500Y-110250000D01*
X150300500Y-108950000D01*
X170394318Y-108950000D01*
X170395593Y-108959685D01*
X170407099Y-109047079D01*
X170414956Y-109106762D01*
X170475464Y-109252841D01*
X170571718Y-109378282D01*
X170697159Y-109474536D01*
X170706182Y-109478274D01*
X170706183Y-109478274D01*
X170786007Y-109511338D01*
X170843238Y-109535044D01*
X170852919Y-109536319D01*
X170852921Y-109536319D01*
X170990315Y-109554407D01*
X171000000Y-109555682D01*
X171009685Y-109554407D01*
X171147079Y-109536319D01*
X171147081Y-109536319D01*
X171156762Y-109535044D01*
X171197267Y-109518266D01*
X195631808Y-109518266D01*
X195633632Y-109524422D01*
X196486129Y-110376919D01*
X196500000Y-110384927D01*
X196513871Y-110376919D01*
X197360021Y-109530769D01*
X197368029Y-109516898D01*
X197364820Y-109511338D01*
X197191729Y-109405267D01*
X197181324Y-109399966D01*
X196972844Y-109313611D01*
X196961750Y-109310006D01*
X196742320Y-109257325D01*
X196730804Y-109255501D01*
X196505832Y-109237796D01*
X196494168Y-109237796D01*
X196269196Y-109255501D01*
X196257680Y-109257325D01*
X196038250Y-109310006D01*
X196027156Y-109313611D01*
X195818676Y-109399966D01*
X195808271Y-109405267D01*
X195642832Y-109506649D01*
X195631808Y-109518266D01*
X171197267Y-109518266D01*
X171213993Y-109511338D01*
X171293817Y-109478274D01*
X171293818Y-109478274D01*
X171302841Y-109474536D01*
X171428282Y-109378282D01*
X171524536Y-109252841D01*
X171585044Y-109106762D01*
X171592902Y-109047079D01*
X171604407Y-108959685D01*
X171605682Y-108950000D01*
X171604407Y-108940315D01*
X171599100Y-108900000D01*
X178344318Y-108900000D01*
X178345593Y-108909685D01*
X178350901Y-108950000D01*
X178364956Y-109056762D01*
X178425464Y-109202841D01*
X178521718Y-109328282D01*
X178647159Y-109424536D01*
X178656182Y-109428274D01*
X178656183Y-109428274D01*
X178767869Y-109474536D01*
X178793238Y-109485044D01*
X178802919Y-109486319D01*
X178802921Y-109486319D01*
X178940315Y-109504407D01*
X178950000Y-109505682D01*
X178959685Y-109504407D01*
X179097079Y-109486319D01*
X179097081Y-109486319D01*
X179106762Y-109485044D01*
X179132131Y-109474536D01*
X179243817Y-109428274D01*
X179243818Y-109428274D01*
X179252841Y-109424536D01*
X179378282Y-109328282D01*
X179474536Y-109202841D01*
X179535044Y-109056762D01*
X179549100Y-108950000D01*
X179554407Y-108909685D01*
X179555682Y-108900000D01*
X179554407Y-108890315D01*
X179536319Y-108752921D01*
X179536319Y-108752919D01*
X179535044Y-108743238D01*
X179474536Y-108597159D01*
X179378282Y-108471718D01*
X179252841Y-108375464D01*
X179236495Y-108368693D01*
X179115784Y-108318693D01*
X179106762Y-108314956D01*
X179097081Y-108313681D01*
X179097079Y-108313681D01*
X178959685Y-108295593D01*
X178950000Y-108294318D01*
X178940315Y-108295593D01*
X178802921Y-108313681D01*
X178802919Y-108313681D01*
X178793238Y-108314956D01*
X178784216Y-108318693D01*
X178663506Y-108368693D01*
X178647159Y-108375464D01*
X178521718Y-108471718D01*
X178425464Y-108597159D01*
X178364956Y-108743238D01*
X178363681Y-108752919D01*
X178363681Y-108752921D01*
X178345593Y-108890315D01*
X178344318Y-108900000D01*
X171599100Y-108900000D01*
X171586319Y-108802921D01*
X171586319Y-108802919D01*
X171585044Y-108793238D01*
X171524536Y-108647159D01*
X171428282Y-108521718D01*
X171302841Y-108425464D01*
X171196486Y-108381410D01*
X171165784Y-108368693D01*
X171156762Y-108364956D01*
X171147081Y-108363681D01*
X171147079Y-108363681D01*
X171009685Y-108345593D01*
X171000000Y-108344318D01*
X170990315Y-108345593D01*
X170852921Y-108363681D01*
X170852919Y-108363681D01*
X170843238Y-108364956D01*
X170834216Y-108368693D01*
X170803515Y-108381410D01*
X170697159Y-108425464D01*
X170571718Y-108521718D01*
X170475464Y-108647159D01*
X170414956Y-108793238D01*
X170413681Y-108802919D01*
X170413681Y-108802921D01*
X170395593Y-108940315D01*
X170394318Y-108950000D01*
X150300500Y-108950000D01*
X150300500Y-106500000D01*
X179444532Y-106500000D01*
X179464365Y-106726692D01*
X179523261Y-106946496D01*
X179526009Y-106952389D01*
X179616683Y-107146840D01*
X179616686Y-107146845D01*
X179619432Y-107152734D01*
X179749953Y-107339139D01*
X179910861Y-107500047D01*
X180097266Y-107630568D01*
X180103155Y-107633314D01*
X180103160Y-107633317D01*
X180287594Y-107719320D01*
X180303504Y-107726739D01*
X180309785Y-107728422D01*
X180517029Y-107783953D01*
X180517034Y-107783954D01*
X180523308Y-107785635D01*
X180529779Y-107786201D01*
X180529784Y-107786202D01*
X180743519Y-107804901D01*
X180750000Y-107805468D01*
X180756481Y-107804901D01*
X180970216Y-107786202D01*
X180970221Y-107786201D01*
X180976692Y-107785635D01*
X180982966Y-107783954D01*
X180982971Y-107783953D01*
X181190215Y-107728422D01*
X181196496Y-107726739D01*
X181212406Y-107719320D01*
X181396840Y-107633317D01*
X181396845Y-107633314D01*
X181402734Y-107630568D01*
X181589139Y-107500047D01*
X181750047Y-107339139D01*
X181880568Y-107152734D01*
X181883314Y-107146845D01*
X181883317Y-107146840D01*
X181973991Y-106952389D01*
X181976739Y-106946496D01*
X182035635Y-106726692D01*
X182055468Y-106500000D01*
X182035635Y-106273308D01*
X181976739Y-106053504D01*
X181969320Y-106037594D01*
X181883317Y-105853160D01*
X181883314Y-105853155D01*
X181880568Y-105847266D01*
X181750047Y-105660861D01*
X181589139Y-105499953D01*
X181402734Y-105369432D01*
X181396845Y-105366686D01*
X181396840Y-105366683D01*
X181202389Y-105276009D01*
X181196496Y-105273261D01*
X181190215Y-105271578D01*
X180982971Y-105216047D01*
X180982966Y-105216046D01*
X180976692Y-105214365D01*
X180970221Y-105213799D01*
X180970216Y-105213798D01*
X180756481Y-105195099D01*
X180750000Y-105194532D01*
X180743519Y-105195099D01*
X180529784Y-105213798D01*
X180529779Y-105213799D01*
X180523308Y-105214365D01*
X180517034Y-105216046D01*
X180517029Y-105216047D01*
X180309785Y-105271578D01*
X180303504Y-105273261D01*
X180297611Y-105276009D01*
X180103160Y-105366683D01*
X180103155Y-105366686D01*
X180097266Y-105369432D01*
X179910861Y-105499953D01*
X179749953Y-105660861D01*
X179619432Y-105847266D01*
X179616686Y-105853155D01*
X179616683Y-105853160D01*
X179530680Y-106037594D01*
X179523261Y-106053504D01*
X179464365Y-106273308D01*
X179444532Y-106500000D01*
X150300500Y-106500000D01*
X150300500Y-104500000D01*
X174344318Y-104500000D01*
X174364956Y-104656762D01*
X174425464Y-104802841D01*
X174521718Y-104928282D01*
X174647159Y-105024536D01*
X174793238Y-105085044D01*
X174802919Y-105086319D01*
X174802921Y-105086319D01*
X174940315Y-105104407D01*
X174950000Y-105105682D01*
X174959685Y-105104407D01*
X175097079Y-105086319D01*
X175097081Y-105086319D01*
X175106762Y-105085044D01*
X175252841Y-105024536D01*
X175378282Y-104928282D01*
X175474536Y-104802841D01*
X175535044Y-104656762D01*
X175555682Y-104500000D01*
X175535044Y-104343238D01*
X175474536Y-104197159D01*
X175378282Y-104071718D01*
X175252841Y-103975464D01*
X175106762Y-103914956D01*
X175097081Y-103913681D01*
X175097079Y-103913681D01*
X174959685Y-103895593D01*
X174950000Y-103894318D01*
X174940315Y-103895593D01*
X174802921Y-103913681D01*
X174802919Y-103913681D01*
X174793238Y-103914956D01*
X174647159Y-103975464D01*
X174521718Y-104071718D01*
X174425464Y-104197159D01*
X174364956Y-104343238D01*
X174344318Y-104500000D01*
X150300500Y-104500000D01*
X150300500Y-103250000D01*
X169994318Y-103250000D01*
X170014956Y-103406762D01*
X170075464Y-103552841D01*
X170171718Y-103678282D01*
X170297159Y-103774536D01*
X170443238Y-103835044D01*
X170452919Y-103836319D01*
X170452921Y-103836319D01*
X170590315Y-103854407D01*
X170600000Y-103855682D01*
X170609685Y-103854407D01*
X170747079Y-103836319D01*
X170747081Y-103836319D01*
X170756762Y-103835044D01*
X170902841Y-103774536D01*
X171028282Y-103678282D01*
X171124536Y-103552841D01*
X171185044Y-103406762D01*
X171205682Y-103250000D01*
X171185044Y-103093238D01*
X171124536Y-102947159D01*
X171028282Y-102821718D01*
X170902841Y-102725464D01*
X170756762Y-102664956D01*
X170747081Y-102663681D01*
X170747079Y-102663681D01*
X170609685Y-102645593D01*
X170600000Y-102644318D01*
X170590315Y-102645593D01*
X170452921Y-102663681D01*
X170452919Y-102663681D01*
X170443238Y-102664956D01*
X170297159Y-102725464D01*
X170171718Y-102821718D01*
X170075464Y-102947159D01*
X170014956Y-103093238D01*
X169994318Y-103250000D01*
X150300500Y-103250000D01*
X150300500Y-100000000D01*
X151144318Y-100000000D01*
X151164956Y-100156762D01*
X151225464Y-100302841D01*
X151321718Y-100428282D01*
X151447159Y-100524536D01*
X151593238Y-100585044D01*
X151602919Y-100586319D01*
X151602921Y-100586319D01*
X151740315Y-100604407D01*
X151750000Y-100605682D01*
X151759685Y-100604407D01*
X151897079Y-100586319D01*
X151897081Y-100586319D01*
X151906762Y-100585044D01*
X152052841Y-100524536D01*
X152178282Y-100428282D01*
X152274536Y-100302841D01*
X152287342Y-100271925D01*
X152334295Y-100210735D01*
X152405552Y-100181220D01*
X152482020Y-100191287D01*
X152543210Y-100238240D01*
X152562658Y-100271925D01*
X152575464Y-100302841D01*
X152671718Y-100428282D01*
X152797159Y-100524536D01*
X152943238Y-100585044D01*
X152952919Y-100586319D01*
X152952921Y-100586319D01*
X153090315Y-100604407D01*
X153100000Y-100605682D01*
X153109685Y-100604407D01*
X153247079Y-100586319D01*
X153247081Y-100586319D01*
X153256762Y-100585044D01*
X153402841Y-100524536D01*
X153528282Y-100428282D01*
X153606790Y-100325968D01*
X153667980Y-100279015D01*
X153744448Y-100268948D01*
X153815705Y-100298463D01*
X153843210Y-100325968D01*
X153921718Y-100428282D01*
X154047159Y-100524536D01*
X154193238Y-100585044D01*
X154202919Y-100586319D01*
X154202921Y-100586319D01*
X154340315Y-100604407D01*
X154350000Y-100605682D01*
X154359685Y-100604407D01*
X154497079Y-100586319D01*
X154497081Y-100586319D01*
X154506762Y-100585044D01*
X154652841Y-100524536D01*
X154684817Y-100500000D01*
X162844318Y-100500000D01*
X162864956Y-100656762D01*
X162925464Y-100802841D01*
X163021718Y-100928282D01*
X163147159Y-101024536D01*
X163293238Y-101085044D01*
X163302919Y-101086319D01*
X163302921Y-101086319D01*
X163440315Y-101104407D01*
X163450000Y-101105682D01*
X163459685Y-101104407D01*
X163597079Y-101086319D01*
X163597081Y-101086319D01*
X163606762Y-101085044D01*
X163752841Y-101024536D01*
X163878282Y-100928282D01*
X163974536Y-100802841D01*
X164035044Y-100656762D01*
X164055682Y-100500000D01*
X166494318Y-100500000D01*
X166514956Y-100656762D01*
X166575464Y-100802841D01*
X166671718Y-100928282D01*
X166797159Y-101024536D01*
X166943238Y-101085044D01*
X166952919Y-101086319D01*
X166952921Y-101086319D01*
X167090315Y-101104407D01*
X167100000Y-101105682D01*
X167109685Y-101104407D01*
X167247079Y-101086319D01*
X167247081Y-101086319D01*
X167256762Y-101085044D01*
X167402841Y-101024536D01*
X167528282Y-100928282D01*
X167624536Y-100802841D01*
X167685044Y-100656762D01*
X167705682Y-100500000D01*
X167685044Y-100343238D01*
X167624536Y-100197159D01*
X167528282Y-100071718D01*
X167402841Y-99975464D01*
X167256762Y-99914956D01*
X167247081Y-99913681D01*
X167247079Y-99913681D01*
X167109685Y-99895593D01*
X167100000Y-99894318D01*
X167090315Y-99895593D01*
X166952921Y-99913681D01*
X166952919Y-99913681D01*
X166943238Y-99914956D01*
X166797159Y-99975464D01*
X166671718Y-100071718D01*
X166575464Y-100197159D01*
X166514956Y-100343238D01*
X166494318Y-100500000D01*
X164055682Y-100500000D01*
X164035044Y-100343238D01*
X163974536Y-100197159D01*
X163878282Y-100071718D01*
X163752841Y-99975464D01*
X163606762Y-99914956D01*
X163597081Y-99913681D01*
X163597079Y-99913681D01*
X163459685Y-99895593D01*
X163450000Y-99894318D01*
X163440315Y-99895593D01*
X163302921Y-99913681D01*
X163302919Y-99913681D01*
X163293238Y-99914956D01*
X163147159Y-99975464D01*
X163021718Y-100071718D01*
X162925464Y-100197159D01*
X162864956Y-100343238D01*
X162844318Y-100500000D01*
X154684817Y-100500000D01*
X154778282Y-100428282D01*
X154874536Y-100302841D01*
X154935044Y-100156762D01*
X154955682Y-100000000D01*
X154935044Y-99843238D01*
X154874536Y-99697159D01*
X154778282Y-99571718D01*
X154652841Y-99475464D01*
X154506762Y-99414956D01*
X154497081Y-99413681D01*
X154497079Y-99413681D01*
X154359685Y-99395593D01*
X154350000Y-99394318D01*
X154340315Y-99395593D01*
X154202921Y-99413681D01*
X154202919Y-99413681D01*
X154193238Y-99414956D01*
X154047159Y-99475464D01*
X153921718Y-99571718D01*
X153915772Y-99579467D01*
X153843210Y-99674032D01*
X153782020Y-99720985D01*
X153705552Y-99731052D01*
X153634295Y-99701537D01*
X153606790Y-99674032D01*
X153534228Y-99579467D01*
X153528282Y-99571718D01*
X153402841Y-99475464D01*
X153256762Y-99414956D01*
X153247081Y-99413681D01*
X153247079Y-99413681D01*
X153109685Y-99395593D01*
X153100000Y-99394318D01*
X153090315Y-99395593D01*
X152952921Y-99413681D01*
X152952919Y-99413681D01*
X152943238Y-99414956D01*
X152797159Y-99475464D01*
X152671718Y-99571718D01*
X152575464Y-99697159D01*
X152571726Y-99706182D01*
X152571726Y-99706183D01*
X152562658Y-99728075D01*
X152515705Y-99789265D01*
X152444448Y-99818780D01*
X152367980Y-99808713D01*
X152306790Y-99761760D01*
X152287342Y-99728075D01*
X152278274Y-99706183D01*
X152278274Y-99706182D01*
X152274536Y-99697159D01*
X152178282Y-99571718D01*
X152052841Y-99475464D01*
X151906762Y-99414956D01*
X151897081Y-99413681D01*
X151897079Y-99413681D01*
X151759685Y-99395593D01*
X151750000Y-99394318D01*
X151740315Y-99395593D01*
X151602921Y-99413681D01*
X151602919Y-99413681D01*
X151593238Y-99414956D01*
X151447159Y-99475464D01*
X151321718Y-99571718D01*
X151225464Y-99697159D01*
X151164956Y-99843238D01*
X151144318Y-100000000D01*
X150300500Y-100000000D01*
X150300500Y-97800000D01*
X168894318Y-97800000D01*
X168895593Y-97809685D01*
X168911207Y-97928282D01*
X168914956Y-97956762D01*
X168975464Y-98102841D01*
X169071718Y-98228282D01*
X169197159Y-98324536D01*
X169343238Y-98385044D01*
X169352919Y-98386319D01*
X169352921Y-98386319D01*
X169490315Y-98404407D01*
X169500000Y-98405682D01*
X169509685Y-98404407D01*
X169647079Y-98386319D01*
X169647081Y-98386319D01*
X169656762Y-98385044D01*
X169802841Y-98324536D01*
X169928282Y-98228282D01*
X170024536Y-98102841D01*
X170085044Y-97956762D01*
X170088794Y-97928282D01*
X170104407Y-97809685D01*
X170105682Y-97800000D01*
X170088012Y-97665784D01*
X170086319Y-97652921D01*
X170086319Y-97652919D01*
X170085044Y-97643238D01*
X170081307Y-97634216D01*
X170028274Y-97506183D01*
X170028274Y-97506182D01*
X170025713Y-97500000D01*
X181944318Y-97500000D01*
X181945593Y-97509685D01*
X181963176Y-97643238D01*
X181964956Y-97656762D01*
X181968693Y-97665784D01*
X182020276Y-97790315D01*
X182025464Y-97802841D01*
X182121718Y-97928282D01*
X182247159Y-98024536D01*
X182393238Y-98085044D01*
X182402919Y-98086319D01*
X182402921Y-98086319D01*
X182540315Y-98104407D01*
X182550000Y-98105682D01*
X182559685Y-98104407D01*
X182697079Y-98086319D01*
X182697081Y-98086319D01*
X182706762Y-98085044D01*
X182852841Y-98024536D01*
X182978282Y-97928282D01*
X183074536Y-97802841D01*
X183079725Y-97790315D01*
X183131307Y-97665784D01*
X183135044Y-97656762D01*
X183136825Y-97643238D01*
X183154407Y-97509685D01*
X183155682Y-97500000D01*
X183139814Y-97379467D01*
X183136319Y-97352921D01*
X183136319Y-97352919D01*
X183135044Y-97343238D01*
X183087486Y-97228422D01*
X183078274Y-97206183D01*
X183078274Y-97206182D01*
X183074536Y-97197159D01*
X182978282Y-97071718D01*
X182852841Y-96975464D01*
X182706762Y-96914956D01*
X182697081Y-96913681D01*
X182697079Y-96913681D01*
X182559685Y-96895593D01*
X182550000Y-96894318D01*
X182540315Y-96895593D01*
X182402921Y-96913681D01*
X182402919Y-96913681D01*
X182393238Y-96914956D01*
X182247159Y-96975464D01*
X182121718Y-97071718D01*
X182025464Y-97197159D01*
X182021726Y-97206182D01*
X182021726Y-97206183D01*
X182012514Y-97228422D01*
X181964956Y-97343238D01*
X181963681Y-97352919D01*
X181963681Y-97352921D01*
X181960186Y-97379467D01*
X181944318Y-97500000D01*
X170025713Y-97500000D01*
X170024536Y-97497159D01*
X169928282Y-97371718D01*
X169802841Y-97275464D01*
X169678575Y-97223991D01*
X169665784Y-97218693D01*
X169656762Y-97214956D01*
X169647081Y-97213681D01*
X169647079Y-97213681D01*
X169509685Y-97195593D01*
X169500000Y-97194318D01*
X169490315Y-97195593D01*
X169352921Y-97213681D01*
X169352919Y-97213681D01*
X169343238Y-97214956D01*
X169334216Y-97218693D01*
X169321426Y-97223991D01*
X169197159Y-97275464D01*
X169071718Y-97371718D01*
X168975464Y-97497159D01*
X168971726Y-97506182D01*
X168971726Y-97506183D01*
X168918693Y-97634216D01*
X168914956Y-97643238D01*
X168913681Y-97652919D01*
X168913681Y-97652921D01*
X168911988Y-97665784D01*
X168894318Y-97800000D01*
X150300500Y-97800000D01*
X150300500Y-95750000D01*
X174344318Y-95750000D01*
X174345593Y-95759685D01*
X174361207Y-95878282D01*
X174364956Y-95906762D01*
X174368693Y-95915784D01*
X174403577Y-96000000D01*
X174425464Y-96052841D01*
X174521718Y-96178282D01*
X174647159Y-96274536D01*
X174793238Y-96335044D01*
X174802919Y-96336319D01*
X174802921Y-96336319D01*
X174940315Y-96354407D01*
X174950000Y-96355682D01*
X174959685Y-96354407D01*
X175097079Y-96336319D01*
X175097081Y-96336319D01*
X175106762Y-96335044D01*
X175252841Y-96274536D01*
X175378282Y-96178282D01*
X175474536Y-96052841D01*
X175496424Y-96000000D01*
X175531307Y-95915784D01*
X175535044Y-95906762D01*
X175538794Y-95878282D01*
X175554407Y-95759685D01*
X175555682Y-95750000D01*
X175538012Y-95615784D01*
X175536319Y-95602921D01*
X175536319Y-95602919D01*
X175535044Y-95593238D01*
X175516145Y-95547611D01*
X175478274Y-95456183D01*
X175478274Y-95456182D01*
X175475713Y-95450000D01*
X178994318Y-95450000D01*
X178995593Y-95459685D01*
X179013176Y-95593238D01*
X179014956Y-95606762D01*
X179018693Y-95615784D01*
X179070276Y-95740315D01*
X179075464Y-95752841D01*
X179171718Y-95878282D01*
X179297159Y-95974536D01*
X179443238Y-96035044D01*
X179452919Y-96036319D01*
X179452921Y-96036319D01*
X179590315Y-96054407D01*
X179600000Y-96055682D01*
X179609685Y-96054407D01*
X179747079Y-96036319D01*
X179747081Y-96036319D01*
X179756762Y-96035044D01*
X179841366Y-96000000D01*
X189444532Y-96000000D01*
X189445099Y-96006481D01*
X189460130Y-96178282D01*
X189464365Y-96226692D01*
X189466046Y-96232966D01*
X189466047Y-96232971D01*
X189521578Y-96440215D01*
X189523261Y-96446496D01*
X189526009Y-96452389D01*
X189616683Y-96646840D01*
X189616686Y-96646845D01*
X189619432Y-96652734D01*
X189749953Y-96839139D01*
X189910861Y-97000047D01*
X190097266Y-97130568D01*
X190103155Y-97133314D01*
X190103160Y-97133317D01*
X190240070Y-97197159D01*
X190303504Y-97226739D01*
X190309785Y-97228422D01*
X190517029Y-97283953D01*
X190517034Y-97283954D01*
X190523308Y-97285635D01*
X190529779Y-97286201D01*
X190529784Y-97286202D01*
X190743519Y-97304901D01*
X190750000Y-97305468D01*
X190756481Y-97304901D01*
X190970216Y-97286202D01*
X190970221Y-97286201D01*
X190976692Y-97285635D01*
X190982966Y-97283954D01*
X190982971Y-97283953D01*
X191190215Y-97228422D01*
X191196496Y-97226739D01*
X191259930Y-97197159D01*
X191396840Y-97133317D01*
X191396845Y-97133314D01*
X191402734Y-97130568D01*
X191589139Y-97000047D01*
X191750047Y-96839139D01*
X191880568Y-96652734D01*
X191883314Y-96646845D01*
X191883317Y-96646840D01*
X191973991Y-96452389D01*
X191976739Y-96446496D01*
X191978422Y-96440215D01*
X192033953Y-96232971D01*
X192033954Y-96232966D01*
X192035635Y-96226692D01*
X192039871Y-96178282D01*
X192054901Y-96006481D01*
X192055468Y-96000000D01*
X192035635Y-95773308D01*
X192032228Y-95760590D01*
X191978422Y-95559785D01*
X191976739Y-95553504D01*
X191923536Y-95439410D01*
X191883317Y-95353160D01*
X191883314Y-95353155D01*
X191880568Y-95347266D01*
X191750047Y-95160861D01*
X191589139Y-94999953D01*
X191402734Y-94869432D01*
X191396845Y-94866686D01*
X191396840Y-94866683D01*
X191202389Y-94776009D01*
X191196496Y-94773261D01*
X191190215Y-94771578D01*
X190982971Y-94716047D01*
X190982966Y-94716046D01*
X190976692Y-94714365D01*
X190970221Y-94713799D01*
X190970216Y-94713798D01*
X190756481Y-94695099D01*
X190750000Y-94694532D01*
X190743519Y-94695099D01*
X190529784Y-94713798D01*
X190529779Y-94713799D01*
X190523308Y-94714365D01*
X190517034Y-94716046D01*
X190517029Y-94716047D01*
X190309785Y-94771578D01*
X190303504Y-94773261D01*
X190297611Y-94776009D01*
X190103160Y-94866683D01*
X190103155Y-94866686D01*
X190097266Y-94869432D01*
X189910861Y-94999953D01*
X189749953Y-95160861D01*
X189619432Y-95347266D01*
X189616686Y-95353155D01*
X189616683Y-95353160D01*
X189576464Y-95439410D01*
X189523261Y-95553504D01*
X189521578Y-95559785D01*
X189467773Y-95760590D01*
X189464365Y-95773308D01*
X189444532Y-96000000D01*
X179841366Y-96000000D01*
X179902841Y-95974536D01*
X180028282Y-95878282D01*
X180124536Y-95752841D01*
X180129725Y-95740315D01*
X180181307Y-95615784D01*
X180185044Y-95606762D01*
X180186825Y-95593238D01*
X180204407Y-95459685D01*
X180205682Y-95450000D01*
X180192157Y-95347266D01*
X180186319Y-95302921D01*
X180186319Y-95302919D01*
X180185044Y-95293238D01*
X180124536Y-95147159D01*
X180028282Y-95021718D01*
X179902841Y-94925464D01*
X179776576Y-94873163D01*
X179765784Y-94868693D01*
X179756762Y-94864956D01*
X179747081Y-94863681D01*
X179747079Y-94863681D01*
X179609685Y-94845593D01*
X179600000Y-94844318D01*
X179590315Y-94845593D01*
X179452921Y-94863681D01*
X179452919Y-94863681D01*
X179443238Y-94864956D01*
X179434216Y-94868693D01*
X179423425Y-94873163D01*
X179297159Y-94925464D01*
X179171718Y-95021718D01*
X179075464Y-95147159D01*
X179014956Y-95293238D01*
X179013681Y-95302919D01*
X179013681Y-95302921D01*
X179007843Y-95347266D01*
X178994318Y-95450000D01*
X175475713Y-95450000D01*
X175474536Y-95447159D01*
X175378282Y-95321718D01*
X175252841Y-95225464D01*
X175106762Y-95164956D01*
X175097081Y-95163681D01*
X175097079Y-95163681D01*
X174959685Y-95145593D01*
X174950000Y-95144318D01*
X174940315Y-95145593D01*
X174802921Y-95163681D01*
X174802919Y-95163681D01*
X174793238Y-95164956D01*
X174647159Y-95225464D01*
X174521718Y-95321718D01*
X174425464Y-95447159D01*
X174421726Y-95456182D01*
X174421726Y-95456183D01*
X174383855Y-95547611D01*
X174364956Y-95593238D01*
X174363681Y-95602919D01*
X174363681Y-95602921D01*
X174361988Y-95615784D01*
X174344318Y-95750000D01*
X150300500Y-95750000D01*
X150300500Y-94000000D01*
X156694532Y-94000000D01*
X156714365Y-94226692D01*
X156773261Y-94446496D01*
X156776009Y-94452389D01*
X156866683Y-94646840D01*
X156866686Y-94646845D01*
X156869432Y-94652734D01*
X156999953Y-94839139D01*
X157160861Y-95000047D01*
X157347266Y-95130568D01*
X157353155Y-95133314D01*
X157353160Y-95133317D01*
X157537594Y-95219320D01*
X157553504Y-95226739D01*
X157559785Y-95228422D01*
X157767029Y-95283953D01*
X157767034Y-95283954D01*
X157773308Y-95285635D01*
X157779779Y-95286201D01*
X157779784Y-95286202D01*
X157993519Y-95304901D01*
X158000000Y-95305468D01*
X158006481Y-95304901D01*
X158220216Y-95286202D01*
X158220221Y-95286201D01*
X158226692Y-95285635D01*
X158232966Y-95283954D01*
X158232971Y-95283953D01*
X158440215Y-95228422D01*
X158446496Y-95226739D01*
X158462406Y-95219320D01*
X158646840Y-95133317D01*
X158646845Y-95133314D01*
X158652734Y-95130568D01*
X158839139Y-95000047D01*
X159000047Y-94839139D01*
X159130568Y-94652734D01*
X159133314Y-94646845D01*
X159133317Y-94646840D01*
X159223991Y-94452389D01*
X159226739Y-94446496D01*
X159285635Y-94226692D01*
X159305468Y-94000000D01*
X159285635Y-93773308D01*
X159226739Y-93553504D01*
X159195410Y-93486319D01*
X159133317Y-93353160D01*
X159133314Y-93353155D01*
X159130568Y-93347266D01*
X159000047Y-93160861D01*
X158839139Y-92999953D01*
X158696390Y-92900000D01*
X174194318Y-92900000D01*
X174214956Y-93056762D01*
X174218693Y-93065784D01*
X174256172Y-93156265D01*
X174275464Y-93202841D01*
X174371718Y-93328282D01*
X174497159Y-93424536D01*
X174643238Y-93485044D01*
X174652919Y-93486319D01*
X174652921Y-93486319D01*
X174790315Y-93504407D01*
X174800000Y-93505682D01*
X174809685Y-93504407D01*
X174947079Y-93486319D01*
X174947081Y-93486319D01*
X174956762Y-93485044D01*
X175102841Y-93424536D01*
X175228282Y-93328282D01*
X175324536Y-93202841D01*
X175343829Y-93156265D01*
X175381307Y-93065784D01*
X175385044Y-93056762D01*
X175405682Y-92900000D01*
X175401296Y-92866683D01*
X175386319Y-92752921D01*
X175386319Y-92752919D01*
X175385044Y-92743238D01*
X175324536Y-92597159D01*
X175228282Y-92471718D01*
X175102841Y-92375464D01*
X174956762Y-92314956D01*
X174947081Y-92313681D01*
X174947079Y-92313681D01*
X174809685Y-92295593D01*
X174800000Y-92294318D01*
X174790315Y-92295593D01*
X174652921Y-92313681D01*
X174652919Y-92313681D01*
X174643238Y-92314956D01*
X174497159Y-92375464D01*
X174371718Y-92471718D01*
X174275464Y-92597159D01*
X174214956Y-92743238D01*
X174213681Y-92752919D01*
X174213681Y-92752921D01*
X174198704Y-92866683D01*
X174194318Y-92900000D01*
X158696390Y-92900000D01*
X158652734Y-92869432D01*
X158646845Y-92866686D01*
X158646840Y-92866683D01*
X158452389Y-92776009D01*
X158446496Y-92773261D01*
X158370586Y-92752921D01*
X158232971Y-92716047D01*
X158232966Y-92716046D01*
X158226692Y-92714365D01*
X158220221Y-92713799D01*
X158220216Y-92713798D01*
X158006481Y-92695099D01*
X158000000Y-92694532D01*
X157993519Y-92695099D01*
X157779784Y-92713798D01*
X157779779Y-92713799D01*
X157773308Y-92714365D01*
X157767034Y-92716046D01*
X157767029Y-92716047D01*
X157629414Y-92752921D01*
X157553504Y-92773261D01*
X157547611Y-92776009D01*
X157353160Y-92866683D01*
X157353155Y-92866686D01*
X157347266Y-92869432D01*
X157160861Y-92999953D01*
X156999953Y-93160861D01*
X156869432Y-93347266D01*
X156866686Y-93353155D01*
X156866683Y-93353160D01*
X156804590Y-93486319D01*
X156773261Y-93553504D01*
X156714365Y-93773308D01*
X156694532Y-94000000D01*
X150300500Y-94000000D01*
X150300500Y-88750000D01*
X181944318Y-88750000D01*
X181964956Y-88906762D01*
X182025464Y-89052841D01*
X182121718Y-89178282D01*
X182247159Y-89274536D01*
X182393238Y-89335044D01*
X182402919Y-89336319D01*
X182402921Y-89336319D01*
X182540315Y-89354407D01*
X182550000Y-89355682D01*
X182559685Y-89354407D01*
X182697079Y-89336319D01*
X182697081Y-89336319D01*
X182706762Y-89335044D01*
X182852841Y-89274536D01*
X182978282Y-89178282D01*
X183074536Y-89052841D01*
X183135044Y-88906762D01*
X183155682Y-88750000D01*
X183135044Y-88593238D01*
X183074536Y-88447159D01*
X182978282Y-88321718D01*
X182852841Y-88225464D01*
X182706762Y-88164956D01*
X182697081Y-88163681D01*
X182697079Y-88163681D01*
X182559685Y-88145593D01*
X182550000Y-88144318D01*
X182540315Y-88145593D01*
X182402921Y-88163681D01*
X182402919Y-88163681D01*
X182393238Y-88164956D01*
X182247159Y-88225464D01*
X182121718Y-88321718D01*
X182025464Y-88447159D01*
X181964956Y-88593238D01*
X181944318Y-88750000D01*
X150300500Y-88750000D01*
X150300500Y-87283102D01*
X152081971Y-87283102D01*
X152085180Y-87288662D01*
X152258271Y-87394733D01*
X152268676Y-87400034D01*
X152477156Y-87486389D01*
X152488250Y-87489994D01*
X152707680Y-87542675D01*
X152719196Y-87544499D01*
X152944168Y-87562204D01*
X152955832Y-87562204D01*
X153180804Y-87544499D01*
X153192320Y-87542675D01*
X153411750Y-87489994D01*
X153422844Y-87486389D01*
X153631324Y-87400034D01*
X153641729Y-87394733D01*
X153807168Y-87293351D01*
X153818192Y-87281734D01*
X153816368Y-87275578D01*
X153540790Y-87000000D01*
X172944532Y-87000000D01*
X172964365Y-87226692D01*
X172966046Y-87232966D01*
X172966047Y-87232971D01*
X172982226Y-87293351D01*
X173023261Y-87446496D01*
X173026009Y-87452389D01*
X173116683Y-87646840D01*
X173116686Y-87646845D01*
X173119432Y-87652734D01*
X173249953Y-87839139D01*
X173410861Y-88000047D01*
X173597266Y-88130568D01*
X173603155Y-88133314D01*
X173603160Y-88133317D01*
X173787594Y-88219320D01*
X173803504Y-88226739D01*
X173809785Y-88228422D01*
X174017029Y-88283953D01*
X174017034Y-88283954D01*
X174023308Y-88285635D01*
X174029779Y-88286201D01*
X174029784Y-88286202D01*
X174243519Y-88304901D01*
X174250000Y-88305468D01*
X174256481Y-88304901D01*
X174470216Y-88286202D01*
X174470221Y-88286201D01*
X174476692Y-88285635D01*
X174482966Y-88283954D01*
X174482971Y-88283953D01*
X174690215Y-88228422D01*
X174696496Y-88226739D01*
X174712406Y-88219320D01*
X174896840Y-88133317D01*
X174896845Y-88133314D01*
X174902734Y-88130568D01*
X175089139Y-88000047D01*
X175250047Y-87839139D01*
X175380568Y-87652734D01*
X175383314Y-87646845D01*
X175383317Y-87646840D01*
X175473991Y-87452389D01*
X175476739Y-87446496D01*
X175517774Y-87293351D01*
X175533953Y-87232971D01*
X175533954Y-87232966D01*
X175535635Y-87226692D01*
X175555468Y-87000000D01*
X175548311Y-86918192D01*
X175545241Y-86883102D01*
X194881971Y-86883102D01*
X194885180Y-86888662D01*
X195058271Y-86994733D01*
X195068676Y-87000034D01*
X195277156Y-87086389D01*
X195288250Y-87089994D01*
X195507680Y-87142675D01*
X195519196Y-87144499D01*
X195744168Y-87162204D01*
X195755832Y-87162204D01*
X195980804Y-87144499D01*
X195992320Y-87142675D01*
X196211750Y-87089994D01*
X196222844Y-87086389D01*
X196431324Y-87000034D01*
X196441729Y-86994733D01*
X196607168Y-86893351D01*
X196618192Y-86881734D01*
X196616368Y-86875578D01*
X195763871Y-86023081D01*
X195750000Y-86015073D01*
X195736129Y-86023081D01*
X194889979Y-86869231D01*
X194881971Y-86883102D01*
X175545241Y-86883102D01*
X175536202Y-86779784D01*
X175536201Y-86779779D01*
X175535635Y-86773308D01*
X175527174Y-86741729D01*
X175478422Y-86559785D01*
X175476739Y-86553504D01*
X175455132Y-86507168D01*
X175383317Y-86353160D01*
X175383314Y-86353155D01*
X175380568Y-86347266D01*
X175250047Y-86160861D01*
X175089139Y-85999953D01*
X174902734Y-85869432D01*
X174896845Y-85866686D01*
X174896840Y-85866683D01*
X174702389Y-85776009D01*
X174696496Y-85773261D01*
X174690215Y-85771578D01*
X174482971Y-85716047D01*
X174482966Y-85716046D01*
X174476692Y-85714365D01*
X174470221Y-85713799D01*
X174470216Y-85713798D01*
X174256481Y-85695099D01*
X174250000Y-85694532D01*
X174243519Y-85695099D01*
X174029784Y-85713798D01*
X174029779Y-85713799D01*
X174023308Y-85714365D01*
X174017034Y-85716046D01*
X174017029Y-85716047D01*
X173809785Y-85771578D01*
X173803504Y-85773261D01*
X173797611Y-85776009D01*
X173603160Y-85866683D01*
X173603155Y-85866686D01*
X173597266Y-85869432D01*
X173410861Y-85999953D01*
X173249953Y-86160861D01*
X173119432Y-86347266D01*
X173116686Y-86353155D01*
X173116683Y-86353160D01*
X173044868Y-86507168D01*
X173023261Y-86553504D01*
X173021578Y-86559785D01*
X172972827Y-86741729D01*
X172964365Y-86773308D01*
X172963799Y-86779779D01*
X172963798Y-86779784D01*
X172951689Y-86918192D01*
X172944532Y-87000000D01*
X153540790Y-87000000D01*
X152963871Y-86423081D01*
X152950000Y-86415073D01*
X152936129Y-86423081D01*
X152089979Y-87269231D01*
X152081971Y-87283102D01*
X150300500Y-87283102D01*
X150300500Y-86055832D01*
X151437796Y-86055832D01*
X151455501Y-86280804D01*
X151457325Y-86292320D01*
X151510006Y-86511750D01*
X151513611Y-86522844D01*
X151599966Y-86731324D01*
X151605267Y-86741729D01*
X151706649Y-86907168D01*
X151718266Y-86918192D01*
X151724422Y-86916368D01*
X152576919Y-86063871D01*
X152584927Y-86050000D01*
X153315073Y-86050000D01*
X153323081Y-86063871D01*
X154169231Y-86910021D01*
X154183102Y-86918029D01*
X154188662Y-86914820D01*
X154294733Y-86741729D01*
X154300034Y-86731324D01*
X154386389Y-86522844D01*
X154389994Y-86511750D01*
X154442675Y-86292320D01*
X154444499Y-86280804D01*
X154462204Y-86055832D01*
X154462204Y-86044168D01*
X154444499Y-85819196D01*
X154442675Y-85807680D01*
X154406219Y-85655832D01*
X194237796Y-85655832D01*
X194255501Y-85880804D01*
X194257325Y-85892320D01*
X194310006Y-86111750D01*
X194313611Y-86122844D01*
X194399966Y-86331324D01*
X194405267Y-86341729D01*
X194506649Y-86507168D01*
X194518266Y-86518192D01*
X194524422Y-86516368D01*
X195376919Y-85663871D01*
X195384927Y-85650000D01*
X196115073Y-85650000D01*
X196123081Y-85663871D01*
X196969231Y-86510021D01*
X196983102Y-86518029D01*
X196988662Y-86514820D01*
X197094733Y-86341729D01*
X197100034Y-86331324D01*
X197186389Y-86122844D01*
X197189994Y-86111750D01*
X197242675Y-85892320D01*
X197244499Y-85880804D01*
X197262204Y-85655832D01*
X197262204Y-85644168D01*
X197244499Y-85419196D01*
X197242675Y-85407680D01*
X197189994Y-85188250D01*
X197186389Y-85177156D01*
X197100034Y-84968676D01*
X197094733Y-84958271D01*
X196993351Y-84792832D01*
X196981734Y-84781808D01*
X196975578Y-84783632D01*
X196123081Y-85636129D01*
X196115073Y-85650000D01*
X195384927Y-85650000D01*
X195376919Y-85636129D01*
X194530769Y-84789979D01*
X194516898Y-84781971D01*
X194511338Y-84785180D01*
X194405267Y-84958271D01*
X194399966Y-84968676D01*
X194313611Y-85177156D01*
X194310006Y-85188250D01*
X194257325Y-85407680D01*
X194255501Y-85419196D01*
X194237796Y-85644168D01*
X194237796Y-85655832D01*
X154406219Y-85655832D01*
X154389994Y-85588250D01*
X154386389Y-85577156D01*
X154300034Y-85368676D01*
X154294733Y-85358271D01*
X154193351Y-85192832D01*
X154181734Y-85181808D01*
X154175578Y-85183632D01*
X153323081Y-86036129D01*
X153315073Y-86050000D01*
X152584927Y-86050000D01*
X152576919Y-86036129D01*
X151730769Y-85189979D01*
X151716898Y-85181971D01*
X151711338Y-85185180D01*
X151605267Y-85358271D01*
X151599966Y-85368676D01*
X151513611Y-85577156D01*
X151510006Y-85588250D01*
X151457325Y-85807680D01*
X151455501Y-85819196D01*
X151437796Y-86044168D01*
X151437796Y-86055832D01*
X150300500Y-86055832D01*
X150300500Y-84818266D01*
X152081808Y-84818266D01*
X152083632Y-84824422D01*
X152936129Y-85676919D01*
X152950000Y-85684927D01*
X152963871Y-85676919D01*
X153810021Y-84830769D01*
X153818029Y-84816898D01*
X153814820Y-84811338D01*
X153641729Y-84705267D01*
X153631324Y-84699966D01*
X153422844Y-84613611D01*
X153411750Y-84610006D01*
X153192320Y-84557325D01*
X153180804Y-84555501D01*
X152955832Y-84537796D01*
X152944168Y-84537796D01*
X152719196Y-84555501D01*
X152707680Y-84557325D01*
X152488250Y-84610006D01*
X152477156Y-84613611D01*
X152268676Y-84699966D01*
X152258271Y-84705267D01*
X152092832Y-84806649D01*
X152081808Y-84818266D01*
X150300500Y-84818266D01*
X150300500Y-84418266D01*
X194881808Y-84418266D01*
X194883632Y-84424422D01*
X195736129Y-85276919D01*
X195750000Y-85284927D01*
X195763871Y-85276919D01*
X196610021Y-84430769D01*
X196618029Y-84416898D01*
X196614820Y-84411338D01*
X196441729Y-84305267D01*
X196431324Y-84299966D01*
X196222844Y-84213611D01*
X196211750Y-84210006D01*
X195992320Y-84157325D01*
X195980804Y-84155501D01*
X195755832Y-84137796D01*
X195744168Y-84137796D01*
X195519196Y-84155501D01*
X195507680Y-84157325D01*
X195288250Y-84210006D01*
X195277156Y-84213611D01*
X195068676Y-84299966D01*
X195058271Y-84305267D01*
X194892832Y-84406649D01*
X194881808Y-84418266D01*
X150300500Y-84418266D01*
X150300500Y-82297122D01*
X152067951Y-82297122D01*
X152073098Y-82306038D01*
X152314469Y-82501497D01*
X152320776Y-82506079D01*
X152640178Y-82713501D01*
X152646934Y-82717402D01*
X152986277Y-82890306D01*
X152993388Y-82893472D01*
X153348955Y-83029961D01*
X153356360Y-83032367D01*
X153724241Y-83130940D01*
X153731850Y-83132558D01*
X154108032Y-83192139D01*
X154115768Y-83192952D01*
X154496108Y-83212885D01*
X154503892Y-83212885D01*
X154884232Y-83192952D01*
X154891968Y-83192139D01*
X155268150Y-83132558D01*
X155275759Y-83130940D01*
X155643640Y-83032367D01*
X155651045Y-83029961D01*
X156006612Y-82893472D01*
X156013723Y-82890306D01*
X156353066Y-82717402D01*
X156359822Y-82713501D01*
X156679224Y-82506079D01*
X156685531Y-82501497D01*
X156922670Y-82309465D01*
X156931637Y-82297122D01*
X193067951Y-82297122D01*
X193073098Y-82306038D01*
X193314469Y-82501497D01*
X193320776Y-82506079D01*
X193640178Y-82713501D01*
X193646934Y-82717402D01*
X193986277Y-82890306D01*
X193993388Y-82893472D01*
X194348955Y-83029961D01*
X194356360Y-83032367D01*
X194724241Y-83130940D01*
X194731850Y-83132558D01*
X195108032Y-83192139D01*
X195115768Y-83192952D01*
X195496108Y-83212885D01*
X195503892Y-83212885D01*
X195884232Y-83192952D01*
X195891968Y-83192139D01*
X196268150Y-83132558D01*
X196275759Y-83130940D01*
X196643640Y-83032367D01*
X196651045Y-83029961D01*
X197006612Y-82893472D01*
X197013723Y-82890306D01*
X197353066Y-82717402D01*
X197359822Y-82713501D01*
X197679224Y-82506079D01*
X197685531Y-82501497D01*
X197922670Y-82309465D01*
X197932082Y-82296510D01*
X197927895Y-82287105D01*
X195513871Y-79873081D01*
X195500000Y-79865073D01*
X195486129Y-79873081D01*
X193075959Y-82283251D01*
X193067951Y-82297122D01*
X156931637Y-82297122D01*
X156932082Y-82296510D01*
X156927895Y-82287105D01*
X154513871Y-79873081D01*
X154500000Y-79865073D01*
X154486129Y-79873081D01*
X152075959Y-82283251D01*
X152067951Y-82297122D01*
X150300500Y-82297122D01*
X150300500Y-79503892D01*
X150787115Y-79503892D01*
X150807048Y-79884232D01*
X150807861Y-79891968D01*
X150867442Y-80268150D01*
X150869060Y-80275759D01*
X150967633Y-80643640D01*
X150970039Y-80651045D01*
X151106528Y-81006612D01*
X151109694Y-81013723D01*
X151282598Y-81353065D01*
X151286499Y-81359821D01*
X151493921Y-81679224D01*
X151498503Y-81685531D01*
X151690535Y-81922670D01*
X151703490Y-81932082D01*
X151712895Y-81927895D01*
X154126919Y-79513871D01*
X154134927Y-79500000D01*
X154865073Y-79500000D01*
X154873081Y-79513871D01*
X157283251Y-81924041D01*
X157297122Y-81932049D01*
X157306038Y-81926902D01*
X157501497Y-81685531D01*
X157506079Y-81679224D01*
X157713501Y-81359821D01*
X157717402Y-81353065D01*
X157890306Y-81013723D01*
X157893472Y-81006612D01*
X158029961Y-80651045D01*
X158032367Y-80643640D01*
X158130940Y-80275759D01*
X158132558Y-80268150D01*
X158192139Y-79891968D01*
X158192952Y-79884232D01*
X158212885Y-79503892D01*
X191787115Y-79503892D01*
X191807048Y-79884232D01*
X191807861Y-79891968D01*
X191867442Y-80268150D01*
X191869060Y-80275759D01*
X191967633Y-80643640D01*
X191970039Y-80651045D01*
X192106528Y-81006612D01*
X192109694Y-81013723D01*
X192282598Y-81353065D01*
X192286499Y-81359821D01*
X192493921Y-81679224D01*
X192498503Y-81685531D01*
X192690535Y-81922670D01*
X192703490Y-81932082D01*
X192712895Y-81927895D01*
X195126919Y-79513871D01*
X195134927Y-79500000D01*
X195865073Y-79500000D01*
X195873081Y-79513871D01*
X198283251Y-81924041D01*
X198297122Y-81932049D01*
X198306038Y-81926902D01*
X198501497Y-81685531D01*
X198506079Y-81679224D01*
X198713501Y-81359821D01*
X198717402Y-81353065D01*
X198890306Y-81013723D01*
X198893472Y-81006612D01*
X199029961Y-80651045D01*
X199032367Y-80643640D01*
X199130940Y-80275759D01*
X199132558Y-80268150D01*
X199192139Y-79891968D01*
X199192952Y-79884232D01*
X199212885Y-79503892D01*
X199212885Y-79496108D01*
X199192952Y-79115768D01*
X199192139Y-79108032D01*
X199132558Y-78731850D01*
X199130940Y-78724241D01*
X199032367Y-78356360D01*
X199029961Y-78348955D01*
X198893472Y-77993388D01*
X198890306Y-77986277D01*
X198717402Y-77646935D01*
X198713501Y-77640179D01*
X198506079Y-77320776D01*
X198501497Y-77314469D01*
X198309465Y-77077330D01*
X198296510Y-77067918D01*
X198287105Y-77072105D01*
X195873081Y-79486129D01*
X195865073Y-79500000D01*
X195134927Y-79500000D01*
X195126919Y-79486129D01*
X192716749Y-77075959D01*
X192702878Y-77067951D01*
X192693962Y-77073098D01*
X192498503Y-77314469D01*
X192493921Y-77320776D01*
X192286499Y-77640179D01*
X192282598Y-77646935D01*
X192109694Y-77986277D01*
X192106528Y-77993388D01*
X191970039Y-78348955D01*
X191967633Y-78356360D01*
X191869060Y-78724241D01*
X191867442Y-78731850D01*
X191807861Y-79108032D01*
X191807048Y-79115768D01*
X191787115Y-79496108D01*
X191787115Y-79503892D01*
X158212885Y-79503892D01*
X158212885Y-79496108D01*
X158192952Y-79115768D01*
X158192139Y-79108032D01*
X158132558Y-78731850D01*
X158130940Y-78724241D01*
X158032367Y-78356360D01*
X158029961Y-78348955D01*
X157893472Y-77993388D01*
X157890306Y-77986277D01*
X157717402Y-77646935D01*
X157713501Y-77640179D01*
X157506079Y-77320776D01*
X157501497Y-77314469D01*
X157309465Y-77077330D01*
X157296510Y-77067918D01*
X157287105Y-77072105D01*
X154873081Y-79486129D01*
X154865073Y-79500000D01*
X154134927Y-79500000D01*
X154126919Y-79486129D01*
X151716749Y-77075959D01*
X151702878Y-77067951D01*
X151693962Y-77073098D01*
X151498503Y-77314469D01*
X151493921Y-77320776D01*
X151286499Y-77640179D01*
X151282598Y-77646935D01*
X151109694Y-77986277D01*
X151106528Y-77993388D01*
X150970039Y-78348955D01*
X150967633Y-78356360D01*
X150869060Y-78724241D01*
X150867442Y-78731850D01*
X150807861Y-79108032D01*
X150807048Y-79115768D01*
X150787115Y-79496108D01*
X150787115Y-79503892D01*
X150300500Y-79503892D01*
X150300500Y-76703490D01*
X152067918Y-76703490D01*
X152072105Y-76712895D01*
X154486129Y-79126919D01*
X154500000Y-79134927D01*
X154513871Y-79126919D01*
X156924041Y-76716749D01*
X156931696Y-76703490D01*
X193067918Y-76703490D01*
X193072105Y-76712895D01*
X195486129Y-79126919D01*
X195500000Y-79134927D01*
X195513871Y-79126919D01*
X197924041Y-76716749D01*
X197932049Y-76702878D01*
X197926902Y-76693962D01*
X197685531Y-76498503D01*
X197679224Y-76493921D01*
X197359822Y-76286499D01*
X197353066Y-76282598D01*
X197013723Y-76109694D01*
X197006612Y-76106528D01*
X196651045Y-75970039D01*
X196643640Y-75967633D01*
X196275759Y-75869060D01*
X196268150Y-75867442D01*
X195891968Y-75807861D01*
X195884232Y-75807048D01*
X195503892Y-75787115D01*
X195496108Y-75787115D01*
X195115768Y-75807048D01*
X195108032Y-75807861D01*
X194731850Y-75867442D01*
X194724241Y-75869060D01*
X194356360Y-75967633D01*
X194348955Y-75970039D01*
X193993388Y-76106528D01*
X193986277Y-76109694D01*
X193646935Y-76282598D01*
X193640179Y-76286499D01*
X193320776Y-76493921D01*
X193314469Y-76498503D01*
X193077330Y-76690535D01*
X193067918Y-76703490D01*
X156931696Y-76703490D01*
X156932049Y-76702878D01*
X156926902Y-76693962D01*
X156685531Y-76498503D01*
X156679224Y-76493921D01*
X156359822Y-76286499D01*
X156353066Y-76282598D01*
X156013723Y-76109694D01*
X156006612Y-76106528D01*
X155651045Y-75970039D01*
X155643640Y-75967633D01*
X155275759Y-75869060D01*
X155268150Y-75867442D01*
X154891968Y-75807861D01*
X154884232Y-75807048D01*
X154503892Y-75787115D01*
X154496108Y-75787115D01*
X154115768Y-75807048D01*
X154108032Y-75807861D01*
X153731850Y-75867442D01*
X153724241Y-75869060D01*
X153356360Y-75967633D01*
X153348955Y-75970039D01*
X152993388Y-76106528D01*
X152986277Y-76109694D01*
X152646935Y-76282598D01*
X152640179Y-76286499D01*
X152320776Y-76493921D01*
X152314469Y-76498503D01*
X152077330Y-76690535D01*
X152067918Y-76703490D01*
X150300500Y-76703490D01*
X150300500Y-75449500D01*
X150320462Y-75375000D01*
X150375000Y-75320462D01*
X150449500Y-75300500D01*
X199550500Y-75300500D01*
X199625000Y-75320462D01*
G37*
%TD.AperFunction*%
%TD*%
M02*
