%TF.GenerationSoftware,KiCad,Pcbnew,6.0.7-f9a2dced07~116~ubuntu20.04.1*%
%TF.CreationDate,2022-10-10T13:33:47-07:00*%
%TF.ProjectId,packaged-amp-panel-f,7061636b-6167-4656-942d-616d702d7061,rev?*%
%TF.SameCoordinates,Original*%
%TF.FileFunction,Drillmap*%
%TF.FilePolarity,Positive*%
%FSLAX45Y45*%
G04 Gerber Fmt 4.5, Leading zero omitted, Abs format (unit mm)*
G04 Created by KiCad (PCBNEW 6.0.7-f9a2dced07~116~ubuntu20.04.1) date 2022-10-10 13:33:47*
%MOMM*%
%LPD*%
G01*
G04 APERTURE LIST*
%ADD10C,0.200000*%
%ADD11C,0.040000*%
G04 APERTURE END LIST*
D10*
X10991500Y-10023500D02*
G75*
G03*
X10991500Y-10023500I-191500J0D01*
G01*
X8625000Y-11225000D02*
X15525000Y-11225000D01*
X15525000Y-11225000D02*
G75*
G03*
X15625000Y-11125000I0J100000D01*
G01*
X15625000Y-8895000D02*
G75*
G03*
X15525000Y-8795000I-100000J0D01*
G01*
X13300000Y-9797660D02*
G75*
G03*
X13300000Y-9797660I-325000J0D01*
G01*
X8525000Y-8895000D02*
X8525000Y-11125000D01*
X15525000Y-8795000D02*
X8625000Y-8795000D01*
X15625000Y-11125000D02*
X15625000Y-8895000D01*
X8625000Y-8795000D02*
G75*
G03*
X8525000Y-8895000I0J-100000D01*
G01*
X10991500Y-9515500D02*
G75*
G03*
X10991500Y-9515500I-191500J0D01*
G01*
X8525000Y-11125000D02*
G75*
G03*
X8625000Y-11225000I100000J0D01*
G01*
D11*
X12955000Y-10180000D02*
X12995000Y-10220000D01*
X12995000Y-10180000D02*
X12955000Y-10220000D01*
D10*
X8772619Y-11545476D02*
X8772619Y-11345476D01*
X8820238Y-11345476D01*
X8848810Y-11355000D01*
X8867857Y-11374048D01*
X8877381Y-11393095D01*
X8886905Y-11431190D01*
X8886905Y-11459762D01*
X8877381Y-11497857D01*
X8867857Y-11516905D01*
X8848810Y-11535952D01*
X8820238Y-11545476D01*
X8772619Y-11545476D01*
X8972619Y-11545476D02*
X8972619Y-11412143D01*
X8972619Y-11450238D02*
X8982143Y-11431190D01*
X8991667Y-11421667D01*
X9010714Y-11412143D01*
X9029762Y-11412143D01*
X9096429Y-11545476D02*
X9096429Y-11412143D01*
X9096429Y-11345476D02*
X9086905Y-11355000D01*
X9096429Y-11364524D01*
X9105952Y-11355000D01*
X9096429Y-11345476D01*
X9096429Y-11364524D01*
X9220238Y-11545476D02*
X9201190Y-11535952D01*
X9191667Y-11516905D01*
X9191667Y-11345476D01*
X9325000Y-11545476D02*
X9305952Y-11535952D01*
X9296429Y-11516905D01*
X9296429Y-11345476D01*
X9553571Y-11545476D02*
X9553571Y-11345476D01*
X9620238Y-11488333D01*
X9686905Y-11345476D01*
X9686905Y-11545476D01*
X9867857Y-11545476D02*
X9867857Y-11440714D01*
X9858333Y-11421667D01*
X9839286Y-11412143D01*
X9801190Y-11412143D01*
X9782143Y-11421667D01*
X9867857Y-11535952D02*
X9848810Y-11545476D01*
X9801190Y-11545476D01*
X9782143Y-11535952D01*
X9772619Y-11516905D01*
X9772619Y-11497857D01*
X9782143Y-11478809D01*
X9801190Y-11469286D01*
X9848810Y-11469286D01*
X9867857Y-11459762D01*
X9963095Y-11412143D02*
X9963095Y-11612143D01*
X9963095Y-11421667D02*
X9982143Y-11412143D01*
X10020238Y-11412143D01*
X10039286Y-11421667D01*
X10048810Y-11431190D01*
X10058333Y-11450238D01*
X10058333Y-11507381D01*
X10048810Y-11526428D01*
X10039286Y-11535952D01*
X10020238Y-11545476D01*
X9982143Y-11545476D01*
X9963095Y-11535952D01*
X10144048Y-11526428D02*
X10153571Y-11535952D01*
X10144048Y-11545476D01*
X10134524Y-11535952D01*
X10144048Y-11526428D01*
X10144048Y-11545476D01*
X10144048Y-11421667D02*
X10153571Y-11431190D01*
X10144048Y-11440714D01*
X10134524Y-11431190D01*
X10144048Y-11421667D01*
X10144048Y-11440714D01*
D11*
X8475000Y-11855000D02*
X8515000Y-11895000D01*
X8515000Y-11855000D02*
X8475000Y-11895000D01*
D10*
X8810714Y-11765476D02*
X8829762Y-11765476D01*
X8848810Y-11775000D01*
X8858333Y-11784524D01*
X8867857Y-11803571D01*
X8877381Y-11841667D01*
X8877381Y-11889286D01*
X8867857Y-11927381D01*
X8858333Y-11946428D01*
X8848810Y-11955952D01*
X8829762Y-11965476D01*
X8810714Y-11965476D01*
X8791667Y-11955952D01*
X8782143Y-11946428D01*
X8772619Y-11927381D01*
X8763095Y-11889286D01*
X8763095Y-11841667D01*
X8772619Y-11803571D01*
X8782143Y-11784524D01*
X8791667Y-11775000D01*
X8810714Y-11765476D01*
X8963095Y-11946428D02*
X8972619Y-11955952D01*
X8963095Y-11965476D01*
X8953571Y-11955952D01*
X8963095Y-11946428D01*
X8963095Y-11965476D01*
X9144048Y-11832143D02*
X9144048Y-11965476D01*
X9096429Y-11755952D02*
X9048810Y-11898809D01*
X9172619Y-11898809D01*
X9286905Y-11765476D02*
X9305952Y-11765476D01*
X9325000Y-11775000D01*
X9334524Y-11784524D01*
X9344048Y-11803571D01*
X9353571Y-11841667D01*
X9353571Y-11889286D01*
X9344048Y-11927381D01*
X9334524Y-11946428D01*
X9325000Y-11955952D01*
X9305952Y-11965476D01*
X9286905Y-11965476D01*
X9267857Y-11955952D01*
X9258333Y-11946428D01*
X9248810Y-11927381D01*
X9239286Y-11889286D01*
X9239286Y-11841667D01*
X9248810Y-11803571D01*
X9258333Y-11784524D01*
X9267857Y-11775000D01*
X9286905Y-11765476D01*
X9477381Y-11765476D02*
X9496429Y-11765476D01*
X9515476Y-11775000D01*
X9525000Y-11784524D01*
X9534524Y-11803571D01*
X9544048Y-11841667D01*
X9544048Y-11889286D01*
X9534524Y-11927381D01*
X9525000Y-11946428D01*
X9515476Y-11955952D01*
X9496429Y-11965476D01*
X9477381Y-11965476D01*
X9458333Y-11955952D01*
X9448810Y-11946428D01*
X9439286Y-11927381D01*
X9429762Y-11889286D01*
X9429762Y-11841667D01*
X9439286Y-11803571D01*
X9448810Y-11784524D01*
X9458333Y-11775000D01*
X9477381Y-11765476D01*
X9629762Y-11965476D02*
X9629762Y-11832143D01*
X9629762Y-11851190D02*
X9639286Y-11841667D01*
X9658333Y-11832143D01*
X9686905Y-11832143D01*
X9705952Y-11841667D01*
X9715476Y-11860714D01*
X9715476Y-11965476D01*
X9715476Y-11860714D02*
X9725000Y-11841667D01*
X9744048Y-11832143D01*
X9772619Y-11832143D01*
X9791667Y-11841667D01*
X9801190Y-11860714D01*
X9801190Y-11965476D01*
X9896429Y-11965476D02*
X9896429Y-11832143D01*
X9896429Y-11851190D02*
X9905952Y-11841667D01*
X9925000Y-11832143D01*
X9953571Y-11832143D01*
X9972619Y-11841667D01*
X9982143Y-11860714D01*
X9982143Y-11965476D01*
X9982143Y-11860714D02*
X9991667Y-11841667D01*
X10010714Y-11832143D01*
X10039286Y-11832143D01*
X10058333Y-11841667D01*
X10067857Y-11860714D01*
X10067857Y-11965476D01*
X10458333Y-11755952D02*
X10286905Y-12013095D01*
X10715476Y-11765476D02*
X10734524Y-11765476D01*
X10753571Y-11775000D01*
X10763095Y-11784524D01*
X10772619Y-11803571D01*
X10782143Y-11841667D01*
X10782143Y-11889286D01*
X10772619Y-11927381D01*
X10763095Y-11946428D01*
X10753571Y-11955952D01*
X10734524Y-11965476D01*
X10715476Y-11965476D01*
X10696429Y-11955952D01*
X10686905Y-11946428D01*
X10677381Y-11927381D01*
X10667857Y-11889286D01*
X10667857Y-11841667D01*
X10677381Y-11803571D01*
X10686905Y-11784524D01*
X10696429Y-11775000D01*
X10715476Y-11765476D01*
X10867857Y-11946428D02*
X10877381Y-11955952D01*
X10867857Y-11965476D01*
X10858333Y-11955952D01*
X10867857Y-11946428D01*
X10867857Y-11965476D01*
X11001190Y-11765476D02*
X11020238Y-11765476D01*
X11039286Y-11775000D01*
X11048810Y-11784524D01*
X11058333Y-11803571D01*
X11067857Y-11841667D01*
X11067857Y-11889286D01*
X11058333Y-11927381D01*
X11048810Y-11946428D01*
X11039286Y-11955952D01*
X11020238Y-11965476D01*
X11001190Y-11965476D01*
X10982143Y-11955952D01*
X10972619Y-11946428D01*
X10963095Y-11927381D01*
X10953571Y-11889286D01*
X10953571Y-11841667D01*
X10963095Y-11803571D01*
X10972619Y-11784524D01*
X10982143Y-11775000D01*
X11001190Y-11765476D01*
X11258333Y-11965476D02*
X11144048Y-11965476D01*
X11201190Y-11965476D02*
X11201190Y-11765476D01*
X11182143Y-11794048D01*
X11163095Y-11813095D01*
X11144048Y-11822619D01*
X11439286Y-11765476D02*
X11344048Y-11765476D01*
X11334524Y-11860714D01*
X11344048Y-11851190D01*
X11363095Y-11841667D01*
X11410714Y-11841667D01*
X11429762Y-11851190D01*
X11439286Y-11860714D01*
X11448809Y-11879762D01*
X11448809Y-11927381D01*
X11439286Y-11946428D01*
X11429762Y-11955952D01*
X11410714Y-11965476D01*
X11363095Y-11965476D01*
X11344048Y-11955952D01*
X11334524Y-11946428D01*
X11515476Y-11765476D02*
X11648809Y-11765476D01*
X11563095Y-11965476D01*
X11715476Y-11765476D02*
X11715476Y-11803571D01*
X11791667Y-11765476D02*
X11791667Y-11803571D01*
X12086905Y-12041667D02*
X12077381Y-12032143D01*
X12058333Y-12003571D01*
X12048809Y-11984524D01*
X12039286Y-11955952D01*
X12029762Y-11908333D01*
X12029762Y-11870238D01*
X12039286Y-11822619D01*
X12048809Y-11794048D01*
X12058333Y-11775000D01*
X12077381Y-11746428D01*
X12086905Y-11736905D01*
X12267857Y-11965476D02*
X12153571Y-11965476D01*
X12210714Y-11965476D02*
X12210714Y-11765476D01*
X12191667Y-11794048D01*
X12172619Y-11813095D01*
X12153571Y-11822619D01*
X12505952Y-11965476D02*
X12505952Y-11765476D01*
X12591667Y-11965476D02*
X12591667Y-11860714D01*
X12582143Y-11841667D01*
X12563095Y-11832143D01*
X12534524Y-11832143D01*
X12515476Y-11841667D01*
X12505952Y-11851190D01*
X12715476Y-11965476D02*
X12696428Y-11955952D01*
X12686905Y-11946428D01*
X12677381Y-11927381D01*
X12677381Y-11870238D01*
X12686905Y-11851190D01*
X12696428Y-11841667D01*
X12715476Y-11832143D01*
X12744048Y-11832143D01*
X12763095Y-11841667D01*
X12772619Y-11851190D01*
X12782143Y-11870238D01*
X12782143Y-11927381D01*
X12772619Y-11946428D01*
X12763095Y-11955952D01*
X12744048Y-11965476D01*
X12715476Y-11965476D01*
X12896428Y-11965476D02*
X12877381Y-11955952D01*
X12867857Y-11936905D01*
X12867857Y-11765476D01*
X13048809Y-11955952D02*
X13029762Y-11965476D01*
X12991667Y-11965476D01*
X12972619Y-11955952D01*
X12963095Y-11936905D01*
X12963095Y-11860714D01*
X12972619Y-11841667D01*
X12991667Y-11832143D01*
X13029762Y-11832143D01*
X13048809Y-11841667D01*
X13058333Y-11860714D01*
X13058333Y-11879762D01*
X12963095Y-11898809D01*
X13125000Y-12041667D02*
X13134524Y-12032143D01*
X13153571Y-12003571D01*
X13163095Y-11984524D01*
X13172619Y-11955952D01*
X13182143Y-11908333D01*
X13182143Y-11870238D01*
X13172619Y-11822619D01*
X13163095Y-11794048D01*
X13153571Y-11775000D01*
X13134524Y-11746428D01*
X13125000Y-11736905D01*
M02*
