%TF.GenerationSoftware,KiCad,Pcbnew,6.0.8-f2edbf62ab~116~ubuntu20.04.1*%
%TF.CreationDate,2022-11-12T19:18:57-08:00*%
%TF.ProjectId,packaged-amp-panel-f,7061636b-6167-4656-942d-616d702d7061,rev?*%
%TF.SameCoordinates,Original*%
%TF.FileFunction,Legend,Bot*%
%TF.FilePolarity,Positive*%
%FSLAX46Y46*%
G04 Gerber Fmt 4.6, Leading zero omitted, Abs format (unit mm)*
G04 Created by KiCad (PCBNEW 6.0.8-f2edbf62ab~116~ubuntu20.04.1) date 2022-11-12 19:18:57*
%MOMM*%
%LPD*%
G01*
G04 APERTURE LIST*
%ADD10C,0.150000*%
G04 APERTURE END LIST*
D10*
X114669047Y-60952380D02*
X114669047Y-61666666D01*
X114716666Y-61809523D01*
X114811904Y-61904761D01*
X114954761Y-61952380D01*
X115050000Y-61952380D01*
X113716666Y-61952380D02*
X114192857Y-61952380D01*
X114192857Y-60952380D01*
X112811904Y-61857142D02*
X112859523Y-61904761D01*
X113002380Y-61952380D01*
X113097619Y-61952380D01*
X113240476Y-61904761D01*
X113335714Y-61809523D01*
X113383333Y-61714285D01*
X113430952Y-61523809D01*
X113430952Y-61380952D01*
X113383333Y-61190476D01*
X113335714Y-61095238D01*
X113240476Y-61000000D01*
X113097619Y-60952380D01*
X113002380Y-60952380D01*
X112859523Y-61000000D01*
X112811904Y-61047619D01*
X112097619Y-60952380D02*
X112097619Y-61666666D01*
X112145238Y-61809523D01*
X112240476Y-61904761D01*
X112383333Y-61952380D01*
X112478571Y-61952380D01*
X111145238Y-61952380D02*
X111621428Y-61952380D01*
X111621428Y-60952380D01*
X110240476Y-61857142D02*
X110288095Y-61904761D01*
X110430952Y-61952380D01*
X110526190Y-61952380D01*
X110669047Y-61904761D01*
X110764285Y-61809523D01*
X110811904Y-61714285D01*
X110859523Y-61523809D01*
X110859523Y-61380952D01*
X110811904Y-61190476D01*
X110764285Y-61095238D01*
X110669047Y-61000000D01*
X110526190Y-60952380D01*
X110430952Y-60952380D01*
X110288095Y-61000000D01*
X110240476Y-61047619D01*
X109526190Y-60952380D02*
X109526190Y-61666666D01*
X109573809Y-61809523D01*
X109669047Y-61904761D01*
X109811904Y-61952380D01*
X109907142Y-61952380D01*
X108573809Y-61952380D02*
X109050000Y-61952380D01*
X109050000Y-60952380D01*
X107669047Y-61857142D02*
X107716666Y-61904761D01*
X107859523Y-61952380D01*
X107954761Y-61952380D01*
X108097619Y-61904761D01*
X108192857Y-61809523D01*
X108240476Y-61714285D01*
X108288095Y-61523809D01*
X108288095Y-61380952D01*
X108240476Y-61190476D01*
X108192857Y-61095238D01*
X108097619Y-61000000D01*
X107954761Y-60952380D01*
X107859523Y-60952380D01*
X107716666Y-61000000D01*
X107669047Y-61047619D01*
X106954761Y-60952380D02*
X106954761Y-61666666D01*
X107002380Y-61809523D01*
X107097619Y-61904761D01*
X107240476Y-61952380D01*
X107335714Y-61952380D01*
X106002380Y-61952380D02*
X106478571Y-61952380D01*
X106478571Y-60952380D01*
X105097619Y-61857142D02*
X105145238Y-61904761D01*
X105288095Y-61952380D01*
X105383333Y-61952380D01*
X105526190Y-61904761D01*
X105621428Y-61809523D01*
X105669047Y-61714285D01*
X105716666Y-61523809D01*
X105716666Y-61380952D01*
X105669047Y-61190476D01*
X105621428Y-61095238D01*
X105526190Y-61000000D01*
X105383333Y-60952380D01*
X105288095Y-60952380D01*
X105145238Y-61000000D01*
X105097619Y-61047619D01*
M02*
