%TF.GenerationSoftware,KiCad,Pcbnew,6.0.10-86aedd382b~118~ubuntu20.04.1*%
%TF.CreationDate,2023-01-07T18:02:45-08:00*%
%TF.ProjectId,packaged-amp-panel-f,7061636b-6167-4656-942d-616d702d7061,rev?*%
%TF.SameCoordinates,Original*%
%TF.FileFunction,Legend,Top*%
%TF.FilePolarity,Positive*%
%FSLAX46Y46*%
G04 Gerber Fmt 4.6, Leading zero omitted, Abs format (unit mm)*
G04 Created by KiCad (PCBNEW 6.0.10-86aedd382b~118~ubuntu20.04.1) date 2023-01-07 18:02:45*
%MOMM*%
%LPD*%
G01*
G04 APERTURE LIST*
%ADD10C,0.300000*%
G04 APERTURE END LIST*
D10*
X87819285Y-74928571D02*
X87819285Y-73428571D01*
X88390714Y-73428571D01*
X88533571Y-73500000D01*
X88605000Y-73571428D01*
X88676428Y-73714285D01*
X88676428Y-73928571D01*
X88605000Y-74071428D01*
X88533571Y-74142857D01*
X88390714Y-74214285D01*
X87819285Y-74214285D01*
X89533571Y-74928571D02*
X89390714Y-74857142D01*
X89319285Y-74785714D01*
X89247857Y-74642857D01*
X89247857Y-74214285D01*
X89319285Y-74071428D01*
X89390714Y-74000000D01*
X89533571Y-73928571D01*
X89747857Y-73928571D01*
X89890714Y-74000000D01*
X89962142Y-74071428D01*
X90033571Y-74214285D01*
X90033571Y-74642857D01*
X89962142Y-74785714D01*
X89890714Y-74857142D01*
X89747857Y-74928571D01*
X89533571Y-74928571D01*
X90533571Y-73928571D02*
X90819285Y-74928571D01*
X91105000Y-74214285D01*
X91390714Y-74928571D01*
X91676428Y-73928571D01*
X92819285Y-74857142D02*
X92676428Y-74928571D01*
X92390714Y-74928571D01*
X92247857Y-74857142D01*
X92176428Y-74714285D01*
X92176428Y-74142857D01*
X92247857Y-74000000D01*
X92390714Y-73928571D01*
X92676428Y-73928571D01*
X92819285Y-74000000D01*
X92890714Y-74142857D01*
X92890714Y-74285714D01*
X92176428Y-74428571D01*
X93533571Y-74928571D02*
X93533571Y-73928571D01*
X93533571Y-74214285D02*
X93605000Y-74071428D01*
X93676428Y-74000000D01*
X93819285Y-73928571D01*
X93962142Y-73928571D01*
X98335714Y-63128571D02*
X97835714Y-62414285D01*
X97478571Y-63128571D02*
X97478571Y-61628571D01*
X98050000Y-61628571D01*
X98192857Y-61700000D01*
X98264285Y-61771428D01*
X98335714Y-61914285D01*
X98335714Y-62128571D01*
X98264285Y-62271428D01*
X98192857Y-62342857D01*
X98050000Y-62414285D01*
X97478571Y-62414285D01*
X99192857Y-63128571D02*
X99050000Y-63057142D01*
X98978571Y-62985714D01*
X98907142Y-62842857D01*
X98907142Y-62414285D01*
X98978571Y-62271428D01*
X99050000Y-62200000D01*
X99192857Y-62128571D01*
X99407142Y-62128571D01*
X99550000Y-62200000D01*
X99621428Y-62271428D01*
X99692857Y-62414285D01*
X99692857Y-62842857D01*
X99621428Y-62985714D01*
X99550000Y-63057142D01*
X99407142Y-63128571D01*
X99192857Y-63128571D01*
X100978571Y-62128571D02*
X100978571Y-63342857D01*
X100907142Y-63485714D01*
X100835714Y-63557142D01*
X100692857Y-63628571D01*
X100478571Y-63628571D01*
X100335714Y-63557142D01*
X100978571Y-63057142D02*
X100835714Y-63128571D01*
X100550000Y-63128571D01*
X100407142Y-63057142D01*
X100335714Y-62985714D01*
X100264285Y-62842857D01*
X100264285Y-62414285D01*
X100335714Y-62271428D01*
X100407142Y-62200000D01*
X100550000Y-62128571D01*
X100835714Y-62128571D01*
X100978571Y-62200000D01*
X101907142Y-63128571D02*
X101764285Y-63057142D01*
X101692857Y-62985714D01*
X101621428Y-62842857D01*
X101621428Y-62414285D01*
X101692857Y-62271428D01*
X101764285Y-62200000D01*
X101907142Y-62128571D01*
X102121428Y-62128571D01*
X102264285Y-62200000D01*
X102335714Y-62271428D01*
X102407142Y-62414285D01*
X102407142Y-62842857D01*
X102335714Y-62985714D01*
X102264285Y-63057142D01*
X102121428Y-63128571D01*
X101907142Y-63128571D01*
X102907142Y-62128571D02*
X103192857Y-63128571D01*
X103478571Y-62414285D01*
X103764285Y-63128571D01*
X104050000Y-62128571D01*
X104550000Y-63057142D02*
X104692857Y-63128571D01*
X104978571Y-63128571D01*
X105121428Y-63057142D01*
X105192857Y-62914285D01*
X105192857Y-62842857D01*
X105121428Y-62700000D01*
X104978571Y-62628571D01*
X104764285Y-62628571D01*
X104621428Y-62557142D01*
X104550000Y-62414285D01*
X104550000Y-62342857D01*
X104621428Y-62200000D01*
X104764285Y-62128571D01*
X104978571Y-62128571D01*
X105121428Y-62200000D01*
X105835714Y-63128571D02*
X105835714Y-61628571D01*
X105978571Y-62557142D02*
X106407142Y-63128571D01*
X106407142Y-62128571D02*
X105835714Y-62700000D01*
X107050000Y-63128571D02*
X107050000Y-62128571D01*
X107050000Y-61628571D02*
X106978571Y-61700000D01*
X107050000Y-61771428D01*
X107121428Y-61700000D01*
X107050000Y-61628571D01*
X107050000Y-61771428D01*
X109764285Y-62985714D02*
X109692857Y-63057142D01*
X109478571Y-63128571D01*
X109335714Y-63128571D01*
X109121428Y-63057142D01*
X108978571Y-62914285D01*
X108907142Y-62771428D01*
X108835714Y-62485714D01*
X108835714Y-62271428D01*
X108907142Y-61985714D01*
X108978571Y-61842857D01*
X109121428Y-61700000D01*
X109335714Y-61628571D01*
X109478571Y-61628571D01*
X109692857Y-61700000D01*
X109764285Y-61771428D01*
X110621428Y-63128571D02*
X110478571Y-63057142D01*
X110407142Y-62985714D01*
X110335714Y-62842857D01*
X110335714Y-62414285D01*
X110407142Y-62271428D01*
X110478571Y-62200000D01*
X110621428Y-62128571D01*
X110835714Y-62128571D01*
X110978571Y-62200000D01*
X111050000Y-62271428D01*
X111121428Y-62414285D01*
X111121428Y-62842857D01*
X111050000Y-62985714D01*
X110978571Y-63057142D01*
X110835714Y-63128571D01*
X110621428Y-63128571D01*
X111764285Y-63128571D02*
X111764285Y-62128571D01*
X111764285Y-61628571D02*
X111692857Y-61700000D01*
X111764285Y-61771428D01*
X111835714Y-61700000D01*
X111764285Y-61628571D01*
X111764285Y-61771428D01*
X112692857Y-63128571D02*
X112550000Y-63057142D01*
X112478571Y-62914285D01*
X112478571Y-61628571D01*
X114335714Y-62700000D02*
X115050000Y-62700000D01*
X114192857Y-63128571D02*
X114692857Y-61628571D01*
X115192857Y-63128571D01*
X115692857Y-63128571D02*
X115692857Y-62128571D01*
X115692857Y-62271428D02*
X115764285Y-62200000D01*
X115907142Y-62128571D01*
X116121428Y-62128571D01*
X116264285Y-62200000D01*
X116335714Y-62342857D01*
X116335714Y-63128571D01*
X116335714Y-62342857D02*
X116407142Y-62200000D01*
X116550000Y-62128571D01*
X116764285Y-62128571D01*
X116907142Y-62200000D01*
X116978571Y-62342857D01*
X116978571Y-63128571D01*
X117692857Y-62128571D02*
X117692857Y-63628571D01*
X117692857Y-62200000D02*
X117835714Y-62128571D01*
X118121428Y-62128571D01*
X118264285Y-62200000D01*
X118335714Y-62271428D01*
X118407142Y-62414285D01*
X118407142Y-62842857D01*
X118335714Y-62985714D01*
X118264285Y-63057142D01*
X118121428Y-63128571D01*
X117835714Y-63128571D01*
X117692857Y-63057142D01*
X119264285Y-63128571D02*
X119121428Y-63057142D01*
X119050000Y-62914285D01*
X119050000Y-61628571D01*
X119835714Y-63128571D02*
X119835714Y-62128571D01*
X119835714Y-61628571D02*
X119764285Y-61700000D01*
X119835714Y-61771428D01*
X119907142Y-61700000D01*
X119835714Y-61628571D01*
X119835714Y-61771428D01*
X120335714Y-62128571D02*
X120907142Y-62128571D01*
X120550000Y-63128571D02*
X120550000Y-61842857D01*
X120621428Y-61700000D01*
X120764285Y-61628571D01*
X120907142Y-61628571D01*
X121407142Y-63128571D02*
X121407142Y-62128571D01*
X121407142Y-61628571D02*
X121335714Y-61700000D01*
X121407142Y-61771428D01*
X121478571Y-61700000D01*
X121407142Y-61628571D01*
X121407142Y-61771428D01*
X122692857Y-63057142D02*
X122550000Y-63128571D01*
X122264285Y-63128571D01*
X122121428Y-63057142D01*
X122050000Y-62914285D01*
X122050000Y-62342857D01*
X122121428Y-62200000D01*
X122264285Y-62128571D01*
X122550000Y-62128571D01*
X122692857Y-62200000D01*
X122764285Y-62342857D01*
X122764285Y-62485714D01*
X122050000Y-62628571D01*
X123407142Y-63128571D02*
X123407142Y-62128571D01*
X123407142Y-62414285D02*
X123478571Y-62271428D01*
X123550000Y-62200000D01*
X123692857Y-62128571D01*
X123835714Y-62128571D01*
%TO.C,G\u002A\u002A\u002A*%
G36*
X133080811Y-76944313D02*
G01*
X133080797Y-76824432D01*
X133080846Y-76670126D01*
X133081013Y-76535442D01*
X133081326Y-76418839D01*
X133081814Y-76318773D01*
X133082507Y-76233701D01*
X133083432Y-76162079D01*
X133084620Y-76102365D01*
X133086098Y-76053016D01*
X133086620Y-76041266D01*
X133599910Y-76041266D01*
X135239797Y-76041266D01*
X135239797Y-76016500D01*
X135235745Y-75981158D01*
X135224843Y-75932807D01*
X135208975Y-75877722D01*
X135190023Y-75822175D01*
X135169872Y-75772440D01*
X135160861Y-75753523D01*
X135093533Y-75642843D01*
X135012016Y-75547529D01*
X134916926Y-75468194D01*
X134811172Y-75406540D01*
X134729385Y-75371752D01*
X134649300Y-75347698D01*
X134563197Y-75332491D01*
X134477001Y-75324970D01*
X134342112Y-75325392D01*
X134216653Y-75342971D01*
X134096979Y-75378218D01*
X134096797Y-75378286D01*
X134007233Y-75417666D01*
X133929339Y-75465563D01*
X133856375Y-75526542D01*
X133812672Y-75570758D01*
X133734761Y-75669650D01*
X133673294Y-75781848D01*
X133628295Y-75907299D01*
X133605919Y-76006870D01*
X133599910Y-76041266D01*
X133086620Y-76041266D01*
X133087897Y-76012487D01*
X133090043Y-75979237D01*
X133092568Y-75951721D01*
X133095498Y-75928398D01*
X133097850Y-75913485D01*
X133134992Y-75755316D01*
X133190501Y-75605831D01*
X133263579Y-75466543D01*
X133353431Y-75338965D01*
X133459260Y-75224611D01*
X133461484Y-75222516D01*
X133584876Y-75120926D01*
X133719981Y-75036913D01*
X133866634Y-74970537D01*
X134024668Y-74921860D01*
X134193915Y-74890941D01*
X134374208Y-74877841D01*
X134419589Y-74877355D01*
X134573352Y-74882637D01*
X134713026Y-74898862D01*
X134843211Y-74927032D01*
X134968506Y-74968149D01*
X135093509Y-75023214D01*
X135096922Y-75024903D01*
X135198043Y-75079210D01*
X135284082Y-75135175D01*
X135360958Y-75197076D01*
X135433268Y-75267779D01*
X135531753Y-75385796D01*
X135612995Y-75513339D01*
X135677956Y-75652278D01*
X135727598Y-75804482D01*
X135743917Y-75871932D01*
X135747495Y-75889307D01*
X135750614Y-75907672D01*
X135753307Y-75928526D01*
X135755605Y-75953369D01*
X135757538Y-75983701D01*
X135759138Y-76021023D01*
X135760435Y-76066833D01*
X135761461Y-76122632D01*
X135762248Y-76189920D01*
X135762825Y-76270197D01*
X135763225Y-76364962D01*
X135763478Y-76475715D01*
X135763615Y-76603957D01*
X135763668Y-76751187D01*
X135763672Y-76824432D01*
X135763645Y-76980945D01*
X135763544Y-77117787D01*
X135763339Y-77236450D01*
X135762998Y-77338431D01*
X135762493Y-77425224D01*
X135761791Y-77498324D01*
X135760864Y-77559224D01*
X135759680Y-77609420D01*
X135758210Y-77650406D01*
X135756422Y-77683678D01*
X135754287Y-77710728D01*
X135751774Y-77733053D01*
X135748852Y-77752147D01*
X135745492Y-77769504D01*
X135744355Y-77774774D01*
X135699000Y-77936579D01*
X135637025Y-78086529D01*
X135559031Y-78223807D01*
X135465621Y-78347596D01*
X135357399Y-78457079D01*
X135234967Y-78551438D01*
X135122369Y-78618008D01*
X135023720Y-78663447D01*
X134914531Y-78703950D01*
X134805395Y-78735746D01*
X134766366Y-78744714D01*
X134729869Y-78751038D01*
X134680070Y-78757839D01*
X134622178Y-78764607D01*
X134561398Y-78770829D01*
X134502940Y-78775992D01*
X134452009Y-78779584D01*
X134413814Y-78781092D01*
X134399531Y-78780809D01*
X134379474Y-78779342D01*
X134344345Y-78776697D01*
X134300172Y-78773330D01*
X134276714Y-78771528D01*
X134106395Y-78748960D01*
X133945616Y-78708648D01*
X133795338Y-78651309D01*
X133656526Y-78577659D01*
X133530143Y-78488416D01*
X133417151Y-78384297D01*
X133318515Y-78266018D01*
X133235197Y-78134298D01*
X133168161Y-77989852D01*
X133146694Y-77930391D01*
X133135104Y-77895253D01*
X133124959Y-77862739D01*
X133116163Y-77831235D01*
X133108619Y-77799125D01*
X133102232Y-77764796D01*
X133096906Y-77726634D01*
X133093468Y-77692266D01*
X133617842Y-77692266D01*
X133624880Y-77736281D01*
X133642461Y-77803298D01*
X133673477Y-77877952D01*
X133714777Y-77954731D01*
X133763210Y-78028125D01*
X133815624Y-78092622D01*
X133846271Y-78123472D01*
X133936426Y-78193351D01*
X134040436Y-78251299D01*
X134153151Y-78294706D01*
X134217534Y-78311555D01*
X134272682Y-78319817D01*
X134341953Y-78324671D01*
X134418581Y-78326131D01*
X134495801Y-78324216D01*
X134566849Y-78318942D01*
X134623764Y-78310570D01*
X134749562Y-78274852D01*
X134863470Y-78221761D01*
X134965047Y-78151595D01*
X135053854Y-78064650D01*
X135119801Y-77976491D01*
X135144487Y-77934125D01*
X135169502Y-77884093D01*
X135192662Y-77831646D01*
X135211787Y-77782037D01*
X135224695Y-77740515D01*
X135229214Y-77713127D01*
X135228832Y-77709254D01*
X135226754Y-77705892D01*
X135221579Y-77703005D01*
X135211906Y-77700558D01*
X135196337Y-77698514D01*
X135173469Y-77696837D01*
X135141904Y-77695490D01*
X135100241Y-77694438D01*
X135047080Y-77693644D01*
X134981021Y-77693071D01*
X134900662Y-77692684D01*
X134804605Y-77692446D01*
X134691449Y-77692321D01*
X134559794Y-77692273D01*
X134423528Y-77692266D01*
X133617842Y-77692266D01*
X133093468Y-77692266D01*
X133092543Y-77683024D01*
X133089049Y-77632352D01*
X133086326Y-77573003D01*
X133084279Y-77503365D01*
X133082811Y-77421821D01*
X133081827Y-77326758D01*
X133081229Y-77216562D01*
X133081100Y-77163099D01*
X133599381Y-77163099D01*
X135250381Y-77163099D01*
X135250381Y-76581016D01*
X133599381Y-76581016D01*
X133599381Y-77163099D01*
X133081100Y-77163099D01*
X133080923Y-77089619D01*
X133080811Y-76944313D01*
G37*
G36*
X132750783Y-74901260D02*
G01*
X132780135Y-74905747D01*
X132801999Y-74913556D01*
X132817470Y-74927519D01*
X132827645Y-74950470D01*
X132833619Y-74985242D01*
X132836489Y-75034668D01*
X132837350Y-75101581D01*
X132837381Y-75125135D01*
X132837091Y-75196528D01*
X132835053Y-75249734D01*
X132829509Y-75287734D01*
X132818703Y-75313507D01*
X132800877Y-75330034D01*
X132774277Y-75340294D01*
X132737144Y-75347269D01*
X132703770Y-75351814D01*
X132606587Y-75370183D01*
X132526191Y-75398153D01*
X132459896Y-75437023D01*
X132405019Y-75488094D01*
X132393451Y-75502056D01*
X132361354Y-75548788D01*
X132334808Y-75601894D01*
X132313254Y-75663791D01*
X132296135Y-75736899D01*
X132282892Y-75823634D01*
X132272968Y-75926416D01*
X132265805Y-76047662D01*
X132265382Y-76057141D01*
X132261319Y-76146507D01*
X132257595Y-76218098D01*
X132253852Y-76275291D01*
X132249736Y-76321466D01*
X132244889Y-76360001D01*
X132238956Y-76394277D01*
X132231581Y-76427671D01*
X132222670Y-76462581D01*
X132186760Y-76566881D01*
X132138388Y-76658802D01*
X132079110Y-76735863D01*
X132015896Y-76791780D01*
X131958408Y-76832946D01*
X131994209Y-76855072D01*
X132032619Y-76884524D01*
X132075153Y-76926107D01*
X132115826Y-76973357D01*
X132148651Y-77019808D01*
X132152158Y-77025670D01*
X132177311Y-77076924D01*
X132202094Y-77141567D01*
X132223948Y-77211939D01*
X132240314Y-77280375D01*
X132243985Y-77300682D01*
X132247840Y-77332077D01*
X132252150Y-77380296D01*
X132256604Y-77441011D01*
X132260892Y-77509891D01*
X132264703Y-77582610D01*
X132265609Y-77602307D01*
X132271975Y-77717726D01*
X132280216Y-77814817D01*
X132290809Y-77896372D01*
X132304233Y-77965182D01*
X132320966Y-78024040D01*
X132341486Y-78075739D01*
X132349569Y-78092494D01*
X132398493Y-78169545D01*
X132459258Y-78229522D01*
X132532782Y-78273049D01*
X132619982Y-78300752D01*
X132666931Y-78308608D01*
X132720502Y-78315576D01*
X132757301Y-78321274D01*
X132781583Y-78326841D01*
X132797604Y-78333420D01*
X132809621Y-78342151D01*
X132816483Y-78348701D01*
X132824256Y-78358072D01*
X132829832Y-78370451D01*
X132833570Y-78389213D01*
X132835831Y-78417732D01*
X132836974Y-78459382D01*
X132837358Y-78517540D01*
X132837381Y-78544705D01*
X132837275Y-78609384D01*
X132836661Y-78656360D01*
X132835090Y-78689095D01*
X132832115Y-78711053D01*
X132827288Y-78725698D01*
X132820163Y-78736491D01*
X132811403Y-78745788D01*
X132795957Y-78759069D01*
X132778710Y-78766758D01*
X132753695Y-78770225D01*
X132714944Y-78770842D01*
X132702924Y-78770718D01*
X132648671Y-78768307D01*
X132587372Y-78763025D01*
X132535143Y-78756418D01*
X132397454Y-78725907D01*
X132273288Y-78679217D01*
X132162539Y-78616250D01*
X132065106Y-78536910D01*
X131980884Y-78441098D01*
X131909771Y-78328718D01*
X131851664Y-78199671D01*
X131811476Y-78073266D01*
X131797841Y-78018750D01*
X131786971Y-77966731D01*
X131778335Y-77912961D01*
X131771404Y-77853193D01*
X131765646Y-77783181D01*
X131760534Y-77698678D01*
X131757696Y-77642213D01*
X131754015Y-77573636D01*
X131749802Y-77509243D01*
X131745385Y-77453174D01*
X131741094Y-77409569D01*
X131737258Y-77382568D01*
X131736918Y-77380967D01*
X131708695Y-77287179D01*
X131668406Y-77208893D01*
X131613596Y-77142758D01*
X131541813Y-77085418D01*
X131503355Y-77061613D01*
X131455099Y-77032357D01*
X131421719Y-77006592D01*
X131400317Y-76979275D01*
X131387998Y-76945363D01*
X131381864Y-76899812D01*
X131379266Y-76845599D01*
X131379012Y-76780001D01*
X131384211Y-76730869D01*
X131396596Y-76693833D01*
X131417896Y-76664523D01*
X131449842Y-76638568D01*
X131465191Y-76628641D01*
X131538873Y-76580924D01*
X131595985Y-76538446D01*
X131639429Y-76498139D01*
X131672103Y-76456936D01*
X131696908Y-76411767D01*
X131715276Y-76364057D01*
X131731757Y-76299775D01*
X131744714Y-76219407D01*
X131753568Y-76127824D01*
X131757741Y-76029900D01*
X131757988Y-76004224D01*
X131763336Y-75885797D01*
X131778006Y-75763248D01*
X131800846Y-75642352D01*
X131830704Y-75528884D01*
X131866427Y-75428619D01*
X131878117Y-75401975D01*
X131943966Y-75282831D01*
X132024118Y-75178717D01*
X132117687Y-75090396D01*
X132223788Y-75018631D01*
X132341536Y-74964187D01*
X132411842Y-74941655D01*
X132468447Y-74928490D01*
X132533647Y-74916996D01*
X132601328Y-74907901D01*
X132665374Y-74901933D01*
X132719673Y-74899822D01*
X132750783Y-74901260D01*
G37*
G36*
X136421907Y-74906891D02*
G01*
X136553431Y-74931698D01*
X136676698Y-74971792D01*
X136789411Y-75026214D01*
X136889275Y-75094004D01*
X136973994Y-75174206D01*
X136989901Y-75192846D01*
X137061754Y-75295606D01*
X137122676Y-75414232D01*
X137171814Y-75545976D01*
X137208315Y-75688094D01*
X137231328Y-75837836D01*
X137239999Y-75992457D01*
X137240037Y-75998932D01*
X137244253Y-76128994D01*
X137256029Y-76240440D01*
X137275630Y-76334525D01*
X137303320Y-76412504D01*
X137339365Y-76475630D01*
X137341222Y-76478188D01*
X137360281Y-76502606D01*
X137380375Y-76523914D01*
X137405217Y-76545087D01*
X137438520Y-76569100D01*
X137483995Y-76598928D01*
X137521254Y-76622477D01*
X137565234Y-76653896D01*
X137594508Y-76686192D01*
X137611747Y-76724672D01*
X137619620Y-76774645D01*
X137620988Y-76820740D01*
X137618058Y-76891952D01*
X137607654Y-76947067D01*
X137587184Y-76990585D01*
X137554054Y-77027007D01*
X137505671Y-77060831D01*
X137471627Y-77079954D01*
X137399266Y-77129275D01*
X137341752Y-77192865D01*
X137309121Y-77247208D01*
X137290566Y-77287404D01*
X137275882Y-77328667D01*
X137264444Y-77374545D01*
X137255630Y-77428586D01*
X137248816Y-77494338D01*
X137243378Y-77575348D01*
X137240221Y-77639349D01*
X137232594Y-77770496D01*
X137221779Y-77884261D01*
X137207018Y-77984287D01*
X137187556Y-78074217D01*
X137162634Y-78157697D01*
X137131496Y-78238369D01*
X137102837Y-78300807D01*
X137035656Y-78416722D01*
X136955158Y-78516213D01*
X136861320Y-78599293D01*
X136754121Y-78665976D01*
X136633536Y-78716277D01*
X136499544Y-78750209D01*
X136352120Y-78767787D01*
X136338898Y-78768531D01*
X136286171Y-78771093D01*
X136250200Y-78771917D01*
X136226604Y-78770387D01*
X136211002Y-78765888D01*
X136199013Y-78757804D01*
X136188086Y-78747350D01*
X136177943Y-78736668D01*
X136170657Y-78725765D01*
X136165757Y-78711158D01*
X136162769Y-78689370D01*
X136161219Y-78656920D01*
X136160637Y-78610329D01*
X136160547Y-78546117D01*
X136160547Y-78544705D01*
X136161018Y-78472686D01*
X136163089Y-78418955D01*
X136167747Y-78380644D01*
X136175981Y-78354883D01*
X136188778Y-78338803D01*
X136207126Y-78329535D01*
X136232012Y-78324210D01*
X136236686Y-78323529D01*
X136305985Y-78313406D01*
X136358507Y-78304636D01*
X136398515Y-78296268D01*
X136430273Y-78287352D01*
X136458044Y-78276936D01*
X136470774Y-78271326D01*
X136546454Y-78225844D01*
X136606841Y-78165822D01*
X136647049Y-78101231D01*
X136664686Y-78062350D01*
X136679625Y-78022641D01*
X136692244Y-77979644D01*
X136702919Y-77930900D01*
X136712026Y-77873952D01*
X136719943Y-77806341D01*
X136727046Y-77725607D01*
X136733711Y-77629293D01*
X136740316Y-77514940D01*
X136742141Y-77480599D01*
X136747762Y-77390492D01*
X136754386Y-77318324D01*
X136762391Y-77260877D01*
X136772155Y-77214935D01*
X136774269Y-77207140D01*
X136812587Y-77099669D01*
X136862546Y-77006607D01*
X136923041Y-76929698D01*
X136982271Y-76878080D01*
X137039997Y-76836743D01*
X136992803Y-76804273D01*
X136930857Y-76752095D01*
X136877396Y-76685660D01*
X136829828Y-76601716D01*
X136827506Y-76596891D01*
X136802730Y-76541398D01*
X136783517Y-76488569D01*
X136768937Y-76433911D01*
X136758058Y-76372928D01*
X136749949Y-76301128D01*
X136743679Y-76214016D01*
X136742014Y-76184141D01*
X136735309Y-76065057D01*
X136728641Y-75964654D01*
X136721624Y-75880451D01*
X136713875Y-75809965D01*
X136705010Y-75750716D01*
X136694646Y-75700222D01*
X136682398Y-75656002D01*
X136667884Y-75615573D01*
X136650719Y-75576455D01*
X136646763Y-75568218D01*
X136608095Y-75504048D01*
X136559477Y-75452208D01*
X136498714Y-75411439D01*
X136423613Y-75380480D01*
X136331981Y-75358071D01*
X136262406Y-75347481D01*
X136212731Y-75334278D01*
X136185677Y-75315940D01*
X136176289Y-75305699D01*
X136169587Y-75294394D01*
X136165120Y-75278510D01*
X136162434Y-75254532D01*
X136161079Y-75218943D01*
X136160601Y-75168228D01*
X136160547Y-75120516D01*
X136160661Y-75056839D01*
X136161312Y-75010802D01*
X136162969Y-74978878D01*
X136166098Y-74957542D01*
X136171164Y-74943267D01*
X136178637Y-74932526D01*
X136186524Y-74924243D01*
X136203682Y-74909977D01*
X136223532Y-74902099D01*
X136252799Y-74898828D01*
X136284420Y-74898328D01*
X136421907Y-74906891D01*
G37*
G36*
X133973363Y-74130017D02*
G01*
X134044837Y-74160876D01*
X134103147Y-74206373D01*
X134146902Y-74263556D01*
X134174708Y-74329473D01*
X134185173Y-74401173D01*
X134176904Y-74475704D01*
X134160145Y-74525856D01*
X134123285Y-74586659D01*
X134072164Y-74635867D01*
X134010790Y-74671688D01*
X133943174Y-74692327D01*
X133873324Y-74695993D01*
X133809801Y-74682571D01*
X133736960Y-74646661D01*
X133679618Y-74597431D01*
X133638955Y-74536656D01*
X133616150Y-74466111D01*
X133612384Y-74387571D01*
X133612523Y-74385777D01*
X133626938Y-74311594D01*
X133658384Y-74248441D01*
X133705616Y-74195369D01*
X133770388Y-74149348D01*
X133839751Y-74123790D01*
X133912839Y-74118908D01*
X133973363Y-74130017D01*
G37*
G36*
X135011637Y-74123223D02*
G01*
X135080977Y-74142288D01*
X135144840Y-74178925D01*
X135191224Y-74222693D01*
X135232354Y-74285950D01*
X135254683Y-74355262D01*
X135258314Y-74427169D01*
X135243353Y-74498212D01*
X135209906Y-74564932D01*
X135179657Y-74602902D01*
X135119392Y-74652844D01*
X135051073Y-74683948D01*
X134977413Y-74695600D01*
X134901128Y-74687183D01*
X134861918Y-74674902D01*
X134803180Y-74641716D01*
X134752206Y-74592700D01*
X134712309Y-74532717D01*
X134686800Y-74466628D01*
X134678881Y-74406140D01*
X134686954Y-74347616D01*
X134708739Y-74286597D01*
X134740583Y-74232695D01*
X134748621Y-74222693D01*
X134805313Y-74171466D01*
X134870350Y-74137812D01*
X134940277Y-74121731D01*
X135011637Y-74123223D01*
G37*
%TD*%
M02*
