%TF.GenerationSoftware,KiCad,Pcbnew,6.0.10-86aedd382b~118~ubuntu20.04.1*%
%TF.CreationDate,2023-01-07T18:04:30-08:00*%
%TF.ProjectId,packaged-amp-panel-b,7061636b-6167-4656-942d-616d702d7061,rev?*%
%TF.SameCoordinates,Original*%
%TF.FileFunction,Legend,Bot*%
%TF.FilePolarity,Positive*%
%FSLAX46Y46*%
G04 Gerber Fmt 4.6, Leading zero omitted, Abs format (unit mm)*
G04 Created by KiCad (PCBNEW 6.0.10-86aedd382b~118~ubuntu20.04.1) date 2023-01-07 18:04:30*
%MOMM*%
%LPD*%
G01*
G04 APERTURE LIST*
%ADD10C,0.150000*%
G04 APERTURE END LIST*
D10*
X133119047Y-61152380D02*
X133119047Y-61866666D01*
X133166666Y-62009523D01*
X133261904Y-62104761D01*
X133404761Y-62152380D01*
X133500000Y-62152380D01*
X132166666Y-62152380D02*
X132642857Y-62152380D01*
X132642857Y-61152380D01*
X131261904Y-62057142D02*
X131309523Y-62104761D01*
X131452380Y-62152380D01*
X131547619Y-62152380D01*
X131690476Y-62104761D01*
X131785714Y-62009523D01*
X131833333Y-61914285D01*
X131880952Y-61723809D01*
X131880952Y-61580952D01*
X131833333Y-61390476D01*
X131785714Y-61295238D01*
X131690476Y-61200000D01*
X131547619Y-61152380D01*
X131452380Y-61152380D01*
X131309523Y-61200000D01*
X131261904Y-61247619D01*
X130547619Y-61152380D02*
X130547619Y-61866666D01*
X130595238Y-62009523D01*
X130690476Y-62104761D01*
X130833333Y-62152380D01*
X130928571Y-62152380D01*
X129595238Y-62152380D02*
X130071428Y-62152380D01*
X130071428Y-61152380D01*
X128690476Y-62057142D02*
X128738095Y-62104761D01*
X128880952Y-62152380D01*
X128976190Y-62152380D01*
X129119047Y-62104761D01*
X129214285Y-62009523D01*
X129261904Y-61914285D01*
X129309523Y-61723809D01*
X129309523Y-61580952D01*
X129261904Y-61390476D01*
X129214285Y-61295238D01*
X129119047Y-61200000D01*
X128976190Y-61152380D01*
X128880952Y-61152380D01*
X128738095Y-61200000D01*
X128690476Y-61247619D01*
X127976190Y-61152380D02*
X127976190Y-61866666D01*
X128023809Y-62009523D01*
X128119047Y-62104761D01*
X128261904Y-62152380D01*
X128357142Y-62152380D01*
X127023809Y-62152380D02*
X127500000Y-62152380D01*
X127500000Y-61152380D01*
X126119047Y-62057142D02*
X126166666Y-62104761D01*
X126309523Y-62152380D01*
X126404761Y-62152380D01*
X126547619Y-62104761D01*
X126642857Y-62009523D01*
X126690476Y-61914285D01*
X126738095Y-61723809D01*
X126738095Y-61580952D01*
X126690476Y-61390476D01*
X126642857Y-61295238D01*
X126547619Y-61200000D01*
X126404761Y-61152380D01*
X126309523Y-61152380D01*
X126166666Y-61200000D01*
X126119047Y-61247619D01*
X125404761Y-61152380D02*
X125404761Y-61866666D01*
X125452380Y-62009523D01*
X125547619Y-62104761D01*
X125690476Y-62152380D01*
X125785714Y-62152380D01*
X124452380Y-62152380D02*
X124928571Y-62152380D01*
X124928571Y-61152380D01*
X123547619Y-62057142D02*
X123595238Y-62104761D01*
X123738095Y-62152380D01*
X123833333Y-62152380D01*
X123976190Y-62104761D01*
X124071428Y-62009523D01*
X124119047Y-61914285D01*
X124166666Y-61723809D01*
X124166666Y-61580952D01*
X124119047Y-61390476D01*
X124071428Y-61295238D01*
X123976190Y-61200000D01*
X123833333Y-61152380D01*
X123738095Y-61152380D01*
X123595238Y-61200000D01*
X123547619Y-61247619D01*
M02*
