%TF.GenerationSoftware,KiCad,Pcbnew,6.0.11-2627ca5db0~126~ubuntu20.04.1*%
%TF.CreationDate,2023-06-15T17:53:27-07:00*%
%TF.ProjectId,packaged-amp,7061636b-6167-4656-942d-616d702e6b69,rev?*%
%TF.SameCoordinates,Original*%
%TF.FileFunction,Paste,Top*%
%TF.FilePolarity,Positive*%
%FSLAX46Y46*%
G04 Gerber Fmt 4.6, Leading zero omitted, Abs format (unit mm)*
G04 Created by KiCad (PCBNEW 6.0.11-2627ca5db0~126~ubuntu20.04.1) date 2023-06-15 17:53:27*
%MOMM*%
%LPD*%
G01*
G04 APERTURE LIST*
G04 Aperture macros list*
%AMRoundRect*
0 Rectangle with rounded corners*
0 $1 Rounding radius*
0 $2 $3 $4 $5 $6 $7 $8 $9 X,Y pos of 4 corners*
0 Add a 4 corners polygon primitive as box body*
4,1,4,$2,$3,$4,$5,$6,$7,$8,$9,$2,$3,0*
0 Add four circle primitives for the rounded corners*
1,1,$1+$1,$2,$3*
1,1,$1+$1,$4,$5*
1,1,$1+$1,$6,$7*
1,1,$1+$1,$8,$9*
0 Add four rect primitives between the rounded corners*
20,1,$1+$1,$2,$3,$4,$5,0*
20,1,$1+$1,$4,$5,$6,$7,0*
20,1,$1+$1,$6,$7,$8,$9,0*
20,1,$1+$1,$8,$9,$2,$3,0*%
%AMFreePoly0*
4,1,9,3.862500,-0.866500,0.737500,-0.866500,0.737500,-0.450000,-0.737500,-0.450000,-0.737500,0.450000,0.737500,0.450000,0.737500,0.866500,3.862500,0.866500,3.862500,-0.866500,3.862500,-0.866500,$1*%
G04 Aperture macros list end*
%ADD10RoundRect,0.200000X0.275000X-0.200000X0.275000X0.200000X-0.275000X0.200000X-0.275000X-0.200000X0*%
%ADD11R,1.300000X0.800000*%
%ADD12RoundRect,0.250000X-0.650000X0.325000X-0.650000X-0.325000X0.650000X-0.325000X0.650000X0.325000X0*%
%ADD13RoundRect,0.225000X-0.250000X0.225000X-0.250000X-0.225000X0.250000X-0.225000X0.250000X0.225000X0*%
%ADD14RoundRect,0.218750X-0.381250X0.218750X-0.381250X-0.218750X0.381250X-0.218750X0.381250X0.218750X0*%
%ADD15RoundRect,0.150000X0.150000X-0.825000X0.150000X0.825000X-0.150000X0.825000X-0.150000X-0.825000X0*%
%ADD16RoundRect,0.200000X-0.200000X-0.275000X0.200000X-0.275000X0.200000X0.275000X-0.200000X0.275000X0*%
%ADD17RoundRect,0.200000X-0.275000X0.200000X-0.275000X-0.200000X0.275000X-0.200000X0.275000X0.200000X0*%
%ADD18R,0.500000X0.500000*%
%ADD19RoundRect,0.250000X0.375000X1.075000X-0.375000X1.075000X-0.375000X-1.075000X0.375000X-1.075000X0*%
%ADD20R,0.800000X1.300000*%
%ADD21RoundRect,0.250000X0.650000X-0.325000X0.650000X0.325000X-0.650000X0.325000X-0.650000X-0.325000X0*%
%ADD22RoundRect,0.250000X0.325000X0.650000X-0.325000X0.650000X-0.325000X-0.650000X0.325000X-0.650000X0*%
%ADD23RoundRect,0.250000X-0.375000X-1.075000X0.375000X-1.075000X0.375000X1.075000X-0.375000X1.075000X0*%
%ADD24RoundRect,0.225000X-0.225000X-0.250000X0.225000X-0.250000X0.225000X0.250000X-0.225000X0.250000X0*%
%ADD25R,1.300000X1.300000*%
%ADD26R,1.300000X2.000000*%
%ADD27R,1.000000X1.050000*%
%ADD28R,1.050000X2.200000*%
%ADD29RoundRect,0.250000X0.312500X0.625000X-0.312500X0.625000X-0.312500X-0.625000X0.312500X-0.625000X0*%
%ADD30R,1.400000X0.700000*%
%ADD31R,1.000000X1.700000*%
%ADD32R,1.500000X4.200000*%
%ADD33R,1.300000X0.900000*%
%ADD34FreePoly0,0.000000*%
%ADD35RoundRect,0.250000X-0.325000X-0.650000X0.325000X-0.650000X0.325000X0.650000X-0.325000X0.650000X0*%
%ADD36FreePoly0,180.000000*%
%ADD37RoundRect,0.218750X-0.218750X-0.256250X0.218750X-0.256250X0.218750X0.256250X-0.218750X0.256250X0*%
%ADD38R,2.500000X2.300000*%
G04 APERTURE END LIST*
D10*
%TO.C,R5*%
X122250000Y-104325000D03*
X122250000Y-102675000D03*
%TD*%
%TO.C,R4*%
X122250000Y-110825000D03*
X122250000Y-109175000D03*
%TD*%
D11*
%TO.C,J6*%
X116100000Y-82750000D03*
X112900000Y-82750000D03*
X114500000Y-82750000D03*
%TD*%
D12*
%TO.C,C8*%
X87000000Y-94275000D03*
X87000000Y-97225000D03*
%TD*%
D13*
%TO.C,C1*%
X106750000Y-94975000D03*
X106750000Y-96525000D03*
%TD*%
D14*
%TO.C,FB1*%
X92250000Y-113187500D03*
X92250000Y-115312500D03*
%TD*%
D15*
%TO.C,U1*%
X108345000Y-99975000D03*
X109615000Y-99975000D03*
X110885000Y-99975000D03*
X112155000Y-99975000D03*
X112155000Y-95025000D03*
X110885000Y-95025000D03*
X109615000Y-95025000D03*
X108345000Y-95025000D03*
%TD*%
D13*
%TO.C,C5*%
X116250000Y-109225000D03*
X116250000Y-110775000D03*
%TD*%
D16*
%TO.C,R1*%
X112925000Y-109750000D03*
X114575000Y-109750000D03*
%TD*%
D17*
%TO.C,R14*%
X112750000Y-90925000D03*
X112750000Y-92575000D03*
%TD*%
D18*
%TO.C,D1*%
X119850000Y-106000000D03*
X117650000Y-106000000D03*
%TD*%
D19*
%TO.C,L2*%
X89900000Y-91500000D03*
X87100000Y-91500000D03*
%TD*%
D20*
%TO.C,J4*%
X104500000Y-99350000D03*
X104500000Y-96150000D03*
X104500000Y-97750000D03*
%TD*%
D12*
%TO.C,C6*%
X90000000Y-94275000D03*
X90000000Y-97225000D03*
%TD*%
D21*
%TO.C,C17*%
X108750000Y-92475000D03*
X108750000Y-89525000D03*
%TD*%
D22*
%TO.C,C24*%
X95475000Y-125500000D03*
X92525000Y-125500000D03*
%TD*%
D16*
%TO.C,R3*%
X119175000Y-107750000D03*
X120825000Y-107750000D03*
%TD*%
D17*
%TO.C,R11*%
X120750000Y-94425000D03*
X120750000Y-96075000D03*
%TD*%
D16*
%TO.C,R2*%
X116175000Y-107750000D03*
X117825000Y-107750000D03*
%TD*%
%TO.C,R15*%
X117675000Y-93000000D03*
X119325000Y-93000000D03*
%TD*%
D20*
%TO.C,J5*%
X124500000Y-96150000D03*
X124500000Y-99350000D03*
X124500000Y-97750000D03*
%TD*%
D13*
%TO.C,C14*%
X116250000Y-102725000D03*
X116250000Y-104275000D03*
%TD*%
D21*
%TO.C,C12*%
X87000000Y-111475000D03*
X87000000Y-108525000D03*
%TD*%
D22*
%TO.C,C23*%
X89225000Y-125500000D03*
X86275000Y-125500000D03*
%TD*%
D10*
%TO.C,R12*%
X111000000Y-92575000D03*
X111000000Y-90925000D03*
%TD*%
D22*
%TO.C,C20*%
X89225000Y-118000000D03*
X86275000Y-118000000D03*
%TD*%
D10*
%TO.C,R16*%
X114752500Y-92568500D03*
X114752500Y-90918500D03*
%TD*%
D23*
%TO.C,L3*%
X89100000Y-110500000D03*
X91900000Y-110500000D03*
%TD*%
D24*
%TO.C,C22*%
X120725000Y-93000000D03*
X122275000Y-93000000D03*
%TD*%
D16*
%TO.C,R19*%
X83175000Y-130750000D03*
X84825000Y-130750000D03*
%TD*%
D13*
%TO.C,C3*%
X113750000Y-94975000D03*
X113750000Y-96525000D03*
%TD*%
D25*
%TO.C,RV1*%
X112750000Y-105904500D03*
D26*
X107250000Y-104754500D03*
D25*
X112750000Y-103604500D03*
%TD*%
D10*
%TO.C,R6*%
X117750000Y-104325000D03*
X117750000Y-102675000D03*
%TD*%
%TO.C,R17*%
X114752500Y-89318500D03*
X114752500Y-87668500D03*
%TD*%
D11*
%TO.C,J3*%
X116100000Y-112750000D03*
X114500000Y-112750000D03*
X112900000Y-112750000D03*
%TD*%
D27*
%TO.C,J1*%
X113500000Y-116950000D03*
D28*
X114975000Y-118475000D03*
X112025000Y-118475000D03*
%TD*%
D13*
%TO.C,C19*%
X111000000Y-87725000D03*
X111000000Y-89275000D03*
%TD*%
D29*
%TO.C,R18*%
X114712500Y-85750000D03*
X111787500Y-85750000D03*
%TD*%
D12*
%TO.C,C10*%
X87000000Y-99025000D03*
X87000000Y-101975000D03*
%TD*%
D21*
%TO.C,C16*%
X94000000Y-106725000D03*
X94000000Y-103775000D03*
%TD*%
D13*
%TO.C,C7*%
X118000000Y-109225000D03*
X118000000Y-110775000D03*
%TD*%
D17*
%TO.C,R7*%
X119250000Y-102675000D03*
X119250000Y-104325000D03*
%TD*%
%TO.C,R13*%
X112750000Y-87675000D03*
X112750000Y-89325000D03*
%TD*%
D30*
%TO.C,L1*%
X88050000Y-73000000D03*
D31*
X86950000Y-72500000D03*
X85050000Y-72500000D03*
D30*
X83950000Y-73000000D03*
X88050000Y-69000000D03*
D31*
X86950000Y-69500000D03*
X85050000Y-69500000D03*
D30*
X83950000Y-69000000D03*
%TD*%
D32*
%TO.C,GD1*%
X123500000Y-76500000D03*
X128000000Y-76500000D03*
%TD*%
D33*
%TO.C,U4*%
X92600000Y-120250000D03*
D34*
X92687500Y-121750000D03*
D33*
X92600000Y-123250000D03*
%TD*%
D13*
%TO.C,C2*%
X113750000Y-98475000D03*
X113750000Y-100025000D03*
%TD*%
D21*
%TO.C,C13*%
X87000000Y-106725000D03*
X87000000Y-103775000D03*
%TD*%
D10*
%TO.C,R8*%
X120750000Y-104325000D03*
X120750000Y-102675000D03*
%TD*%
D23*
%TO.C,L4*%
X89100000Y-104750000D03*
X91900000Y-104750000D03*
%TD*%
D35*
%TO.C,C21*%
X92525000Y-118000000D03*
X95475000Y-118000000D03*
%TD*%
D13*
%TO.C,C11*%
X122250000Y-105725000D03*
X122250000Y-107275000D03*
%TD*%
D15*
%TO.C,U2*%
X115345000Y-99975000D03*
X116615000Y-99975000D03*
X117885000Y-99975000D03*
X119155000Y-99975000D03*
X119155000Y-95025000D03*
X117885000Y-95025000D03*
X116615000Y-95025000D03*
X115345000Y-95025000D03*
%TD*%
D14*
%TO.C,FB2*%
X96250000Y-103687500D03*
X96250000Y-105812500D03*
%TD*%
D33*
%TO.C,U3*%
X89150000Y-123250000D03*
D36*
X89062500Y-121750000D03*
D33*
X89150000Y-120250000D03*
%TD*%
D10*
%TO.C,R10*%
X106750000Y-92575000D03*
X106750000Y-90925000D03*
%TD*%
D13*
%TO.C,C18*%
X122250000Y-94475000D03*
X122250000Y-96025000D03*
%TD*%
D25*
%TO.C,RV2*%
X116760500Y-88350000D03*
D26*
X122260500Y-89500000D03*
D25*
X116760500Y-90650000D03*
%TD*%
D17*
%TO.C,R9*%
X114750000Y-102675000D03*
X114750000Y-104325000D03*
%TD*%
D18*
%TO.C,D2*%
X116600000Y-106000000D03*
X114400000Y-106000000D03*
%TD*%
D13*
%TO.C,C9*%
X120250000Y-109225000D03*
X120250000Y-110775000D03*
%TD*%
%TO.C,C4*%
X120750000Y-98475000D03*
X120750000Y-100025000D03*
%TD*%
D37*
%TO.C,F1*%
X87212500Y-83750000D03*
X88787500Y-83750000D03*
%TD*%
D21*
%TO.C,C15*%
X94000000Y-111475000D03*
X94000000Y-108525000D03*
%TD*%
D38*
%TO.C,D3*%
X89650000Y-87250000D03*
X85350000Y-87250000D03*
%TD*%
M02*
