%TF.GenerationSoftware,KiCad,Pcbnew,6.0.8-f2edbf62ab~116~ubuntu20.04.1*%
%TF.CreationDate,2022-11-09T00:06:36-08:00*%
%TF.ProjectId,packaged-amp,7061636b-6167-4656-942d-616d702e6b69,rev?*%
%TF.SameCoordinates,Original*%
%TF.FileFunction,Legend,Top*%
%TF.FilePolarity,Positive*%
%FSLAX46Y46*%
G04 Gerber Fmt 4.6, Leading zero omitted, Abs format (unit mm)*
G04 Created by KiCad (PCBNEW 6.0.8-f2edbf62ab~116~ubuntu20.04.1) date 2022-11-09 00:06:36*
%MOMM*%
%LPD*%
G01*
G04 APERTURE LIST*
%ADD10C,0.150000*%
%ADD11C,0.120000*%
G04 APERTURE END LIST*
D10*
X174707142Y-87150000D02*
X174611904Y-87102380D01*
X174469047Y-87102380D01*
X174326190Y-87150000D01*
X174230952Y-87245238D01*
X174183333Y-87340476D01*
X174135714Y-87530952D01*
X174135714Y-87673809D01*
X174183333Y-87864285D01*
X174230952Y-87959523D01*
X174326190Y-88054761D01*
X174469047Y-88102380D01*
X174564285Y-88102380D01*
X174707142Y-88054761D01*
X174754761Y-88007142D01*
X174754761Y-87673809D01*
X174564285Y-87673809D01*
X175183333Y-87435714D02*
X175183333Y-88102380D01*
X175183333Y-87530952D02*
X175230952Y-87483333D01*
X175326190Y-87435714D01*
X175469047Y-87435714D01*
X175564285Y-87483333D01*
X175611904Y-87578571D01*
X175611904Y-88102380D01*
X176516666Y-88102380D02*
X176516666Y-87102380D01*
X176516666Y-88054761D02*
X176421428Y-88102380D01*
X176230952Y-88102380D01*
X176135714Y-88054761D01*
X176088095Y-88007142D01*
X176040476Y-87911904D01*
X176040476Y-87626190D01*
X176088095Y-87530952D01*
X176135714Y-87483333D01*
X176230952Y-87435714D01*
X176421428Y-87435714D01*
X176516666Y-87483333D01*
X155207142Y-157750000D02*
X155111904Y-157702380D01*
X154969047Y-157702380D01*
X154826190Y-157750000D01*
X154730952Y-157845238D01*
X154683333Y-157940476D01*
X154635714Y-158130952D01*
X154635714Y-158273809D01*
X154683333Y-158464285D01*
X154730952Y-158559523D01*
X154826190Y-158654761D01*
X154969047Y-158702380D01*
X155064285Y-158702380D01*
X155207142Y-158654761D01*
X155254761Y-158607142D01*
X155254761Y-158273809D01*
X155064285Y-158273809D01*
X155683333Y-158035714D02*
X155683333Y-158702380D01*
X155683333Y-158130952D02*
X155730952Y-158083333D01*
X155826190Y-158035714D01*
X155969047Y-158035714D01*
X156064285Y-158083333D01*
X156111904Y-158178571D01*
X156111904Y-158702380D01*
X157016666Y-158702380D02*
X157016666Y-157702380D01*
X157016666Y-158654761D02*
X156921428Y-158702380D01*
X156730952Y-158702380D01*
X156635714Y-158654761D01*
X156588095Y-158607142D01*
X156540476Y-158511904D01*
X156540476Y-158226190D01*
X156588095Y-158130952D01*
X156635714Y-158083333D01*
X156730952Y-158035714D01*
X156921428Y-158035714D01*
X157016666Y-158083333D01*
%TO.C,R1*%
X174772380Y-128916666D02*
X174296190Y-129250000D01*
X174772380Y-129488095D02*
X173772380Y-129488095D01*
X173772380Y-129107142D01*
X173820000Y-129011904D01*
X173867619Y-128964285D01*
X173962857Y-128916666D01*
X174105714Y-128916666D01*
X174200952Y-128964285D01*
X174248571Y-129011904D01*
X174296190Y-129107142D01*
X174296190Y-129488095D01*
X174772380Y-127964285D02*
X174772380Y-128535714D01*
X174772380Y-128250000D02*
X173772380Y-128250000D01*
X173915238Y-128345238D01*
X174010476Y-128440476D01*
X174058095Y-128535714D01*
%TO.C,C7*%
X155833333Y-120957142D02*
X155785714Y-121004761D01*
X155642857Y-121052380D01*
X155547619Y-121052380D01*
X155404761Y-121004761D01*
X155309523Y-120909523D01*
X155261904Y-120814285D01*
X155214285Y-120623809D01*
X155214285Y-120480952D01*
X155261904Y-120290476D01*
X155309523Y-120195238D01*
X155404761Y-120100000D01*
X155547619Y-120052380D01*
X155642857Y-120052380D01*
X155785714Y-120100000D01*
X155833333Y-120147619D01*
X156166666Y-120052380D02*
X156833333Y-120052380D01*
X156404761Y-121052380D01*
%TO.C,D6*%
X159952380Y-157038095D02*
X158952380Y-157038095D01*
X158952380Y-156800000D01*
X159000000Y-156657142D01*
X159095238Y-156561904D01*
X159190476Y-156514285D01*
X159380952Y-156466666D01*
X159523809Y-156466666D01*
X159714285Y-156514285D01*
X159809523Y-156561904D01*
X159904761Y-156657142D01*
X159952380Y-156800000D01*
X159952380Y-157038095D01*
X158952380Y-155609523D02*
X158952380Y-155800000D01*
X159000000Y-155895238D01*
X159047619Y-155942857D01*
X159190476Y-156038095D01*
X159380952Y-156085714D01*
X159761904Y-156085714D01*
X159857142Y-156038095D01*
X159904761Y-155990476D01*
X159952380Y-155895238D01*
X159952380Y-155704761D01*
X159904761Y-155609523D01*
X159857142Y-155561904D01*
X159761904Y-155514285D01*
X159523809Y-155514285D01*
X159428571Y-155561904D01*
X159380952Y-155609523D01*
X159333333Y-155704761D01*
X159333333Y-155895238D01*
X159380952Y-155990476D01*
X159428571Y-156038095D01*
X159523809Y-156085714D01*
%TO.C,RV1*%
X180654761Y-116552380D02*
X180321428Y-116076190D01*
X180083333Y-116552380D02*
X180083333Y-115552380D01*
X180464285Y-115552380D01*
X180559523Y-115600000D01*
X180607142Y-115647619D01*
X180654761Y-115742857D01*
X180654761Y-115885714D01*
X180607142Y-115980952D01*
X180559523Y-116028571D01*
X180464285Y-116076190D01*
X180083333Y-116076190D01*
X180940476Y-115552380D02*
X181273809Y-116552380D01*
X181607142Y-115552380D01*
X182464285Y-116552380D02*
X181892857Y-116552380D01*
X182178571Y-116552380D02*
X182178571Y-115552380D01*
X182083333Y-115695238D01*
X181988095Y-115790476D01*
X181892857Y-115838095D01*
%TO.C,R25*%
X156772380Y-153392857D02*
X156296190Y-153726190D01*
X156772380Y-153964285D02*
X155772380Y-153964285D01*
X155772380Y-153583333D01*
X155820000Y-153488095D01*
X155867619Y-153440476D01*
X155962857Y-153392857D01*
X156105714Y-153392857D01*
X156200952Y-153440476D01*
X156248571Y-153488095D01*
X156296190Y-153583333D01*
X156296190Y-153964285D01*
X155867619Y-153011904D02*
X155820000Y-152964285D01*
X155772380Y-152869047D01*
X155772380Y-152630952D01*
X155820000Y-152535714D01*
X155867619Y-152488095D01*
X155962857Y-152440476D01*
X156058095Y-152440476D01*
X156200952Y-152488095D01*
X156772380Y-153059523D01*
X156772380Y-152440476D01*
X155772380Y-151535714D02*
X155772380Y-152011904D01*
X156248571Y-152059523D01*
X156200952Y-152011904D01*
X156153333Y-151916666D01*
X156153333Y-151678571D01*
X156200952Y-151583333D01*
X156248571Y-151535714D01*
X156343809Y-151488095D01*
X156581904Y-151488095D01*
X156677142Y-151535714D01*
X156724761Y-151583333D01*
X156772380Y-151678571D01*
X156772380Y-151916666D01*
X156724761Y-152011904D01*
X156677142Y-152059523D01*
%TO.C,R21*%
X184772380Y-94392857D02*
X184296190Y-94726190D01*
X184772380Y-94964285D02*
X183772380Y-94964285D01*
X183772380Y-94583333D01*
X183820000Y-94488095D01*
X183867619Y-94440476D01*
X183962857Y-94392857D01*
X184105714Y-94392857D01*
X184200952Y-94440476D01*
X184248571Y-94488095D01*
X184296190Y-94583333D01*
X184296190Y-94964285D01*
X183867619Y-94011904D02*
X183820000Y-93964285D01*
X183772380Y-93869047D01*
X183772380Y-93630952D01*
X183820000Y-93535714D01*
X183867619Y-93488095D01*
X183962857Y-93440476D01*
X184058095Y-93440476D01*
X184200952Y-93488095D01*
X184772380Y-94059523D01*
X184772380Y-93440476D01*
X184772380Y-92488095D02*
X184772380Y-93059523D01*
X184772380Y-92773809D02*
X183772380Y-92773809D01*
X183915238Y-92869047D01*
X184010476Y-92964285D01*
X184058095Y-93059523D01*
%TO.C,R20*%
X183132380Y-104142857D02*
X182656190Y-104476190D01*
X183132380Y-104714285D02*
X182132380Y-104714285D01*
X182132380Y-104333333D01*
X182180000Y-104238095D01*
X182227619Y-104190476D01*
X182322857Y-104142857D01*
X182465714Y-104142857D01*
X182560952Y-104190476D01*
X182608571Y-104238095D01*
X182656190Y-104333333D01*
X182656190Y-104714285D01*
X182227619Y-103761904D02*
X182180000Y-103714285D01*
X182132380Y-103619047D01*
X182132380Y-103380952D01*
X182180000Y-103285714D01*
X182227619Y-103238095D01*
X182322857Y-103190476D01*
X182418095Y-103190476D01*
X182560952Y-103238095D01*
X183132380Y-103809523D01*
X183132380Y-103190476D01*
X182132380Y-102571428D02*
X182132380Y-102476190D01*
X182180000Y-102380952D01*
X182227619Y-102333333D01*
X182322857Y-102285714D01*
X182513333Y-102238095D01*
X182751428Y-102238095D01*
X182941904Y-102285714D01*
X183037142Y-102333333D01*
X183084761Y-102380952D01*
X183132380Y-102476190D01*
X183132380Y-102571428D01*
X183084761Y-102666666D01*
X183037142Y-102714285D01*
X182941904Y-102761904D01*
X182751428Y-102809523D01*
X182513333Y-102809523D01*
X182322857Y-102761904D01*
X182227619Y-102714285D01*
X182180000Y-102666666D01*
X182132380Y-102571428D01*
%TO.C,R9*%
X177632380Y-104166666D02*
X177156190Y-104500000D01*
X177632380Y-104738095D02*
X176632380Y-104738095D01*
X176632380Y-104357142D01*
X176680000Y-104261904D01*
X176727619Y-104214285D01*
X176822857Y-104166666D01*
X176965714Y-104166666D01*
X177060952Y-104214285D01*
X177108571Y-104261904D01*
X177156190Y-104357142D01*
X177156190Y-104738095D01*
X177632380Y-103690476D02*
X177632380Y-103500000D01*
X177584761Y-103404761D01*
X177537142Y-103357142D01*
X177394285Y-103261904D01*
X177203809Y-103214285D01*
X176822857Y-103214285D01*
X176727619Y-103261904D01*
X176680000Y-103309523D01*
X176632380Y-103404761D01*
X176632380Y-103595238D01*
X176680000Y-103690476D01*
X176727619Y-103738095D01*
X176822857Y-103785714D01*
X177060952Y-103785714D01*
X177156190Y-103738095D01*
X177203809Y-103690476D01*
X177251428Y-103595238D01*
X177251428Y-103404761D01*
X177203809Y-103309523D01*
X177156190Y-103261904D01*
X177060952Y-103214285D01*
%TO.C,R8*%
X181833333Y-98522380D02*
X181500000Y-98046190D01*
X181261904Y-98522380D02*
X181261904Y-97522380D01*
X181642857Y-97522380D01*
X181738095Y-97570000D01*
X181785714Y-97617619D01*
X181833333Y-97712857D01*
X181833333Y-97855714D01*
X181785714Y-97950952D01*
X181738095Y-97998571D01*
X181642857Y-98046190D01*
X181261904Y-98046190D01*
X182404761Y-97950952D02*
X182309523Y-97903333D01*
X182261904Y-97855714D01*
X182214285Y-97760476D01*
X182214285Y-97712857D01*
X182261904Y-97617619D01*
X182309523Y-97570000D01*
X182404761Y-97522380D01*
X182595238Y-97522380D01*
X182690476Y-97570000D01*
X182738095Y-97617619D01*
X182785714Y-97712857D01*
X182785714Y-97760476D01*
X182738095Y-97855714D01*
X182690476Y-97903333D01*
X182595238Y-97950952D01*
X182404761Y-97950952D01*
X182309523Y-97998571D01*
X182261904Y-98046190D01*
X182214285Y-98141428D01*
X182214285Y-98331904D01*
X182261904Y-98427142D01*
X182309523Y-98474761D01*
X182404761Y-98522380D01*
X182595238Y-98522380D01*
X182690476Y-98474761D01*
X182738095Y-98427142D01*
X182785714Y-98331904D01*
X182785714Y-98141428D01*
X182738095Y-98046190D01*
X182690476Y-97998571D01*
X182595238Y-97950952D01*
%TO.C,R7*%
X173083333Y-103632380D02*
X172750000Y-103156190D01*
X172511904Y-103632380D02*
X172511904Y-102632380D01*
X172892857Y-102632380D01*
X172988095Y-102680000D01*
X173035714Y-102727619D01*
X173083333Y-102822857D01*
X173083333Y-102965714D01*
X173035714Y-103060952D01*
X172988095Y-103108571D01*
X172892857Y-103156190D01*
X172511904Y-103156190D01*
X173416666Y-102632380D02*
X174083333Y-102632380D01*
X173654761Y-103632380D01*
%TO.C,R6*%
X176022380Y-115416666D02*
X175546190Y-115750000D01*
X176022380Y-115988095D02*
X175022380Y-115988095D01*
X175022380Y-115607142D01*
X175070000Y-115511904D01*
X175117619Y-115464285D01*
X175212857Y-115416666D01*
X175355714Y-115416666D01*
X175450952Y-115464285D01*
X175498571Y-115511904D01*
X175546190Y-115607142D01*
X175546190Y-115988095D01*
X175022380Y-114559523D02*
X175022380Y-114750000D01*
X175070000Y-114845238D01*
X175117619Y-114892857D01*
X175260476Y-114988095D01*
X175450952Y-115035714D01*
X175831904Y-115035714D01*
X175927142Y-114988095D01*
X175974761Y-114940476D01*
X176022380Y-114845238D01*
X176022380Y-114654761D01*
X175974761Y-114559523D01*
X175927142Y-114511904D01*
X175831904Y-114464285D01*
X175593809Y-114464285D01*
X175498571Y-114511904D01*
X175450952Y-114559523D01*
X175403333Y-114654761D01*
X175403333Y-114845238D01*
X175450952Y-114940476D01*
X175498571Y-114988095D01*
X175593809Y-115035714D01*
%TO.C,D11*%
X159285714Y-109452380D02*
X159285714Y-108452380D01*
X159523809Y-108452380D01*
X159666666Y-108500000D01*
X159761904Y-108595238D01*
X159809523Y-108690476D01*
X159857142Y-108880952D01*
X159857142Y-109023809D01*
X159809523Y-109214285D01*
X159761904Y-109309523D01*
X159666666Y-109404761D01*
X159523809Y-109452380D01*
X159285714Y-109452380D01*
X160809523Y-109452380D02*
X160238095Y-109452380D01*
X160523809Y-109452380D02*
X160523809Y-108452380D01*
X160428571Y-108595238D01*
X160333333Y-108690476D01*
X160238095Y-108738095D01*
X161761904Y-109452380D02*
X161190476Y-109452380D01*
X161476190Y-109452380D02*
X161476190Y-108452380D01*
X161380952Y-108595238D01*
X161285714Y-108690476D01*
X161190476Y-108738095D01*
%TO.C,D5*%
X158261904Y-130952380D02*
X158261904Y-129952380D01*
X158500000Y-129952380D01*
X158642857Y-130000000D01*
X158738095Y-130095238D01*
X158785714Y-130190476D01*
X158833333Y-130380952D01*
X158833333Y-130523809D01*
X158785714Y-130714285D01*
X158738095Y-130809523D01*
X158642857Y-130904761D01*
X158500000Y-130952380D01*
X158261904Y-130952380D01*
X159738095Y-129952380D02*
X159261904Y-129952380D01*
X159214285Y-130428571D01*
X159261904Y-130380952D01*
X159357142Y-130333333D01*
X159595238Y-130333333D01*
X159690476Y-130380952D01*
X159738095Y-130428571D01*
X159785714Y-130523809D01*
X159785714Y-130761904D01*
X159738095Y-130857142D01*
X159690476Y-130904761D01*
X159595238Y-130952380D01*
X159357142Y-130952380D01*
X159261904Y-130904761D01*
X159214285Y-130857142D01*
%TO.C,D4*%
X158261904Y-132702380D02*
X158261904Y-131702380D01*
X158500000Y-131702380D01*
X158642857Y-131750000D01*
X158738095Y-131845238D01*
X158785714Y-131940476D01*
X158833333Y-132130952D01*
X158833333Y-132273809D01*
X158785714Y-132464285D01*
X158738095Y-132559523D01*
X158642857Y-132654761D01*
X158500000Y-132702380D01*
X158261904Y-132702380D01*
X159690476Y-132035714D02*
X159690476Y-132702380D01*
X159452380Y-131654761D02*
X159214285Y-132369047D01*
X159833333Y-132369047D01*
%TO.C,D3*%
X158261904Y-130752380D02*
X158261904Y-129752380D01*
X158500000Y-129752380D01*
X158642857Y-129800000D01*
X158738095Y-129895238D01*
X158785714Y-129990476D01*
X158833333Y-130180952D01*
X158833333Y-130323809D01*
X158785714Y-130514285D01*
X158738095Y-130609523D01*
X158642857Y-130704761D01*
X158500000Y-130752380D01*
X158261904Y-130752380D01*
X159166666Y-129752380D02*
X159785714Y-129752380D01*
X159452380Y-130133333D01*
X159595238Y-130133333D01*
X159690476Y-130180952D01*
X159738095Y-130228571D01*
X159785714Y-130323809D01*
X159785714Y-130561904D01*
X159738095Y-130657142D01*
X159690476Y-130704761D01*
X159595238Y-130752380D01*
X159309523Y-130752380D01*
X159214285Y-130704761D01*
X159166666Y-130657142D01*
%TO.C,C17*%
X181357142Y-102787142D02*
X181309523Y-102834761D01*
X181166666Y-102882380D01*
X181071428Y-102882380D01*
X180928571Y-102834761D01*
X180833333Y-102739523D01*
X180785714Y-102644285D01*
X180738095Y-102453809D01*
X180738095Y-102310952D01*
X180785714Y-102120476D01*
X180833333Y-102025238D01*
X180928571Y-101930000D01*
X181071428Y-101882380D01*
X181166666Y-101882380D01*
X181309523Y-101930000D01*
X181357142Y-101977619D01*
X182309523Y-102882380D02*
X181738095Y-102882380D01*
X182023809Y-102882380D02*
X182023809Y-101882380D01*
X181928571Y-102025238D01*
X181833333Y-102120476D01*
X181738095Y-102168095D01*
X182642857Y-101882380D02*
X183309523Y-101882380D01*
X182880952Y-102882380D01*
%TO.C,C16*%
X179287142Y-104642857D02*
X179334761Y-104690476D01*
X179382380Y-104833333D01*
X179382380Y-104928571D01*
X179334761Y-105071428D01*
X179239523Y-105166666D01*
X179144285Y-105214285D01*
X178953809Y-105261904D01*
X178810952Y-105261904D01*
X178620476Y-105214285D01*
X178525238Y-105166666D01*
X178430000Y-105071428D01*
X178382380Y-104928571D01*
X178382380Y-104833333D01*
X178430000Y-104690476D01*
X178477619Y-104642857D01*
X179382380Y-103690476D02*
X179382380Y-104261904D01*
X179382380Y-103976190D02*
X178382380Y-103976190D01*
X178525238Y-104071428D01*
X178620476Y-104166666D01*
X178668095Y-104261904D01*
X178382380Y-102833333D02*
X178382380Y-103023809D01*
X178430000Y-103119047D01*
X178477619Y-103166666D01*
X178620476Y-103261904D01*
X178810952Y-103309523D01*
X179191904Y-103309523D01*
X179287142Y-103261904D01*
X179334761Y-103214285D01*
X179382380Y-103119047D01*
X179382380Y-102928571D01*
X179334761Y-102833333D01*
X179287142Y-102785714D01*
X179191904Y-102738095D01*
X178953809Y-102738095D01*
X178858571Y-102785714D01*
X178810952Y-102833333D01*
X178763333Y-102928571D01*
X178763333Y-103119047D01*
X178810952Y-103214285D01*
X178858571Y-103261904D01*
X178953809Y-103309523D01*
%TO.C,C15*%
X171857142Y-102507142D02*
X171809523Y-102554761D01*
X171666666Y-102602380D01*
X171571428Y-102602380D01*
X171428571Y-102554761D01*
X171333333Y-102459523D01*
X171285714Y-102364285D01*
X171238095Y-102173809D01*
X171238095Y-102030952D01*
X171285714Y-101840476D01*
X171333333Y-101745238D01*
X171428571Y-101650000D01*
X171571428Y-101602380D01*
X171666666Y-101602380D01*
X171809523Y-101650000D01*
X171857142Y-101697619D01*
X172809523Y-102602380D02*
X172238095Y-102602380D01*
X172523809Y-102602380D02*
X172523809Y-101602380D01*
X172428571Y-101745238D01*
X172333333Y-101840476D01*
X172238095Y-101888095D01*
X173714285Y-101602380D02*
X173238095Y-101602380D01*
X173190476Y-102078571D01*
X173238095Y-102030952D01*
X173333333Y-101983333D01*
X173571428Y-101983333D01*
X173666666Y-102030952D01*
X173714285Y-102078571D01*
X173761904Y-102173809D01*
X173761904Y-102411904D01*
X173714285Y-102507142D01*
X173666666Y-102554761D01*
X173571428Y-102602380D01*
X173333333Y-102602380D01*
X173238095Y-102554761D01*
X173190476Y-102507142D01*
%TO.C,C11*%
X194357142Y-126642857D02*
X194404761Y-126690476D01*
X194452380Y-126833333D01*
X194452380Y-126928571D01*
X194404761Y-127071428D01*
X194309523Y-127166666D01*
X194214285Y-127214285D01*
X194023809Y-127261904D01*
X193880952Y-127261904D01*
X193690476Y-127214285D01*
X193595238Y-127166666D01*
X193500000Y-127071428D01*
X193452380Y-126928571D01*
X193452380Y-126833333D01*
X193500000Y-126690476D01*
X193547619Y-126642857D01*
X194452380Y-125690476D02*
X194452380Y-126261904D01*
X194452380Y-125976190D02*
X193452380Y-125976190D01*
X193595238Y-126071428D01*
X193690476Y-126166666D01*
X193738095Y-126261904D01*
X194452380Y-124738095D02*
X194452380Y-125309523D01*
X194452380Y-125023809D02*
X193452380Y-125023809D01*
X193595238Y-125119047D01*
X193690476Y-125214285D01*
X193738095Y-125309523D01*
%TO.C,C4*%
X180537142Y-115416666D02*
X180584761Y-115464285D01*
X180632380Y-115607142D01*
X180632380Y-115702380D01*
X180584761Y-115845238D01*
X180489523Y-115940476D01*
X180394285Y-115988095D01*
X180203809Y-116035714D01*
X180060952Y-116035714D01*
X179870476Y-115988095D01*
X179775238Y-115940476D01*
X179680000Y-115845238D01*
X179632380Y-115702380D01*
X179632380Y-115607142D01*
X179680000Y-115464285D01*
X179727619Y-115416666D01*
X179965714Y-114559523D02*
X180632380Y-114559523D01*
X179584761Y-114797619D02*
X180299047Y-115035714D01*
X180299047Y-114416666D01*
%TO.C,C3*%
X156333333Y-133007142D02*
X156285714Y-133054761D01*
X156142857Y-133102380D01*
X156047619Y-133102380D01*
X155904761Y-133054761D01*
X155809523Y-132959523D01*
X155761904Y-132864285D01*
X155714285Y-132673809D01*
X155714285Y-132530952D01*
X155761904Y-132340476D01*
X155809523Y-132245238D01*
X155904761Y-132150000D01*
X156047619Y-132102380D01*
X156142857Y-132102380D01*
X156285714Y-132150000D01*
X156333333Y-132197619D01*
X156666666Y-132102380D02*
X157285714Y-132102380D01*
X156952380Y-132483333D01*
X157095238Y-132483333D01*
X157190476Y-132530952D01*
X157238095Y-132578571D01*
X157285714Y-132673809D01*
X157285714Y-132911904D01*
X157238095Y-133007142D01*
X157190476Y-133054761D01*
X157095238Y-133102380D01*
X156809523Y-133102380D01*
X156714285Y-133054761D01*
X156666666Y-133007142D01*
%TO.C,C2*%
X167207142Y-130166666D02*
X167254761Y-130214285D01*
X167302380Y-130357142D01*
X167302380Y-130452380D01*
X167254761Y-130595238D01*
X167159523Y-130690476D01*
X167064285Y-130738095D01*
X166873809Y-130785714D01*
X166730952Y-130785714D01*
X166540476Y-130738095D01*
X166445238Y-130690476D01*
X166350000Y-130595238D01*
X166302380Y-130452380D01*
X166302380Y-130357142D01*
X166350000Y-130214285D01*
X166397619Y-130166666D01*
X166397619Y-129785714D02*
X166350000Y-129738095D01*
X166302380Y-129642857D01*
X166302380Y-129404761D01*
X166350000Y-129309523D01*
X166397619Y-129261904D01*
X166492857Y-129214285D01*
X166588095Y-129214285D01*
X166730952Y-129261904D01*
X167302380Y-129833333D01*
X167302380Y-129214285D01*
D11*
%TO.C,R1*%
X176272500Y-128987258D02*
X176272500Y-128512742D01*
X175227500Y-128987258D02*
X175227500Y-128512742D01*
%TO.C,C7*%
X156711252Y-117840000D02*
X155288748Y-117840000D01*
X156711252Y-119660000D02*
X155288748Y-119660000D01*
D10*
%TO.C,D6*%
X160200000Y-158900000D02*
X164800000Y-158900000D01*
X164800000Y-158900000D02*
X164800000Y-152500000D01*
X160200000Y-152500000D02*
X160200000Y-158900000D01*
X164800000Y-152500000D02*
X160200000Y-152500000D01*
D11*
%TO.C,RV1*%
X178880000Y-123120000D02*
X180010000Y-123120000D01*
X178880000Y-118380000D02*
X179211000Y-118380000D01*
X183620000Y-118380000D02*
X183620000Y-123120000D01*
X180991000Y-118380000D02*
X181510000Y-118380000D01*
X183290000Y-118380000D02*
X183620000Y-118380000D01*
X178880000Y-118380000D02*
X178880000Y-123120000D01*
X182490000Y-123120000D02*
X183620000Y-123120000D01*
%TO.C,R25*%
X158272500Y-152987258D02*
X158272500Y-152512742D01*
X157227500Y-152987258D02*
X157227500Y-152512742D01*
%TO.C,R21*%
X181590000Y-93022936D02*
X181590000Y-94477064D01*
X183410000Y-93022936D02*
X183410000Y-94477064D01*
%TO.C,R20*%
X180727500Y-103262742D02*
X180727500Y-103737258D01*
X181772500Y-103262742D02*
X181772500Y-103737258D01*
%TO.C,R9*%
X175227500Y-103762742D02*
X175227500Y-104237258D01*
X176272500Y-103762742D02*
X176272500Y-104237258D01*
%TO.C,R8*%
X181762742Y-100022500D02*
X182237258Y-100022500D01*
X181762742Y-98977500D02*
X182237258Y-98977500D01*
%TO.C,R7*%
X173487258Y-101227500D02*
X173012742Y-101227500D01*
X173487258Y-102272500D02*
X173012742Y-102272500D01*
%TO.C,R6*%
X177522500Y-115487258D02*
X177522500Y-115012742D01*
X176477500Y-115487258D02*
X176477500Y-115012742D01*
%TO.C,D11*%
X156950000Y-109850000D02*
X162650000Y-109850000D01*
X156950000Y-109850000D02*
X156950000Y-114150000D01*
X156950000Y-114150000D02*
X162650000Y-114150000D01*
%TO.C,D5*%
X157500000Y-131500000D02*
X157500000Y-133200000D01*
X157500000Y-133200000D02*
X160050000Y-133200000D01*
X157500000Y-131500000D02*
X160050000Y-131500000D01*
%TO.C,D4*%
X160500000Y-131250000D02*
X160500000Y-129550000D01*
X160500000Y-129550000D02*
X157950000Y-129550000D01*
X160500000Y-131250000D02*
X157950000Y-131250000D01*
%TO.C,D3*%
X160500000Y-129300000D02*
X160500000Y-127600000D01*
X160500000Y-127600000D02*
X157950000Y-127600000D01*
X160500000Y-129300000D02*
X157950000Y-129300000D01*
%TO.C,C17*%
X182140580Y-101510000D02*
X181859420Y-101510000D01*
X182140580Y-100490000D02*
X181859420Y-100490000D01*
%TO.C,C16*%
X176990000Y-103859420D02*
X176990000Y-104140580D01*
X178010000Y-103859420D02*
X178010000Y-104140580D01*
%TO.C,C15*%
X171788748Y-103090000D02*
X173211252Y-103090000D01*
X171788748Y-104910000D02*
X173211252Y-104910000D01*
%TO.C,C11*%
X187163567Y-123750000D02*
X187500000Y-123750000D01*
X190836433Y-123750000D02*
X190500000Y-123750000D01*
X187163567Y-123750000D02*
G75*
G03*
X187163567Y-128750000I1836434J-2500000D01*
G01*
X190836433Y-128750000D02*
G75*
G03*
X190836433Y-123750000I-1836434J2500000D01*
G01*
%TO.C,C4*%
X178240000Y-115109420D02*
X178240000Y-115390580D01*
X179260000Y-115109420D02*
X179260000Y-115390580D01*
%TO.C,C3*%
X155788748Y-133590000D02*
X157211252Y-133590000D01*
X155788748Y-135410000D02*
X157211252Y-135410000D01*
%TO.C,C2*%
X165910000Y-129288748D02*
X165910000Y-130711252D01*
X164090000Y-129288748D02*
X164090000Y-130711252D01*
D10*
%TO.C,L2*%
X157750000Y-100250000D02*
X157750000Y-105250000D01*
X162750000Y-100250000D02*
X162750000Y-105250000D01*
X161750000Y-100250000D02*
X158750000Y-100250000D01*
D11*
X163000000Y-100750000D02*
X163000000Y-104750000D01*
D10*
X161750000Y-105250000D02*
X158750000Y-105250000D01*
D11*
%TO.C,C5*%
X170760000Y-107609420D02*
X170760000Y-107890580D01*
X169740000Y-107609420D02*
X169740000Y-107890580D01*
%TO.C,FB3*%
X165350378Y-127310000D02*
X166149622Y-127310000D01*
X165350378Y-126190000D02*
X166149622Y-126190000D01*
%TO.C,U1*%
X171190000Y-109500000D02*
X171190000Y-112950000D01*
X176310000Y-109500000D02*
X176310000Y-111450000D01*
X176310000Y-109500000D02*
X176310000Y-107550000D01*
X171190000Y-109500000D02*
X171190000Y-107550000D01*
%TO.C,C9*%
X182240000Y-127140580D02*
X182240000Y-126859420D01*
X183260000Y-127140580D02*
X183260000Y-126859420D01*
%TO.C,D1*%
X193000000Y-120850000D02*
X193000000Y-119150000D01*
X193000000Y-120850000D02*
X190450000Y-120850000D01*
X193000000Y-119150000D02*
X190450000Y-119150000D01*
%TO.C,C31*%
X156961252Y-146590000D02*
X155538748Y-146590000D01*
X156961252Y-148410000D02*
X155538748Y-148410000D01*
%TO.C,C23*%
X156660000Y-130711252D02*
X156660000Y-129288748D01*
X154840000Y-130711252D02*
X154840000Y-129288748D01*
%TO.C,TP11*%
X182800000Y-136200000D02*
X182800000Y-131800000D01*
X182800000Y-131800000D02*
X187200000Y-131800000D01*
X187200000Y-131800000D02*
X187200000Y-136200000D01*
X187200000Y-136200000D02*
X182800000Y-136200000D01*
%TO.C,R10*%
X188772500Y-103262742D02*
X188772500Y-103737258D01*
X187727500Y-103262742D02*
X187727500Y-103737258D01*
%TO.C,R16*%
X166522500Y-120512742D02*
X166522500Y-120987258D01*
X165477500Y-120512742D02*
X165477500Y-120987258D01*
%TO.C,C14*%
X183140580Y-115010000D02*
X182859420Y-115010000D01*
X183140580Y-113990000D02*
X182859420Y-113990000D01*
%TO.C,FB4*%
X159149622Y-137310000D02*
X158350378Y-137310000D01*
X159149622Y-136190000D02*
X158350378Y-136190000D01*
D10*
%TO.C,L1*%
X159850000Y-124250000D02*
X159850000Y-125250000D01*
X155650000Y-124250000D02*
X155650000Y-125250000D01*
D11*
%TO.C,C30*%
X165711252Y-146590000D02*
X164288748Y-146590000D01*
X165711252Y-148410000D02*
X164288748Y-148410000D01*
%TO.C,F1*%
X160602064Y-107090000D02*
X159397936Y-107090000D01*
X160602064Y-108910000D02*
X159397936Y-108910000D01*
%TO.C,C28*%
X165711252Y-138590000D02*
X164288748Y-138590000D01*
X165711252Y-140410000D02*
X164288748Y-140410000D01*
%TO.C,R15*%
X165022500Y-120987258D02*
X165022500Y-120512742D01*
X163977500Y-120987258D02*
X163977500Y-120512742D01*
%TO.C,C12*%
X181010000Y-107609420D02*
X181010000Y-107890580D01*
X179990000Y-107609420D02*
X179990000Y-107890580D01*
%TO.C,C20*%
X160038748Y-121660000D02*
X161461252Y-121660000D01*
X160038748Y-119840000D02*
X161461252Y-119840000D01*
%TO.C,R12*%
X183522500Y-103262742D02*
X183522500Y-103737258D01*
X182477500Y-103262742D02*
X182477500Y-103737258D01*
%TO.C,R5*%
X182762742Y-115727500D02*
X183237258Y-115727500D01*
X182762742Y-116772500D02*
X183237258Y-116772500D01*
%TO.C,TP12*%
X187200000Y-138300000D02*
X187200000Y-142700000D01*
X187200000Y-142700000D02*
X182800000Y-142700000D01*
X182800000Y-142700000D02*
X182800000Y-138300000D01*
X182800000Y-138300000D02*
X187200000Y-138300000D01*
%TO.C,J8*%
X156090000Y-88817500D02*
X156090000Y-80457500D01*
X160500000Y-97897500D02*
X161500000Y-97897500D01*
X156090000Y-97177500D02*
X168410000Y-97177500D01*
X168410000Y-80457500D02*
X168410000Y-88817500D01*
X156090000Y-92917500D02*
X156090000Y-97177500D01*
X161000000Y-97397500D02*
X160500000Y-97897500D01*
X161500000Y-97897500D02*
X161000000Y-97397500D01*
X168410000Y-97177500D02*
X168410000Y-92917500D01*
X156090000Y-80457500D02*
X168410000Y-80457500D01*
%TO.C,R19*%
X155735000Y-100022936D02*
X155735000Y-100477064D01*
X154265000Y-100022936D02*
X154265000Y-100477064D01*
%TO.C,C22*%
X165359420Y-122990000D02*
X165640580Y-122990000D01*
X165359420Y-124010000D02*
X165640580Y-124010000D01*
%TO.C,R13*%
X184090000Y-93022936D02*
X184090000Y-94477064D01*
X185910000Y-93022936D02*
X185910000Y-94477064D01*
%TO.C,C25*%
X163410000Y-129288748D02*
X163410000Y-130711252D01*
X161590000Y-129288748D02*
X161590000Y-130711252D01*
%TO.C,C10*%
X180490000Y-127140580D02*
X180490000Y-126859420D01*
X181510000Y-127140580D02*
X181510000Y-126859420D01*
%TO.C,R11*%
X185272500Y-103737258D02*
X185272500Y-103262742D01*
X184227500Y-103737258D02*
X184227500Y-103262742D01*
%TO.C,R2*%
X185227500Y-115737258D02*
X185227500Y-115262742D01*
X186272500Y-115737258D02*
X186272500Y-115262742D01*
%TO.C,R18*%
X165737258Y-124477500D02*
X165262742Y-124477500D01*
X165737258Y-125522500D02*
X165262742Y-125522500D01*
%TO.C,R17*%
X155727064Y-121735000D02*
X155272936Y-121735000D01*
X155727064Y-120265000D02*
X155272936Y-120265000D01*
%TO.C,GD1*%
X188500000Y-96000000D02*
X191000000Y-96000000D01*
X188500000Y-91500000D02*
X191000000Y-91500000D01*
%TO.C,U5*%
X158160000Y-144550000D02*
X158160000Y-145860000D01*
X154300000Y-141370000D02*
X155440000Y-141370000D01*
X158160000Y-141140000D02*
X158160000Y-142450000D01*
X155440000Y-141140000D02*
X158160000Y-141140000D01*
X158160000Y-145860000D02*
X155440000Y-145860000D01*
X155440000Y-145860000D02*
X155440000Y-145630000D01*
X155440000Y-141140000D02*
X155440000Y-141370000D01*
%TO.C,C6*%
X176740000Y-111109420D02*
X176740000Y-111390580D01*
X177760000Y-111109420D02*
X177760000Y-111390580D01*
%TO.C,R3*%
X186977500Y-115737258D02*
X186977500Y-115262742D01*
X188022500Y-115737258D02*
X188022500Y-115262742D01*
%TO.C,C21*%
X155010000Y-124609420D02*
X155010000Y-124890580D01*
X153990000Y-124609420D02*
X153990000Y-124890580D01*
%TO.C,FB5*%
X161149622Y-117940000D02*
X160350378Y-117940000D01*
X161149622Y-119060000D02*
X160350378Y-119060000D01*
%TO.C,C27*%
X161961252Y-135410000D02*
X160538748Y-135410000D01*
X161961252Y-133590000D02*
X160538748Y-133590000D01*
%TO.C,C29*%
X155538748Y-140410000D02*
X156961252Y-140410000D01*
X155538748Y-138590000D02*
X156961252Y-138590000D01*
%TO.C,U2*%
X186560000Y-109500000D02*
X186560000Y-107550000D01*
X181440000Y-109500000D02*
X181440000Y-107550000D01*
X186560000Y-109500000D02*
X186560000Y-111450000D01*
X181440000Y-109500000D02*
X181440000Y-112950000D01*
%TO.C,U4*%
X163090000Y-142450000D02*
X163090000Y-141140000D01*
X163090000Y-145860000D02*
X163090000Y-144550000D01*
X165810000Y-145860000D02*
X163090000Y-145860000D01*
X166950000Y-145630000D02*
X165810000Y-145630000D01*
X165810000Y-141140000D02*
X165810000Y-141370000D01*
X165810000Y-145860000D02*
X165810000Y-145630000D01*
X163090000Y-141140000D02*
X165810000Y-141140000D01*
%TO.C,R4*%
X189772500Y-115262742D02*
X189772500Y-115737258D01*
X188727500Y-115262742D02*
X188727500Y-115737258D01*
%TO.C,C19*%
X185990000Y-103640580D02*
X185990000Y-103359420D01*
X187010000Y-103640580D02*
X187010000Y-103359420D01*
%TO.C,U3*%
X163560000Y-125000000D02*
X163560000Y-124200000D01*
X160440000Y-125000000D02*
X160440000Y-126800000D01*
X160440000Y-125000000D02*
X160440000Y-124200000D01*
X163560000Y-125000000D02*
X163560000Y-125800000D01*
%TO.C,R14*%
X181022500Y-115012742D02*
X181022500Y-115487258D01*
X179977500Y-115012742D02*
X179977500Y-115487258D01*
%TO.C,D2*%
X189750000Y-120850000D02*
X189750000Y-119150000D01*
X189750000Y-120850000D02*
X187200000Y-120850000D01*
X189750000Y-119150000D02*
X187200000Y-119150000D01*
%TO.C,J7*%
X185200000Y-89620000D02*
X187800000Y-89620000D01*
X182900000Y-84820000D02*
X182900000Y-88020000D01*
X184700000Y-82740000D02*
X188300000Y-82740000D01*
X190100000Y-84820000D02*
X190100000Y-88020000D01*
%TO.C,C1*%
X178740000Y-127140580D02*
X178740000Y-126859420D01*
X179760000Y-127140580D02*
X179760000Y-126859420D01*
%TO.C,C13*%
X186990000Y-111109420D02*
X186990000Y-111390580D01*
X188010000Y-111109420D02*
X188010000Y-111390580D01*
%TD*%
M02*
