%TF.GenerationSoftware,KiCad,Pcbnew,6.0.11-2627ca5db0~126~ubuntu20.04.1*%
%TF.CreationDate,2023-06-15T17:53:27-07:00*%
%TF.ProjectId,packaged-amp,7061636b-6167-4656-942d-616d702e6b69,rev?*%
%TF.SameCoordinates,Original*%
%TF.FileFunction,Copper,L4,Bot*%
%TF.FilePolarity,Positive*%
%FSLAX46Y46*%
G04 Gerber Fmt 4.6, Leading zero omitted, Abs format (unit mm)*
G04 Created by KiCad (PCBNEW 6.0.11-2627ca5db0~126~ubuntu20.04.1) date 2023-06-15 17:53:27*
%MOMM*%
%LPD*%
G01*
G04 APERTURE LIST*
%TA.AperFunction,ComponentPad*%
%ADD10C,2.000000*%
%TD*%
%TA.AperFunction,ComponentPad*%
%ADD11R,1.700000X1.700000*%
%TD*%
%TA.AperFunction,ComponentPad*%
%ADD12C,1.700000*%
%TD*%
%TA.AperFunction,ComponentPad*%
%ADD13C,3.500000*%
%TD*%
%TA.AperFunction,ComponentPad*%
%ADD14R,1.850000X1.850000*%
%TD*%
%TA.AperFunction,ComponentPad*%
%ADD15C,1.850000*%
%TD*%
%TA.AperFunction,ComponentPad*%
%ADD16C,1.500000*%
%TD*%
%TA.AperFunction,ComponentPad*%
%ADD17C,2.250000*%
%TD*%
%TA.AperFunction,ViaPad*%
%ADD18C,0.600000*%
%TD*%
%TA.AperFunction,Conductor*%
%ADD19C,0.480000*%
%TD*%
%TA.AperFunction,Conductor*%
%ADD20C,0.320000*%
%TD*%
G04 APERTURE END LIST*
D10*
%TO.P,TP1,1,1*%
%TO.N,GND*%
X114000000Y-68500000D03*
%TD*%
D11*
%TO.P,J2,1,VBUS*%
%TO.N,Net-(J2-Pad1)*%
X98500000Y-76577500D03*
D12*
%TO.P,J2,2,D-*%
%TO.N,unconnected-(J2-Pad2)*%
X101000000Y-76577500D03*
%TO.P,J2,3,D+*%
%TO.N,unconnected-(J2-Pad3)*%
X101000000Y-74577500D03*
%TO.P,J2,4,GND*%
%TO.N,Net-(J2-Pad4)*%
X98500000Y-74577500D03*
D13*
%TO.P,J2,5,Shield*%
X93730000Y-71867500D03*
X105770000Y-71867500D03*
%TD*%
D14*
%TO.P,PS1,1,+Vin*%
%TO.N,Net-(C8-Pad1)*%
X82850000Y-95290000D03*
D15*
%TO.P,PS1,2,-Vin*%
%TO.N,/USB_GND*%
X82850000Y-97830000D03*
%TO.P,PS1,4,-Vout*%
%TO.N,Net-(L4-Pad1)*%
X82850000Y-102910000D03*
%TO.P,PS1,5,0V*%
%TO.N,GND*%
X82850000Y-105450000D03*
%TO.P,PS1,6,+Vout*%
%TO.N,Net-(PS1-Pad6)*%
X82850000Y-107990000D03*
%TD*%
D10*
%TO.P,TP2,1,1*%
%TO.N,GND*%
X128500000Y-110750000D03*
%TD*%
D16*
%TO.P,D4,1,K*%
%TO.N,VSS*%
X85770000Y-137900000D03*
%TO.P,D4,2,A*%
%TO.N,Net-(D4-Pad2)*%
X83230000Y-137900000D03*
%TD*%
D17*
%TO.P,J7,1,In*%
%TO.N,Net-(GD1-Pad1)*%
X123750000Y-68750000D03*
%TO.P,J7,2,Ext*%
%TO.N,GND*%
X121210000Y-66210000D03*
X126290000Y-71290000D03*
X121210000Y-71290000D03*
X126290000Y-66210000D03*
%TD*%
D18*
%TO.N,VDD*%
X113750000Y-94150000D03*
X106750000Y-94200000D03*
X89200000Y-126803500D03*
X119250000Y-106000000D03*
%TO.N,GND*%
X124250000Y-81500000D03*
X112000000Y-116750000D03*
X87000000Y-114500000D03*
X131500000Y-95000000D03*
X91000000Y-118000000D03*
X94250000Y-97250000D03*
X100750000Y-116250000D03*
X129750000Y-76500000D03*
X124500000Y-89500000D03*
X117100000Y-110750000D03*
X111000000Y-120750000D03*
X110900000Y-101300000D03*
X121550000Y-98450000D03*
X95250000Y-127000000D03*
X89750000Y-107500000D03*
X100750000Y-113000000D03*
X120750000Y-97700000D03*
X94250000Y-88500000D03*
X78000000Y-110750000D03*
X84250000Y-126500000D03*
X78500000Y-107250000D03*
X105749500Y-110750000D03*
X88250000Y-107500000D03*
X107750000Y-113000000D03*
X119500000Y-113000000D03*
X124500000Y-112750000D03*
X116000000Y-119250000D03*
X106000000Y-100000000D03*
X121450000Y-106500000D03*
X102250000Y-110250000D03*
X86000000Y-107500000D03*
X118800000Y-110750000D03*
X110200000Y-87700000D03*
X121450000Y-105750000D03*
X124500000Y-82750000D03*
X111000000Y-119250000D03*
X110500000Y-82750000D03*
X104500000Y-108750000D03*
X111000000Y-68000000D03*
X124500000Y-120750000D03*
X80300000Y-105450000D03*
X118500000Y-82750000D03*
X121000000Y-82750000D03*
X90250000Y-140000000D03*
X94250000Y-94250000D03*
X131000000Y-116250000D03*
X111500000Y-113000000D03*
X123050000Y-93000000D03*
X112900000Y-98450000D03*
X96000000Y-129000000D03*
X94250000Y-101750000D03*
X104500000Y-82750000D03*
X124500000Y-109750000D03*
X124500000Y-106500000D03*
X99250000Y-113500000D03*
X128750000Y-116750000D03*
X120250000Y-111550000D03*
X111000000Y-118000000D03*
X85250000Y-116250000D03*
X128000000Y-79750000D03*
X104500000Y-88250000D03*
X105500000Y-113000000D03*
X116000000Y-120500000D03*
X112750000Y-106950000D03*
X84500000Y-121750000D03*
X129750000Y-78500000D03*
X104500000Y-91250000D03*
X123750000Y-120750000D03*
X120750000Y-105050000D03*
X91250000Y-102000000D03*
X121250000Y-81500000D03*
X78500000Y-119500000D03*
X126000000Y-120250000D03*
X104500000Y-103500000D03*
X104500000Y-93000000D03*
X104500000Y-106000000D03*
X84500000Y-121000000D03*
X116250000Y-111550000D03*
X77500000Y-130500000D03*
X104500000Y-101250000D03*
X119500000Y-111450000D03*
X96500000Y-140000000D03*
X114500000Y-81750000D03*
X102750000Y-145250000D03*
X90250000Y-121750000D03*
X124500000Y-91750000D03*
X106150000Y-104750000D03*
X129750000Y-75000000D03*
X104000000Y-80500000D03*
X106750000Y-97300000D03*
X109750000Y-113000000D03*
X112000000Y-120250000D03*
X94750000Y-129000000D03*
X119950000Y-98450000D03*
X124500000Y-103500000D03*
X131000000Y-109250000D03*
X131500000Y-89250000D03*
X121100000Y-111350000D03*
X117500000Y-113000000D03*
X116150000Y-118100000D03*
X131500000Y-102750000D03*
X115000000Y-120250000D03*
X114600000Y-96500000D03*
X92250000Y-108250000D03*
X124500000Y-86000000D03*
X107500000Y-82750000D03*
X86750000Y-123000000D03*
X103250000Y-98750000D03*
X121500000Y-105000000D03*
X84500000Y-122500000D03*
X122250000Y-113000000D03*
X122250000Y-96850000D03*
X108000000Y-97250000D03*
X118000000Y-111550000D03*
X92500000Y-107500000D03*
X85250000Y-105750000D03*
X84250000Y-124500000D03*
X125250000Y-120750000D03*
X85250000Y-125500000D03*
X112000000Y-77000000D03*
X127500000Y-120250000D03*
X104500000Y-111000000D03*
X91500000Y-107500000D03*
X111850000Y-90900000D03*
X86750000Y-120500000D03*
X111000000Y-74750000D03*
X108250000Y-111500000D03*
X97500000Y-134500000D03*
X104500000Y-85500000D03*
X77750000Y-102500000D03*
X126250000Y-80000000D03*
X115550000Y-87650000D03*
X124500000Y-94500000D03*
X113750000Y-74250000D03*
X115450000Y-110800000D03*
X84750000Y-118250000D03*
X124500000Y-101250000D03*
%TO.N,VSS*%
X113750000Y-100800000D03*
X114400000Y-106600000D03*
X120750000Y-100768500D03*
X92500000Y-127050000D03*
%TO.N,Net-(GD1-Pad1)*%
X123750000Y-73650000D03*
X123500000Y-79300000D03*
X122500000Y-84850000D03*
%TO.N,/VSS_unreg*%
X95500000Y-120500000D03*
X97000000Y-122500000D03*
X95500000Y-123000000D03*
X97000000Y-121750000D03*
X94000000Y-120500000D03*
X94000000Y-123000000D03*
X97000000Y-121000000D03*
%TO.N,Net-(E1-Pad2)*%
X113000000Y-111000000D03*
X124500000Y-115350000D03*
%TO.N,/USB_PWR*%
X89600000Y-89750000D03*
X90450000Y-89700000D03*
%TO.N,/USB_GND*%
X83300000Y-75450000D03*
X83700000Y-81900000D03*
X84550000Y-75050000D03*
X85250000Y-97900000D03*
X82700000Y-69100000D03*
X82650000Y-65300000D03*
X83000000Y-88350000D03*
X77800000Y-79600000D03*
X77900000Y-98500000D03*
X77150000Y-92850000D03*
X80200000Y-89650000D03*
X77350000Y-95350000D03*
X90450000Y-98400000D03*
X83450000Y-86800000D03*
X89300000Y-98400000D03*
X80750000Y-98900000D03*
X85350000Y-98900000D03*
X78350000Y-76300000D03*
X77300000Y-89950000D03*
X80600000Y-76300000D03*
X80450000Y-97550000D03*
X83800000Y-67400000D03*
X89850000Y-99050000D03*
X84550000Y-76800000D03*
X84650000Y-84850000D03*
X82800000Y-70250000D03*
X77300000Y-71850000D03*
%TD*%
D19*
%TO.N,Net-(GD1-Pad1)*%
X123750000Y-68750000D02*
X123750000Y-70050000D01*
D20*
X123750000Y-70050000D02*
X123750000Y-73650000D01*
%TD*%
%TA.AperFunction,Conductor*%
%TO.N,/VSS_unreg*%
G36*
X101445336Y-117018891D02*
G01*
X101489246Y-117069566D01*
X101500000Y-117119000D01*
X101500000Y-128131000D01*
X101481109Y-128195336D01*
X101430434Y-128239246D01*
X101381000Y-128250000D01*
X93049292Y-128250000D01*
X92984956Y-128231109D01*
X92965146Y-128215146D01*
X92533808Y-127783808D01*
X92501674Y-127724957D01*
X92506457Y-127658076D01*
X92546640Y-127604398D01*
X92602422Y-127581680D01*
X92633369Y-127577606D01*
X92633371Y-127577605D01*
X92641099Y-127576588D01*
X92772582Y-127522126D01*
X92778767Y-127517380D01*
X92778769Y-127517379D01*
X92879300Y-127440238D01*
X92885489Y-127435489D01*
X92891720Y-127427368D01*
X92967379Y-127328769D01*
X92967380Y-127328767D01*
X92972126Y-127322582D01*
X93026588Y-127191099D01*
X93032223Y-127148301D01*
X93044146Y-127057732D01*
X93045164Y-127050000D01*
X93038581Y-127000000D01*
X94704836Y-127000000D01*
X94705854Y-127007732D01*
X94712437Y-127057732D01*
X94723412Y-127141099D01*
X94777874Y-127272582D01*
X94782620Y-127278767D01*
X94782621Y-127278769D01*
X94820988Y-127328769D01*
X94864511Y-127385489D01*
X94870700Y-127390238D01*
X94971231Y-127467379D01*
X94971233Y-127467380D01*
X94977418Y-127472126D01*
X95068070Y-127509675D01*
X95098129Y-127522126D01*
X95108901Y-127526588D01*
X95116627Y-127527605D01*
X95116630Y-127527606D01*
X95242268Y-127544146D01*
X95250000Y-127545164D01*
X95257732Y-127544146D01*
X95383370Y-127527606D01*
X95383373Y-127527605D01*
X95391099Y-127526588D01*
X95401872Y-127522126D01*
X95431930Y-127509675D01*
X95522582Y-127472126D01*
X95528767Y-127467380D01*
X95528769Y-127467379D01*
X95629300Y-127390238D01*
X95635489Y-127385489D01*
X95679012Y-127328769D01*
X95717379Y-127278769D01*
X95717380Y-127278767D01*
X95722126Y-127272582D01*
X95776588Y-127141099D01*
X95787564Y-127057732D01*
X95794146Y-127007732D01*
X95795164Y-127000000D01*
X95788891Y-126952353D01*
X95777606Y-126866630D01*
X95777605Y-126866627D01*
X95776588Y-126858901D01*
X95722126Y-126727418D01*
X95670212Y-126659762D01*
X95640238Y-126620700D01*
X95635489Y-126614511D01*
X95627368Y-126608280D01*
X95528769Y-126532621D01*
X95528767Y-126532620D01*
X95522582Y-126527874D01*
X95391099Y-126473412D01*
X95383373Y-126472395D01*
X95383370Y-126472394D01*
X95257732Y-126455854D01*
X95250000Y-126454836D01*
X95242268Y-126455854D01*
X95116630Y-126472394D01*
X95116627Y-126472395D01*
X95108901Y-126473412D01*
X94977418Y-126527874D01*
X94971233Y-126532620D01*
X94971231Y-126532621D01*
X94872632Y-126608280D01*
X94864511Y-126614511D01*
X94859762Y-126620700D01*
X94829789Y-126659762D01*
X94777874Y-126727418D01*
X94723412Y-126858901D01*
X94722395Y-126866627D01*
X94722394Y-126866630D01*
X94711109Y-126952353D01*
X94704836Y-127000000D01*
X93038581Y-127000000D01*
X93027606Y-126916630D01*
X93027605Y-126916627D01*
X93026588Y-126908901D01*
X92972126Y-126777418D01*
X92933760Y-126727418D01*
X92890238Y-126670700D01*
X92885489Y-126664511D01*
X92814139Y-126609762D01*
X92778769Y-126582621D01*
X92778767Y-126582620D01*
X92772582Y-126577874D01*
X92663332Y-126532621D01*
X92648301Y-126526395D01*
X92648300Y-126526395D01*
X92641099Y-126523412D01*
X92633373Y-126522395D01*
X92633370Y-126522394D01*
X92507732Y-126505854D01*
X92500000Y-126504836D01*
X92492268Y-126505854D01*
X92366630Y-126522394D01*
X92366627Y-126522395D01*
X92358901Y-126523412D01*
X92351700Y-126526395D01*
X92351699Y-126526395D01*
X92336668Y-126532621D01*
X92227418Y-126577874D01*
X92221233Y-126582620D01*
X92221231Y-126582621D01*
X92185861Y-126609762D01*
X92114511Y-126664511D01*
X92109762Y-126670700D01*
X92066241Y-126727418D01*
X92027874Y-126777418D01*
X92024890Y-126784623D01*
X91978942Y-126895550D01*
X91936868Y-126947760D01*
X91873247Y-126968935D01*
X91808278Y-126952353D01*
X91762587Y-126903277D01*
X91750000Y-126850011D01*
X91750000Y-117119000D01*
X91768891Y-117054664D01*
X91819566Y-117010754D01*
X91869000Y-117000000D01*
X101381000Y-117000000D01*
X101445336Y-117018891D01*
G37*
%TD.AperFunction*%
%TD*%
%TA.AperFunction,Conductor*%
%TO.N,/USB_GND*%
G36*
X85445336Y-64313517D02*
G01*
X85489246Y-64364192D01*
X85500000Y-64413626D01*
X85500000Y-82750000D01*
X91381000Y-82750000D01*
X91445336Y-82768891D01*
X91489246Y-82819566D01*
X91500000Y-82869000D01*
X91500000Y-99381000D01*
X91481109Y-99445336D01*
X91430434Y-99489246D01*
X91381000Y-99500000D01*
X82957405Y-99500000D01*
X82893069Y-99481109D01*
X82877531Y-99463178D01*
X82821532Y-99496332D01*
X82792212Y-99500000D01*
X76248247Y-99500000D01*
X76183911Y-99481109D01*
X76140001Y-99430434D01*
X76129247Y-99381000D01*
X76129247Y-99009708D01*
X82034809Y-99009708D01*
X82039797Y-99016370D01*
X82224479Y-99124289D01*
X82233267Y-99128499D01*
X82444275Y-99209075D01*
X82453618Y-99211790D01*
X82674959Y-99256822D01*
X82684628Y-99257975D01*
X82796573Y-99262080D01*
X82860174Y-99283316D01*
X82873135Y-99299432D01*
X82923879Y-99266820D01*
X82942284Y-99262965D01*
X83144116Y-99237109D01*
X83153633Y-99235087D01*
X83369984Y-99170178D01*
X83379048Y-99166626D01*
X83581882Y-99067259D01*
X83590250Y-99062271D01*
X83653838Y-99016914D01*
X83661774Y-99006807D01*
X83655176Y-98994386D01*
X82862099Y-98201309D01*
X82848932Y-98194119D01*
X82847198Y-98194243D01*
X82840954Y-98198256D01*
X82041193Y-98998017D01*
X82034809Y-99009708D01*
X76129247Y-99009708D01*
X76129247Y-97799737D01*
X81412799Y-97799737D01*
X81425802Y-98025245D01*
X81427156Y-98034882D01*
X81476813Y-98255227D01*
X81479725Y-98264522D01*
X81564706Y-98473804D01*
X81569089Y-98482480D01*
X81662444Y-98634820D01*
X81672319Y-98643754D01*
X81680609Y-98640181D01*
X82478691Y-97842099D01*
X82484715Y-97831068D01*
X83214119Y-97831068D01*
X83214243Y-97832802D01*
X83218256Y-97839046D01*
X84014929Y-98635719D01*
X84026271Y-98641912D01*
X84037358Y-98633443D01*
X84079681Y-98574544D01*
X84084694Y-98566201D01*
X84184774Y-98363704D01*
X84188355Y-98354659D01*
X84254019Y-98138533D01*
X84256074Y-98129031D01*
X84285780Y-97903390D01*
X84286272Y-97897063D01*
X84287833Y-97833176D01*
X84287651Y-97826840D01*
X84269003Y-97600016D01*
X84267414Y-97590419D01*
X84212388Y-97371353D01*
X84209247Y-97362125D01*
X84119186Y-97154998D01*
X84114582Y-97146411D01*
X84036756Y-97026112D01*
X84026665Y-97017421D01*
X84017629Y-97021581D01*
X83221309Y-97817901D01*
X83214119Y-97831068D01*
X82484715Y-97831068D01*
X82485881Y-97828932D01*
X82485757Y-97827198D01*
X82481744Y-97820954D01*
X81685162Y-97024372D01*
X81674268Y-97018423D01*
X81662669Y-97027511D01*
X81602496Y-97115721D01*
X81597687Y-97124188D01*
X81502589Y-97329058D01*
X81499225Y-97338200D01*
X81438864Y-97555852D01*
X81437038Y-97565425D01*
X81413037Y-97790017D01*
X81412799Y-97799737D01*
X76129247Y-97799737D01*
X76129247Y-96238688D01*
X81684500Y-96238688D01*
X81698454Y-96308839D01*
X81751609Y-96388391D01*
X81831161Y-96441546D01*
X81842654Y-96443832D01*
X81842656Y-96443833D01*
X81870619Y-96449395D01*
X81901312Y-96455500D01*
X81947290Y-96455500D01*
X82011626Y-96474391D01*
X82055536Y-96525066D01*
X82065079Y-96591435D01*
X82042656Y-96645678D01*
X82037316Y-96652832D01*
X82043684Y-96664474D01*
X82837901Y-97458691D01*
X82851068Y-97465881D01*
X82852802Y-97465757D01*
X82859046Y-97461744D01*
X83657503Y-96663287D01*
X83664132Y-96651146D01*
X83659345Y-96644575D01*
X83636727Y-96581453D01*
X83651827Y-96516123D01*
X83699850Y-96469327D01*
X83755524Y-96455500D01*
X83798688Y-96455500D01*
X83829381Y-96449395D01*
X83857344Y-96443833D01*
X83857346Y-96443832D01*
X83868839Y-96441546D01*
X83948391Y-96388391D01*
X84001546Y-96308839D01*
X84015500Y-96238688D01*
X84015500Y-94341312D01*
X84001546Y-94271161D01*
X83948391Y-94191609D01*
X83868839Y-94138454D01*
X83857346Y-94136168D01*
X83857344Y-94136167D01*
X83829381Y-94130605D01*
X83798688Y-94124500D01*
X81901312Y-94124500D01*
X81870619Y-94130605D01*
X81842656Y-94136167D01*
X81842654Y-94136168D01*
X81831161Y-94138454D01*
X81751609Y-94191609D01*
X81698454Y-94271161D01*
X81684500Y-94341312D01*
X81684500Y-96238688D01*
X76129247Y-96238688D01*
X76129247Y-89750000D01*
X89054836Y-89750000D01*
X89055854Y-89757732D01*
X89067778Y-89848301D01*
X89073412Y-89891099D01*
X89127874Y-90022582D01*
X89132620Y-90028767D01*
X89132621Y-90028769D01*
X89196166Y-90111581D01*
X89214511Y-90135489D01*
X89220700Y-90140238D01*
X89321231Y-90217379D01*
X89321233Y-90217380D01*
X89327418Y-90222126D01*
X89458901Y-90276588D01*
X89466627Y-90277605D01*
X89466630Y-90277606D01*
X89592268Y-90294146D01*
X89600000Y-90295164D01*
X89607732Y-90294146D01*
X89733370Y-90277606D01*
X89733373Y-90277605D01*
X89741099Y-90276588D01*
X89872582Y-90222126D01*
X89878767Y-90217380D01*
X89878769Y-90217379D01*
X89985137Y-90135759D01*
X90047678Y-90111581D01*
X90113363Y-90125053D01*
X90130022Y-90135759D01*
X90171227Y-90167376D01*
X90171230Y-90167378D01*
X90177418Y-90172126D01*
X90268070Y-90209675D01*
X90298129Y-90222126D01*
X90308901Y-90226588D01*
X90316627Y-90227605D01*
X90316630Y-90227606D01*
X90442268Y-90244146D01*
X90450000Y-90245164D01*
X90457732Y-90244146D01*
X90583370Y-90227606D01*
X90583373Y-90227605D01*
X90591099Y-90226588D01*
X90601872Y-90222126D01*
X90631930Y-90209675D01*
X90722582Y-90172126D01*
X90728767Y-90167380D01*
X90728769Y-90167379D01*
X90829300Y-90090238D01*
X90835489Y-90085489D01*
X90879012Y-90028769D01*
X90917379Y-89978769D01*
X90917380Y-89978767D01*
X90922126Y-89972582D01*
X90976588Y-89841099D01*
X90987564Y-89757732D01*
X90994146Y-89707732D01*
X90995164Y-89700000D01*
X90983171Y-89608901D01*
X90977606Y-89566630D01*
X90977605Y-89566627D01*
X90976588Y-89558901D01*
X90922126Y-89427418D01*
X90870212Y-89359762D01*
X90840238Y-89320700D01*
X90835489Y-89314511D01*
X90793933Y-89282624D01*
X90728769Y-89232621D01*
X90728767Y-89232620D01*
X90722582Y-89227874D01*
X90591099Y-89173412D01*
X90583373Y-89172395D01*
X90583370Y-89172394D01*
X90457732Y-89155854D01*
X90450000Y-89154836D01*
X90442268Y-89155854D01*
X90316630Y-89172394D01*
X90316627Y-89172395D01*
X90308901Y-89173412D01*
X90177418Y-89227874D01*
X90171233Y-89232620D01*
X90171231Y-89232621D01*
X90064863Y-89314241D01*
X90002322Y-89338419D01*
X89936637Y-89324947D01*
X89919978Y-89314241D01*
X89878773Y-89282624D01*
X89878768Y-89282621D01*
X89872582Y-89277874D01*
X89763332Y-89232621D01*
X89748301Y-89226395D01*
X89748300Y-89226395D01*
X89741099Y-89223412D01*
X89733373Y-89222395D01*
X89733370Y-89222394D01*
X89607732Y-89205854D01*
X89600000Y-89204836D01*
X89592268Y-89205854D01*
X89466630Y-89222394D01*
X89466627Y-89222395D01*
X89458901Y-89223412D01*
X89451700Y-89226395D01*
X89451699Y-89226395D01*
X89436668Y-89232621D01*
X89327418Y-89277874D01*
X89321233Y-89282620D01*
X89321231Y-89282621D01*
X89222632Y-89358280D01*
X89214511Y-89364511D01*
X89209762Y-89370700D01*
X89166241Y-89427418D01*
X89127874Y-89477418D01*
X89073412Y-89608901D01*
X89072395Y-89616627D01*
X89072394Y-89616630D01*
X89061419Y-89700000D01*
X89054836Y-89750000D01*
X76129247Y-89750000D01*
X76129247Y-88629717D01*
X76148138Y-88565381D01*
X76198813Y-88521471D01*
X76248247Y-88510717D01*
X79158966Y-88510717D01*
X79182182Y-88513004D01*
X79182884Y-88513144D01*
X79182887Y-88513144D01*
X79194374Y-88515429D01*
X79195265Y-88515252D01*
X79206448Y-88514685D01*
X79551638Y-88497179D01*
X79551642Y-88497179D01*
X79554651Y-88497026D01*
X79911232Y-88442401D01*
X79914156Y-88441644D01*
X80257531Y-88352739D01*
X80257539Y-88352737D01*
X80260457Y-88351981D01*
X80598743Y-88226694D01*
X80845415Y-88105696D01*
X80919913Y-88069153D01*
X80919915Y-88069152D01*
X80922618Y-88067826D01*
X80971123Y-88037593D01*
X81226197Y-87878604D01*
X81228758Y-87877008D01*
X81514024Y-87656197D01*
X81775486Y-87407659D01*
X82010463Y-87133944D01*
X82216543Y-86837861D01*
X82391611Y-86522449D01*
X82533871Y-86190943D01*
X82641864Y-85846747D01*
X82714481Y-85493390D01*
X82750976Y-85134500D01*
X82750976Y-84773760D01*
X82714481Y-84414870D01*
X82641864Y-84061513D01*
X82533871Y-83717317D01*
X82391611Y-83385811D01*
X82216543Y-83070399D01*
X82010463Y-82774316D01*
X81989589Y-82750000D01*
X81777452Y-82502891D01*
X81777451Y-82502890D01*
X81775486Y-82500601D01*
X81514024Y-82252063D01*
X81228758Y-82031252D01*
X80983744Y-81878534D01*
X80925174Y-81842027D01*
X80925172Y-81842026D01*
X80922618Y-81840434D01*
X80915514Y-81836949D01*
X80601450Y-81682894D01*
X80598743Y-81681566D01*
X80260457Y-81556279D01*
X80257539Y-81555523D01*
X80257531Y-81555521D01*
X79914156Y-81466616D01*
X79914155Y-81466616D01*
X79911232Y-81465859D01*
X79554651Y-81411234D01*
X79551642Y-81411081D01*
X79551638Y-81411081D01*
X79455403Y-81406201D01*
X79195325Y-81393011D01*
X79194374Y-81392822D01*
X79182882Y-81395108D01*
X79182182Y-81395247D01*
X79158966Y-81397534D01*
X76248247Y-81397534D01*
X76183911Y-81378643D01*
X76140001Y-81327968D01*
X76129247Y-81278534D01*
X76129247Y-67950000D01*
X78000000Y-67950000D01*
X79800000Y-67950000D01*
X79800000Y-66150000D01*
X78000000Y-66150000D01*
X78000000Y-67950000D01*
X76129247Y-67950000D01*
X76129247Y-64413626D01*
X76148138Y-64349290D01*
X76198813Y-64305380D01*
X76248247Y-64294626D01*
X85381000Y-64294626D01*
X85445336Y-64313517D01*
G37*
%TD.AperFunction*%
%TD*%
%TA.AperFunction,Conductor*%
%TO.N,GND*%
G36*
X120506039Y-64474588D02*
G01*
X120560577Y-64529126D01*
X120580539Y-64603626D01*
X120560577Y-64678126D01*
X120506039Y-64732664D01*
X120488559Y-64741284D01*
X120471753Y-64748245D01*
X120461343Y-64753550D01*
X120256596Y-64879018D01*
X120251308Y-64886713D01*
X120256220Y-64897010D01*
X121196129Y-65836919D01*
X121210000Y-65844927D01*
X121223871Y-65836919D01*
X122160665Y-64900125D01*
X122168673Y-64886254D01*
X122165094Y-64880054D01*
X121958657Y-64753550D01*
X121948247Y-64748245D01*
X121931441Y-64741284D01*
X121870251Y-64694331D01*
X121840736Y-64623074D01*
X121850803Y-64546606D01*
X121897756Y-64485416D01*
X121969013Y-64455901D01*
X121988461Y-64454626D01*
X125511539Y-64454626D01*
X125586039Y-64474588D01*
X125640577Y-64529126D01*
X125660539Y-64603626D01*
X125640577Y-64678126D01*
X125586039Y-64732664D01*
X125568559Y-64741284D01*
X125551753Y-64748245D01*
X125541343Y-64753550D01*
X125336596Y-64879018D01*
X125331308Y-64886713D01*
X125336220Y-64897010D01*
X126276129Y-65836919D01*
X126290000Y-65844927D01*
X126303871Y-65836919D01*
X127240665Y-64900125D01*
X127248673Y-64886254D01*
X127245094Y-64880054D01*
X127038657Y-64753550D01*
X127028247Y-64748245D01*
X127011441Y-64741284D01*
X126950251Y-64694331D01*
X126920736Y-64623074D01*
X126930803Y-64546606D01*
X126977756Y-64485416D01*
X127049013Y-64455901D01*
X127068461Y-64454626D01*
X131950500Y-64454626D01*
X132025000Y-64474588D01*
X132079538Y-64529126D01*
X132099500Y-64603626D01*
X132099500Y-81088534D01*
X132079538Y-81163034D01*
X132025000Y-81217572D01*
X131950500Y-81237534D01*
X129237618Y-81237534D01*
X129214311Y-81235700D01*
X129205960Y-81234377D01*
X129205957Y-81234377D01*
X129194371Y-81232542D01*
X129192839Y-81232785D01*
X129181560Y-81233357D01*
X129116052Y-81236680D01*
X128817886Y-81251803D01*
X128814153Y-81252375D01*
X128814152Y-81252375D01*
X128448984Y-81308319D01*
X128448982Y-81308319D01*
X128445264Y-81308889D01*
X128306773Y-81344748D01*
X128083994Y-81402431D01*
X128083989Y-81402433D01*
X128080330Y-81403380D01*
X127726827Y-81534305D01*
X127388383Y-81700322D01*
X127385177Y-81702320D01*
X127385174Y-81702322D01*
X127160270Y-81842508D01*
X127068472Y-81899727D01*
X127065484Y-81902040D01*
X127065481Y-81902042D01*
X126773356Y-82128165D01*
X126773350Y-82128170D01*
X126770375Y-82130473D01*
X126767652Y-82133061D01*
X126767649Y-82133064D01*
X126499884Y-82387596D01*
X126497151Y-82390194D01*
X126251605Y-82676223D01*
X126036256Y-82985626D01*
X125853313Y-83315228D01*
X125704653Y-83661647D01*
X125591803Y-84021328D01*
X125591045Y-84025015D01*
X125591044Y-84025020D01*
X125518540Y-84377831D01*
X125515920Y-84390581D01*
X125515539Y-84394328D01*
X125486142Y-84683418D01*
X125477783Y-84765615D01*
X125477783Y-85142585D01*
X125478164Y-85146328D01*
X125478164Y-85146335D01*
X125497194Y-85333467D01*
X125515920Y-85517619D01*
X125516679Y-85521310D01*
X125516679Y-85521313D01*
X125521925Y-85546838D01*
X125591803Y-85886872D01*
X125648228Y-86066713D01*
X125696059Y-86219161D01*
X125704653Y-86246553D01*
X125853313Y-86592972D01*
X126036256Y-86922574D01*
X126251605Y-87231977D01*
X126497151Y-87518006D01*
X126770375Y-87777727D01*
X126773350Y-87780030D01*
X126773356Y-87780035D01*
X126889215Y-87869717D01*
X127068472Y-88008473D01*
X127388383Y-88207878D01*
X127726827Y-88373895D01*
X128080330Y-88504820D01*
X128083989Y-88505767D01*
X128083994Y-88505769D01*
X128306773Y-88563452D01*
X128445264Y-88599311D01*
X128448982Y-88599881D01*
X128448984Y-88599881D01*
X128814152Y-88655825D01*
X128817886Y-88656397D01*
X129192365Y-88675391D01*
X129194371Y-88675709D01*
X129205957Y-88673874D01*
X129205958Y-88673874D01*
X129214311Y-88672551D01*
X129237618Y-88670717D01*
X131950500Y-88670717D01*
X132025000Y-88690679D01*
X132079538Y-88745217D01*
X132099500Y-88819717D01*
X132099500Y-121950500D01*
X132079538Y-122025000D01*
X132025000Y-122079538D01*
X131950500Y-122099500D01*
X129237621Y-122099500D01*
X129214315Y-122097666D01*
X129205973Y-122096345D01*
X129205948Y-122096341D01*
X129205947Y-122096341D01*
X129194374Y-122094508D01*
X129192396Y-122094821D01*
X129181333Y-122095382D01*
X129140187Y-122097469D01*
X128817890Y-122113814D01*
X128814160Y-122114385D01*
X128814154Y-122114386D01*
X128479882Y-122165594D01*
X128445268Y-122170897D01*
X128441629Y-122171839D01*
X128441625Y-122171840D01*
X128083985Y-122264439D01*
X128083977Y-122264441D01*
X128080333Y-122265385D01*
X128076799Y-122266694D01*
X128076789Y-122266697D01*
X127730382Y-122394992D01*
X127726829Y-122396308D01*
X127723428Y-122397976D01*
X127723424Y-122397978D01*
X127546479Y-122484773D01*
X127480861Y-122500000D01*
X123399000Y-122500000D01*
X123324500Y-122480038D01*
X123269962Y-122425500D01*
X123250000Y-122351000D01*
X123250000Y-115342611D01*
X123794394Y-115342611D01*
X123812999Y-115511135D01*
X123816087Y-115519572D01*
X123816087Y-115519574D01*
X123823917Y-115540969D01*
X123871266Y-115670356D01*
X123876275Y-115677811D01*
X123876276Y-115677812D01*
X123884431Y-115689947D01*
X123965830Y-115811083D01*
X123972472Y-115817126D01*
X123972473Y-115817128D01*
X123990430Y-115833467D01*
X124091233Y-115925191D01*
X124099128Y-115929478D01*
X124099130Y-115929479D01*
X124232344Y-116001808D01*
X124232347Y-116001809D01*
X124240235Y-116006092D01*
X124277743Y-116015932D01*
X124395549Y-116046838D01*
X124395551Y-116046838D01*
X124404233Y-116049116D01*
X124413209Y-116049257D01*
X124564781Y-116051638D01*
X124573760Y-116051779D01*
X124739029Y-116013928D01*
X124890498Y-115937747D01*
X124912279Y-115919144D01*
X125012594Y-115833467D01*
X125012596Y-115833465D01*
X125019423Y-115827634D01*
X125036866Y-115803360D01*
X125113124Y-115697236D01*
X125113126Y-115697232D01*
X125118361Y-115689947D01*
X125129628Y-115661920D01*
X125178251Y-115540969D01*
X125178252Y-115540964D01*
X125181601Y-115532634D01*
X125205490Y-115364778D01*
X125205645Y-115350000D01*
X125185276Y-115181680D01*
X125125345Y-115023077D01*
X125029312Y-114883349D01*
X125022604Y-114877372D01*
X124909428Y-114776535D01*
X124909424Y-114776532D01*
X124902721Y-114770560D01*
X124894783Y-114766357D01*
X124894780Y-114766355D01*
X124760823Y-114695429D01*
X124752881Y-114691224D01*
X124744168Y-114689035D01*
X124744167Y-114689035D01*
X124671691Y-114670830D01*
X124588441Y-114649919D01*
X124484002Y-114649372D01*
X124427873Y-114649078D01*
X124418895Y-114649031D01*
X124410164Y-114651127D01*
X124410165Y-114651127D01*
X124262765Y-114686515D01*
X124262762Y-114686516D01*
X124254032Y-114688612D01*
X124246053Y-114692730D01*
X124246051Y-114692731D01*
X124240824Y-114695429D01*
X124103369Y-114766375D01*
X124096602Y-114772279D01*
X124096598Y-114772281D01*
X124091722Y-114776535D01*
X123975604Y-114877831D01*
X123878113Y-115016547D01*
X123816524Y-115174513D01*
X123794394Y-115342611D01*
X123250000Y-115342611D01*
X123250000Y-113500000D01*
X104750000Y-113500000D01*
X104750000Y-113507180D01*
X104730359Y-113526821D01*
X104663564Y-113565385D01*
X104586436Y-113565385D01*
X104519641Y-113526821D01*
X104500000Y-113507180D01*
X104500000Y-113500000D01*
X104399000Y-113500000D01*
X104324500Y-113480038D01*
X104269962Y-113425500D01*
X104250000Y-113351000D01*
X104250000Y-113250000D01*
X102877527Y-111983102D01*
X127631971Y-111983102D01*
X127635180Y-111988662D01*
X127808271Y-112094733D01*
X127818676Y-112100034D01*
X128027156Y-112186389D01*
X128038250Y-112189994D01*
X128257680Y-112242675D01*
X128269196Y-112244499D01*
X128494168Y-112262204D01*
X128505832Y-112262204D01*
X128730804Y-112244499D01*
X128742320Y-112242675D01*
X128961750Y-112189994D01*
X128972844Y-112186389D01*
X129181324Y-112100034D01*
X129191729Y-112094733D01*
X129357168Y-111993351D01*
X129368192Y-111981734D01*
X129366368Y-111975578D01*
X128513871Y-111123081D01*
X128500000Y-111115073D01*
X128486129Y-111123081D01*
X127639979Y-111969231D01*
X127631971Y-111983102D01*
X102877527Y-111983102D01*
X101804495Y-110992611D01*
X112294394Y-110992611D01*
X112312999Y-111161135D01*
X112316087Y-111169572D01*
X112316087Y-111169574D01*
X112335581Y-111222844D01*
X112371266Y-111320356D01*
X112376275Y-111327811D01*
X112376276Y-111327812D01*
X112452825Y-111441729D01*
X112465830Y-111461083D01*
X112472472Y-111467126D01*
X112472473Y-111467128D01*
X112490430Y-111483467D01*
X112591233Y-111575191D01*
X112599128Y-111579478D01*
X112599130Y-111579479D01*
X112732344Y-111651808D01*
X112732347Y-111651809D01*
X112740235Y-111656092D01*
X112777743Y-111665932D01*
X112895549Y-111696838D01*
X112895551Y-111696838D01*
X112904233Y-111699116D01*
X112913209Y-111699257D01*
X113064781Y-111701638D01*
X113073760Y-111701779D01*
X113239029Y-111663928D01*
X113390498Y-111587747D01*
X113412279Y-111569144D01*
X113512594Y-111483467D01*
X113512596Y-111483465D01*
X113519423Y-111477634D01*
X113552700Y-111431324D01*
X113613124Y-111347236D01*
X113613126Y-111347232D01*
X113618361Y-111339947D01*
X113665437Y-111222844D01*
X113678251Y-111190969D01*
X113678252Y-111190964D01*
X113681601Y-111182634D01*
X113705490Y-111014778D01*
X113705645Y-111000000D01*
X113685276Y-110831680D01*
X113656615Y-110755832D01*
X126987796Y-110755832D01*
X127005501Y-110980804D01*
X127007325Y-110992320D01*
X127060006Y-111211750D01*
X127063611Y-111222844D01*
X127149966Y-111431324D01*
X127155267Y-111441729D01*
X127256649Y-111607168D01*
X127268266Y-111618192D01*
X127274422Y-111616368D01*
X128126919Y-110763871D01*
X128134927Y-110750000D01*
X128865073Y-110750000D01*
X128873081Y-110763871D01*
X129719231Y-111610021D01*
X129733102Y-111618029D01*
X129738662Y-111614820D01*
X129844733Y-111441729D01*
X129850034Y-111431324D01*
X129936389Y-111222844D01*
X129939994Y-111211750D01*
X129992675Y-110992320D01*
X129994499Y-110980804D01*
X130012204Y-110755832D01*
X130012204Y-110744168D01*
X129994499Y-110519196D01*
X129992675Y-110507680D01*
X129939994Y-110288250D01*
X129936389Y-110277156D01*
X129850034Y-110068676D01*
X129844733Y-110058271D01*
X129743351Y-109892832D01*
X129731734Y-109881808D01*
X129725578Y-109883632D01*
X128873081Y-110736129D01*
X128865073Y-110750000D01*
X128134927Y-110750000D01*
X128126919Y-110736129D01*
X127280769Y-109889979D01*
X127266898Y-109881971D01*
X127261338Y-109885180D01*
X127155267Y-110058271D01*
X127149966Y-110068676D01*
X127063611Y-110277156D01*
X127060006Y-110288250D01*
X127007325Y-110507680D01*
X127005501Y-110519196D01*
X126987796Y-110744168D01*
X126987796Y-110755832D01*
X113656615Y-110755832D01*
X113625345Y-110673077D01*
X113529312Y-110533349D01*
X113522604Y-110527372D01*
X113409428Y-110426535D01*
X113409424Y-110426532D01*
X113402721Y-110420560D01*
X113394783Y-110416357D01*
X113394780Y-110416355D01*
X113260823Y-110345429D01*
X113252881Y-110341224D01*
X113244168Y-110339035D01*
X113244167Y-110339035D01*
X113171691Y-110320830D01*
X113088441Y-110299919D01*
X112984002Y-110299372D01*
X112927873Y-110299078D01*
X112918895Y-110299031D01*
X112910164Y-110301127D01*
X112910165Y-110301127D01*
X112762765Y-110336515D01*
X112762762Y-110336516D01*
X112754032Y-110338612D01*
X112746053Y-110342730D01*
X112746051Y-110342731D01*
X112664298Y-110384927D01*
X112603369Y-110416375D01*
X112596602Y-110422279D01*
X112596598Y-110422281D01*
X112482373Y-110521926D01*
X112475604Y-110527831D01*
X112378113Y-110666547D01*
X112316524Y-110824513D01*
X112294394Y-110992611D01*
X101804495Y-110992611D01*
X101047935Y-110294248D01*
X101006733Y-110229049D01*
X101000000Y-110184763D01*
X101000000Y-109518266D01*
X127631808Y-109518266D01*
X127633632Y-109524422D01*
X128486129Y-110376919D01*
X128500000Y-110384927D01*
X128513871Y-110376919D01*
X129360021Y-109530769D01*
X129368029Y-109516898D01*
X129364820Y-109511338D01*
X129191729Y-109405267D01*
X129181324Y-109399966D01*
X128972844Y-109313611D01*
X128961750Y-109310006D01*
X128742320Y-109257325D01*
X128730804Y-109255501D01*
X128505832Y-109237796D01*
X128494168Y-109237796D01*
X128269196Y-109255501D01*
X128257680Y-109257325D01*
X128038250Y-109310006D01*
X128027156Y-109313611D01*
X127818676Y-109399966D01*
X127808271Y-109405267D01*
X127642832Y-109506649D01*
X127631808Y-109518266D01*
X101000000Y-109518266D01*
X101000000Y-106592611D01*
X113694394Y-106592611D01*
X113712999Y-106761135D01*
X113716087Y-106769572D01*
X113716087Y-106769574D01*
X113722179Y-106786221D01*
X113771266Y-106920356D01*
X113776275Y-106927811D01*
X113776276Y-106927812D01*
X113808209Y-106975333D01*
X113865830Y-107061083D01*
X113872472Y-107067126D01*
X113872473Y-107067128D01*
X113890430Y-107083467D01*
X113991233Y-107175191D01*
X113999128Y-107179478D01*
X113999130Y-107179479D01*
X114132344Y-107251808D01*
X114132347Y-107251809D01*
X114140235Y-107256092D01*
X114177743Y-107265932D01*
X114295549Y-107296838D01*
X114295551Y-107296838D01*
X114304233Y-107299116D01*
X114313209Y-107299257D01*
X114464781Y-107301638D01*
X114473760Y-107301779D01*
X114639029Y-107263928D01*
X114790498Y-107187747D01*
X114812279Y-107169144D01*
X114912594Y-107083467D01*
X114912596Y-107083465D01*
X114919423Y-107077634D01*
X114992934Y-106975333D01*
X115013124Y-106947236D01*
X115013126Y-106947232D01*
X115018361Y-106939947D01*
X115059465Y-106837699D01*
X115078251Y-106790969D01*
X115078252Y-106790964D01*
X115081601Y-106782634D01*
X115105490Y-106614778D01*
X115105645Y-106600000D01*
X115085276Y-106431680D01*
X115025345Y-106273077D01*
X114929312Y-106133349D01*
X114922604Y-106127372D01*
X114809428Y-106026535D01*
X114809424Y-106026532D01*
X114802721Y-106020560D01*
X114794783Y-106016357D01*
X114794780Y-106016355D01*
X114749935Y-105992611D01*
X118544394Y-105992611D01*
X118545380Y-106001542D01*
X118545380Y-106001543D01*
X118547374Y-106019604D01*
X118562999Y-106161135D01*
X118566087Y-106169572D01*
X118566087Y-106169574D01*
X118571766Y-106185092D01*
X118621266Y-106320356D01*
X118626275Y-106327811D01*
X118626276Y-106327812D01*
X118702065Y-106440598D01*
X118715830Y-106461083D01*
X118722472Y-106467126D01*
X118722473Y-106467128D01*
X118740430Y-106483467D01*
X118841233Y-106575191D01*
X118849128Y-106579478D01*
X118849130Y-106579479D01*
X118982344Y-106651808D01*
X118982347Y-106651809D01*
X118990235Y-106656092D01*
X119023295Y-106664765D01*
X119145549Y-106696838D01*
X119145551Y-106696838D01*
X119154233Y-106699116D01*
X119163209Y-106699257D01*
X119314781Y-106701638D01*
X119323760Y-106701779D01*
X119489029Y-106663928D01*
X119497959Y-106659437D01*
X119606439Y-106604877D01*
X119640498Y-106587747D01*
X119662279Y-106569144D01*
X119762594Y-106483467D01*
X119762596Y-106483465D01*
X119769423Y-106477634D01*
X119813606Y-106416147D01*
X119863124Y-106347236D01*
X119863126Y-106347232D01*
X119868361Y-106339947D01*
X119891865Y-106281480D01*
X119928251Y-106190969D01*
X119928252Y-106190964D01*
X119931601Y-106182634D01*
X119955490Y-106014778D01*
X119955645Y-106000000D01*
X119935276Y-105831680D01*
X119875345Y-105673077D01*
X119779312Y-105533349D01*
X119772604Y-105527372D01*
X119659428Y-105426535D01*
X119659424Y-105426532D01*
X119652721Y-105420560D01*
X119644783Y-105416357D01*
X119644780Y-105416355D01*
X119510823Y-105345429D01*
X119502881Y-105341224D01*
X119494168Y-105339035D01*
X119494167Y-105339035D01*
X119421691Y-105320830D01*
X119338441Y-105299919D01*
X119234002Y-105299372D01*
X119177873Y-105299078D01*
X119168895Y-105299031D01*
X119160164Y-105301127D01*
X119160165Y-105301127D01*
X119012765Y-105336515D01*
X119012762Y-105336516D01*
X119004032Y-105338612D01*
X118996053Y-105342730D01*
X118996051Y-105342731D01*
X118861353Y-105412254D01*
X118853369Y-105416375D01*
X118846602Y-105422279D01*
X118846598Y-105422281D01*
X118798923Y-105463871D01*
X118725604Y-105527831D01*
X118628113Y-105666547D01*
X118566524Y-105824513D01*
X118544394Y-105992611D01*
X114749935Y-105992611D01*
X114660823Y-105945429D01*
X114652881Y-105941224D01*
X114644168Y-105939035D01*
X114644167Y-105939035D01*
X114571691Y-105920830D01*
X114488441Y-105899919D01*
X114384002Y-105899372D01*
X114327873Y-105899078D01*
X114318895Y-105899031D01*
X114310164Y-105901127D01*
X114310165Y-105901127D01*
X114162765Y-105936515D01*
X114162762Y-105936516D01*
X114154032Y-105938612D01*
X114146053Y-105942730D01*
X114146051Y-105942731D01*
X114064519Y-105984813D01*
X114003369Y-106016375D01*
X113996602Y-106022279D01*
X113996598Y-106022281D01*
X113991722Y-106026535D01*
X113875604Y-106127831D01*
X113778113Y-106266547D01*
X113716524Y-106424513D01*
X113694394Y-106592611D01*
X101000000Y-106592611D01*
X101000000Y-100792611D01*
X113044394Y-100792611D01*
X113062999Y-100961135D01*
X113066087Y-100969572D01*
X113066087Y-100969574D01*
X113073917Y-100990969D01*
X113121266Y-101120356D01*
X113126275Y-101127811D01*
X113126276Y-101127812D01*
X113205785Y-101246134D01*
X113215830Y-101261083D01*
X113222472Y-101267126D01*
X113222473Y-101267128D01*
X113320414Y-101356247D01*
X113341233Y-101375191D01*
X113349128Y-101379478D01*
X113349130Y-101379479D01*
X113482344Y-101451808D01*
X113482347Y-101451809D01*
X113490235Y-101456092D01*
X113544313Y-101470279D01*
X113645549Y-101496838D01*
X113645551Y-101496838D01*
X113654233Y-101499116D01*
X113663209Y-101499257D01*
X113814781Y-101501638D01*
X113823760Y-101501779D01*
X113989029Y-101463928D01*
X114140498Y-101387747D01*
X114199161Y-101337644D01*
X114262594Y-101283467D01*
X114262596Y-101283465D01*
X114269423Y-101277634D01*
X114309308Y-101222128D01*
X114363124Y-101147236D01*
X114363126Y-101147232D01*
X114368361Y-101139947D01*
X114392291Y-101080420D01*
X114428251Y-100990969D01*
X114428252Y-100990964D01*
X114431601Y-100982634D01*
X114455490Y-100814778D01*
X114455645Y-100800000D01*
X114450939Y-100761111D01*
X120044394Y-100761111D01*
X120062999Y-100929635D01*
X120066087Y-100938072D01*
X120066087Y-100938074D01*
X120071257Y-100952202D01*
X120121266Y-101088856D01*
X120126275Y-101096311D01*
X120126276Y-101096312D01*
X120155598Y-101139947D01*
X120215830Y-101229583D01*
X120222472Y-101235626D01*
X120222473Y-101235628D01*
X120275048Y-101283467D01*
X120341233Y-101343691D01*
X120349128Y-101347978D01*
X120349130Y-101347979D01*
X120482344Y-101420308D01*
X120482347Y-101420309D01*
X120490235Y-101424592D01*
X120527743Y-101434432D01*
X120645549Y-101465338D01*
X120645551Y-101465338D01*
X120654233Y-101467616D01*
X120663209Y-101467757D01*
X120814781Y-101470138D01*
X120823760Y-101470279D01*
X120989029Y-101432428D01*
X121140498Y-101356247D01*
X121225712Y-101283467D01*
X121262594Y-101251967D01*
X121262596Y-101251965D01*
X121269423Y-101246134D01*
X121286866Y-101221860D01*
X121363124Y-101115736D01*
X121363126Y-101115732D01*
X121368361Y-101108447D01*
X121379628Y-101080420D01*
X121428251Y-100959469D01*
X121428252Y-100959464D01*
X121431601Y-100951134D01*
X121455490Y-100783278D01*
X121455645Y-100768500D01*
X121435276Y-100600180D01*
X121375345Y-100441577D01*
X121279312Y-100301849D01*
X121272604Y-100295872D01*
X121159428Y-100195035D01*
X121159424Y-100195032D01*
X121152721Y-100189060D01*
X121144783Y-100184857D01*
X121144780Y-100184855D01*
X121010823Y-100113929D01*
X121002881Y-100109724D01*
X120994168Y-100107535D01*
X120994167Y-100107535D01*
X120921691Y-100089330D01*
X120838441Y-100068419D01*
X120734002Y-100067872D01*
X120677873Y-100067578D01*
X120668895Y-100067531D01*
X120660164Y-100069627D01*
X120660165Y-100069627D01*
X120512765Y-100105015D01*
X120512762Y-100105016D01*
X120504032Y-100107112D01*
X120496053Y-100111230D01*
X120496051Y-100111231D01*
X120442182Y-100139035D01*
X120353369Y-100184875D01*
X120346602Y-100190779D01*
X120346598Y-100190781D01*
X120232373Y-100290426D01*
X120225604Y-100296331D01*
X120128113Y-100435047D01*
X120066524Y-100593013D01*
X120044394Y-100761111D01*
X114450939Y-100761111D01*
X114435276Y-100631680D01*
X114375345Y-100473077D01*
X114279312Y-100333349D01*
X114272604Y-100327372D01*
X114159428Y-100226535D01*
X114159424Y-100226532D01*
X114152721Y-100220560D01*
X114144783Y-100216357D01*
X114144780Y-100216355D01*
X114010823Y-100145429D01*
X114002881Y-100141224D01*
X113994168Y-100139035D01*
X113994167Y-100139035D01*
X113883475Y-100111231D01*
X113838441Y-100099919D01*
X113734002Y-100099372D01*
X113677873Y-100099078D01*
X113668895Y-100099031D01*
X113660164Y-100101127D01*
X113660165Y-100101127D01*
X113512765Y-100136515D01*
X113512762Y-100136516D01*
X113504032Y-100138612D01*
X113496053Y-100142730D01*
X113496051Y-100142731D01*
X113402956Y-100190781D01*
X113353369Y-100216375D01*
X113346602Y-100222279D01*
X113346598Y-100222281D01*
X113341722Y-100226535D01*
X113225604Y-100327831D01*
X113128113Y-100466547D01*
X113066524Y-100624513D01*
X113044394Y-100792611D01*
X101000000Y-100792611D01*
X101000000Y-94192611D01*
X106044394Y-94192611D01*
X106062999Y-94361135D01*
X106066087Y-94369572D01*
X106066087Y-94369574D01*
X106073917Y-94390969D01*
X106121266Y-94520356D01*
X106126275Y-94527811D01*
X106126276Y-94527812D01*
X106186294Y-94617128D01*
X106215830Y-94661083D01*
X106222472Y-94667126D01*
X106222473Y-94667128D01*
X106300083Y-94737747D01*
X106341233Y-94775191D01*
X106349128Y-94779478D01*
X106349130Y-94779479D01*
X106482344Y-94851808D01*
X106482347Y-94851809D01*
X106490235Y-94856092D01*
X106527743Y-94865932D01*
X106645549Y-94896838D01*
X106645551Y-94896838D01*
X106654233Y-94899116D01*
X106663209Y-94899257D01*
X106814781Y-94901638D01*
X106823760Y-94901779D01*
X106989029Y-94863928D01*
X107018480Y-94849116D01*
X107088443Y-94813928D01*
X107140498Y-94787747D01*
X107162279Y-94769144D01*
X107262594Y-94683467D01*
X107262596Y-94683465D01*
X107269423Y-94677634D01*
X107322602Y-94603628D01*
X107363124Y-94547236D01*
X107363126Y-94547232D01*
X107368361Y-94539947D01*
X107391810Y-94481616D01*
X107428251Y-94390969D01*
X107428252Y-94390964D01*
X107431601Y-94382634D01*
X107455490Y-94214778D01*
X107455645Y-94200000D01*
X107448700Y-94142611D01*
X113044394Y-94142611D01*
X113062999Y-94311135D01*
X113066087Y-94319572D01*
X113066087Y-94319574D01*
X113084385Y-94369574D01*
X113121266Y-94470356D01*
X113126275Y-94477811D01*
X113126276Y-94477812D01*
X113162431Y-94531616D01*
X113215830Y-94611083D01*
X113222472Y-94617126D01*
X113222473Y-94617128D01*
X113288969Y-94677634D01*
X113341233Y-94725191D01*
X113349128Y-94729478D01*
X113349130Y-94729479D01*
X113482344Y-94801808D01*
X113482347Y-94801809D01*
X113490235Y-94806092D01*
X113527743Y-94815932D01*
X113645549Y-94846838D01*
X113645551Y-94846838D01*
X113654233Y-94849116D01*
X113663209Y-94849257D01*
X113814781Y-94851638D01*
X113823760Y-94851779D01*
X113989029Y-94813928D01*
X114033058Y-94791784D01*
X114132471Y-94741784D01*
X114140498Y-94737747D01*
X114162279Y-94719144D01*
X114262594Y-94633467D01*
X114262596Y-94633465D01*
X114269423Y-94627634D01*
X114327195Y-94547236D01*
X114363124Y-94497236D01*
X114363126Y-94497232D01*
X114368361Y-94489947D01*
X114379628Y-94461920D01*
X114428251Y-94340969D01*
X114428252Y-94340964D01*
X114431601Y-94332634D01*
X114455490Y-94164778D01*
X114455645Y-94150000D01*
X114435276Y-93981680D01*
X114375345Y-93823077D01*
X114279312Y-93683349D01*
X114272604Y-93677372D01*
X114159428Y-93576535D01*
X114159424Y-93576532D01*
X114152721Y-93570560D01*
X114144783Y-93566357D01*
X114144780Y-93566355D01*
X114010823Y-93495429D01*
X114002881Y-93491224D01*
X113994168Y-93489035D01*
X113994167Y-93489035D01*
X113921691Y-93470830D01*
X113838441Y-93449919D01*
X113734002Y-93449372D01*
X113677873Y-93449078D01*
X113668895Y-93449031D01*
X113660164Y-93451127D01*
X113660165Y-93451127D01*
X113512765Y-93486515D01*
X113512762Y-93486516D01*
X113504032Y-93488612D01*
X113496053Y-93492730D01*
X113496051Y-93492731D01*
X113406339Y-93539035D01*
X113353369Y-93566375D01*
X113346602Y-93572279D01*
X113346598Y-93572281D01*
X113291255Y-93620560D01*
X113225604Y-93677831D01*
X113128113Y-93816547D01*
X113066524Y-93974513D01*
X113044394Y-94142611D01*
X107448700Y-94142611D01*
X107435276Y-94031680D01*
X107375345Y-93873077D01*
X107279312Y-93733349D01*
X107272604Y-93727372D01*
X107159428Y-93626535D01*
X107159424Y-93626532D01*
X107152721Y-93620560D01*
X107144783Y-93616357D01*
X107144780Y-93616355D01*
X107010823Y-93545429D01*
X107002881Y-93541224D01*
X106994168Y-93539035D01*
X106994167Y-93539035D01*
X106921691Y-93520830D01*
X106838441Y-93499919D01*
X106734002Y-93499372D01*
X106677873Y-93499078D01*
X106668895Y-93499031D01*
X106660164Y-93501127D01*
X106660165Y-93501127D01*
X106512765Y-93536515D01*
X106512762Y-93536516D01*
X106504032Y-93538612D01*
X106496053Y-93542730D01*
X106496051Y-93542731D01*
X106361353Y-93612254D01*
X106353369Y-93616375D01*
X106346602Y-93622279D01*
X106346598Y-93622281D01*
X106282920Y-93677831D01*
X106225604Y-93727831D01*
X106128113Y-93866547D01*
X106066524Y-94024513D01*
X106044394Y-94192611D01*
X101000000Y-94192611D01*
X101000000Y-89750000D01*
X100000000Y-89750000D01*
X100000000Y-110500000D01*
X101456359Y-111956359D01*
X101494923Y-112023154D01*
X101500000Y-112061718D01*
X101500000Y-116445500D01*
X101480038Y-116520000D01*
X101425500Y-116574538D01*
X101351000Y-116594500D01*
X91869000Y-116594500D01*
X91865042Y-116594926D01*
X91865033Y-116594926D01*
X91825901Y-116599134D01*
X91782803Y-116603767D01*
X91733369Y-116614521D01*
X91730064Y-116615569D01*
X91670605Y-116634420D01*
X91670602Y-116634421D01*
X91661718Y-116637238D01*
X91653809Y-116642163D01*
X91653806Y-116642164D01*
X91578146Y-116689275D01*
X91554020Y-116704297D01*
X91549601Y-116708126D01*
X91549597Y-116708129D01*
X91518670Y-116734928D01*
X91503345Y-116748207D01*
X91434163Y-116825781D01*
X91379817Y-116940420D01*
X91360926Y-117004756D01*
X91344500Y-117119000D01*
X91344500Y-126850011D01*
X91345000Y-126854298D01*
X91345000Y-126854305D01*
X91354867Y-126938966D01*
X91355368Y-126943264D01*
X91367955Y-126996530D01*
X91394943Y-127074356D01*
X91465803Y-127179591D01*
X91511494Y-127228667D01*
X91515174Y-127231720D01*
X91515178Y-127231724D01*
X91583291Y-127288236D01*
X91591491Y-127295039D01*
X91707997Y-127345258D01*
X91713661Y-127346704D01*
X91713665Y-127346705D01*
X91745046Y-127354714D01*
X91772966Y-127361840D01*
X91795494Y-127364588D01*
X91806178Y-127365891D01*
X91877713Y-127394727D01*
X91911810Y-127430692D01*
X91960583Y-127503274D01*
X91965830Y-127511083D01*
X91972476Y-127517130D01*
X92048785Y-127586566D01*
X92090452Y-127651470D01*
X92097213Y-127695945D01*
X92097207Y-127696032D01*
X92103140Y-127799797D01*
X92145772Y-127919287D01*
X92148575Y-127924421D01*
X92148578Y-127924427D01*
X92175350Y-127973457D01*
X92177906Y-127978138D01*
X92247076Y-128070540D01*
X92678414Y-128501878D01*
X92710716Y-128530892D01*
X92712268Y-128532143D01*
X92712272Y-128532146D01*
X92729380Y-128545932D01*
X92729394Y-128545943D01*
X92730526Y-128546855D01*
X92756073Y-128565837D01*
X92762694Y-128568976D01*
X92762696Y-128568977D01*
X92865425Y-128617677D01*
X92865429Y-128617679D01*
X92870712Y-128620183D01*
X92935048Y-128639074D01*
X93049292Y-128655500D01*
X101351000Y-128655500D01*
X101425500Y-128675462D01*
X101480038Y-128730000D01*
X101500000Y-128804500D01*
X101500000Y-140200000D01*
X103450500Y-140200000D01*
X103525000Y-140219962D01*
X103579538Y-140274500D01*
X103599500Y-140349000D01*
X103599500Y-146166591D01*
X103579538Y-146241091D01*
X103525000Y-146295629D01*
X103450500Y-146315591D01*
X76438247Y-146315591D01*
X76363747Y-146295629D01*
X76309209Y-146241091D01*
X76289247Y-146166591D01*
X76289247Y-143747948D01*
X77919636Y-143747948D01*
X77949301Y-143944098D01*
X77951906Y-143951177D01*
X77990836Y-144056988D01*
X78000000Y-144108437D01*
X78000000Y-144600000D01*
X78490111Y-144600000D01*
X78549286Y-144612255D01*
X78596276Y-144632590D01*
X78596284Y-144632593D01*
X78603213Y-144635591D01*
X78610607Y-144637136D01*
X78610608Y-144637136D01*
X78670720Y-144649694D01*
X78797402Y-144676159D01*
X78803909Y-144676500D01*
X78949578Y-144676500D01*
X78953327Y-144676119D01*
X78953331Y-144676119D01*
X79089856Y-144662251D01*
X79089858Y-144662251D01*
X79097365Y-144661488D01*
X79271817Y-144606818D01*
X79316374Y-144600000D01*
X79800000Y-144600000D01*
X79800000Y-144117407D01*
X79814271Y-144056078D01*
X79814013Y-144055982D01*
X79814761Y-144053970D01*
X79815307Y-144051625D01*
X79816644Y-144048908D01*
X79816645Y-144048906D01*
X79819976Y-144042136D01*
X79869982Y-143850161D01*
X79880364Y-143652052D01*
X79850699Y-143455902D01*
X79809164Y-143343012D01*
X79800000Y-143291563D01*
X79800000Y-142800000D01*
X79309889Y-142800000D01*
X79250714Y-142787745D01*
X79203724Y-142767410D01*
X79203716Y-142767407D01*
X79196787Y-142764409D01*
X79189393Y-142762864D01*
X79189392Y-142762864D01*
X79069172Y-142737749D01*
X79002598Y-142723841D01*
X78996091Y-142723500D01*
X78850422Y-142723500D01*
X78846673Y-142723881D01*
X78846669Y-142723881D01*
X78710144Y-142737749D01*
X78710142Y-142737749D01*
X78702635Y-142738512D01*
X78528183Y-142793182D01*
X78483626Y-142800000D01*
X78000000Y-142800000D01*
X78000000Y-143282593D01*
X77985729Y-143343922D01*
X77985987Y-143344018D01*
X77985239Y-143346030D01*
X77984693Y-143348375D01*
X77980024Y-143357864D01*
X77930018Y-143549839D01*
X77919636Y-143747948D01*
X76289247Y-143747948D01*
X76289247Y-137869754D01*
X82074967Y-137869754D01*
X82075414Y-137876572D01*
X82088010Y-138068751D01*
X82088796Y-138080749D01*
X82140845Y-138285690D01*
X82143703Y-138291890D01*
X82143705Y-138291895D01*
X82182435Y-138375907D01*
X82229369Y-138477714D01*
X82351405Y-138650391D01*
X82502865Y-138797937D01*
X82678677Y-138915411D01*
X82872953Y-138998878D01*
X83079186Y-139045544D01*
X83130544Y-139047562D01*
X83283641Y-139053578D01*
X83283645Y-139053578D01*
X83290470Y-139053846D01*
X83499730Y-139023504D01*
X83506187Y-139021312D01*
X83506192Y-139021311D01*
X83642083Y-138975182D01*
X83699955Y-138955537D01*
X83800909Y-138899000D01*
X83878481Y-138855558D01*
X83878486Y-138855554D01*
X83884442Y-138852219D01*
X84047012Y-138717012D01*
X84182219Y-138554442D01*
X84185554Y-138548486D01*
X84185558Y-138548481D01*
X84232470Y-138464713D01*
X84285537Y-138369955D01*
X84316389Y-138279068D01*
X84351311Y-138176192D01*
X84351312Y-138176187D01*
X84353504Y-138169730D01*
X84354483Y-138162977D01*
X84356079Y-138156329D01*
X84357585Y-138156691D01*
X84384723Y-138093523D01*
X84446521Y-138047374D01*
X84523114Y-138038306D01*
X84593979Y-138068751D01*
X84640128Y-138130549D01*
X84646152Y-138149088D01*
X84651395Y-138169730D01*
X84680845Y-138285690D01*
X84683703Y-138291890D01*
X84683705Y-138291895D01*
X84722435Y-138375907D01*
X84769369Y-138477714D01*
X84891405Y-138650391D01*
X85042865Y-138797937D01*
X85218677Y-138915411D01*
X85412953Y-138998878D01*
X85619186Y-139045544D01*
X85670544Y-139047562D01*
X85823641Y-139053578D01*
X85823645Y-139053578D01*
X85830470Y-139053846D01*
X86039730Y-139023504D01*
X86046187Y-139021312D01*
X86046192Y-139021311D01*
X86182083Y-138975182D01*
X86239955Y-138955537D01*
X86340909Y-138899000D01*
X86418481Y-138855558D01*
X86418486Y-138855554D01*
X86424442Y-138852219D01*
X86587012Y-138717012D01*
X86722219Y-138554442D01*
X86725554Y-138548486D01*
X86725558Y-138548481D01*
X86772470Y-138464713D01*
X86825537Y-138369955D01*
X86856389Y-138279068D01*
X86891311Y-138176192D01*
X86891312Y-138176187D01*
X86893504Y-138169730D01*
X86923846Y-137960470D01*
X86925429Y-137900000D01*
X86906081Y-137689440D01*
X86848686Y-137485931D01*
X86755165Y-137296290D01*
X86751084Y-137290825D01*
X86751081Y-137290820D01*
X86632739Y-137132341D01*
X86632737Y-137132339D01*
X86628651Y-137126867D01*
X86473381Y-136983337D01*
X86294554Y-136870505D01*
X86288215Y-136867976D01*
X86288209Y-136867973D01*
X86104504Y-136794683D01*
X86098160Y-136792152D01*
X86043713Y-136781322D01*
X85897478Y-136752234D01*
X85897475Y-136752234D01*
X85890775Y-136750901D01*
X85785061Y-136749517D01*
X85686180Y-136748222D01*
X85686175Y-136748222D01*
X85679346Y-136748133D01*
X85672613Y-136749290D01*
X85672612Y-136749290D01*
X85477684Y-136782784D01*
X85477680Y-136782785D01*
X85470953Y-136783941D01*
X85272575Y-136857127D01*
X85266702Y-136860621D01*
X85250089Y-136870505D01*
X85090856Y-136965238D01*
X85058641Y-136993489D01*
X84937022Y-137100146D01*
X84937019Y-137100149D01*
X84931881Y-137104655D01*
X84876189Y-137175300D01*
X84805207Y-137265340D01*
X84805203Y-137265346D01*
X84800976Y-137270708D01*
X84797797Y-137276751D01*
X84797794Y-137276755D01*
X84784295Y-137302413D01*
X84702523Y-137457836D01*
X84700499Y-137464356D01*
X84700496Y-137464362D01*
X84641153Y-137655480D01*
X84599997Y-137720710D01*
X84531739Y-137756622D01*
X84454671Y-137753594D01*
X84389441Y-137712438D01*
X84355449Y-137651741D01*
X84310541Y-137492509D01*
X84308686Y-137485931D01*
X84215165Y-137296290D01*
X84211084Y-137290825D01*
X84211081Y-137290820D01*
X84092739Y-137132341D01*
X84092737Y-137132339D01*
X84088651Y-137126867D01*
X83933381Y-136983337D01*
X83754554Y-136870505D01*
X83748215Y-136867976D01*
X83748209Y-136867973D01*
X83564504Y-136794683D01*
X83558160Y-136792152D01*
X83503713Y-136781322D01*
X83357478Y-136752234D01*
X83357475Y-136752234D01*
X83350775Y-136750901D01*
X83245061Y-136749517D01*
X83146180Y-136748222D01*
X83146175Y-136748222D01*
X83139346Y-136748133D01*
X83132613Y-136749290D01*
X83132612Y-136749290D01*
X82937684Y-136782784D01*
X82937680Y-136782785D01*
X82930953Y-136783941D01*
X82732575Y-136857127D01*
X82726702Y-136860621D01*
X82710089Y-136870505D01*
X82550856Y-136965238D01*
X82518641Y-136993489D01*
X82397022Y-137100146D01*
X82397019Y-137100149D01*
X82391881Y-137104655D01*
X82336189Y-137175300D01*
X82265207Y-137265340D01*
X82265203Y-137265346D01*
X82260976Y-137270708D01*
X82257797Y-137276751D01*
X82257794Y-137276755D01*
X82244295Y-137302413D01*
X82162523Y-137457836D01*
X82151757Y-137492509D01*
X82101844Y-137653253D01*
X82101843Y-137653258D01*
X82099820Y-137659773D01*
X82099018Y-137666550D01*
X82099017Y-137666554D01*
X82088357Y-137756622D01*
X82074967Y-137869754D01*
X76289247Y-137869754D01*
X76289247Y-132322110D01*
X88189754Y-132322110D01*
X88190995Y-132353709D01*
X88200876Y-132605192D01*
X88251774Y-132883883D01*
X88253442Y-132888884D01*
X88253444Y-132888890D01*
X88339762Y-133147618D01*
X88339765Y-133147625D01*
X88341432Y-133152622D01*
X88468061Y-133406047D01*
X88629135Y-133639101D01*
X88821439Y-133847135D01*
X89041138Y-134025997D01*
X89045648Y-134028712D01*
X89209308Y-134127244D01*
X89283846Y-134172120D01*
X89544722Y-134282586D01*
X89549821Y-134283938D01*
X89549824Y-134283939D01*
X89746803Y-134336167D01*
X89818560Y-134355193D01*
X90099897Y-134388492D01*
X90210181Y-134385893D01*
X90377863Y-134381941D01*
X90377865Y-134381941D01*
X90383119Y-134381817D01*
X90551204Y-134353840D01*
X90657385Y-134336167D01*
X90657389Y-134336166D01*
X90662574Y-134335303D01*
X90750380Y-134307534D01*
X90927675Y-134251463D01*
X90927682Y-134251460D01*
X90932688Y-134249877D01*
X90937422Y-134247604D01*
X90937429Y-134247601D01*
X91100271Y-134169405D01*
X91188071Y-134127244D01*
X91192448Y-134124320D01*
X91192454Y-134124316D01*
X91419243Y-133972780D01*
X91423627Y-133969851D01*
X91634655Y-133780838D01*
X91816947Y-133563976D01*
X91824749Y-133551466D01*
X91964075Y-133328064D01*
X91964077Y-133328060D01*
X91966863Y-133323593D01*
X92081414Y-133064484D01*
X92132349Y-132883883D01*
X92156886Y-132796881D01*
X92156887Y-132796876D01*
X92158313Y-132791820D01*
X92184088Y-132599922D01*
X92195520Y-132514810D01*
X92195520Y-132514805D01*
X92196026Y-132511041D01*
X92199984Y-132385108D01*
X92195524Y-132322110D01*
X92180347Y-132107770D01*
X92179975Y-132102515D01*
X92120349Y-131825561D01*
X92022294Y-131559771D01*
X91994167Y-131507641D01*
X91890266Y-131315079D01*
X91890264Y-131315076D01*
X91887767Y-131310448D01*
X91852244Y-131262353D01*
X91722580Y-131086803D01*
X91719452Y-131082568D01*
X91715761Y-131078819D01*
X91715758Y-131078815D01*
X91621497Y-130983063D01*
X91520708Y-130880678D01*
X91467092Y-130839759D01*
X91299689Y-130712001D01*
X91295500Y-130708804D01*
X91048321Y-130570378D01*
X90784104Y-130468160D01*
X90508121Y-130404190D01*
X90502880Y-130403736D01*
X90502873Y-130403735D01*
X90231134Y-130380200D01*
X90231130Y-130380200D01*
X90225877Y-130379745D01*
X89943004Y-130395313D01*
X89937836Y-130396341D01*
X89670324Y-130449552D01*
X89670318Y-130449554D01*
X89665148Y-130450582D01*
X89660170Y-130452330D01*
X89660167Y-130452331D01*
X89402816Y-130542706D01*
X89397850Y-130544450D01*
X89393187Y-130546872D01*
X89393183Y-130546874D01*
X89151115Y-130672618D01*
X89151108Y-130672622D01*
X89146446Y-130675044D01*
X88915950Y-130839759D01*
X88912144Y-130843389D01*
X88912140Y-130843393D01*
X88786960Y-130962809D01*
X88710962Y-131035307D01*
X88707700Y-131039445D01*
X88707698Y-131039447D01*
X88670366Y-131086803D01*
X88535573Y-131257788D01*
X88507445Y-131306214D01*
X88433523Y-131433481D01*
X88393281Y-131502762D01*
X88286926Y-131765340D01*
X88218629Y-132040285D01*
X88218092Y-132045526D01*
X88218091Y-132045532D01*
X88190290Y-132316876D01*
X88189754Y-132322110D01*
X76289247Y-132322110D01*
X76289247Y-129681683D01*
X76309209Y-129607183D01*
X76363747Y-129552645D01*
X76438247Y-129532683D01*
X79151127Y-129532683D01*
X79174433Y-129534517D01*
X79194374Y-129537675D01*
X79196408Y-129537353D01*
X79570859Y-129518362D01*
X79574589Y-129517791D01*
X79574595Y-129517790D01*
X79939746Y-129461851D01*
X79939748Y-129461850D01*
X79943479Y-129461279D01*
X79947138Y-129460332D01*
X79947141Y-129460331D01*
X80304749Y-129367739D01*
X80304755Y-129367737D01*
X80308413Y-129366790D01*
X80311955Y-129365478D01*
X80311962Y-129365476D01*
X80658363Y-129237183D01*
X80658365Y-129237182D01*
X80661916Y-129235867D01*
X80665308Y-129234203D01*
X80665313Y-129234201D01*
X80873289Y-129132183D01*
X81000359Y-129069852D01*
X81003551Y-129067863D01*
X81003559Y-129067858D01*
X81317057Y-128872453D01*
X81317061Y-128872450D01*
X81320270Y-128870450D01*
X81323264Y-128868133D01*
X81323269Y-128868129D01*
X81593984Y-128658579D01*
X81618367Y-128639705D01*
X81621096Y-128637111D01*
X81621104Y-128637104D01*
X81825358Y-128442945D01*
X81891591Y-128379986D01*
X81894045Y-128377127D01*
X81894053Y-128377119D01*
X82134669Y-128096834D01*
X82134670Y-128096833D01*
X82137137Y-128093959D01*
X82139299Y-128090853D01*
X82350331Y-127787655D01*
X82350333Y-127787651D01*
X82352487Y-127784557D01*
X82401623Y-127696032D01*
X82533603Y-127458249D01*
X82533605Y-127458246D01*
X82535430Y-127454957D01*
X82632538Y-127228667D01*
X82682604Y-127112000D01*
X82682605Y-127111996D01*
X82684089Y-127108539D01*
X82687935Y-127096283D01*
X82766558Y-126845691D01*
X82782114Y-126796111D01*
X88494394Y-126796111D01*
X88512999Y-126964635D01*
X88516087Y-126973072D01*
X88516087Y-126973074D01*
X88538838Y-127035243D01*
X88571266Y-127123856D01*
X88576275Y-127131311D01*
X88576276Y-127131312D01*
X88643750Y-127231724D01*
X88665830Y-127264583D01*
X88672472Y-127270626D01*
X88672473Y-127270628D01*
X88771414Y-127360657D01*
X88791233Y-127378691D01*
X88799128Y-127382978D01*
X88799130Y-127382979D01*
X88932344Y-127455308D01*
X88932347Y-127455309D01*
X88940235Y-127459592D01*
X88977743Y-127469432D01*
X89095549Y-127500338D01*
X89095551Y-127500338D01*
X89104233Y-127502616D01*
X89113209Y-127502757D01*
X89264781Y-127505138D01*
X89273760Y-127505279D01*
X89439029Y-127467428D01*
X89457280Y-127458249D01*
X89582471Y-127395284D01*
X89590498Y-127391247D01*
X89698204Y-127299257D01*
X89712594Y-127286967D01*
X89712596Y-127286965D01*
X89719423Y-127281134D01*
X89757124Y-127228667D01*
X89813124Y-127150736D01*
X89813126Y-127150732D01*
X89818361Y-127143447D01*
X89837321Y-127096283D01*
X89878251Y-126994469D01*
X89878252Y-126994464D01*
X89881601Y-126986134D01*
X89905490Y-126818278D01*
X89905645Y-126803500D01*
X89885276Y-126635180D01*
X89825345Y-126476577D01*
X89729312Y-126336849D01*
X89722604Y-126330872D01*
X89609428Y-126230035D01*
X89609424Y-126230032D01*
X89602721Y-126224060D01*
X89594783Y-126219857D01*
X89594780Y-126219855D01*
X89460823Y-126148929D01*
X89452881Y-126144724D01*
X89444168Y-126142535D01*
X89444167Y-126142535D01*
X89371691Y-126124330D01*
X89288441Y-126103419D01*
X89184002Y-126102872D01*
X89127873Y-126102578D01*
X89118895Y-126102531D01*
X89110164Y-126104627D01*
X89110165Y-126104627D01*
X88962765Y-126140015D01*
X88962762Y-126140016D01*
X88954032Y-126142112D01*
X88946053Y-126146230D01*
X88946051Y-126146231D01*
X88940824Y-126148929D01*
X88803369Y-126219875D01*
X88796602Y-126225779D01*
X88796598Y-126225781D01*
X88791722Y-126230035D01*
X88675604Y-126331331D01*
X88578113Y-126470047D01*
X88516524Y-126628013D01*
X88494394Y-126796111D01*
X82782114Y-126796111D01*
X82796939Y-126748859D01*
X82872822Y-126379608D01*
X82877732Y-126331331D01*
X82900994Y-126102578D01*
X82910960Y-126004574D01*
X82910960Y-125627606D01*
X82872822Y-125252572D01*
X82796939Y-124883321D01*
X82684089Y-124523641D01*
X82535430Y-124177223D01*
X82533603Y-124173931D01*
X82354319Y-123850923D01*
X82354316Y-123850918D01*
X82352487Y-123847623D01*
X82287643Y-123754458D01*
X82139299Y-123541327D01*
X82139297Y-123541325D01*
X82137137Y-123538221D01*
X81973315Y-123347391D01*
X81894053Y-123255061D01*
X81894045Y-123255053D01*
X81891591Y-123252194D01*
X81693731Y-123064114D01*
X81621104Y-122995076D01*
X81621096Y-122995069D01*
X81618367Y-122992475D01*
X81501234Y-122901807D01*
X81323269Y-122764051D01*
X81323264Y-122764047D01*
X81320270Y-122761730D01*
X81317061Y-122759730D01*
X81317057Y-122759727D01*
X81003559Y-122564322D01*
X81003551Y-122564317D01*
X81000359Y-122562328D01*
X80805854Y-122466918D01*
X80665313Y-122397979D01*
X80665308Y-122397977D01*
X80661916Y-122396313D01*
X80658349Y-122394992D01*
X80311962Y-122266704D01*
X80311955Y-122266702D01*
X80308413Y-122265390D01*
X80304755Y-122264443D01*
X80304749Y-122264441D01*
X79947141Y-122171849D01*
X79947138Y-122171848D01*
X79943479Y-122170901D01*
X79939748Y-122170330D01*
X79939746Y-122170329D01*
X79574595Y-122114390D01*
X79574589Y-122114389D01*
X79570859Y-122113818D01*
X79196380Y-122094826D01*
X79194374Y-122094508D01*
X79174433Y-122097666D01*
X79151127Y-122099500D01*
X76438247Y-122099500D01*
X76363747Y-122079538D01*
X76309209Y-122025000D01*
X76289247Y-121950500D01*
X76289247Y-107990000D01*
X81519437Y-107990000D01*
X81539651Y-108221050D01*
X81599680Y-108445079D01*
X81697699Y-108655281D01*
X81701430Y-108660609D01*
X81701432Y-108660613D01*
X81779810Y-108772548D01*
X81830730Y-108845269D01*
X81994731Y-109009270D01*
X82097562Y-109081273D01*
X82179386Y-109138568D01*
X82179390Y-109138570D01*
X82184718Y-109142301D01*
X82394921Y-109240320D01*
X82401202Y-109242003D01*
X82612672Y-109298667D01*
X82612674Y-109298667D01*
X82618950Y-109300349D01*
X82625421Y-109300915D01*
X82625426Y-109300916D01*
X82843519Y-109319996D01*
X82850000Y-109320563D01*
X82856481Y-109319996D01*
X83074574Y-109300916D01*
X83074579Y-109300915D01*
X83081050Y-109300349D01*
X83087326Y-109298667D01*
X83087328Y-109298667D01*
X83298798Y-109242003D01*
X83305079Y-109240320D01*
X83515282Y-109142301D01*
X83520610Y-109138570D01*
X83520614Y-109138568D01*
X83602438Y-109081273D01*
X83705269Y-109009270D01*
X83869270Y-108845269D01*
X83920190Y-108772548D01*
X83998568Y-108660613D01*
X83998570Y-108660609D01*
X84002301Y-108655281D01*
X84100320Y-108445079D01*
X84160349Y-108221050D01*
X84180563Y-107990000D01*
X84160349Y-107758950D01*
X84100320Y-107534921D01*
X84002301Y-107324719D01*
X83998570Y-107319391D01*
X83998568Y-107319387D01*
X83872999Y-107140057D01*
X83869270Y-107134731D01*
X83705269Y-106970730D01*
X83699935Y-106966995D01*
X83699934Y-106966994D01*
X83615855Y-106908121D01*
X83566278Y-106849037D01*
X83552885Y-106773081D01*
X83579265Y-106700605D01*
X83614793Y-106664765D01*
X83651797Y-106638370D01*
X83661986Y-106626010D01*
X83659111Y-106618321D01*
X82863871Y-105823081D01*
X82850000Y-105815073D01*
X82836129Y-105823081D01*
X82042965Y-106616245D01*
X82034957Y-106630116D01*
X82037942Y-106635286D01*
X82074750Y-106656795D01*
X82129002Y-106711617D01*
X82148574Y-106786221D01*
X82128222Y-106860615D01*
X82085039Y-106907494D01*
X82000064Y-106966995D01*
X82000058Y-106967000D01*
X81994731Y-106970730D01*
X81830730Y-107134731D01*
X81827001Y-107140057D01*
X81701432Y-107319387D01*
X81701430Y-107319391D01*
X81697699Y-107324719D01*
X81599680Y-107534921D01*
X81539651Y-107758950D01*
X81519437Y-107990000D01*
X76289247Y-107990000D01*
X76289247Y-105420968D01*
X81412870Y-105420968D01*
X81425731Y-105644018D01*
X81427426Y-105656079D01*
X81476543Y-105874031D01*
X81480186Y-105885657D01*
X81564243Y-106092662D01*
X81569734Y-106103533D01*
X81661134Y-106252683D01*
X81672751Y-106263707D01*
X81678907Y-106261883D01*
X82476919Y-105463871D01*
X82484927Y-105450000D01*
X83215073Y-105450000D01*
X83223081Y-105463871D01*
X84013157Y-106253947D01*
X84027028Y-106261955D01*
X84034228Y-106257799D01*
X84078959Y-106195549D01*
X84085242Y-106185092D01*
X84184226Y-105984813D01*
X84188714Y-105973479D01*
X84253660Y-105759716D01*
X84256235Y-105747803D01*
X84285676Y-105524173D01*
X84286291Y-105516285D01*
X84287814Y-105453956D01*
X84287586Y-105446051D01*
X84269104Y-105221241D01*
X84267115Y-105209227D01*
X84212687Y-104992541D01*
X84208758Y-104981002D01*
X84119674Y-104776122D01*
X84113914Y-104765379D01*
X84038119Y-104648218D01*
X84026234Y-104637479D01*
X84019582Y-104639628D01*
X83223081Y-105436129D01*
X83215073Y-105450000D01*
X82484927Y-105450000D01*
X82476919Y-105436129D01*
X81686934Y-104646144D01*
X81673063Y-104638136D01*
X81666466Y-104641945D01*
X81603187Y-104734709D01*
X81597172Y-104745297D01*
X81503106Y-104947945D01*
X81498896Y-104959386D01*
X81439190Y-105174676D01*
X81436909Y-105186639D01*
X81413168Y-105408791D01*
X81412870Y-105420968D01*
X76289247Y-105420968D01*
X76289247Y-101649000D01*
X76309209Y-101574500D01*
X76363747Y-101519962D01*
X76438247Y-101500000D01*
X82080183Y-101500000D01*
X82154683Y-101519962D01*
X82209221Y-101574500D01*
X82229183Y-101649000D01*
X82209221Y-101723500D01*
X82165646Y-101771054D01*
X81994731Y-101890730D01*
X81830730Y-102054731D01*
X81827001Y-102060057D01*
X81701432Y-102239387D01*
X81701430Y-102239391D01*
X81697699Y-102244719D01*
X81599680Y-102454921D01*
X81539651Y-102678950D01*
X81519437Y-102910000D01*
X81539651Y-103141050D01*
X81599680Y-103365079D01*
X81697699Y-103575281D01*
X81701430Y-103580609D01*
X81701432Y-103580613D01*
X81779810Y-103692548D01*
X81830730Y-103765269D01*
X81994731Y-103929270D01*
X82082201Y-103990517D01*
X82131775Y-104049598D01*
X82145168Y-104125554D01*
X82118789Y-104198031D01*
X82082954Y-104232162D01*
X82083771Y-104233250D01*
X82047303Y-104260631D01*
X82037421Y-104273234D01*
X82040767Y-104281557D01*
X82836129Y-105076919D01*
X82850000Y-105084927D01*
X82863871Y-105076919D01*
X83655731Y-104285059D01*
X83663739Y-104271188D01*
X83658826Y-104262677D01*
X83650526Y-104256122D01*
X83640370Y-104249374D01*
X83630192Y-104243756D01*
X83574617Y-104190275D01*
X83553229Y-104116172D01*
X83571759Y-104041303D01*
X83616739Y-103991260D01*
X83699934Y-103933006D01*
X83699937Y-103933004D01*
X83705269Y-103929270D01*
X83869270Y-103765269D01*
X83920190Y-103692548D01*
X83998568Y-103580613D01*
X83998570Y-103580609D01*
X84002301Y-103575281D01*
X84100320Y-103365079D01*
X84160349Y-103141050D01*
X84180563Y-102910000D01*
X84160349Y-102678950D01*
X84100320Y-102454921D01*
X84002301Y-102244719D01*
X83998570Y-102239391D01*
X83998568Y-102239387D01*
X83872999Y-102060057D01*
X83869270Y-102054731D01*
X83705269Y-101890730D01*
X83534350Y-101771051D01*
X83484776Y-101711970D01*
X83471383Y-101636014D01*
X83497762Y-101563537D01*
X83556846Y-101513960D01*
X83619816Y-101500000D01*
X93500000Y-101500000D01*
X93500000Y-84842611D01*
X121794394Y-84842611D01*
X121812999Y-85011135D01*
X121816087Y-85019572D01*
X121816087Y-85019574D01*
X121823917Y-85040969D01*
X121871266Y-85170356D01*
X121876275Y-85177811D01*
X121876276Y-85177812D01*
X121945309Y-85280544D01*
X121965830Y-85311083D01*
X121972472Y-85317126D01*
X121972473Y-85317128D01*
X121990430Y-85333467D01*
X122091233Y-85425191D01*
X122099128Y-85429478D01*
X122099130Y-85429479D01*
X122232344Y-85501808D01*
X122232347Y-85501809D01*
X122240235Y-85506092D01*
X122298254Y-85521313D01*
X122395549Y-85546838D01*
X122395551Y-85546838D01*
X122404233Y-85549116D01*
X122413209Y-85549257D01*
X122564781Y-85551638D01*
X122573760Y-85551779D01*
X122739029Y-85513928D01*
X122890498Y-85437747D01*
X122912279Y-85419144D01*
X123012594Y-85333467D01*
X123012596Y-85333465D01*
X123019423Y-85327634D01*
X123053261Y-85280544D01*
X123113124Y-85197236D01*
X123113126Y-85197232D01*
X123118361Y-85189947D01*
X123138917Y-85138812D01*
X123178251Y-85040969D01*
X123178252Y-85040964D01*
X123181601Y-85032634D01*
X123205490Y-84864778D01*
X123205645Y-84850000D01*
X123185276Y-84681680D01*
X123125345Y-84523077D01*
X123029312Y-84383349D01*
X123022604Y-84377372D01*
X122909428Y-84276535D01*
X122909424Y-84276532D01*
X122902721Y-84270560D01*
X122894783Y-84266357D01*
X122894780Y-84266355D01*
X122760823Y-84195429D01*
X122752881Y-84191224D01*
X122744168Y-84189035D01*
X122744167Y-84189035D01*
X122671691Y-84170830D01*
X122588441Y-84149919D01*
X122484002Y-84149372D01*
X122427873Y-84149078D01*
X122418895Y-84149031D01*
X122410164Y-84151127D01*
X122410165Y-84151127D01*
X122262765Y-84186515D01*
X122262762Y-84186516D01*
X122254032Y-84188612D01*
X122246053Y-84192730D01*
X122246051Y-84192731D01*
X122240824Y-84195429D01*
X122103369Y-84266375D01*
X122096602Y-84272279D01*
X122096598Y-84272281D01*
X122058693Y-84305348D01*
X121975604Y-84377831D01*
X121878113Y-84516547D01*
X121816524Y-84674513D01*
X121794394Y-84842611D01*
X93500000Y-84842611D01*
X93500000Y-82061718D01*
X93519962Y-81987218D01*
X93543641Y-81956359D01*
X95456359Y-80043641D01*
X95523154Y-80005077D01*
X95561718Y-80000000D01*
X109000000Y-80000000D01*
X109000000Y-78322110D01*
X116189754Y-78322110D01*
X116190995Y-78353709D01*
X116200876Y-78605192D01*
X116251774Y-78883883D01*
X116253442Y-78888884D01*
X116253444Y-78888890D01*
X116339762Y-79147618D01*
X116339765Y-79147625D01*
X116341432Y-79152622D01*
X116468061Y-79406047D01*
X116629135Y-79639101D01*
X116632717Y-79642976D01*
X116747482Y-79767128D01*
X116821439Y-79847135D01*
X117041138Y-80025997D01*
X117162492Y-80099059D01*
X117209308Y-80127244D01*
X117283846Y-80172120D01*
X117544722Y-80282586D01*
X117549821Y-80283938D01*
X117549824Y-80283939D01*
X117746803Y-80336167D01*
X117818560Y-80355193D01*
X118099897Y-80388492D01*
X118210181Y-80385893D01*
X118377863Y-80381941D01*
X118377865Y-80381941D01*
X118383119Y-80381817D01*
X118551204Y-80353840D01*
X118657385Y-80336167D01*
X118657389Y-80336166D01*
X118662574Y-80335303D01*
X118750380Y-80307534D01*
X118927675Y-80251463D01*
X118927682Y-80251460D01*
X118932688Y-80249877D01*
X118937422Y-80247604D01*
X118937429Y-80247601D01*
X119100271Y-80169405D01*
X119188071Y-80127244D01*
X119192448Y-80124320D01*
X119192454Y-80124316D01*
X119378844Y-79999774D01*
X119423627Y-79969851D01*
X119428003Y-79965932D01*
X119630727Y-79784356D01*
X119634655Y-79780838D01*
X119646180Y-79767128D01*
X119757447Y-79634760D01*
X119816947Y-79563976D01*
X119824749Y-79551466D01*
X119964075Y-79328064D01*
X119964077Y-79328060D01*
X119966863Y-79323593D01*
X119980560Y-79292611D01*
X122794394Y-79292611D01*
X122812999Y-79461135D01*
X122816087Y-79469572D01*
X122816087Y-79469574D01*
X122823917Y-79490969D01*
X122871266Y-79620356D01*
X122876275Y-79627811D01*
X122876276Y-79627812D01*
X122884431Y-79639947D01*
X122965830Y-79761083D01*
X122972472Y-79767126D01*
X122972473Y-79767128D01*
X123064052Y-79850458D01*
X123091233Y-79875191D01*
X123099128Y-79879478D01*
X123099130Y-79879479D01*
X123232344Y-79951808D01*
X123232347Y-79951809D01*
X123240235Y-79956092D01*
X123303846Y-79972780D01*
X123395549Y-79996838D01*
X123395551Y-79996838D01*
X123404233Y-79999116D01*
X123413209Y-79999257D01*
X123564781Y-80001638D01*
X123573760Y-80001779D01*
X123739029Y-79963928D01*
X123890498Y-79887747D01*
X124011553Y-79784356D01*
X124012594Y-79783467D01*
X124012596Y-79783465D01*
X124019423Y-79777634D01*
X124036866Y-79753360D01*
X124113124Y-79647236D01*
X124113126Y-79647232D01*
X124118361Y-79639947D01*
X124147280Y-79568010D01*
X124178251Y-79490969D01*
X124178252Y-79490964D01*
X124181601Y-79482634D01*
X124205490Y-79314778D01*
X124205645Y-79300000D01*
X124185276Y-79131680D01*
X124125345Y-78973077D01*
X124029312Y-78833349D01*
X124022604Y-78827372D01*
X123909428Y-78726535D01*
X123909424Y-78726532D01*
X123902721Y-78720560D01*
X123894783Y-78716357D01*
X123894780Y-78716355D01*
X123760823Y-78645429D01*
X123752881Y-78641224D01*
X123744168Y-78639035D01*
X123744167Y-78639035D01*
X123671691Y-78620830D01*
X123588441Y-78599919D01*
X123484002Y-78599372D01*
X123427873Y-78599078D01*
X123418895Y-78599031D01*
X123410164Y-78601127D01*
X123410165Y-78601127D01*
X123262765Y-78636515D01*
X123262762Y-78636516D01*
X123254032Y-78638612D01*
X123246053Y-78642730D01*
X123246051Y-78642731D01*
X123240824Y-78645429D01*
X123103369Y-78716375D01*
X123096602Y-78722279D01*
X123096598Y-78722281D01*
X123091722Y-78726535D01*
X122975604Y-78827831D01*
X122970439Y-78835180D01*
X122939856Y-78878696D01*
X122878113Y-78966547D01*
X122816524Y-79124513D01*
X122794394Y-79292611D01*
X119980560Y-79292611D01*
X120081414Y-79064484D01*
X120132349Y-78883883D01*
X120156886Y-78796881D01*
X120156887Y-78796876D01*
X120158313Y-78791820D01*
X120183380Y-78605192D01*
X120195520Y-78514810D01*
X120195520Y-78514805D01*
X120196026Y-78511041D01*
X120199984Y-78385108D01*
X120195524Y-78322110D01*
X120180347Y-78107770D01*
X120179975Y-78102515D01*
X120120349Y-77825561D01*
X120022294Y-77559771D01*
X119994167Y-77507641D01*
X119890266Y-77315079D01*
X119890264Y-77315076D01*
X119887767Y-77310448D01*
X119852244Y-77262353D01*
X119722580Y-77086803D01*
X119719452Y-77082568D01*
X119715761Y-77078819D01*
X119715758Y-77078815D01*
X119621497Y-76983063D01*
X119520708Y-76880678D01*
X119467092Y-76839759D01*
X119299689Y-76712001D01*
X119295500Y-76708804D01*
X119048321Y-76570378D01*
X118784104Y-76468160D01*
X118508121Y-76404190D01*
X118502880Y-76403736D01*
X118502873Y-76403735D01*
X118231134Y-76380200D01*
X118231130Y-76380200D01*
X118225877Y-76379745D01*
X117943004Y-76395313D01*
X117937836Y-76396341D01*
X117670324Y-76449552D01*
X117670318Y-76449554D01*
X117665148Y-76450582D01*
X117660170Y-76452330D01*
X117660167Y-76452331D01*
X117402816Y-76542706D01*
X117397850Y-76544450D01*
X117393187Y-76546872D01*
X117393183Y-76546874D01*
X117151115Y-76672618D01*
X117151108Y-76672622D01*
X117146446Y-76675044D01*
X116915950Y-76839759D01*
X116912144Y-76843389D01*
X116912140Y-76843393D01*
X116786960Y-76962809D01*
X116710962Y-77035307D01*
X116707700Y-77039445D01*
X116707698Y-77039447D01*
X116670366Y-77086803D01*
X116535573Y-77257788D01*
X116507445Y-77306214D01*
X116433523Y-77433481D01*
X116393281Y-77502762D01*
X116286926Y-77765340D01*
X116218629Y-78040285D01*
X116218092Y-78045526D01*
X116218091Y-78045532D01*
X116190290Y-78316876D01*
X116189754Y-78322110D01*
X109000000Y-78322110D01*
X109000000Y-72613746D01*
X120251327Y-72613746D01*
X120254906Y-72619946D01*
X120461343Y-72746450D01*
X120471753Y-72751755D01*
X120698405Y-72845637D01*
X120709511Y-72849245D01*
X120948062Y-72906517D01*
X120959585Y-72908342D01*
X121204168Y-72927591D01*
X121215832Y-72927591D01*
X121460415Y-72908342D01*
X121471938Y-72906517D01*
X121710489Y-72849245D01*
X121721595Y-72845637D01*
X121948247Y-72751755D01*
X121958657Y-72746450D01*
X122163404Y-72620982D01*
X122168692Y-72613287D01*
X122163780Y-72602990D01*
X121223871Y-71663081D01*
X121210000Y-71655073D01*
X121196129Y-71663081D01*
X120259335Y-72599875D01*
X120251327Y-72613746D01*
X109000000Y-72613746D01*
X109000000Y-71295832D01*
X119572409Y-71295832D01*
X119591658Y-71540415D01*
X119593483Y-71551938D01*
X119650755Y-71790489D01*
X119654363Y-71801595D01*
X119748245Y-72028247D01*
X119753550Y-72038657D01*
X119879018Y-72243404D01*
X119886713Y-72248692D01*
X119897010Y-72243780D01*
X120836919Y-71303871D01*
X120844927Y-71290000D01*
X121575073Y-71290000D01*
X121583081Y-71303871D01*
X122519875Y-72240665D01*
X122533746Y-72248673D01*
X122539946Y-72245094D01*
X122666450Y-72038657D01*
X122671755Y-72028247D01*
X122765637Y-71801595D01*
X122769245Y-71790489D01*
X122826517Y-71551938D01*
X122828342Y-71540415D01*
X122847591Y-71295832D01*
X122847591Y-71284168D01*
X122828342Y-71039585D01*
X122826517Y-71028062D01*
X122769245Y-70789511D01*
X122765637Y-70778405D01*
X122671755Y-70551753D01*
X122666450Y-70541343D01*
X122540982Y-70336596D01*
X122533287Y-70331308D01*
X122522990Y-70336220D01*
X121583081Y-71276129D01*
X121575073Y-71290000D01*
X120844927Y-71290000D01*
X120836919Y-71276129D01*
X119900125Y-70339335D01*
X119886254Y-70331327D01*
X119880054Y-70334906D01*
X119753550Y-70541343D01*
X119748245Y-70551753D01*
X119654363Y-70778405D01*
X119650755Y-70789511D01*
X119593483Y-71028062D01*
X119591658Y-71039585D01*
X119572409Y-71284168D01*
X119572409Y-71295832D01*
X109000000Y-71295832D01*
X109000000Y-69733102D01*
X113131971Y-69733102D01*
X113135180Y-69738662D01*
X113308271Y-69844733D01*
X113318676Y-69850034D01*
X113527156Y-69936389D01*
X113538250Y-69939994D01*
X113757680Y-69992675D01*
X113769196Y-69994499D01*
X113994168Y-70012204D01*
X114005832Y-70012204D01*
X114230804Y-69994499D01*
X114242320Y-69992675D01*
X114350458Y-69966713D01*
X120251308Y-69966713D01*
X120256220Y-69977010D01*
X121196129Y-70916919D01*
X121210000Y-70924927D01*
X121223871Y-70916919D01*
X122160665Y-69980125D01*
X122168673Y-69966254D01*
X122165094Y-69960054D01*
X121958657Y-69833550D01*
X121948247Y-69828245D01*
X121721595Y-69734363D01*
X121710489Y-69730755D01*
X121471938Y-69673483D01*
X121460415Y-69671658D01*
X121215832Y-69652409D01*
X121204168Y-69652409D01*
X120959585Y-69671658D01*
X120948062Y-69673483D01*
X120709511Y-69730755D01*
X120698405Y-69734363D01*
X120471753Y-69828245D01*
X120461343Y-69833550D01*
X120256596Y-69959018D01*
X120251308Y-69966713D01*
X114350458Y-69966713D01*
X114461750Y-69939994D01*
X114472844Y-69936389D01*
X114681324Y-69850034D01*
X114691729Y-69844733D01*
X114857168Y-69743351D01*
X114868192Y-69731734D01*
X114866368Y-69725578D01*
X114013871Y-68873081D01*
X114000000Y-68865073D01*
X113986129Y-68873081D01*
X113139979Y-69719231D01*
X113131971Y-69733102D01*
X109000000Y-69733102D01*
X109000000Y-68505832D01*
X112487796Y-68505832D01*
X112505501Y-68730804D01*
X112507325Y-68742320D01*
X112560006Y-68961750D01*
X112563611Y-68972844D01*
X112649966Y-69181324D01*
X112655267Y-69191729D01*
X112756649Y-69357168D01*
X112768266Y-69368192D01*
X112774422Y-69366368D01*
X113626919Y-68513871D01*
X113634927Y-68500000D01*
X114365073Y-68500000D01*
X114373081Y-68513871D01*
X115219231Y-69360021D01*
X115233102Y-69368029D01*
X115238662Y-69364820D01*
X115344733Y-69191729D01*
X115350034Y-69181324D01*
X115436389Y-68972844D01*
X115439994Y-68961750D01*
X115490831Y-68750000D01*
X122219783Y-68750000D01*
X122238623Y-68989379D01*
X122294677Y-69222863D01*
X122386567Y-69444704D01*
X122389622Y-69449689D01*
X122508972Y-69644453D01*
X122508976Y-69644458D01*
X122512028Y-69649439D01*
X122667973Y-69832027D01*
X122850561Y-69987972D01*
X122855542Y-69991024D01*
X122855547Y-69991028D01*
X123055296Y-70113433D01*
X123054333Y-70115005D01*
X123105056Y-70160668D01*
X123123776Y-70203309D01*
X123124691Y-70210552D01*
X123158473Y-70295875D01*
X123179037Y-70347814D01*
X123189500Y-70402665D01*
X123189500Y-73182080D01*
X123169538Y-73256580D01*
X123162406Y-73267753D01*
X123128113Y-73316547D01*
X123066524Y-73474513D01*
X123044394Y-73642611D01*
X123062999Y-73811135D01*
X123066087Y-73819572D01*
X123066087Y-73819574D01*
X123073917Y-73840969D01*
X123121266Y-73970356D01*
X123126275Y-73977811D01*
X123126276Y-73977812D01*
X123134431Y-73989947D01*
X123215830Y-74111083D01*
X123222472Y-74117126D01*
X123222473Y-74117128D01*
X123240430Y-74133467D01*
X123341233Y-74225191D01*
X123349128Y-74229478D01*
X123349130Y-74229479D01*
X123482344Y-74301808D01*
X123482347Y-74301809D01*
X123490235Y-74306092D01*
X123527743Y-74315932D01*
X123645549Y-74346838D01*
X123645551Y-74346838D01*
X123654233Y-74349116D01*
X123663209Y-74349257D01*
X123814781Y-74351638D01*
X123823760Y-74351779D01*
X123989029Y-74313928D01*
X124140498Y-74237747D01*
X124162279Y-74219144D01*
X124262594Y-74133467D01*
X124262596Y-74133465D01*
X124269423Y-74127634D01*
X124286866Y-74103360D01*
X124363124Y-73997236D01*
X124363126Y-73997232D01*
X124368361Y-73989947D01*
X124379628Y-73961920D01*
X124428251Y-73840969D01*
X124428252Y-73840964D01*
X124431601Y-73832634D01*
X124455490Y-73664778D01*
X124455645Y-73650000D01*
X124435276Y-73481680D01*
X124375345Y-73323077D01*
X124336705Y-73266856D01*
X124310959Y-73194155D01*
X124310500Y-73182463D01*
X124310500Y-72613746D01*
X125331327Y-72613746D01*
X125334906Y-72619946D01*
X125541343Y-72746450D01*
X125551753Y-72751755D01*
X125778405Y-72845637D01*
X125789511Y-72849245D01*
X126028062Y-72906517D01*
X126039585Y-72908342D01*
X126284168Y-72927591D01*
X126295832Y-72927591D01*
X126540415Y-72908342D01*
X126551938Y-72906517D01*
X126790489Y-72849245D01*
X126801595Y-72845637D01*
X127028247Y-72751755D01*
X127038657Y-72746450D01*
X127243404Y-72620982D01*
X127248692Y-72613287D01*
X127243780Y-72602990D01*
X126303871Y-71663081D01*
X126290000Y-71655073D01*
X126276129Y-71663081D01*
X125339335Y-72599875D01*
X125331327Y-72613746D01*
X124310500Y-72613746D01*
X124310500Y-71295832D01*
X124652409Y-71295832D01*
X124671658Y-71540415D01*
X124673483Y-71551938D01*
X124730755Y-71790489D01*
X124734363Y-71801595D01*
X124828245Y-72028247D01*
X124833550Y-72038657D01*
X124959018Y-72243404D01*
X124966713Y-72248692D01*
X124977010Y-72243780D01*
X125916919Y-71303871D01*
X125924927Y-71290000D01*
X126655073Y-71290000D01*
X126663081Y-71303871D01*
X127599875Y-72240665D01*
X127613746Y-72248673D01*
X127619946Y-72245094D01*
X127746450Y-72038657D01*
X127751755Y-72028247D01*
X127845637Y-71801595D01*
X127849245Y-71790489D01*
X127906517Y-71551938D01*
X127908342Y-71540415D01*
X127927591Y-71295832D01*
X127927591Y-71284168D01*
X127908342Y-71039585D01*
X127906517Y-71028062D01*
X127849245Y-70789511D01*
X127845637Y-70778405D01*
X127751755Y-70551753D01*
X127746450Y-70541343D01*
X127620982Y-70336596D01*
X127613287Y-70331308D01*
X127602990Y-70336220D01*
X126663081Y-71276129D01*
X126655073Y-71290000D01*
X125924927Y-71290000D01*
X125916919Y-71276129D01*
X124980125Y-70339335D01*
X124966254Y-70331327D01*
X124960054Y-70334906D01*
X124833550Y-70541343D01*
X124828245Y-70551753D01*
X124734363Y-70778405D01*
X124730755Y-70789511D01*
X124673483Y-71028062D01*
X124671658Y-71039585D01*
X124652409Y-71284168D01*
X124652409Y-71295832D01*
X124310500Y-71295832D01*
X124310500Y-70398229D01*
X124328930Y-70326448D01*
X124345738Y-70295875D01*
X124345739Y-70295873D01*
X124350255Y-70287658D01*
X124370927Y-70207147D01*
X124408790Y-70139952D01*
X124444762Y-70113527D01*
X124444704Y-70113433D01*
X124449682Y-70110383D01*
X124449687Y-70110380D01*
X124644453Y-69991028D01*
X124644458Y-69991024D01*
X124649439Y-69987972D01*
X124674330Y-69966713D01*
X125331308Y-69966713D01*
X125336220Y-69977010D01*
X126276129Y-70916919D01*
X126290000Y-70924927D01*
X126303871Y-70916919D01*
X127240665Y-69980125D01*
X127248673Y-69966254D01*
X127245094Y-69960054D01*
X127038657Y-69833550D01*
X127028247Y-69828245D01*
X126801595Y-69734363D01*
X126790489Y-69730755D01*
X126551938Y-69673483D01*
X126540415Y-69671658D01*
X126295832Y-69652409D01*
X126284168Y-69652409D01*
X126039585Y-69671658D01*
X126028062Y-69673483D01*
X125789511Y-69730755D01*
X125778405Y-69734363D01*
X125551753Y-69828245D01*
X125541343Y-69833550D01*
X125336596Y-69959018D01*
X125331308Y-69966713D01*
X124674330Y-69966713D01*
X124832027Y-69832027D01*
X124987972Y-69649439D01*
X124991024Y-69644458D01*
X124991028Y-69644453D01*
X125110378Y-69449689D01*
X125113433Y-69444704D01*
X125205323Y-69222863D01*
X125261377Y-68989379D01*
X125280217Y-68750000D01*
X125261377Y-68510621D01*
X125205323Y-68277137D01*
X125113433Y-68055296D01*
X125079557Y-68000015D01*
X124991028Y-67855547D01*
X124991024Y-67855542D01*
X124987972Y-67850561D01*
X124832027Y-67667973D01*
X124674867Y-67533746D01*
X125331327Y-67533746D01*
X125334906Y-67539946D01*
X125541343Y-67666450D01*
X125551753Y-67671755D01*
X125778405Y-67765637D01*
X125789511Y-67769245D01*
X126028062Y-67826517D01*
X126039585Y-67828342D01*
X126284168Y-67847591D01*
X126295832Y-67847591D01*
X126540415Y-67828342D01*
X126551938Y-67826517D01*
X126790489Y-67769245D01*
X126801595Y-67765637D01*
X127028247Y-67671755D01*
X127038657Y-67666450D01*
X127243404Y-67540982D01*
X127248692Y-67533287D01*
X127243780Y-67522990D01*
X126303871Y-66583081D01*
X126290000Y-66575073D01*
X126276129Y-66583081D01*
X125339335Y-67519875D01*
X125331327Y-67533746D01*
X124674867Y-67533746D01*
X124649439Y-67512028D01*
X124644458Y-67508976D01*
X124644453Y-67508972D01*
X124449689Y-67389622D01*
X124444704Y-67386567D01*
X124222863Y-67294677D01*
X123989379Y-67238623D01*
X123750000Y-67219783D01*
X123510621Y-67238623D01*
X123277137Y-67294677D01*
X123055296Y-67386567D01*
X123050311Y-67389622D01*
X122855547Y-67508972D01*
X122855542Y-67508976D01*
X122850561Y-67512028D01*
X122667973Y-67667973D01*
X122512028Y-67850561D01*
X122508976Y-67855542D01*
X122508972Y-67855547D01*
X122420443Y-68000015D01*
X122386567Y-68055296D01*
X122294677Y-68277137D01*
X122238623Y-68510621D01*
X122219783Y-68750000D01*
X115490831Y-68750000D01*
X115492675Y-68742320D01*
X115494499Y-68730804D01*
X115512204Y-68505832D01*
X115512204Y-68494168D01*
X115494499Y-68269196D01*
X115492675Y-68257680D01*
X115439994Y-68038250D01*
X115436389Y-68027156D01*
X115350034Y-67818676D01*
X115344733Y-67808271D01*
X115243351Y-67642832D01*
X115231734Y-67631808D01*
X115225578Y-67633632D01*
X114373081Y-68486129D01*
X114365073Y-68500000D01*
X113634927Y-68500000D01*
X113626919Y-68486129D01*
X112780769Y-67639979D01*
X112766898Y-67631971D01*
X112761338Y-67635180D01*
X112655267Y-67808271D01*
X112649966Y-67818676D01*
X112563611Y-68027156D01*
X112560006Y-68038250D01*
X112507325Y-68257680D01*
X112505501Y-68269196D01*
X112487796Y-68494168D01*
X112487796Y-68505832D01*
X109000000Y-68505832D01*
X109000000Y-67268266D01*
X113131808Y-67268266D01*
X113133632Y-67274422D01*
X113986129Y-68126919D01*
X114000000Y-68134927D01*
X114013871Y-68126919D01*
X114607044Y-67533746D01*
X120251327Y-67533746D01*
X120254906Y-67539946D01*
X120461343Y-67666450D01*
X120471753Y-67671755D01*
X120698405Y-67765637D01*
X120709511Y-67769245D01*
X120948062Y-67826517D01*
X120959585Y-67828342D01*
X121204168Y-67847591D01*
X121215832Y-67847591D01*
X121460415Y-67828342D01*
X121471938Y-67826517D01*
X121710489Y-67769245D01*
X121721595Y-67765637D01*
X121948247Y-67671755D01*
X121958657Y-67666450D01*
X122163404Y-67540982D01*
X122168692Y-67533287D01*
X122163780Y-67522990D01*
X121223871Y-66583081D01*
X121210000Y-66575073D01*
X121196129Y-66583081D01*
X120259335Y-67519875D01*
X120251327Y-67533746D01*
X114607044Y-67533746D01*
X114860021Y-67280769D01*
X114868029Y-67266898D01*
X114864820Y-67261338D01*
X114691729Y-67155267D01*
X114681324Y-67149966D01*
X114472844Y-67063611D01*
X114461750Y-67060006D01*
X114242320Y-67007325D01*
X114230804Y-67005501D01*
X114005832Y-66987796D01*
X113994168Y-66987796D01*
X113769196Y-67005501D01*
X113757680Y-67007325D01*
X113538250Y-67060006D01*
X113527156Y-67063611D01*
X113318676Y-67149966D01*
X113308271Y-67155267D01*
X113142832Y-67256649D01*
X113131808Y-67268266D01*
X109000000Y-67268266D01*
X109000000Y-66215832D01*
X119572409Y-66215832D01*
X119591658Y-66460415D01*
X119593483Y-66471938D01*
X119650755Y-66710489D01*
X119654363Y-66721595D01*
X119748245Y-66948247D01*
X119753550Y-66958657D01*
X119879018Y-67163404D01*
X119886713Y-67168692D01*
X119897010Y-67163780D01*
X120836919Y-66223871D01*
X120844927Y-66210000D01*
X121575073Y-66210000D01*
X121583081Y-66223871D01*
X122519875Y-67160665D01*
X122533746Y-67168673D01*
X122539946Y-67165094D01*
X122666450Y-66958657D01*
X122671755Y-66948247D01*
X122765637Y-66721595D01*
X122769245Y-66710489D01*
X122826517Y-66471938D01*
X122828342Y-66460415D01*
X122847591Y-66215832D01*
X124652409Y-66215832D01*
X124671658Y-66460415D01*
X124673483Y-66471938D01*
X124730755Y-66710489D01*
X124734363Y-66721595D01*
X124828245Y-66948247D01*
X124833550Y-66958657D01*
X124959018Y-67163404D01*
X124966713Y-67168692D01*
X124977010Y-67163780D01*
X125916919Y-66223871D01*
X125924927Y-66210000D01*
X126655073Y-66210000D01*
X126663081Y-66223871D01*
X127599875Y-67160665D01*
X127613746Y-67168673D01*
X127619946Y-67165094D01*
X127746450Y-66958657D01*
X127751755Y-66948247D01*
X127845637Y-66721595D01*
X127849245Y-66710489D01*
X127906517Y-66471938D01*
X127908342Y-66460415D01*
X127927591Y-66215832D01*
X127927591Y-66204168D01*
X127919231Y-66097948D01*
X129519636Y-66097948D01*
X129549301Y-66294098D01*
X129551906Y-66301177D01*
X129590836Y-66406988D01*
X129600000Y-66458437D01*
X129600000Y-66950000D01*
X130090111Y-66950000D01*
X130149286Y-66962255D01*
X130196276Y-66982590D01*
X130196284Y-66982593D01*
X130203213Y-66985591D01*
X130210607Y-66987136D01*
X130210608Y-66987136D01*
X130270720Y-66999694D01*
X130397402Y-67026159D01*
X130403909Y-67026500D01*
X130549578Y-67026500D01*
X130553327Y-67026119D01*
X130553331Y-67026119D01*
X130689856Y-67012251D01*
X130689858Y-67012251D01*
X130697365Y-67011488D01*
X130871817Y-66956818D01*
X130916374Y-66950000D01*
X131400000Y-66950000D01*
X131400000Y-66467407D01*
X131414271Y-66406078D01*
X131414013Y-66405982D01*
X131414761Y-66403970D01*
X131415307Y-66401625D01*
X131416644Y-66398908D01*
X131416645Y-66398906D01*
X131419976Y-66392136D01*
X131469982Y-66200161D01*
X131480364Y-66002052D01*
X131450699Y-65805902D01*
X131409164Y-65693012D01*
X131400000Y-65641563D01*
X131400000Y-65150000D01*
X130909889Y-65150000D01*
X130850714Y-65137745D01*
X130803724Y-65117410D01*
X130803716Y-65117407D01*
X130796787Y-65114409D01*
X130789393Y-65112864D01*
X130789392Y-65112864D01*
X130669172Y-65087749D01*
X130602598Y-65073841D01*
X130596091Y-65073500D01*
X130450422Y-65073500D01*
X130446673Y-65073881D01*
X130446669Y-65073881D01*
X130310144Y-65087749D01*
X130310142Y-65087749D01*
X130302635Y-65088512D01*
X130128183Y-65143182D01*
X130083626Y-65150000D01*
X129600000Y-65150000D01*
X129600000Y-65632593D01*
X129585729Y-65693922D01*
X129585987Y-65694018D01*
X129585239Y-65696030D01*
X129584693Y-65698375D01*
X129580024Y-65707864D01*
X129578122Y-65715166D01*
X129544322Y-65844927D01*
X129530018Y-65899839D01*
X129519636Y-66097948D01*
X127919231Y-66097948D01*
X127908342Y-65959585D01*
X127906517Y-65948062D01*
X127849245Y-65709511D01*
X127845637Y-65698405D01*
X127751755Y-65471753D01*
X127746450Y-65461343D01*
X127620982Y-65256596D01*
X127613287Y-65251308D01*
X127602990Y-65256220D01*
X126663081Y-66196129D01*
X126655073Y-66210000D01*
X125924927Y-66210000D01*
X125916919Y-66196129D01*
X124980125Y-65259335D01*
X124966254Y-65251327D01*
X124960054Y-65254906D01*
X124833550Y-65461343D01*
X124828245Y-65471753D01*
X124734363Y-65698405D01*
X124730755Y-65709511D01*
X124673483Y-65948062D01*
X124671658Y-65959585D01*
X124652409Y-66204168D01*
X124652409Y-66215832D01*
X122847591Y-66215832D01*
X122847591Y-66204168D01*
X122828342Y-65959585D01*
X122826517Y-65948062D01*
X122769245Y-65709511D01*
X122765637Y-65698405D01*
X122671755Y-65471753D01*
X122666450Y-65461343D01*
X122540982Y-65256596D01*
X122533287Y-65251308D01*
X122522990Y-65256220D01*
X121583081Y-66196129D01*
X121575073Y-66210000D01*
X120844927Y-66210000D01*
X120836919Y-66196129D01*
X119900125Y-65259335D01*
X119886254Y-65251327D01*
X119880054Y-65254906D01*
X119753550Y-65461343D01*
X119748245Y-65471753D01*
X119654363Y-65698405D01*
X119650755Y-65709511D01*
X119593483Y-65948062D01*
X119591658Y-65959585D01*
X119572409Y-66204168D01*
X119572409Y-66215832D01*
X109000000Y-66215832D01*
X109000000Y-64603626D01*
X109019962Y-64529126D01*
X109074500Y-64474588D01*
X109149000Y-64454626D01*
X120431539Y-64454626D01*
X120506039Y-64474588D01*
G37*
%TD.AperFunction*%
%TA.AperFunction,Conductor*%
G36*
X116925500Y-116269962D02*
G01*
X116980038Y-116324500D01*
X117000000Y-116399000D01*
X117000000Y-122101000D01*
X116980038Y-122175500D01*
X116925500Y-122230038D01*
X116851000Y-122250000D01*
X110149000Y-122250000D01*
X110074500Y-122230038D01*
X110019962Y-122175500D01*
X110000000Y-122101000D01*
X110000000Y-116500000D01*
X109994663Y-116500000D01*
X109958615Y-116437564D01*
X109958615Y-116360436D01*
X109997179Y-116293641D01*
X110063974Y-116255077D01*
X110102538Y-116250000D01*
X116851000Y-116250000D01*
X116925500Y-116269962D01*
G37*
%TD.AperFunction*%
%TD*%
M02*
