M48
; DRILL file {KiCad 6.0.7-f9a2dced07~116~ubuntu20.04.1} date Mon 10 Oct 2022 01:01:00 AM PDT
; FORMAT={-:-/ absolute / inch / decimal}
; #@! TF.CreationDate,2022-10-10T01:01:00-07:00
; #@! TF.GenerationSoftware,Kicad,Pcbnew,6.0.7-f9a2dced07~116~ubuntu20.04.1
; #@! TF.FileFunction,MixedPlating,1,4
FMAT,2
INCH
; #@! TA.AperFunction,Plated,PTH,ViaDrill
T1C0.0118
; #@! TA.AperFunction,Plated,PTH,ComponentDrill
T2C0.0315
; #@! TA.AperFunction,Plated,PTH,ComponentDrill
T3C0.0354
; #@! TA.AperFunction,Plated,PTH,ComponentDrill
T4C0.0362
; #@! TA.AperFunction,Plated,PTH,ComponentDrill
T5C0.0394
; #@! TA.AperFunction,Plated,PTH,ComponentDrill
T6C0.0591
; #@! TA.AperFunction,Plated,PTH,ComponentDrill
T7C0.0917
%
G90
G05
T1
X1.5453Y-5.502
X1.5551Y-4.9016
X1.5551Y-5.3642
X1.565Y-5.8169
X1.5748Y-6.25
X1.5846Y-4.439
X1.6142Y-4.2618
X1.6732Y-4.9409
X1.6929Y-4.7539
X1.6929Y-4.872
X1.7028Y-5.3346
X1.7028Y-5.4429
X1.7028Y-5.7185
X1.7126Y-5.5413
X1.7126Y-5.5906
X1.7224Y-6.2106
X1.7224Y-6.3287
X1.752Y-4.6161
X1.752Y-5.876
X1.7618Y-6.2697
X1.7913Y-6.2106
X1.7913Y-6.3287
X1.811Y-5.6791
X1.811Y-6.2697
X1.8366Y-6.6161
X1.8602Y-3.9075
X1.8602Y-4.6161
X1.8602Y-5.7087
X1.8701Y-5.8957
X1.8701Y-6.6476
X1.9685Y-6.1417
X1.9882Y-4.6161
X2.0256Y-5.7205
X2.0256Y-5.8878
X2.0276Y-4.0748
X2.0276Y-5.3937
X2.0374Y-5.4921
X2.0591Y-5.128
X2.0591Y-5.1614
X2.061Y-5.1929
X2.063Y-4.9764
X2.0669Y-5.4035
X2.0965Y-5.4035
X2.0984Y-5.6299
X2.1004Y-4.9764
X2.1024Y-5.0315
X2.126Y-4.6161
X2.126Y-5.4823
X2.1358Y-5.4035
X2.1358Y-6.6476
X2.1457Y-5.5413
X2.1654Y-5.6299
X2.1713Y-6.6181
X2.185Y-4.5374
X2.1949Y-5.5217
X2.1949Y-6.2106
X2.1949Y-6.2697
X2.1949Y-6.3386
X2.2126Y-6.7657
X2.2146Y-4.9567
X2.2441Y-6.2106
X2.2441Y-6.2697
X2.2441Y-6.3386
X2.2539Y-4.6161
X2.2539Y-6.0118
X2.2638Y-5.7087
X2.2657Y-4.9016
X2.2835Y-4.7638
X2.2835Y-5.0295
X2.4114Y-4.6555
X2.4409Y-5.0886
X2.4508Y-5.5413
X2.4508Y-5.876
X2.4508Y-6.6594
X2.4606Y-4.8031
X2.4803Y-5.2165
X2.4902Y-5.4035
X2.4902Y-5.6791
X2.502Y-4.9508
X2.5039Y-6.4843
X2.5787Y-5.5512
X2.5906Y-6.9154
X2.5984Y-7.065
X2.6102Y-5.8051
X2.6378Y-5.2067
X2.7697Y-5.6634
X2.7953Y-4.4685
X2.811Y-5.0551
X2.811Y-5.3602
X2.8543Y-4.0256
X2.8543Y-4.6457
X2.8543Y-6.6732
X2.8642Y-5.7677
X2.8642Y-5.9646
X2.8839Y-6.25
X2.9488Y-5.5846
X2.9823Y-4.2421
X3.0315Y-3.9173
X3.0315Y-5.689
X3.1398Y-5.0748
X3.1417Y-5.5866
X3.189Y-6.0827
X3.189Y-6.2008
X3.189Y-6.3189
X3.189Y-6.437
X3.189Y-6.5551
X3.189Y-6.6732
X3.2579Y-4.5177
X3.2677Y-5.3346
X3.2776Y-5.0866
X3.2776Y-5.2087
X3.2972Y-4.2913
X3.3071Y-6.0827
X3.3071Y-6.2008
X3.3071Y-6.3189
X3.3071Y-6.437
X3.3071Y-6.5551
X3.3071Y-6.6732
X3.313Y-5.7047
X3.3661Y-4.9193
X3.435Y-4.9193
X3.4409Y-5.3917
X3.5413Y-5.2028
X3.5433Y-4.8917
X3.5531Y-5.2638
X3.5531Y-5.3858
X3.563Y-4.7539
X3.563Y-5.5531
X3.5728Y-5.0413
X3.5925Y-4.5965
X3.6024Y-6.3287
X3.622Y-5.0866
X3.622Y-5.2087
X3.6339Y-5.6004
X3.7697Y-6.5846
X3.7894Y-5.5531
X3.8179Y-5.6467
X3.8189Y-5.7894
X3.8346Y-5.0866
X3.8484Y-5.5571
X3.8583Y-4.9016
X3.8878Y-5.0
X3.8878Y-6.1614
X3.8976Y-5.2638
X3.8976Y-5.3858
X3.9094Y-5.6791
X3.9094Y-5.7579
X3.9173Y-5.4291
X3.9862Y-5.4232
X4.0157Y-5.2953
X4.0157Y-5.6398
X4.065Y-4.8917
X4.0827Y-6.685
X4.1142Y-4.3996
X4.1339Y-5.5413
X4.1634Y-5.0492
X4.1831Y-5.3051
T3
X2.3024Y-6.9079
X2.3024Y-7.0079
X2.4024Y-6.9079
X2.4024Y-7.0079
T4
X2.372Y-4.2747
X2.372Y-4.3534
X2.4705Y-4.2747
X2.4705Y-4.3534
T5
X1.6339Y-5.9744
X1.6732Y-6.6142
X2.0079Y-6.6142
X2.5984Y-5.1083
X3.1398Y-4.5669
X3.1398Y-4.9409
X3.3169Y-4.7835
X3.7205Y-5.9843
X3.9764Y-5.1575
X3.9862Y-5.9055
X4.0256Y-4.7441
T6
X3.4335Y-3.8961
X3.4335Y-4.0961
X3.5335Y-3.9961
X3.6335Y-3.8961
X3.6335Y-4.0961
T7
X2.1843Y-4.168
X2.6583Y-4.168
T2
G00X1.6122Y-5.2579
M15
G01X1.6122Y-5.2343
M16
G05
G00X2.3642Y-5.2579
M15
G01X2.3642Y-5.2343
M16
G05
T0
M30
