%TF.GenerationSoftware,KiCad,Pcbnew,6.0.10-86aedd382b~118~ubuntu20.04.1*%
%TF.CreationDate,2023-01-07T18:08:36-08:00*%
%TF.ProjectId,packaged-amp,7061636b-6167-4656-942d-616d702e6b69,rev?*%
%TF.SameCoordinates,Original*%
%TF.FileFunction,Soldermask,Top*%
%TF.FilePolarity,Negative*%
%FSLAX46Y46*%
G04 Gerber Fmt 4.6, Leading zero omitted, Abs format (unit mm)*
G04 Created by KiCad (PCBNEW 6.0.10-86aedd382b~118~ubuntu20.04.1) date 2023-01-07 18:08:36*
%MOMM*%
%LPD*%
G01*
G04 APERTURE LIST*
G04 Aperture macros list*
%AMRoundRect*
0 Rectangle with rounded corners*
0 $1 Rounding radius*
0 $2 $3 $4 $5 $6 $7 $8 $9 X,Y pos of 4 corners*
0 Add a 4 corners polygon primitive as box body*
4,1,4,$2,$3,$4,$5,$6,$7,$8,$9,$2,$3,0*
0 Add four circle primitives for the rounded corners*
1,1,$1+$1,$2,$3*
1,1,$1+$1,$4,$5*
1,1,$1+$1,$6,$7*
1,1,$1+$1,$8,$9*
0 Add four rect primitives between the rounded corners*
20,1,$1+$1,$2,$3,$4,$5,0*
20,1,$1+$1,$4,$5,$6,$7,0*
20,1,$1+$1,$6,$7,$8,$9,0*
20,1,$1+$1,$8,$9,$2,$3,0*%
%AMFreePoly0*
4,1,9,3.862500,-0.866500,0.737500,-0.866500,0.737500,-0.450000,-0.737500,-0.450000,-0.737500,0.450000,0.737500,0.450000,0.737500,0.866500,3.862500,0.866500,3.862500,-0.866500,3.862500,-0.866500,$1*%
G04 Aperture macros list end*
%ADD10C,0.000000*%
%ADD11C,0.150000*%
%ADD12RoundRect,0.200000X0.275000X-0.200000X0.275000X0.200000X-0.275000X0.200000X-0.275000X-0.200000X0*%
%ADD13RoundRect,0.250000X-0.650000X0.325000X-0.650000X-0.325000X0.650000X-0.325000X0.650000X0.325000X0*%
%ADD14RoundRect,0.225000X-0.250000X0.225000X-0.250000X-0.225000X0.250000X-0.225000X0.250000X0.225000X0*%
%ADD15RoundRect,0.218750X-0.381250X0.218750X-0.381250X-0.218750X0.381250X-0.218750X0.381250X0.218750X0*%
%ADD16RoundRect,0.150000X0.150000X-0.825000X0.150000X0.825000X-0.150000X0.825000X-0.150000X-0.825000X0*%
%ADD17RoundRect,0.200000X-0.275000X0.200000X-0.275000X-0.200000X0.275000X-0.200000X0.275000X0.200000X0*%
%ADD18C,1.300000*%
%ADD19R,0.500000X0.500000*%
%ADD20RoundRect,0.250000X0.375000X1.075000X-0.375000X1.075000X-0.375000X-1.075000X0.375000X-1.075000X0*%
%ADD21RoundRect,0.250000X0.650000X-0.325000X0.650000X0.325000X-0.650000X0.325000X-0.650000X-0.325000X0*%
%ADD22RoundRect,0.250000X0.325000X0.650000X-0.325000X0.650000X-0.325000X-0.650000X0.325000X-0.650000X0*%
%ADD23C,2.000000*%
%ADD24RoundRect,0.250000X-0.375000X-1.075000X0.375000X-1.075000X0.375000X1.075000X-0.375000X1.075000X0*%
%ADD25RoundRect,0.200000X-0.200000X-0.275000X0.200000X-0.275000X0.200000X0.275000X-0.200000X0.275000X0*%
%ADD26R,1.300000X1.300000*%
%ADD27R,1.300000X2.000000*%
%ADD28R,1.700000X1.700000*%
%ADD29C,1.700000*%
%ADD30C,3.500000*%
%ADD31R,1.000000X1.050000*%
%ADD32R,1.050000X2.200000*%
%ADD33RoundRect,0.250000X0.312500X0.625000X-0.312500X0.625000X-0.312500X-0.625000X0.312500X-0.625000X0*%
%ADD34R,1.850000X1.850000*%
%ADD35C,1.850000*%
%ADD36R,1.000000X1.700000*%
%ADD37R,1.400000X0.700000*%
%ADD38R,1.500000X4.200000*%
%ADD39R,1.300000X0.900000*%
%ADD40FreePoly0,0.000000*%
%ADD41C,1.500000*%
%ADD42RoundRect,0.250000X-0.325000X-0.650000X0.325000X-0.650000X0.325000X0.650000X-0.325000X0.650000X0*%
%ADD43FreePoly0,180.000000*%
%ADD44C,2.400000*%
%ADD45C,2.250000*%
%ADD46RoundRect,0.218750X-0.218750X-0.256250X0.218750X-0.256250X0.218750X0.256250X-0.218750X0.256250X0*%
%ADD47R,2.500000X2.300000*%
G04 APERTURE END LIST*
D10*
G36*
X117750000Y-120250000D02*
G01*
X116750000Y-121250000D01*
X114750000Y-121250000D01*
X113750000Y-120250000D01*
X113750000Y-116750000D01*
X117750000Y-116750000D01*
X117750000Y-120250000D01*
G37*
D11*
X77250000Y-113250000D02*
X84250000Y-113250000D01*
X84250000Y-113250000D02*
X84250000Y-118750000D01*
X84250000Y-118750000D02*
X77250000Y-118750000D01*
X77250000Y-118750000D02*
X77250000Y-113250000D01*
G36*
X77250000Y-113250000D02*
G01*
X84250000Y-113250000D01*
X84250000Y-118750000D01*
X77250000Y-118750000D01*
X77250000Y-113250000D01*
G37*
%TO.C,E2*%
G36*
X119500000Y-121500000D02*
G01*
X121000000Y-121500000D01*
X121000000Y-119000000D01*
X119500000Y-119000000D01*
X119500000Y-121500000D01*
G37*
%TO.C,E1*%
G36*
X121000000Y-114000000D02*
G01*
X119500000Y-114000000D01*
X119500000Y-116500000D01*
X121000000Y-116500000D01*
X121000000Y-114000000D01*
G37*
%TD*%
D12*
%TO.C,R2*%
X123500000Y-105575000D03*
X123500000Y-103925000D03*
%TD*%
D13*
%TO.C,C7*%
X87000000Y-94275000D03*
X87000000Y-97225000D03*
%TD*%
D14*
%TO.C,C1*%
X104500000Y-95975000D03*
X104500000Y-97525000D03*
%TD*%
D15*
%TO.C,FB1*%
X92250000Y-113187500D03*
X92250000Y-115312500D03*
%TD*%
D16*
%TO.C,U1*%
X106095000Y-100975000D03*
X107365000Y-100975000D03*
X108635000Y-100975000D03*
X109905000Y-100975000D03*
X109905000Y-96025000D03*
X108635000Y-96025000D03*
X107365000Y-96025000D03*
X106095000Y-96025000D03*
%TD*%
D14*
%TO.C,C6*%
X114750000Y-108225000D03*
X114750000Y-109775000D03*
%TD*%
D12*
%TO.C,R1*%
X120750000Y-109825000D03*
X120750000Y-108175000D03*
%TD*%
D17*
%TO.C,R12*%
X110000000Y-91925000D03*
X110000000Y-93575000D03*
%TD*%
D18*
%TO.C,H2*%
X78900000Y-143700000D03*
%TD*%
D19*
%TO.C,D2*%
X127350000Y-101750000D03*
X125150000Y-101750000D03*
%TD*%
D20*
%TO.C,L2*%
X89900000Y-91500000D03*
X87100000Y-91500000D03*
%TD*%
D13*
%TO.C,C5*%
X90000000Y-94275000D03*
X90000000Y-97225000D03*
%TD*%
D21*
%TO.C,C17*%
X106000000Y-93475000D03*
X106000000Y-90525000D03*
%TD*%
D22*
%TO.C,C24*%
X95475000Y-125500000D03*
X92525000Y-125500000D03*
%TD*%
D17*
%TO.C,R8*%
X122000000Y-95675000D03*
X122000000Y-97325000D03*
%TD*%
D12*
%TO.C,R13*%
X123749500Y-94075000D03*
X123749500Y-92425000D03*
%TD*%
D14*
%TO.C,C14*%
X116500000Y-103975000D03*
X116500000Y-105525000D03*
%TD*%
D21*
%TO.C,C12*%
X87000000Y-111475000D03*
X87000000Y-108525000D03*
%TD*%
D23*
%TO.C,TP1*%
X114000000Y-68500000D03*
%TD*%
D22*
%TO.C,C23*%
X89225000Y-125500000D03*
X86275000Y-125500000D03*
%TD*%
D12*
%TO.C,R9*%
X108250000Y-93575000D03*
X108250000Y-91925000D03*
%TD*%
D22*
%TO.C,C20*%
X89225000Y-118000000D03*
X86275000Y-118000000D03*
%TD*%
D12*
%TO.C,R14*%
X113749500Y-93575000D03*
X113749500Y-91925000D03*
%TD*%
D24*
%TO.C,L3*%
X89100000Y-110500000D03*
X91900000Y-110500000D03*
%TD*%
D14*
%TO.C,C22*%
X125500000Y-95725000D03*
X125500000Y-97275000D03*
%TD*%
D25*
%TO.C,R17*%
X83175000Y-130750000D03*
X84825000Y-130750000D03*
%TD*%
D14*
%TO.C,C3*%
X115000000Y-96225000D03*
X115000000Y-97775000D03*
%TD*%
D26*
%TO.C,RV1*%
X112500000Y-107150000D03*
D27*
X107000000Y-106000000D03*
D26*
X112500000Y-104850000D03*
%TD*%
D12*
%TO.C,R3*%
X118250000Y-105575000D03*
X118250000Y-103925000D03*
%TD*%
%TO.C,R15*%
X113749500Y-90325000D03*
X113749500Y-88675000D03*
%TD*%
D28*
%TO.C,J1*%
X98500000Y-76577500D03*
D29*
X101000000Y-76577500D03*
X101000000Y-74577500D03*
X98500000Y-74577500D03*
D30*
X93730000Y-71867500D03*
X105770000Y-71867500D03*
%TD*%
D18*
%TO.C,H4*%
X129500000Y-132150000D03*
%TD*%
D31*
%TO.C,J2*%
X109250000Y-117700000D03*
D32*
X110725000Y-119225000D03*
X107775000Y-119225000D03*
%TD*%
D14*
%TO.C,C19*%
X108250000Y-88725000D03*
X108250000Y-90275000D03*
%TD*%
D33*
%TO.C,R16*%
X119962000Y-86750000D03*
X117037000Y-86750000D03*
%TD*%
D13*
%TO.C,C9*%
X87000000Y-99025000D03*
X87000000Y-101975000D03*
%TD*%
D21*
%TO.C,C16*%
X94000000Y-106725000D03*
X94000000Y-103775000D03*
%TD*%
D14*
%TO.C,C8*%
X116750000Y-108225000D03*
X116750000Y-109775000D03*
%TD*%
D34*
%TO.C,PS1*%
X82850000Y-95290000D03*
D35*
X82850000Y-97830000D03*
X82850000Y-102910000D03*
X82850000Y-105450000D03*
X82850000Y-107990000D03*
%TD*%
D12*
%TO.C,R4*%
X120000000Y-105575000D03*
X120000000Y-103925000D03*
%TD*%
D23*
%TO.C,TP2*%
X129250000Y-119000000D03*
%TD*%
D18*
%TO.C,H5*%
X130500000Y-66050000D03*
%TD*%
D17*
%TO.C,R10*%
X110000000Y-88675000D03*
X110000000Y-90325000D03*
%TD*%
D36*
%TO.C,L1*%
X86950000Y-72500000D03*
D37*
X88050000Y-73000000D03*
D36*
X85050000Y-72500000D03*
D37*
X83950000Y-73000000D03*
D36*
X86950000Y-69500000D03*
D37*
X88050000Y-69000000D03*
D36*
X85050000Y-69500000D03*
D37*
X83950000Y-69000000D03*
%TD*%
D38*
%TO.C,GD1*%
X123500000Y-76500000D03*
X128000000Y-76500000D03*
%TD*%
D39*
%TO.C,U4*%
X92600000Y-120250000D03*
D40*
X92687500Y-121750000D03*
D39*
X92600000Y-123250000D03*
%TD*%
D14*
%TO.C,C2*%
X111500000Y-99475000D03*
X111500000Y-101025000D03*
%TD*%
D21*
%TO.C,C13*%
X87000000Y-106725000D03*
X87000000Y-103775000D03*
%TD*%
D12*
%TO.C,R5*%
X121750000Y-105575000D03*
X121750000Y-103925000D03*
%TD*%
D41*
%TO.C,D4*%
X85770000Y-137900000D03*
X83230000Y-137900000D03*
%TD*%
D24*
%TO.C,L4*%
X89100000Y-104750000D03*
X91900000Y-104750000D03*
%TD*%
D42*
%TO.C,C21*%
X92525000Y-118000000D03*
X95475000Y-118000000D03*
%TD*%
D16*
%TO.C,U2*%
X116595000Y-101225000D03*
X117865000Y-101225000D03*
X119135000Y-101225000D03*
X120405000Y-101225000D03*
X120405000Y-96275000D03*
X119135000Y-96275000D03*
X117865000Y-96275000D03*
X116595000Y-96275000D03*
%TD*%
D15*
%TO.C,FB2*%
X96250000Y-103687500D03*
X96250000Y-105812500D03*
%TD*%
D39*
%TO.C,U3*%
X89150000Y-123250000D03*
D43*
X89062500Y-121750000D03*
D39*
X89150000Y-120250000D03*
%TD*%
D17*
%TO.C,R7*%
X104000000Y-91925000D03*
X104000000Y-93575000D03*
%TD*%
D44*
%TO.C,C11*%
X129750000Y-110249993D03*
X124750000Y-110249993D03*
%TD*%
D14*
%TO.C,C18*%
X123750000Y-95725000D03*
X123750000Y-97275000D03*
%TD*%
D18*
%TO.C,H3*%
X78900000Y-67050000D03*
%TD*%
D26*
%TO.C,RV2*%
X115999500Y-90100000D03*
D27*
X121499500Y-91250000D03*
D26*
X115999500Y-92400000D03*
%TD*%
D17*
%TO.C,R6*%
X114750000Y-103925000D03*
X114750000Y-105575000D03*
%TD*%
D19*
%TO.C,D3*%
X125150000Y-103750000D03*
X127350000Y-103750000D03*
%TD*%
D45*
%TO.C,J3*%
X123750000Y-68750000D03*
X126290000Y-71290000D03*
X121210000Y-71290000D03*
X121210000Y-66210000D03*
X126290000Y-66210000D03*
%TD*%
D14*
%TO.C,C10*%
X118750000Y-108225000D03*
X118750000Y-109775000D03*
%TD*%
%TO.C,C4*%
X122000000Y-99725000D03*
X122000000Y-101275000D03*
%TD*%
D46*
%TO.C,F1*%
X87212500Y-83750000D03*
X88787500Y-83750000D03*
%TD*%
D21*
%TO.C,C15*%
X94000000Y-111475000D03*
X94000000Y-108525000D03*
%TD*%
D47*
%TO.C,D1*%
X89650000Y-87250000D03*
X85350000Y-87250000D03*
%TD*%
M02*
