%TF.GenerationSoftware,KiCad,Pcbnew,6.0.10-86aedd382b~118~ubuntu20.04.1*%
%TF.CreationDate,2023-01-07T18:08:36-08:00*%
%TF.ProjectId,packaged-amp,7061636b-6167-4656-942d-616d702e6b69,rev?*%
%TF.SameCoordinates,Original*%
%TF.FileFunction,Copper,L3,Inr*%
%TF.FilePolarity,Positive*%
%FSLAX46Y46*%
G04 Gerber Fmt 4.6, Leading zero omitted, Abs format (unit mm)*
G04 Created by KiCad (PCBNEW 6.0.10-86aedd382b~118~ubuntu20.04.1) date 2023-01-07 18:08:36*
%MOMM*%
%LPD*%
G01*
G04 APERTURE LIST*
%TA.AperFunction,ComponentPad*%
%ADD10C,2.000000*%
%TD*%
%TA.AperFunction,ComponentPad*%
%ADD11R,1.700000X1.700000*%
%TD*%
%TA.AperFunction,ComponentPad*%
%ADD12C,1.700000*%
%TD*%
%TA.AperFunction,ComponentPad*%
%ADD13C,3.500000*%
%TD*%
%TA.AperFunction,ComponentPad*%
%ADD14R,1.850000X1.850000*%
%TD*%
%TA.AperFunction,ComponentPad*%
%ADD15C,1.850000*%
%TD*%
%TA.AperFunction,ComponentPad*%
%ADD16C,1.500000*%
%TD*%
%TA.AperFunction,ComponentPad*%
%ADD17C,2.400000*%
%TD*%
%TA.AperFunction,ComponentPad*%
%ADD18C,2.250000*%
%TD*%
%TA.AperFunction,ViaPad*%
%ADD19C,0.600000*%
%TD*%
G04 APERTURE END LIST*
D10*
%TO.N,GND*%
%TO.C,TP1*%
X114000000Y-68500000D03*
%TD*%
D11*
%TO.N,Net-(J1-Pad1)*%
%TO.C,J1*%
X98500000Y-76577500D03*
D12*
%TO.N,unconnected-(J1-Pad2)*%
X101000000Y-76577500D03*
%TO.N,unconnected-(J1-Pad3)*%
X101000000Y-74577500D03*
%TO.N,Net-(J1-Pad4)*%
X98500000Y-74577500D03*
D13*
X93730000Y-71867500D03*
X105770000Y-71867500D03*
%TD*%
D14*
%TO.N,Net-(C7-Pad1)*%
%TO.C,PS1*%
X82850000Y-95290000D03*
D15*
%TO.N,/USB_GND*%
X82850000Y-97830000D03*
%TO.N,Net-(C13-Pad2)*%
X82850000Y-102910000D03*
%TO.N,GND*%
X82850000Y-105450000D03*
%TO.N,Net-(C12-Pad1)*%
X82850000Y-107990000D03*
%TD*%
D10*
%TO.N,GND*%
%TO.C,TP2*%
X129250000Y-119000000D03*
%TD*%
D16*
%TO.N,VSS*%
%TO.C,D4*%
X85770000Y-137900000D03*
%TO.N,Net-(D4-Pad2)*%
X83230000Y-137900000D03*
%TD*%
D17*
%TO.N,GND*%
%TO.C,C11*%
X129750000Y-110249993D03*
%TO.N,Net-(C10-Pad1)*%
X124750000Y-110249993D03*
%TD*%
D18*
%TO.N,Net-(GD1-Pad1)*%
%TO.C,J3*%
X123750000Y-68750000D03*
%TO.N,GND*%
X126290000Y-71290000D03*
X121210000Y-71290000D03*
X121210000Y-66210000D03*
X126290000Y-66210000D03*
%TD*%
D19*
%TO.N,VDD*%
X104500000Y-95200000D03*
X115000000Y-95450000D03*
X89200000Y-126803500D03*
X127950000Y-101750000D03*
%TO.N,GND*%
X110800000Y-91900000D03*
X87000000Y-114500000D03*
X131500000Y-95000000D03*
X91000000Y-118000000D03*
X94250000Y-97250000D03*
X100750000Y-116250000D03*
X121000000Y-123250000D03*
X129750000Y-76500000D03*
X95250000Y-127000000D03*
X89750000Y-107500000D03*
X100750000Y-113000000D03*
X127000000Y-90000000D03*
X102000000Y-131250000D03*
X94250000Y-88500000D03*
X78000000Y-110750000D03*
X105500000Y-104750000D03*
X84250000Y-126500000D03*
X78500000Y-107250000D03*
X105749500Y-111000000D03*
X88250000Y-107500000D03*
X118750000Y-110600000D03*
X108250000Y-91200000D03*
X125500000Y-98050000D03*
X122750000Y-127750000D03*
X102250000Y-110250000D03*
X86000000Y-107500000D03*
X120250000Y-112500000D03*
X119500000Y-112500000D03*
X118000000Y-140750000D03*
X113750000Y-98000000D03*
X105500000Y-106250000D03*
X103750000Y-107750000D03*
X111000000Y-68000000D03*
X80300000Y-105450000D03*
X121000000Y-112500000D03*
X130250000Y-139250000D03*
X90250000Y-140000000D03*
X94250000Y-94250000D03*
X96000000Y-129000000D03*
X94250000Y-101750000D03*
X99250000Y-113500000D03*
X114750000Y-110600000D03*
X85250000Y-116250000D03*
X113749500Y-87950000D03*
X130500000Y-145000000D03*
X122850000Y-117550000D03*
X84500000Y-121750000D03*
X129750000Y-78500000D03*
X107000000Y-108000000D03*
X91250000Y-102000000D03*
X108650000Y-102300000D03*
X78500000Y-119500000D03*
X84500000Y-121000000D03*
X108250000Y-87950000D03*
X77500000Y-130500000D03*
X96500000Y-140000000D03*
X116750000Y-110600000D03*
X126250000Y-121500000D03*
X114500000Y-82000000D03*
X102750000Y-145250000D03*
X90250000Y-121750000D03*
X124500000Y-131000000D03*
X112750000Y-99750000D03*
X129750000Y-75000000D03*
X123750000Y-98050000D03*
X104500000Y-98300000D03*
X120250000Y-123250000D03*
X94750000Y-129000000D03*
X116500000Y-112000000D03*
X112750000Y-109000000D03*
X123250000Y-99750000D03*
X131500000Y-89250000D03*
X131500000Y-102750000D03*
X92250000Y-108250000D03*
X115000000Y-98550000D03*
X86750000Y-123000000D03*
X111500000Y-98700000D03*
X112500000Y-97000000D03*
X84500000Y-122500000D03*
X120750000Y-137250000D03*
X105750000Y-98250000D03*
X92500000Y-107500000D03*
X85250000Y-105750000D03*
X122000000Y-98950000D03*
X84250000Y-124500000D03*
X119500000Y-123250000D03*
X85250000Y-125500000D03*
X112000000Y-77000000D03*
X123500000Y-119500000D03*
X91500000Y-107500000D03*
X86750000Y-120500000D03*
X111000000Y-74750000D03*
X108250000Y-111750000D03*
X97500000Y-134500000D03*
X77750000Y-102500000D03*
X105250000Y-87750000D03*
X121750000Y-106300000D03*
X113750000Y-74250000D03*
X84750000Y-118250000D03*
%TO.N,VSS*%
X127999500Y-103750000D03*
X111500000Y-101800000D03*
X122000000Y-102050000D03*
X92500000Y-127050000D03*
%TO.N,Net-(GD1-Pad1)*%
X123750000Y-73650000D03*
%TO.N,/VSS_unreg*%
X97000000Y-122500000D03*
X97000000Y-121750000D03*
X97000000Y-121000000D03*
%TO.N,/return_kelvin*%
X107750000Y-117500000D03*
X111750000Y-120000000D03*
X106750000Y-120000000D03*
X106750000Y-118750000D03*
X107750000Y-121000000D03*
X111900000Y-118850000D03*
X110750000Y-121000000D03*
%TO.N,/USB_PWR*%
X89600000Y-89750000D03*
X90450000Y-89700000D03*
%TO.N,/USB_GND*%
X83300000Y-75450000D03*
X83700000Y-81900000D03*
X84550000Y-75050000D03*
X85250000Y-97900000D03*
X82700000Y-69100000D03*
X82650000Y-65300000D03*
X83000000Y-88350000D03*
X77800000Y-79600000D03*
X77900000Y-98500000D03*
X77150000Y-92850000D03*
X80200000Y-89650000D03*
X77350000Y-95350000D03*
X90450000Y-98400000D03*
X83450000Y-86800000D03*
X89300000Y-98400000D03*
X80750000Y-98900000D03*
X85350000Y-98900000D03*
X78350000Y-76300000D03*
X77300000Y-89950000D03*
X80600000Y-76300000D03*
X80450000Y-97550000D03*
X83800000Y-67400000D03*
X89850000Y-99050000D03*
X84550000Y-76800000D03*
X84650000Y-84850000D03*
X82800000Y-70250000D03*
X86900000Y-80200000D03*
X77300000Y-71850000D03*
%TO.N,Net-(R4-Pad2)*%
X114700000Y-101900000D03*
X119150000Y-103300000D03*
%TD*%
%TA.AperFunction,Conductor*%
%TO.N,GND*%
G36*
X132025000Y-88690679D02*
G01*
X132079538Y-88745217D01*
X132099500Y-88819717D01*
X132099500Y-121950500D01*
X132079538Y-122025000D01*
X132025000Y-122079538D01*
X131950500Y-122099500D01*
X129237621Y-122099500D01*
X129214315Y-122097666D01*
X129205973Y-122096345D01*
X129205948Y-122096341D01*
X129205947Y-122096341D01*
X129194374Y-122094508D01*
X129192396Y-122094821D01*
X129181333Y-122095382D01*
X129140187Y-122097469D01*
X128817890Y-122113814D01*
X128814160Y-122114385D01*
X128814154Y-122114386D01*
X128479882Y-122165594D01*
X128445268Y-122170897D01*
X128441629Y-122171839D01*
X128441625Y-122171840D01*
X128083985Y-122264439D01*
X128083977Y-122264441D01*
X128080333Y-122265385D01*
X128076799Y-122266694D01*
X128076789Y-122266697D01*
X127738177Y-122392105D01*
X127726829Y-122396308D01*
X127723437Y-122397972D01*
X127723432Y-122397974D01*
X127475814Y-122519436D01*
X127388385Y-122562322D01*
X127385193Y-122564311D01*
X127385185Y-122564316D01*
X127185376Y-122688858D01*
X127068472Y-122761725D01*
X127065496Y-122764029D01*
X127065494Y-122764030D01*
X126848602Y-122931917D01*
X126770375Y-122992469D01*
X126767647Y-122995062D01*
X126767639Y-122995069D01*
X126661162Y-123096283D01*
X126497150Y-123252188D01*
X126494688Y-123255056D01*
X126254056Y-123535358D01*
X126254051Y-123535364D01*
X126251603Y-123538216D01*
X126249452Y-123541306D01*
X126249450Y-123541309D01*
X126101094Y-123754458D01*
X126036252Y-123847618D01*
X125853309Y-124177220D01*
X125704649Y-124523638D01*
X125591798Y-124883319D01*
X125591040Y-124887006D01*
X125591039Y-124887011D01*
X125576282Y-124958820D01*
X125515915Y-125252571D01*
X125514583Y-125265667D01*
X125479535Y-125610323D01*
X125477777Y-125627606D01*
X125477777Y-126004574D01*
X125515915Y-126379609D01*
X125516674Y-126383300D01*
X125516674Y-126383303D01*
X125591039Y-126745166D01*
X125591798Y-126748861D01*
X125629327Y-126868475D01*
X125700803Y-127096283D01*
X125704649Y-127108542D01*
X125853309Y-127454960D01*
X126036252Y-127784562D01*
X126038405Y-127787655D01*
X126038408Y-127787660D01*
X126249450Y-128090871D01*
X126251603Y-128093964D01*
X126254051Y-128096816D01*
X126254056Y-128096822D01*
X126415421Y-128284789D01*
X126497150Y-128379992D01*
X126499893Y-128382599D01*
X126767639Y-128637111D01*
X126767647Y-128637118D01*
X126770375Y-128639711D01*
X126773351Y-128642015D01*
X126773355Y-128642018D01*
X127065467Y-128868129D01*
X127068472Y-128870455D01*
X127185376Y-128943322D01*
X127385185Y-129067864D01*
X127385193Y-129067869D01*
X127388385Y-129069858D01*
X127391768Y-129071517D01*
X127391769Y-129071518D01*
X127723432Y-129234206D01*
X127723437Y-129234208D01*
X127726829Y-129235872D01*
X127730380Y-129237187D01*
X127730382Y-129237188D01*
X128076789Y-129365483D01*
X128076799Y-129365486D01*
X128080333Y-129366795D01*
X128083977Y-129367739D01*
X128083985Y-129367741D01*
X128441625Y-129460340D01*
X128441629Y-129460341D01*
X128445268Y-129461283D01*
X128448990Y-129461853D01*
X128448989Y-129461853D01*
X128814154Y-129517794D01*
X128814160Y-129517795D01*
X128817890Y-129518366D01*
X129192368Y-129537357D01*
X129194374Y-129537675D01*
X129214315Y-129534517D01*
X129237621Y-129532683D01*
X131950500Y-129532683D01*
X132025000Y-129552645D01*
X132079538Y-129607183D01*
X132099500Y-129681683D01*
X132099500Y-146166591D01*
X132079538Y-146241091D01*
X132025000Y-146295629D01*
X131950500Y-146315591D01*
X116549500Y-146315591D01*
X116475000Y-146295629D01*
X116420462Y-146241091D01*
X116400500Y-146166591D01*
X116400500Y-138899000D01*
X116420462Y-138824500D01*
X116475000Y-138769962D01*
X116549500Y-138750000D01*
X119000000Y-138750000D01*
X119000000Y-134311294D01*
X119019962Y-134236794D01*
X119074500Y-134182256D01*
X119084502Y-134176977D01*
X119104644Y-134167305D01*
X119188071Y-134127244D01*
X119192448Y-134124320D01*
X119192454Y-134124316D01*
X119419243Y-133972780D01*
X119423627Y-133969851D01*
X119634655Y-133780838D01*
X119816947Y-133563976D01*
X119824749Y-133551466D01*
X119964075Y-133328064D01*
X119964077Y-133328060D01*
X119966863Y-133323593D01*
X120081414Y-133064484D01*
X120132349Y-132883883D01*
X120156886Y-132796881D01*
X120156887Y-132796876D01*
X120158313Y-132791820D01*
X120184088Y-132599922D01*
X120195520Y-132514810D01*
X120195520Y-132514805D01*
X120196026Y-132511041D01*
X120196146Y-132507235D01*
X120199865Y-132388909D01*
X120199865Y-132388900D01*
X120199984Y-132385108D01*
X120195524Y-132322110D01*
X120186732Y-132197948D01*
X128519636Y-132197948D01*
X128549301Y-132394098D01*
X128551906Y-132401177D01*
X128590836Y-132506988D01*
X128600000Y-132558437D01*
X128600000Y-133050000D01*
X129090111Y-133050000D01*
X129149286Y-133062255D01*
X129196276Y-133082590D01*
X129196284Y-133082593D01*
X129203213Y-133085591D01*
X129210607Y-133087136D01*
X129210608Y-133087136D01*
X129270720Y-133099694D01*
X129397402Y-133126159D01*
X129403909Y-133126500D01*
X129549578Y-133126500D01*
X129553327Y-133126119D01*
X129553331Y-133126119D01*
X129689856Y-133112251D01*
X129689858Y-133112251D01*
X129697365Y-133111488D01*
X129871817Y-133056818D01*
X129916374Y-133050000D01*
X130400000Y-133050000D01*
X130400000Y-132567407D01*
X130414271Y-132506078D01*
X130414013Y-132505982D01*
X130414761Y-132503970D01*
X130415307Y-132501625D01*
X130416644Y-132498908D01*
X130416645Y-132498906D01*
X130419976Y-132492136D01*
X130469982Y-132300161D01*
X130480364Y-132102052D01*
X130450699Y-131905902D01*
X130409164Y-131793012D01*
X130400000Y-131741563D01*
X130400000Y-131250000D01*
X129909889Y-131250000D01*
X129850714Y-131237745D01*
X129803724Y-131217410D01*
X129803716Y-131217407D01*
X129796787Y-131214409D01*
X129789393Y-131212864D01*
X129789392Y-131212864D01*
X129669172Y-131187749D01*
X129602598Y-131173841D01*
X129596091Y-131173500D01*
X129450422Y-131173500D01*
X129446673Y-131173881D01*
X129446669Y-131173881D01*
X129310144Y-131187749D01*
X129310142Y-131187749D01*
X129302635Y-131188512D01*
X129128183Y-131243182D01*
X129083626Y-131250000D01*
X128600000Y-131250000D01*
X128600000Y-131732593D01*
X128585729Y-131793922D01*
X128585987Y-131794018D01*
X128585239Y-131796030D01*
X128584693Y-131798375D01*
X128580024Y-131807864D01*
X128578122Y-131815166D01*
X128541634Y-131955246D01*
X128530018Y-131999839D01*
X128519636Y-132197948D01*
X120186732Y-132197948D01*
X120180347Y-132107770D01*
X120179975Y-132102515D01*
X120120349Y-131825561D01*
X120022294Y-131559771D01*
X119994167Y-131507641D01*
X119890266Y-131315079D01*
X119890264Y-131315076D01*
X119887767Y-131310448D01*
X119852244Y-131262353D01*
X119722580Y-131086803D01*
X119719452Y-131082568D01*
X119715761Y-131078819D01*
X119715758Y-131078815D01*
X119621497Y-130983063D01*
X119520708Y-130880678D01*
X119467092Y-130839759D01*
X119299689Y-130712001D01*
X119295500Y-130708804D01*
X119076195Y-130585988D01*
X119020949Y-130532170D01*
X119000000Y-130455987D01*
X119000000Y-120233102D01*
X128381971Y-120233102D01*
X128385180Y-120238662D01*
X128558271Y-120344733D01*
X128568676Y-120350034D01*
X128777156Y-120436389D01*
X128788250Y-120439994D01*
X129007680Y-120492675D01*
X129019196Y-120494499D01*
X129244168Y-120512204D01*
X129255832Y-120512204D01*
X129480804Y-120494499D01*
X129492320Y-120492675D01*
X129711750Y-120439994D01*
X129722844Y-120436389D01*
X129931324Y-120350034D01*
X129941729Y-120344733D01*
X130107168Y-120243351D01*
X130118192Y-120231734D01*
X130116368Y-120225578D01*
X129263871Y-119373081D01*
X129250000Y-119365073D01*
X129236129Y-119373081D01*
X128389979Y-120219231D01*
X128381971Y-120233102D01*
X119000000Y-120233102D01*
X119000000Y-119005832D01*
X127737796Y-119005832D01*
X127755501Y-119230804D01*
X127757325Y-119242320D01*
X127810006Y-119461750D01*
X127813611Y-119472844D01*
X127899966Y-119681324D01*
X127905267Y-119691729D01*
X128006649Y-119857168D01*
X128018266Y-119868192D01*
X128024422Y-119866368D01*
X128876919Y-119013871D01*
X128884927Y-119000000D01*
X129615073Y-119000000D01*
X129623081Y-119013871D01*
X130469231Y-119860021D01*
X130483102Y-119868029D01*
X130488662Y-119864820D01*
X130594733Y-119691729D01*
X130600034Y-119681324D01*
X130686389Y-119472844D01*
X130689994Y-119461750D01*
X130742675Y-119242320D01*
X130744499Y-119230804D01*
X130762204Y-119005832D01*
X130762204Y-118994168D01*
X130744499Y-118769196D01*
X130742675Y-118757680D01*
X130689994Y-118538250D01*
X130686389Y-118527156D01*
X130600034Y-118318676D01*
X130594733Y-118308271D01*
X130493351Y-118142832D01*
X130481734Y-118131808D01*
X130475578Y-118133632D01*
X129623081Y-118986129D01*
X129615073Y-119000000D01*
X128884927Y-119000000D01*
X128876919Y-118986129D01*
X128030769Y-118139979D01*
X128016898Y-118131971D01*
X128011338Y-118135180D01*
X127905267Y-118308271D01*
X127899966Y-118318676D01*
X127813611Y-118527156D01*
X127810006Y-118538250D01*
X127757325Y-118757680D01*
X127755501Y-118769196D01*
X127737796Y-118994168D01*
X127737796Y-119005832D01*
X119000000Y-119005832D01*
X119000000Y-117768266D01*
X128381808Y-117768266D01*
X128383632Y-117774422D01*
X129236129Y-118626919D01*
X129250000Y-118634927D01*
X129263871Y-118626919D01*
X130110021Y-117780769D01*
X130118029Y-117766898D01*
X130114820Y-117761338D01*
X129941729Y-117655267D01*
X129931324Y-117649966D01*
X129722844Y-117563611D01*
X129711750Y-117560006D01*
X129492320Y-117507325D01*
X129480804Y-117505501D01*
X129255832Y-117487796D01*
X129244168Y-117487796D01*
X129019196Y-117505501D01*
X129007680Y-117507325D01*
X128788250Y-117560006D01*
X128777156Y-117563611D01*
X128568676Y-117649966D01*
X128558271Y-117655267D01*
X128392832Y-117756649D01*
X128381808Y-117768266D01*
X119000000Y-117768266D01*
X119000000Y-112750000D01*
X104750000Y-112750000D01*
X104750000Y-112757180D01*
X104730359Y-112776821D01*
X104663564Y-112815385D01*
X104586436Y-112815385D01*
X104519641Y-112776821D01*
X104500000Y-112757180D01*
X104500000Y-112750000D01*
X104250000Y-112750000D01*
X104250000Y-112757180D01*
X104230705Y-112776475D01*
X104163910Y-112815039D01*
X104086782Y-112815039D01*
X104019987Y-112776475D01*
X104011368Y-112767085D01*
X104000000Y-112753583D01*
X104000000Y-112750000D01*
X103989888Y-112741573D01*
X103989886Y-112741571D01*
X102098487Y-111165406D01*
X101053612Y-110294677D01*
X101022098Y-110249993D01*
X123144551Y-110249993D01*
X123164317Y-110501141D01*
X123223127Y-110746104D01*
X123225368Y-110751514D01*
X123304042Y-110941450D01*
X123319534Y-110978852D01*
X123451164Y-111193652D01*
X123454966Y-111198103D01*
X123454967Y-111198105D01*
X123506123Y-111258001D01*
X123614776Y-111385217D01*
X123806341Y-111548829D01*
X124021141Y-111680459D01*
X124026550Y-111682699D01*
X124026553Y-111682701D01*
X124066516Y-111699254D01*
X124253889Y-111776866D01*
X124498852Y-111835676D01*
X124750000Y-111855442D01*
X124755832Y-111854983D01*
X124995316Y-111836135D01*
X125001148Y-111835676D01*
X125246111Y-111776866D01*
X125433484Y-111699254D01*
X125473447Y-111682701D01*
X125473450Y-111682699D01*
X125478859Y-111680459D01*
X125571039Y-111623971D01*
X128741095Y-111623971D01*
X128745398Y-111631425D01*
X128837906Y-111699254D01*
X128847250Y-111705093D01*
X129062130Y-111818147D01*
X129072253Y-111822548D01*
X129301472Y-111902595D01*
X129312136Y-111905452D01*
X129550677Y-111950741D01*
X129561630Y-111951989D01*
X129804250Y-111961522D01*
X129815273Y-111961137D01*
X130056625Y-111934704D01*
X130067484Y-111932692D01*
X130302281Y-111870875D01*
X130312710Y-111867284D01*
X130535797Y-111771438D01*
X130545584Y-111766343D01*
X130752046Y-111638580D01*
X130753885Y-111637244D01*
X130761585Y-111626145D01*
X130756805Y-111616008D01*
X129763871Y-110623074D01*
X129750000Y-110615066D01*
X129736129Y-110623074D01*
X128749103Y-111610100D01*
X128741095Y-111623971D01*
X125571039Y-111623971D01*
X125693659Y-111548829D01*
X125885224Y-111385217D01*
X125993877Y-111258001D01*
X126045033Y-111198105D01*
X126045034Y-111198103D01*
X126048836Y-111193652D01*
X126180466Y-110978852D01*
X126195959Y-110941450D01*
X126274632Y-110751514D01*
X126276873Y-110746104D01*
X126335683Y-110501141D01*
X126355449Y-110249993D01*
X126352355Y-110210685D01*
X128038064Y-110210685D01*
X128049712Y-110453198D01*
X128051058Y-110464158D01*
X128098425Y-110702293D01*
X128101372Y-110712920D01*
X128183423Y-110941450D01*
X128187901Y-110951508D01*
X128302832Y-111165406D01*
X128308757Y-111174705D01*
X128364274Y-111249052D01*
X128376853Y-111258969D01*
X128385107Y-111255676D01*
X129376919Y-110263864D01*
X129384927Y-110249993D01*
X130115073Y-110249993D01*
X130123081Y-110263864D01*
X131112673Y-111253456D01*
X131126544Y-111261464D01*
X131132543Y-111258001D01*
X131252238Y-111071913D01*
X131257497Y-111062228D01*
X131357229Y-110840831D01*
X131360993Y-110830491D01*
X131426903Y-110596789D01*
X131429102Y-110585984D01*
X131459971Y-110343337D01*
X131460540Y-110335898D01*
X131462691Y-110253731D01*
X131462512Y-110246261D01*
X131444385Y-110002349D01*
X131442753Y-109991428D01*
X131389169Y-109754616D01*
X131385943Y-109744066D01*
X131297942Y-109517771D01*
X131293195Y-109507818D01*
X131172709Y-109297014D01*
X131166544Y-109287873D01*
X131136716Y-109250035D01*
X131123883Y-109240453D01*
X131114883Y-109244320D01*
X130123081Y-110236122D01*
X130115073Y-110249993D01*
X129384927Y-110249993D01*
X129376919Y-110236122D01*
X128387887Y-109247090D01*
X128374016Y-109239082D01*
X128364636Y-109244497D01*
X128359126Y-109251122D01*
X128352725Y-109260095D01*
X128226763Y-109467674D01*
X128221755Y-109477503D01*
X128127860Y-109701418D01*
X128124360Y-109711878D01*
X128064593Y-109947211D01*
X128062678Y-109958071D01*
X128038352Y-110199651D01*
X128038064Y-110210685D01*
X126352355Y-110210685D01*
X126335683Y-109998845D01*
X126276873Y-109753882D01*
X126180466Y-109521134D01*
X126048836Y-109306334D01*
X126043725Y-109300349D01*
X125889029Y-109119224D01*
X125885224Y-109114769D01*
X125693659Y-108951157D01*
X125569862Y-108875294D01*
X128739058Y-108875294D01*
X128741294Y-108882077D01*
X129736129Y-109876912D01*
X129750000Y-109884920D01*
X129763871Y-109876912D01*
X130751429Y-108889354D01*
X130759437Y-108875483D01*
X130755521Y-108868699D01*
X130623846Y-108777354D01*
X130614348Y-108771759D01*
X130396579Y-108664368D01*
X130386359Y-108660238D01*
X130155110Y-108586214D01*
X130144387Y-108583639D01*
X129904726Y-108544609D01*
X129893756Y-108543650D01*
X129650965Y-108540471D01*
X129639960Y-108541144D01*
X129399373Y-108573887D01*
X129388582Y-108576180D01*
X129155472Y-108644125D01*
X129145148Y-108647986D01*
X128924641Y-108749640D01*
X128915007Y-108754981D01*
X128749722Y-108863346D01*
X128739058Y-108875294D01*
X125569862Y-108875294D01*
X125478859Y-108819527D01*
X125473450Y-108817287D01*
X125473447Y-108817285D01*
X125251521Y-108725361D01*
X125251522Y-108725361D01*
X125246111Y-108723120D01*
X125001148Y-108664310D01*
X124750000Y-108644544D01*
X124498852Y-108664310D01*
X124253889Y-108723120D01*
X124248478Y-108725361D01*
X124248479Y-108725361D01*
X124026553Y-108817285D01*
X124026550Y-108817287D01*
X124021141Y-108819527D01*
X123806341Y-108951157D01*
X123614776Y-109114769D01*
X123610971Y-109119224D01*
X123456276Y-109300349D01*
X123451164Y-109306334D01*
X123319534Y-109521134D01*
X123223127Y-109753882D01*
X123164317Y-109998845D01*
X123144551Y-110249993D01*
X101022098Y-110249993D01*
X101009160Y-110231649D01*
X101000000Y-110180213D01*
X101000000Y-106054500D01*
X101019962Y-105980000D01*
X101074500Y-105925462D01*
X101149000Y-105905500D01*
X105300011Y-105905500D01*
X105304298Y-105905000D01*
X105304305Y-105905000D01*
X105388966Y-105895133D01*
X105388968Y-105895133D01*
X105393264Y-105894632D01*
X105397475Y-105893637D01*
X105442833Y-105882919D01*
X105442840Y-105882917D01*
X105446530Y-105882045D01*
X105450112Y-105880803D01*
X105450132Y-105880797D01*
X105454343Y-105879337D01*
X105531271Y-105873791D01*
X105545127Y-105877147D01*
X105585745Y-105889074D01*
X105699989Y-105905500D01*
X130131000Y-105905500D01*
X130134958Y-105905074D01*
X130134967Y-105905074D01*
X130174098Y-105900867D01*
X130217197Y-105896233D01*
X130266631Y-105885479D01*
X130286864Y-105879064D01*
X130329395Y-105865580D01*
X130329398Y-105865579D01*
X130338282Y-105862762D01*
X130346191Y-105857837D01*
X130346194Y-105857836D01*
X130441014Y-105798795D01*
X130445980Y-105795703D01*
X130450399Y-105791874D01*
X130450403Y-105791871D01*
X130493031Y-105754933D01*
X130496655Y-105751793D01*
X130500214Y-105747803D01*
X130558745Y-105682171D01*
X130565837Y-105674219D01*
X130570402Y-105664590D01*
X130617677Y-105564867D01*
X130617679Y-105564863D01*
X130620183Y-105559580D01*
X130639074Y-105495244D01*
X130655500Y-105381000D01*
X130655500Y-102619000D01*
X130646233Y-102532803D01*
X130635479Y-102483369D01*
X130613937Y-102415424D01*
X130610450Y-102338375D01*
X130616738Y-102317329D01*
X130617675Y-102314871D01*
X130620183Y-102309580D01*
X130639074Y-102245244D01*
X130655500Y-102131000D01*
X130655500Y-88819717D01*
X130675462Y-88745217D01*
X130730000Y-88690679D01*
X130804500Y-88670717D01*
X131950500Y-88670717D01*
X132025000Y-88690679D01*
G37*
%TD.AperFunction*%
%TA.AperFunction,Conductor*%
G36*
X120506039Y-64474588D02*
G01*
X120560577Y-64529126D01*
X120580539Y-64603626D01*
X120560577Y-64678126D01*
X120506039Y-64732664D01*
X120488559Y-64741284D01*
X120471753Y-64748245D01*
X120461343Y-64753550D01*
X120256596Y-64879018D01*
X120251308Y-64886713D01*
X120256220Y-64897010D01*
X121196129Y-65836919D01*
X121210000Y-65844927D01*
X121223871Y-65836919D01*
X122160665Y-64900125D01*
X122168673Y-64886254D01*
X122165094Y-64880054D01*
X121958657Y-64753550D01*
X121948247Y-64748245D01*
X121931441Y-64741284D01*
X121870251Y-64694331D01*
X121840736Y-64623074D01*
X121850803Y-64546606D01*
X121897756Y-64485416D01*
X121969013Y-64455901D01*
X121988461Y-64454626D01*
X125511539Y-64454626D01*
X125586039Y-64474588D01*
X125640577Y-64529126D01*
X125660539Y-64603626D01*
X125640577Y-64678126D01*
X125586039Y-64732664D01*
X125568559Y-64741284D01*
X125551753Y-64748245D01*
X125541343Y-64753550D01*
X125336596Y-64879018D01*
X125331308Y-64886713D01*
X125336220Y-64897010D01*
X126276129Y-65836919D01*
X126290000Y-65844927D01*
X126303871Y-65836919D01*
X127240665Y-64900125D01*
X127248673Y-64886254D01*
X127245094Y-64880054D01*
X127038657Y-64753550D01*
X127028247Y-64748245D01*
X127011441Y-64741284D01*
X126950251Y-64694331D01*
X126920736Y-64623074D01*
X126930803Y-64546606D01*
X126977756Y-64485416D01*
X127049013Y-64455901D01*
X127068461Y-64454626D01*
X131950500Y-64454626D01*
X132025000Y-64474588D01*
X132079538Y-64529126D01*
X132099500Y-64603626D01*
X132099500Y-81088534D01*
X132079538Y-81163034D01*
X132025000Y-81217572D01*
X131950500Y-81237534D01*
X129237618Y-81237534D01*
X129214311Y-81235700D01*
X129205960Y-81234377D01*
X129205957Y-81234377D01*
X129194371Y-81232542D01*
X129192839Y-81232785D01*
X129181560Y-81233357D01*
X129116052Y-81236680D01*
X128817886Y-81251803D01*
X128814153Y-81252375D01*
X128814152Y-81252375D01*
X128448984Y-81308319D01*
X128448982Y-81308319D01*
X128445264Y-81308889D01*
X128306773Y-81344748D01*
X128083994Y-81402431D01*
X128083989Y-81402433D01*
X128080330Y-81403380D01*
X127726827Y-81534305D01*
X127388383Y-81700322D01*
X127385177Y-81702320D01*
X127385174Y-81702322D01*
X127160270Y-81842508D01*
X127068472Y-81899727D01*
X127065484Y-81902040D01*
X127065481Y-81902042D01*
X126773356Y-82128165D01*
X126773350Y-82128170D01*
X126770375Y-82130473D01*
X126767652Y-82133061D01*
X126767649Y-82133064D01*
X126499884Y-82387596D01*
X126497151Y-82390194D01*
X126251605Y-82676223D01*
X126036256Y-82985626D01*
X125853313Y-83315228D01*
X125704653Y-83661647D01*
X125703528Y-83665234D01*
X125703525Y-83665241D01*
X125680037Y-83740105D01*
X125638688Y-83805212D01*
X125570325Y-83840922D01*
X125537870Y-83844500D01*
X95869000Y-83844500D01*
X95865042Y-83844926D01*
X95865033Y-83844926D01*
X95825901Y-83849134D01*
X95782803Y-83853767D01*
X95733369Y-83864521D01*
X95730064Y-83865569D01*
X95670605Y-83884420D01*
X95670602Y-83884421D01*
X95661718Y-83887238D01*
X95653809Y-83892163D01*
X95653806Y-83892164D01*
X95578146Y-83939275D01*
X95554020Y-83954297D01*
X95549601Y-83958126D01*
X95549597Y-83958129D01*
X95518670Y-83984928D01*
X95503345Y-83998207D01*
X95434163Y-84075781D01*
X95379817Y-84190420D01*
X95360926Y-84254756D01*
X95344500Y-84369000D01*
X95344500Y-116520318D01*
X95324538Y-116594818D01*
X95300859Y-116625677D01*
X91125677Y-120800859D01*
X91058882Y-120839423D01*
X91020318Y-120844500D01*
X90788930Y-120844500D01*
X90784207Y-120845108D01*
X90784200Y-120845108D01*
X90691046Y-120857091D01*
X90691040Y-120857092D01*
X90686307Y-120857701D01*
X90628037Y-120872944D01*
X90542278Y-120906157D01*
X90440535Y-120981945D01*
X90393690Y-121029919D01*
X90390815Y-121033740D01*
X90390812Y-121033744D01*
X90369392Y-121062217D01*
X90308652Y-121109750D01*
X90232283Y-121120545D01*
X90160748Y-121091709D01*
X90130409Y-121061080D01*
X90128868Y-121058991D01*
X90125773Y-121054020D01*
X90081863Y-121003345D01*
X90004289Y-120934163D01*
X89994661Y-120929599D01*
X89994660Y-120929598D01*
X89894937Y-120882323D01*
X89894933Y-120882321D01*
X89889650Y-120879817D01*
X89825314Y-120860926D01*
X89711070Y-120844500D01*
X85119000Y-120844500D01*
X85115042Y-120844926D01*
X85115033Y-120844926D01*
X85075901Y-120849134D01*
X85032803Y-120853767D01*
X84983369Y-120864521D01*
X84980064Y-120865569D01*
X84920605Y-120884420D01*
X84920602Y-120884421D01*
X84911718Y-120887238D01*
X84903809Y-120892163D01*
X84903806Y-120892164D01*
X84828146Y-120939275D01*
X84804020Y-120954297D01*
X84799601Y-120958126D01*
X84799597Y-120958129D01*
X84776149Y-120978447D01*
X84753345Y-120998207D01*
X84750154Y-121001785D01*
X84750153Y-121001786D01*
X84745531Y-121006969D01*
X84684163Y-121075781D01*
X84679599Y-121085409D01*
X84679598Y-121085410D01*
X84643424Y-121161718D01*
X84629817Y-121190420D01*
X84610926Y-121254756D01*
X84594500Y-121369000D01*
X84594500Y-121521041D01*
X84594858Y-121524672D01*
X84594858Y-121524680D01*
X84599833Y-121575191D01*
X84602291Y-121600148D01*
X84611349Y-121645687D01*
X84627386Y-121698554D01*
X84632525Y-121722355D01*
X84633476Y-121729576D01*
X84633606Y-121730564D01*
X84633606Y-121769436D01*
X84632525Y-121777645D01*
X84627386Y-121801446D01*
X84611349Y-121854313D01*
X84602291Y-121899852D01*
X84594500Y-121978959D01*
X84594500Y-122271041D01*
X84602291Y-122350148D01*
X84611349Y-122395687D01*
X84627386Y-122448554D01*
X84632525Y-122472355D01*
X84633476Y-122479576D01*
X84633606Y-122480564D01*
X84633606Y-122519436D01*
X84632525Y-122527645D01*
X84627386Y-122551446D01*
X84611349Y-122604313D01*
X84602291Y-122649852D01*
X84594500Y-122728959D01*
X84594500Y-124852055D01*
X84610252Y-124963979D01*
X84628384Y-125027119D01*
X84668416Y-125120448D01*
X84748959Y-125218470D01*
X84753335Y-125222354D01*
X84753338Y-125222357D01*
X84795534Y-125259808D01*
X84799108Y-125262980D01*
X84803052Y-125265663D01*
X84803057Y-125265667D01*
X84854762Y-125300842D01*
X84885046Y-125321444D01*
X84895186Y-125324712D01*
X84895188Y-125324713D01*
X84941714Y-125339708D01*
X84998521Y-125358017D01*
X85063304Y-125399869D01*
X85098483Y-125468507D01*
X85094629Y-125545539D01*
X85052776Y-125610323D01*
X84993173Y-125643262D01*
X84921867Y-125663327D01*
X84921866Y-125663327D01*
X84911718Y-125666183D01*
X84804020Y-125733242D01*
X84799601Y-125737071D01*
X84799597Y-125737074D01*
X84768670Y-125763873D01*
X84753345Y-125777152D01*
X84684163Y-125854726D01*
X84629817Y-125969365D01*
X84610926Y-126033701D01*
X84594500Y-126147945D01*
X84594500Y-129131000D01*
X84594926Y-129134958D01*
X84594926Y-129134967D01*
X84598016Y-129163702D01*
X84603767Y-129217197D01*
X84614521Y-129266631D01*
X84637238Y-129338282D01*
X84642163Y-129346191D01*
X84642164Y-129346194D01*
X84655581Y-129367741D01*
X84704297Y-129445980D01*
X84708126Y-129450399D01*
X84708129Y-129450403D01*
X84717557Y-129461283D01*
X84748207Y-129496655D01*
X84825781Y-129565837D01*
X84835409Y-129570401D01*
X84835410Y-129570402D01*
X84935133Y-129617677D01*
X84935137Y-129617679D01*
X84940420Y-129620183D01*
X85004756Y-129639074D01*
X85119000Y-129655500D01*
X91381000Y-129655500D01*
X91384958Y-129655074D01*
X91384967Y-129655074D01*
X91424098Y-129650867D01*
X91467197Y-129646233D01*
X91516631Y-129635479D01*
X91564876Y-129620183D01*
X91579395Y-129615580D01*
X91579398Y-129615579D01*
X91588282Y-129612762D01*
X91596191Y-129607837D01*
X91596194Y-129607836D01*
X91691014Y-129548795D01*
X91695980Y-129545703D01*
X91700399Y-129541874D01*
X91700403Y-129541871D01*
X91743031Y-129504933D01*
X91746655Y-129501793D01*
X91815837Y-129424219D01*
X91852826Y-129346194D01*
X91867677Y-129314867D01*
X91867679Y-129314863D01*
X91870183Y-129309580D01*
X91884001Y-129262521D01*
X91924144Y-129196663D01*
X91991838Y-129159700D01*
X92026965Y-129155500D01*
X94201862Y-129155500D01*
X94231944Y-129152898D01*
X94268288Y-129149755D01*
X94268299Y-129149754D01*
X94271485Y-129149478D01*
X94274650Y-129148926D01*
X94274653Y-129148926D01*
X94309091Y-129142924D01*
X94309095Y-129142923D01*
X94311741Y-129142462D01*
X94368339Y-129128339D01*
X94481242Y-129070474D01*
X94535395Y-129030933D01*
X94617976Y-128950296D01*
X94631792Y-128932291D01*
X94692979Y-128885339D01*
X94769447Y-128875272D01*
X94840705Y-128904787D01*
X94868207Y-128932289D01*
X94882024Y-128950296D01*
X94929189Y-129001869D01*
X94931548Y-129004039D01*
X94956746Y-129027220D01*
X94959262Y-129029535D01*
X94961353Y-129031197D01*
X94961364Y-129031207D01*
X94998233Y-129060521D01*
X95004919Y-129065837D01*
X95012639Y-129069497D01*
X95012641Y-129069498D01*
X95114271Y-129117677D01*
X95114275Y-129117679D01*
X95119558Y-129120183D01*
X95183894Y-129139074D01*
X95298138Y-129155500D01*
X95451862Y-129155500D01*
X95481944Y-129152898D01*
X95518288Y-129149755D01*
X95518299Y-129149754D01*
X95521485Y-129149478D01*
X95524650Y-129148926D01*
X95524653Y-129148926D01*
X95559091Y-129142924D01*
X95559095Y-129142923D01*
X95561741Y-129142462D01*
X95618339Y-129128339D01*
X95731242Y-129070474D01*
X95785395Y-129030933D01*
X95867976Y-128950296D01*
X95881792Y-128932291D01*
X95942979Y-128885339D01*
X96019447Y-128875272D01*
X96090705Y-128904787D01*
X96118207Y-128932289D01*
X96132024Y-128950296D01*
X96179189Y-129001869D01*
X96181548Y-129004039D01*
X96206746Y-129027220D01*
X96209262Y-129029535D01*
X96211353Y-129031197D01*
X96211364Y-129031207D01*
X96248233Y-129060521D01*
X96254919Y-129065837D01*
X96262639Y-129069497D01*
X96262641Y-129069498D01*
X96364271Y-129117677D01*
X96364275Y-129117679D01*
X96369558Y-129120183D01*
X96433894Y-129139074D01*
X96548138Y-129155500D01*
X102851000Y-129155500D01*
X102925500Y-129175462D01*
X102980038Y-129230000D01*
X103000000Y-129304500D01*
X103000000Y-138700000D01*
X103450500Y-138700000D01*
X103525000Y-138719962D01*
X103579538Y-138774500D01*
X103599500Y-138849000D01*
X103599500Y-146166591D01*
X103579538Y-146241091D01*
X103525000Y-146295629D01*
X103450500Y-146315591D01*
X76438247Y-146315591D01*
X76363747Y-146295629D01*
X76309209Y-146241091D01*
X76289247Y-146166591D01*
X76289247Y-143747948D01*
X77919636Y-143747948D01*
X77949301Y-143944098D01*
X77951906Y-143951177D01*
X77990836Y-144056988D01*
X78000000Y-144108437D01*
X78000000Y-144600000D01*
X78490111Y-144600000D01*
X78549286Y-144612255D01*
X78596276Y-144632590D01*
X78596284Y-144632593D01*
X78603213Y-144635591D01*
X78610607Y-144637136D01*
X78610608Y-144637136D01*
X78670720Y-144649694D01*
X78797402Y-144676159D01*
X78803909Y-144676500D01*
X78949578Y-144676500D01*
X78953327Y-144676119D01*
X78953331Y-144676119D01*
X79089856Y-144662251D01*
X79089858Y-144662251D01*
X79097365Y-144661488D01*
X79271817Y-144606818D01*
X79316374Y-144600000D01*
X79800000Y-144600000D01*
X79800000Y-144117407D01*
X79814271Y-144056078D01*
X79814013Y-144055982D01*
X79814761Y-144053970D01*
X79815307Y-144051625D01*
X79816644Y-144048908D01*
X79816645Y-144048906D01*
X79819976Y-144042136D01*
X79869982Y-143850161D01*
X79880364Y-143652052D01*
X79850699Y-143455902D01*
X79809164Y-143343012D01*
X79800000Y-143291563D01*
X79800000Y-142800000D01*
X79309889Y-142800000D01*
X79250714Y-142787745D01*
X79203724Y-142767410D01*
X79203716Y-142767407D01*
X79196787Y-142764409D01*
X79189393Y-142762864D01*
X79189392Y-142762864D01*
X79069172Y-142737749D01*
X79002598Y-142723841D01*
X78996091Y-142723500D01*
X78850422Y-142723500D01*
X78846673Y-142723881D01*
X78846669Y-142723881D01*
X78710144Y-142737749D01*
X78710142Y-142737749D01*
X78702635Y-142738512D01*
X78528183Y-142793182D01*
X78483626Y-142800000D01*
X78000000Y-142800000D01*
X78000000Y-143282593D01*
X77985729Y-143343922D01*
X77985987Y-143344018D01*
X77985239Y-143346030D01*
X77984693Y-143348375D01*
X77980024Y-143357864D01*
X77930018Y-143549839D01*
X77919636Y-143747948D01*
X76289247Y-143747948D01*
X76289247Y-137869754D01*
X82074967Y-137869754D01*
X82075414Y-137876572D01*
X82088010Y-138068751D01*
X82088796Y-138080749D01*
X82140845Y-138285690D01*
X82143703Y-138291890D01*
X82143705Y-138291895D01*
X82182435Y-138375907D01*
X82229369Y-138477714D01*
X82351405Y-138650391D01*
X82502865Y-138797937D01*
X82678677Y-138915411D01*
X82872953Y-138998878D01*
X83079186Y-139045544D01*
X83130544Y-139047562D01*
X83283641Y-139053578D01*
X83283645Y-139053578D01*
X83290470Y-139053846D01*
X83499730Y-139023504D01*
X83506187Y-139021312D01*
X83506192Y-139021311D01*
X83642083Y-138975182D01*
X83699955Y-138955537D01*
X83800909Y-138899000D01*
X83878481Y-138855558D01*
X83878486Y-138855554D01*
X83884442Y-138852219D01*
X84047012Y-138717012D01*
X84182219Y-138554442D01*
X84185554Y-138548486D01*
X84185558Y-138548481D01*
X84232470Y-138464713D01*
X84285537Y-138369955D01*
X84316389Y-138279068D01*
X84351311Y-138176192D01*
X84351312Y-138176187D01*
X84353504Y-138169730D01*
X84354483Y-138162977D01*
X84356079Y-138156329D01*
X84357585Y-138156691D01*
X84384723Y-138093523D01*
X84446521Y-138047374D01*
X84523114Y-138038306D01*
X84593979Y-138068751D01*
X84640128Y-138130549D01*
X84646152Y-138149088D01*
X84651395Y-138169730D01*
X84680845Y-138285690D01*
X84683703Y-138291890D01*
X84683705Y-138291895D01*
X84722435Y-138375907D01*
X84769369Y-138477714D01*
X84891405Y-138650391D01*
X85042865Y-138797937D01*
X85218677Y-138915411D01*
X85412953Y-138998878D01*
X85619186Y-139045544D01*
X85670544Y-139047562D01*
X85823641Y-139053578D01*
X85823645Y-139053578D01*
X85830470Y-139053846D01*
X86039730Y-139023504D01*
X86046187Y-139021312D01*
X86046192Y-139021311D01*
X86182083Y-138975182D01*
X86239955Y-138955537D01*
X86340909Y-138899000D01*
X86418481Y-138855558D01*
X86418486Y-138855554D01*
X86424442Y-138852219D01*
X86587012Y-138717012D01*
X86722219Y-138554442D01*
X86725554Y-138548486D01*
X86725558Y-138548481D01*
X86772470Y-138464713D01*
X86825537Y-138369955D01*
X86856389Y-138279068D01*
X86891311Y-138176192D01*
X86891312Y-138176187D01*
X86893504Y-138169730D01*
X86923846Y-137960470D01*
X86925429Y-137900000D01*
X86906081Y-137689440D01*
X86848686Y-137485931D01*
X86755165Y-137296290D01*
X86751084Y-137290825D01*
X86751081Y-137290820D01*
X86632739Y-137132341D01*
X86632737Y-137132339D01*
X86628651Y-137126867D01*
X86473381Y-136983337D01*
X86294554Y-136870505D01*
X86288215Y-136867976D01*
X86288209Y-136867973D01*
X86104504Y-136794683D01*
X86098160Y-136792152D01*
X86043713Y-136781322D01*
X85897478Y-136752234D01*
X85897475Y-136752234D01*
X85890775Y-136750901D01*
X85785061Y-136749517D01*
X85686180Y-136748222D01*
X85686175Y-136748222D01*
X85679346Y-136748133D01*
X85672613Y-136749290D01*
X85672612Y-136749290D01*
X85477684Y-136782784D01*
X85477680Y-136782785D01*
X85470953Y-136783941D01*
X85272575Y-136857127D01*
X85266702Y-136860621D01*
X85250089Y-136870505D01*
X85090856Y-136965238D01*
X85058641Y-136993489D01*
X84937022Y-137100146D01*
X84937019Y-137100149D01*
X84931881Y-137104655D01*
X84876189Y-137175300D01*
X84805207Y-137265340D01*
X84805203Y-137265346D01*
X84800976Y-137270708D01*
X84797797Y-137276751D01*
X84797794Y-137276755D01*
X84784295Y-137302413D01*
X84702523Y-137457836D01*
X84700499Y-137464356D01*
X84700496Y-137464362D01*
X84641153Y-137655480D01*
X84599997Y-137720710D01*
X84531739Y-137756622D01*
X84454671Y-137753594D01*
X84389441Y-137712438D01*
X84355449Y-137651741D01*
X84310541Y-137492509D01*
X84308686Y-137485931D01*
X84215165Y-137296290D01*
X84211084Y-137290825D01*
X84211081Y-137290820D01*
X84092739Y-137132341D01*
X84092737Y-137132339D01*
X84088651Y-137126867D01*
X83933381Y-136983337D01*
X83754554Y-136870505D01*
X83748215Y-136867976D01*
X83748209Y-136867973D01*
X83564504Y-136794683D01*
X83558160Y-136792152D01*
X83503713Y-136781322D01*
X83357478Y-136752234D01*
X83357475Y-136752234D01*
X83350775Y-136750901D01*
X83245061Y-136749517D01*
X83146180Y-136748222D01*
X83146175Y-136748222D01*
X83139346Y-136748133D01*
X83132613Y-136749290D01*
X83132612Y-136749290D01*
X82937684Y-136782784D01*
X82937680Y-136782785D01*
X82930953Y-136783941D01*
X82732575Y-136857127D01*
X82726702Y-136860621D01*
X82710089Y-136870505D01*
X82550856Y-136965238D01*
X82518641Y-136993489D01*
X82397022Y-137100146D01*
X82397019Y-137100149D01*
X82391881Y-137104655D01*
X82336189Y-137175300D01*
X82265207Y-137265340D01*
X82265203Y-137265346D01*
X82260976Y-137270708D01*
X82257797Y-137276751D01*
X82257794Y-137276755D01*
X82244295Y-137302413D01*
X82162523Y-137457836D01*
X82151757Y-137492509D01*
X82101844Y-137653253D01*
X82101843Y-137653258D01*
X82099820Y-137659773D01*
X82099018Y-137666550D01*
X82099017Y-137666554D01*
X82088357Y-137756622D01*
X82074967Y-137869754D01*
X76289247Y-137869754D01*
X76289247Y-132322110D01*
X88189754Y-132322110D01*
X88190995Y-132353709D01*
X88200876Y-132605192D01*
X88251774Y-132883883D01*
X88253442Y-132888884D01*
X88253444Y-132888890D01*
X88339762Y-133147618D01*
X88339765Y-133147625D01*
X88341432Y-133152622D01*
X88468061Y-133406047D01*
X88629135Y-133639101D01*
X88821439Y-133847135D01*
X89041138Y-134025997D01*
X89045648Y-134028712D01*
X89209308Y-134127244D01*
X89283846Y-134172120D01*
X89544722Y-134282586D01*
X89549821Y-134283938D01*
X89549824Y-134283939D01*
X89746803Y-134336167D01*
X89818560Y-134355193D01*
X90099897Y-134388492D01*
X90210181Y-134385893D01*
X90377863Y-134381941D01*
X90377865Y-134381941D01*
X90383119Y-134381817D01*
X90551204Y-134353840D01*
X90657385Y-134336167D01*
X90657389Y-134336166D01*
X90662574Y-134335303D01*
X90750380Y-134307534D01*
X90927675Y-134251463D01*
X90927682Y-134251460D01*
X90932688Y-134249877D01*
X90937422Y-134247604D01*
X90937429Y-134247601D01*
X91100271Y-134169405D01*
X91188071Y-134127244D01*
X91192448Y-134124320D01*
X91192454Y-134124316D01*
X91419243Y-133972780D01*
X91423627Y-133969851D01*
X91634655Y-133780838D01*
X91816947Y-133563976D01*
X91824749Y-133551466D01*
X91964075Y-133328064D01*
X91964077Y-133328060D01*
X91966863Y-133323593D01*
X92081414Y-133064484D01*
X92132349Y-132883883D01*
X92156886Y-132796881D01*
X92156887Y-132796876D01*
X92158313Y-132791820D01*
X92184088Y-132599922D01*
X92195520Y-132514810D01*
X92195520Y-132514805D01*
X92196026Y-132511041D01*
X92196146Y-132507235D01*
X92199865Y-132388909D01*
X92199865Y-132388900D01*
X92199984Y-132385108D01*
X92195524Y-132322110D01*
X92180347Y-132107770D01*
X92179975Y-132102515D01*
X92120349Y-131825561D01*
X92022294Y-131559771D01*
X91994167Y-131507641D01*
X91890266Y-131315079D01*
X91890264Y-131315076D01*
X91887767Y-131310448D01*
X91852244Y-131262353D01*
X91722580Y-131086803D01*
X91719452Y-131082568D01*
X91715761Y-131078819D01*
X91715758Y-131078815D01*
X91621497Y-130983063D01*
X91520708Y-130880678D01*
X91467092Y-130839759D01*
X91299689Y-130712001D01*
X91295500Y-130708804D01*
X91048321Y-130570378D01*
X90784104Y-130468160D01*
X90508121Y-130404190D01*
X90502880Y-130403736D01*
X90502873Y-130403735D01*
X90231134Y-130380200D01*
X90231130Y-130380200D01*
X90225877Y-130379745D01*
X89943004Y-130395313D01*
X89937836Y-130396341D01*
X89670324Y-130449552D01*
X89670318Y-130449554D01*
X89665148Y-130450582D01*
X89660170Y-130452330D01*
X89660167Y-130452331D01*
X89432818Y-130532170D01*
X89397850Y-130544450D01*
X89393187Y-130546872D01*
X89393183Y-130546874D01*
X89151115Y-130672618D01*
X89151108Y-130672622D01*
X89146446Y-130675044D01*
X88915950Y-130839759D01*
X88912144Y-130843389D01*
X88912140Y-130843393D01*
X88786960Y-130962809D01*
X88710962Y-131035307D01*
X88707700Y-131039445D01*
X88707698Y-131039447D01*
X88670366Y-131086803D01*
X88535573Y-131257788D01*
X88507445Y-131306214D01*
X88433523Y-131433481D01*
X88393281Y-131502762D01*
X88286926Y-131765340D01*
X88279303Y-131796030D01*
X88226805Y-132007372D01*
X88218629Y-132040285D01*
X88218092Y-132045526D01*
X88218091Y-132045532D01*
X88192003Y-132300161D01*
X88189754Y-132322110D01*
X76289247Y-132322110D01*
X76289247Y-129681683D01*
X76309209Y-129607183D01*
X76363747Y-129552645D01*
X76438247Y-129532683D01*
X79151127Y-129532683D01*
X79174433Y-129534517D01*
X79194374Y-129537675D01*
X79196408Y-129537353D01*
X79570859Y-129518362D01*
X79574589Y-129517791D01*
X79574595Y-129517790D01*
X79939746Y-129461851D01*
X79939748Y-129461850D01*
X79943479Y-129461279D01*
X79947138Y-129460332D01*
X79947141Y-129460331D01*
X80304749Y-129367739D01*
X80304755Y-129367737D01*
X80308413Y-129366790D01*
X80311955Y-129365478D01*
X80311962Y-129365476D01*
X80658363Y-129237183D01*
X80658365Y-129237182D01*
X80661916Y-129235867D01*
X80665308Y-129234203D01*
X80665313Y-129234201D01*
X80817192Y-129159700D01*
X81000359Y-129069852D01*
X81003551Y-129067863D01*
X81003559Y-129067858D01*
X81317057Y-128872453D01*
X81317061Y-128872450D01*
X81320270Y-128870450D01*
X81323264Y-128868133D01*
X81323269Y-128868129D01*
X81615380Y-128642017D01*
X81618367Y-128639705D01*
X81621096Y-128637111D01*
X81621104Y-128637104D01*
X81825358Y-128442945D01*
X81891591Y-128379986D01*
X81894048Y-128377124D01*
X81894053Y-128377119D01*
X82134669Y-128096834D01*
X82134670Y-128096833D01*
X82137137Y-128093959D01*
X82287639Y-127877727D01*
X82350331Y-127787655D01*
X82350333Y-127787651D01*
X82352487Y-127784557D01*
X82436093Y-127633929D01*
X82533603Y-127458249D01*
X82533605Y-127458246D01*
X82535430Y-127454957D01*
X82674225Y-127131525D01*
X82682604Y-127112000D01*
X82682605Y-127111996D01*
X82684089Y-127108539D01*
X82687935Y-127096283D01*
X82760865Y-126863835D01*
X82796939Y-126748859D01*
X82872822Y-126379608D01*
X82910960Y-126004574D01*
X82910960Y-125627606D01*
X82874154Y-125265667D01*
X82873206Y-125256346D01*
X82873205Y-125256342D01*
X82872822Y-125252572D01*
X82796939Y-124883321D01*
X82684089Y-124523641D01*
X82682603Y-124520177D01*
X82536915Y-124180684D01*
X82536914Y-124180681D01*
X82535430Y-124177223D01*
X82437063Y-124000000D01*
X82354319Y-123850923D01*
X82354316Y-123850918D01*
X82352487Y-123847623D01*
X82350328Y-123844520D01*
X82139299Y-123541327D01*
X82139297Y-123541325D01*
X82137137Y-123538221D01*
X81973311Y-123347386D01*
X81894053Y-123255061D01*
X81894045Y-123255053D01*
X81891591Y-123252194D01*
X81663359Y-123035243D01*
X81621104Y-122995076D01*
X81621096Y-122995069D01*
X81618367Y-122992475D01*
X81505995Y-122905492D01*
X81323269Y-122764051D01*
X81323264Y-122764047D01*
X81320270Y-122761730D01*
X81317061Y-122759730D01*
X81317057Y-122759727D01*
X81003559Y-122564322D01*
X81003548Y-122564316D01*
X81000359Y-122562328D01*
X80667755Y-122399177D01*
X80665313Y-122397979D01*
X80665308Y-122397977D01*
X80661916Y-122396313D01*
X80650554Y-122392105D01*
X80311962Y-122266704D01*
X80311955Y-122266702D01*
X80308413Y-122265390D01*
X80304755Y-122264443D01*
X80304749Y-122264441D01*
X79947141Y-122171849D01*
X79947138Y-122171848D01*
X79943479Y-122170901D01*
X79939748Y-122170330D01*
X79939746Y-122170329D01*
X79574595Y-122114390D01*
X79574589Y-122114389D01*
X79570859Y-122113818D01*
X79196380Y-122094826D01*
X79194374Y-122094508D01*
X79174433Y-122097666D01*
X79151127Y-122099500D01*
X76438247Y-122099500D01*
X76363747Y-122079538D01*
X76309209Y-122025000D01*
X76289247Y-121950500D01*
X76289247Y-107990000D01*
X81519437Y-107990000D01*
X81539651Y-108221050D01*
X81599680Y-108445079D01*
X81697699Y-108655281D01*
X81701430Y-108660609D01*
X81701432Y-108660613D01*
X81763770Y-108749640D01*
X81830730Y-108845269D01*
X81994731Y-109009270D01*
X82097562Y-109081273D01*
X82179386Y-109138568D01*
X82179390Y-109138570D01*
X82184718Y-109142301D01*
X82394921Y-109240320D01*
X82401202Y-109242003D01*
X82612672Y-109298667D01*
X82612674Y-109298667D01*
X82618950Y-109300349D01*
X82625421Y-109300915D01*
X82625426Y-109300916D01*
X82843519Y-109319996D01*
X82850000Y-109320563D01*
X82856481Y-109319996D01*
X83074574Y-109300916D01*
X83074579Y-109300915D01*
X83081050Y-109300349D01*
X83087326Y-109298667D01*
X83087328Y-109298667D01*
X83298798Y-109242003D01*
X83305079Y-109240320D01*
X83515282Y-109142301D01*
X83520610Y-109138570D01*
X83520614Y-109138568D01*
X83602438Y-109081273D01*
X83705269Y-109009270D01*
X83869270Y-108845269D01*
X83936230Y-108749640D01*
X83998568Y-108660613D01*
X83998570Y-108660609D01*
X84002301Y-108655281D01*
X84100320Y-108445079D01*
X84160349Y-108221050D01*
X84180563Y-107990000D01*
X84160349Y-107758950D01*
X84100320Y-107534921D01*
X84002301Y-107324719D01*
X83998570Y-107319391D01*
X83998568Y-107319387D01*
X83872999Y-107140057D01*
X83869270Y-107134731D01*
X83705269Y-106970730D01*
X83699935Y-106966995D01*
X83699934Y-106966994D01*
X83615855Y-106908121D01*
X83566278Y-106849037D01*
X83552885Y-106773081D01*
X83579265Y-106700605D01*
X83614793Y-106664765D01*
X83651797Y-106638370D01*
X83661986Y-106626010D01*
X83659111Y-106618321D01*
X82863871Y-105823081D01*
X82850000Y-105815073D01*
X82836129Y-105823081D01*
X82042965Y-106616245D01*
X82034957Y-106630116D01*
X82037942Y-106635286D01*
X82074750Y-106656795D01*
X82129002Y-106711617D01*
X82148574Y-106786221D01*
X82128222Y-106860615D01*
X82085039Y-106907494D01*
X82000064Y-106966995D01*
X82000058Y-106967000D01*
X81994731Y-106970730D01*
X81830730Y-107134731D01*
X81827001Y-107140057D01*
X81701432Y-107319387D01*
X81701430Y-107319391D01*
X81697699Y-107324719D01*
X81599680Y-107534921D01*
X81539651Y-107758950D01*
X81519437Y-107990000D01*
X76289247Y-107990000D01*
X76289247Y-105420968D01*
X81412870Y-105420968D01*
X81425731Y-105644018D01*
X81427426Y-105656079D01*
X81476543Y-105874031D01*
X81480186Y-105885657D01*
X81564243Y-106092662D01*
X81569734Y-106103533D01*
X81661134Y-106252683D01*
X81672751Y-106263707D01*
X81678907Y-106261883D01*
X82476919Y-105463871D01*
X82484927Y-105450000D01*
X83215073Y-105450000D01*
X83223081Y-105463871D01*
X84013157Y-106253947D01*
X84027028Y-106261955D01*
X84034228Y-106257799D01*
X84078959Y-106195549D01*
X84085242Y-106185092D01*
X84184226Y-105984813D01*
X84188714Y-105973479D01*
X84253660Y-105759716D01*
X84256235Y-105747803D01*
X84285676Y-105524173D01*
X84286291Y-105516285D01*
X84287814Y-105453956D01*
X84287586Y-105446051D01*
X84269104Y-105221241D01*
X84267115Y-105209227D01*
X84212687Y-104992541D01*
X84208758Y-104981002D01*
X84119674Y-104776122D01*
X84113914Y-104765379D01*
X84038119Y-104648218D01*
X84026234Y-104637479D01*
X84019582Y-104639628D01*
X83223081Y-105436129D01*
X83215073Y-105450000D01*
X82484927Y-105450000D01*
X82476919Y-105436129D01*
X81686934Y-104646144D01*
X81673063Y-104638136D01*
X81666466Y-104641945D01*
X81603187Y-104734709D01*
X81597172Y-104745297D01*
X81503106Y-104947945D01*
X81498896Y-104959386D01*
X81439190Y-105174676D01*
X81436909Y-105186639D01*
X81413168Y-105408791D01*
X81412870Y-105420968D01*
X76289247Y-105420968D01*
X76289247Y-101649000D01*
X76309209Y-101574500D01*
X76363747Y-101519962D01*
X76438247Y-101500000D01*
X82080183Y-101500000D01*
X82154683Y-101519962D01*
X82209221Y-101574500D01*
X82229183Y-101649000D01*
X82209221Y-101723500D01*
X82165646Y-101771054D01*
X81994731Y-101890730D01*
X81830730Y-102054731D01*
X81827001Y-102060057D01*
X81701432Y-102239387D01*
X81701430Y-102239391D01*
X81697699Y-102244719D01*
X81599680Y-102454921D01*
X81597997Y-102461202D01*
X81579855Y-102528910D01*
X81539651Y-102678950D01*
X81519437Y-102910000D01*
X81539651Y-103141050D01*
X81599680Y-103365079D01*
X81697699Y-103575281D01*
X81701430Y-103580609D01*
X81701432Y-103580613D01*
X81779810Y-103692548D01*
X81830730Y-103765269D01*
X81994731Y-103929270D01*
X82082201Y-103990517D01*
X82131775Y-104049598D01*
X82145168Y-104125554D01*
X82118789Y-104198031D01*
X82082954Y-104232162D01*
X82083771Y-104233250D01*
X82047303Y-104260631D01*
X82037421Y-104273234D01*
X82040767Y-104281557D01*
X82836129Y-105076919D01*
X82850000Y-105084927D01*
X82863871Y-105076919D01*
X83655731Y-104285059D01*
X83663739Y-104271188D01*
X83658826Y-104262677D01*
X83650526Y-104256122D01*
X83640370Y-104249374D01*
X83630192Y-104243756D01*
X83574617Y-104190275D01*
X83553229Y-104116172D01*
X83571759Y-104041303D01*
X83616739Y-103991260D01*
X83699934Y-103933006D01*
X83699937Y-103933004D01*
X83705269Y-103929270D01*
X83869270Y-103765269D01*
X83920190Y-103692548D01*
X83998568Y-103580613D01*
X83998570Y-103580609D01*
X84002301Y-103575281D01*
X84100320Y-103365079D01*
X84160349Y-103141050D01*
X84180563Y-102910000D01*
X84160349Y-102678950D01*
X84120146Y-102528910D01*
X84102003Y-102461202D01*
X84100320Y-102454921D01*
X84002301Y-102244719D01*
X83998570Y-102239391D01*
X83998568Y-102239387D01*
X83872999Y-102060057D01*
X83869270Y-102054731D01*
X83705269Y-101890730D01*
X83534350Y-101771051D01*
X83484776Y-101711970D01*
X83471383Y-101636014D01*
X83497762Y-101563537D01*
X83556846Y-101513960D01*
X83619816Y-101500000D01*
X93500000Y-101500000D01*
X93500000Y-80149000D01*
X93519962Y-80074500D01*
X93574500Y-80019962D01*
X93649000Y-80000000D01*
X109000000Y-80000000D01*
X109000000Y-78322110D01*
X116189754Y-78322110D01*
X116190995Y-78353709D01*
X116200876Y-78605192D01*
X116251774Y-78883883D01*
X116253442Y-78888884D01*
X116253444Y-78888890D01*
X116339762Y-79147618D01*
X116339765Y-79147625D01*
X116341432Y-79152622D01*
X116468061Y-79406047D01*
X116629135Y-79639101D01*
X116821439Y-79847135D01*
X117041138Y-80025997D01*
X117045648Y-80028712D01*
X117209308Y-80127244D01*
X117283846Y-80172120D01*
X117544722Y-80282586D01*
X117549821Y-80283938D01*
X117549824Y-80283939D01*
X117746803Y-80336167D01*
X117818560Y-80355193D01*
X118099897Y-80388492D01*
X118210181Y-80385893D01*
X118377863Y-80381941D01*
X118377865Y-80381941D01*
X118383119Y-80381817D01*
X118551204Y-80353840D01*
X118657385Y-80336167D01*
X118657389Y-80336166D01*
X118662574Y-80335303D01*
X118750380Y-80307534D01*
X118927675Y-80251463D01*
X118927682Y-80251460D01*
X118932688Y-80249877D01*
X118937422Y-80247604D01*
X118937429Y-80247601D01*
X119142764Y-80149000D01*
X119188071Y-80127244D01*
X119192448Y-80124320D01*
X119192454Y-80124316D01*
X119419243Y-79972780D01*
X119423627Y-79969851D01*
X119634655Y-79780838D01*
X119816947Y-79563976D01*
X119824749Y-79551466D01*
X119964075Y-79328064D01*
X119964077Y-79328060D01*
X119966863Y-79323593D01*
X120081414Y-79064484D01*
X120132349Y-78883883D01*
X120156886Y-78796881D01*
X120156887Y-78796876D01*
X120158313Y-78791820D01*
X120184088Y-78599922D01*
X120195520Y-78514810D01*
X120195520Y-78514805D01*
X120196026Y-78511041D01*
X120199984Y-78385108D01*
X120195524Y-78322110D01*
X120180347Y-78107770D01*
X120179975Y-78102515D01*
X120120349Y-77825561D01*
X120022294Y-77559771D01*
X119994167Y-77507641D01*
X119890266Y-77315079D01*
X119890264Y-77315076D01*
X119887767Y-77310448D01*
X119852244Y-77262353D01*
X119722580Y-77086803D01*
X119719452Y-77082568D01*
X119715761Y-77078819D01*
X119715758Y-77078815D01*
X119621497Y-76983063D01*
X119520708Y-76880678D01*
X119467092Y-76839759D01*
X119299689Y-76712001D01*
X119295500Y-76708804D01*
X119048321Y-76570378D01*
X118784104Y-76468160D01*
X118508121Y-76404190D01*
X118502880Y-76403736D01*
X118502873Y-76403735D01*
X118231134Y-76380200D01*
X118231130Y-76380200D01*
X118225877Y-76379745D01*
X117943004Y-76395313D01*
X117937836Y-76396341D01*
X117670324Y-76449552D01*
X117670318Y-76449554D01*
X117665148Y-76450582D01*
X117660170Y-76452330D01*
X117660167Y-76452331D01*
X117402816Y-76542706D01*
X117397850Y-76544450D01*
X117393187Y-76546872D01*
X117393183Y-76546874D01*
X117151115Y-76672618D01*
X117151108Y-76672622D01*
X117146446Y-76675044D01*
X116915950Y-76839759D01*
X116912144Y-76843389D01*
X116912140Y-76843393D01*
X116786960Y-76962809D01*
X116710962Y-77035307D01*
X116707700Y-77039445D01*
X116707698Y-77039447D01*
X116670366Y-77086803D01*
X116535573Y-77257788D01*
X116507445Y-77306214D01*
X116433523Y-77433481D01*
X116393281Y-77502762D01*
X116286926Y-77765340D01*
X116218629Y-78040285D01*
X116218092Y-78045526D01*
X116218091Y-78045532D01*
X116190290Y-78316876D01*
X116189754Y-78322110D01*
X109000000Y-78322110D01*
X109000000Y-73642611D01*
X123044394Y-73642611D01*
X123062999Y-73811135D01*
X123066087Y-73819572D01*
X123066087Y-73819574D01*
X123073917Y-73840969D01*
X123121266Y-73970356D01*
X123126275Y-73977811D01*
X123126276Y-73977812D01*
X123134431Y-73989947D01*
X123215830Y-74111083D01*
X123222472Y-74117126D01*
X123222473Y-74117128D01*
X123240430Y-74133467D01*
X123341233Y-74225191D01*
X123349128Y-74229478D01*
X123349130Y-74229479D01*
X123482344Y-74301808D01*
X123482347Y-74301809D01*
X123490235Y-74306092D01*
X123527743Y-74315932D01*
X123645549Y-74346838D01*
X123645551Y-74346838D01*
X123654233Y-74349116D01*
X123663209Y-74349257D01*
X123814781Y-74351638D01*
X123823760Y-74351779D01*
X123989029Y-74313928D01*
X124140498Y-74237747D01*
X124162279Y-74219144D01*
X124262594Y-74133467D01*
X124262596Y-74133465D01*
X124269423Y-74127634D01*
X124286866Y-74103360D01*
X124363124Y-73997236D01*
X124363126Y-73997232D01*
X124368361Y-73989947D01*
X124379628Y-73961920D01*
X124428251Y-73840969D01*
X124428252Y-73840964D01*
X124431601Y-73832634D01*
X124455490Y-73664778D01*
X124455645Y-73650000D01*
X124435276Y-73481680D01*
X124375345Y-73323077D01*
X124279312Y-73183349D01*
X124272604Y-73177372D01*
X124159428Y-73076535D01*
X124159424Y-73076532D01*
X124152721Y-73070560D01*
X124144783Y-73066357D01*
X124144780Y-73066355D01*
X124010823Y-72995429D01*
X124002881Y-72991224D01*
X123994168Y-72989035D01*
X123994167Y-72989035D01*
X123921691Y-72970830D01*
X123838441Y-72949919D01*
X123734002Y-72949372D01*
X123677873Y-72949078D01*
X123668895Y-72949031D01*
X123660164Y-72951127D01*
X123660165Y-72951127D01*
X123512765Y-72986515D01*
X123512762Y-72986516D01*
X123504032Y-72988612D01*
X123496053Y-72992730D01*
X123496051Y-72992731D01*
X123490824Y-72995429D01*
X123353369Y-73066375D01*
X123346602Y-73072279D01*
X123346598Y-73072281D01*
X123341722Y-73076535D01*
X123225604Y-73177831D01*
X123128113Y-73316547D01*
X123066524Y-73474513D01*
X123044394Y-73642611D01*
X109000000Y-73642611D01*
X109000000Y-72613746D01*
X120251327Y-72613746D01*
X120254906Y-72619946D01*
X120461343Y-72746450D01*
X120471753Y-72751755D01*
X120698405Y-72845637D01*
X120709511Y-72849245D01*
X120948062Y-72906517D01*
X120959585Y-72908342D01*
X121204168Y-72927591D01*
X121215832Y-72927591D01*
X121460415Y-72908342D01*
X121471938Y-72906517D01*
X121710489Y-72849245D01*
X121721595Y-72845637D01*
X121948247Y-72751755D01*
X121958657Y-72746450D01*
X122163404Y-72620982D01*
X122168377Y-72613746D01*
X125331327Y-72613746D01*
X125334906Y-72619946D01*
X125541343Y-72746450D01*
X125551753Y-72751755D01*
X125778405Y-72845637D01*
X125789511Y-72849245D01*
X126028062Y-72906517D01*
X126039585Y-72908342D01*
X126284168Y-72927591D01*
X126295832Y-72927591D01*
X126540415Y-72908342D01*
X126551938Y-72906517D01*
X126790489Y-72849245D01*
X126801595Y-72845637D01*
X127028247Y-72751755D01*
X127038657Y-72746450D01*
X127243404Y-72620982D01*
X127248692Y-72613287D01*
X127243780Y-72602990D01*
X126303871Y-71663081D01*
X126290000Y-71655073D01*
X126276129Y-71663081D01*
X125339335Y-72599875D01*
X125331327Y-72613746D01*
X122168377Y-72613746D01*
X122168692Y-72613287D01*
X122163780Y-72602990D01*
X121223871Y-71663081D01*
X121210000Y-71655073D01*
X121196129Y-71663081D01*
X120259335Y-72599875D01*
X120251327Y-72613746D01*
X109000000Y-72613746D01*
X109000000Y-71295832D01*
X119572409Y-71295832D01*
X119591658Y-71540415D01*
X119593483Y-71551938D01*
X119650755Y-71790489D01*
X119654363Y-71801595D01*
X119748245Y-72028247D01*
X119753550Y-72038657D01*
X119879018Y-72243404D01*
X119886713Y-72248692D01*
X119897010Y-72243780D01*
X120836919Y-71303871D01*
X120844927Y-71290000D01*
X121575073Y-71290000D01*
X121583081Y-71303871D01*
X122519875Y-72240665D01*
X122533746Y-72248673D01*
X122539946Y-72245094D01*
X122666450Y-72038657D01*
X122671755Y-72028247D01*
X122765637Y-71801595D01*
X122769245Y-71790489D01*
X122826517Y-71551938D01*
X122828342Y-71540415D01*
X122847591Y-71295832D01*
X124652409Y-71295832D01*
X124671658Y-71540415D01*
X124673483Y-71551938D01*
X124730755Y-71790489D01*
X124734363Y-71801595D01*
X124828245Y-72028247D01*
X124833550Y-72038657D01*
X124959018Y-72243404D01*
X124966713Y-72248692D01*
X124977010Y-72243780D01*
X125916919Y-71303871D01*
X125924927Y-71290000D01*
X126655073Y-71290000D01*
X126663081Y-71303871D01*
X127599875Y-72240665D01*
X127613746Y-72248673D01*
X127619946Y-72245094D01*
X127746450Y-72038657D01*
X127751755Y-72028247D01*
X127845637Y-71801595D01*
X127849245Y-71790489D01*
X127906517Y-71551938D01*
X127908342Y-71540415D01*
X127927591Y-71295832D01*
X127927591Y-71284168D01*
X127908342Y-71039585D01*
X127906517Y-71028062D01*
X127849245Y-70789511D01*
X127845637Y-70778405D01*
X127751755Y-70551753D01*
X127746450Y-70541343D01*
X127620982Y-70336596D01*
X127613287Y-70331308D01*
X127602990Y-70336220D01*
X126663081Y-71276129D01*
X126655073Y-71290000D01*
X125924927Y-71290000D01*
X125916919Y-71276129D01*
X124980125Y-70339335D01*
X124966254Y-70331327D01*
X124960054Y-70334906D01*
X124833550Y-70541343D01*
X124828245Y-70551753D01*
X124734363Y-70778405D01*
X124730755Y-70789511D01*
X124673483Y-71028062D01*
X124671658Y-71039585D01*
X124652409Y-71284168D01*
X124652409Y-71295832D01*
X122847591Y-71295832D01*
X122847591Y-71284168D01*
X122828342Y-71039585D01*
X122826517Y-71028062D01*
X122769245Y-70789511D01*
X122765637Y-70778405D01*
X122671755Y-70551753D01*
X122666450Y-70541343D01*
X122540982Y-70336596D01*
X122533287Y-70331308D01*
X122522990Y-70336220D01*
X121583081Y-71276129D01*
X121575073Y-71290000D01*
X120844927Y-71290000D01*
X120836919Y-71276129D01*
X119900125Y-70339335D01*
X119886254Y-70331327D01*
X119880054Y-70334906D01*
X119753550Y-70541343D01*
X119748245Y-70551753D01*
X119654363Y-70778405D01*
X119650755Y-70789511D01*
X119593483Y-71028062D01*
X119591658Y-71039585D01*
X119572409Y-71284168D01*
X119572409Y-71295832D01*
X109000000Y-71295832D01*
X109000000Y-69733102D01*
X113131971Y-69733102D01*
X113135180Y-69738662D01*
X113308271Y-69844733D01*
X113318676Y-69850034D01*
X113527156Y-69936389D01*
X113538250Y-69939994D01*
X113757680Y-69992675D01*
X113769196Y-69994499D01*
X113994168Y-70012204D01*
X114005832Y-70012204D01*
X114230804Y-69994499D01*
X114242320Y-69992675D01*
X114350458Y-69966713D01*
X120251308Y-69966713D01*
X120256220Y-69977010D01*
X121196129Y-70916919D01*
X121210000Y-70924927D01*
X121223871Y-70916919D01*
X122160665Y-69980125D01*
X122168673Y-69966254D01*
X122165094Y-69960054D01*
X121958657Y-69833550D01*
X121948247Y-69828245D01*
X121721595Y-69734363D01*
X121710489Y-69730755D01*
X121471938Y-69673483D01*
X121460415Y-69671658D01*
X121215832Y-69652409D01*
X121204168Y-69652409D01*
X120959585Y-69671658D01*
X120948062Y-69673483D01*
X120709511Y-69730755D01*
X120698405Y-69734363D01*
X120471753Y-69828245D01*
X120461343Y-69833550D01*
X120256596Y-69959018D01*
X120251308Y-69966713D01*
X114350458Y-69966713D01*
X114461750Y-69939994D01*
X114472844Y-69936389D01*
X114681324Y-69850034D01*
X114691729Y-69844733D01*
X114857168Y-69743351D01*
X114868192Y-69731734D01*
X114866368Y-69725578D01*
X114013871Y-68873081D01*
X114000000Y-68865073D01*
X113986129Y-68873081D01*
X113139979Y-69719231D01*
X113131971Y-69733102D01*
X109000000Y-69733102D01*
X109000000Y-68505832D01*
X112487796Y-68505832D01*
X112505501Y-68730804D01*
X112507325Y-68742320D01*
X112560006Y-68961750D01*
X112563611Y-68972844D01*
X112649966Y-69181324D01*
X112655267Y-69191729D01*
X112756649Y-69357168D01*
X112768266Y-69368192D01*
X112774422Y-69366368D01*
X113626919Y-68513871D01*
X113634927Y-68500000D01*
X114365073Y-68500000D01*
X114373081Y-68513871D01*
X115219231Y-69360021D01*
X115233102Y-69368029D01*
X115238662Y-69364820D01*
X115344733Y-69191729D01*
X115350034Y-69181324D01*
X115436389Y-68972844D01*
X115439994Y-68961750D01*
X115490831Y-68750000D01*
X122219783Y-68750000D01*
X122238623Y-68989379D01*
X122294677Y-69222863D01*
X122386567Y-69444704D01*
X122389622Y-69449689D01*
X122508972Y-69644453D01*
X122508976Y-69644458D01*
X122512028Y-69649439D01*
X122667973Y-69832027D01*
X122850561Y-69987972D01*
X122855542Y-69991024D01*
X122855547Y-69991028D01*
X122890104Y-70012204D01*
X123055296Y-70113433D01*
X123277137Y-70205323D01*
X123510621Y-70261377D01*
X123750000Y-70280217D01*
X123755832Y-70279758D01*
X123983547Y-70261836D01*
X123989379Y-70261377D01*
X124222863Y-70205323D01*
X124444704Y-70113433D01*
X124609896Y-70012204D01*
X124644453Y-69991028D01*
X124644458Y-69991024D01*
X124649439Y-69987972D01*
X124674330Y-69966713D01*
X125331308Y-69966713D01*
X125336220Y-69977010D01*
X126276129Y-70916919D01*
X126290000Y-70924927D01*
X126303871Y-70916919D01*
X127240665Y-69980125D01*
X127248673Y-69966254D01*
X127245094Y-69960054D01*
X127038657Y-69833550D01*
X127028247Y-69828245D01*
X126801595Y-69734363D01*
X126790489Y-69730755D01*
X126551938Y-69673483D01*
X126540415Y-69671658D01*
X126295832Y-69652409D01*
X126284168Y-69652409D01*
X126039585Y-69671658D01*
X126028062Y-69673483D01*
X125789511Y-69730755D01*
X125778405Y-69734363D01*
X125551753Y-69828245D01*
X125541343Y-69833550D01*
X125336596Y-69959018D01*
X125331308Y-69966713D01*
X124674330Y-69966713D01*
X124832027Y-69832027D01*
X124987972Y-69649439D01*
X124991024Y-69644458D01*
X124991028Y-69644453D01*
X125110378Y-69449689D01*
X125113433Y-69444704D01*
X125205323Y-69222863D01*
X125261377Y-68989379D01*
X125280217Y-68750000D01*
X125261377Y-68510621D01*
X125205323Y-68277137D01*
X125113433Y-68055296D01*
X125079557Y-68000015D01*
X124991028Y-67855547D01*
X124991024Y-67855542D01*
X124987972Y-67850561D01*
X124832027Y-67667973D01*
X124674867Y-67533746D01*
X125331327Y-67533746D01*
X125334906Y-67539946D01*
X125541343Y-67666450D01*
X125551753Y-67671755D01*
X125778405Y-67765637D01*
X125789511Y-67769245D01*
X126028062Y-67826517D01*
X126039585Y-67828342D01*
X126284168Y-67847591D01*
X126295832Y-67847591D01*
X126540415Y-67828342D01*
X126551938Y-67826517D01*
X126790489Y-67769245D01*
X126801595Y-67765637D01*
X127028247Y-67671755D01*
X127038657Y-67666450D01*
X127243404Y-67540982D01*
X127248692Y-67533287D01*
X127243780Y-67522990D01*
X126303871Y-66583081D01*
X126290000Y-66575073D01*
X126276129Y-66583081D01*
X125339335Y-67519875D01*
X125331327Y-67533746D01*
X124674867Y-67533746D01*
X124649439Y-67512028D01*
X124644458Y-67508976D01*
X124644453Y-67508972D01*
X124449689Y-67389622D01*
X124444704Y-67386567D01*
X124222863Y-67294677D01*
X123989379Y-67238623D01*
X123750000Y-67219783D01*
X123510621Y-67238623D01*
X123277137Y-67294677D01*
X123055296Y-67386567D01*
X123050311Y-67389622D01*
X122855547Y-67508972D01*
X122855542Y-67508976D01*
X122850561Y-67512028D01*
X122667973Y-67667973D01*
X122512028Y-67850561D01*
X122508976Y-67855542D01*
X122508972Y-67855547D01*
X122420443Y-68000015D01*
X122386567Y-68055296D01*
X122294677Y-68277137D01*
X122238623Y-68510621D01*
X122219783Y-68750000D01*
X115490831Y-68750000D01*
X115492675Y-68742320D01*
X115494499Y-68730804D01*
X115512204Y-68505832D01*
X115512204Y-68494168D01*
X115494499Y-68269196D01*
X115492675Y-68257680D01*
X115439994Y-68038250D01*
X115436389Y-68027156D01*
X115350034Y-67818676D01*
X115344733Y-67808271D01*
X115243351Y-67642832D01*
X115231734Y-67631808D01*
X115225578Y-67633632D01*
X114373081Y-68486129D01*
X114365073Y-68500000D01*
X113634927Y-68500000D01*
X113626919Y-68486129D01*
X112780769Y-67639979D01*
X112766898Y-67631971D01*
X112761338Y-67635180D01*
X112655267Y-67808271D01*
X112649966Y-67818676D01*
X112563611Y-68027156D01*
X112560006Y-68038250D01*
X112507325Y-68257680D01*
X112505501Y-68269196D01*
X112487796Y-68494168D01*
X112487796Y-68505832D01*
X109000000Y-68505832D01*
X109000000Y-67268266D01*
X113131808Y-67268266D01*
X113133632Y-67274422D01*
X113986129Y-68126919D01*
X114000000Y-68134927D01*
X114013871Y-68126919D01*
X114607044Y-67533746D01*
X120251327Y-67533746D01*
X120254906Y-67539946D01*
X120461343Y-67666450D01*
X120471753Y-67671755D01*
X120698405Y-67765637D01*
X120709511Y-67769245D01*
X120948062Y-67826517D01*
X120959585Y-67828342D01*
X121204168Y-67847591D01*
X121215832Y-67847591D01*
X121460415Y-67828342D01*
X121471938Y-67826517D01*
X121710489Y-67769245D01*
X121721595Y-67765637D01*
X121948247Y-67671755D01*
X121958657Y-67666450D01*
X122163404Y-67540982D01*
X122168692Y-67533287D01*
X122163780Y-67522990D01*
X121223871Y-66583081D01*
X121210000Y-66575073D01*
X121196129Y-66583081D01*
X120259335Y-67519875D01*
X120251327Y-67533746D01*
X114607044Y-67533746D01*
X114860021Y-67280769D01*
X114868029Y-67266898D01*
X114864820Y-67261338D01*
X114691729Y-67155267D01*
X114681324Y-67149966D01*
X114472844Y-67063611D01*
X114461750Y-67060006D01*
X114242320Y-67007325D01*
X114230804Y-67005501D01*
X114005832Y-66987796D01*
X113994168Y-66987796D01*
X113769196Y-67005501D01*
X113757680Y-67007325D01*
X113538250Y-67060006D01*
X113527156Y-67063611D01*
X113318676Y-67149966D01*
X113308271Y-67155267D01*
X113142832Y-67256649D01*
X113131808Y-67268266D01*
X109000000Y-67268266D01*
X109000000Y-66215832D01*
X119572409Y-66215832D01*
X119591658Y-66460415D01*
X119593483Y-66471938D01*
X119650755Y-66710489D01*
X119654363Y-66721595D01*
X119748245Y-66948247D01*
X119753550Y-66958657D01*
X119879018Y-67163404D01*
X119886713Y-67168692D01*
X119897010Y-67163780D01*
X120836919Y-66223871D01*
X120844927Y-66210000D01*
X121575073Y-66210000D01*
X121583081Y-66223871D01*
X122519875Y-67160665D01*
X122533746Y-67168673D01*
X122539946Y-67165094D01*
X122666450Y-66958657D01*
X122671755Y-66948247D01*
X122765637Y-66721595D01*
X122769245Y-66710489D01*
X122826517Y-66471938D01*
X122828342Y-66460415D01*
X122847591Y-66215832D01*
X124652409Y-66215832D01*
X124671658Y-66460415D01*
X124673483Y-66471938D01*
X124730755Y-66710489D01*
X124734363Y-66721595D01*
X124828245Y-66948247D01*
X124833550Y-66958657D01*
X124959018Y-67163404D01*
X124966713Y-67168692D01*
X124977010Y-67163780D01*
X125916919Y-66223871D01*
X125924927Y-66210000D01*
X126655073Y-66210000D01*
X126663081Y-66223871D01*
X127599875Y-67160665D01*
X127613746Y-67168673D01*
X127619946Y-67165094D01*
X127746450Y-66958657D01*
X127751755Y-66948247D01*
X127845637Y-66721595D01*
X127849245Y-66710489D01*
X127906517Y-66471938D01*
X127908342Y-66460415D01*
X127927591Y-66215832D01*
X127927591Y-66204168D01*
X127919231Y-66097948D01*
X129519636Y-66097948D01*
X129549301Y-66294098D01*
X129551906Y-66301177D01*
X129590836Y-66406988D01*
X129600000Y-66458437D01*
X129600000Y-66950000D01*
X130090111Y-66950000D01*
X130149286Y-66962255D01*
X130196276Y-66982590D01*
X130196284Y-66982593D01*
X130203213Y-66985591D01*
X130210607Y-66987136D01*
X130210608Y-66987136D01*
X130270720Y-66999694D01*
X130397402Y-67026159D01*
X130403909Y-67026500D01*
X130549578Y-67026500D01*
X130553327Y-67026119D01*
X130553331Y-67026119D01*
X130689856Y-67012251D01*
X130689858Y-67012251D01*
X130697365Y-67011488D01*
X130871817Y-66956818D01*
X130916374Y-66950000D01*
X131400000Y-66950000D01*
X131400000Y-66467407D01*
X131414271Y-66406078D01*
X131414013Y-66405982D01*
X131414761Y-66403970D01*
X131415307Y-66401625D01*
X131416644Y-66398908D01*
X131416645Y-66398906D01*
X131419976Y-66392136D01*
X131469982Y-66200161D01*
X131480364Y-66002052D01*
X131450699Y-65805902D01*
X131409164Y-65693012D01*
X131400000Y-65641563D01*
X131400000Y-65150000D01*
X130909889Y-65150000D01*
X130850714Y-65137745D01*
X130803724Y-65117410D01*
X130803716Y-65117407D01*
X130796787Y-65114409D01*
X130789393Y-65112864D01*
X130789392Y-65112864D01*
X130669172Y-65087749D01*
X130602598Y-65073841D01*
X130596091Y-65073500D01*
X130450422Y-65073500D01*
X130446673Y-65073881D01*
X130446669Y-65073881D01*
X130310144Y-65087749D01*
X130310142Y-65087749D01*
X130302635Y-65088512D01*
X130128183Y-65143182D01*
X130083626Y-65150000D01*
X129600000Y-65150000D01*
X129600000Y-65632593D01*
X129585729Y-65693922D01*
X129585987Y-65694018D01*
X129585239Y-65696030D01*
X129584693Y-65698375D01*
X129580024Y-65707864D01*
X129578122Y-65715166D01*
X129544322Y-65844927D01*
X129530018Y-65899839D01*
X129519636Y-66097948D01*
X127919231Y-66097948D01*
X127908342Y-65959585D01*
X127906517Y-65948062D01*
X127849245Y-65709511D01*
X127845637Y-65698405D01*
X127751755Y-65471753D01*
X127746450Y-65461343D01*
X127620982Y-65256596D01*
X127613287Y-65251308D01*
X127602990Y-65256220D01*
X126663081Y-66196129D01*
X126655073Y-66210000D01*
X125924927Y-66210000D01*
X125916919Y-66196129D01*
X124980125Y-65259335D01*
X124966254Y-65251327D01*
X124960054Y-65254906D01*
X124833550Y-65461343D01*
X124828245Y-65471753D01*
X124734363Y-65698405D01*
X124730755Y-65709511D01*
X124673483Y-65948062D01*
X124671658Y-65959585D01*
X124652409Y-66204168D01*
X124652409Y-66215832D01*
X122847591Y-66215832D01*
X122847591Y-66204168D01*
X122828342Y-65959585D01*
X122826517Y-65948062D01*
X122769245Y-65709511D01*
X122765637Y-65698405D01*
X122671755Y-65471753D01*
X122666450Y-65461343D01*
X122540982Y-65256596D01*
X122533287Y-65251308D01*
X122522990Y-65256220D01*
X121583081Y-66196129D01*
X121575073Y-66210000D01*
X120844927Y-66210000D01*
X120836919Y-66196129D01*
X119900125Y-65259335D01*
X119886254Y-65251327D01*
X119880054Y-65254906D01*
X119753550Y-65461343D01*
X119748245Y-65471753D01*
X119654363Y-65698405D01*
X119650755Y-65709511D01*
X119593483Y-65948062D01*
X119591658Y-65959585D01*
X119572409Y-66204168D01*
X119572409Y-66215832D01*
X109000000Y-66215832D01*
X109000000Y-64603626D01*
X109019962Y-64529126D01*
X109074500Y-64474588D01*
X109149000Y-64454626D01*
X120431539Y-64454626D01*
X120506039Y-64474588D01*
G37*
%TD.AperFunction*%
%TD*%
%TA.AperFunction,Conductor*%
%TO.N,VSS*%
G36*
X102695336Y-86268891D02*
G01*
X102739246Y-86319566D01*
X102750000Y-86369000D01*
X102750000Y-98000000D01*
X103861959Y-98000000D01*
X103926295Y-98018891D01*
X103970205Y-98069566D01*
X103979748Y-98135935D01*
X103976905Y-98149798D01*
X103976397Y-98151695D01*
X103973412Y-98158901D01*
X103954836Y-98300000D01*
X103955854Y-98307732D01*
X103971859Y-98429300D01*
X103973412Y-98441099D01*
X103976395Y-98448300D01*
X103976395Y-98448301D01*
X103985525Y-98470343D01*
X104027874Y-98572582D01*
X104032620Y-98578767D01*
X104032621Y-98578769D01*
X104103570Y-98671231D01*
X104114511Y-98685489D01*
X104120700Y-98690238D01*
X104221231Y-98767379D01*
X104221233Y-98767380D01*
X104227418Y-98772126D01*
X104280579Y-98794146D01*
X104349230Y-98822582D01*
X104358901Y-98826588D01*
X104366627Y-98827605D01*
X104366630Y-98827606D01*
X104492268Y-98844146D01*
X104500000Y-98845164D01*
X104507732Y-98844146D01*
X104633370Y-98827606D01*
X104633373Y-98827605D01*
X104641099Y-98826588D01*
X104650771Y-98822582D01*
X104719421Y-98794146D01*
X104772582Y-98772126D01*
X104778767Y-98767380D01*
X104778769Y-98767379D01*
X104879300Y-98690238D01*
X104885489Y-98685489D01*
X104896430Y-98671231D01*
X104967379Y-98578769D01*
X104967380Y-98578767D01*
X104972126Y-98572582D01*
X105025414Y-98443934D01*
X105067486Y-98391725D01*
X105131107Y-98370550D01*
X105196077Y-98387132D01*
X105241768Y-98436207D01*
X105245296Y-98443934D01*
X105274887Y-98515373D01*
X105274890Y-98515379D01*
X105277874Y-98522582D01*
X105282620Y-98528767D01*
X105282621Y-98528769D01*
X105320988Y-98578769D01*
X105364511Y-98635489D01*
X105370700Y-98640238D01*
X105471231Y-98717379D01*
X105471233Y-98717380D01*
X105477418Y-98722126D01*
X105568070Y-98759675D01*
X105598129Y-98772126D01*
X105608901Y-98776588D01*
X105616627Y-98777605D01*
X105616630Y-98777606D01*
X105742268Y-98794146D01*
X105750000Y-98795164D01*
X105757732Y-98794146D01*
X105883370Y-98777606D01*
X105883373Y-98777605D01*
X105891099Y-98776588D01*
X105901872Y-98772126D01*
X105931930Y-98759675D01*
X106022582Y-98722126D01*
X106028767Y-98717380D01*
X106028769Y-98717379D01*
X106129300Y-98640238D01*
X106135489Y-98635489D01*
X106179012Y-98578769D01*
X106217379Y-98528769D01*
X106217380Y-98528767D01*
X106222126Y-98522582D01*
X106276588Y-98391099D01*
X106278142Y-98379300D01*
X106294146Y-98257732D01*
X106295164Y-98250000D01*
X106292251Y-98227874D01*
X106279963Y-98134532D01*
X106290295Y-98068281D01*
X106334805Y-98018132D01*
X106397945Y-98000000D01*
X111180029Y-98000000D01*
X111244365Y-98018891D01*
X111288275Y-98069566D01*
X111297818Y-98135935D01*
X111269963Y-98196928D01*
X111239529Y-98222057D01*
X111234622Y-98224890D01*
X111227418Y-98227874D01*
X111221233Y-98232620D01*
X111221231Y-98232621D01*
X111133422Y-98300000D01*
X111114511Y-98314511D01*
X111109762Y-98320700D01*
X111042083Y-98408901D01*
X111027874Y-98427418D01*
X111005008Y-98482621D01*
X110980302Y-98542268D01*
X110973412Y-98558901D01*
X110972395Y-98566627D01*
X110972394Y-98566630D01*
X110957898Y-98676739D01*
X110954836Y-98700000D01*
X110955854Y-98707732D01*
X110971789Y-98828769D01*
X110973412Y-98841099D01*
X111027874Y-98972582D01*
X111032620Y-98978767D01*
X111032621Y-98978769D01*
X111068180Y-99025110D01*
X111114511Y-99085489D01*
X111120700Y-99090238D01*
X111221231Y-99167379D01*
X111221233Y-99167380D01*
X111227418Y-99172126D01*
X111306387Y-99204836D01*
X111349230Y-99222582D01*
X111358901Y-99226588D01*
X111366627Y-99227605D01*
X111366630Y-99227606D01*
X111492268Y-99244146D01*
X111500000Y-99245164D01*
X111507732Y-99244146D01*
X111633370Y-99227606D01*
X111633373Y-99227605D01*
X111641099Y-99226588D01*
X111650771Y-99222582D01*
X111693613Y-99204836D01*
X111772582Y-99172126D01*
X111778767Y-99167380D01*
X111778769Y-99167379D01*
X111879300Y-99090238D01*
X111885489Y-99085489D01*
X111931820Y-99025110D01*
X111967379Y-98978769D01*
X111967380Y-98978767D01*
X111972126Y-98972582D01*
X112026588Y-98841099D01*
X112028212Y-98828769D01*
X112044146Y-98707732D01*
X112045164Y-98700000D01*
X112042102Y-98676739D01*
X112027606Y-98566630D01*
X112027605Y-98566627D01*
X112026588Y-98558901D01*
X112019699Y-98542268D01*
X111994992Y-98482621D01*
X111972126Y-98427418D01*
X111957918Y-98408901D01*
X111890238Y-98320700D01*
X111885489Y-98314511D01*
X111866578Y-98300000D01*
X111778769Y-98232621D01*
X111778767Y-98232620D01*
X111772582Y-98227874D01*
X111765378Y-98224890D01*
X111760471Y-98222057D01*
X111714199Y-98173529D01*
X111701510Y-98107688D01*
X111726431Y-98045439D01*
X111781050Y-98006545D01*
X111819971Y-98000000D01*
X113100476Y-98000000D01*
X113164812Y-98018891D01*
X113208722Y-98069566D01*
X113218458Y-98103467D01*
X113223412Y-98141099D01*
X113226395Y-98148300D01*
X113226395Y-98148301D01*
X113233989Y-98166635D01*
X113277874Y-98272582D01*
X113282620Y-98278767D01*
X113282621Y-98278769D01*
X113320988Y-98328769D01*
X113364511Y-98385489D01*
X113370700Y-98390238D01*
X113471231Y-98467379D01*
X113471233Y-98467380D01*
X113477418Y-98472126D01*
X113568070Y-98509675D01*
X113599230Y-98522582D01*
X113608901Y-98526588D01*
X113616627Y-98527605D01*
X113616630Y-98527606D01*
X113742268Y-98544146D01*
X113750000Y-98545164D01*
X113757732Y-98544146D01*
X113883370Y-98527606D01*
X113883373Y-98527605D01*
X113891099Y-98526588D01*
X113900771Y-98522582D01*
X113931930Y-98509675D01*
X114022582Y-98472126D01*
X114028767Y-98467380D01*
X114028769Y-98467379D01*
X114129300Y-98390238D01*
X114135489Y-98385489D01*
X114179012Y-98328769D01*
X114217379Y-98278769D01*
X114217380Y-98278767D01*
X114222126Y-98272582D01*
X114266011Y-98166635D01*
X114273605Y-98148301D01*
X114273605Y-98148300D01*
X114276588Y-98141099D01*
X114281542Y-98103467D01*
X114308668Y-98042148D01*
X114364640Y-98005228D01*
X114399524Y-98000000D01*
X114499436Y-98000000D01*
X114563772Y-98018891D01*
X114607682Y-98069566D01*
X114617225Y-98135935D01*
X114593845Y-98191443D01*
X114542980Y-98257732D01*
X114527874Y-98277418D01*
X114506604Y-98328769D01*
X114480527Y-98391725D01*
X114473412Y-98408901D01*
X114472395Y-98416627D01*
X114472394Y-98416630D01*
X114463549Y-98483815D01*
X114454836Y-98550000D01*
X114455854Y-98557732D01*
X114471859Y-98679300D01*
X114473412Y-98691099D01*
X114476395Y-98698300D01*
X114476395Y-98698301D01*
X114486264Y-98722126D01*
X114527874Y-98822582D01*
X114532620Y-98828767D01*
X114532621Y-98828769D01*
X114547609Y-98848301D01*
X114614511Y-98935489D01*
X114620700Y-98940238D01*
X114721231Y-99017379D01*
X114721233Y-99017380D01*
X114727418Y-99022126D01*
X114858901Y-99076588D01*
X114866627Y-99077605D01*
X114866630Y-99077606D01*
X114992268Y-99094146D01*
X115000000Y-99095164D01*
X115007732Y-99094146D01*
X115133370Y-99077606D01*
X115133373Y-99077605D01*
X115141099Y-99076588D01*
X115272582Y-99022126D01*
X115278767Y-99017380D01*
X115278769Y-99017379D01*
X115366578Y-98950000D01*
X121454836Y-98950000D01*
X121455854Y-98957732D01*
X121471859Y-99079300D01*
X121473412Y-99091099D01*
X121527874Y-99222582D01*
X121532620Y-99228767D01*
X121532621Y-99228769D01*
X121570301Y-99277874D01*
X121614511Y-99335489D01*
X121620700Y-99340238D01*
X121721231Y-99417379D01*
X121721233Y-99417380D01*
X121727418Y-99422126D01*
X121858901Y-99476588D01*
X121866627Y-99477605D01*
X121866630Y-99477606D01*
X121992268Y-99494146D01*
X122000000Y-99495164D01*
X122007732Y-99494146D01*
X122133370Y-99477606D01*
X122133373Y-99477605D01*
X122141099Y-99476588D01*
X122272582Y-99422126D01*
X122278767Y-99417380D01*
X122278769Y-99417379D01*
X122379300Y-99340238D01*
X122385489Y-99335489D01*
X122429699Y-99277874D01*
X122467379Y-99228769D01*
X122467380Y-99228767D01*
X122472126Y-99222582D01*
X122526588Y-99091099D01*
X122528142Y-99079300D01*
X122544146Y-98957732D01*
X122545164Y-98950000D01*
X122530827Y-98841099D01*
X122527606Y-98816630D01*
X122527605Y-98816627D01*
X122526588Y-98808901D01*
X122472126Y-98677418D01*
X122404227Y-98588930D01*
X122390238Y-98570700D01*
X122385489Y-98564511D01*
X122358949Y-98544146D01*
X122278769Y-98482621D01*
X122278767Y-98482620D01*
X122272582Y-98477874D01*
X122171989Y-98436207D01*
X122148301Y-98426395D01*
X122148300Y-98426395D01*
X122141099Y-98423412D01*
X122133373Y-98422395D01*
X122133370Y-98422394D01*
X122007732Y-98405854D01*
X122000000Y-98404836D01*
X121992268Y-98405854D01*
X121866630Y-98422394D01*
X121866627Y-98422395D01*
X121858901Y-98423412D01*
X121851700Y-98426395D01*
X121851699Y-98426395D01*
X121828011Y-98436207D01*
X121727418Y-98477874D01*
X121721233Y-98482620D01*
X121721231Y-98482621D01*
X121641051Y-98544146D01*
X121614511Y-98564511D01*
X121609762Y-98570700D01*
X121595774Y-98588930D01*
X121527874Y-98677418D01*
X121473412Y-98808901D01*
X121472395Y-98816627D01*
X121472394Y-98816630D01*
X121469173Y-98841099D01*
X121454836Y-98950000D01*
X115366578Y-98950000D01*
X115379300Y-98940238D01*
X115385489Y-98935489D01*
X115452391Y-98848301D01*
X115467379Y-98828769D01*
X115467380Y-98828767D01*
X115472126Y-98822582D01*
X115513736Y-98722126D01*
X115523605Y-98698301D01*
X115523605Y-98698300D01*
X115526588Y-98691099D01*
X115528142Y-98679300D01*
X115544146Y-98557732D01*
X115545164Y-98550000D01*
X115536451Y-98483815D01*
X115527606Y-98416630D01*
X115527605Y-98416627D01*
X115526588Y-98408901D01*
X115519474Y-98391725D01*
X115493396Y-98328769D01*
X115472126Y-98277418D01*
X115457021Y-98257732D01*
X115406155Y-98191443D01*
X115381977Y-98128901D01*
X115395449Y-98063216D01*
X115442295Y-98015242D01*
X115500564Y-98000000D01*
X123093893Y-98000000D01*
X123158229Y-98018891D01*
X123202139Y-98069566D01*
X123211875Y-98103467D01*
X123221099Y-98173529D01*
X123223412Y-98191099D01*
X123277874Y-98322582D01*
X123282620Y-98328767D01*
X123282621Y-98328769D01*
X123338583Y-98401699D01*
X123364511Y-98435489D01*
X123370700Y-98440238D01*
X123471231Y-98517379D01*
X123471233Y-98517380D01*
X123477418Y-98522126D01*
X123530579Y-98544146D01*
X123599230Y-98572582D01*
X123608901Y-98576588D01*
X123616627Y-98577605D01*
X123616630Y-98577606D01*
X123742268Y-98594146D01*
X123750000Y-98595164D01*
X123757732Y-98594146D01*
X123883370Y-98577606D01*
X123883373Y-98577605D01*
X123891099Y-98576588D01*
X123900771Y-98572582D01*
X123969421Y-98544146D01*
X124022582Y-98522126D01*
X124028767Y-98517380D01*
X124028769Y-98517379D01*
X124058557Y-98494521D01*
X124121098Y-98470343D01*
X124186783Y-98483815D01*
X124234757Y-98530660D01*
X124250000Y-98588930D01*
X124250000Y-102500000D01*
X130131000Y-102500000D01*
X130195336Y-102518891D01*
X130239246Y-102569566D01*
X130250000Y-102619000D01*
X130250000Y-105381000D01*
X130231109Y-105445336D01*
X130180434Y-105489246D01*
X130131000Y-105500000D01*
X105699989Y-105500000D01*
X105635653Y-105481109D01*
X105591743Y-105430434D01*
X105582200Y-105364065D01*
X105610055Y-105303072D01*
X105654450Y-105271058D01*
X105685928Y-105258019D01*
X105772582Y-105222126D01*
X105778767Y-105217380D01*
X105778769Y-105217379D01*
X105879300Y-105140238D01*
X105885489Y-105135489D01*
X105972126Y-105022582D01*
X106026588Y-104891099D01*
X106045164Y-104750000D01*
X106026588Y-104608901D01*
X105972126Y-104477418D01*
X105885489Y-104364511D01*
X105877368Y-104358280D01*
X105778769Y-104282621D01*
X105778767Y-104282620D01*
X105772582Y-104277874D01*
X105641099Y-104223412D01*
X105633373Y-104222395D01*
X105633370Y-104222394D01*
X105507732Y-104205854D01*
X105500000Y-104204836D01*
X105492268Y-104205854D01*
X105366630Y-104222394D01*
X105366627Y-104222395D01*
X105358901Y-104223412D01*
X105227418Y-104277874D01*
X105221233Y-104282620D01*
X105221231Y-104282621D01*
X105122632Y-104358280D01*
X105114511Y-104364511D01*
X105027874Y-104477418D01*
X104973412Y-104608901D01*
X104954836Y-104750000D01*
X104973412Y-104891099D01*
X105027874Y-105022582D01*
X105114511Y-105135489D01*
X105120700Y-105140238D01*
X105221231Y-105217379D01*
X105221233Y-105217380D01*
X105227418Y-105222126D01*
X105314072Y-105258019D01*
X105345550Y-105271058D01*
X105397760Y-105313132D01*
X105418935Y-105376753D01*
X105402353Y-105441722D01*
X105353277Y-105487413D01*
X105300011Y-105500000D01*
X101119000Y-105500000D01*
X101054664Y-105481109D01*
X101010754Y-105430434D01*
X101000000Y-105381000D01*
X101000000Y-103300000D01*
X118604836Y-103300000D01*
X118623412Y-103441099D01*
X118677874Y-103572582D01*
X118764511Y-103685489D01*
X118770700Y-103690238D01*
X118871231Y-103767379D01*
X118871233Y-103767380D01*
X118877418Y-103772126D01*
X119008901Y-103826588D01*
X119016627Y-103827605D01*
X119016630Y-103827606D01*
X119142268Y-103844146D01*
X119150000Y-103845164D01*
X119157732Y-103844146D01*
X119283370Y-103827606D01*
X119283373Y-103827605D01*
X119291099Y-103826588D01*
X119422582Y-103772126D01*
X119428767Y-103767380D01*
X119428769Y-103767379D01*
X119529300Y-103690238D01*
X119535489Y-103685489D01*
X119622126Y-103572582D01*
X119676588Y-103441099D01*
X119695164Y-103300000D01*
X119676588Y-103158901D01*
X119622126Y-103027418D01*
X119535489Y-102914511D01*
X119445115Y-102845164D01*
X119428769Y-102832621D01*
X119428767Y-102832620D01*
X119422582Y-102827874D01*
X119291099Y-102773412D01*
X119283373Y-102772395D01*
X119283370Y-102772394D01*
X119157732Y-102755854D01*
X119150000Y-102754836D01*
X119142268Y-102755854D01*
X119016630Y-102772394D01*
X119016627Y-102772395D01*
X119008901Y-102773412D01*
X118877418Y-102827874D01*
X118871233Y-102832620D01*
X118871231Y-102832621D01*
X118854885Y-102845164D01*
X118764511Y-102914511D01*
X118677874Y-103027418D01*
X118623412Y-103158901D01*
X118604836Y-103300000D01*
X101000000Y-103300000D01*
X101000000Y-102300000D01*
X108104836Y-102300000D01*
X108105854Y-102307732D01*
X108121636Y-102427606D01*
X108123412Y-102441099D01*
X108177874Y-102572582D01*
X108264511Y-102685489D01*
X108270700Y-102690238D01*
X108371231Y-102767379D01*
X108371233Y-102767380D01*
X108377418Y-102772126D01*
X108508901Y-102826588D01*
X108516627Y-102827605D01*
X108516630Y-102827606D01*
X108642268Y-102844146D01*
X108650000Y-102845164D01*
X108657732Y-102844146D01*
X108783370Y-102827606D01*
X108783373Y-102827605D01*
X108791099Y-102826588D01*
X108922582Y-102772126D01*
X108928767Y-102767380D01*
X108928769Y-102767379D01*
X109029300Y-102690238D01*
X109035489Y-102685489D01*
X109122126Y-102572582D01*
X109176588Y-102441099D01*
X109178365Y-102427606D01*
X109194146Y-102307732D01*
X109195164Y-102300000D01*
X109182021Y-102200166D01*
X109177606Y-102166630D01*
X109177605Y-102166627D01*
X109176588Y-102158901D01*
X109166891Y-102135489D01*
X109130776Y-102048301D01*
X109122126Y-102027418D01*
X109101088Y-102000000D01*
X109040238Y-101920700D01*
X109035489Y-101914511D01*
X109016578Y-101900000D01*
X114154836Y-101900000D01*
X114155854Y-101907732D01*
X114171611Y-102027418D01*
X114173412Y-102041099D01*
X114227874Y-102172582D01*
X114232620Y-102178767D01*
X114232621Y-102178769D01*
X114298407Y-102264502D01*
X114314511Y-102285489D01*
X114320700Y-102290238D01*
X114421231Y-102367379D01*
X114421233Y-102367380D01*
X114427418Y-102372126D01*
X114558901Y-102426588D01*
X114566627Y-102427605D01*
X114566630Y-102427606D01*
X114692268Y-102444146D01*
X114700000Y-102445164D01*
X114707732Y-102444146D01*
X114833370Y-102427606D01*
X114833373Y-102427605D01*
X114841099Y-102426588D01*
X114972582Y-102372126D01*
X114978767Y-102367380D01*
X114978769Y-102367379D01*
X115079300Y-102290238D01*
X115085489Y-102285489D01*
X115101593Y-102264502D01*
X115167379Y-102178769D01*
X115167380Y-102178767D01*
X115172126Y-102172582D01*
X115226588Y-102041099D01*
X115228390Y-102027418D01*
X115244146Y-101907732D01*
X115245164Y-101900000D01*
X115239753Y-101858901D01*
X115227606Y-101766630D01*
X115227605Y-101766627D01*
X115226588Y-101758901D01*
X115172126Y-101627418D01*
X115162223Y-101614511D01*
X115090238Y-101520700D01*
X115085489Y-101514511D01*
X115037149Y-101477418D01*
X114978769Y-101432621D01*
X114978767Y-101432620D01*
X114972582Y-101427874D01*
X114841099Y-101373412D01*
X114833373Y-101372395D01*
X114833370Y-101372394D01*
X114707732Y-101355854D01*
X114700000Y-101354836D01*
X114692268Y-101355854D01*
X114566630Y-101372394D01*
X114566627Y-101372395D01*
X114558901Y-101373412D01*
X114427418Y-101427874D01*
X114421233Y-101432620D01*
X114421231Y-101432621D01*
X114362851Y-101477418D01*
X114314511Y-101514511D01*
X114309762Y-101520700D01*
X114237778Y-101614511D01*
X114227874Y-101627418D01*
X114173412Y-101758901D01*
X114172395Y-101766627D01*
X114172394Y-101766630D01*
X114160247Y-101858901D01*
X114154836Y-101900000D01*
X109016578Y-101900000D01*
X108928769Y-101832621D01*
X108928767Y-101832620D01*
X108922582Y-101827874D01*
X108791099Y-101773412D01*
X108783373Y-101772395D01*
X108783370Y-101772394D01*
X108657732Y-101755854D01*
X108650000Y-101754836D01*
X108642268Y-101755854D01*
X108516630Y-101772394D01*
X108516627Y-101772395D01*
X108508901Y-101773412D01*
X108377418Y-101827874D01*
X108371233Y-101832620D01*
X108371231Y-101832621D01*
X108283422Y-101900000D01*
X108264511Y-101914511D01*
X108259762Y-101920700D01*
X108198913Y-102000000D01*
X108177874Y-102027418D01*
X108169224Y-102048301D01*
X108133110Y-102135489D01*
X108123412Y-102158901D01*
X108122395Y-102166627D01*
X108122394Y-102166630D01*
X108117979Y-102200166D01*
X108104836Y-102300000D01*
X101000000Y-102300000D01*
X101000000Y-99750000D01*
X112204836Y-99750000D01*
X112223412Y-99891099D01*
X112277874Y-100022582D01*
X112364511Y-100135489D01*
X112370700Y-100140238D01*
X112471231Y-100217379D01*
X112471233Y-100217380D01*
X112477418Y-100222126D01*
X112608901Y-100276588D01*
X112616627Y-100277605D01*
X112616630Y-100277606D01*
X112742268Y-100294146D01*
X112750000Y-100295164D01*
X112757732Y-100294146D01*
X112883370Y-100277606D01*
X112883373Y-100277605D01*
X112891099Y-100276588D01*
X113022582Y-100222126D01*
X113028767Y-100217380D01*
X113028769Y-100217379D01*
X113129300Y-100140238D01*
X113135489Y-100135489D01*
X113222126Y-100022582D01*
X113276588Y-99891099D01*
X113295164Y-99750000D01*
X122704836Y-99750000D01*
X122723412Y-99891099D01*
X122777874Y-100022582D01*
X122864511Y-100135489D01*
X122870700Y-100140238D01*
X122971231Y-100217379D01*
X122971233Y-100217380D01*
X122977418Y-100222126D01*
X123108901Y-100276588D01*
X123116627Y-100277605D01*
X123116630Y-100277606D01*
X123242268Y-100294146D01*
X123250000Y-100295164D01*
X123257732Y-100294146D01*
X123383370Y-100277606D01*
X123383373Y-100277605D01*
X123391099Y-100276588D01*
X123522582Y-100222126D01*
X123528767Y-100217380D01*
X123528769Y-100217379D01*
X123629300Y-100140238D01*
X123635489Y-100135489D01*
X123722126Y-100022582D01*
X123776588Y-99891099D01*
X123795164Y-99750000D01*
X123776588Y-99608901D01*
X123722126Y-99477418D01*
X123681989Y-99425110D01*
X123640238Y-99370700D01*
X123635489Y-99364511D01*
X123597667Y-99335489D01*
X123528769Y-99282621D01*
X123528767Y-99282620D01*
X123522582Y-99277874D01*
X123404032Y-99228769D01*
X123398301Y-99226395D01*
X123398300Y-99226395D01*
X123391099Y-99223412D01*
X123383373Y-99222395D01*
X123383370Y-99222394D01*
X123257732Y-99205854D01*
X123250000Y-99204836D01*
X123242268Y-99205854D01*
X123116630Y-99222394D01*
X123116627Y-99222395D01*
X123108901Y-99223412D01*
X123101700Y-99226395D01*
X123101699Y-99226395D01*
X123095968Y-99228769D01*
X122977418Y-99277874D01*
X122971233Y-99282620D01*
X122971231Y-99282621D01*
X122902333Y-99335489D01*
X122864511Y-99364511D01*
X122859762Y-99370700D01*
X122818012Y-99425110D01*
X122777874Y-99477418D01*
X122723412Y-99608901D01*
X122704836Y-99750000D01*
X113295164Y-99750000D01*
X113276588Y-99608901D01*
X113222126Y-99477418D01*
X113181989Y-99425110D01*
X113140238Y-99370700D01*
X113135489Y-99364511D01*
X113097667Y-99335489D01*
X113028769Y-99282621D01*
X113028767Y-99282620D01*
X113022582Y-99277874D01*
X112904032Y-99228769D01*
X112898301Y-99226395D01*
X112898300Y-99226395D01*
X112891099Y-99223412D01*
X112883373Y-99222395D01*
X112883370Y-99222394D01*
X112757732Y-99205854D01*
X112750000Y-99204836D01*
X112742268Y-99205854D01*
X112616630Y-99222394D01*
X112616627Y-99222395D01*
X112608901Y-99223412D01*
X112601700Y-99226395D01*
X112601699Y-99226395D01*
X112595968Y-99228769D01*
X112477418Y-99277874D01*
X112471233Y-99282620D01*
X112471231Y-99282621D01*
X112402333Y-99335489D01*
X112364511Y-99364511D01*
X112359762Y-99370700D01*
X112318012Y-99425110D01*
X112277874Y-99477418D01*
X112223412Y-99608901D01*
X112204836Y-99750000D01*
X101000000Y-99750000D01*
X101000000Y-89750000D01*
X100000000Y-89750000D01*
X100000000Y-110500000D01*
X102947025Y-112955854D01*
X102957182Y-112964318D01*
X102994513Y-113020017D01*
X103000000Y-113055736D01*
X103000000Y-128631000D01*
X102981109Y-128695336D01*
X102930434Y-128739246D01*
X102881000Y-128750000D01*
X96548138Y-128750000D01*
X96483802Y-128731109D01*
X96453729Y-128703443D01*
X96398142Y-128631000D01*
X96385489Y-128614511D01*
X96376253Y-128607424D01*
X96278769Y-128532621D01*
X96278767Y-128532620D01*
X96272582Y-128527874D01*
X96141099Y-128473412D01*
X96133373Y-128472395D01*
X96133370Y-128472394D01*
X96007732Y-128455854D01*
X96000000Y-128454836D01*
X95992268Y-128455854D01*
X95866630Y-128472394D01*
X95866627Y-128472395D01*
X95858901Y-128473412D01*
X95727418Y-128527874D01*
X95721233Y-128532620D01*
X95721231Y-128532621D01*
X95623747Y-128607424D01*
X95614511Y-128614511D01*
X95601859Y-128631000D01*
X95546271Y-128703443D01*
X95492118Y-128742984D01*
X95451862Y-128750000D01*
X95298138Y-128750000D01*
X95233802Y-128731109D01*
X95203729Y-128703443D01*
X95148142Y-128631000D01*
X95135489Y-128614511D01*
X95126253Y-128607424D01*
X95028769Y-128532621D01*
X95028767Y-128532620D01*
X95022582Y-128527874D01*
X94891099Y-128473412D01*
X94883373Y-128472395D01*
X94883370Y-128472394D01*
X94757732Y-128455854D01*
X94750000Y-128454836D01*
X94742268Y-128455854D01*
X94616630Y-128472394D01*
X94616627Y-128472395D01*
X94608901Y-128473412D01*
X94477418Y-128527874D01*
X94471233Y-128532620D01*
X94471231Y-128532621D01*
X94373747Y-128607424D01*
X94364511Y-128614511D01*
X94351859Y-128631000D01*
X94296271Y-128703443D01*
X94242118Y-128742984D01*
X94201862Y-128750000D01*
X91869000Y-128750000D01*
X91804664Y-128731109D01*
X91760754Y-128680434D01*
X91750000Y-128631000D01*
X91750000Y-127000000D01*
X94704836Y-127000000D01*
X94723412Y-127141099D01*
X94777874Y-127272582D01*
X94864511Y-127385489D01*
X94870700Y-127390238D01*
X94971231Y-127467379D01*
X94971233Y-127467380D01*
X94977418Y-127472126D01*
X95108901Y-127526588D01*
X95116627Y-127527605D01*
X95116630Y-127527606D01*
X95242268Y-127544146D01*
X95250000Y-127545164D01*
X95257732Y-127544146D01*
X95383370Y-127527606D01*
X95383373Y-127527605D01*
X95391099Y-127526588D01*
X95522582Y-127472126D01*
X95528767Y-127467380D01*
X95528769Y-127467379D01*
X95629300Y-127390238D01*
X95635489Y-127385489D01*
X95722126Y-127272582D01*
X95776588Y-127141099D01*
X95795164Y-127000000D01*
X95776588Y-126858901D01*
X95722126Y-126727418D01*
X95635489Y-126614511D01*
X95627368Y-126608280D01*
X95528769Y-126532621D01*
X95528767Y-126532620D01*
X95522582Y-126527874D01*
X95391099Y-126473412D01*
X95383373Y-126472395D01*
X95383370Y-126472394D01*
X95257732Y-126455854D01*
X95250000Y-126454836D01*
X95242268Y-126455854D01*
X95116630Y-126472394D01*
X95116627Y-126472395D01*
X95108901Y-126473412D01*
X94977418Y-126527874D01*
X94971233Y-126532620D01*
X94971231Y-126532621D01*
X94872632Y-126608280D01*
X94864511Y-126614511D01*
X94777874Y-126727418D01*
X94723412Y-126858901D01*
X94704836Y-127000000D01*
X91750000Y-127000000D01*
X91750000Y-125619000D01*
X91768891Y-125554664D01*
X91819566Y-125510754D01*
X91869000Y-125500000D01*
X98000000Y-125500000D01*
X98000000Y-116250000D01*
X100204836Y-116250000D01*
X100223412Y-116391099D01*
X100277874Y-116522582D01*
X100364511Y-116635489D01*
X100370700Y-116640238D01*
X100471231Y-116717379D01*
X100471233Y-116717380D01*
X100477418Y-116722126D01*
X100608901Y-116776588D01*
X100616627Y-116777605D01*
X100616630Y-116777606D01*
X100742268Y-116794146D01*
X100750000Y-116795164D01*
X100757732Y-116794146D01*
X100883370Y-116777606D01*
X100883373Y-116777605D01*
X100891099Y-116776588D01*
X101022582Y-116722126D01*
X101028767Y-116717380D01*
X101028769Y-116717379D01*
X101129300Y-116640238D01*
X101135489Y-116635489D01*
X101222126Y-116522582D01*
X101276588Y-116391099D01*
X101295164Y-116250000D01*
X101276588Y-116108901D01*
X101222126Y-115977418D01*
X101135489Y-115864511D01*
X101127368Y-115858280D01*
X101028769Y-115782621D01*
X101028767Y-115782620D01*
X101022582Y-115777874D01*
X100891099Y-115723412D01*
X100883373Y-115722395D01*
X100883370Y-115722394D01*
X100757732Y-115705854D01*
X100750000Y-115704836D01*
X100742268Y-115705854D01*
X100616630Y-115722394D01*
X100616627Y-115722395D01*
X100608901Y-115723412D01*
X100477418Y-115777874D01*
X100471233Y-115782620D01*
X100471231Y-115782621D01*
X100372632Y-115858280D01*
X100364511Y-115864511D01*
X100277874Y-115977418D01*
X100223412Y-116108901D01*
X100204836Y-116250000D01*
X98000000Y-116250000D01*
X98000000Y-113500000D01*
X98704836Y-113500000D01*
X98723412Y-113641099D01*
X98777874Y-113772582D01*
X98864511Y-113885489D01*
X98870700Y-113890238D01*
X98971231Y-113967379D01*
X98971233Y-113967380D01*
X98977418Y-113972126D01*
X99108901Y-114026588D01*
X99116627Y-114027605D01*
X99116630Y-114027606D01*
X99242268Y-114044146D01*
X99250000Y-114045164D01*
X99257732Y-114044146D01*
X99383370Y-114027606D01*
X99383373Y-114027605D01*
X99391099Y-114026588D01*
X99522582Y-113972126D01*
X99528767Y-113967380D01*
X99528769Y-113967379D01*
X99629300Y-113890238D01*
X99635489Y-113885489D01*
X99722126Y-113772582D01*
X99776588Y-113641099D01*
X99795164Y-113500000D01*
X99780714Y-113390238D01*
X99777606Y-113366630D01*
X99777605Y-113366627D01*
X99776588Y-113358901D01*
X99722126Y-113227418D01*
X99635489Y-113114511D01*
X99627368Y-113108280D01*
X99528769Y-113032621D01*
X99528767Y-113032620D01*
X99522582Y-113027874D01*
X99455288Y-113000000D01*
X100204836Y-113000000D01*
X100205854Y-113007732D01*
X100219912Y-113114511D01*
X100223412Y-113141099D01*
X100277874Y-113272582D01*
X100364511Y-113385489D01*
X100370700Y-113390238D01*
X100471231Y-113467379D01*
X100471233Y-113467380D01*
X100477418Y-113472126D01*
X100608901Y-113526588D01*
X100616627Y-113527605D01*
X100616630Y-113527606D01*
X100742268Y-113544146D01*
X100750000Y-113545164D01*
X100757732Y-113544146D01*
X100883370Y-113527606D01*
X100883373Y-113527605D01*
X100891099Y-113526588D01*
X101022582Y-113472126D01*
X101028767Y-113467380D01*
X101028769Y-113467379D01*
X101129300Y-113390238D01*
X101135489Y-113385489D01*
X101222126Y-113272582D01*
X101276588Y-113141099D01*
X101280089Y-113114511D01*
X101294146Y-113007732D01*
X101295164Y-113000000D01*
X101281148Y-112893538D01*
X101277606Y-112866630D01*
X101277605Y-112866627D01*
X101276588Y-112858901D01*
X101222126Y-112727418D01*
X101135489Y-112614511D01*
X101045115Y-112545164D01*
X101028769Y-112532621D01*
X101028767Y-112532620D01*
X101022582Y-112527874D01*
X100891099Y-112473412D01*
X100883373Y-112472395D01*
X100883370Y-112472394D01*
X100757732Y-112455854D01*
X100750000Y-112454836D01*
X100742268Y-112455854D01*
X100616630Y-112472394D01*
X100616627Y-112472395D01*
X100608901Y-112473412D01*
X100477418Y-112527874D01*
X100471233Y-112532620D01*
X100471231Y-112532621D01*
X100454885Y-112545164D01*
X100364511Y-112614511D01*
X100277874Y-112727418D01*
X100223412Y-112858901D01*
X100222395Y-112866627D01*
X100222394Y-112866630D01*
X100218852Y-112893538D01*
X100204836Y-113000000D01*
X99455288Y-113000000D01*
X99391099Y-112973412D01*
X99383373Y-112972395D01*
X99383370Y-112972394D01*
X99257732Y-112955854D01*
X99250000Y-112954836D01*
X99242268Y-112955854D01*
X99116630Y-112972394D01*
X99116627Y-112972395D01*
X99108901Y-112973412D01*
X98977418Y-113027874D01*
X98971233Y-113032620D01*
X98971231Y-113032621D01*
X98872632Y-113108280D01*
X98864511Y-113114511D01*
X98777874Y-113227418D01*
X98723412Y-113358901D01*
X98722395Y-113366627D01*
X98722394Y-113366630D01*
X98719286Y-113390238D01*
X98704836Y-113500000D01*
X98000000Y-113500000D01*
X98000000Y-86369000D01*
X98018891Y-86304664D01*
X98069566Y-86260754D01*
X98119000Y-86250000D01*
X102631000Y-86250000D01*
X102695336Y-86268891D01*
G37*
%TD.AperFunction*%
%TD*%
%TA.AperFunction,Conductor*%
%TO.N,/USB_PWR*%
G36*
X85445336Y-64313517D02*
G01*
X85489246Y-64364192D01*
X85500000Y-64413626D01*
X85500000Y-78500000D01*
X88245084Y-78500000D01*
X88309420Y-78518891D01*
X88353330Y-78569566D01*
X88362148Y-78597621D01*
X88397585Y-78791654D01*
X88407143Y-78843991D01*
X88489631Y-79091236D01*
X88606132Y-79324392D01*
X88608521Y-79327848D01*
X88608523Y-79327852D01*
X88674622Y-79423489D01*
X88754323Y-79538806D01*
X88931247Y-79730202D01*
X89133374Y-79894759D01*
X89199588Y-79934623D01*
X89353063Y-80027023D01*
X89353069Y-80027026D01*
X89356670Y-80029194D01*
X89596681Y-80130826D01*
X89600729Y-80131899D01*
X89600734Y-80131901D01*
X89779602Y-80179326D01*
X89848618Y-80197625D01*
X89852789Y-80198119D01*
X89852796Y-80198120D01*
X90096370Y-80226949D01*
X90107453Y-80228261D01*
X90111659Y-80228162D01*
X90111662Y-80228162D01*
X90237738Y-80225191D01*
X90368023Y-80222120D01*
X90625128Y-80179326D01*
X90736367Y-80144146D01*
X90869630Y-80102001D01*
X90869636Y-80101999D01*
X90873638Y-80100733D01*
X91108595Y-79987908D01*
X91112086Y-79985576D01*
X91112092Y-79985572D01*
X91314887Y-79850068D01*
X91378876Y-79830032D01*
X91443539Y-79847771D01*
X91488347Y-79897654D01*
X91500000Y-79949013D01*
X91500000Y-99381000D01*
X91481109Y-99445336D01*
X91430434Y-99489246D01*
X91381000Y-99500000D01*
X90424632Y-99500000D01*
X90360296Y-99481109D01*
X90316386Y-99430434D01*
X90306843Y-99364065D01*
X90320441Y-99324778D01*
X90322126Y-99322582D01*
X90376588Y-99191099D01*
X90378212Y-99178769D01*
X90394146Y-99057732D01*
X90395164Y-99050000D01*
X90396128Y-99050127D01*
X90413037Y-98992542D01*
X90463712Y-98948632D01*
X90497613Y-98938896D01*
X90583369Y-98927606D01*
X90583371Y-98927605D01*
X90591099Y-98926588D01*
X90722582Y-98872126D01*
X90728767Y-98867380D01*
X90728769Y-98867379D01*
X90829300Y-98790238D01*
X90835489Y-98785489D01*
X90873590Y-98735835D01*
X90917379Y-98678769D01*
X90917380Y-98678767D01*
X90922126Y-98672582D01*
X90969719Y-98557683D01*
X90973605Y-98548301D01*
X90973605Y-98548300D01*
X90976588Y-98541099D01*
X90980089Y-98514511D01*
X90994146Y-98407732D01*
X90995164Y-98400000D01*
X90988805Y-98351699D01*
X90977606Y-98266630D01*
X90977605Y-98266627D01*
X90976588Y-98258901D01*
X90922126Y-98127418D01*
X90916972Y-98120700D01*
X90840238Y-98020700D01*
X90835489Y-98014511D01*
X90792762Y-97981725D01*
X90728769Y-97932621D01*
X90728767Y-97932620D01*
X90722582Y-97927874D01*
X90591099Y-97873412D01*
X90583373Y-97872395D01*
X90583370Y-97872394D01*
X90457732Y-97855854D01*
X90450000Y-97854836D01*
X90442268Y-97855854D01*
X90316630Y-97872394D01*
X90316627Y-97872395D01*
X90308901Y-97873412D01*
X90177418Y-97927874D01*
X90171233Y-97932620D01*
X90171231Y-97932621D01*
X90107238Y-97981725D01*
X90064511Y-98014511D01*
X90059762Y-98020700D01*
X90001443Y-98096703D01*
X89977874Y-98127418D01*
X89976578Y-98130546D01*
X89929530Y-98175408D01*
X89863689Y-98188098D01*
X89801440Y-98163178D01*
X89773657Y-98131114D01*
X89772126Y-98127418D01*
X89748558Y-98096703D01*
X89690238Y-98020700D01*
X89685489Y-98014511D01*
X89642762Y-97981725D01*
X89578769Y-97932621D01*
X89578767Y-97932620D01*
X89572582Y-97927874D01*
X89441099Y-97873412D01*
X89433373Y-97872395D01*
X89433370Y-97872394D01*
X89307732Y-97855854D01*
X89300000Y-97854836D01*
X89292268Y-97855854D01*
X89166630Y-97872394D01*
X89166627Y-97872395D01*
X89158901Y-97873412D01*
X89027418Y-97927874D01*
X89021233Y-97932620D01*
X89021231Y-97932621D01*
X88957238Y-97981725D01*
X88914511Y-98014511D01*
X88909762Y-98020700D01*
X88833029Y-98120700D01*
X88827874Y-98127418D01*
X88773412Y-98258901D01*
X88772395Y-98266627D01*
X88772394Y-98266630D01*
X88761195Y-98351699D01*
X88754836Y-98400000D01*
X88755854Y-98407732D01*
X88769912Y-98514511D01*
X88773412Y-98541099D01*
X88776395Y-98548300D01*
X88776395Y-98548301D01*
X88780281Y-98557683D01*
X88827874Y-98672582D01*
X88832620Y-98678767D01*
X88832621Y-98678769D01*
X88876410Y-98735835D01*
X88914511Y-98785489D01*
X88920700Y-98790238D01*
X89021231Y-98867379D01*
X89021233Y-98867380D01*
X89027418Y-98872126D01*
X89158901Y-98926588D01*
X89166627Y-98927605D01*
X89166630Y-98927606D01*
X89202387Y-98932313D01*
X89263707Y-98959440D01*
X89300627Y-99015412D01*
X89305291Y-99046541D01*
X89304836Y-99050000D01*
X89305854Y-99057732D01*
X89321789Y-99178769D01*
X89323412Y-99191099D01*
X89377874Y-99322582D01*
X89379063Y-99324131D01*
X89394233Y-99386660D01*
X89372304Y-99450025D01*
X89319598Y-99491475D01*
X89275368Y-99500000D01*
X85806496Y-99500000D01*
X85742160Y-99481109D01*
X85698250Y-99430434D01*
X85688707Y-99364065D01*
X85716562Y-99303072D01*
X85724050Y-99296016D01*
X85723786Y-99295752D01*
X85729300Y-99290238D01*
X85735489Y-99285489D01*
X85802391Y-99198301D01*
X85817379Y-99178769D01*
X85817380Y-99178767D01*
X85822126Y-99172582D01*
X85859675Y-99081930D01*
X85873605Y-99048301D01*
X85873605Y-99048300D01*
X85876588Y-99041099D01*
X85878365Y-99027606D01*
X85894146Y-98907732D01*
X85895164Y-98900000D01*
X85888258Y-98847545D01*
X85877606Y-98766630D01*
X85877605Y-98766627D01*
X85876588Y-98758901D01*
X85869868Y-98742676D01*
X85843396Y-98678769D01*
X85822126Y-98627418D01*
X85790129Y-98585718D01*
X85740238Y-98520700D01*
X85735489Y-98514511D01*
X85656158Y-98453638D01*
X85616617Y-98399485D01*
X85612630Y-98332552D01*
X85637737Y-98287214D01*
X85635489Y-98285489D01*
X85717379Y-98178769D01*
X85717380Y-98178767D01*
X85722126Y-98172582D01*
X85776588Y-98041099D01*
X85777705Y-98032621D01*
X85794146Y-97907732D01*
X85795164Y-97900000D01*
X85786409Y-97833500D01*
X85777606Y-97766630D01*
X85777605Y-97766627D01*
X85776588Y-97758901D01*
X85722126Y-97627418D01*
X85686838Y-97581429D01*
X85640238Y-97520700D01*
X85635489Y-97514511D01*
X85627368Y-97508280D01*
X85528769Y-97432621D01*
X85528767Y-97432620D01*
X85522582Y-97427874D01*
X85431930Y-97390325D01*
X85398301Y-97376395D01*
X85398300Y-97376395D01*
X85391099Y-97373412D01*
X85383373Y-97372395D01*
X85383370Y-97372394D01*
X85257732Y-97355854D01*
X85250000Y-97354836D01*
X85242268Y-97355854D01*
X85116630Y-97372394D01*
X85116627Y-97372395D01*
X85108901Y-97373412D01*
X85101700Y-97376395D01*
X85101699Y-97376395D01*
X85068070Y-97390325D01*
X84977418Y-97427874D01*
X84971233Y-97432620D01*
X84971231Y-97432621D01*
X84872632Y-97508280D01*
X84864511Y-97514511D01*
X84859762Y-97520700D01*
X84813163Y-97581429D01*
X84777874Y-97627418D01*
X84723412Y-97758901D01*
X84722395Y-97766627D01*
X84722394Y-97766630D01*
X84713591Y-97833500D01*
X84704836Y-97900000D01*
X84705854Y-97907732D01*
X84722296Y-98032621D01*
X84723412Y-98041099D01*
X84777874Y-98172582D01*
X84782620Y-98178767D01*
X84782621Y-98178769D01*
X84822877Y-98231231D01*
X84864511Y-98285489D01*
X84925845Y-98332552D01*
X84943842Y-98346362D01*
X84983383Y-98400515D01*
X84987370Y-98467448D01*
X84962263Y-98512786D01*
X84964511Y-98514511D01*
X84909872Y-98585718D01*
X84877874Y-98627418D01*
X84856604Y-98678769D01*
X84830133Y-98742676D01*
X84823412Y-98758901D01*
X84822395Y-98766627D01*
X84822394Y-98766630D01*
X84811742Y-98847545D01*
X84804836Y-98900000D01*
X84805854Y-98907732D01*
X84821636Y-99027606D01*
X84823412Y-99041099D01*
X84826395Y-99048300D01*
X84826395Y-99048301D01*
X84840325Y-99081930D01*
X84877874Y-99172582D01*
X84882620Y-99178767D01*
X84882621Y-99178769D01*
X84897609Y-99198301D01*
X84964511Y-99285489D01*
X84970700Y-99290238D01*
X84976214Y-99295752D01*
X84974147Y-99297819D01*
X85005490Y-99340749D01*
X85009474Y-99407683D01*
X84976638Y-99466145D01*
X84917408Y-99497574D01*
X84893504Y-99500000D01*
X81206496Y-99500000D01*
X81142160Y-99481109D01*
X81098250Y-99430434D01*
X81088707Y-99364065D01*
X81116562Y-99303072D01*
X81124050Y-99296016D01*
X81123786Y-99295752D01*
X81129300Y-99290238D01*
X81135489Y-99285489D01*
X81202391Y-99198301D01*
X81217379Y-99178769D01*
X81217380Y-99178767D01*
X81222126Y-99172582D01*
X81259675Y-99081930D01*
X81273605Y-99048301D01*
X81273605Y-99048300D01*
X81276588Y-99041099D01*
X81278365Y-99027606D01*
X81294146Y-98907732D01*
X81295164Y-98900000D01*
X81288258Y-98847545D01*
X81277606Y-98766630D01*
X81277605Y-98766627D01*
X81276588Y-98758901D01*
X81269868Y-98742676D01*
X81243396Y-98678769D01*
X81222126Y-98627418D01*
X81190129Y-98585718D01*
X81140238Y-98520700D01*
X81135489Y-98514511D01*
X81126591Y-98507683D01*
X81028769Y-98432621D01*
X81028767Y-98432620D01*
X81022582Y-98427874D01*
X80922059Y-98386236D01*
X80898301Y-98376395D01*
X80898300Y-98376395D01*
X80891099Y-98373412D01*
X80883373Y-98372395D01*
X80883370Y-98372394D01*
X80757732Y-98355854D01*
X80750000Y-98354836D01*
X80742268Y-98355854D01*
X80616630Y-98372394D01*
X80616627Y-98372395D01*
X80608901Y-98373412D01*
X80601700Y-98376395D01*
X80601699Y-98376395D01*
X80577941Y-98386236D01*
X80477418Y-98427874D01*
X80471233Y-98432620D01*
X80471231Y-98432621D01*
X80373409Y-98507683D01*
X80364511Y-98514511D01*
X80359762Y-98520700D01*
X80309872Y-98585718D01*
X80277874Y-98627418D01*
X80256604Y-98678769D01*
X80230133Y-98742676D01*
X80223412Y-98758901D01*
X80222395Y-98766627D01*
X80222394Y-98766630D01*
X80211742Y-98847545D01*
X80204836Y-98900000D01*
X80205854Y-98907732D01*
X80221636Y-99027606D01*
X80223412Y-99041099D01*
X80226395Y-99048300D01*
X80226395Y-99048301D01*
X80240325Y-99081930D01*
X80277874Y-99172582D01*
X80282620Y-99178767D01*
X80282621Y-99178769D01*
X80297609Y-99198301D01*
X80364511Y-99285489D01*
X80370700Y-99290238D01*
X80376214Y-99295752D01*
X80374147Y-99297819D01*
X80405490Y-99340749D01*
X80409474Y-99407683D01*
X80376638Y-99466145D01*
X80317408Y-99497574D01*
X80293504Y-99500000D01*
X76248247Y-99500000D01*
X76183911Y-99481109D01*
X76140001Y-99430434D01*
X76129247Y-99381000D01*
X76129247Y-98500000D01*
X77354836Y-98500000D01*
X77355854Y-98507732D01*
X77371611Y-98627418D01*
X77373412Y-98641099D01*
X77376395Y-98648300D01*
X77376395Y-98648301D01*
X77383468Y-98665377D01*
X77427874Y-98772582D01*
X77432620Y-98778767D01*
X77432621Y-98778769D01*
X77493916Y-98858649D01*
X77514511Y-98885489D01*
X77520700Y-98890238D01*
X77621231Y-98967379D01*
X77621233Y-98967380D01*
X77627418Y-98972126D01*
X77758901Y-99026588D01*
X77766627Y-99027605D01*
X77766630Y-99027606D01*
X77892268Y-99044146D01*
X77900000Y-99045164D01*
X77907732Y-99044146D01*
X78033370Y-99027606D01*
X78033373Y-99027605D01*
X78041099Y-99026588D01*
X78172582Y-98972126D01*
X78178767Y-98967380D01*
X78178769Y-98967379D01*
X78279300Y-98890238D01*
X78285489Y-98885489D01*
X78306084Y-98858649D01*
X78367379Y-98778769D01*
X78367380Y-98778767D01*
X78372126Y-98772582D01*
X78416532Y-98665377D01*
X78423605Y-98648301D01*
X78423605Y-98648300D01*
X78426588Y-98641099D01*
X78428390Y-98627418D01*
X78444146Y-98507732D01*
X78445164Y-98500000D01*
X78436563Y-98434667D01*
X78427606Y-98366630D01*
X78427605Y-98366627D01*
X78426588Y-98358901D01*
X78417685Y-98337406D01*
X78402190Y-98300000D01*
X78372126Y-98227418D01*
X78366314Y-98219843D01*
X78290238Y-98120700D01*
X78285489Y-98114511D01*
X78232180Y-98073605D01*
X78178769Y-98032621D01*
X78178767Y-98032620D01*
X78172582Y-98027874D01*
X78070415Y-97985555D01*
X78048301Y-97976395D01*
X78048300Y-97976395D01*
X78041099Y-97973412D01*
X78033373Y-97972395D01*
X78033370Y-97972394D01*
X77907732Y-97955854D01*
X77900000Y-97954836D01*
X77892268Y-97955854D01*
X77766630Y-97972394D01*
X77766627Y-97972395D01*
X77758901Y-97973412D01*
X77751700Y-97976395D01*
X77751699Y-97976395D01*
X77729585Y-97985555D01*
X77627418Y-98027874D01*
X77621233Y-98032620D01*
X77621231Y-98032621D01*
X77567820Y-98073605D01*
X77514511Y-98114511D01*
X77509762Y-98120700D01*
X77433687Y-98219843D01*
X77427874Y-98227418D01*
X77397810Y-98300000D01*
X77382316Y-98337406D01*
X77373412Y-98358901D01*
X77372395Y-98366627D01*
X77372394Y-98366630D01*
X77363437Y-98434667D01*
X77354836Y-98500000D01*
X76129247Y-98500000D01*
X76129247Y-97550000D01*
X79904836Y-97550000D01*
X79905854Y-97557732D01*
X79914332Y-97622126D01*
X79923412Y-97691099D01*
X79926395Y-97698300D01*
X79926395Y-97698301D01*
X79940325Y-97731930D01*
X79977874Y-97822582D01*
X79982620Y-97828767D01*
X79982621Y-97828769D01*
X80016096Y-97872394D01*
X80064511Y-97935489D01*
X80070700Y-97940238D01*
X80171231Y-98017379D01*
X80171233Y-98017380D01*
X80177418Y-98022126D01*
X80223223Y-98041099D01*
X80296432Y-98071423D01*
X80308901Y-98076588D01*
X80316627Y-98077605D01*
X80316630Y-98077606D01*
X80442268Y-98094146D01*
X80450000Y-98095164D01*
X80457732Y-98094146D01*
X80583370Y-98077606D01*
X80583373Y-98077605D01*
X80591099Y-98076588D01*
X80603569Y-98071423D01*
X80676777Y-98041099D01*
X80722582Y-98022126D01*
X80728767Y-98017380D01*
X80728769Y-98017379D01*
X80829300Y-97940238D01*
X80835489Y-97935489D01*
X80883904Y-97872394D01*
X80917379Y-97828769D01*
X80917380Y-97828767D01*
X80922126Y-97822582D01*
X80931745Y-97799360D01*
X81679908Y-97799360D01*
X81680265Y-97804804D01*
X81693331Y-98004148D01*
X81693918Y-98013105D01*
X81695259Y-98018385D01*
X81745303Y-98215437D01*
X81745305Y-98215442D01*
X81746645Y-98220719D01*
X81748927Y-98225669D01*
X81748928Y-98225672D01*
X81829532Y-98400515D01*
X81836323Y-98415246D01*
X81839476Y-98419708D01*
X81839477Y-98419709D01*
X81956800Y-98585718D01*
X81956805Y-98585723D01*
X81959950Y-98590174D01*
X82113385Y-98739644D01*
X82117919Y-98742673D01*
X82117922Y-98742676D01*
X82286955Y-98855620D01*
X82286959Y-98855622D01*
X82291489Y-98858649D01*
X82488298Y-98943205D01*
X82493610Y-98944407D01*
X82493613Y-98944408D01*
X82629298Y-98975110D01*
X82697220Y-98990479D01*
X82757968Y-98992866D01*
X82905803Y-98998675D01*
X82905807Y-98998675D01*
X82911259Y-98998889D01*
X83017253Y-98983520D01*
X83117841Y-98968936D01*
X83117844Y-98968935D01*
X83123246Y-98968152D01*
X83128411Y-98966399D01*
X83128414Y-98966398D01*
X83320915Y-98901053D01*
X83320916Y-98901053D01*
X83326082Y-98899299D01*
X83436600Y-98837406D01*
X83508213Y-98797301D01*
X83508214Y-98797300D01*
X83512975Y-98794634D01*
X83677664Y-98657664D01*
X83814634Y-98492975D01*
X83919299Y-98306082D01*
X83935728Y-98257683D01*
X83986398Y-98108414D01*
X83986399Y-98108411D01*
X83988152Y-98103246D01*
X83989472Y-98094146D01*
X84018386Y-97894730D01*
X84018386Y-97894725D01*
X84018889Y-97891259D01*
X84020493Y-97830000D01*
X84000893Y-97616695D01*
X83970735Y-97509762D01*
X83944230Y-97415784D01*
X83944230Y-97415783D01*
X83942749Y-97410533D01*
X83848009Y-97218419D01*
X83828658Y-97192504D01*
X83723115Y-97051165D01*
X83719846Y-97046787D01*
X83562551Y-96901385D01*
X83539203Y-96886653D01*
X83386008Y-96789995D01*
X83381393Y-96787083D01*
X83376325Y-96785061D01*
X83376321Y-96785059D01*
X83187505Y-96709729D01*
X83187500Y-96709727D01*
X83182438Y-96707708D01*
X83099512Y-96691213D01*
X83040098Y-96660134D01*
X83006918Y-96601867D01*
X83010506Y-96534911D01*
X83049725Y-96480524D01*
X83112121Y-96455974D01*
X83122728Y-96455500D01*
X83798688Y-96455500D01*
X83829381Y-96449395D01*
X83857344Y-96443833D01*
X83857346Y-96443832D01*
X83868839Y-96441546D01*
X83948391Y-96388391D01*
X84001546Y-96308839D01*
X84015500Y-96238688D01*
X84015500Y-94341312D01*
X84001546Y-94271161D01*
X83948391Y-94191609D01*
X83868839Y-94138454D01*
X83857346Y-94136168D01*
X83857344Y-94136167D01*
X83829381Y-94130605D01*
X83798688Y-94124500D01*
X81901312Y-94124500D01*
X81870619Y-94130605D01*
X81842656Y-94136167D01*
X81842654Y-94136168D01*
X81831161Y-94138454D01*
X81751609Y-94191609D01*
X81698454Y-94271161D01*
X81684500Y-94341312D01*
X81684500Y-96238688D01*
X81698454Y-96308839D01*
X81751609Y-96388391D01*
X81831161Y-96441546D01*
X81842654Y-96443832D01*
X81842656Y-96443833D01*
X81870619Y-96449395D01*
X81901312Y-96455500D01*
X82571188Y-96455500D01*
X82635524Y-96474391D01*
X82679434Y-96525066D01*
X82688977Y-96591435D01*
X82661122Y-96652428D01*
X82604714Y-96688680D01*
X82591341Y-96691781D01*
X82552435Y-96698466D01*
X82552431Y-96698467D01*
X82547054Y-96699391D01*
X82541935Y-96701279D01*
X82541933Y-96701280D01*
X82519031Y-96709729D01*
X82346090Y-96773530D01*
X82341407Y-96776316D01*
X82341405Y-96776317D01*
X82245037Y-96833650D01*
X82162001Y-96883051D01*
X82157894Y-96886653D01*
X82005057Y-97020687D01*
X82005053Y-97020691D01*
X82000954Y-97024286D01*
X81868342Y-97192504D01*
X81768605Y-97382072D01*
X81705085Y-97586641D01*
X81690177Y-97712594D01*
X81680742Y-97792317D01*
X81679908Y-97799360D01*
X80931745Y-97799360D01*
X80959675Y-97731930D01*
X80973605Y-97698301D01*
X80973605Y-97698300D01*
X80976588Y-97691099D01*
X80985669Y-97622126D01*
X80994146Y-97557732D01*
X80995164Y-97550000D01*
X80976588Y-97408901D01*
X80967637Y-97387290D01*
X80954615Y-97355854D01*
X80922126Y-97277418D01*
X80835489Y-97164511D01*
X80814978Y-97148772D01*
X80728769Y-97082621D01*
X80728767Y-97082620D01*
X80722582Y-97077874D01*
X80591099Y-97023412D01*
X80583373Y-97022395D01*
X80583370Y-97022394D01*
X80457732Y-97005854D01*
X80450000Y-97004836D01*
X80442268Y-97005854D01*
X80316630Y-97022394D01*
X80316627Y-97022395D01*
X80308901Y-97023412D01*
X80177418Y-97077874D01*
X80171233Y-97082620D01*
X80171231Y-97082621D01*
X80085022Y-97148772D01*
X80064511Y-97164511D01*
X79977874Y-97277418D01*
X79945385Y-97355854D01*
X79932364Y-97387290D01*
X79923412Y-97408901D01*
X79904836Y-97550000D01*
X76129247Y-97550000D01*
X76129247Y-95350000D01*
X76804836Y-95350000D01*
X76823412Y-95491099D01*
X76877874Y-95622582D01*
X76964511Y-95735489D01*
X76970700Y-95740238D01*
X77071231Y-95817379D01*
X77071233Y-95817380D01*
X77077418Y-95822126D01*
X77208901Y-95876588D01*
X77216627Y-95877605D01*
X77216630Y-95877606D01*
X77342268Y-95894146D01*
X77350000Y-95895164D01*
X77357732Y-95894146D01*
X77483370Y-95877606D01*
X77483373Y-95877605D01*
X77491099Y-95876588D01*
X77622582Y-95822126D01*
X77628767Y-95817380D01*
X77628769Y-95817379D01*
X77729300Y-95740238D01*
X77735489Y-95735489D01*
X77822126Y-95622582D01*
X77876588Y-95491099D01*
X77895164Y-95350000D01*
X77876588Y-95208901D01*
X77822126Y-95077418D01*
X77735489Y-94964511D01*
X77727368Y-94958280D01*
X77628769Y-94882621D01*
X77628767Y-94882620D01*
X77622582Y-94877874D01*
X77491099Y-94823412D01*
X77483373Y-94822395D01*
X77483370Y-94822394D01*
X77357732Y-94805854D01*
X77350000Y-94804836D01*
X77342268Y-94805854D01*
X77216630Y-94822394D01*
X77216627Y-94822395D01*
X77208901Y-94823412D01*
X77077418Y-94877874D01*
X77071233Y-94882620D01*
X77071231Y-94882621D01*
X76972632Y-94958280D01*
X76964511Y-94964511D01*
X76877874Y-95077418D01*
X76823412Y-95208901D01*
X76804836Y-95350000D01*
X76129247Y-95350000D01*
X76129247Y-92850000D01*
X76604836Y-92850000D01*
X76623412Y-92991099D01*
X76677874Y-93122582D01*
X76764511Y-93235489D01*
X76770700Y-93240238D01*
X76871231Y-93317379D01*
X76871233Y-93317380D01*
X76877418Y-93322126D01*
X77008901Y-93376588D01*
X77016627Y-93377605D01*
X77016630Y-93377606D01*
X77142268Y-93394146D01*
X77150000Y-93395164D01*
X77157732Y-93394146D01*
X77283370Y-93377606D01*
X77283373Y-93377605D01*
X77291099Y-93376588D01*
X77422582Y-93322126D01*
X77428767Y-93317380D01*
X77428769Y-93317379D01*
X77529300Y-93240238D01*
X77535489Y-93235489D01*
X77622126Y-93122582D01*
X77676588Y-92991099D01*
X77695164Y-92850000D01*
X77676588Y-92708901D01*
X77622126Y-92577418D01*
X77535489Y-92464511D01*
X77527368Y-92458280D01*
X77428769Y-92382621D01*
X77428767Y-92382620D01*
X77422582Y-92377874D01*
X77291099Y-92323412D01*
X77283373Y-92322395D01*
X77283370Y-92322394D01*
X77157732Y-92305854D01*
X77150000Y-92304836D01*
X77142268Y-92305854D01*
X77016630Y-92322394D01*
X77016627Y-92322395D01*
X77008901Y-92323412D01*
X76877418Y-92377874D01*
X76871233Y-92382620D01*
X76871231Y-92382621D01*
X76772632Y-92458280D01*
X76764511Y-92464511D01*
X76677874Y-92577418D01*
X76623412Y-92708901D01*
X76604836Y-92850000D01*
X76129247Y-92850000D01*
X76129247Y-89950000D01*
X76754836Y-89950000D01*
X76755854Y-89957732D01*
X76771558Y-90077013D01*
X76773412Y-90091099D01*
X76776395Y-90098300D01*
X76776395Y-90098301D01*
X76786264Y-90122126D01*
X76827874Y-90222582D01*
X76914511Y-90335489D01*
X76920700Y-90340238D01*
X77021231Y-90417379D01*
X77021233Y-90417380D01*
X77027418Y-90422126D01*
X77158901Y-90476588D01*
X77166627Y-90477605D01*
X77166630Y-90477606D01*
X77292268Y-90494146D01*
X77300000Y-90495164D01*
X77307732Y-90494146D01*
X77433370Y-90477606D01*
X77433373Y-90477605D01*
X77441099Y-90476588D01*
X77572582Y-90422126D01*
X77578767Y-90417380D01*
X77578769Y-90417379D01*
X77679300Y-90340238D01*
X77685489Y-90335489D01*
X77772126Y-90222582D01*
X77813736Y-90122126D01*
X77823605Y-90098301D01*
X77823605Y-90098300D01*
X77826588Y-90091099D01*
X77828443Y-90077013D01*
X77844146Y-89957732D01*
X77845164Y-89950000D01*
X77840606Y-89915377D01*
X77827606Y-89816630D01*
X77827605Y-89816627D01*
X77826588Y-89808901D01*
X77772126Y-89677418D01*
X77757021Y-89657732D01*
X77751088Y-89650000D01*
X79654836Y-89650000D01*
X79655854Y-89657732D01*
X79666990Y-89742317D01*
X79673412Y-89791099D01*
X79727874Y-89922582D01*
X79732620Y-89928767D01*
X79732621Y-89928769D01*
X79783826Y-89995500D01*
X79814511Y-90035489D01*
X79820700Y-90040238D01*
X79921231Y-90117379D01*
X79921233Y-90117380D01*
X79927418Y-90122126D01*
X80058901Y-90176588D01*
X80066627Y-90177605D01*
X80066630Y-90177606D01*
X80192268Y-90194146D01*
X80200000Y-90195164D01*
X80207732Y-90194146D01*
X80333370Y-90177606D01*
X80333373Y-90177605D01*
X80341099Y-90176588D01*
X80472582Y-90122126D01*
X80478767Y-90117380D01*
X80478769Y-90117379D01*
X80579300Y-90040238D01*
X80585489Y-90035489D01*
X80616174Y-89995500D01*
X80667379Y-89928769D01*
X80667380Y-89928767D01*
X80672126Y-89922582D01*
X80726588Y-89791099D01*
X80733011Y-89742317D01*
X80744146Y-89657732D01*
X80745164Y-89650000D01*
X80726588Y-89508901D01*
X80715703Y-89482621D01*
X80691177Y-89423412D01*
X80672126Y-89377418D01*
X80585489Y-89264511D01*
X80577368Y-89258280D01*
X80478769Y-89182621D01*
X80478767Y-89182620D01*
X80472582Y-89177874D01*
X80341099Y-89123412D01*
X80333373Y-89122395D01*
X80333370Y-89122394D01*
X80207732Y-89105854D01*
X80200000Y-89104836D01*
X80192268Y-89105854D01*
X80066630Y-89122394D01*
X80066627Y-89122395D01*
X80058901Y-89123412D01*
X79927418Y-89177874D01*
X79921233Y-89182620D01*
X79921231Y-89182621D01*
X79822632Y-89258280D01*
X79814511Y-89264511D01*
X79727874Y-89377418D01*
X79708823Y-89423412D01*
X79684298Y-89482621D01*
X79673412Y-89508901D01*
X79654836Y-89650000D01*
X77751088Y-89650000D01*
X77690238Y-89570700D01*
X77685489Y-89564511D01*
X77613017Y-89508901D01*
X77578769Y-89482621D01*
X77578767Y-89482620D01*
X77572582Y-89477874D01*
X77441099Y-89423412D01*
X77433373Y-89422395D01*
X77433370Y-89422394D01*
X77307732Y-89405854D01*
X77300000Y-89404836D01*
X77292268Y-89405854D01*
X77166630Y-89422394D01*
X77166627Y-89422395D01*
X77158901Y-89423412D01*
X77027418Y-89477874D01*
X77021233Y-89482620D01*
X77021231Y-89482621D01*
X76986983Y-89508901D01*
X76914511Y-89564511D01*
X76909762Y-89570700D01*
X76842980Y-89657732D01*
X76827874Y-89677418D01*
X76773412Y-89808901D01*
X76772395Y-89816627D01*
X76772394Y-89816630D01*
X76759394Y-89915377D01*
X76754836Y-89950000D01*
X76129247Y-89950000D01*
X76129247Y-88629717D01*
X76148138Y-88565381D01*
X76198813Y-88521471D01*
X76248247Y-88510717D01*
X79158966Y-88510717D01*
X79182182Y-88513004D01*
X79182884Y-88513144D01*
X79182887Y-88513144D01*
X79194374Y-88515429D01*
X79195265Y-88515252D01*
X79206448Y-88514685D01*
X79551638Y-88497179D01*
X79551642Y-88497179D01*
X79554651Y-88497026D01*
X79911232Y-88442401D01*
X79999624Y-88419515D01*
X80257531Y-88352739D01*
X80257539Y-88352737D01*
X80260457Y-88351981D01*
X80265806Y-88350000D01*
X82454836Y-88350000D01*
X82473412Y-88491099D01*
X82527874Y-88622582D01*
X82532620Y-88628767D01*
X82532621Y-88628769D01*
X82608280Y-88727368D01*
X82614511Y-88735489D01*
X82620700Y-88740238D01*
X82721231Y-88817379D01*
X82721233Y-88817380D01*
X82727418Y-88822126D01*
X82858901Y-88876588D01*
X82866627Y-88877605D01*
X82866630Y-88877606D01*
X82992268Y-88894146D01*
X83000000Y-88895164D01*
X83007732Y-88894146D01*
X83133370Y-88877606D01*
X83133373Y-88877605D01*
X83141099Y-88876588D01*
X83272582Y-88822126D01*
X83278767Y-88817380D01*
X83278769Y-88817379D01*
X83379300Y-88740238D01*
X83385489Y-88735489D01*
X83391720Y-88727368D01*
X83467379Y-88628769D01*
X83467380Y-88628767D01*
X83472126Y-88622582D01*
X83526588Y-88491099D01*
X83545164Y-88350000D01*
X83538044Y-88295918D01*
X83527606Y-88216630D01*
X83527605Y-88216627D01*
X83526588Y-88208901D01*
X83520515Y-88194238D01*
X83475110Y-88084623D01*
X83472126Y-88077418D01*
X83463544Y-88066233D01*
X83390238Y-87970700D01*
X83385489Y-87964511D01*
X83366578Y-87950000D01*
X83278769Y-87882621D01*
X83278767Y-87882620D01*
X83272582Y-87877874D01*
X83141099Y-87823412D01*
X83133373Y-87822395D01*
X83133370Y-87822394D01*
X83007732Y-87805854D01*
X83000000Y-87804836D01*
X82992268Y-87805854D01*
X82866630Y-87822394D01*
X82866627Y-87822395D01*
X82858901Y-87823412D01*
X82727418Y-87877874D01*
X82721233Y-87882620D01*
X82721231Y-87882621D01*
X82633422Y-87950000D01*
X82614511Y-87964511D01*
X82609762Y-87970700D01*
X82536457Y-88066233D01*
X82527874Y-88077418D01*
X82524890Y-88084623D01*
X82479486Y-88194238D01*
X82473412Y-88208901D01*
X82472395Y-88216627D01*
X82472394Y-88216630D01*
X82461956Y-88295918D01*
X82454836Y-88350000D01*
X80265806Y-88350000D01*
X80598743Y-88226694D01*
X80888375Y-88084623D01*
X80919913Y-88069153D01*
X80919915Y-88069152D01*
X80922618Y-88067826D01*
X80971123Y-88037593D01*
X81111653Y-87950000D01*
X81228758Y-87877008D01*
X81514024Y-87656197D01*
X81775486Y-87407659D01*
X81830010Y-87344146D01*
X82008495Y-87136237D01*
X82008499Y-87136231D01*
X82010463Y-87133944D01*
X82115209Y-86983452D01*
X82214825Y-86840330D01*
X82214829Y-86840323D01*
X82216543Y-86837861D01*
X82237558Y-86800000D01*
X82904836Y-86800000D01*
X82905854Y-86807732D01*
X82910146Y-86840330D01*
X82923412Y-86941099D01*
X82977874Y-87072582D01*
X83064511Y-87185489D01*
X83070700Y-87190238D01*
X83171231Y-87267379D01*
X83171233Y-87267380D01*
X83177418Y-87272126D01*
X83308901Y-87326588D01*
X83316627Y-87327605D01*
X83316630Y-87327606D01*
X83442268Y-87344146D01*
X83450000Y-87345164D01*
X83457732Y-87344146D01*
X83583370Y-87327606D01*
X83583373Y-87327605D01*
X83591099Y-87326588D01*
X83722582Y-87272126D01*
X83728767Y-87267380D01*
X83728769Y-87267379D01*
X83829300Y-87190238D01*
X83835489Y-87185489D01*
X83922126Y-87072582D01*
X83976588Y-86941099D01*
X83989855Y-86840330D01*
X83994146Y-86807732D01*
X83995164Y-86800000D01*
X83976588Y-86658901D01*
X83922126Y-86527418D01*
X83835489Y-86414511D01*
X83809758Y-86394767D01*
X83728769Y-86332621D01*
X83728767Y-86332620D01*
X83722582Y-86327874D01*
X83591099Y-86273412D01*
X83583373Y-86272395D01*
X83583370Y-86272394D01*
X83457732Y-86255854D01*
X83450000Y-86254836D01*
X83442268Y-86255854D01*
X83316630Y-86272394D01*
X83316627Y-86272395D01*
X83308901Y-86273412D01*
X83177418Y-86327874D01*
X83171233Y-86332620D01*
X83171231Y-86332621D01*
X83090242Y-86394767D01*
X83064511Y-86414511D01*
X82977874Y-86527418D01*
X82923412Y-86658901D01*
X82904836Y-86800000D01*
X82237558Y-86800000D01*
X82391611Y-86522449D01*
X82506016Y-86255854D01*
X82532681Y-86193717D01*
X82532684Y-86193710D01*
X82533871Y-86190943D01*
X82641864Y-85846747D01*
X82714481Y-85493390D01*
X82724470Y-85395164D01*
X82732379Y-85317379D01*
X82750976Y-85134500D01*
X82750976Y-84850000D01*
X84104836Y-84850000D01*
X84123412Y-84991099D01*
X84177874Y-85122582D01*
X84182620Y-85128767D01*
X84182621Y-85128769D01*
X84258280Y-85227368D01*
X84264511Y-85235489D01*
X84270700Y-85240238D01*
X84371231Y-85317379D01*
X84371233Y-85317380D01*
X84377418Y-85322126D01*
X84508901Y-85376588D01*
X84516627Y-85377605D01*
X84516630Y-85377606D01*
X84642268Y-85394146D01*
X84650000Y-85395164D01*
X84657732Y-85394146D01*
X84783370Y-85377606D01*
X84783373Y-85377605D01*
X84791099Y-85376588D01*
X84922582Y-85322126D01*
X84928767Y-85317380D01*
X84928769Y-85317379D01*
X85029300Y-85240238D01*
X85035489Y-85235489D01*
X85041720Y-85227368D01*
X85117379Y-85128769D01*
X85117380Y-85128767D01*
X85122126Y-85122582D01*
X85176588Y-84991099D01*
X85195164Y-84850000D01*
X85176588Y-84708901D01*
X85122126Y-84577418D01*
X85035489Y-84464511D01*
X84970796Y-84414870D01*
X84928769Y-84382621D01*
X84928767Y-84382620D01*
X84922582Y-84377874D01*
X84791099Y-84323412D01*
X84783373Y-84322395D01*
X84783370Y-84322394D01*
X84657732Y-84305854D01*
X84650000Y-84304836D01*
X84642268Y-84305854D01*
X84516630Y-84322394D01*
X84516627Y-84322395D01*
X84508901Y-84323412D01*
X84377418Y-84377874D01*
X84371233Y-84382620D01*
X84371231Y-84382621D01*
X84329204Y-84414870D01*
X84264511Y-84464511D01*
X84177874Y-84577418D01*
X84123412Y-84708901D01*
X84104836Y-84850000D01*
X82750976Y-84850000D01*
X82750976Y-84773760D01*
X82714481Y-84414870D01*
X82641864Y-84061513D01*
X82533871Y-83717317D01*
X82391611Y-83385811D01*
X82216543Y-83070399D01*
X82010463Y-82774316D01*
X81775486Y-82500601D01*
X81514024Y-82252063D01*
X81228758Y-82031252D01*
X81018183Y-81900000D01*
X83154836Y-81900000D01*
X83155854Y-81907732D01*
X83172116Y-82031252D01*
X83173412Y-82041099D01*
X83227874Y-82172582D01*
X83232620Y-82178767D01*
X83232621Y-82178769D01*
X83288862Y-82252063D01*
X83314511Y-82285489D01*
X83320700Y-82290238D01*
X83421231Y-82367379D01*
X83421233Y-82367380D01*
X83427418Y-82372126D01*
X83558901Y-82426588D01*
X83566627Y-82427605D01*
X83566630Y-82427606D01*
X83692268Y-82444146D01*
X83700000Y-82445164D01*
X83707732Y-82444146D01*
X83833370Y-82427606D01*
X83833373Y-82427605D01*
X83841099Y-82426588D01*
X83972582Y-82372126D01*
X83978767Y-82367380D01*
X83978769Y-82367379D01*
X84079300Y-82290238D01*
X84085489Y-82285489D01*
X84111138Y-82252063D01*
X84167379Y-82178769D01*
X84167380Y-82178767D01*
X84172126Y-82172582D01*
X84226588Y-82041099D01*
X84227885Y-82031252D01*
X84244146Y-81907732D01*
X84245164Y-81900000D01*
X84226588Y-81758901D01*
X84172126Y-81627418D01*
X84085489Y-81514511D01*
X84077368Y-81508280D01*
X83978769Y-81432621D01*
X83978767Y-81432620D01*
X83972582Y-81427874D01*
X83841099Y-81373412D01*
X83833373Y-81372395D01*
X83833370Y-81372394D01*
X83707732Y-81355854D01*
X83700000Y-81354836D01*
X83692268Y-81355854D01*
X83566630Y-81372394D01*
X83566627Y-81372395D01*
X83558901Y-81373412D01*
X83427418Y-81427874D01*
X83421233Y-81432620D01*
X83421231Y-81432621D01*
X83322632Y-81508280D01*
X83314511Y-81514511D01*
X83227874Y-81627418D01*
X83173412Y-81758901D01*
X83154836Y-81900000D01*
X81018183Y-81900000D01*
X80983744Y-81878534D01*
X80925174Y-81842027D01*
X80925172Y-81842026D01*
X80922618Y-81840434D01*
X80915514Y-81836949D01*
X80601450Y-81682894D01*
X80598743Y-81681566D01*
X80260457Y-81556279D01*
X80257539Y-81555523D01*
X80257531Y-81555521D01*
X79914156Y-81466616D01*
X79914155Y-81466616D01*
X79911232Y-81465859D01*
X79554651Y-81411234D01*
X79551642Y-81411081D01*
X79551638Y-81411081D01*
X79455403Y-81406201D01*
X79195325Y-81393011D01*
X79194374Y-81392822D01*
X79182882Y-81395108D01*
X79182182Y-81395247D01*
X79158966Y-81397534D01*
X76248247Y-81397534D01*
X76183911Y-81378643D01*
X76140001Y-81327968D01*
X76129247Y-81278534D01*
X76129247Y-80200000D01*
X86354836Y-80200000D01*
X86373412Y-80341099D01*
X86427874Y-80472582D01*
X86514511Y-80585489D01*
X86520700Y-80590238D01*
X86621231Y-80667379D01*
X86621233Y-80667380D01*
X86627418Y-80672126D01*
X86758901Y-80726588D01*
X86766627Y-80727605D01*
X86766630Y-80727606D01*
X86892268Y-80744146D01*
X86900000Y-80745164D01*
X86907732Y-80744146D01*
X87033370Y-80727606D01*
X87033373Y-80727605D01*
X87041099Y-80726588D01*
X87172582Y-80672126D01*
X87178767Y-80667380D01*
X87178769Y-80667379D01*
X87279300Y-80590238D01*
X87285489Y-80585489D01*
X87372126Y-80472582D01*
X87426588Y-80341099D01*
X87445164Y-80200000D01*
X87435499Y-80126588D01*
X87427606Y-80066630D01*
X87427605Y-80066627D01*
X87426588Y-80058901D01*
X87414962Y-80030832D01*
X87375110Y-79934623D01*
X87372126Y-79927418D01*
X87349288Y-79897654D01*
X87290238Y-79820700D01*
X87285489Y-79814511D01*
X87192566Y-79743208D01*
X87178769Y-79732621D01*
X87178767Y-79732620D01*
X87172582Y-79727874D01*
X87081930Y-79690325D01*
X87048301Y-79676395D01*
X87048300Y-79676395D01*
X87041099Y-79673412D01*
X87033373Y-79672395D01*
X87033370Y-79672394D01*
X86907732Y-79655854D01*
X86900000Y-79654836D01*
X86892268Y-79655854D01*
X86766630Y-79672394D01*
X86766627Y-79672395D01*
X86758901Y-79673412D01*
X86751700Y-79676395D01*
X86751699Y-79676395D01*
X86718070Y-79690325D01*
X86627418Y-79727874D01*
X86621233Y-79732620D01*
X86621231Y-79732621D01*
X86607434Y-79743208D01*
X86514511Y-79814511D01*
X86509762Y-79820700D01*
X86450713Y-79897654D01*
X86427874Y-79927418D01*
X86424890Y-79934623D01*
X86385039Y-80030832D01*
X86373412Y-80058901D01*
X86372395Y-80066627D01*
X86372394Y-80066630D01*
X86364501Y-80126588D01*
X86354836Y-80200000D01*
X76129247Y-80200000D01*
X76129247Y-79600000D01*
X77254836Y-79600000D01*
X77255854Y-79607732D01*
X77272327Y-79732856D01*
X77273412Y-79741099D01*
X77327874Y-79872582D01*
X77332620Y-79878767D01*
X77332621Y-79878769D01*
X77365204Y-79921231D01*
X77414511Y-79985489D01*
X77420700Y-79990238D01*
X77521231Y-80067379D01*
X77521233Y-80067380D01*
X77527418Y-80072126D01*
X77658901Y-80126588D01*
X77666627Y-80127605D01*
X77666630Y-80127606D01*
X77792268Y-80144146D01*
X77800000Y-80145164D01*
X77807732Y-80144146D01*
X77933370Y-80127606D01*
X77933373Y-80127605D01*
X77941099Y-80126588D01*
X78072582Y-80072126D01*
X78078767Y-80067380D01*
X78078769Y-80067379D01*
X78179300Y-79990238D01*
X78185489Y-79985489D01*
X78234796Y-79921231D01*
X78267379Y-79878769D01*
X78267380Y-79878767D01*
X78272126Y-79872582D01*
X78326588Y-79741099D01*
X78327674Y-79732856D01*
X78344146Y-79607732D01*
X78345164Y-79600000D01*
X78342102Y-79576739D01*
X78327606Y-79466630D01*
X78327605Y-79466627D01*
X78326588Y-79458901D01*
X78272126Y-79327418D01*
X78266918Y-79320630D01*
X78190238Y-79220700D01*
X78185489Y-79214511D01*
X78150986Y-79188036D01*
X78078769Y-79132621D01*
X78078767Y-79132620D01*
X78072582Y-79127874D01*
X77981930Y-79090325D01*
X77948301Y-79076395D01*
X77948300Y-79076395D01*
X77941099Y-79073412D01*
X77933373Y-79072395D01*
X77933370Y-79072394D01*
X77807732Y-79055854D01*
X77800000Y-79054836D01*
X77792268Y-79055854D01*
X77666630Y-79072394D01*
X77666627Y-79072395D01*
X77658901Y-79073412D01*
X77651700Y-79076395D01*
X77651699Y-79076395D01*
X77618070Y-79090325D01*
X77527418Y-79127874D01*
X77521233Y-79132620D01*
X77521231Y-79132621D01*
X77449014Y-79188036D01*
X77414511Y-79214511D01*
X77409762Y-79220700D01*
X77333083Y-79320630D01*
X77327874Y-79327418D01*
X77273412Y-79458901D01*
X77272395Y-79466627D01*
X77272394Y-79466630D01*
X77257898Y-79576739D01*
X77254836Y-79600000D01*
X76129247Y-79600000D01*
X76129247Y-76300000D01*
X77804836Y-76300000D01*
X77805854Y-76307732D01*
X77819912Y-76414511D01*
X77823412Y-76441099D01*
X77877874Y-76572582D01*
X77964511Y-76685489D01*
X77970700Y-76690238D01*
X78071231Y-76767379D01*
X78071233Y-76767380D01*
X78077418Y-76772126D01*
X78208901Y-76826588D01*
X78216627Y-76827605D01*
X78216630Y-76827606D01*
X78342268Y-76844146D01*
X78350000Y-76845164D01*
X78357732Y-76844146D01*
X78483370Y-76827606D01*
X78483373Y-76827605D01*
X78491099Y-76826588D01*
X78622582Y-76772126D01*
X78628767Y-76767380D01*
X78628769Y-76767379D01*
X78729300Y-76690238D01*
X78735489Y-76685489D01*
X78822126Y-76572582D01*
X78876588Y-76441099D01*
X78880089Y-76414511D01*
X78894146Y-76307732D01*
X78895164Y-76300000D01*
X80054836Y-76300000D01*
X80055854Y-76307732D01*
X80069912Y-76414511D01*
X80073412Y-76441099D01*
X80127874Y-76572582D01*
X80214511Y-76685489D01*
X80220700Y-76690238D01*
X80321231Y-76767379D01*
X80321233Y-76767380D01*
X80327418Y-76772126D01*
X80458901Y-76826588D01*
X80466627Y-76827605D01*
X80466630Y-76827606D01*
X80592268Y-76844146D01*
X80600000Y-76845164D01*
X80607732Y-76844146D01*
X80733370Y-76827606D01*
X80733373Y-76827605D01*
X80741099Y-76826588D01*
X80805288Y-76800000D01*
X84004836Y-76800000D01*
X84023412Y-76941099D01*
X84077874Y-77072582D01*
X84164511Y-77185489D01*
X84170700Y-77190238D01*
X84271231Y-77267379D01*
X84271233Y-77267380D01*
X84277418Y-77272126D01*
X84408901Y-77326588D01*
X84416627Y-77327605D01*
X84416630Y-77327606D01*
X84542268Y-77344146D01*
X84550000Y-77345164D01*
X84557732Y-77344146D01*
X84683370Y-77327606D01*
X84683373Y-77327605D01*
X84691099Y-77326588D01*
X84822582Y-77272126D01*
X84828767Y-77267380D01*
X84828769Y-77267379D01*
X84929300Y-77190238D01*
X84935489Y-77185489D01*
X85022126Y-77072582D01*
X85076588Y-76941099D01*
X85095164Y-76800000D01*
X85080714Y-76690238D01*
X85077606Y-76666630D01*
X85077605Y-76666627D01*
X85076588Y-76658901D01*
X85022126Y-76527418D01*
X84935489Y-76414511D01*
X84927368Y-76408280D01*
X84828769Y-76332621D01*
X84828767Y-76332620D01*
X84822582Y-76327874D01*
X84691099Y-76273412D01*
X84683373Y-76272395D01*
X84683370Y-76272394D01*
X84557732Y-76255854D01*
X84550000Y-76254836D01*
X84542268Y-76255854D01*
X84416630Y-76272394D01*
X84416627Y-76272395D01*
X84408901Y-76273412D01*
X84277418Y-76327874D01*
X84271233Y-76332620D01*
X84271231Y-76332621D01*
X84172632Y-76408280D01*
X84164511Y-76414511D01*
X84077874Y-76527418D01*
X84023412Y-76658901D01*
X84022395Y-76666627D01*
X84022394Y-76666630D01*
X84019286Y-76690238D01*
X84004836Y-76800000D01*
X80805288Y-76800000D01*
X80872582Y-76772126D01*
X80878767Y-76767380D01*
X80878769Y-76767379D01*
X80979300Y-76690238D01*
X80985489Y-76685489D01*
X81072126Y-76572582D01*
X81126588Y-76441099D01*
X81130089Y-76414511D01*
X81144146Y-76307732D01*
X81145164Y-76300000D01*
X81126588Y-76158901D01*
X81072126Y-76027418D01*
X81046596Y-75994146D01*
X80990238Y-75920700D01*
X80985489Y-75914511D01*
X80977368Y-75908280D01*
X80878769Y-75832621D01*
X80878767Y-75832620D01*
X80872582Y-75827874D01*
X80741099Y-75773412D01*
X80733373Y-75772395D01*
X80733370Y-75772394D01*
X80607732Y-75755854D01*
X80600000Y-75754836D01*
X80592268Y-75755854D01*
X80466630Y-75772394D01*
X80466627Y-75772395D01*
X80458901Y-75773412D01*
X80327418Y-75827874D01*
X80321233Y-75832620D01*
X80321231Y-75832621D01*
X80222632Y-75908280D01*
X80214511Y-75914511D01*
X80209762Y-75920700D01*
X80153405Y-75994146D01*
X80127874Y-76027418D01*
X80073412Y-76158901D01*
X80054836Y-76300000D01*
X78895164Y-76300000D01*
X78876588Y-76158901D01*
X78822126Y-76027418D01*
X78796596Y-75994146D01*
X78740238Y-75920700D01*
X78735489Y-75914511D01*
X78727368Y-75908280D01*
X78628769Y-75832621D01*
X78628767Y-75832620D01*
X78622582Y-75827874D01*
X78491099Y-75773412D01*
X78483373Y-75772395D01*
X78483370Y-75772394D01*
X78357732Y-75755854D01*
X78350000Y-75754836D01*
X78342268Y-75755854D01*
X78216630Y-75772394D01*
X78216627Y-75772395D01*
X78208901Y-75773412D01*
X78077418Y-75827874D01*
X78071233Y-75832620D01*
X78071231Y-75832621D01*
X77972632Y-75908280D01*
X77964511Y-75914511D01*
X77959762Y-75920700D01*
X77903405Y-75994146D01*
X77877874Y-76027418D01*
X77823412Y-76158901D01*
X77804836Y-76300000D01*
X76129247Y-76300000D01*
X76129247Y-75450000D01*
X82754836Y-75450000D01*
X82755854Y-75457732D01*
X82771636Y-75577606D01*
X82773412Y-75591099D01*
X82827874Y-75722582D01*
X82832620Y-75728767D01*
X82832621Y-75728769D01*
X82866096Y-75772394D01*
X82914511Y-75835489D01*
X82920700Y-75840238D01*
X83021231Y-75917379D01*
X83021233Y-75917380D01*
X83027418Y-75922126D01*
X83158901Y-75976588D01*
X83166627Y-75977605D01*
X83166630Y-75977606D01*
X83292268Y-75994146D01*
X83300000Y-75995164D01*
X83307732Y-75994146D01*
X83433370Y-75977606D01*
X83433373Y-75977605D01*
X83441099Y-75976588D01*
X83572582Y-75922126D01*
X83578767Y-75917380D01*
X83578769Y-75917379D01*
X83679300Y-75840238D01*
X83685489Y-75835489D01*
X83733904Y-75772394D01*
X83767379Y-75728769D01*
X83767380Y-75728767D01*
X83772126Y-75722582D01*
X83826588Y-75591099D01*
X83828365Y-75577606D01*
X83844146Y-75457732D01*
X83845164Y-75450000D01*
X83830130Y-75335803D01*
X83838859Y-75279830D01*
X83836365Y-75279065D01*
X83791946Y-75225268D01*
X83780776Y-75198301D01*
X83772126Y-75177418D01*
X83761982Y-75164197D01*
X83690238Y-75070700D01*
X83685489Y-75064511D01*
X83666578Y-75050000D01*
X84004836Y-75050000D01*
X84005854Y-75057732D01*
X84005854Y-75057734D01*
X84019870Y-75164197D01*
X84011141Y-75220170D01*
X84013635Y-75220935D01*
X84058054Y-75274732D01*
X84077874Y-75322582D01*
X84082620Y-75328767D01*
X84082621Y-75328769D01*
X84158280Y-75427368D01*
X84164511Y-75435489D01*
X84170700Y-75440238D01*
X84271231Y-75517379D01*
X84271233Y-75517380D01*
X84277418Y-75522126D01*
X84408901Y-75576588D01*
X84416627Y-75577605D01*
X84416630Y-75577606D01*
X84542268Y-75594146D01*
X84550000Y-75595164D01*
X84557732Y-75594146D01*
X84683370Y-75577606D01*
X84683373Y-75577605D01*
X84691099Y-75576588D01*
X84822582Y-75522126D01*
X84828767Y-75517380D01*
X84828769Y-75517379D01*
X84929300Y-75440238D01*
X84935489Y-75435489D01*
X84941720Y-75427368D01*
X85017379Y-75328769D01*
X85017380Y-75328767D01*
X85022126Y-75322582D01*
X85076588Y-75191099D01*
X85078390Y-75177418D01*
X85094146Y-75057732D01*
X85095164Y-75050000D01*
X85092102Y-75026739D01*
X85077606Y-74916630D01*
X85077605Y-74916627D01*
X85076588Y-74908901D01*
X85022126Y-74777418D01*
X84935489Y-74664511D01*
X84927368Y-74658280D01*
X84828769Y-74582621D01*
X84828767Y-74582620D01*
X84822582Y-74577874D01*
X84691099Y-74523412D01*
X84683373Y-74522395D01*
X84683370Y-74522394D01*
X84557732Y-74505854D01*
X84550000Y-74504836D01*
X84542268Y-74505854D01*
X84416630Y-74522394D01*
X84416627Y-74522395D01*
X84408901Y-74523412D01*
X84277418Y-74577874D01*
X84271233Y-74582620D01*
X84271231Y-74582621D01*
X84172632Y-74658280D01*
X84164511Y-74664511D01*
X84077874Y-74777418D01*
X84023412Y-74908901D01*
X84022395Y-74916627D01*
X84022394Y-74916630D01*
X84007898Y-75026739D01*
X84004836Y-75050000D01*
X83666578Y-75050000D01*
X83578769Y-74982621D01*
X83578767Y-74982620D01*
X83572582Y-74977874D01*
X83441099Y-74923412D01*
X83433373Y-74922395D01*
X83433370Y-74922394D01*
X83307732Y-74905854D01*
X83300000Y-74904836D01*
X83292268Y-74905854D01*
X83166630Y-74922394D01*
X83166627Y-74922395D01*
X83158901Y-74923412D01*
X83027418Y-74977874D01*
X83021233Y-74982620D01*
X83021231Y-74982621D01*
X82933422Y-75050000D01*
X82914511Y-75064511D01*
X82909762Y-75070700D01*
X82838019Y-75164197D01*
X82827874Y-75177418D01*
X82773412Y-75308901D01*
X82772395Y-75316627D01*
X82772394Y-75316630D01*
X82770796Y-75328769D01*
X82754836Y-75450000D01*
X76129247Y-75450000D01*
X76129247Y-71850000D01*
X76754836Y-71850000D01*
X76773412Y-71991099D01*
X76827874Y-72122582D01*
X76914511Y-72235489D01*
X76920700Y-72240238D01*
X77021231Y-72317379D01*
X77021233Y-72317380D01*
X77027418Y-72322126D01*
X77158901Y-72376588D01*
X77166627Y-72377605D01*
X77166630Y-72377606D01*
X77292268Y-72394146D01*
X77300000Y-72395164D01*
X77307732Y-72394146D01*
X77433370Y-72377606D01*
X77433373Y-72377605D01*
X77441099Y-72376588D01*
X77572582Y-72322126D01*
X77578767Y-72317380D01*
X77578769Y-72317379D01*
X77679300Y-72240238D01*
X77685489Y-72235489D01*
X77772126Y-72122582D01*
X77826588Y-71991099D01*
X77845164Y-71850000D01*
X77826588Y-71708901D01*
X77772126Y-71577418D01*
X77685489Y-71464511D01*
X77677368Y-71458280D01*
X77578769Y-71382621D01*
X77578767Y-71382620D01*
X77572582Y-71377874D01*
X77441099Y-71323412D01*
X77433373Y-71322395D01*
X77433370Y-71322394D01*
X77307732Y-71305854D01*
X77300000Y-71304836D01*
X77292268Y-71305854D01*
X77166630Y-71322394D01*
X77166627Y-71322395D01*
X77158901Y-71323412D01*
X77027418Y-71377874D01*
X77021233Y-71382620D01*
X77021231Y-71382621D01*
X76922632Y-71458280D01*
X76914511Y-71464511D01*
X76827874Y-71577418D01*
X76773412Y-71708901D01*
X76754836Y-71850000D01*
X76129247Y-71850000D01*
X76129247Y-69100000D01*
X82154836Y-69100000D01*
X82173412Y-69241099D01*
X82227874Y-69372582D01*
X82314511Y-69485489D01*
X82320700Y-69490238D01*
X82421231Y-69567379D01*
X82421233Y-69567380D01*
X82427418Y-69572126D01*
X82434621Y-69575110D01*
X82434627Y-69575113D01*
X82476072Y-69592280D01*
X82528281Y-69634353D01*
X82549456Y-69697974D01*
X82532873Y-69762944D01*
X82502975Y-69796630D01*
X82414511Y-69864511D01*
X82327874Y-69977418D01*
X82273412Y-70108901D01*
X82254836Y-70250000D01*
X82273412Y-70391099D01*
X82327874Y-70522582D01*
X82414511Y-70635489D01*
X82420700Y-70640238D01*
X82521231Y-70717379D01*
X82521233Y-70717380D01*
X82527418Y-70722126D01*
X82658901Y-70776588D01*
X82666627Y-70777605D01*
X82666630Y-70777606D01*
X82792268Y-70794146D01*
X82800000Y-70795164D01*
X82807732Y-70794146D01*
X82933370Y-70777606D01*
X82933373Y-70777605D01*
X82941099Y-70776588D01*
X83072582Y-70722126D01*
X83078767Y-70717380D01*
X83078769Y-70717379D01*
X83179300Y-70640238D01*
X83185489Y-70635489D01*
X83272126Y-70522582D01*
X83326588Y-70391099D01*
X83345164Y-70250000D01*
X83326588Y-70108901D01*
X83272126Y-69977418D01*
X83185489Y-69864511D01*
X83177368Y-69858280D01*
X83078769Y-69782621D01*
X83078767Y-69782620D01*
X83072582Y-69777874D01*
X83065379Y-69774890D01*
X83065373Y-69774887D01*
X83023928Y-69757720D01*
X82971719Y-69715647D01*
X82950544Y-69652026D01*
X82967127Y-69587056D01*
X82997025Y-69553370D01*
X83079300Y-69490238D01*
X83085489Y-69485489D01*
X83172126Y-69372582D01*
X83226588Y-69241099D01*
X83245164Y-69100000D01*
X83226588Y-68958901D01*
X83172126Y-68827418D01*
X83085489Y-68714511D01*
X83077368Y-68708280D01*
X82978769Y-68632621D01*
X82978767Y-68632620D01*
X82972582Y-68627874D01*
X82841099Y-68573412D01*
X82833373Y-68572395D01*
X82833370Y-68572394D01*
X82707732Y-68555854D01*
X82700000Y-68554836D01*
X82692268Y-68555854D01*
X82566630Y-68572394D01*
X82566627Y-68572395D01*
X82558901Y-68573412D01*
X82427418Y-68627874D01*
X82421233Y-68632620D01*
X82421231Y-68632621D01*
X82322632Y-68708280D01*
X82314511Y-68714511D01*
X82227874Y-68827418D01*
X82173412Y-68958901D01*
X82154836Y-69100000D01*
X76129247Y-69100000D01*
X76129247Y-67950000D01*
X78000000Y-67950000D01*
X79800000Y-67950000D01*
X79800000Y-67400000D01*
X83254836Y-67400000D01*
X83273412Y-67541099D01*
X83327874Y-67672582D01*
X83414511Y-67785489D01*
X83420700Y-67790238D01*
X83521231Y-67867379D01*
X83521233Y-67867380D01*
X83527418Y-67872126D01*
X83658901Y-67926588D01*
X83666627Y-67927605D01*
X83666630Y-67927606D01*
X83792268Y-67944146D01*
X83800000Y-67945164D01*
X83807732Y-67944146D01*
X83933370Y-67927606D01*
X83933373Y-67927605D01*
X83941099Y-67926588D01*
X84072582Y-67872126D01*
X84078767Y-67867380D01*
X84078769Y-67867379D01*
X84179300Y-67790238D01*
X84185489Y-67785489D01*
X84272126Y-67672582D01*
X84326588Y-67541099D01*
X84345164Y-67400000D01*
X84326588Y-67258901D01*
X84272126Y-67127418D01*
X84185489Y-67014511D01*
X84177368Y-67008280D01*
X84078769Y-66932621D01*
X84078767Y-66932620D01*
X84072582Y-66927874D01*
X83941099Y-66873412D01*
X83933373Y-66872395D01*
X83933370Y-66872394D01*
X83807732Y-66855854D01*
X83800000Y-66854836D01*
X83792268Y-66855854D01*
X83666630Y-66872394D01*
X83666627Y-66872395D01*
X83658901Y-66873412D01*
X83527418Y-66927874D01*
X83521233Y-66932620D01*
X83521231Y-66932621D01*
X83422632Y-67008280D01*
X83414511Y-67014511D01*
X83327874Y-67127418D01*
X83273412Y-67258901D01*
X83254836Y-67400000D01*
X79800000Y-67400000D01*
X79800000Y-66150000D01*
X78000000Y-66150000D01*
X78000000Y-67950000D01*
X76129247Y-67950000D01*
X76129247Y-65300000D01*
X82104836Y-65300000D01*
X82123412Y-65441099D01*
X82177874Y-65572582D01*
X82264511Y-65685489D01*
X82270700Y-65690238D01*
X82371231Y-65767379D01*
X82371233Y-65767380D01*
X82377418Y-65772126D01*
X82508901Y-65826588D01*
X82516627Y-65827605D01*
X82516630Y-65827606D01*
X82642268Y-65844146D01*
X82650000Y-65845164D01*
X82657732Y-65844146D01*
X82783370Y-65827606D01*
X82783373Y-65827605D01*
X82791099Y-65826588D01*
X82922582Y-65772126D01*
X82928767Y-65767380D01*
X82928769Y-65767379D01*
X83029300Y-65690238D01*
X83035489Y-65685489D01*
X83122126Y-65572582D01*
X83176588Y-65441099D01*
X83195164Y-65300000D01*
X83176588Y-65158901D01*
X83122126Y-65027418D01*
X83035489Y-64914511D01*
X83027368Y-64908280D01*
X82928769Y-64832621D01*
X82928767Y-64832620D01*
X82922582Y-64827874D01*
X82791099Y-64773412D01*
X82783373Y-64772395D01*
X82783370Y-64772394D01*
X82657732Y-64755854D01*
X82650000Y-64754836D01*
X82642268Y-64755854D01*
X82516630Y-64772394D01*
X82516627Y-64772395D01*
X82508901Y-64773412D01*
X82377418Y-64827874D01*
X82371233Y-64832620D01*
X82371231Y-64832621D01*
X82272632Y-64908280D01*
X82264511Y-64914511D01*
X82177874Y-65027418D01*
X82123412Y-65158901D01*
X82104836Y-65300000D01*
X76129247Y-65300000D01*
X76129247Y-64413626D01*
X76148138Y-64349290D01*
X76198813Y-64305380D01*
X76248247Y-64294626D01*
X85381000Y-64294626D01*
X85445336Y-64313517D01*
G37*
%TD.AperFunction*%
%TD*%
%TA.AperFunction,Conductor*%
%TO.N,VDD*%
G36*
X125626548Y-84268891D02*
G01*
X125670458Y-84319566D01*
X125680001Y-84385935D01*
X125678780Y-84392932D01*
X125674278Y-84414840D01*
X125637783Y-84773730D01*
X125637783Y-85134470D01*
X125674278Y-85493360D01*
X125746894Y-85846716D01*
X125854886Y-86190913D01*
X125997146Y-86522419D01*
X126172213Y-86837832D01*
X126378292Y-87133915D01*
X126613267Y-87407631D01*
X126615455Y-87409711D01*
X126615458Y-87409714D01*
X126872539Y-87654089D01*
X126872547Y-87654096D01*
X126874729Y-87656170D01*
X126877112Y-87658015D01*
X126877116Y-87658018D01*
X127157604Y-87875135D01*
X127157610Y-87875139D01*
X127159992Y-87876983D01*
X127264731Y-87942268D01*
X127463561Y-88066201D01*
X127463569Y-88066205D01*
X127466132Y-88067803D01*
X127468849Y-88069136D01*
X127468853Y-88069138D01*
X127787296Y-88225344D01*
X127787301Y-88225346D01*
X127790006Y-88226673D01*
X128128290Y-88351963D01*
X128477514Y-88442385D01*
X128834095Y-88497014D01*
X128837103Y-88497167D01*
X128837107Y-88497167D01*
X128943460Y-88502561D01*
X129193421Y-88515240D01*
X129194372Y-88515429D01*
X129205860Y-88513144D01*
X129205861Y-88513144D01*
X129206569Y-88513003D01*
X129229784Y-88510717D01*
X130131000Y-88510717D01*
X130195336Y-88529608D01*
X130239246Y-88580283D01*
X130250000Y-88629717D01*
X130250000Y-102131000D01*
X130231109Y-102195336D01*
X130180434Y-102239246D01*
X130131000Y-102250000D01*
X124619000Y-102250000D01*
X124554664Y-102231109D01*
X124510754Y-102180434D01*
X124500000Y-102131000D01*
X124500000Y-98050000D01*
X124954836Y-98050000D01*
X124955854Y-98057732D01*
X124969912Y-98164511D01*
X124973412Y-98191099D01*
X125027874Y-98322582D01*
X125032620Y-98328767D01*
X125032621Y-98328769D01*
X125071387Y-98379289D01*
X125114511Y-98435489D01*
X125120700Y-98440238D01*
X125221231Y-98517379D01*
X125221233Y-98517380D01*
X125227418Y-98522126D01*
X125273223Y-98541099D01*
X125349230Y-98572582D01*
X125358901Y-98576588D01*
X125366627Y-98577605D01*
X125366630Y-98577606D01*
X125492268Y-98594146D01*
X125500000Y-98595164D01*
X125507732Y-98594146D01*
X125633370Y-98577606D01*
X125633373Y-98577605D01*
X125641099Y-98576588D01*
X125650771Y-98572582D01*
X125726777Y-98541099D01*
X125772582Y-98522126D01*
X125778767Y-98517380D01*
X125778769Y-98517379D01*
X125879300Y-98440238D01*
X125885489Y-98435489D01*
X125928613Y-98379289D01*
X125967379Y-98328769D01*
X125967380Y-98328767D01*
X125972126Y-98322582D01*
X126026588Y-98191099D01*
X126030089Y-98164511D01*
X126044146Y-98057732D01*
X126045164Y-98050000D01*
X126038581Y-98000000D01*
X126027606Y-97916630D01*
X126027605Y-97916627D01*
X126026588Y-97908901D01*
X125972126Y-97777418D01*
X125957918Y-97758901D01*
X125890238Y-97670700D01*
X125885489Y-97664511D01*
X125814139Y-97609762D01*
X125778769Y-97582621D01*
X125778767Y-97582620D01*
X125772582Y-97577874D01*
X125663332Y-97532621D01*
X125648301Y-97526395D01*
X125648300Y-97526395D01*
X125641099Y-97523412D01*
X125633373Y-97522395D01*
X125633370Y-97522394D01*
X125507732Y-97505854D01*
X125500000Y-97504836D01*
X125492268Y-97505854D01*
X125366630Y-97522394D01*
X125366627Y-97522395D01*
X125358901Y-97523412D01*
X125351700Y-97526395D01*
X125351699Y-97526395D01*
X125336668Y-97532621D01*
X125227418Y-97577874D01*
X125221233Y-97582620D01*
X125221231Y-97582621D01*
X125185861Y-97609762D01*
X125114511Y-97664511D01*
X125109762Y-97670700D01*
X125042083Y-97758901D01*
X125027874Y-97777418D01*
X124973412Y-97908901D01*
X124972395Y-97916627D01*
X124972394Y-97916630D01*
X124961419Y-98000000D01*
X124954836Y-98050000D01*
X124500000Y-98050000D01*
X124500000Y-97750000D01*
X124259772Y-97750000D01*
X124195436Y-97731109D01*
X124165363Y-97703443D01*
X124140238Y-97670700D01*
X124135489Y-97664511D01*
X124064139Y-97609762D01*
X124028769Y-97582621D01*
X124028767Y-97582620D01*
X124022582Y-97577874D01*
X123913332Y-97532621D01*
X123898301Y-97526395D01*
X123898300Y-97526395D01*
X123891099Y-97523412D01*
X123883373Y-97522395D01*
X123883370Y-97522394D01*
X123757732Y-97505854D01*
X123750000Y-97504836D01*
X123742268Y-97505854D01*
X123616630Y-97522394D01*
X123616627Y-97522395D01*
X123608901Y-97523412D01*
X123601700Y-97526395D01*
X123601699Y-97526395D01*
X123586668Y-97532621D01*
X123477418Y-97577874D01*
X123471233Y-97582620D01*
X123471231Y-97582621D01*
X123435861Y-97609762D01*
X123364511Y-97664511D01*
X123359762Y-97670700D01*
X123334637Y-97703443D01*
X123280484Y-97742984D01*
X123240228Y-97750000D01*
X114298138Y-97750000D01*
X114233802Y-97731109D01*
X114203729Y-97703443D01*
X114178605Y-97670700D01*
X114135489Y-97614511D01*
X114127368Y-97608280D01*
X114028769Y-97532621D01*
X114028767Y-97532620D01*
X114022582Y-97527874D01*
X113891099Y-97473412D01*
X113883373Y-97472395D01*
X113883370Y-97472394D01*
X113757732Y-97455854D01*
X113750000Y-97454836D01*
X113742268Y-97455854D01*
X113616630Y-97472394D01*
X113616627Y-97472395D01*
X113608901Y-97473412D01*
X113477418Y-97527874D01*
X113471233Y-97532620D01*
X113471231Y-97532621D01*
X113372632Y-97608280D01*
X113364511Y-97614511D01*
X113321396Y-97670700D01*
X113296271Y-97703443D01*
X113242118Y-97742984D01*
X113201862Y-97750000D01*
X112699989Y-97750000D01*
X112635653Y-97731109D01*
X112591743Y-97680434D01*
X112582200Y-97614065D01*
X112610055Y-97553072D01*
X112654450Y-97521058D01*
X112693613Y-97504836D01*
X112772582Y-97472126D01*
X112778767Y-97467380D01*
X112778769Y-97467379D01*
X112879300Y-97390238D01*
X112885489Y-97385489D01*
X112972126Y-97272582D01*
X113026588Y-97141099D01*
X113045164Y-97000000D01*
X113026588Y-96858901D01*
X112972126Y-96727418D01*
X112954799Y-96704836D01*
X112890238Y-96620700D01*
X112885489Y-96614511D01*
X112877368Y-96608280D01*
X112778769Y-96532621D01*
X112778767Y-96532620D01*
X112772582Y-96527874D01*
X112641099Y-96473412D01*
X112633373Y-96472395D01*
X112633370Y-96472394D01*
X112507732Y-96455854D01*
X112500000Y-96454836D01*
X112492268Y-96455854D01*
X112366630Y-96472394D01*
X112366627Y-96472395D01*
X112358901Y-96473412D01*
X112227418Y-96527874D01*
X112221233Y-96532620D01*
X112221231Y-96532621D01*
X112122632Y-96608280D01*
X112114511Y-96614511D01*
X112109762Y-96620700D01*
X112045202Y-96704836D01*
X112027874Y-96727418D01*
X111973412Y-96858901D01*
X111954836Y-97000000D01*
X111973412Y-97141099D01*
X112027874Y-97272582D01*
X112114511Y-97385489D01*
X112120700Y-97390238D01*
X112221231Y-97467379D01*
X112221233Y-97467380D01*
X112227418Y-97472126D01*
X112306387Y-97504836D01*
X112345550Y-97521058D01*
X112397760Y-97563132D01*
X112418935Y-97626753D01*
X112402353Y-97691722D01*
X112353277Y-97737413D01*
X112300011Y-97750000D01*
X105978959Y-97750000D01*
X105933420Y-97740942D01*
X105898301Y-97726395D01*
X105898300Y-97726395D01*
X105891099Y-97723412D01*
X105883373Y-97722395D01*
X105883370Y-97722394D01*
X105757732Y-97705854D01*
X105750000Y-97704836D01*
X105742268Y-97705854D01*
X105616630Y-97722394D01*
X105616627Y-97722395D01*
X105608901Y-97723412D01*
X105601700Y-97726395D01*
X105601699Y-97726395D01*
X105566580Y-97740942D01*
X105521041Y-97750000D01*
X103119000Y-97750000D01*
X103054664Y-97731109D01*
X103010754Y-97680434D01*
X103000000Y-97631000D01*
X103000000Y-91900000D01*
X110254836Y-91900000D01*
X110273412Y-92041099D01*
X110327874Y-92172582D01*
X110414511Y-92285489D01*
X110420700Y-92290238D01*
X110521231Y-92367379D01*
X110521233Y-92367380D01*
X110527418Y-92372126D01*
X110658901Y-92426588D01*
X110666627Y-92427605D01*
X110666630Y-92427606D01*
X110792268Y-92444146D01*
X110800000Y-92445164D01*
X110807732Y-92444146D01*
X110933370Y-92427606D01*
X110933373Y-92427605D01*
X110941099Y-92426588D01*
X111072582Y-92372126D01*
X111078767Y-92367380D01*
X111078769Y-92367379D01*
X111179300Y-92290238D01*
X111185489Y-92285489D01*
X111272126Y-92172582D01*
X111326588Y-92041099D01*
X111345164Y-91900000D01*
X111326588Y-91758901D01*
X111272126Y-91627418D01*
X111185489Y-91514511D01*
X111177368Y-91508280D01*
X111078769Y-91432621D01*
X111078767Y-91432620D01*
X111072582Y-91427874D01*
X110941099Y-91373412D01*
X110933373Y-91372395D01*
X110933370Y-91372394D01*
X110807732Y-91355854D01*
X110800000Y-91354836D01*
X110792268Y-91355854D01*
X110666630Y-91372394D01*
X110666627Y-91372395D01*
X110658901Y-91373412D01*
X110527418Y-91427874D01*
X110521233Y-91432620D01*
X110521231Y-91432621D01*
X110422632Y-91508280D01*
X110414511Y-91514511D01*
X110327874Y-91627418D01*
X110273412Y-91758901D01*
X110254836Y-91900000D01*
X103000000Y-91900000D01*
X103000000Y-91200000D01*
X107704836Y-91200000D01*
X107723412Y-91341099D01*
X107777874Y-91472582D01*
X107864511Y-91585489D01*
X107870700Y-91590238D01*
X107971231Y-91667379D01*
X107971233Y-91667380D01*
X107977418Y-91672126D01*
X108108901Y-91726588D01*
X108116627Y-91727605D01*
X108116630Y-91727606D01*
X108242268Y-91744146D01*
X108250000Y-91745164D01*
X108257732Y-91744146D01*
X108383370Y-91727606D01*
X108383373Y-91727605D01*
X108391099Y-91726588D01*
X108522582Y-91672126D01*
X108528767Y-91667380D01*
X108528769Y-91667379D01*
X108629300Y-91590238D01*
X108635489Y-91585489D01*
X108722126Y-91472582D01*
X108776588Y-91341099D01*
X108795164Y-91200000D01*
X108776588Y-91058901D01*
X108722126Y-90927418D01*
X108635489Y-90814511D01*
X108627368Y-90808280D01*
X108528769Y-90732621D01*
X108528767Y-90732620D01*
X108522582Y-90727874D01*
X108391099Y-90673412D01*
X108383373Y-90672395D01*
X108383370Y-90672394D01*
X108257732Y-90655854D01*
X108250000Y-90654836D01*
X108242268Y-90655854D01*
X108116630Y-90672394D01*
X108116627Y-90672395D01*
X108108901Y-90673412D01*
X107977418Y-90727874D01*
X107971233Y-90732620D01*
X107971231Y-90732621D01*
X107872632Y-90808280D01*
X107864511Y-90814511D01*
X107777874Y-90927418D01*
X107723412Y-91058901D01*
X107704836Y-91200000D01*
X103000000Y-91200000D01*
X103000000Y-90000000D01*
X126454836Y-90000000D01*
X126473412Y-90141099D01*
X126527874Y-90272582D01*
X126532620Y-90278767D01*
X126532621Y-90278769D01*
X126608280Y-90377368D01*
X126614511Y-90385489D01*
X126620700Y-90390238D01*
X126721231Y-90467379D01*
X126721233Y-90467380D01*
X126727418Y-90472126D01*
X126858901Y-90526588D01*
X126866627Y-90527605D01*
X126866630Y-90527606D01*
X126992268Y-90544146D01*
X127000000Y-90545164D01*
X127007732Y-90544146D01*
X127133370Y-90527606D01*
X127133373Y-90527605D01*
X127141099Y-90526588D01*
X127272582Y-90472126D01*
X127278767Y-90467380D01*
X127278769Y-90467379D01*
X127379300Y-90390238D01*
X127385489Y-90385489D01*
X127391720Y-90377368D01*
X127467379Y-90278769D01*
X127467380Y-90278767D01*
X127472126Y-90272582D01*
X127526588Y-90141099D01*
X127545164Y-90000000D01*
X127526588Y-89858901D01*
X127472126Y-89727418D01*
X127451088Y-89700000D01*
X127390238Y-89620700D01*
X127385489Y-89614511D01*
X127313017Y-89558901D01*
X127278769Y-89532621D01*
X127278767Y-89532620D01*
X127272582Y-89527874D01*
X127181930Y-89490325D01*
X127148301Y-89476395D01*
X127148300Y-89476395D01*
X127141099Y-89473412D01*
X127133373Y-89472395D01*
X127133370Y-89472394D01*
X127007732Y-89455854D01*
X127000000Y-89454836D01*
X126992268Y-89455854D01*
X126866630Y-89472394D01*
X126866627Y-89472395D01*
X126858901Y-89473412D01*
X126851700Y-89476395D01*
X126851699Y-89476395D01*
X126818070Y-89490325D01*
X126727418Y-89527874D01*
X126721233Y-89532620D01*
X126721231Y-89532621D01*
X126686983Y-89558901D01*
X126614511Y-89614511D01*
X126609762Y-89620700D01*
X126548913Y-89700000D01*
X126527874Y-89727418D01*
X126473412Y-89858901D01*
X126454836Y-90000000D01*
X103000000Y-90000000D01*
X103000000Y-87750000D01*
X104704836Y-87750000D01*
X104705854Y-87757732D01*
X104721554Y-87876983D01*
X104723412Y-87891099D01*
X104777874Y-88022582D01*
X104782620Y-88028767D01*
X104782621Y-88028769D01*
X104848414Y-88114511D01*
X104864511Y-88135489D01*
X104870700Y-88140238D01*
X104971231Y-88217379D01*
X104971233Y-88217380D01*
X104977418Y-88222126D01*
X105108901Y-88276588D01*
X105116627Y-88277605D01*
X105116630Y-88277606D01*
X105242268Y-88294146D01*
X105250000Y-88295164D01*
X105257732Y-88294146D01*
X105383370Y-88277606D01*
X105383373Y-88277605D01*
X105391099Y-88276588D01*
X105522582Y-88222126D01*
X105528767Y-88217380D01*
X105528769Y-88217379D01*
X105629300Y-88140238D01*
X105635489Y-88135489D01*
X105651586Y-88114511D01*
X105717379Y-88028769D01*
X105717380Y-88028767D01*
X105722126Y-88022582D01*
X105752190Y-87950000D01*
X107704836Y-87950000D01*
X107705854Y-87957732D01*
X107720806Y-88071302D01*
X107723412Y-88091099D01*
X107726395Y-88098300D01*
X107726395Y-88098301D01*
X107739235Y-88129300D01*
X107777874Y-88222582D01*
X107782620Y-88228767D01*
X107782621Y-88228769D01*
X107832787Y-88294146D01*
X107864511Y-88335489D01*
X107870700Y-88340238D01*
X107971231Y-88417379D01*
X107971233Y-88417380D01*
X107977418Y-88422126D01*
X108108901Y-88476588D01*
X108116627Y-88477605D01*
X108116630Y-88477606D01*
X108242268Y-88494146D01*
X108250000Y-88495164D01*
X108257732Y-88494146D01*
X108383370Y-88477606D01*
X108383373Y-88477605D01*
X108391099Y-88476588D01*
X108522582Y-88422126D01*
X108528767Y-88417380D01*
X108528769Y-88417379D01*
X108629300Y-88340238D01*
X108635489Y-88335489D01*
X108667213Y-88294146D01*
X108717379Y-88228769D01*
X108717380Y-88228767D01*
X108722126Y-88222582D01*
X108760765Y-88129300D01*
X108773605Y-88098301D01*
X108773605Y-88098300D01*
X108776588Y-88091099D01*
X108779195Y-88071302D01*
X108794146Y-87957732D01*
X108795164Y-87950000D01*
X113204336Y-87950000D01*
X113205354Y-87957732D01*
X113220306Y-88071302D01*
X113222912Y-88091099D01*
X113225895Y-88098300D01*
X113225895Y-88098301D01*
X113238735Y-88129300D01*
X113277374Y-88222582D01*
X113282120Y-88228767D01*
X113282121Y-88228769D01*
X113332287Y-88294146D01*
X113364011Y-88335489D01*
X113370200Y-88340238D01*
X113470731Y-88417379D01*
X113470733Y-88417380D01*
X113476918Y-88422126D01*
X113608401Y-88476588D01*
X113616127Y-88477605D01*
X113616130Y-88477606D01*
X113741768Y-88494146D01*
X113749500Y-88495164D01*
X113757232Y-88494146D01*
X113882870Y-88477606D01*
X113882873Y-88477605D01*
X113890599Y-88476588D01*
X114022082Y-88422126D01*
X114028267Y-88417380D01*
X114028269Y-88417379D01*
X114128800Y-88340238D01*
X114134989Y-88335489D01*
X114166713Y-88294146D01*
X114216879Y-88228769D01*
X114216880Y-88228767D01*
X114221626Y-88222582D01*
X114260265Y-88129300D01*
X114273105Y-88098301D01*
X114273105Y-88098300D01*
X114276088Y-88091099D01*
X114278695Y-88071302D01*
X114293646Y-87957732D01*
X114294664Y-87950000D01*
X114276088Y-87808901D01*
X114221626Y-87677418D01*
X114163525Y-87601699D01*
X114139738Y-87570700D01*
X114134989Y-87564511D01*
X114126868Y-87558280D01*
X114028269Y-87482621D01*
X114028267Y-87482620D01*
X114022082Y-87477874D01*
X113890599Y-87423412D01*
X113882873Y-87422395D01*
X113882870Y-87422394D01*
X113757232Y-87405854D01*
X113749500Y-87404836D01*
X113741768Y-87405854D01*
X113616130Y-87422394D01*
X113616127Y-87422395D01*
X113608401Y-87423412D01*
X113476918Y-87477874D01*
X113470733Y-87482620D01*
X113470731Y-87482621D01*
X113372132Y-87558280D01*
X113364011Y-87564511D01*
X113359262Y-87570700D01*
X113335476Y-87601699D01*
X113277374Y-87677418D01*
X113222912Y-87808901D01*
X113204336Y-87950000D01*
X108795164Y-87950000D01*
X108776588Y-87808901D01*
X108722126Y-87677418D01*
X108664025Y-87601699D01*
X108640238Y-87570700D01*
X108635489Y-87564511D01*
X108627368Y-87558280D01*
X108528769Y-87482621D01*
X108528767Y-87482620D01*
X108522582Y-87477874D01*
X108391099Y-87423412D01*
X108383373Y-87422395D01*
X108383370Y-87422394D01*
X108257732Y-87405854D01*
X108250000Y-87404836D01*
X108242268Y-87405854D01*
X108116630Y-87422394D01*
X108116627Y-87422395D01*
X108108901Y-87423412D01*
X107977418Y-87477874D01*
X107971233Y-87482620D01*
X107971231Y-87482621D01*
X107872632Y-87558280D01*
X107864511Y-87564511D01*
X107859762Y-87570700D01*
X107835976Y-87601699D01*
X107777874Y-87677418D01*
X107723412Y-87808901D01*
X107704836Y-87950000D01*
X105752190Y-87950000D01*
X105776588Y-87891099D01*
X105778447Y-87876983D01*
X105794146Y-87757732D01*
X105795164Y-87750000D01*
X105786557Y-87684623D01*
X105777606Y-87616630D01*
X105777605Y-87616627D01*
X105776588Y-87608901D01*
X105722126Y-87477418D01*
X105682975Y-87426395D01*
X105640238Y-87370700D01*
X105635489Y-87364511D01*
X105627368Y-87358280D01*
X105528769Y-87282621D01*
X105528767Y-87282620D01*
X105522582Y-87277874D01*
X105391099Y-87223412D01*
X105383373Y-87222395D01*
X105383370Y-87222394D01*
X105257732Y-87205854D01*
X105250000Y-87204836D01*
X105242268Y-87205854D01*
X105116630Y-87222394D01*
X105116627Y-87222395D01*
X105108901Y-87223412D01*
X104977418Y-87277874D01*
X104971233Y-87282620D01*
X104971231Y-87282621D01*
X104872632Y-87358280D01*
X104864511Y-87364511D01*
X104859762Y-87370700D01*
X104817026Y-87426395D01*
X104777874Y-87477418D01*
X104723412Y-87608901D01*
X104722395Y-87616627D01*
X104722394Y-87616630D01*
X104713443Y-87684623D01*
X104704836Y-87750000D01*
X103000000Y-87750000D01*
X103000000Y-86000000D01*
X97750000Y-86000000D01*
X97750000Y-120800011D01*
X97731109Y-120864347D01*
X97680434Y-120908257D01*
X97614065Y-120917800D01*
X97553072Y-120889945D01*
X97521058Y-120845550D01*
X97502195Y-120800011D01*
X97472126Y-120727418D01*
X97385489Y-120614511D01*
X97295115Y-120545164D01*
X97278769Y-120532621D01*
X97278767Y-120532620D01*
X97272582Y-120527874D01*
X97141099Y-120473412D01*
X97133373Y-120472395D01*
X97133370Y-120472394D01*
X97007732Y-120455854D01*
X97000000Y-120454836D01*
X96992268Y-120455854D01*
X96866630Y-120472394D01*
X96866627Y-120472395D01*
X96858901Y-120473412D01*
X96727418Y-120527874D01*
X96721233Y-120532620D01*
X96721231Y-120532621D01*
X96704885Y-120545164D01*
X96614511Y-120614511D01*
X96527874Y-120727418D01*
X96473412Y-120858901D01*
X96472395Y-120866627D01*
X96472394Y-120866630D01*
X96469325Y-120889945D01*
X96454836Y-121000000D01*
X96455854Y-121007732D01*
X96469912Y-121114511D01*
X96473412Y-121141099D01*
X96527874Y-121272582D01*
X96532620Y-121278767D01*
X96532624Y-121278774D01*
X96550874Y-121302557D01*
X96575053Y-121365098D01*
X96561581Y-121430783D01*
X96550874Y-121447443D01*
X96532624Y-121471226D01*
X96532621Y-121471231D01*
X96527874Y-121477418D01*
X96473412Y-121608901D01*
X96454836Y-121750000D01*
X96473412Y-121891099D01*
X96527874Y-122022582D01*
X96532620Y-122028767D01*
X96532624Y-122028774D01*
X96550874Y-122052557D01*
X96575053Y-122115098D01*
X96561581Y-122180783D01*
X96550874Y-122197443D01*
X96532624Y-122221226D01*
X96532620Y-122221233D01*
X96527874Y-122227418D01*
X96473412Y-122358901D01*
X96472395Y-122366627D01*
X96472394Y-122366630D01*
X96469325Y-122389945D01*
X96454836Y-122500000D01*
X96455854Y-122507732D01*
X96469912Y-122614511D01*
X96473412Y-122641099D01*
X96527874Y-122772582D01*
X96614511Y-122885489D01*
X96620700Y-122890238D01*
X96721231Y-122967379D01*
X96721233Y-122967380D01*
X96727418Y-122972126D01*
X96858901Y-123026588D01*
X96866627Y-123027605D01*
X96866630Y-123027606D01*
X96992268Y-123044146D01*
X97000000Y-123045164D01*
X97007732Y-123044146D01*
X97133370Y-123027606D01*
X97133373Y-123027605D01*
X97141099Y-123026588D01*
X97272582Y-122972126D01*
X97278767Y-122967380D01*
X97278769Y-122967379D01*
X97379300Y-122890238D01*
X97385489Y-122885489D01*
X97472126Y-122772582D01*
X97521058Y-122654450D01*
X97563132Y-122602240D01*
X97626753Y-122581065D01*
X97691722Y-122597647D01*
X97737413Y-122646723D01*
X97750000Y-122699989D01*
X97750000Y-125131000D01*
X97731109Y-125195336D01*
X97680434Y-125239246D01*
X97631000Y-125250000D01*
X91500000Y-125250000D01*
X91500000Y-129131000D01*
X91481109Y-129195336D01*
X91430434Y-129239246D01*
X91381000Y-129250000D01*
X85119000Y-129250000D01*
X85054664Y-129231109D01*
X85010754Y-129180434D01*
X85000000Y-129131000D01*
X85000000Y-126147945D01*
X85018891Y-126083609D01*
X85069566Y-126039699D01*
X85134532Y-126029963D01*
X85242266Y-126044146D01*
X85242268Y-126044146D01*
X85250000Y-126045164D01*
X85257732Y-126044146D01*
X85383370Y-126027606D01*
X85383373Y-126027605D01*
X85391099Y-126026588D01*
X85522582Y-125972126D01*
X85528767Y-125967380D01*
X85528769Y-125967379D01*
X85629300Y-125890238D01*
X85635489Y-125885489D01*
X85722126Y-125772582D01*
X85776588Y-125641099D01*
X85795164Y-125500000D01*
X85776588Y-125358901D01*
X85722126Y-125227418D01*
X85697509Y-125195336D01*
X85640238Y-125120700D01*
X85635489Y-125114511D01*
X85545115Y-125045164D01*
X85528769Y-125032621D01*
X85528767Y-125032620D01*
X85522582Y-125027874D01*
X85391099Y-124973412D01*
X85383373Y-124972395D01*
X85383370Y-124972394D01*
X85257732Y-124955854D01*
X85250000Y-124954836D01*
X85242268Y-124955854D01*
X85242266Y-124955854D01*
X85134532Y-124970037D01*
X85068281Y-124959705D01*
X85018132Y-124915195D01*
X85000000Y-124852055D01*
X85000000Y-123000000D01*
X86204836Y-123000000D01*
X86205854Y-123007732D01*
X86219848Y-123114026D01*
X86223412Y-123141099D01*
X86277874Y-123272582D01*
X86364511Y-123385489D01*
X86370700Y-123390238D01*
X86471231Y-123467379D01*
X86471233Y-123467380D01*
X86477418Y-123472126D01*
X86568070Y-123509675D01*
X86599230Y-123522582D01*
X86608901Y-123526588D01*
X86616627Y-123527605D01*
X86616630Y-123527606D01*
X86742268Y-123544146D01*
X86750000Y-123545164D01*
X86757732Y-123544146D01*
X86883370Y-123527606D01*
X86883373Y-123527605D01*
X86891099Y-123526588D01*
X86900771Y-123522582D01*
X86931930Y-123509675D01*
X87022582Y-123472126D01*
X87028767Y-123467380D01*
X87028769Y-123467379D01*
X87129300Y-123390238D01*
X87135489Y-123385489D01*
X87222126Y-123272582D01*
X87276588Y-123141099D01*
X87280153Y-123114026D01*
X87294146Y-123007732D01*
X87295164Y-123000000D01*
X87290869Y-122967379D01*
X87277606Y-122866630D01*
X87277605Y-122866627D01*
X87276588Y-122858901D01*
X87222126Y-122727418D01*
X87204799Y-122704836D01*
X87140238Y-122620700D01*
X87135489Y-122614511D01*
X87091902Y-122581065D01*
X87028769Y-122532621D01*
X87028767Y-122532620D01*
X87022582Y-122527874D01*
X86891099Y-122473412D01*
X86883373Y-122472395D01*
X86883370Y-122472394D01*
X86757732Y-122455854D01*
X86750000Y-122454836D01*
X86742268Y-122455854D01*
X86616630Y-122472394D01*
X86616627Y-122472395D01*
X86608901Y-122473412D01*
X86477418Y-122527874D01*
X86471233Y-122532620D01*
X86471231Y-122532621D01*
X86408098Y-122581065D01*
X86364511Y-122614511D01*
X86359762Y-122620700D01*
X86295202Y-122704836D01*
X86277874Y-122727418D01*
X86223412Y-122858901D01*
X86222395Y-122866627D01*
X86222394Y-122866630D01*
X86209131Y-122967379D01*
X86204836Y-123000000D01*
X85000000Y-123000000D01*
X85000000Y-122728959D01*
X85009058Y-122683420D01*
X85023605Y-122648301D01*
X85023605Y-122648300D01*
X85026588Y-122641099D01*
X85030089Y-122614511D01*
X85044146Y-122507732D01*
X85045164Y-122500000D01*
X85030675Y-122389945D01*
X85027606Y-122366630D01*
X85027605Y-122366627D01*
X85026588Y-122358901D01*
X85009058Y-122316580D01*
X85000000Y-122271041D01*
X85000000Y-121978959D01*
X85009058Y-121933420D01*
X85023605Y-121898301D01*
X85023605Y-121898300D01*
X85026588Y-121891099D01*
X85045164Y-121750000D01*
X85026588Y-121608901D01*
X85009058Y-121566580D01*
X85000000Y-121521041D01*
X85000000Y-121369000D01*
X85018891Y-121304664D01*
X85069566Y-121260754D01*
X85119000Y-121250000D01*
X89711070Y-121250000D01*
X89775406Y-121268891D01*
X89819316Y-121319566D01*
X89828859Y-121385935D01*
X89805479Y-121441442D01*
X89777874Y-121477418D01*
X89723412Y-121608901D01*
X89704836Y-121750000D01*
X89723412Y-121891099D01*
X89777874Y-122022582D01*
X89782620Y-122028767D01*
X89782621Y-122028769D01*
X89813658Y-122069217D01*
X89864511Y-122135489D01*
X89870700Y-122140238D01*
X89971231Y-122217379D01*
X89971233Y-122217380D01*
X89977418Y-122222126D01*
X90108901Y-122276588D01*
X90116627Y-122277605D01*
X90116630Y-122277606D01*
X90242268Y-122294146D01*
X90250000Y-122295164D01*
X90257732Y-122294146D01*
X90383370Y-122277606D01*
X90383373Y-122277605D01*
X90391099Y-122276588D01*
X90522582Y-122222126D01*
X90528767Y-122217380D01*
X90528769Y-122217379D01*
X90629300Y-122140238D01*
X90635489Y-122135489D01*
X90686342Y-122069217D01*
X90717379Y-122028769D01*
X90717380Y-122028767D01*
X90722126Y-122022582D01*
X90776588Y-121891099D01*
X90795164Y-121750000D01*
X90776588Y-121608901D01*
X90722126Y-121477418D01*
X90694521Y-121441442D01*
X90670343Y-121378902D01*
X90683815Y-121313217D01*
X90730660Y-121265243D01*
X90788930Y-121250000D01*
X91250000Y-121250000D01*
X95750000Y-116750000D01*
X95750000Y-84369000D01*
X95768891Y-84304664D01*
X95819566Y-84260754D01*
X95869000Y-84250000D01*
X125562212Y-84250000D01*
X125626548Y-84268891D01*
G37*
%TD.AperFunction*%
%TD*%
M02*
