%TF.GenerationSoftware,KiCad,Pcbnew,6.0.8-f2edbf62ab~116~ubuntu20.04.1*%
%TF.CreationDate,2022-11-13T19:06:06-08:00*%
%TF.ProjectId,packaged-amp,7061636b-6167-4656-942d-616d702e6b69,rev?*%
%TF.SameCoordinates,Original*%
%TF.FileFunction,Legend,Top*%
%TF.FilePolarity,Positive*%
%FSLAX46Y46*%
G04 Gerber Fmt 4.6, Leading zero omitted, Abs format (unit mm)*
G04 Created by KiCad (PCBNEW 6.0.8-f2edbf62ab~116~ubuntu20.04.1) date 2022-11-13 19:06:06*
%MOMM*%
%LPD*%
G01*
G04 APERTURE LIST*
%ADD10C,0.150000*%
%ADD11C,0.120000*%
G04 APERTURE END LIST*
D10*
X120702380Y-144428571D02*
X120845238Y-144476190D01*
X120892857Y-144523809D01*
X120940476Y-144619047D01*
X120940476Y-144761904D01*
X120892857Y-144857142D01*
X120845238Y-144904761D01*
X120750000Y-144952380D01*
X120369047Y-144952380D01*
X120369047Y-143952380D01*
X120702380Y-143952380D01*
X120797619Y-144000000D01*
X120845238Y-144047619D01*
X120892857Y-144142857D01*
X120892857Y-144238095D01*
X120845238Y-144333333D01*
X120797619Y-144380952D01*
X120702380Y-144428571D01*
X120369047Y-144428571D01*
X121750000Y-144904761D02*
X121654761Y-144952380D01*
X121464285Y-144952380D01*
X121369047Y-144904761D01*
X121321428Y-144809523D01*
X121321428Y-144428571D01*
X121369047Y-144333333D01*
X121464285Y-144285714D01*
X121654761Y-144285714D01*
X121750000Y-144333333D01*
X121797619Y-144428571D01*
X121797619Y-144523809D01*
X121321428Y-144619047D01*
X122607142Y-144904761D02*
X122511904Y-144952380D01*
X122321428Y-144952380D01*
X122226190Y-144904761D01*
X122178571Y-144809523D01*
X122178571Y-144428571D01*
X122226190Y-144333333D01*
X122321428Y-144285714D01*
X122511904Y-144285714D01*
X122607142Y-144333333D01*
X122654761Y-144428571D01*
X122654761Y-144523809D01*
X122178571Y-144619047D01*
X122940476Y-144285714D02*
X123321428Y-144285714D01*
X123083333Y-144952380D02*
X123083333Y-144095238D01*
X123130952Y-144000000D01*
X123226190Y-143952380D01*
X123321428Y-143952380D01*
X123654761Y-144952380D02*
X123654761Y-144285714D01*
X123654761Y-143952380D02*
X123607142Y-144000000D01*
X123654761Y-144047619D01*
X123702380Y-144000000D01*
X123654761Y-143952380D01*
X123654761Y-144047619D01*
X124511904Y-144904761D02*
X124416666Y-144952380D01*
X124226190Y-144952380D01*
X124130952Y-144904761D01*
X124083333Y-144809523D01*
X124083333Y-144428571D01*
X124130952Y-144333333D01*
X124226190Y-144285714D01*
X124416666Y-144285714D01*
X124511904Y-144333333D01*
X124559523Y-144428571D01*
X124559523Y-144523809D01*
X124083333Y-144619047D01*
X125130952Y-144952380D02*
X125035714Y-144904761D01*
X124988095Y-144809523D01*
X124988095Y-143952380D01*
X125940476Y-144952380D02*
X125940476Y-143952380D01*
X125940476Y-144904761D02*
X125845238Y-144952380D01*
X125654761Y-144952380D01*
X125559523Y-144904761D01*
X125511904Y-144857142D01*
X125464285Y-144761904D01*
X125464285Y-144476190D01*
X125511904Y-144380952D01*
X125559523Y-144333333D01*
X125654761Y-144285714D01*
X125845238Y-144285714D01*
X125940476Y-144333333D01*
X127654761Y-144952380D02*
X127178571Y-144952380D01*
X127178571Y-143952380D01*
X128416666Y-144952380D02*
X128416666Y-144428571D01*
X128369047Y-144333333D01*
X128273809Y-144285714D01*
X128083333Y-144285714D01*
X127988095Y-144333333D01*
X128416666Y-144904761D02*
X128321428Y-144952380D01*
X128083333Y-144952380D01*
X127988095Y-144904761D01*
X127940476Y-144809523D01*
X127940476Y-144714285D01*
X127988095Y-144619047D01*
X128083333Y-144571428D01*
X128321428Y-144571428D01*
X128416666Y-144523809D01*
X128892857Y-144952380D02*
X128892857Y-143952380D01*
X128892857Y-144333333D02*
X128988095Y-144285714D01*
X129178571Y-144285714D01*
X129273809Y-144333333D01*
X129321428Y-144380952D01*
X129369047Y-144476190D01*
X129369047Y-144761904D01*
X129321428Y-144857142D01*
X129273809Y-144904761D01*
X129178571Y-144952380D01*
X128988095Y-144952380D01*
X128892857Y-144904761D01*
X129750000Y-144904761D02*
X129845238Y-144952380D01*
X130035714Y-144952380D01*
X130130952Y-144904761D01*
X130178571Y-144809523D01*
X130178571Y-144761904D01*
X130130952Y-144666666D01*
X130035714Y-144619047D01*
X129892857Y-144619047D01*
X129797619Y-144571428D01*
X129750000Y-144476190D01*
X129750000Y-144428571D01*
X129797619Y-144333333D01*
X129892857Y-144285714D01*
X130035714Y-144285714D01*
X130130952Y-144333333D01*
X92907023Y-142342380D02*
X92573690Y-141866190D01*
X92335595Y-142342380D02*
X92335595Y-141342380D01*
X92716547Y-141342380D01*
X92811785Y-141390000D01*
X92859404Y-141437619D01*
X92907023Y-141532857D01*
X92907023Y-141675714D01*
X92859404Y-141770952D01*
X92811785Y-141818571D01*
X92716547Y-141866190D01*
X92335595Y-141866190D01*
X93478452Y-142342380D02*
X93383214Y-142294761D01*
X93335595Y-142247142D01*
X93287976Y-142151904D01*
X93287976Y-141866190D01*
X93335595Y-141770952D01*
X93383214Y-141723333D01*
X93478452Y-141675714D01*
X93621309Y-141675714D01*
X93716547Y-141723333D01*
X93764166Y-141770952D01*
X93811785Y-141866190D01*
X93811785Y-142151904D01*
X93764166Y-142247142D01*
X93716547Y-142294761D01*
X93621309Y-142342380D01*
X93478452Y-142342380D01*
X94668928Y-141675714D02*
X94668928Y-142485238D01*
X94621309Y-142580476D01*
X94573690Y-142628095D01*
X94478452Y-142675714D01*
X94335595Y-142675714D01*
X94240357Y-142628095D01*
X94668928Y-142294761D02*
X94573690Y-142342380D01*
X94383214Y-142342380D01*
X94287976Y-142294761D01*
X94240357Y-142247142D01*
X94192738Y-142151904D01*
X94192738Y-141866190D01*
X94240357Y-141770952D01*
X94287976Y-141723333D01*
X94383214Y-141675714D01*
X94573690Y-141675714D01*
X94668928Y-141723333D01*
X95287976Y-142342380D02*
X95192738Y-142294761D01*
X95145119Y-142247142D01*
X95097500Y-142151904D01*
X95097500Y-141866190D01*
X95145119Y-141770952D01*
X95192738Y-141723333D01*
X95287976Y-141675714D01*
X95430833Y-141675714D01*
X95526071Y-141723333D01*
X95573690Y-141770952D01*
X95621309Y-141866190D01*
X95621309Y-142151904D01*
X95573690Y-142247142D01*
X95526071Y-142294761D01*
X95430833Y-142342380D01*
X95287976Y-142342380D01*
X95954642Y-141675714D02*
X96145119Y-142342380D01*
X96335595Y-141866190D01*
X96526071Y-142342380D01*
X96716547Y-141675714D01*
X97049880Y-142294761D02*
X97145119Y-142342380D01*
X97335595Y-142342380D01*
X97430833Y-142294761D01*
X97478452Y-142199523D01*
X97478452Y-142151904D01*
X97430833Y-142056666D01*
X97335595Y-142009047D01*
X97192738Y-142009047D01*
X97097500Y-141961428D01*
X97049880Y-141866190D01*
X97049880Y-141818571D01*
X97097500Y-141723333D01*
X97192738Y-141675714D01*
X97335595Y-141675714D01*
X97430833Y-141723333D01*
X97907023Y-142342380D02*
X97907023Y-141342380D01*
X98002261Y-141961428D02*
X98287976Y-142342380D01*
X98287976Y-141675714D02*
X97907023Y-142056666D01*
X98716547Y-142342380D02*
X98716547Y-141675714D01*
X98716547Y-141342380D02*
X98668928Y-141390000D01*
X98716547Y-141437619D01*
X98764166Y-141390000D01*
X98716547Y-141342380D01*
X98716547Y-141437619D01*
X100526071Y-142247142D02*
X100478452Y-142294761D01*
X100335595Y-142342380D01*
X100240357Y-142342380D01*
X100097500Y-142294761D01*
X100002261Y-142199523D01*
X99954642Y-142104285D01*
X99907023Y-141913809D01*
X99907023Y-141770952D01*
X99954642Y-141580476D01*
X100002261Y-141485238D01*
X100097500Y-141390000D01*
X100240357Y-141342380D01*
X100335595Y-141342380D01*
X100478452Y-141390000D01*
X100526071Y-141437619D01*
X101097500Y-142342380D02*
X101002261Y-142294761D01*
X100954642Y-142247142D01*
X100907023Y-142151904D01*
X100907023Y-141866190D01*
X100954642Y-141770952D01*
X101002261Y-141723333D01*
X101097500Y-141675714D01*
X101240357Y-141675714D01*
X101335595Y-141723333D01*
X101383214Y-141770952D01*
X101430833Y-141866190D01*
X101430833Y-142151904D01*
X101383214Y-142247142D01*
X101335595Y-142294761D01*
X101240357Y-142342380D01*
X101097500Y-142342380D01*
X101859404Y-142342380D02*
X101859404Y-141675714D01*
X101859404Y-141342380D02*
X101811785Y-141390000D01*
X101859404Y-141437619D01*
X101907023Y-141390000D01*
X101859404Y-141342380D01*
X101859404Y-141437619D01*
X102478452Y-142342380D02*
X102383214Y-142294761D01*
X102335595Y-142199523D01*
X102335595Y-141342380D01*
X92287976Y-143666666D02*
X92764166Y-143666666D01*
X92192738Y-143952380D02*
X92526071Y-142952380D01*
X92859404Y-143952380D01*
X93192738Y-143952380D02*
X93192738Y-143285714D01*
X93192738Y-143380952D02*
X93240357Y-143333333D01*
X93335595Y-143285714D01*
X93478452Y-143285714D01*
X93573690Y-143333333D01*
X93621309Y-143428571D01*
X93621309Y-143952380D01*
X93621309Y-143428571D02*
X93668928Y-143333333D01*
X93764166Y-143285714D01*
X93907023Y-143285714D01*
X94002261Y-143333333D01*
X94049880Y-143428571D01*
X94049880Y-143952380D01*
X94526071Y-143285714D02*
X94526071Y-144285714D01*
X94526071Y-143333333D02*
X94621309Y-143285714D01*
X94811785Y-143285714D01*
X94907023Y-143333333D01*
X94954642Y-143380952D01*
X95002261Y-143476190D01*
X95002261Y-143761904D01*
X94954642Y-143857142D01*
X94907023Y-143904761D01*
X94811785Y-143952380D01*
X94621309Y-143952380D01*
X94526071Y-143904761D01*
X95573690Y-143952380D02*
X95478452Y-143904761D01*
X95430833Y-143809523D01*
X95430833Y-142952380D01*
X95954642Y-143952380D02*
X95954642Y-143285714D01*
X95954642Y-142952380D02*
X95907023Y-143000000D01*
X95954642Y-143047619D01*
X96002261Y-143000000D01*
X95954642Y-142952380D01*
X95954642Y-143047619D01*
X96287976Y-143285714D02*
X96668928Y-143285714D01*
X96430833Y-143952380D02*
X96430833Y-143095238D01*
X96478452Y-143000000D01*
X96573690Y-142952380D01*
X96668928Y-142952380D01*
X97002261Y-143952380D02*
X97002261Y-143285714D01*
X97002261Y-142952380D02*
X96954642Y-143000000D01*
X97002261Y-143047619D01*
X97049880Y-143000000D01*
X97002261Y-142952380D01*
X97002261Y-143047619D01*
X97859404Y-143904761D02*
X97764166Y-143952380D01*
X97573690Y-143952380D01*
X97478452Y-143904761D01*
X97430833Y-143809523D01*
X97430833Y-143428571D01*
X97478452Y-143333333D01*
X97573690Y-143285714D01*
X97764166Y-143285714D01*
X97859404Y-143333333D01*
X97907023Y-143428571D01*
X97907023Y-143523809D01*
X97430833Y-143619047D01*
X98335595Y-143952380D02*
X98335595Y-143285714D01*
X98335595Y-143476190D02*
X98383214Y-143380952D01*
X98430833Y-143333333D01*
X98526071Y-143285714D01*
X98621309Y-143285714D01*
X92192738Y-144562380D02*
X92526071Y-145562380D01*
X92859404Y-144562380D01*
X93145119Y-144657619D02*
X93192738Y-144610000D01*
X93287976Y-144562380D01*
X93526071Y-144562380D01*
X93621309Y-144610000D01*
X93668928Y-144657619D01*
X93716547Y-144752857D01*
X93716547Y-144848095D01*
X93668928Y-144990952D01*
X93097500Y-145562380D01*
X93716547Y-145562380D01*
X94145119Y-145467142D02*
X94192738Y-145514761D01*
X94145119Y-145562380D01*
X94097500Y-145514761D01*
X94145119Y-145467142D01*
X94145119Y-145562380D01*
X94811785Y-144562380D02*
X94907023Y-144562380D01*
X95002261Y-144610000D01*
X95049880Y-144657619D01*
X95097500Y-144752857D01*
X95145119Y-144943333D01*
X95145119Y-145181428D01*
X95097500Y-145371904D01*
X95049880Y-145467142D01*
X95002261Y-145514761D01*
X94907023Y-145562380D01*
X94811785Y-145562380D01*
X94716547Y-145514761D01*
X94668928Y-145467142D01*
X94621309Y-145371904D01*
X94573690Y-145181428D01*
X94573690Y-144943333D01*
X94621309Y-144752857D01*
X94668928Y-144657619D01*
X94716547Y-144610000D01*
X94811785Y-144562380D01*
X96287976Y-144657619D02*
X96335595Y-144610000D01*
X96430833Y-144562380D01*
X96668928Y-144562380D01*
X96764166Y-144610000D01*
X96811785Y-144657619D01*
X96859404Y-144752857D01*
X96859404Y-144848095D01*
X96811785Y-144990952D01*
X96240357Y-145562380D01*
X96859404Y-145562380D01*
X97478452Y-144562380D02*
X97573690Y-144562380D01*
X97668928Y-144610000D01*
X97716547Y-144657619D01*
X97764166Y-144752857D01*
X97811785Y-144943333D01*
X97811785Y-145181428D01*
X97764166Y-145371904D01*
X97716547Y-145467142D01*
X97668928Y-145514761D01*
X97573690Y-145562380D01*
X97478452Y-145562380D01*
X97383214Y-145514761D01*
X97335595Y-145467142D01*
X97287976Y-145371904D01*
X97240357Y-145181428D01*
X97240357Y-144943333D01*
X97287976Y-144752857D01*
X97335595Y-144657619D01*
X97383214Y-144610000D01*
X97478452Y-144562380D01*
X98192738Y-144657619D02*
X98240357Y-144610000D01*
X98335595Y-144562380D01*
X98573690Y-144562380D01*
X98668928Y-144610000D01*
X98716547Y-144657619D01*
X98764166Y-144752857D01*
X98764166Y-144848095D01*
X98716547Y-144990952D01*
X98145119Y-145562380D01*
X98764166Y-145562380D01*
X99145119Y-144657619D02*
X99192738Y-144610000D01*
X99287976Y-144562380D01*
X99526071Y-144562380D01*
X99621309Y-144610000D01*
X99668928Y-144657619D01*
X99716547Y-144752857D01*
X99716547Y-144848095D01*
X99668928Y-144990952D01*
X99097500Y-145562380D01*
X99716547Y-145562380D01*
X97083333Y-79702380D02*
X96607142Y-79702380D01*
X96559523Y-80178571D01*
X96607142Y-80130952D01*
X96702380Y-80083333D01*
X96940476Y-80083333D01*
X97035714Y-80130952D01*
X97083333Y-80178571D01*
X97130952Y-80273809D01*
X97130952Y-80511904D01*
X97083333Y-80607142D01*
X97035714Y-80654761D01*
X96940476Y-80702380D01*
X96702380Y-80702380D01*
X96607142Y-80654761D01*
X96559523Y-80607142D01*
X97416666Y-79702380D02*
X97750000Y-80702380D01*
X98083333Y-79702380D01*
X99369047Y-79702380D02*
X99464285Y-79702380D01*
X99559523Y-79750000D01*
X99607142Y-79797619D01*
X99654761Y-79892857D01*
X99702380Y-80083333D01*
X99702380Y-80321428D01*
X99654761Y-80511904D01*
X99607142Y-80607142D01*
X99559523Y-80654761D01*
X99464285Y-80702380D01*
X99369047Y-80702380D01*
X99273809Y-80654761D01*
X99226190Y-80607142D01*
X99178571Y-80511904D01*
X99130952Y-80321428D01*
X99130952Y-80083333D01*
X99178571Y-79892857D01*
X99226190Y-79797619D01*
X99273809Y-79750000D01*
X99369047Y-79702380D01*
X100130952Y-80607142D02*
X100178571Y-80654761D01*
X100130952Y-80702380D01*
X100083333Y-80654761D01*
X100130952Y-80607142D01*
X100130952Y-80702380D01*
X100559523Y-79797619D02*
X100607142Y-79750000D01*
X100702380Y-79702380D01*
X100940476Y-79702380D01*
X101035714Y-79750000D01*
X101083333Y-79797619D01*
X101130952Y-79892857D01*
X101130952Y-79988095D01*
X101083333Y-80130952D01*
X100511904Y-80702380D01*
X101130952Y-80702380D01*
X102035714Y-79702380D02*
X101559523Y-79702380D01*
X101511904Y-80178571D01*
X101559523Y-80130952D01*
X101654761Y-80083333D01*
X101892857Y-80083333D01*
X101988095Y-80130952D01*
X102035714Y-80178571D01*
X102083333Y-80273809D01*
X102083333Y-80511904D01*
X102035714Y-80607142D01*
X101988095Y-80654761D01*
X101892857Y-80702380D01*
X101654761Y-80702380D01*
X101559523Y-80654761D01*
X101511904Y-80607142D01*
X102464285Y-80416666D02*
X102940476Y-80416666D01*
X102369047Y-80702380D02*
X102702380Y-79702380D01*
X103035714Y-80702380D01*
X104595238Y-123952380D02*
X104261904Y-123476190D01*
X104023809Y-123952380D02*
X104023809Y-122952380D01*
X104404761Y-122952380D01*
X104500000Y-123000000D01*
X104547619Y-123047619D01*
X104595238Y-123142857D01*
X104595238Y-123285714D01*
X104547619Y-123380952D01*
X104500000Y-123428571D01*
X104404761Y-123476190D01*
X104023809Y-123476190D01*
X105404761Y-123904761D02*
X105309523Y-123952380D01*
X105119047Y-123952380D01*
X105023809Y-123904761D01*
X104976190Y-123809523D01*
X104976190Y-123428571D01*
X105023809Y-123333333D01*
X105119047Y-123285714D01*
X105309523Y-123285714D01*
X105404761Y-123333333D01*
X105452380Y-123428571D01*
X105452380Y-123523809D01*
X104976190Y-123619047D01*
X105738095Y-123285714D02*
X106119047Y-123285714D01*
X105880952Y-122952380D02*
X105880952Y-123809523D01*
X105928571Y-123904761D01*
X106023809Y-123952380D01*
X106119047Y-123952380D01*
X104023809Y-117404761D02*
X104166666Y-117452380D01*
X104404761Y-117452380D01*
X104500000Y-117404761D01*
X104547619Y-117357142D01*
X104595238Y-117261904D01*
X104595238Y-117166666D01*
X104547619Y-117071428D01*
X104500000Y-117023809D01*
X104404761Y-116976190D01*
X104214285Y-116928571D01*
X104119047Y-116880952D01*
X104071428Y-116833333D01*
X104023809Y-116738095D01*
X104023809Y-116642857D01*
X104071428Y-116547619D01*
X104119047Y-116500000D01*
X104214285Y-116452380D01*
X104452380Y-116452380D01*
X104595238Y-116500000D01*
X105023809Y-117452380D02*
X105023809Y-116785714D01*
X105023809Y-116452380D02*
X104976190Y-116500000D01*
X105023809Y-116547619D01*
X105071428Y-116500000D01*
X105023809Y-116452380D01*
X105023809Y-116547619D01*
X105928571Y-116785714D02*
X105928571Y-117595238D01*
X105880952Y-117690476D01*
X105833333Y-117738095D01*
X105738095Y-117785714D01*
X105595238Y-117785714D01*
X105500000Y-117738095D01*
X105928571Y-117404761D02*
X105833333Y-117452380D01*
X105642857Y-117452380D01*
X105547619Y-117404761D01*
X105500000Y-117357142D01*
X105452380Y-117261904D01*
X105452380Y-116976190D01*
X105500000Y-116880952D01*
X105547619Y-116833333D01*
X105642857Y-116785714D01*
X105833333Y-116785714D01*
X105928571Y-116833333D01*
%TO.C,J8*%
X99416666Y-71452380D02*
X99416666Y-72166666D01*
X99369047Y-72309523D01*
X99273809Y-72404761D01*
X99130952Y-72452380D01*
X99035714Y-72452380D01*
X100035714Y-71880952D02*
X99940476Y-71833333D01*
X99892857Y-71785714D01*
X99845238Y-71690476D01*
X99845238Y-71642857D01*
X99892857Y-71547619D01*
X99940476Y-71500000D01*
X100035714Y-71452380D01*
X100226190Y-71452380D01*
X100321428Y-71500000D01*
X100369047Y-71547619D01*
X100416666Y-71642857D01*
X100416666Y-71690476D01*
X100369047Y-71785714D01*
X100321428Y-71833333D01*
X100226190Y-71880952D01*
X100035714Y-71880952D01*
X99940476Y-71928571D01*
X99892857Y-71976190D01*
X99845238Y-72071428D01*
X99845238Y-72261904D01*
X99892857Y-72357142D01*
X99940476Y-72404761D01*
X100035714Y-72452380D01*
X100226190Y-72452380D01*
X100321428Y-72404761D01*
X100369047Y-72357142D01*
X100416666Y-72261904D01*
X100416666Y-72071428D01*
X100369047Y-71976190D01*
X100321428Y-71928571D01*
X100226190Y-71880952D01*
%TO.C,PS1*%
X78535714Y-100952380D02*
X78535714Y-99952380D01*
X78916666Y-99952380D01*
X79011904Y-100000000D01*
X79059523Y-100047619D01*
X79107142Y-100142857D01*
X79107142Y-100285714D01*
X79059523Y-100380952D01*
X79011904Y-100428571D01*
X78916666Y-100476190D01*
X78535714Y-100476190D01*
X79488095Y-100904761D02*
X79630952Y-100952380D01*
X79869047Y-100952380D01*
X79964285Y-100904761D01*
X80011904Y-100857142D01*
X80059523Y-100761904D01*
X80059523Y-100666666D01*
X80011904Y-100571428D01*
X79964285Y-100523809D01*
X79869047Y-100476190D01*
X79678571Y-100428571D01*
X79583333Y-100380952D01*
X79535714Y-100333333D01*
X79488095Y-100238095D01*
X79488095Y-100142857D01*
X79535714Y-100047619D01*
X79583333Y-100000000D01*
X79678571Y-99952380D01*
X79916666Y-99952380D01*
X80059523Y-100000000D01*
X81011904Y-100952380D02*
X80440476Y-100952380D01*
X80726190Y-100952380D02*
X80726190Y-99952380D01*
X80630952Y-100095238D01*
X80535714Y-100190476D01*
X80440476Y-100238095D01*
%TO.C,D6*%
X83761904Y-134952380D02*
X83761904Y-133952380D01*
X84000000Y-133952380D01*
X84142857Y-134000000D01*
X84238095Y-134095238D01*
X84285714Y-134190476D01*
X84333333Y-134380952D01*
X84333333Y-134523809D01*
X84285714Y-134714285D01*
X84238095Y-134809523D01*
X84142857Y-134904761D01*
X84000000Y-134952380D01*
X83761904Y-134952380D01*
X85190476Y-133952380D02*
X85000000Y-133952380D01*
X84904761Y-134000000D01*
X84857142Y-134047619D01*
X84761904Y-134190476D01*
X84714285Y-134380952D01*
X84714285Y-134761904D01*
X84761904Y-134857142D01*
X84809523Y-134904761D01*
X84904761Y-134952380D01*
X85095238Y-134952380D01*
X85190476Y-134904761D01*
X85238095Y-134857142D01*
X85285714Y-134761904D01*
X85285714Y-134523809D01*
X85238095Y-134428571D01*
X85190476Y-134380952D01*
X85095238Y-134333333D01*
X84904761Y-134333333D01*
X84809523Y-134380952D01*
X84761904Y-134428571D01*
X84714285Y-134523809D01*
%TO.C,C11*%
X125607142Y-111607142D02*
X125559523Y-111654761D01*
X125416666Y-111702380D01*
X125321428Y-111702380D01*
X125178571Y-111654761D01*
X125083333Y-111559523D01*
X125035714Y-111464285D01*
X124988095Y-111273809D01*
X124988095Y-111130952D01*
X125035714Y-110940476D01*
X125083333Y-110845238D01*
X125178571Y-110750000D01*
X125321428Y-110702380D01*
X125416666Y-110702380D01*
X125559523Y-110750000D01*
X125607142Y-110797619D01*
X126559523Y-111702380D02*
X125988095Y-111702380D01*
X126273809Y-111702380D02*
X126273809Y-110702380D01*
X126178571Y-110845238D01*
X126083333Y-110940476D01*
X125988095Y-110988095D01*
X127511904Y-111702380D02*
X126940476Y-111702380D01*
X127226190Y-111702380D02*
X127226190Y-110702380D01*
X127130952Y-110845238D01*
X127035714Y-110940476D01*
X126940476Y-110988095D01*
%TO.C,J7*%
X129166666Y-71702380D02*
X129166666Y-72416666D01*
X129119047Y-72559523D01*
X129023809Y-72654761D01*
X128880952Y-72702380D01*
X128785714Y-72702380D01*
X129547619Y-71702380D02*
X130214285Y-71702380D01*
X129785714Y-72702380D01*
D11*
%TO.C,R6*%
X125772500Y-98987258D02*
X125772500Y-98512742D01*
X124727500Y-98987258D02*
X124727500Y-98512742D01*
%TO.C,C2*%
X86090000Y-95038748D02*
X86090000Y-96461252D01*
X87910000Y-95038748D02*
X87910000Y-96461252D01*
%TO.C,C5*%
X106510000Y-90609420D02*
X106510000Y-90890580D01*
X105490000Y-90609420D02*
X105490000Y-90890580D01*
%TO.C,FB1*%
X91690000Y-113850378D02*
X91690000Y-114649622D01*
X92810000Y-113850378D02*
X92810000Y-114649622D01*
%TO.C,U1*%
X112060000Y-92500000D02*
X112060000Y-90550000D01*
X106940000Y-92500000D02*
X106940000Y-90550000D01*
X112060000Y-92500000D02*
X112060000Y-94450000D01*
X106940000Y-92500000D02*
X106940000Y-95950000D01*
%TO.C,C9*%
X119010000Y-108390580D02*
X119010000Y-108109420D01*
X117990000Y-108390580D02*
X117990000Y-108109420D01*
%TO.C,R1*%
X112012742Y-108477500D02*
X112487258Y-108477500D01*
X112012742Y-109522500D02*
X112487258Y-109522500D01*
%TO.C,R9*%
X112022500Y-86512742D02*
X112022500Y-86987258D01*
X110977500Y-86512742D02*
X110977500Y-86987258D01*
%TO.C,D1*%
X129500000Y-96650000D02*
X126950000Y-96650000D01*
X129500000Y-98350000D02*
X129500000Y-96650000D01*
X129500000Y-98350000D02*
X126950000Y-98350000D01*
%TO.C,L2*%
X89102064Y-90140000D02*
X87897936Y-90140000D01*
X89102064Y-92860000D02*
X87897936Y-92860000D01*
%TO.C,C4*%
X90910000Y-95038748D02*
X90910000Y-96461252D01*
X89090000Y-95038748D02*
X89090000Y-96461252D01*
%TO.C,C15*%
X106590000Y-86711252D02*
X106590000Y-85288748D01*
X108410000Y-86711252D02*
X108410000Y-85288748D01*
%TO.C,C31*%
X94711252Y-125590000D02*
X93288748Y-125590000D01*
X94711252Y-127410000D02*
X93288748Y-127410000D01*
%TO.C,TP11*%
X107300000Y-114800000D02*
X111700000Y-114800000D01*
X111700000Y-119200000D02*
X107300000Y-119200000D01*
X107300000Y-119200000D02*
X107300000Y-114800000D01*
X111700000Y-114800000D02*
X111700000Y-119200000D01*
%TO.C,R10*%
X124272500Y-90262742D02*
X124272500Y-90737258D01*
X123227500Y-90262742D02*
X123227500Y-90737258D01*
%TO.C,C14*%
X117740000Y-98609420D02*
X117740000Y-98890580D01*
X118760000Y-98609420D02*
X118760000Y-98890580D01*
%TO.C,C3*%
X87910000Y-110711252D02*
X87910000Y-109288748D01*
X86090000Y-110711252D02*
X86090000Y-109288748D01*
%TO.C,C30*%
X88461252Y-127410000D02*
X87038748Y-127410000D01*
X88461252Y-125590000D02*
X87038748Y-125590000D01*
%TO.C,R7*%
X110272500Y-86987258D02*
X110272500Y-86512742D01*
X109227500Y-86987258D02*
X109227500Y-86512742D01*
%TO.C,C28*%
X88461252Y-119910000D02*
X87038748Y-119910000D01*
X88461252Y-118090000D02*
X87038748Y-118090000D01*
%TO.C,L3*%
X89897936Y-109140000D02*
X91102064Y-109140000D01*
X89897936Y-111860000D02*
X91102064Y-111860000D01*
%TO.C,R25*%
X83762742Y-131272500D02*
X84237258Y-131272500D01*
X83762742Y-130227500D02*
X84237258Y-130227500D01*
%TO.C,C12*%
X116240000Y-90859420D02*
X116240000Y-91140580D01*
X117260000Y-90859420D02*
X117260000Y-91140580D01*
%TO.C,H1*%
G36*
X127171907Y-139206891D02*
G01*
X127303431Y-139231698D01*
X127426698Y-139271792D01*
X127539411Y-139326214D01*
X127639275Y-139394004D01*
X127723994Y-139474206D01*
X127739901Y-139492846D01*
X127811754Y-139595606D01*
X127872676Y-139714232D01*
X127921814Y-139845976D01*
X127958315Y-139988094D01*
X127981328Y-140137836D01*
X127989999Y-140292457D01*
X127990037Y-140298932D01*
X127994253Y-140428994D01*
X128006029Y-140540440D01*
X128025630Y-140634525D01*
X128053320Y-140712504D01*
X128089365Y-140775630D01*
X128091222Y-140778188D01*
X128110281Y-140802606D01*
X128130375Y-140823914D01*
X128155217Y-140845087D01*
X128188520Y-140869100D01*
X128233995Y-140898928D01*
X128271254Y-140922477D01*
X128315234Y-140953896D01*
X128344508Y-140986192D01*
X128361747Y-141024672D01*
X128369620Y-141074645D01*
X128370988Y-141120740D01*
X128368058Y-141191952D01*
X128357654Y-141247067D01*
X128337184Y-141290585D01*
X128304054Y-141327007D01*
X128255671Y-141360831D01*
X128221627Y-141379954D01*
X128149266Y-141429275D01*
X128091752Y-141492865D01*
X128059121Y-141547208D01*
X128040566Y-141587404D01*
X128025882Y-141628667D01*
X128014444Y-141674545D01*
X128005630Y-141728586D01*
X127998816Y-141794338D01*
X127993378Y-141875348D01*
X127990221Y-141939349D01*
X127982594Y-142070496D01*
X127971779Y-142184261D01*
X127957018Y-142284287D01*
X127937556Y-142374217D01*
X127912634Y-142457697D01*
X127881496Y-142538369D01*
X127852837Y-142600807D01*
X127785656Y-142716722D01*
X127705158Y-142816213D01*
X127611320Y-142899293D01*
X127504121Y-142965976D01*
X127383536Y-143016277D01*
X127249544Y-143050209D01*
X127102120Y-143067787D01*
X127088898Y-143068531D01*
X127036171Y-143071093D01*
X127000200Y-143071917D01*
X126976604Y-143070387D01*
X126961002Y-143065888D01*
X126949013Y-143057804D01*
X126938086Y-143047350D01*
X126927943Y-143036668D01*
X126920657Y-143025765D01*
X126915757Y-143011158D01*
X126912769Y-142989370D01*
X126911219Y-142956920D01*
X126910637Y-142910329D01*
X126910547Y-142846117D01*
X126910547Y-142844705D01*
X126911018Y-142772686D01*
X126913089Y-142718955D01*
X126917747Y-142680644D01*
X126925981Y-142654883D01*
X126938778Y-142638803D01*
X126957126Y-142629535D01*
X126982012Y-142624210D01*
X126986686Y-142623529D01*
X127055985Y-142613406D01*
X127108507Y-142604636D01*
X127148515Y-142596268D01*
X127180273Y-142587352D01*
X127208044Y-142576936D01*
X127220774Y-142571326D01*
X127296454Y-142525844D01*
X127356841Y-142465822D01*
X127397049Y-142401231D01*
X127414686Y-142362350D01*
X127429625Y-142322641D01*
X127442244Y-142279644D01*
X127452919Y-142230900D01*
X127462026Y-142173952D01*
X127469943Y-142106341D01*
X127477046Y-142025607D01*
X127483711Y-141929293D01*
X127490316Y-141814940D01*
X127492141Y-141780599D01*
X127497762Y-141690492D01*
X127504386Y-141618324D01*
X127512391Y-141560877D01*
X127522155Y-141514935D01*
X127524269Y-141507140D01*
X127562587Y-141399669D01*
X127612546Y-141306607D01*
X127673041Y-141229698D01*
X127732271Y-141178080D01*
X127789997Y-141136743D01*
X127742803Y-141104273D01*
X127680857Y-141052095D01*
X127627396Y-140985660D01*
X127579828Y-140901716D01*
X127577506Y-140896891D01*
X127552730Y-140841398D01*
X127533517Y-140788569D01*
X127518937Y-140733911D01*
X127508058Y-140672928D01*
X127499949Y-140601128D01*
X127493679Y-140514016D01*
X127492014Y-140484141D01*
X127485309Y-140365057D01*
X127478641Y-140264654D01*
X127471624Y-140180451D01*
X127463875Y-140109965D01*
X127455010Y-140050716D01*
X127444646Y-140000222D01*
X127432398Y-139956002D01*
X127417884Y-139915573D01*
X127400719Y-139876455D01*
X127396763Y-139868218D01*
X127358095Y-139804048D01*
X127309477Y-139752208D01*
X127248714Y-139711439D01*
X127173613Y-139680480D01*
X127081981Y-139658071D01*
X127012406Y-139647481D01*
X126962731Y-139634278D01*
X126935677Y-139615940D01*
X126926289Y-139605699D01*
X126919587Y-139594394D01*
X126915120Y-139578510D01*
X126912434Y-139554532D01*
X126911079Y-139518943D01*
X126910601Y-139468228D01*
X126910547Y-139420516D01*
X126910661Y-139356839D01*
X126911312Y-139310802D01*
X126912969Y-139278878D01*
X126916098Y-139257542D01*
X126921164Y-139243267D01*
X126928637Y-139232526D01*
X126936524Y-139224243D01*
X126953682Y-139209977D01*
X126973532Y-139202099D01*
X127002799Y-139198828D01*
X127034420Y-139198328D01*
X127171907Y-139206891D01*
G37*
G36*
X124723363Y-138430017D02*
G01*
X124794837Y-138460876D01*
X124853147Y-138506373D01*
X124896902Y-138563556D01*
X124924708Y-138629473D01*
X124935173Y-138701173D01*
X124926904Y-138775704D01*
X124910145Y-138825856D01*
X124873285Y-138886659D01*
X124822164Y-138935867D01*
X124760790Y-138971688D01*
X124693174Y-138992327D01*
X124623324Y-138995993D01*
X124559801Y-138982571D01*
X124486960Y-138946661D01*
X124429618Y-138897431D01*
X124388955Y-138836656D01*
X124366150Y-138766111D01*
X124362384Y-138687571D01*
X124362523Y-138685777D01*
X124376938Y-138611594D01*
X124408384Y-138548441D01*
X124455616Y-138495369D01*
X124520388Y-138449348D01*
X124589751Y-138423790D01*
X124662839Y-138418908D01*
X124723363Y-138430017D01*
G37*
G36*
X123500783Y-139201260D02*
G01*
X123530135Y-139205747D01*
X123551999Y-139213556D01*
X123567470Y-139227519D01*
X123577645Y-139250470D01*
X123583619Y-139285242D01*
X123586489Y-139334668D01*
X123587350Y-139401581D01*
X123587381Y-139425135D01*
X123587091Y-139496528D01*
X123585053Y-139549734D01*
X123579509Y-139587734D01*
X123568703Y-139613507D01*
X123550877Y-139630034D01*
X123524277Y-139640294D01*
X123487144Y-139647269D01*
X123453770Y-139651814D01*
X123356587Y-139670183D01*
X123276191Y-139698153D01*
X123209896Y-139737023D01*
X123155019Y-139788094D01*
X123143451Y-139802056D01*
X123111354Y-139848788D01*
X123084808Y-139901894D01*
X123063254Y-139963791D01*
X123046135Y-140036899D01*
X123032892Y-140123634D01*
X123022968Y-140226416D01*
X123015805Y-140347662D01*
X123015382Y-140357141D01*
X123011319Y-140446507D01*
X123007595Y-140518098D01*
X123003852Y-140575291D01*
X122999736Y-140621466D01*
X122994889Y-140660001D01*
X122988956Y-140694277D01*
X122981581Y-140727671D01*
X122972670Y-140762581D01*
X122936760Y-140866881D01*
X122888388Y-140958802D01*
X122829110Y-141035863D01*
X122765896Y-141091780D01*
X122708408Y-141132946D01*
X122744209Y-141155072D01*
X122782619Y-141184524D01*
X122825153Y-141226107D01*
X122865826Y-141273357D01*
X122898651Y-141319808D01*
X122902158Y-141325670D01*
X122927311Y-141376924D01*
X122952094Y-141441567D01*
X122973948Y-141511939D01*
X122990314Y-141580375D01*
X122993985Y-141600682D01*
X122997840Y-141632077D01*
X123002150Y-141680296D01*
X123006604Y-141741011D01*
X123010892Y-141809891D01*
X123014703Y-141882610D01*
X123015609Y-141902307D01*
X123021975Y-142017726D01*
X123030216Y-142114817D01*
X123040809Y-142196372D01*
X123054233Y-142265182D01*
X123070966Y-142324040D01*
X123091486Y-142375739D01*
X123099569Y-142392494D01*
X123148493Y-142469545D01*
X123209258Y-142529522D01*
X123282782Y-142573049D01*
X123369982Y-142600752D01*
X123416931Y-142608608D01*
X123470502Y-142615576D01*
X123507301Y-142621274D01*
X123531583Y-142626841D01*
X123547604Y-142633420D01*
X123559621Y-142642151D01*
X123566483Y-142648701D01*
X123574256Y-142658072D01*
X123579832Y-142670451D01*
X123583570Y-142689213D01*
X123585831Y-142717732D01*
X123586974Y-142759382D01*
X123587358Y-142817540D01*
X123587381Y-142844705D01*
X123587275Y-142909384D01*
X123586661Y-142956360D01*
X123585090Y-142989095D01*
X123582115Y-143011053D01*
X123577288Y-143025698D01*
X123570163Y-143036491D01*
X123561403Y-143045788D01*
X123545957Y-143059069D01*
X123528710Y-143066758D01*
X123503695Y-143070225D01*
X123464944Y-143070842D01*
X123452924Y-143070718D01*
X123398671Y-143068307D01*
X123337372Y-143063025D01*
X123285143Y-143056418D01*
X123147454Y-143025907D01*
X123023288Y-142979217D01*
X122912539Y-142916250D01*
X122815106Y-142836910D01*
X122730884Y-142741098D01*
X122659771Y-142628718D01*
X122601664Y-142499671D01*
X122561476Y-142373266D01*
X122547841Y-142318750D01*
X122536971Y-142266731D01*
X122528335Y-142212961D01*
X122521404Y-142153193D01*
X122515646Y-142083181D01*
X122510534Y-141998678D01*
X122507696Y-141942213D01*
X122504015Y-141873636D01*
X122499802Y-141809243D01*
X122495385Y-141753174D01*
X122491094Y-141709569D01*
X122487258Y-141682568D01*
X122486918Y-141680967D01*
X122458695Y-141587179D01*
X122418406Y-141508893D01*
X122363596Y-141442758D01*
X122291813Y-141385418D01*
X122253355Y-141361613D01*
X122205099Y-141332357D01*
X122171719Y-141306592D01*
X122150317Y-141279275D01*
X122137998Y-141245363D01*
X122131864Y-141199812D01*
X122129266Y-141145599D01*
X122129012Y-141080001D01*
X122134211Y-141030869D01*
X122146596Y-140993833D01*
X122167896Y-140964523D01*
X122199842Y-140938568D01*
X122215191Y-140928641D01*
X122288873Y-140880924D01*
X122345985Y-140838446D01*
X122389429Y-140798139D01*
X122422103Y-140756936D01*
X122446908Y-140711767D01*
X122465276Y-140664057D01*
X122481757Y-140599775D01*
X122494714Y-140519407D01*
X122503568Y-140427824D01*
X122507741Y-140329900D01*
X122507988Y-140304224D01*
X122513336Y-140185797D01*
X122528006Y-140063248D01*
X122550846Y-139942352D01*
X122580704Y-139828884D01*
X122616427Y-139728619D01*
X122628117Y-139701975D01*
X122693966Y-139582831D01*
X122774118Y-139478717D01*
X122867687Y-139390396D01*
X122973788Y-139318631D01*
X123091536Y-139264187D01*
X123161842Y-139241655D01*
X123218447Y-139228490D01*
X123283647Y-139216996D01*
X123351328Y-139207901D01*
X123415374Y-139201933D01*
X123469673Y-139199822D01*
X123500783Y-139201260D01*
G37*
G36*
X123830811Y-141244313D02*
G01*
X123830797Y-141124432D01*
X123830846Y-140970126D01*
X123831013Y-140835442D01*
X123831326Y-140718839D01*
X123831814Y-140618773D01*
X123832507Y-140533701D01*
X123833432Y-140462079D01*
X123834620Y-140402365D01*
X123836098Y-140353016D01*
X123836620Y-140341266D01*
X124349910Y-140341266D01*
X125989797Y-140341266D01*
X125989797Y-140316500D01*
X125985745Y-140281158D01*
X125974843Y-140232807D01*
X125958975Y-140177722D01*
X125940023Y-140122175D01*
X125919872Y-140072440D01*
X125910861Y-140053523D01*
X125843533Y-139942843D01*
X125762016Y-139847529D01*
X125666926Y-139768194D01*
X125561172Y-139706540D01*
X125479385Y-139671752D01*
X125399300Y-139647698D01*
X125313197Y-139632491D01*
X125227001Y-139624970D01*
X125092112Y-139625392D01*
X124966653Y-139642971D01*
X124846979Y-139678218D01*
X124846797Y-139678286D01*
X124757233Y-139717666D01*
X124679339Y-139765563D01*
X124606375Y-139826542D01*
X124562672Y-139870758D01*
X124484761Y-139969650D01*
X124423294Y-140081848D01*
X124378295Y-140207299D01*
X124355919Y-140306870D01*
X124349910Y-140341266D01*
X123836620Y-140341266D01*
X123837897Y-140312487D01*
X123840043Y-140279237D01*
X123842568Y-140251721D01*
X123845498Y-140228398D01*
X123847850Y-140213485D01*
X123884992Y-140055316D01*
X123940501Y-139905831D01*
X124013579Y-139766543D01*
X124103431Y-139638965D01*
X124209260Y-139524611D01*
X124211484Y-139522516D01*
X124334876Y-139420926D01*
X124469981Y-139336913D01*
X124616634Y-139270537D01*
X124774668Y-139221860D01*
X124943915Y-139190941D01*
X125124208Y-139177841D01*
X125169589Y-139177355D01*
X125323352Y-139182637D01*
X125463026Y-139198862D01*
X125593211Y-139227032D01*
X125718506Y-139268149D01*
X125843509Y-139323214D01*
X125846922Y-139324903D01*
X125948043Y-139379210D01*
X126034082Y-139435175D01*
X126110958Y-139497076D01*
X126183268Y-139567779D01*
X126281753Y-139685796D01*
X126362995Y-139813339D01*
X126427956Y-139952278D01*
X126477598Y-140104482D01*
X126493917Y-140171932D01*
X126497495Y-140189307D01*
X126500614Y-140207672D01*
X126503307Y-140228526D01*
X126505605Y-140253369D01*
X126507538Y-140283701D01*
X126509138Y-140321023D01*
X126510435Y-140366833D01*
X126511461Y-140422632D01*
X126512248Y-140489920D01*
X126512825Y-140570197D01*
X126513225Y-140664962D01*
X126513478Y-140775715D01*
X126513615Y-140903957D01*
X126513668Y-141051187D01*
X126513672Y-141124432D01*
X126513645Y-141280945D01*
X126513544Y-141417787D01*
X126513339Y-141536450D01*
X126512998Y-141638431D01*
X126512493Y-141725224D01*
X126511791Y-141798324D01*
X126510864Y-141859224D01*
X126509680Y-141909420D01*
X126508210Y-141950406D01*
X126506422Y-141983678D01*
X126504287Y-142010728D01*
X126501774Y-142033053D01*
X126498852Y-142052147D01*
X126495492Y-142069504D01*
X126494355Y-142074774D01*
X126449000Y-142236579D01*
X126387025Y-142386529D01*
X126309031Y-142523807D01*
X126215621Y-142647596D01*
X126107399Y-142757079D01*
X125984967Y-142851438D01*
X125872369Y-142918008D01*
X125773720Y-142963447D01*
X125664531Y-143003950D01*
X125555395Y-143035746D01*
X125516366Y-143044714D01*
X125479869Y-143051038D01*
X125430070Y-143057839D01*
X125372178Y-143064607D01*
X125311398Y-143070829D01*
X125252940Y-143075992D01*
X125202009Y-143079584D01*
X125163814Y-143081092D01*
X125149531Y-143080809D01*
X125129474Y-143079342D01*
X125094345Y-143076697D01*
X125050172Y-143073330D01*
X125026714Y-143071528D01*
X124856395Y-143048960D01*
X124695616Y-143008648D01*
X124545338Y-142951309D01*
X124406526Y-142877659D01*
X124280143Y-142788416D01*
X124167151Y-142684297D01*
X124068515Y-142566018D01*
X123985197Y-142434298D01*
X123918161Y-142289852D01*
X123896694Y-142230391D01*
X123885104Y-142195253D01*
X123874959Y-142162739D01*
X123866163Y-142131235D01*
X123858619Y-142099125D01*
X123852232Y-142064796D01*
X123846906Y-142026634D01*
X123843468Y-141992266D01*
X124367842Y-141992266D01*
X124374880Y-142036281D01*
X124392461Y-142103298D01*
X124423477Y-142177952D01*
X124464777Y-142254731D01*
X124513210Y-142328125D01*
X124565624Y-142392622D01*
X124596271Y-142423472D01*
X124686426Y-142493351D01*
X124790436Y-142551299D01*
X124903151Y-142594706D01*
X124967534Y-142611555D01*
X125022682Y-142619817D01*
X125091953Y-142624671D01*
X125168581Y-142626131D01*
X125245801Y-142624216D01*
X125316849Y-142618942D01*
X125373764Y-142610570D01*
X125499562Y-142574852D01*
X125613470Y-142521761D01*
X125715047Y-142451595D01*
X125803854Y-142364650D01*
X125869801Y-142276491D01*
X125894487Y-142234125D01*
X125919502Y-142184093D01*
X125942662Y-142131646D01*
X125961787Y-142082037D01*
X125974695Y-142040515D01*
X125979214Y-142013127D01*
X125978832Y-142009254D01*
X125976754Y-142005892D01*
X125971579Y-142003005D01*
X125961906Y-142000558D01*
X125946337Y-141998514D01*
X125923469Y-141996837D01*
X125891904Y-141995490D01*
X125850241Y-141994438D01*
X125797080Y-141993644D01*
X125731021Y-141993071D01*
X125650662Y-141992684D01*
X125554605Y-141992446D01*
X125441449Y-141992321D01*
X125309794Y-141992273D01*
X125173528Y-141992266D01*
X124367842Y-141992266D01*
X123843468Y-141992266D01*
X123842543Y-141983024D01*
X123839049Y-141932352D01*
X123836326Y-141873003D01*
X123834279Y-141803365D01*
X123832811Y-141721821D01*
X123831827Y-141626758D01*
X123831229Y-141516562D01*
X123831100Y-141463099D01*
X124349381Y-141463099D01*
X126000381Y-141463099D01*
X126000381Y-140881016D01*
X124349381Y-140881016D01*
X124349381Y-141463099D01*
X123831100Y-141463099D01*
X123830923Y-141389619D01*
X123830811Y-141244313D01*
G37*
G36*
X125761637Y-138423223D02*
G01*
X125830977Y-138442288D01*
X125894840Y-138478925D01*
X125941224Y-138522693D01*
X125982354Y-138585950D01*
X126004683Y-138655262D01*
X126008314Y-138727169D01*
X125993353Y-138798212D01*
X125959906Y-138864932D01*
X125929657Y-138902902D01*
X125869392Y-138952844D01*
X125801073Y-138983948D01*
X125727413Y-138995600D01*
X125651128Y-138987183D01*
X125611918Y-138974902D01*
X125553180Y-138941716D01*
X125502206Y-138892700D01*
X125462309Y-138832717D01*
X125436800Y-138766628D01*
X125428881Y-138706140D01*
X125436954Y-138647616D01*
X125458739Y-138586597D01*
X125490583Y-138532695D01*
X125498621Y-138522693D01*
X125555313Y-138471466D01*
X125620350Y-138437812D01*
X125690277Y-138421731D01*
X125761637Y-138423223D01*
G37*
%TO.C,RV1*%
X113630000Y-100630000D02*
X113630000Y-101760000D01*
X118370000Y-105370000D02*
X113630000Y-105370000D01*
X118370000Y-100630000D02*
X118370000Y-100961000D01*
X113630000Y-104240000D02*
X113630000Y-105370000D01*
X118370000Y-105040000D02*
X118370000Y-105370000D01*
X118370000Y-100630000D02*
X113630000Y-100630000D01*
X118370000Y-102741000D02*
X118370000Y-103260000D01*
%TO.C,R12*%
X119522500Y-86512742D02*
X119522500Y-86987258D01*
X118477500Y-86512742D02*
X118477500Y-86987258D01*
%TO.C,R5*%
X120522500Y-98987258D02*
X120522500Y-98512742D01*
X119477500Y-98987258D02*
X119477500Y-98512742D01*
%TO.C,TP12*%
X107300000Y-125700000D02*
X107300000Y-121300000D01*
X111700000Y-121300000D02*
X111700000Y-125700000D01*
X107300000Y-121300000D02*
X111700000Y-121300000D01*
X111700000Y-125700000D02*
X107300000Y-125700000D01*
%TO.C,J8*%
X105910000Y-78177500D02*
X105910000Y-73917500D01*
X99000000Y-78897500D02*
X98500000Y-78397500D01*
X98500000Y-78397500D02*
X98000000Y-78897500D01*
X105910000Y-61457500D02*
X105910000Y-69817500D01*
X93590000Y-69817500D02*
X93590000Y-61457500D01*
X98000000Y-78897500D02*
X99000000Y-78897500D01*
X93590000Y-61457500D02*
X105910000Y-61457500D01*
X93590000Y-78177500D02*
X105910000Y-78177500D01*
X93590000Y-73917500D02*
X93590000Y-78177500D01*
%TO.C,C16*%
X113760000Y-86609420D02*
X113760000Y-86890580D01*
X112740000Y-86609420D02*
X112740000Y-86890580D01*
%TO.C,R13*%
X122590000Y-80772936D02*
X122590000Y-82227064D01*
X124410000Y-80772936D02*
X124410000Y-82227064D01*
%TO.C,C17*%
X87910000Y-99788748D02*
X87910000Y-101211252D01*
X86090000Y-99788748D02*
X86090000Y-101211252D01*
%TO.C,C18*%
X94910000Y-105961252D02*
X94910000Y-104538748D01*
X93090000Y-105961252D02*
X93090000Y-104538748D01*
%TO.C,C10*%
X116240000Y-108390580D02*
X116240000Y-108109420D01*
X117260000Y-108390580D02*
X117260000Y-108109420D01*
%TO.C,R11*%
X120227500Y-86987258D02*
X120227500Y-86512742D01*
X121272500Y-86987258D02*
X121272500Y-86512742D01*
%TO.C,PS1*%
X84210000Y-92890000D02*
X77290000Y-92890000D01*
X77290000Y-112110000D02*
X84210000Y-112110000D01*
X78240000Y-92590000D02*
X76990000Y-92590000D01*
X77290000Y-92890000D02*
X77290000Y-112110000D01*
X84210000Y-112110000D02*
X84210000Y-92890000D01*
X76990000Y-92590000D02*
X76990000Y-93840000D01*
%TO.C,R2*%
X122272500Y-98987258D02*
X122272500Y-98512742D01*
X121227500Y-98987258D02*
X121227500Y-98512742D01*
%TO.C,R8*%
X115522500Y-86987258D02*
X115522500Y-86512742D01*
X114477500Y-86987258D02*
X114477500Y-86512742D01*
%TO.C,L1*%
X88000000Y-73750000D02*
X84000000Y-73750000D01*
D10*
X83500000Y-72500000D02*
X83500000Y-69500000D01*
X88500000Y-72500000D02*
X88500000Y-69500000D01*
X88500000Y-73500000D02*
X83500000Y-73500000D01*
X88500000Y-68500000D02*
X83500000Y-68500000D01*
D11*
%TO.C,GD1*%
X124500000Y-74250000D02*
X127000000Y-74250000D01*
X124500000Y-78750000D02*
X127000000Y-78750000D01*
%TO.C,U5*%
X93190000Y-125110000D02*
X93190000Y-124880000D01*
X93190000Y-120390000D02*
X95910000Y-120390000D01*
X95910000Y-120390000D02*
X95910000Y-121700000D01*
X92050000Y-120620000D02*
X93190000Y-120620000D01*
X95910000Y-123800000D02*
X95910000Y-125110000D01*
X93190000Y-120390000D02*
X93190000Y-120620000D01*
X95910000Y-125110000D02*
X93190000Y-125110000D01*
%TO.C,C6*%
X112490000Y-94109420D02*
X112490000Y-94390580D01*
X113510000Y-94109420D02*
X113510000Y-94390580D01*
%TO.C,C7*%
X87910000Y-105961252D02*
X87910000Y-104538748D01*
X86090000Y-105961252D02*
X86090000Y-104538748D01*
%TO.C,R3*%
X122977500Y-98987258D02*
X122977500Y-98512742D01*
X124022500Y-98987258D02*
X124022500Y-98512742D01*
D10*
%TO.C,D6*%
X86800000Y-142300000D02*
X86800000Y-135900000D01*
X86800000Y-135900000D02*
X82200000Y-135900000D01*
X82200000Y-135900000D02*
X82200000Y-142300000D01*
X82200000Y-142300000D02*
X86800000Y-142300000D01*
D11*
%TO.C,L4*%
X89897936Y-106110000D02*
X91102064Y-106110000D01*
X89897936Y-103390000D02*
X91102064Y-103390000D01*
%TO.C,C29*%
X93288748Y-118090000D02*
X94711252Y-118090000D01*
X93288748Y-119910000D02*
X94711252Y-119910000D01*
%TO.C,U2*%
X122810000Y-92750000D02*
X122810000Y-90800000D01*
X117690000Y-92750000D02*
X117690000Y-96200000D01*
X122810000Y-92750000D02*
X122810000Y-94700000D01*
X117690000Y-92750000D02*
X117690000Y-90800000D01*
%TO.C,FB2*%
X95690000Y-104350378D02*
X95690000Y-105149622D01*
X96810000Y-104350378D02*
X96810000Y-105149622D01*
%TO.C,U4*%
X85840000Y-120390000D02*
X88560000Y-120390000D01*
X89700000Y-124880000D02*
X88560000Y-124880000D01*
X85840000Y-125110000D02*
X85840000Y-123800000D01*
X88560000Y-125110000D02*
X88560000Y-124880000D01*
X88560000Y-125110000D02*
X85840000Y-125110000D01*
X85840000Y-121700000D02*
X85840000Y-120390000D01*
X88560000Y-120390000D02*
X88560000Y-120620000D01*
%TO.C,R4*%
X104977500Y-86512742D02*
X104977500Y-86987258D01*
X106022500Y-86512742D02*
X106022500Y-86987258D01*
%TO.C,C11*%
X123750000Y-108086433D02*
X123750000Y-107750000D01*
X123750000Y-104413567D02*
X123750000Y-104750000D01*
X123750000Y-108086433D02*
G75*
G03*
X128750000Y-108086433I2500000J1836434D01*
G01*
X128750000Y-104413567D02*
G75*
G03*
X123750000Y-104413567I-2500000J-1836434D01*
G01*
%TO.C,C19*%
X123010000Y-86890580D02*
X123010000Y-86609420D01*
X121990000Y-86890580D02*
X121990000Y-86609420D01*
%TO.C,R14*%
X115977500Y-98512742D02*
X115977500Y-98987258D01*
X117022500Y-98512742D02*
X117022500Y-98987258D01*
%TO.C,D2*%
X126500000Y-98650000D02*
X129050000Y-98650000D01*
X126500000Y-100350000D02*
X129050000Y-100350000D01*
X126500000Y-98650000D02*
X126500000Y-100350000D01*
%TO.C,J7*%
X120150000Y-67150000D02*
X120150000Y-70350000D01*
X122450000Y-71950000D02*
X125050000Y-71950000D01*
X127350000Y-67150000D02*
X127350000Y-70350000D01*
X121950000Y-65070000D02*
X125550000Y-65070000D01*
%TO.C,C1*%
X114490000Y-108390580D02*
X114490000Y-108109420D01*
X115510000Y-108390580D02*
X115510000Y-108109420D01*
%TO.C,C13*%
X123240000Y-94359420D02*
X123240000Y-94640580D01*
X124260000Y-94359420D02*
X124260000Y-94640580D01*
%TO.C,F1*%
X87147936Y-82090000D02*
X88352064Y-82090000D01*
X87147936Y-83910000D02*
X88352064Y-83910000D01*
%TO.C,C8*%
X93090000Y-110711252D02*
X93090000Y-109288748D01*
X94910000Y-110711252D02*
X94910000Y-109288748D01*
%TO.C,D11*%
X91050000Y-84600000D02*
X85350000Y-84600000D01*
X91050000Y-88900000D02*
X91050000Y-84600000D01*
X91050000Y-88900000D02*
X85350000Y-88900000D01*
%TD*%
M02*
