M48
; DRILL file {KiCad 6.0.8-f2edbf62ab~116~ubuntu20.04.1} date Sun 13 Nov 2022 07:06:13 PM PST
; FORMAT={-:-/ absolute / inch / decimal}
; #@! TF.CreationDate,2022-11-13T19:06:13-08:00
; #@! TF.GenerationSoftware,Kicad,Pcbnew,6.0.8-f2edbf62ab~116~ubuntu20.04.1
; #@! TF.FileFunction,MixedPlating,1,4
FMAT,2
INCH
; #@! TA.AperFunction,Plated,PTH,ViaDrill
T1C0.0118
; #@! TA.AperFunction,Plated,PTH,ComponentDrill
T2C0.0335
; #@! TA.AperFunction,Plated,PTH,ComponentDrill
T3C0.0354
; #@! TA.AperFunction,Plated,PTH,ComponentDrill
T4C0.0362
; #@! TA.AperFunction,Plated,PTH,ComponentDrill
T5C0.0394
; #@! TA.AperFunction,Plated,PTH,ComponentDrill
T6C0.0472
; #@! TA.AperFunction,Plated,PTH,ComponentDrill
T7C0.0591
; #@! TA.AperFunction,Plated,PTH,ComponentDrill
T8C0.0917
; #@! TA.AperFunction,NonPlated,NPTH,ComponentDrill
T9C0.0454
%
G90
G05
T1
X3.0374Y-3.6555
X3.0433Y-2.8287
X3.0433Y-3.5413
X3.0453Y-3.7539
X3.0512Y-5.1378
X3.061Y-4.0354
X3.063Y-3.1339
X3.0669Y-3.878
X3.0709Y-4.3602
X3.0846Y-3.0039
X3.0906Y-4.2224
X3.0906Y-4.7047
X3.1575Y-3.5295
X3.1594Y-4.5472
X3.1614Y-4.1516
X3.1673Y-3.8406
X3.1732Y-3.0039
X3.1791Y-3.8937
X3.2539Y-2.5709
X3.2559Y-2.7205
X3.2598Y-2.7657
X3.2677Y-3.4783
X3.2795Y-2.9705
X3.2854Y-3.4173
X3.2953Y-3.2244
X3.2992Y-2.6535
X3.3169Y-4.9409
X3.3169Y-5.0197
X3.3268Y-4.8031
X3.3268Y-4.8327
X3.3268Y-4.8622
X3.3287Y-2.9547
X3.3287Y-3.0236
X3.3327Y-3.3406
X3.3366Y-4.6949
X3.3563Y-3.8543
X3.3563Y-4.1634
X3.3563Y-4.5768
X3.3563Y-4.9803
X3.3602Y-3.8937
X3.3858Y-4.2323
X3.4154Y-4.7835
X3.4154Y-4.8819
X3.4213Y-3.1575
X3.4252Y-4.5079
X3.4744Y-4.2323
X3.5118Y-5.0316
X3.5157Y-3.874
X3.5276Y-3.5335
X3.5335Y-4.2323
X3.5374Y-3.8996
X3.5531Y-3.2717
X3.5531Y-4.8327
X3.5591Y-3.4783
X3.561Y-3.5315
X3.561Y-3.874
X3.5827Y-4.685
X3.5925Y-4.0157
X3.6024Y-4.2323
X3.6319Y-4.2618
X3.6417Y-4.2323
X3.6417Y-5.0413
X3.7106Y-3.3661
X3.7106Y-3.7106
X3.7106Y-3.8287
X3.7106Y-4.0059
X3.7303Y-5.0787
X3.75Y-5.0394
X3.7795Y-5.0787
X3.7894Y-3.2087
X3.7992Y-5.5118
X3.8189Y-4.8031
X3.8189Y-4.8327
X3.8189Y-4.8622
X3.8386Y-5.2953
X3.9075Y-4.4685
X3.9665Y-4.4488
X3.9665Y-4.5768
X4.0157Y-5.1673
X4.0256Y-3.9567
X4.0256Y-4.1043
X4.0354Y-3.8484
X4.0453Y-3.2087
X4.0453Y-5.7185
X4.1634Y-4.2815
X4.1732Y-3.5118
X4.1732Y-3.6339
X4.2224Y-3.6319
X4.2323Y-3.9567
X4.252Y-4.5472
X4.252Y-4.6654
X4.252Y-4.8031
X4.252Y-4.9213
X4.2618Y-4.3406
X4.311Y-3.2087
X4.3307Y-4.0748
X4.3366Y-3.7913
X4.3701Y-4.5472
X4.3701Y-4.6654
X4.3701Y-4.8031
X4.3701Y-4.9213
X4.3898Y-3.3543
X4.4094Y-3.0315
X4.4193Y-4.0551
X4.4488Y-3.6496
X4.4488Y-3.7717
X4.4587Y-3.8976
X4.4882Y-3.5827
X4.498Y-3.6909
X4.5177Y-3.248
X4.5472Y-3.622
X4.5571Y-2.874
X4.5846Y-3.7756
X4.5965Y-3.5217
X4.5965Y-3.6437
X4.6457Y-5.5413
X4.7047Y-4.7343
X4.7047Y-5.0394
X4.7244Y-4.7087
X4.7343Y-5.0059
X4.7539Y-3.3543
X4.7539Y-4.7343
X4.7539Y-5.4035
X4.7598Y-3.8307
X4.7736Y-5.0295
X4.813Y-4.9705
X4.8228Y-3.3543
X4.8622Y-3.9488
X4.872Y-3.6594
X4.872Y-3.7815
X4.9016Y-5.2264
X4.9213Y-3.6909
X4.9606Y-4.498
X4.9705Y-3.1988
X5.0394Y-3.622
X5.1063Y-3.8386
X5.1063Y-3.9173
X5.1083Y-2.9528
X5.1083Y-3.0118
X5.1083Y-3.0906
X5.1378Y-5.7087
X5.1476Y-4.4882
X5.1772Y-3.5138
X5.1772Y-3.7402
X5.1772Y-4.0453
T2
X3.2618Y-3.7516
X3.2618Y-3.8516
X3.2618Y-4.0516
X3.2618Y-4.1516
X3.2618Y-4.2516
T3
X3.2768Y-5.4291
X3.3768Y-5.4291
T4
X3.878Y-2.9361
X3.878Y-3.0149
X3.9764Y-2.9361
X3.9764Y-3.0149
T5
X4.4882Y-2.6969
X5.0886Y-4.685
T6
X4.872Y-4.1831
X5.0689Y-4.1831
T7
X4.772Y-2.6067
X4.772Y-2.8067
X4.872Y-2.7067
X4.972Y-2.6067
X4.972Y-2.8067
T8
X3.6902Y-2.8294
X4.1642Y-2.8294
T9
X3.1063Y-2.6398
X3.1063Y-5.6575
X5.0984Y-5.2028
X5.1378Y-2.6004
T0
M30
