%TF.GenerationSoftware,KiCad,Pcbnew,6.0.8-f2edbf62ab~116~ubuntu20.04.1*%
%TF.CreationDate,2022-11-09T00:06:36-08:00*%
%TF.ProjectId,packaged-amp,7061636b-6167-4656-942d-616d702e6b69,rev?*%
%TF.SameCoordinates,Original*%
%TF.FileFunction,Soldermask,Top*%
%TF.FilePolarity,Negative*%
%FSLAX46Y46*%
G04 Gerber Fmt 4.6, Leading zero omitted, Abs format (unit mm)*
G04 Created by KiCad (PCBNEW 6.0.8-f2edbf62ab~116~ubuntu20.04.1) date 2022-11-09 00:06:36*
%MOMM*%
%LPD*%
G01*
G04 APERTURE LIST*
G04 Aperture macros list*
%AMRoundRect*
0 Rectangle with rounded corners*
0 $1 Rounding radius*
0 $2 $3 $4 $5 $6 $7 $8 $9 X,Y pos of 4 corners*
0 Add a 4 corners polygon primitive as box body*
4,1,4,$2,$3,$4,$5,$6,$7,$8,$9,$2,$3,0*
0 Add four circle primitives for the rounded corners*
1,1,$1+$1,$2,$3*
1,1,$1+$1,$4,$5*
1,1,$1+$1,$6,$7*
1,1,$1+$1,$8,$9*
0 Add four rect primitives between the rounded corners*
20,1,$1+$1,$2,$3,$4,$5,0*
20,1,$1+$1,$4,$5,$6,$7,0*
20,1,$1+$1,$6,$7,$8,$9,0*
20,1,$1+$1,$8,$9,$2,$3,0*%
%AMFreePoly0*
4,1,7,1.950000,-0.020000,1.950000,-0.800000,-1.950000,-0.800000,-1.950000,-0.020000,-1.250000,0.800000,1.250000,0.800000,1.950000,-0.020000,1.950000,-0.020000,$1*%
%AMFreePoly1*
4,1,9,3.862500,-0.866500,0.737500,-0.866500,0.737500,-0.450000,-0.737500,-0.450000,-0.737500,0.450000,0.737500,0.450000,0.737500,0.866500,3.862500,0.866500,3.862500,-0.866500,3.862500,-0.866500,$1*%
G04 Aperture macros list end*
%ADD10C,0.000000*%
%ADD11RoundRect,0.200000X0.275000X-0.200000X0.275000X0.200000X-0.275000X0.200000X-0.275000X-0.200000X0*%
%ADD12RoundRect,0.250000X0.325000X0.650000X-0.325000X0.650000X-0.325000X-0.650000X0.325000X-0.650000X0*%
%ADD13C,1.500000*%
%ADD14R,1.300000X1.300000*%
%ADD15R,2.000000X1.300000*%
%ADD16RoundRect,0.250000X-0.625000X0.312500X-0.625000X-0.312500X0.625000X-0.312500X0.625000X0.312500X0*%
%ADD17RoundRect,0.200000X-0.275000X0.200000X-0.275000X-0.200000X0.275000X-0.200000X0.275000X0.200000X0*%
%ADD18RoundRect,0.200000X-0.200000X-0.275000X0.200000X-0.275000X0.200000X0.275000X-0.200000X0.275000X0*%
%ADD19RoundRect,0.200000X0.200000X0.275000X-0.200000X0.275000X-0.200000X-0.275000X0.200000X-0.275000X0*%
%ADD20R,2.500000X2.300000*%
%ADD21R,0.600000X0.450000*%
%ADD22RoundRect,0.225000X0.225000X0.250000X-0.225000X0.250000X-0.225000X-0.250000X0.225000X-0.250000X0*%
%ADD23RoundRect,0.225000X-0.250000X0.225000X-0.250000X-0.225000X0.250000X-0.225000X0.250000X0.225000X0*%
%ADD24RoundRect,0.250000X-0.325000X-0.650000X0.325000X-0.650000X0.325000X0.650000X-0.325000X0.650000X0*%
%ADD25C,2.400000*%
%ADD26RoundRect,0.250000X-0.650000X0.325000X-0.650000X-0.325000X0.650000X-0.325000X0.650000X0.325000X0*%
%ADD27R,0.700000X1.400000*%
%ADD28R,1.700000X1.000000*%
%ADD29RoundRect,0.218750X-0.218750X-0.381250X0.218750X-0.381250X0.218750X0.381250X-0.218750X0.381250X0*%
%ADD30RoundRect,0.150000X0.150000X-0.825000X0.150000X0.825000X-0.150000X0.825000X-0.150000X-0.825000X0*%
%ADD31RoundRect,0.225000X0.250000X-0.225000X0.250000X0.225000X-0.250000X0.225000X-0.250000X-0.225000X0*%
%ADD32R,0.500000X0.500000*%
%ADD33RoundRect,0.250000X0.650000X-0.325000X0.650000X0.325000X-0.650000X0.325000X-0.650000X-0.325000X0*%
%ADD34R,4.000000X4.000000*%
%ADD35RoundRect,0.218750X0.218750X0.381250X-0.218750X0.381250X-0.218750X-0.381250X0.218750X-0.381250X0*%
%ADD36FreePoly0,0.000000*%
%ADD37FreePoly0,180.000000*%
%ADD38C,2.000000*%
%ADD39RoundRect,0.250000X0.375000X0.625000X-0.375000X0.625000X-0.375000X-0.625000X0.375000X-0.625000X0*%
%ADD40R,1.700000X1.700000*%
%ADD41C,1.700000*%
%ADD42C,3.500000*%
%ADD43RoundRect,0.250000X-0.450000X0.262500X-0.450000X-0.262500X0.450000X-0.262500X0.450000X0.262500X0*%
%ADD44RoundRect,0.225000X-0.225000X-0.250000X0.225000X-0.250000X0.225000X0.250000X-0.225000X0.250000X0*%
%ADD45RoundRect,0.250000X0.262500X0.450000X-0.262500X0.450000X-0.262500X-0.450000X0.262500X-0.450000X0*%
%ADD46R,1.500000X4.200000*%
%ADD47R,1.300000X0.900000*%
%ADD48FreePoly1,0.000000*%
%ADD49FreePoly1,180.000000*%
%ADD50RoundRect,0.150000X0.150000X-0.512500X0.150000X0.512500X-0.150000X0.512500X-0.150000X-0.512500X0*%
%ADD51C,2.250000*%
G04 APERTURE END LIST*
D10*
G36*
X181500000Y-135250000D02*
G01*
X180500000Y-136250000D01*
X178500000Y-136250000D01*
X177500000Y-135250000D01*
X177500000Y-131750000D01*
X181500000Y-131750000D01*
X181500000Y-135250000D01*
G37*
G36*
X181500000Y-142750000D02*
G01*
X180500000Y-143750000D01*
X178500000Y-143750000D01*
X177500000Y-142750000D01*
X177500000Y-139250000D01*
X181500000Y-139250000D01*
X181500000Y-142750000D01*
G37*
%TO.C,E2*%
G36*
X175000000Y-142000000D02*
G01*
X176500000Y-142000000D01*
X176500000Y-139500000D01*
X175000000Y-139500000D01*
X175000000Y-142000000D01*
G37*
%TO.C,E1*%
G36*
X175000000Y-135250000D02*
G01*
X176500000Y-135250000D01*
X176500000Y-132750000D01*
X175000000Y-132750000D01*
X175000000Y-135250000D01*
G37*
%TD*%
D11*
%TO.C,R1*%
X175750000Y-129575000D03*
X175750000Y-127925000D03*
%TD*%
D12*
%TO.C,C7*%
X154525000Y-118750000D03*
X157475000Y-118750000D03*
%TD*%
D13*
%TO.C,D6*%
X163770000Y-154500000D03*
X161230000Y-154500000D03*
%TD*%
D14*
%TO.C,RV1*%
X182400000Y-118000000D03*
D15*
X181250000Y-123500000D03*
D14*
X180100000Y-118000000D03*
%TD*%
D11*
%TO.C,R25*%
X157750000Y-153575000D03*
X157750000Y-151925000D03*
%TD*%
D16*
%TO.C,R21*%
X182500000Y-92287500D03*
X182500000Y-95212500D03*
%TD*%
D17*
%TO.C,R20*%
X181250000Y-102675000D03*
X181250000Y-104325000D03*
%TD*%
%TO.C,R9*%
X175750000Y-103175000D03*
X175750000Y-104825000D03*
%TD*%
D18*
%TO.C,R8*%
X181175000Y-99500000D03*
X182825000Y-99500000D03*
%TD*%
D19*
%TO.C,R7*%
X174075000Y-101750000D03*
X172425000Y-101750000D03*
%TD*%
D11*
%TO.C,R6*%
X177000000Y-116075000D03*
X177000000Y-114425000D03*
%TD*%
D20*
%TO.C,D11*%
X158350000Y-112000000D03*
X162650000Y-112000000D03*
%TD*%
D21*
%TO.C,D5*%
X157950000Y-132350000D03*
X160050000Y-132350000D03*
%TD*%
%TO.C,D4*%
X160050000Y-130400000D03*
X157950000Y-130400000D03*
%TD*%
%TO.C,D3*%
X160050000Y-128450000D03*
X157950000Y-128450000D03*
%TD*%
D22*
%TO.C,C17*%
X181225000Y-101000000D03*
X182775000Y-101000000D03*
%TD*%
D23*
%TO.C,C16*%
X177500000Y-103225000D03*
X177500000Y-104775000D03*
%TD*%
D24*
%TO.C,C15*%
X171025000Y-104000000D03*
X173975000Y-104000000D03*
%TD*%
D25*
%TO.C,C11*%
X189000000Y-128750000D03*
X189000000Y-123750000D03*
%TD*%
D23*
%TO.C,C4*%
X178750000Y-114475000D03*
X178750000Y-116025000D03*
%TD*%
D24*
%TO.C,C3*%
X155025000Y-134500000D03*
X157975000Y-134500000D03*
%TD*%
D26*
%TO.C,C2*%
X165000000Y-128525000D03*
X165000000Y-131475000D03*
%TD*%
D27*
%TO.C,L2*%
X162250000Y-100700000D03*
D28*
X161750000Y-101800000D03*
X161750000Y-103700000D03*
D27*
X162250000Y-104800000D03*
D28*
X158750000Y-101800000D03*
D27*
X158250000Y-100700000D03*
D28*
X158750000Y-103700000D03*
D27*
X158250000Y-104800000D03*
%TD*%
D23*
%TO.C,C5*%
X170250000Y-106975000D03*
X170250000Y-108525000D03*
%TD*%
D29*
%TO.C,FB3*%
X164687500Y-126750000D03*
X166812500Y-126750000D03*
%TD*%
D30*
%TO.C,U1*%
X171845000Y-111975000D03*
X173115000Y-111975000D03*
X174385000Y-111975000D03*
X175655000Y-111975000D03*
X175655000Y-107025000D03*
X174385000Y-107025000D03*
X173115000Y-107025000D03*
X171845000Y-107025000D03*
%TD*%
D31*
%TO.C,C9*%
X182750000Y-127775000D03*
X182750000Y-126225000D03*
%TD*%
D32*
%TO.C,D1*%
X192600000Y-120000000D03*
X190400000Y-120000000D03*
%TD*%
D12*
%TO.C,C31*%
X154775000Y-147500000D03*
X157725000Y-147500000D03*
%TD*%
D33*
%TO.C,C23*%
X155750000Y-131475000D03*
X155750000Y-128525000D03*
%TD*%
D34*
%TO.C,TP11*%
X185000000Y-134000000D03*
%TD*%
D17*
%TO.C,R10*%
X188250000Y-102675000D03*
X188250000Y-104325000D03*
%TD*%
%TO.C,R16*%
X166000000Y-119925000D03*
X166000000Y-121575000D03*
%TD*%
D22*
%TO.C,C14*%
X183775000Y-114500000D03*
X182225000Y-114500000D03*
%TD*%
D35*
%TO.C,FB4*%
X159812500Y-136750000D03*
X157687500Y-136750000D03*
%TD*%
D36*
%TO.C,L1*%
X157750000Y-123300000D03*
D37*
X157750000Y-126200000D03*
%TD*%
D38*
%TO.C,TP4*%
X175500000Y-90500000D03*
%TD*%
D12*
%TO.C,C30*%
X163525000Y-147500000D03*
X166475000Y-147500000D03*
%TD*%
D39*
%TO.C,F1*%
X161400000Y-108000000D03*
X158600000Y-108000000D03*
%TD*%
D12*
%TO.C,C28*%
X163525000Y-139500000D03*
X166475000Y-139500000D03*
%TD*%
D11*
%TO.C,R15*%
X164500000Y-121575000D03*
X164500000Y-119925000D03*
%TD*%
D23*
%TO.C,C12*%
X180500000Y-106975000D03*
X180500000Y-108525000D03*
%TD*%
D24*
%TO.C,C20*%
X159275000Y-120750000D03*
X162225000Y-120750000D03*
%TD*%
D17*
%TO.C,R12*%
X183000000Y-102675000D03*
X183000000Y-104325000D03*
%TD*%
D18*
%TO.C,R5*%
X182175000Y-116250000D03*
X183825000Y-116250000D03*
%TD*%
D34*
%TO.C,TP12*%
X185000000Y-140500000D03*
%TD*%
D40*
%TO.C,J8*%
X161000000Y-95577500D03*
D41*
X163500000Y-95577500D03*
X163500000Y-93577500D03*
X161000000Y-93577500D03*
D42*
X168270000Y-90867500D03*
X156230000Y-90867500D03*
%TD*%
D43*
%TO.C,R19*%
X155000000Y-99337500D03*
X155000000Y-101162500D03*
%TD*%
D44*
%TO.C,C22*%
X164725000Y-123500000D03*
X166275000Y-123500000D03*
%TD*%
D16*
%TO.C,R13*%
X185000000Y-92287500D03*
X185000000Y-95212500D03*
%TD*%
D26*
%TO.C,C25*%
X162500000Y-128525000D03*
X162500000Y-131475000D03*
%TD*%
D31*
%TO.C,C10*%
X181000000Y-126225000D03*
X181000000Y-127775000D03*
%TD*%
D11*
%TO.C,R11*%
X184750000Y-104325000D03*
X184750000Y-102675000D03*
%TD*%
%TO.C,R2*%
X185750000Y-116325000D03*
X185750000Y-114675000D03*
%TD*%
D38*
%TO.C,TP6*%
X155850000Y-155750000D03*
%TD*%
D19*
%TO.C,R18*%
X166325000Y-125000000D03*
X164675000Y-125000000D03*
%TD*%
D45*
%TO.C,R17*%
X156412500Y-121000000D03*
X154587500Y-121000000D03*
%TD*%
D46*
%TO.C,GD1*%
X187500000Y-93750000D03*
X192000000Y-93750000D03*
%TD*%
D47*
%TO.C,U5*%
X154850000Y-145000000D03*
D48*
X154937500Y-143500000D03*
D47*
X154850000Y-142000000D03*
%TD*%
D23*
%TO.C,C6*%
X177250000Y-110475000D03*
X177250000Y-112025000D03*
%TD*%
D11*
%TO.C,R3*%
X187500000Y-116325000D03*
X187500000Y-114675000D03*
%TD*%
D23*
%TO.C,C21*%
X154500000Y-123975000D03*
X154500000Y-125525000D03*
%TD*%
D35*
%TO.C,FB5*%
X161812500Y-118500000D03*
X159687500Y-118500000D03*
%TD*%
D12*
%TO.C,C27*%
X162725000Y-134500000D03*
X159775000Y-134500000D03*
%TD*%
D24*
%TO.C,C29*%
X157725000Y-139500000D03*
X154775000Y-139500000D03*
%TD*%
D30*
%TO.C,U2*%
X182095000Y-111975000D03*
X183365000Y-111975000D03*
X184635000Y-111975000D03*
X185905000Y-111975000D03*
X185905000Y-107025000D03*
X184635000Y-107025000D03*
X183365000Y-107025000D03*
X182095000Y-107025000D03*
%TD*%
D47*
%TO.C,U4*%
X166400000Y-142000000D03*
D49*
X166312500Y-143500000D03*
D47*
X166400000Y-145000000D03*
%TD*%
D17*
%TO.C,R4*%
X189250000Y-114675000D03*
X189250000Y-116325000D03*
%TD*%
D31*
%TO.C,C19*%
X186500000Y-104275000D03*
X186500000Y-102725000D03*
%TD*%
D50*
%TO.C,U3*%
X161050000Y-126137500D03*
X162000000Y-126137500D03*
X162950000Y-126137500D03*
X162950000Y-123862500D03*
X161050000Y-123862500D03*
%TD*%
D17*
%TO.C,R14*%
X180500000Y-114425000D03*
X180500000Y-116075000D03*
%TD*%
D38*
%TO.C,TP14*%
X155400000Y-107900000D03*
%TD*%
D32*
%TO.C,D2*%
X189350000Y-120000000D03*
X187150000Y-120000000D03*
%TD*%
D51*
%TO.C,J7*%
X186500000Y-86420000D03*
X189040000Y-88960000D03*
X183960000Y-83880000D03*
X189040000Y-83880000D03*
X183960000Y-88960000D03*
%TD*%
D31*
%TO.C,C1*%
X179250000Y-127775000D03*
X179250000Y-126225000D03*
%TD*%
D23*
%TO.C,C13*%
X187500000Y-110475000D03*
X187500000Y-112025000D03*
%TD*%
M02*
