M48
; DRILL file {KiCad 6.0.8-f2edbf62ab~116~ubuntu20.04.1} date Wed 09 Nov 2022 12:06:38 AM PST
; FORMAT={-:-/ absolute / inch / decimal}
; #@! TF.CreationDate,2022-11-09T00:06:38-08:00
; #@! TF.GenerationSoftware,Kicad,Pcbnew,6.0.8-f2edbf62ab~116~ubuntu20.04.1
; #@! TF.FileFunction,MixedPlating,1,4
FMAT,2
INCH
; #@! TA.AperFunction,Plated,PTH,ViaDrill
T1C0.0118
; #@! TA.AperFunction,Plated,PTH,ComponentDrill
T2C0.0354
; #@! TA.AperFunction,Plated,PTH,ComponentDrill
T3C0.0362
; #@! TA.AperFunction,Plated,PTH,ComponentDrill
T4C0.0394
; #@! TA.AperFunction,Plated,PTH,ComponentDrill
T5C0.0472
; #@! TA.AperFunction,Plated,PTH,ComponentDrill
T6C0.0591
; #@! TA.AperFunction,Plated,PTH,ComponentDrill
T7C0.0917
%
G90
G05
T1
X6.3799Y-4.8622
X6.3799Y-4.8957
X6.3819Y-4.9272
X6.5354Y-4.6909
X7.2244Y-5.2165
X7.2244Y-5.3346
X7.2244Y-5.4724
X7.2244Y-5.5906
X7.3425Y-5.2165
X7.3425Y-5.3346
X7.3425Y-5.4724
X7.3425Y-5.5906
T2
X6.3476Y-6.0827
X6.4476Y-6.0827
T3
X6.3386Y-3.6842
X6.3386Y-3.7629
X6.437Y-3.6842
X6.437Y-3.7629
T4
X6.1181Y-4.248
X6.1358Y-6.1319
X6.9094Y-3.563
T5
X7.4409Y-4.872
X7.4409Y-5.0689
T6
X7.2425Y-3.3024
X7.2425Y-3.5024
X7.3425Y-3.4024
X7.4425Y-3.3024
X7.4425Y-3.5024
T7
X6.1508Y-3.5775
X6.6248Y-3.5775
T0
M30
