%TF.GenerationSoftware,KiCad,Pcbnew,6.0.10-86aedd382b~118~ubuntu20.04.1*%
%TF.CreationDate,2023-01-07T18:08:36-08:00*%
%TF.ProjectId,packaged-amp,7061636b-6167-4656-942d-616d702e6b69,rev?*%
%TF.SameCoordinates,Original*%
%TF.FileFunction,Profile,NP*%
%FSLAX46Y46*%
G04 Gerber Fmt 4.6, Leading zero omitted, Abs format (unit mm)*
G04 Created by KiCad (PCBNEW 6.0.10-86aedd382b~118~ubuntu20.04.1) date 2023-01-07 18:08:36*
%MOMM*%
%LPD*%
G01*
G04 APERTURE LIST*
%TA.AperFunction,Profile*%
%ADD10C,0.200000*%
%TD*%
%TA.AperFunction,Profile*%
%ADD11C,0.100000*%
%TD*%
G04 APERTURE END LIST*
D10*
X132500000Y-64054126D02*
X75888747Y-64054126D01*
X132500000Y-88270217D02*
X129194374Y-88270217D01*
D11*
X111750000Y-127750000D02*
X111750000Y-129250000D01*
D10*
X91794374Y-132385108D02*
G75*
G03*
X91794374Y-132385108I-1600000J0D01*
G01*
D11*
X114750000Y-119250000D02*
G75*
G03*
X116750000Y-119250000I1000000J0D01*
G01*
D10*
X132500000Y-122500000D02*
X132500000Y-88270217D01*
X75888747Y-146716091D02*
X104000000Y-146716091D01*
D11*
X113250000Y-127750000D02*
G75*
G03*
X111750000Y-127750000I-750000J0D01*
G01*
X107250000Y-127750000D02*
X107250000Y-129250000D01*
X114750000Y-119250000D02*
X114750000Y-117250000D01*
D10*
X132500000Y-81638034D02*
X132500000Y-64054126D01*
X129194374Y-122499997D02*
G75*
G03*
X129194374Y-129132183I-4J-3316093D01*
G01*
X75888747Y-64054126D02*
X75888747Y-81638034D01*
D11*
X111750000Y-129250000D02*
G75*
G03*
X113250000Y-129250000I750000J0D01*
G01*
D10*
X129194374Y-122500000D02*
X132500000Y-122500000D01*
X132500000Y-129132183D02*
X129194374Y-129132183D01*
X75888747Y-81638034D02*
X79194374Y-81638034D01*
X75888747Y-129132183D02*
X75888747Y-146716091D01*
X104000000Y-138750000D02*
X104000000Y-146716091D01*
X116000000Y-138750000D02*
X116000000Y-146716091D01*
X129194374Y-81637983D02*
G75*
G03*
X129194374Y-88270217I26J-3316117D01*
G01*
X75888747Y-122500000D02*
X79194374Y-122500000D01*
X116000000Y-146716091D02*
X132500000Y-146716091D01*
D11*
X116750000Y-119250000D02*
X116750000Y-117250000D01*
X113250000Y-127750000D02*
X113250000Y-129250000D01*
D10*
X75888747Y-88270217D02*
X75888747Y-122500000D01*
X79194374Y-129132183D02*
X75888747Y-129132183D01*
X132500000Y-146716091D02*
X132500000Y-129132183D01*
D11*
X107250000Y-127750000D02*
G75*
G03*
X105750000Y-127750000I-750000J0D01*
G01*
D10*
X129194374Y-81638034D02*
X132500000Y-81638034D01*
X79194374Y-88270217D02*
X75888747Y-88270217D01*
X119794374Y-78385108D02*
G75*
G03*
X119794374Y-78385108I-1600000J0D01*
G01*
X79194374Y-129132180D02*
G75*
G03*
X79194374Y-122500000I-4J3316090D01*
G01*
X91794374Y-78385108D02*
G75*
G03*
X91794374Y-78385108I-1600000J0D01*
G01*
X116000000Y-138750000D02*
X104000000Y-138750000D01*
D11*
X105750000Y-127750000D02*
X105750000Y-129250000D01*
X116750000Y-117250000D02*
G75*
G03*
X114750000Y-117250000I-1000000J0D01*
G01*
X105750000Y-129250000D02*
G75*
G03*
X107250000Y-129250000I750000J0D01*
G01*
D10*
X119794374Y-132385108D02*
G75*
G03*
X119794374Y-132385108I-1600000J0D01*
G01*
X79194374Y-88270226D02*
G75*
G03*
X79194374Y-81638034I6J3316096D01*
G01*
M02*
