%TF.GenerationSoftware,KiCad,Pcbnew,6.0.8-f2edbf62ab~116~ubuntu20.04.1*%
%TF.CreationDate,2022-11-09T00:06:36-08:00*%
%TF.ProjectId,packaged-amp,7061636b-6167-4656-942d-616d702e6b69,rev?*%
%TF.SameCoordinates,Original*%
%TF.FileFunction,Copper,L1,Top*%
%TF.FilePolarity,Positive*%
%FSLAX46Y46*%
G04 Gerber Fmt 4.6, Leading zero omitted, Abs format (unit mm)*
G04 Created by KiCad (PCBNEW 6.0.8-f2edbf62ab~116~ubuntu20.04.1) date 2022-11-09 00:06:36*
%MOMM*%
%LPD*%
G01*
G04 APERTURE LIST*
G04 Aperture macros list*
%AMRoundRect*
0 Rectangle with rounded corners*
0 $1 Rounding radius*
0 $2 $3 $4 $5 $6 $7 $8 $9 X,Y pos of 4 corners*
0 Add a 4 corners polygon primitive as box body*
4,1,4,$2,$3,$4,$5,$6,$7,$8,$9,$2,$3,0*
0 Add four circle primitives for the rounded corners*
1,1,$1+$1,$2,$3*
1,1,$1+$1,$4,$5*
1,1,$1+$1,$6,$7*
1,1,$1+$1,$8,$9*
0 Add four rect primitives between the rounded corners*
20,1,$1+$1,$2,$3,$4,$5,0*
20,1,$1+$1,$4,$5,$6,$7,0*
20,1,$1+$1,$6,$7,$8,$9,0*
20,1,$1+$1,$8,$9,$2,$3,0*%
%AMFreePoly0*
4,1,6,1.625000,0.000000,0.500000,-1.000000,-0.500000,-1.000000,-0.500000,1.000000,0.500000,1.000000,1.625000,0.000000,1.625000,0.000000,$1*%
%AMFreePoly1*
4,1,7,1.950000,-0.020000,1.950000,-0.800000,-1.950000,-0.800000,-1.950000,-0.020000,-1.250000,0.800000,1.250000,0.800000,1.950000,-0.020000,1.950000,-0.020000,$1*%
%AMFreePoly2*
4,1,9,3.862500,-0.866500,0.737500,-0.866500,0.737500,-0.450000,-0.737500,-0.450000,-0.737500,0.450000,0.737500,0.450000,0.737500,0.866500,3.862500,0.866500,3.862500,-0.866500,3.862500,-0.866500,$1*%
G04 Aperture macros list end*
%TA.AperFunction,SMDPad,CuDef*%
%ADD10RoundRect,0.200000X0.275000X-0.200000X0.275000X0.200000X-0.275000X0.200000X-0.275000X-0.200000X0*%
%TD*%
%TA.AperFunction,SMDPad,CuDef*%
%ADD11RoundRect,0.250000X0.325000X0.650000X-0.325000X0.650000X-0.325000X-0.650000X0.325000X-0.650000X0*%
%TD*%
%TA.AperFunction,ComponentPad*%
%ADD12C,1.500000*%
%TD*%
%TA.AperFunction,SMDPad,CuDef*%
%ADD13R,1.300000X1.300000*%
%TD*%
%TA.AperFunction,SMDPad,CuDef*%
%ADD14R,2.000000X1.300000*%
%TD*%
%TA.AperFunction,SMDPad,CuDef*%
%ADD15RoundRect,0.250000X-0.625000X0.312500X-0.625000X-0.312500X0.625000X-0.312500X0.625000X0.312500X0*%
%TD*%
%TA.AperFunction,SMDPad,CuDef*%
%ADD16RoundRect,0.200000X-0.275000X0.200000X-0.275000X-0.200000X0.275000X-0.200000X0.275000X0.200000X0*%
%TD*%
%TA.AperFunction,SMDPad,CuDef*%
%ADD17RoundRect,0.200000X-0.200000X-0.275000X0.200000X-0.275000X0.200000X0.275000X-0.200000X0.275000X0*%
%TD*%
%TA.AperFunction,SMDPad,CuDef*%
%ADD18RoundRect,0.200000X0.200000X0.275000X-0.200000X0.275000X-0.200000X-0.275000X0.200000X-0.275000X0*%
%TD*%
%TA.AperFunction,SMDPad,CuDef*%
%ADD19R,2.500000X2.300000*%
%TD*%
%TA.AperFunction,SMDPad,CuDef*%
%ADD20R,0.600000X0.450000*%
%TD*%
%TA.AperFunction,SMDPad,CuDef*%
%ADD21RoundRect,0.225000X0.225000X0.250000X-0.225000X0.250000X-0.225000X-0.250000X0.225000X-0.250000X0*%
%TD*%
%TA.AperFunction,SMDPad,CuDef*%
%ADD22RoundRect,0.225000X-0.250000X0.225000X-0.250000X-0.225000X0.250000X-0.225000X0.250000X0.225000X0*%
%TD*%
%TA.AperFunction,SMDPad,CuDef*%
%ADD23RoundRect,0.250000X-0.325000X-0.650000X0.325000X-0.650000X0.325000X0.650000X-0.325000X0.650000X0*%
%TD*%
%TA.AperFunction,ComponentPad*%
%ADD24C,2.400000*%
%TD*%
%TA.AperFunction,SMDPad,CuDef*%
%ADD25RoundRect,0.250000X-0.650000X0.325000X-0.650000X-0.325000X0.650000X-0.325000X0.650000X0.325000X0*%
%TD*%
%TA.AperFunction,SMDPad,CuDef*%
%ADD26R,0.700000X1.400000*%
%TD*%
%TA.AperFunction,SMDPad,CuDef*%
%ADD27R,1.700000X1.000000*%
%TD*%
%TA.AperFunction,SMDPad,CuDef*%
%ADD28RoundRect,0.218750X-0.218750X-0.381250X0.218750X-0.381250X0.218750X0.381250X-0.218750X0.381250X0*%
%TD*%
%TA.AperFunction,SMDPad,CuDef*%
%ADD29RoundRect,0.150000X0.150000X-0.825000X0.150000X0.825000X-0.150000X0.825000X-0.150000X-0.825000X0*%
%TD*%
%TA.AperFunction,SMDPad,CuDef*%
%ADD30RoundRect,0.225000X0.250000X-0.225000X0.250000X0.225000X-0.250000X0.225000X-0.250000X-0.225000X0*%
%TD*%
%TA.AperFunction,SMDPad,CuDef*%
%ADD31R,0.500000X0.500000*%
%TD*%
%TA.AperFunction,SMDPad,CuDef*%
%ADD32RoundRect,0.250000X0.650000X-0.325000X0.650000X0.325000X-0.650000X0.325000X-0.650000X-0.325000X0*%
%TD*%
%TA.AperFunction,SMDPad,CuDef*%
%ADD33R,4.000000X4.000000*%
%TD*%
%TA.AperFunction,SMDPad,CuDef*%
%ADD34RoundRect,0.218750X0.218750X0.381250X-0.218750X0.381250X-0.218750X-0.381250X0.218750X-0.381250X0*%
%TD*%
%TA.AperFunction,SMDPad,CuDef*%
%ADD35FreePoly0,90.000000*%
%TD*%
%TA.AperFunction,SMDPad,CuDef*%
%ADD36FreePoly0,270.000000*%
%TD*%
%TA.AperFunction,SMDPad,CuDef*%
%ADD37FreePoly1,0.000000*%
%TD*%
%TA.AperFunction,SMDPad,CuDef*%
%ADD38FreePoly1,180.000000*%
%TD*%
%TA.AperFunction,ComponentPad*%
%ADD39C,2.000000*%
%TD*%
%TA.AperFunction,SMDPad,CuDef*%
%ADD40RoundRect,0.250000X0.375000X0.625000X-0.375000X0.625000X-0.375000X-0.625000X0.375000X-0.625000X0*%
%TD*%
%TA.AperFunction,ComponentPad*%
%ADD41R,1.700000X1.700000*%
%TD*%
%TA.AperFunction,ComponentPad*%
%ADD42C,1.700000*%
%TD*%
%TA.AperFunction,ComponentPad*%
%ADD43C,3.500000*%
%TD*%
%TA.AperFunction,SMDPad,CuDef*%
%ADD44RoundRect,0.250000X-0.450000X0.262500X-0.450000X-0.262500X0.450000X-0.262500X0.450000X0.262500X0*%
%TD*%
%TA.AperFunction,SMDPad,CuDef*%
%ADD45RoundRect,0.225000X-0.225000X-0.250000X0.225000X-0.250000X0.225000X0.250000X-0.225000X0.250000X0*%
%TD*%
%TA.AperFunction,SMDPad,CuDef*%
%ADD46C,0.500000*%
%TD*%
%TA.AperFunction,SMDPad,CuDef*%
%ADD47RoundRect,0.250000X0.262500X0.450000X-0.262500X0.450000X-0.262500X-0.450000X0.262500X-0.450000X0*%
%TD*%
%TA.AperFunction,SMDPad,CuDef*%
%ADD48R,1.500000X4.200000*%
%TD*%
%TA.AperFunction,SMDPad,CuDef*%
%ADD49R,1.300000X0.900000*%
%TD*%
%TA.AperFunction,SMDPad,CuDef*%
%ADD50FreePoly2,0.000000*%
%TD*%
%TA.AperFunction,SMDPad,CuDef*%
%ADD51FreePoly2,180.000000*%
%TD*%
%TA.AperFunction,SMDPad,CuDef*%
%ADD52RoundRect,0.150000X0.150000X-0.512500X0.150000X0.512500X-0.150000X0.512500X-0.150000X-0.512500X0*%
%TD*%
%TA.AperFunction,ComponentPad*%
%ADD53C,2.250000*%
%TD*%
%TA.AperFunction,ViaPad*%
%ADD54C,0.600000*%
%TD*%
%TA.AperFunction,Conductor*%
%ADD55C,0.240000*%
%TD*%
%TA.AperFunction,Conductor*%
%ADD56C,0.160000*%
%TD*%
G04 APERTURE END LIST*
%TO.C,NT1*%
G36*
X181550000Y-125200000D02*
G01*
X180550000Y-125200000D01*
X180550000Y-124700000D01*
X181550000Y-124700000D01*
X181550000Y-125200000D01*
G37*
%TD*%
D10*
%TO.P,R1,1*%
%TO.N,Net-(E1-Pad2)*%
X175750000Y-129575000D03*
%TO.P,R1,2*%
%TO.N,Net-(C1-Pad1)*%
X175750000Y-127925000D03*
%TD*%
D11*
%TO.P,C7,2*%
%TO.N,GND*%
X154525000Y-118750000D03*
%TO.P,C7,1*%
%TO.N,/VBUS*%
X157475000Y-118750000D03*
%TD*%
D12*
%TO.P,D6,1,K*%
%TO.N,VSS*%
X163770000Y-154500000D03*
%TO.P,D6,2,A*%
%TO.N,Net-(D6-Pad2)*%
X161230000Y-154500000D03*
%TD*%
D13*
%TO.P,RV1,1,1*%
%TO.N,Net-(R5-Pad1)*%
X182400000Y-118000000D03*
D14*
%TO.P,RV1,2,2*%
%TO.N,GND*%
X181250000Y-123500000D03*
D13*
%TO.P,RV1,3,3*%
X180100000Y-118000000D03*
%TD*%
D10*
%TO.P,R25,1*%
%TO.N,Net-(D6-Pad2)*%
X157750000Y-153575000D03*
%TO.P,R25,2*%
%TO.N,VDD*%
X157750000Y-151925000D03*
%TD*%
D15*
%TO.P,R21,1*%
%TO.N,Net-(J7-Pad1)*%
X182500000Y-92287500D03*
%TO.P,R21,2*%
%TO.N,/out*%
X182500000Y-95212500D03*
%TD*%
D16*
%TO.P,R20,1*%
%TO.N,Net-(C17-Pad2)*%
X181250000Y-102675000D03*
%TO.P,R20,2*%
%TO.N,GND*%
X181250000Y-104325000D03*
%TD*%
%TO.P,R9,1*%
%TO.N,GND*%
X175750000Y-103175000D03*
%TO.P,R9,2*%
%TO.N,Net-(U1-Pad5)*%
X175750000Y-104825000D03*
%TD*%
D17*
%TO.P,R8,1*%
%TO.N,Net-(U1-Pad5)*%
X181175000Y-99500000D03*
%TO.P,R8,2*%
%TO.N,/out*%
X182825000Y-99500000D03*
%TD*%
D18*
%TO.P,R7,1*%
%TO.N,Net-(U1-Pad6)*%
X174075000Y-101750000D03*
%TO.P,R7,2*%
%TO.N,GND*%
X172425000Y-101750000D03*
%TD*%
D10*
%TO.P,R6,1*%
%TO.N,Net-(C4-Pad2)*%
X177000000Y-116075000D03*
%TO.P,R6,2*%
%TO.N,GND*%
X177000000Y-114425000D03*
%TD*%
D19*
%TO.P,D11,1,K*%
%TO.N,Net-(D11-Pad1)*%
X158350000Y-112000000D03*
%TO.P,D11,2,A*%
%TO.N,GND*%
X162650000Y-112000000D03*
%TD*%
D20*
%TO.P,D5,1,K*%
%TO.N,Net-(C23-Pad1)*%
X157950000Y-132350000D03*
%TO.P,D5,2,A*%
%TO.N,/VSS_unreg*%
X160050000Y-132350000D03*
%TD*%
%TO.P,D4,1,K*%
%TO.N,GND*%
X160050000Y-130400000D03*
%TO.P,D4,2,A*%
%TO.N,Net-(C23-Pad1)*%
X157950000Y-130400000D03*
%TD*%
%TO.P,D3,1,K*%
%TO.N,/VDD_unreg*%
X160050000Y-128450000D03*
%TO.P,D3,2,A*%
%TO.N,Net-(C21-Pad2)*%
X157950000Y-128450000D03*
%TD*%
D21*
%TO.P,C17,2*%
%TO.N,Net-(C17-Pad2)*%
X181225000Y-101000000D03*
%TO.P,C17,1*%
%TO.N,/out*%
X182775000Y-101000000D03*
%TD*%
D22*
%TO.P,C16,1*%
%TO.N,GND*%
X177500000Y-103225000D03*
%TO.P,C16,2*%
%TO.N,Net-(U1-Pad5)*%
X177500000Y-104775000D03*
%TD*%
D23*
%TO.P,C15,1*%
%TO.N,Net-(U1-Pad7)*%
X171025000Y-104000000D03*
%TO.P,C15,2*%
%TO.N,Net-(U1-Pad6)*%
X173975000Y-104000000D03*
%TD*%
D24*
%TO.P,C11,1*%
%TO.N,Net-(C1-Pad1)*%
X189000000Y-128750000D03*
%TO.P,C11,2*%
%TO.N,/return_kelvin*%
X189000000Y-123750000D03*
%TD*%
D22*
%TO.P,C4,1*%
%TO.N,/int_out*%
X178750000Y-114475000D03*
%TO.P,C4,2*%
%TO.N,Net-(C4-Pad2)*%
X178750000Y-116025000D03*
%TD*%
D23*
%TO.P,C3,1*%
%TO.N,GND*%
X155025000Y-134500000D03*
%TO.P,C3,2*%
%TO.N,/VSS_unreg*%
X157975000Y-134500000D03*
%TD*%
D25*
%TO.P,C2,1*%
%TO.N,/VDD_unreg*%
X165000000Y-128525000D03*
%TO.P,C2,2*%
%TO.N,GND*%
X165000000Y-131475000D03*
%TD*%
D26*
%TO.P,L2,1,1*%
%TO.N,Net-(J8-Pad1)*%
X162250000Y-100700000D03*
D27*
X161750000Y-101800000D03*
%TO.P,L2,2,2*%
%TO.N,Net-(F1-Pad1)*%
X161750000Y-103700000D03*
D26*
X162250000Y-104800000D03*
D27*
%TO.P,L2,3,3*%
%TO.N,Net-(J8-Pad4)*%
X158750000Y-101800000D03*
D26*
X158250000Y-100700000D03*
D27*
%TO.P,L2,4,4*%
%TO.N,GND*%
X158750000Y-103700000D03*
D26*
X158250000Y-104800000D03*
%TD*%
D22*
%TO.P,C5,1*%
%TO.N,VDD*%
X170250000Y-106975000D03*
%TO.P,C5,2*%
%TO.N,GND*%
X170250000Y-108525000D03*
%TD*%
D28*
%TO.P,FB3,1*%
%TO.N,/VDD_unreg*%
X164687500Y-126750000D03*
%TO.P,FB3,2*%
%TO.N,Net-(C28-Pad1)*%
X166812500Y-126750000D03*
%TD*%
D29*
%TO.P,U1,1*%
%TO.N,Net-(U1-Pad1)*%
X171845000Y-111975000D03*
%TO.P,U1,2,-*%
X173115000Y-111975000D03*
%TO.P,U1,3,+*%
%TO.N,GND*%
X174385000Y-111975000D03*
%TO.P,U1,4,V-*%
%TO.N,VSS*%
X175655000Y-111975000D03*
%TO.P,U1,5,+*%
%TO.N,Net-(U1-Pad5)*%
X175655000Y-107025000D03*
%TO.P,U1,6,-*%
%TO.N,Net-(U1-Pad6)*%
X174385000Y-107025000D03*
%TO.P,U1,7*%
%TO.N,Net-(U1-Pad7)*%
X173115000Y-107025000D03*
%TO.P,U1,8,V+*%
%TO.N,VDD*%
X171845000Y-107025000D03*
%TD*%
D30*
%TO.P,C9,1*%
%TO.N,Net-(C1-Pad1)*%
X182750000Y-127775000D03*
%TO.P,C9,2*%
%TO.N,/return_kelvin*%
X182750000Y-126225000D03*
%TD*%
D31*
%TO.P,D1,1,K*%
%TO.N,VDD*%
X192600000Y-120000000D03*
%TO.P,D1,2,A*%
%TO.N,Net-(C1-Pad1)*%
X190400000Y-120000000D03*
%TD*%
D11*
%TO.P,C31,2*%
%TO.N,VSS*%
X154775000Y-147500000D03*
%TO.P,C31,1*%
%TO.N,GND*%
X157725000Y-147500000D03*
%TD*%
D32*
%TO.P,C23,1*%
%TO.N,Net-(C23-Pad1)*%
X155750000Y-131475000D03*
%TO.P,C23,2*%
%TO.N,Net-(C21-Pad2)*%
X155750000Y-128525000D03*
%TD*%
D33*
%TO.P,TP11,1,1*%
%TO.N,Net-(E1-Pad2)*%
X185000000Y-134000000D03*
%TD*%
D16*
%TO.P,R10,1*%
%TO.N,Net-(C19-Pad1)*%
X188250000Y-102675000D03*
%TO.P,R10,2*%
%TO.N,/int_out*%
X188250000Y-104325000D03*
%TD*%
%TO.P,R16,1*%
%TO.N,GND*%
X166000000Y-119925000D03*
%TO.P,R16,2*%
%TO.N,Net-(C22-Pad1)*%
X166000000Y-121575000D03*
%TD*%
D21*
%TO.P,C14,1*%
%TO.N,/int_fb*%
X183775000Y-114500000D03*
%TO.P,C14,2*%
%TO.N,Net-(C14-Pad2)*%
X182225000Y-114500000D03*
%TD*%
D34*
%TO.P,FB4,1*%
%TO.N,/VSS_unreg*%
X159812500Y-136750000D03*
%TO.P,FB4,2*%
%TO.N,Net-(C29-Pad2)*%
X157687500Y-136750000D03*
%TD*%
D35*
%TO.P,E2,1*%
%TO.N,GND*%
X175750000Y-142500000D03*
D36*
%TO.P,E2,2*%
%TO.N,/return_kelvin*%
X175750000Y-139000000D03*
%TD*%
D37*
%TO.P,L1,1,1*%
%TO.N,/VBUS*%
X157750000Y-123300000D03*
D38*
%TO.P,L1,2,2*%
%TO.N,Net-(C21-Pad2)*%
X157750000Y-126200000D03*
%TD*%
D39*
%TO.P,TP4,1,1*%
%TO.N,GND*%
X175500000Y-90500000D03*
%TD*%
D11*
%TO.P,C30,2*%
%TO.N,GND*%
X163525000Y-147500000D03*
%TO.P,C30,1*%
%TO.N,VDD*%
X166475000Y-147500000D03*
%TD*%
D40*
%TO.P,F1,1*%
%TO.N,Net-(F1-Pad1)*%
X161400000Y-108000000D03*
%TO.P,F1,2*%
%TO.N,Net-(D11-Pad1)*%
X158600000Y-108000000D03*
%TD*%
D11*
%TO.P,C28,2*%
%TO.N,GND*%
X163525000Y-139500000D03*
%TO.P,C28,1*%
%TO.N,Net-(C28-Pad1)*%
X166475000Y-139500000D03*
%TD*%
D35*
%TO.P,E1,1*%
%TO.N,GND*%
X175750000Y-135750000D03*
D36*
%TO.P,E1,2*%
%TO.N,Net-(E1-Pad2)*%
X175750000Y-132250000D03*
%TD*%
D10*
%TO.P,R15,1*%
%TO.N,Net-(R15-Pad1)*%
X164500000Y-121575000D03*
%TO.P,R15,2*%
%TO.N,/VBUS*%
X164500000Y-119925000D03*
%TD*%
D22*
%TO.P,C12,1*%
%TO.N,VDD*%
X180500000Y-106975000D03*
%TO.P,C12,2*%
%TO.N,GND*%
X180500000Y-108525000D03*
%TD*%
D23*
%TO.P,C20,1*%
%TO.N,/VBUS*%
X159275000Y-120750000D03*
%TO.P,C20,2*%
%TO.N,GND*%
X162225000Y-120750000D03*
%TD*%
D16*
%TO.P,R12,1*%
%TO.N,/out*%
X183000000Y-102675000D03*
%TO.P,R12,2*%
%TO.N,Net-(R11-Pad1)*%
X183000000Y-104325000D03*
%TD*%
D17*
%TO.P,R5,1*%
%TO.N,Net-(R5-Pad1)*%
X182175000Y-116250000D03*
%TO.P,R5,2*%
%TO.N,/int_fb*%
X183825000Y-116250000D03*
%TD*%
D33*
%TO.P,TP12,1,1*%
%TO.N,/return_kelvin*%
X185000000Y-140500000D03*
%TD*%
D41*
%TO.P,J8,1,VBUS*%
%TO.N,Net-(J8-Pad1)*%
X161000000Y-95577500D03*
D42*
%TO.P,J8,2,D-*%
%TO.N,unconnected-(J8-Pad2)*%
X163500000Y-95577500D03*
%TO.P,J8,3,D+*%
%TO.N,unconnected-(J8-Pad3)*%
X163500000Y-93577500D03*
%TO.P,J8,4,GND*%
%TO.N,Net-(J8-Pad4)*%
X161000000Y-93577500D03*
D43*
%TO.P,J8,5,Shield*%
%TO.N,Net-(J8-Pad5)*%
X168270000Y-90867500D03*
X156230000Y-90867500D03*
%TD*%
D44*
%TO.P,R19,1*%
%TO.N,Net-(J8-Pad5)*%
X155000000Y-99337500D03*
%TO.P,R19,2*%
%TO.N,GND*%
X155000000Y-101162500D03*
%TD*%
D45*
%TO.P,C22,1*%
%TO.N,Net-(C22-Pad1)*%
X164725000Y-123500000D03*
%TO.P,C22,2*%
%TO.N,/VDD_unreg*%
X166275000Y-123500000D03*
%TD*%
D46*
%TO.P,NT1,1,1*%
%TO.N,/return_kelvin*%
X181550000Y-124950000D03*
%TO.P,NT1,2,2*%
%TO.N,GND*%
X180550000Y-124950000D03*
%TD*%
D15*
%TO.P,R13,1*%
%TO.N,Net-(J7-Pad1)*%
X185000000Y-92287500D03*
%TO.P,R13,2*%
%TO.N,/out*%
X185000000Y-95212500D03*
%TD*%
D25*
%TO.P,C25,1*%
%TO.N,/VDD_unreg*%
X162500000Y-128525000D03*
%TO.P,C25,2*%
%TO.N,GND*%
X162500000Y-131475000D03*
%TD*%
D30*
%TO.P,C10,2*%
%TO.N,/return_kelvin*%
X181000000Y-126225000D03*
%TO.P,C10,1*%
%TO.N,Net-(C1-Pad1)*%
X181000000Y-127775000D03*
%TD*%
D10*
%TO.P,R11,1*%
%TO.N,Net-(R11-Pad1)*%
X184750000Y-104325000D03*
%TO.P,R11,2*%
%TO.N,GND*%
X184750000Y-102675000D03*
%TD*%
%TO.P,R2,1*%
%TO.N,/int_fb*%
X185750000Y-116325000D03*
%TO.P,R2,2*%
%TO.N,Net-(R2-Pad2)*%
X185750000Y-114675000D03*
%TD*%
D39*
%TO.P,TP6,1,1*%
%TO.N,GND*%
X155850000Y-155750000D03*
%TD*%
D18*
%TO.P,R18,1*%
%TO.N,/VDD_unreg*%
X166325000Y-125000000D03*
%TO.P,R18,2*%
%TO.N,Net-(C22-Pad1)*%
X164675000Y-125000000D03*
%TD*%
D47*
%TO.P,R17,1*%
%TO.N,/VBUS*%
X156412500Y-121000000D03*
%TO.P,R17,2*%
%TO.N,Net-(C21-Pad1)*%
X154587500Y-121000000D03*
%TD*%
D48*
%TO.P,GD1,1*%
%TO.N,/out*%
X187500000Y-93750000D03*
%TO.P,GD1,2*%
%TO.N,GND*%
X192000000Y-93750000D03*
%TD*%
D49*
%TO.P,U5,3,VO*%
%TO.N,VSS*%
X154850000Y-145000000D03*
D50*
%TO.P,U5,2,VI*%
%TO.N,Net-(C29-Pad2)*%
X154937500Y-143500000D03*
D49*
%TO.P,U5,1,GND*%
%TO.N,GND*%
X154850000Y-142000000D03*
%TD*%
D22*
%TO.P,C6,1*%
%TO.N,GND*%
X177250000Y-110475000D03*
%TO.P,C6,2*%
%TO.N,VSS*%
X177250000Y-112025000D03*
%TD*%
D10*
%TO.P,R3,1*%
%TO.N,GND*%
X187500000Y-116325000D03*
%TO.P,R3,2*%
%TO.N,Net-(R2-Pad2)*%
X187500000Y-114675000D03*
%TD*%
D22*
%TO.P,C21,1*%
%TO.N,Net-(C21-Pad1)*%
X154500000Y-123975000D03*
%TO.P,C21,2*%
%TO.N,Net-(C21-Pad2)*%
X154500000Y-125525000D03*
%TD*%
D34*
%TO.P,FB5,1*%
%TO.N,Net-(D11-Pad1)*%
X161812500Y-118500000D03*
%TO.P,FB5,2*%
%TO.N,/VBUS*%
X159687500Y-118500000D03*
%TD*%
D11*
%TO.P,C27,1*%
%TO.N,GND*%
X162725000Y-134500000D03*
%TO.P,C27,2*%
%TO.N,/VSS_unreg*%
X159775000Y-134500000D03*
%TD*%
D23*
%TO.P,C29,2*%
%TO.N,Net-(C29-Pad2)*%
X157725000Y-139500000D03*
%TO.P,C29,1*%
%TO.N,GND*%
X154775000Y-139500000D03*
%TD*%
D29*
%TO.P,U2,1*%
%TO.N,/int_out*%
X182095000Y-111975000D03*
%TO.P,U2,2,-*%
%TO.N,/int_fb*%
X183365000Y-111975000D03*
%TO.P,U2,3,+*%
%TO.N,Net-(C1-Pad1)*%
X184635000Y-111975000D03*
%TO.P,U2,4,V-*%
%TO.N,VSS*%
X185905000Y-111975000D03*
%TO.P,U2,5,+*%
%TO.N,Net-(C19-Pad1)*%
X185905000Y-107025000D03*
%TO.P,U2,6,-*%
%TO.N,Net-(R11-Pad1)*%
X184635000Y-107025000D03*
%TO.P,U2,7*%
%TO.N,/out*%
X183365000Y-107025000D03*
%TO.P,U2,8,V+*%
%TO.N,VDD*%
X182095000Y-107025000D03*
%TD*%
D49*
%TO.P,U4,3,IN*%
%TO.N,Net-(C28-Pad1)*%
X166400000Y-142000000D03*
D51*
%TO.P,U4,2,GND*%
%TO.N,GND*%
X166312500Y-143500000D03*
D49*
%TO.P,U4,1,OUT*%
%TO.N,VDD*%
X166400000Y-145000000D03*
%TD*%
D16*
%TO.P,R4,1*%
%TO.N,Net-(R2-Pad2)*%
X189250000Y-114675000D03*
%TO.P,R4,2*%
%TO.N,Net-(U1-Pad7)*%
X189250000Y-116325000D03*
%TD*%
D30*
%TO.P,C19,1*%
%TO.N,Net-(C19-Pad1)*%
X186500000Y-104275000D03*
%TO.P,C19,2*%
%TO.N,GND*%
X186500000Y-102725000D03*
%TD*%
D52*
%TO.P,U3,1,SW*%
%TO.N,Net-(C21-Pad2)*%
X161050000Y-126137500D03*
%TO.P,U3,2,GND*%
%TO.N,GND*%
X162000000Y-126137500D03*
%TO.P,U3,3,FB*%
%TO.N,Net-(C22-Pad1)*%
X162950000Y-126137500D03*
%TO.P,U3,4,EN*%
%TO.N,Net-(R15-Pad1)*%
X162950000Y-123862500D03*
%TO.P,U3,5,VIN*%
%TO.N,/VBUS*%
X161050000Y-123862500D03*
%TD*%
D16*
%TO.P,R14,1*%
%TO.N,/int_out*%
X180500000Y-114425000D03*
%TO.P,R14,2*%
%TO.N,Net-(C14-Pad2)*%
X180500000Y-116075000D03*
%TD*%
D39*
%TO.P,TP14,1,1*%
%TO.N,Net-(D11-Pad1)*%
X155400000Y-107900000D03*
%TD*%
D31*
%TO.P,D2,1,K*%
%TO.N,Net-(C1-Pad1)*%
X189350000Y-120000000D03*
%TO.P,D2,2,A*%
%TO.N,VSS*%
X187150000Y-120000000D03*
%TD*%
D53*
%TO.P,J7,1,In*%
%TO.N,Net-(J7-Pad1)*%
X186500000Y-86420000D03*
%TO.P,J7,2,Ext*%
%TO.N,GND*%
X189040000Y-88960000D03*
X183960000Y-83880000D03*
X189040000Y-83880000D03*
X183960000Y-88960000D03*
%TD*%
D30*
%TO.P,C1,1*%
%TO.N,Net-(C1-Pad1)*%
X179250000Y-127775000D03*
%TO.P,C1,2*%
%TO.N,/return_kelvin*%
X179250000Y-126225000D03*
%TD*%
D22*
%TO.P,C13,1*%
%TO.N,GND*%
X187500000Y-110475000D03*
%TO.P,C13,2*%
%TO.N,VSS*%
X187500000Y-112025000D03*
%TD*%
D54*
%TO.N,GND*%
X162050000Y-123500000D03*
X162050000Y-124350000D03*
X166000000Y-119150000D03*
X162100000Y-125150000D03*
%TO.N,Net-(E1-Pad2)*%
X186500000Y-135500000D03*
X186500000Y-132500000D03*
X183500000Y-135500000D03*
X183500000Y-132500000D03*
%TO.N,/return_kelvin*%
X186500000Y-142000000D03*
X183500000Y-142000000D03*
X183500000Y-139000000D03*
X186500000Y-139000000D03*
%TD*%
D55*
%TO.N,Net-(E1-Pad2)*%
X175750000Y-132250000D02*
X175750000Y-130212500D01*
%TO.N,/return_kelvin*%
X181500000Y-140000000D02*
X184250000Y-140000000D01*
X184250000Y-141250000D02*
X185000000Y-140500000D01*
X178000000Y-139000000D02*
X177750000Y-138750000D01*
X176000000Y-138750000D02*
X175750000Y-139000000D01*
X177750000Y-138750000D02*
X176000000Y-138750000D01*
%TO.N,Net-(E1-Pad2)*%
X181000000Y-131500000D02*
X181000000Y-132250000D01*
X181000000Y-131500000D02*
X181250000Y-131250000D01*
X181250000Y-131250000D02*
X184750000Y-131250000D01*
X184750000Y-131250000D02*
X185000000Y-131500000D01*
X185000000Y-131500000D02*
X185000000Y-134000000D01*
%TO.N,GND*%
X166000000Y-119925000D02*
X166000000Y-119150000D01*
X187500000Y-116325000D02*
X187500000Y-117050000D01*
%TO.N,/int_fb*%
X183825000Y-116250000D02*
X185675000Y-116250000D01*
X183775000Y-116200000D02*
X183825000Y-116250000D01*
X183775000Y-114500000D02*
X183775000Y-116200000D01*
X185675000Y-116250000D02*
X185750000Y-116325000D01*
X183775000Y-113475000D02*
X183775000Y-114500000D01*
%TO.N,Net-(C14-Pad2)*%
X181550000Y-114500000D02*
X181400000Y-114650000D01*
X181400000Y-115850000D02*
X181175000Y-116075000D01*
X181400000Y-114650000D02*
X181400000Y-115850000D01*
X182225000Y-114500000D02*
X181550000Y-114500000D01*
X181175000Y-116075000D02*
X180500000Y-116075000D01*
%TO.N,/int_out*%
X180500000Y-114425000D02*
X180500000Y-113600000D01*
%TO.N,Net-(R2-Pad2)*%
X185750000Y-114675000D02*
X187500000Y-114675000D01*
X187500000Y-114675000D02*
X189250000Y-114675000D01*
%TO.N,Net-(R5-Pad1)*%
X182100000Y-116325000D02*
X182175000Y-116250000D01*
%TO.N,Net-(C22-Pad1)*%
X164725000Y-123500000D02*
X164725000Y-122825000D01*
X163412500Y-126137500D02*
X163650000Y-125900000D01*
X165650000Y-122550000D02*
X166000000Y-122200000D01*
X166000000Y-122200000D02*
X166000000Y-121575000D01*
X162950000Y-126137500D02*
X163412500Y-126137500D01*
X164675000Y-123550000D02*
X164725000Y-123500000D01*
X165000000Y-122550000D02*
X165650000Y-122550000D01*
X163650000Y-125250000D02*
X163900000Y-125000000D01*
X163900000Y-125000000D02*
X164675000Y-125000000D01*
X164675000Y-125000000D02*
X164675000Y-123550000D01*
X164725000Y-122825000D02*
X165000000Y-122550000D01*
X163650000Y-125900000D02*
X163650000Y-125250000D01*
%TO.N,/VDD_unreg*%
X166325000Y-125000000D02*
X165600000Y-125000000D01*
X165350000Y-125750000D02*
X164800000Y-125750000D01*
X165600000Y-125000000D02*
X165450000Y-125150000D01*
X164800000Y-125750000D02*
X164687500Y-125862500D01*
X165450000Y-125650000D02*
X165350000Y-125750000D01*
X166275000Y-123500000D02*
X166275000Y-124950000D01*
X165450000Y-125150000D02*
X165450000Y-125650000D01*
X164687500Y-125862500D02*
X164687500Y-126750000D01*
X166275000Y-124950000D02*
X166325000Y-125000000D01*
D56*
%TO.N,Net-(E1-Pad2)*%
X177750000Y-132250000D02*
X178000000Y-132500000D01*
X178750000Y-135750000D02*
X180250000Y-135750000D01*
D55*
X175500000Y-132250000D02*
X177500000Y-132250000D01*
D56*
X180250000Y-135750000D02*
X181000000Y-135000000D01*
X181000000Y-135000000D02*
X181000000Y-132250000D01*
X178000000Y-135000000D02*
X178750000Y-135750000D01*
X178000000Y-132500000D02*
X178000000Y-135000000D01*
X177750000Y-132250000D02*
X177500000Y-132250000D01*
D55*
%TO.N,Net-(R15-Pad1)*%
X164500000Y-121750000D02*
X163500000Y-122750000D01*
X162950000Y-123000000D02*
X162950000Y-123862500D01*
X163500000Y-122750000D02*
X163200000Y-122750000D01*
X163200000Y-122750000D02*
X162950000Y-123000000D01*
X164500000Y-121575000D02*
X164500000Y-121750000D01*
%TO.N,/return_kelvin*%
X178000000Y-139000000D02*
X178000000Y-139500000D01*
D56*
X180250000Y-143250000D02*
X178750000Y-143250000D01*
X181250000Y-140000000D02*
X181500000Y-140000000D01*
X178000000Y-142500000D02*
X178000000Y-139500000D01*
X178750000Y-143250000D02*
X178000000Y-142500000D01*
X181250000Y-140000000D02*
X181000000Y-140250000D01*
X181000000Y-142500000D02*
X180250000Y-143250000D01*
X181000000Y-140250000D02*
X181000000Y-142500000D01*
%TD*%
%TA.AperFunction,Conductor*%
%TO.N,Net-(C21-Pad2)*%
G36*
X161195336Y-125268891D02*
G01*
X161239246Y-125319566D01*
X161250000Y-125369000D01*
X161250000Y-126881000D01*
X161231109Y-126945336D01*
X161180434Y-126989246D01*
X161131000Y-127000000D01*
X158750000Y-127000000D01*
X158250000Y-127500000D01*
X158250000Y-128881000D01*
X158231109Y-128945336D01*
X158180434Y-128989246D01*
X158131000Y-129000000D01*
X156750000Y-129000000D01*
X156750000Y-129131000D01*
X156731109Y-129195336D01*
X156680434Y-129239246D01*
X156631000Y-129250000D01*
X154869000Y-129250000D01*
X154804664Y-129231109D01*
X154760754Y-129180434D01*
X154750000Y-129131000D01*
X154750000Y-126000000D01*
X154119000Y-126000000D01*
X154054664Y-125981109D01*
X154010754Y-125930434D01*
X154000000Y-125881000D01*
X154000000Y-125369000D01*
X154018891Y-125304664D01*
X154069566Y-125260754D01*
X154119000Y-125250000D01*
X161131000Y-125250000D01*
X161195336Y-125268891D01*
G37*
%TD.AperFunction*%
%TD*%
%TA.AperFunction,Conductor*%
%TO.N,/VSS_unreg*%
G36*
X160695336Y-131268891D02*
G01*
X160739246Y-131319566D01*
X160750000Y-131369000D01*
X160750000Y-135631000D01*
X160731109Y-135695336D01*
X160680434Y-135739246D01*
X160631000Y-135750000D01*
X157119000Y-135750000D01*
X157054664Y-135731109D01*
X157010754Y-135680434D01*
X157000000Y-135631000D01*
X157000000Y-133119000D01*
X157018891Y-133054664D01*
X157069566Y-133010754D01*
X157119000Y-133000000D01*
X159750000Y-133000000D01*
X159750000Y-131369000D01*
X159768891Y-131304664D01*
X159819566Y-131260754D01*
X159869000Y-131250000D01*
X160631000Y-131250000D01*
X160695336Y-131268891D01*
G37*
%TD.AperFunction*%
%TD*%
%TA.AperFunction,Conductor*%
%TO.N,/VDD_unreg*%
G36*
X165195336Y-126018891D02*
G01*
X165239246Y-126069566D01*
X165250000Y-126119000D01*
X165250000Y-127750000D01*
X165881000Y-127750000D01*
X165945336Y-127768891D01*
X165989246Y-127819566D01*
X166000000Y-127869000D01*
X166000000Y-129381000D01*
X165981109Y-129445336D01*
X165930434Y-129489246D01*
X165881000Y-129500000D01*
X161786030Y-129500000D01*
X161720021Y-129480014D01*
X161000000Y-129000000D01*
X158869000Y-129000000D01*
X158804664Y-128981109D01*
X158760754Y-128930434D01*
X158750000Y-128881000D01*
X158750000Y-127619000D01*
X158768891Y-127554664D01*
X158819566Y-127510754D01*
X158869000Y-127500000D01*
X164000000Y-127500000D01*
X164000000Y-126119000D01*
X164018891Y-126054664D01*
X164069566Y-126010754D01*
X164119000Y-126000000D01*
X165131000Y-126000000D01*
X165195336Y-126018891D01*
G37*
%TD.AperFunction*%
%TD*%
%TA.AperFunction,Conductor*%
%TO.N,/VBUS*%
G36*
X160195336Y-117518891D02*
G01*
X160239246Y-117569566D01*
X160250000Y-117619000D01*
X160250000Y-121750000D01*
X161465146Y-122965146D01*
X161497280Y-123023997D01*
X161500000Y-123049292D01*
X161500000Y-124631000D01*
X161481109Y-124695336D01*
X161430434Y-124739246D01*
X161381000Y-124750000D01*
X160299292Y-124750000D01*
X160234956Y-124731109D01*
X160215146Y-124715146D01*
X159750000Y-124250000D01*
X155619000Y-124250000D01*
X155554664Y-124231109D01*
X155510754Y-124180434D01*
X155500000Y-124131000D01*
X155500000Y-117619000D01*
X155518891Y-117554664D01*
X155569566Y-117510754D01*
X155619000Y-117500000D01*
X160131000Y-117500000D01*
X160195336Y-117518891D01*
G37*
%TD.AperFunction*%
%TD*%
%TA.AperFunction,Conductor*%
%TO.N,GND*%
G36*
X160774669Y-129268891D02*
G01*
X160781733Y-129273800D01*
X161736311Y-129989734D01*
X161736313Y-129989735D01*
X161750000Y-130000000D01*
X166131000Y-130000000D01*
X166195336Y-130018891D01*
X166239246Y-130069566D01*
X166250000Y-130119000D01*
X166250000Y-135381000D01*
X166231109Y-135445336D01*
X166180434Y-135489246D01*
X166131000Y-135500000D01*
X161119000Y-135500000D01*
X161054664Y-135481109D01*
X161010754Y-135430434D01*
X161000000Y-135381000D01*
X161000000Y-131000000D01*
X160750000Y-130750000D01*
X158869000Y-130750000D01*
X158804664Y-130731109D01*
X158760754Y-130680434D01*
X158750000Y-130631000D01*
X158750000Y-129369000D01*
X158768891Y-129304664D01*
X158819566Y-129260754D01*
X158869000Y-129250000D01*
X160710333Y-129250000D01*
X160774669Y-129268891D01*
G37*
%TD.AperFunction*%
%TD*%
%TA.AperFunction,Conductor*%
%TO.N,GND*%
G36*
X163445336Y-119518891D02*
G01*
X163489246Y-119569566D01*
X163500000Y-119619000D01*
X163500000Y-121940500D01*
X163481109Y-122004836D01*
X163452400Y-122035700D01*
X162500000Y-122750000D01*
X162500000Y-123054102D01*
X162479475Y-123117270D01*
X162480141Y-123117609D01*
X162423983Y-123227825D01*
X162409500Y-123319265D01*
X162409501Y-124405734D01*
X162423983Y-124497175D01*
X162480141Y-124607391D01*
X162479475Y-124607730D01*
X162500000Y-124670898D01*
X162500000Y-125329102D01*
X162479475Y-125392270D01*
X162480141Y-125392609D01*
X162423983Y-125502825D01*
X162409500Y-125594265D01*
X162409501Y-126680734D01*
X162423983Y-126772175D01*
X162428233Y-126780516D01*
X162428234Y-126780519D01*
X162451905Y-126826975D01*
X162464281Y-126892875D01*
X162439064Y-126955005D01*
X162384260Y-126993639D01*
X162345875Y-127000000D01*
X161654125Y-127000000D01*
X161589789Y-126981109D01*
X161545879Y-126930434D01*
X161536336Y-126864065D01*
X161548095Y-126826975D01*
X161571765Y-126780520D01*
X161576017Y-126772175D01*
X161590500Y-126680735D01*
X161590499Y-125594266D01*
X161576017Y-125502825D01*
X161571765Y-125494480D01*
X161571765Y-125494479D01*
X161564207Y-125479646D01*
X161551830Y-125413745D01*
X161563799Y-125372402D01*
X161750000Y-125000000D01*
X161750000Y-122750000D01*
X161284854Y-122284854D01*
X161252720Y-122226003D01*
X161250000Y-122200708D01*
X161250000Y-119619000D01*
X161268891Y-119554664D01*
X161319566Y-119510754D01*
X161369000Y-119500000D01*
X163381000Y-119500000D01*
X163445336Y-119518891D01*
G37*
%TD.AperFunction*%
%TD*%
%TA.AperFunction,Conductor*%
%TO.N,Net-(C23-Pad1)*%
G36*
X158195336Y-129518891D02*
G01*
X158239246Y-129569566D01*
X158250000Y-129619000D01*
X158250000Y-131000000D01*
X159381000Y-131000000D01*
X159445336Y-131018891D01*
X159489246Y-131069566D01*
X159500000Y-131119000D01*
X159500000Y-132381000D01*
X159481109Y-132445336D01*
X159430434Y-132489246D01*
X159381000Y-132500000D01*
X157278092Y-132500000D01*
X157224874Y-132487437D01*
X156750000Y-132250000D01*
X154869000Y-132250000D01*
X154804664Y-132231109D01*
X154760754Y-132180434D01*
X154750000Y-132131000D01*
X154750000Y-130619000D01*
X154768891Y-130554664D01*
X154819566Y-130510754D01*
X154869000Y-130500000D01*
X156250000Y-130500000D01*
X156964300Y-129547600D01*
X157018014Y-129507465D01*
X157059500Y-129500000D01*
X158131000Y-129500000D01*
X158195336Y-129518891D01*
G37*
%TD.AperFunction*%
%TD*%
M02*
