%TF.GenerationSoftware,KiCad,Pcbnew,6.0.11-2627ca5db0~126~ubuntu20.04.1*%
%TF.CreationDate,2023-06-15T17:53:27-07:00*%
%TF.ProjectId,packaged-amp,7061636b-6167-4656-942d-616d702e6b69,rev?*%
%TF.SameCoordinates,Original*%
%TF.FileFunction,Copper,L3,Inr*%
%TF.FilePolarity,Positive*%
%FSLAX46Y46*%
G04 Gerber Fmt 4.6, Leading zero omitted, Abs format (unit mm)*
G04 Created by KiCad (PCBNEW 6.0.11-2627ca5db0~126~ubuntu20.04.1) date 2023-06-15 17:53:27*
%MOMM*%
%LPD*%
G01*
G04 APERTURE LIST*
%TA.AperFunction,ComponentPad*%
%ADD10C,2.000000*%
%TD*%
%TA.AperFunction,ComponentPad*%
%ADD11R,1.700000X1.700000*%
%TD*%
%TA.AperFunction,ComponentPad*%
%ADD12C,1.700000*%
%TD*%
%TA.AperFunction,ComponentPad*%
%ADD13C,3.500000*%
%TD*%
%TA.AperFunction,ComponentPad*%
%ADD14R,1.850000X1.850000*%
%TD*%
%TA.AperFunction,ComponentPad*%
%ADD15C,1.850000*%
%TD*%
%TA.AperFunction,ComponentPad*%
%ADD16C,1.500000*%
%TD*%
%TA.AperFunction,ComponentPad*%
%ADD17C,2.250000*%
%TD*%
%TA.AperFunction,ViaPad*%
%ADD18C,0.600000*%
%TD*%
%TA.AperFunction,Conductor*%
%ADD19C,0.240000*%
%TD*%
%TA.AperFunction,Conductor*%
%ADD20C,0.320000*%
%TD*%
G04 APERTURE END LIST*
D10*
%TO.N,GND*%
%TO.C,TP1*%
X114000000Y-68500000D03*
%TD*%
D11*
%TO.N,Net-(J2-Pad1)*%
%TO.C,J2*%
X98500000Y-76577500D03*
D12*
%TO.N,unconnected-(J2-Pad2)*%
X101000000Y-76577500D03*
%TO.N,unconnected-(J2-Pad3)*%
X101000000Y-74577500D03*
%TO.N,Net-(J2-Pad4)*%
X98500000Y-74577500D03*
D13*
X93730000Y-71867500D03*
X105770000Y-71867500D03*
%TD*%
D14*
%TO.N,Net-(C8-Pad1)*%
%TO.C,PS1*%
X82850000Y-95290000D03*
D15*
%TO.N,/USB_GND*%
X82850000Y-97830000D03*
%TO.N,Net-(L4-Pad1)*%
X82850000Y-102910000D03*
%TO.N,GND*%
X82850000Y-105450000D03*
%TO.N,Net-(PS1-Pad6)*%
X82850000Y-107990000D03*
%TD*%
D10*
%TO.N,GND*%
%TO.C,TP2*%
X128500000Y-110750000D03*
%TD*%
D16*
%TO.N,VSS*%
%TO.C,D4*%
X85770000Y-137900000D03*
%TO.N,Net-(D4-Pad2)*%
X83230000Y-137900000D03*
%TD*%
D17*
%TO.N,Net-(GD1-Pad1)*%
%TO.C,J7*%
X123750000Y-68750000D03*
%TO.N,GND*%
X121210000Y-66210000D03*
X126290000Y-71290000D03*
X121210000Y-71290000D03*
X126290000Y-66210000D03*
%TD*%
D18*
%TO.N,VDD*%
X113750000Y-94150000D03*
X106750000Y-94200000D03*
X89200000Y-126803500D03*
X119250000Y-106000000D03*
%TO.N,GND*%
X124250000Y-81500000D03*
X112000000Y-116750000D03*
X87000000Y-114500000D03*
X131500000Y-95000000D03*
X91000000Y-118000000D03*
X94250000Y-97250000D03*
X100750000Y-116250000D03*
X129750000Y-76500000D03*
X124500000Y-89500000D03*
X117100000Y-110750000D03*
X111000000Y-120750000D03*
X110900000Y-101300000D03*
X121550000Y-98450000D03*
X95250000Y-127000000D03*
X89750000Y-107500000D03*
X100750000Y-113000000D03*
X120750000Y-97700000D03*
X94250000Y-88500000D03*
X78000000Y-110750000D03*
X84250000Y-126500000D03*
X78500000Y-107250000D03*
X105749500Y-110750000D03*
X88250000Y-107500000D03*
X107750000Y-113000000D03*
X119500000Y-113000000D03*
X124500000Y-112750000D03*
X116000000Y-119250000D03*
X106000000Y-100000000D03*
X121450000Y-106500000D03*
X102250000Y-110250000D03*
X86000000Y-107500000D03*
X118800000Y-110750000D03*
X110200000Y-87700000D03*
X121450000Y-105750000D03*
X124500000Y-82750000D03*
X111000000Y-119250000D03*
X110500000Y-82750000D03*
X104500000Y-108750000D03*
X111000000Y-68000000D03*
X124500000Y-120750000D03*
X80300000Y-105450000D03*
X118500000Y-82750000D03*
X121000000Y-82750000D03*
X90250000Y-140000000D03*
X94250000Y-94250000D03*
X131000000Y-116250000D03*
X111500000Y-113000000D03*
X123050000Y-93000000D03*
X112900000Y-98450000D03*
X96000000Y-129000000D03*
X94250000Y-101750000D03*
X104500000Y-82750000D03*
X124500000Y-109750000D03*
X124500000Y-106500000D03*
X99250000Y-113500000D03*
X128750000Y-116750000D03*
X120250000Y-111550000D03*
X111000000Y-118000000D03*
X85250000Y-116250000D03*
X128000000Y-79750000D03*
X104500000Y-88250000D03*
X105500000Y-113000000D03*
X116000000Y-120500000D03*
X112750000Y-106950000D03*
X84500000Y-121750000D03*
X129750000Y-78500000D03*
X104500000Y-91250000D03*
X123750000Y-120750000D03*
X120750000Y-105050000D03*
X91250000Y-102000000D03*
X121250000Y-81500000D03*
X78500000Y-119500000D03*
X126000000Y-120250000D03*
X104500000Y-103500000D03*
X104500000Y-93000000D03*
X104500000Y-106000000D03*
X84500000Y-121000000D03*
X116250000Y-111550000D03*
X77500000Y-130500000D03*
X104500000Y-101250000D03*
X119500000Y-111450000D03*
X96500000Y-140000000D03*
X114500000Y-81750000D03*
X102750000Y-145250000D03*
X90250000Y-121750000D03*
X124500000Y-91750000D03*
X106150000Y-104750000D03*
X129750000Y-75000000D03*
X104000000Y-80500000D03*
X106750000Y-97300000D03*
X109750000Y-113000000D03*
X112000000Y-120250000D03*
X94750000Y-129000000D03*
X119950000Y-98450000D03*
X124500000Y-103500000D03*
X131000000Y-109250000D03*
X131500000Y-89250000D03*
X121100000Y-111350000D03*
X117500000Y-113000000D03*
X116150000Y-118100000D03*
X131500000Y-102750000D03*
X115000000Y-120250000D03*
X114600000Y-96500000D03*
X92250000Y-108250000D03*
X124500000Y-86000000D03*
X107500000Y-82750000D03*
X86750000Y-123000000D03*
X103250000Y-98750000D03*
X121500000Y-105000000D03*
X84500000Y-122500000D03*
X122250000Y-113000000D03*
X122250000Y-96850000D03*
X108000000Y-97250000D03*
X118000000Y-111550000D03*
X92500000Y-107500000D03*
X85250000Y-105750000D03*
X84250000Y-124500000D03*
X125250000Y-120750000D03*
X85250000Y-125500000D03*
X112000000Y-77000000D03*
X127500000Y-120250000D03*
X104500000Y-111000000D03*
X91500000Y-107500000D03*
X111850000Y-90900000D03*
X86750000Y-120500000D03*
X111000000Y-74750000D03*
X108250000Y-111500000D03*
X97500000Y-134500000D03*
X104500000Y-85500000D03*
X77750000Y-102500000D03*
X126250000Y-80000000D03*
X115550000Y-87650000D03*
X124500000Y-94500000D03*
X113750000Y-74250000D03*
X115450000Y-110800000D03*
X84750000Y-118250000D03*
X124500000Y-101250000D03*
%TO.N,VSS*%
X113750000Y-100800000D03*
X114400000Y-106600000D03*
X120750000Y-100768500D03*
X92500000Y-127050000D03*
%TO.N,Net-(GD1-Pad1)*%
X123750000Y-73650000D03*
X123500000Y-79300000D03*
X122500000Y-84850000D03*
%TO.N,/VSS_unreg*%
X95500000Y-120500000D03*
X97000000Y-122500000D03*
X95500000Y-123000000D03*
X97000000Y-121750000D03*
X94000000Y-120500000D03*
X94000000Y-123000000D03*
X97000000Y-121000000D03*
%TO.N,Net-(E1-Pad2)*%
X113000000Y-111000000D03*
X124500000Y-115350000D03*
%TO.N,/USB_PWR*%
X89600000Y-89750000D03*
X90450000Y-89700000D03*
%TO.N,/USB_GND*%
X83300000Y-75450000D03*
X83700000Y-81900000D03*
X84550000Y-75050000D03*
X85250000Y-97900000D03*
X82700000Y-69100000D03*
X82650000Y-65300000D03*
X83000000Y-88350000D03*
X77800000Y-79600000D03*
X77900000Y-98500000D03*
X77150000Y-92850000D03*
X80200000Y-89650000D03*
X77350000Y-95350000D03*
X90450000Y-98400000D03*
X83450000Y-86800000D03*
X89300000Y-98400000D03*
X80750000Y-98900000D03*
X85350000Y-98900000D03*
X78350000Y-76300000D03*
X77300000Y-89950000D03*
X80600000Y-76300000D03*
X80450000Y-97550000D03*
X83800000Y-67400000D03*
X89850000Y-99050000D03*
X84550000Y-76800000D03*
X84650000Y-84850000D03*
X82800000Y-70250000D03*
X77300000Y-71850000D03*
%TD*%
D19*
%TO.N,Net-(GD1-Pad1)*%
X122500000Y-80300000D02*
X123500000Y-79300000D01*
X122500000Y-85100000D02*
X122500000Y-80300000D01*
D20*
%TO.N,Net-(E1-Pad2)*%
X113000000Y-111000000D02*
X114250000Y-112250000D01*
X123000000Y-112250000D02*
X124500000Y-113750000D01*
X114250000Y-112250000D02*
X123000000Y-112250000D01*
X124500000Y-113750000D02*
X124500000Y-115350000D01*
%TD*%
%TA.AperFunction,Conductor*%
%TO.N,GND*%
G36*
X120506039Y-64474588D02*
G01*
X120560577Y-64529126D01*
X120580539Y-64603626D01*
X120560577Y-64678126D01*
X120506039Y-64732664D01*
X120488559Y-64741284D01*
X120471753Y-64748245D01*
X120461343Y-64753550D01*
X120256596Y-64879018D01*
X120251308Y-64886713D01*
X120256220Y-64897010D01*
X121196129Y-65836919D01*
X121210000Y-65844927D01*
X121223871Y-65836919D01*
X122160665Y-64900125D01*
X122168673Y-64886254D01*
X122165094Y-64880054D01*
X121958657Y-64753550D01*
X121948247Y-64748245D01*
X121931441Y-64741284D01*
X121870251Y-64694331D01*
X121840736Y-64623074D01*
X121850803Y-64546606D01*
X121897756Y-64485416D01*
X121969013Y-64455901D01*
X121988461Y-64454626D01*
X125511539Y-64454626D01*
X125586039Y-64474588D01*
X125640577Y-64529126D01*
X125660539Y-64603626D01*
X125640577Y-64678126D01*
X125586039Y-64732664D01*
X125568559Y-64741284D01*
X125551753Y-64748245D01*
X125541343Y-64753550D01*
X125336596Y-64879018D01*
X125331308Y-64886713D01*
X125336220Y-64897010D01*
X126276129Y-65836919D01*
X126290000Y-65844927D01*
X126303871Y-65836919D01*
X127240665Y-64900125D01*
X127248673Y-64886254D01*
X127245094Y-64880054D01*
X127038657Y-64753550D01*
X127028247Y-64748245D01*
X127011441Y-64741284D01*
X126950251Y-64694331D01*
X126920736Y-64623074D01*
X126930803Y-64546606D01*
X126977756Y-64485416D01*
X127049013Y-64455901D01*
X127068461Y-64454626D01*
X131950500Y-64454626D01*
X132025000Y-64474588D01*
X132079538Y-64529126D01*
X132099500Y-64603626D01*
X132099500Y-81088534D01*
X132079538Y-81163034D01*
X132025000Y-81217572D01*
X131950500Y-81237534D01*
X129237618Y-81237534D01*
X129214311Y-81235700D01*
X129205960Y-81234377D01*
X129205957Y-81234377D01*
X129194371Y-81232542D01*
X129192839Y-81232785D01*
X129181560Y-81233357D01*
X129116052Y-81236680D01*
X128817886Y-81251803D01*
X128814153Y-81252375D01*
X128814152Y-81252375D01*
X128448984Y-81308319D01*
X128448982Y-81308319D01*
X128445264Y-81308889D01*
X128306773Y-81344748D01*
X128083994Y-81402431D01*
X128083989Y-81402433D01*
X128080330Y-81403380D01*
X127726827Y-81534305D01*
X127388383Y-81700322D01*
X127385177Y-81702320D01*
X127385174Y-81702322D01*
X127160270Y-81842508D01*
X127068472Y-81899727D01*
X127065484Y-81902040D01*
X127065481Y-81902042D01*
X126773356Y-82128165D01*
X126773350Y-82128170D01*
X126770375Y-82130473D01*
X126767652Y-82133061D01*
X126767649Y-82133064D01*
X126499884Y-82387596D01*
X126497151Y-82390194D01*
X126251605Y-82676223D01*
X126036256Y-82985626D01*
X125853313Y-83315228D01*
X125704653Y-83661647D01*
X125703528Y-83665234D01*
X125703525Y-83665241D01*
X125680037Y-83740105D01*
X125638688Y-83805212D01*
X125570325Y-83840922D01*
X125537870Y-83844500D01*
X123169500Y-83844500D01*
X123095000Y-83824538D01*
X123040462Y-83770000D01*
X123020500Y-83695500D01*
X123020500Y-80577316D01*
X123040462Y-80502816D01*
X123064141Y-80471957D01*
X123493589Y-80042509D01*
X123560384Y-80003945D01*
X123572205Y-80001755D01*
X123573760Y-80001779D01*
X123580911Y-80000141D01*
X123580923Y-80000139D01*
X123730279Y-79965932D01*
X123739029Y-79963928D01*
X123890498Y-79887747D01*
X124011553Y-79784356D01*
X124012594Y-79783467D01*
X124012596Y-79783465D01*
X124019423Y-79777634D01*
X124036866Y-79753360D01*
X124113124Y-79647236D01*
X124113126Y-79647232D01*
X124118361Y-79639947D01*
X124147280Y-79568010D01*
X124178251Y-79490969D01*
X124178252Y-79490964D01*
X124181601Y-79482634D01*
X124205490Y-79314778D01*
X124205645Y-79300000D01*
X124185276Y-79131680D01*
X124125345Y-78973077D01*
X124029312Y-78833349D01*
X124022604Y-78827372D01*
X123909428Y-78726535D01*
X123909424Y-78726532D01*
X123902721Y-78720560D01*
X123894783Y-78716357D01*
X123894780Y-78716355D01*
X123760823Y-78645429D01*
X123752881Y-78641224D01*
X123744168Y-78639035D01*
X123744167Y-78639035D01*
X123671691Y-78620830D01*
X123588441Y-78599919D01*
X123484002Y-78599372D01*
X123427873Y-78599078D01*
X123418895Y-78599031D01*
X123410164Y-78601127D01*
X123410165Y-78601127D01*
X123262765Y-78636515D01*
X123262762Y-78636516D01*
X123254032Y-78638612D01*
X123246053Y-78642730D01*
X123246051Y-78642731D01*
X123240824Y-78645429D01*
X123103369Y-78716375D01*
X123096602Y-78722279D01*
X123096598Y-78722281D01*
X123091722Y-78726535D01*
X122975604Y-78827831D01*
X122970439Y-78835180D01*
X122939856Y-78878696D01*
X122878113Y-78966547D01*
X122816524Y-79124513D01*
X122812824Y-79152622D01*
X122804499Y-79215857D01*
X122774984Y-79287114D01*
X122762133Y-79301769D01*
X122142425Y-79921477D01*
X122137920Y-79925797D01*
X122095177Y-79965101D01*
X122089826Y-79973732D01*
X122089824Y-79973734D01*
X122074238Y-79998872D01*
X122066295Y-80010430D01*
X122042269Y-80042082D01*
X122038016Y-80052823D01*
X122026112Y-80076492D01*
X122020029Y-80086303D01*
X122017194Y-80096061D01*
X122008947Y-80124448D01*
X122004399Y-80137732D01*
X121993512Y-80165227D01*
X121993510Y-80165235D01*
X121989772Y-80174676D01*
X121988710Y-80184779D01*
X121988710Y-80184780D01*
X121988565Y-80186162D01*
X121983466Y-80212154D01*
X121980242Y-80223249D01*
X121979500Y-80233354D01*
X121979500Y-80264594D01*
X121978684Y-80280168D01*
X121974865Y-80316503D01*
X121976559Y-80326516D01*
X121977413Y-80331566D01*
X121979500Y-80356416D01*
X121979500Y-83695500D01*
X121959538Y-83770000D01*
X121905000Y-83824538D01*
X121830500Y-83844500D01*
X95869000Y-83844500D01*
X95865042Y-83844926D01*
X95865033Y-83844926D01*
X95825901Y-83849134D01*
X95782803Y-83853767D01*
X95733369Y-83864521D01*
X95730064Y-83865569D01*
X95670605Y-83884420D01*
X95670602Y-83884421D01*
X95661718Y-83887238D01*
X95653809Y-83892163D01*
X95653806Y-83892164D01*
X95578146Y-83939275D01*
X95554020Y-83954297D01*
X95549601Y-83958126D01*
X95549597Y-83958129D01*
X95518670Y-83984928D01*
X95503345Y-83998207D01*
X95434163Y-84075781D01*
X95379817Y-84190420D01*
X95360926Y-84254756D01*
X95344500Y-84369000D01*
X95344500Y-116520318D01*
X95324538Y-116594818D01*
X95300859Y-116625677D01*
X91125677Y-120800859D01*
X91058882Y-120839423D01*
X91020318Y-120844500D01*
X90788930Y-120844500D01*
X90784207Y-120845108D01*
X90784200Y-120845108D01*
X90691046Y-120857091D01*
X90691040Y-120857092D01*
X90686307Y-120857701D01*
X90628037Y-120872944D01*
X90542278Y-120906157D01*
X90440535Y-120981945D01*
X90393690Y-121029919D01*
X90390815Y-121033740D01*
X90390812Y-121033744D01*
X90369392Y-121062217D01*
X90308652Y-121109750D01*
X90232283Y-121120545D01*
X90160748Y-121091709D01*
X90130409Y-121061080D01*
X90128868Y-121058991D01*
X90125773Y-121054020D01*
X90081863Y-121003345D01*
X90004289Y-120934163D01*
X89994661Y-120929599D01*
X89994660Y-120929598D01*
X89894937Y-120882323D01*
X89894933Y-120882321D01*
X89889650Y-120879817D01*
X89825314Y-120860926D01*
X89711070Y-120844500D01*
X85119000Y-120844500D01*
X85115042Y-120844926D01*
X85115033Y-120844926D01*
X85075901Y-120849134D01*
X85032803Y-120853767D01*
X84983369Y-120864521D01*
X84980064Y-120865569D01*
X84920605Y-120884420D01*
X84920602Y-120884421D01*
X84911718Y-120887238D01*
X84903809Y-120892163D01*
X84903806Y-120892164D01*
X84828146Y-120939275D01*
X84804020Y-120954297D01*
X84799601Y-120958126D01*
X84799597Y-120958129D01*
X84776149Y-120978447D01*
X84753345Y-120998207D01*
X84684163Y-121075781D01*
X84679599Y-121085409D01*
X84679598Y-121085410D01*
X84643424Y-121161718D01*
X84629817Y-121190420D01*
X84610926Y-121254756D01*
X84594500Y-121369000D01*
X84594500Y-121521041D01*
X84602291Y-121600148D01*
X84611349Y-121645687D01*
X84627386Y-121698554D01*
X84632525Y-121722355D01*
X84633476Y-121729576D01*
X84633606Y-121730564D01*
X84633606Y-121769436D01*
X84632525Y-121777645D01*
X84627386Y-121801446D01*
X84611349Y-121854313D01*
X84602291Y-121899852D01*
X84594500Y-121978959D01*
X84594500Y-122271041D01*
X84602291Y-122350148D01*
X84611349Y-122395687D01*
X84627386Y-122448554D01*
X84632525Y-122472355D01*
X84633476Y-122479576D01*
X84633606Y-122480564D01*
X84633606Y-122519436D01*
X84632525Y-122527645D01*
X84627386Y-122551446D01*
X84611349Y-122604313D01*
X84602291Y-122649852D01*
X84594500Y-122728959D01*
X84594500Y-124852055D01*
X84610252Y-124963979D01*
X84628384Y-125027119D01*
X84668416Y-125120448D01*
X84748959Y-125218470D01*
X84753335Y-125222354D01*
X84753338Y-125222357D01*
X84795534Y-125259808D01*
X84799108Y-125262980D01*
X84803052Y-125265663D01*
X84803057Y-125265667D01*
X84854762Y-125300842D01*
X84885046Y-125321444D01*
X84895186Y-125324712D01*
X84895188Y-125324713D01*
X84941714Y-125339708D01*
X84998521Y-125358017D01*
X85063304Y-125399869D01*
X85098483Y-125468507D01*
X85094629Y-125545539D01*
X85052776Y-125610323D01*
X84993173Y-125643262D01*
X84921867Y-125663327D01*
X84921866Y-125663327D01*
X84911718Y-125666183D01*
X84804020Y-125733242D01*
X84799601Y-125737071D01*
X84799597Y-125737074D01*
X84768670Y-125763873D01*
X84753345Y-125777152D01*
X84684163Y-125854726D01*
X84629817Y-125969365D01*
X84610926Y-126033701D01*
X84594500Y-126147945D01*
X84594500Y-129131000D01*
X84594926Y-129134958D01*
X84594926Y-129134967D01*
X84598016Y-129163702D01*
X84603767Y-129217197D01*
X84614521Y-129266631D01*
X84637238Y-129338282D01*
X84642163Y-129346191D01*
X84642164Y-129346194D01*
X84684752Y-129414590D01*
X84704297Y-129445980D01*
X84708126Y-129450399D01*
X84708129Y-129450403D01*
X84718049Y-129461851D01*
X84748207Y-129496655D01*
X84825781Y-129565837D01*
X84835409Y-129570401D01*
X84835410Y-129570402D01*
X84935133Y-129617677D01*
X84935137Y-129617679D01*
X84940420Y-129620183D01*
X85004756Y-129639074D01*
X85119000Y-129655500D01*
X91381000Y-129655500D01*
X91384958Y-129655074D01*
X91384967Y-129655074D01*
X91424098Y-129650867D01*
X91467197Y-129646233D01*
X91516631Y-129635479D01*
X91564876Y-129620183D01*
X91579395Y-129615580D01*
X91579398Y-129615579D01*
X91588282Y-129612762D01*
X91596191Y-129607837D01*
X91596194Y-129607836D01*
X91691014Y-129548795D01*
X91695980Y-129545703D01*
X91700399Y-129541874D01*
X91700403Y-129541871D01*
X91743031Y-129504933D01*
X91746655Y-129501793D01*
X91815837Y-129424219D01*
X91852826Y-129346194D01*
X91867677Y-129314867D01*
X91867679Y-129314863D01*
X91870183Y-129309580D01*
X91884001Y-129262521D01*
X91924144Y-129196663D01*
X91991838Y-129159700D01*
X92026965Y-129155500D01*
X94201862Y-129155500D01*
X94231944Y-129152898D01*
X94268288Y-129149755D01*
X94268299Y-129149754D01*
X94271485Y-129149478D01*
X94274650Y-129148926D01*
X94274653Y-129148926D01*
X94309091Y-129142924D01*
X94309095Y-129142923D01*
X94311741Y-129142462D01*
X94368339Y-129128339D01*
X94481242Y-129070474D01*
X94535395Y-129030933D01*
X94617976Y-128950296D01*
X94631792Y-128932291D01*
X94692979Y-128885339D01*
X94769447Y-128875272D01*
X94840705Y-128904787D01*
X94868207Y-128932289D01*
X94882024Y-128950296D01*
X94929189Y-129001869D01*
X94931548Y-129004039D01*
X94956746Y-129027220D01*
X94959262Y-129029535D01*
X94961353Y-129031197D01*
X94961364Y-129031207D01*
X94998233Y-129060521D01*
X95004919Y-129065837D01*
X95012639Y-129069497D01*
X95012641Y-129069498D01*
X95114271Y-129117677D01*
X95114275Y-129117679D01*
X95119558Y-129120183D01*
X95183894Y-129139074D01*
X95298138Y-129155500D01*
X95451862Y-129155500D01*
X95481944Y-129152898D01*
X95518288Y-129149755D01*
X95518299Y-129149754D01*
X95521485Y-129149478D01*
X95524650Y-129148926D01*
X95524653Y-129148926D01*
X95559091Y-129142924D01*
X95559095Y-129142923D01*
X95561741Y-129142462D01*
X95618339Y-129128339D01*
X95731242Y-129070474D01*
X95785395Y-129030933D01*
X95867976Y-128950296D01*
X95881792Y-128932291D01*
X95942979Y-128885339D01*
X96019447Y-128875272D01*
X96090705Y-128904787D01*
X96118207Y-128932289D01*
X96132024Y-128950296D01*
X96179189Y-129001869D01*
X96181548Y-129004039D01*
X96206746Y-129027220D01*
X96209262Y-129029535D01*
X96211353Y-129031197D01*
X96211364Y-129031207D01*
X96248233Y-129060521D01*
X96254919Y-129065837D01*
X96262639Y-129069497D01*
X96262641Y-129069498D01*
X96364271Y-129117677D01*
X96364275Y-129117679D01*
X96369558Y-129120183D01*
X96433894Y-129139074D01*
X96548138Y-129155500D01*
X101351000Y-129155500D01*
X101425500Y-129175462D01*
X101480038Y-129230000D01*
X101500000Y-129304500D01*
X101500000Y-140200000D01*
X103450500Y-140200000D01*
X103525000Y-140219962D01*
X103579538Y-140274500D01*
X103599500Y-140349000D01*
X103599500Y-146166591D01*
X103579538Y-146241091D01*
X103525000Y-146295629D01*
X103450500Y-146315591D01*
X76438247Y-146315591D01*
X76363747Y-146295629D01*
X76309209Y-146241091D01*
X76289247Y-146166591D01*
X76289247Y-143747948D01*
X77919636Y-143747948D01*
X77949301Y-143944098D01*
X77951906Y-143951177D01*
X77990836Y-144056988D01*
X78000000Y-144108437D01*
X78000000Y-144600000D01*
X78490111Y-144600000D01*
X78549286Y-144612255D01*
X78596276Y-144632590D01*
X78596284Y-144632593D01*
X78603213Y-144635591D01*
X78610607Y-144637136D01*
X78610608Y-144637136D01*
X78670720Y-144649694D01*
X78797402Y-144676159D01*
X78803909Y-144676500D01*
X78949578Y-144676500D01*
X78953327Y-144676119D01*
X78953331Y-144676119D01*
X79089856Y-144662251D01*
X79089858Y-144662251D01*
X79097365Y-144661488D01*
X79271817Y-144606818D01*
X79316374Y-144600000D01*
X79800000Y-144600000D01*
X79800000Y-144117407D01*
X79814271Y-144056078D01*
X79814013Y-144055982D01*
X79814761Y-144053970D01*
X79815307Y-144051625D01*
X79816644Y-144048908D01*
X79816645Y-144048906D01*
X79819976Y-144042136D01*
X79869982Y-143850161D01*
X79880364Y-143652052D01*
X79850699Y-143455902D01*
X79809164Y-143343012D01*
X79800000Y-143291563D01*
X79800000Y-142800000D01*
X79309889Y-142800000D01*
X79250714Y-142787745D01*
X79203724Y-142767410D01*
X79203716Y-142767407D01*
X79196787Y-142764409D01*
X79189393Y-142762864D01*
X79189392Y-142762864D01*
X79069172Y-142737749D01*
X79002598Y-142723841D01*
X78996091Y-142723500D01*
X78850422Y-142723500D01*
X78846673Y-142723881D01*
X78846669Y-142723881D01*
X78710144Y-142737749D01*
X78710142Y-142737749D01*
X78702635Y-142738512D01*
X78528183Y-142793182D01*
X78483626Y-142800000D01*
X78000000Y-142800000D01*
X78000000Y-143282593D01*
X77985729Y-143343922D01*
X77985987Y-143344018D01*
X77985239Y-143346030D01*
X77984693Y-143348375D01*
X77980024Y-143357864D01*
X77930018Y-143549839D01*
X77919636Y-143747948D01*
X76289247Y-143747948D01*
X76289247Y-137869754D01*
X82074967Y-137869754D01*
X82075414Y-137876572D01*
X82088010Y-138068751D01*
X82088796Y-138080749D01*
X82140845Y-138285690D01*
X82143703Y-138291890D01*
X82143705Y-138291895D01*
X82182435Y-138375907D01*
X82229369Y-138477714D01*
X82351405Y-138650391D01*
X82502865Y-138797937D01*
X82678677Y-138915411D01*
X82872953Y-138998878D01*
X83079186Y-139045544D01*
X83130544Y-139047562D01*
X83283641Y-139053578D01*
X83283645Y-139053578D01*
X83290470Y-139053846D01*
X83499730Y-139023504D01*
X83506187Y-139021312D01*
X83506192Y-139021311D01*
X83642083Y-138975182D01*
X83699955Y-138955537D01*
X83800909Y-138899000D01*
X83878481Y-138855558D01*
X83878486Y-138855554D01*
X83884442Y-138852219D01*
X84047012Y-138717012D01*
X84182219Y-138554442D01*
X84185554Y-138548486D01*
X84185558Y-138548481D01*
X84232470Y-138464713D01*
X84285537Y-138369955D01*
X84316389Y-138279068D01*
X84351311Y-138176192D01*
X84351312Y-138176187D01*
X84353504Y-138169730D01*
X84354483Y-138162977D01*
X84356079Y-138156329D01*
X84357585Y-138156691D01*
X84384723Y-138093523D01*
X84446521Y-138047374D01*
X84523114Y-138038306D01*
X84593979Y-138068751D01*
X84640128Y-138130549D01*
X84646152Y-138149088D01*
X84651395Y-138169730D01*
X84680845Y-138285690D01*
X84683703Y-138291890D01*
X84683705Y-138291895D01*
X84722435Y-138375907D01*
X84769369Y-138477714D01*
X84891405Y-138650391D01*
X85042865Y-138797937D01*
X85218677Y-138915411D01*
X85412953Y-138998878D01*
X85619186Y-139045544D01*
X85670544Y-139047562D01*
X85823641Y-139053578D01*
X85823645Y-139053578D01*
X85830470Y-139053846D01*
X86039730Y-139023504D01*
X86046187Y-139021312D01*
X86046192Y-139021311D01*
X86182083Y-138975182D01*
X86239955Y-138955537D01*
X86340909Y-138899000D01*
X86418481Y-138855558D01*
X86418486Y-138855554D01*
X86424442Y-138852219D01*
X86587012Y-138717012D01*
X86722219Y-138554442D01*
X86725554Y-138548486D01*
X86725558Y-138548481D01*
X86772470Y-138464713D01*
X86825537Y-138369955D01*
X86856389Y-138279068D01*
X86891311Y-138176192D01*
X86891312Y-138176187D01*
X86893504Y-138169730D01*
X86923846Y-137960470D01*
X86925429Y-137900000D01*
X86906081Y-137689440D01*
X86848686Y-137485931D01*
X86755165Y-137296290D01*
X86751084Y-137290825D01*
X86751081Y-137290820D01*
X86632739Y-137132341D01*
X86632737Y-137132339D01*
X86628651Y-137126867D01*
X86473381Y-136983337D01*
X86294554Y-136870505D01*
X86288215Y-136867976D01*
X86288209Y-136867973D01*
X86104504Y-136794683D01*
X86098160Y-136792152D01*
X86043713Y-136781322D01*
X85897478Y-136752234D01*
X85897475Y-136752234D01*
X85890775Y-136750901D01*
X85785061Y-136749517D01*
X85686180Y-136748222D01*
X85686175Y-136748222D01*
X85679346Y-136748133D01*
X85672613Y-136749290D01*
X85672612Y-136749290D01*
X85477684Y-136782784D01*
X85477680Y-136782785D01*
X85470953Y-136783941D01*
X85272575Y-136857127D01*
X85266702Y-136860621D01*
X85250089Y-136870505D01*
X85090856Y-136965238D01*
X85058641Y-136993489D01*
X84937022Y-137100146D01*
X84937019Y-137100149D01*
X84931881Y-137104655D01*
X84876189Y-137175300D01*
X84805207Y-137265340D01*
X84805203Y-137265346D01*
X84800976Y-137270708D01*
X84797797Y-137276751D01*
X84797794Y-137276755D01*
X84784295Y-137302413D01*
X84702523Y-137457836D01*
X84700499Y-137464356D01*
X84700496Y-137464362D01*
X84641153Y-137655480D01*
X84599997Y-137720710D01*
X84531739Y-137756622D01*
X84454671Y-137753594D01*
X84389441Y-137712438D01*
X84355449Y-137651741D01*
X84310541Y-137492509D01*
X84308686Y-137485931D01*
X84215165Y-137296290D01*
X84211084Y-137290825D01*
X84211081Y-137290820D01*
X84092739Y-137132341D01*
X84092737Y-137132339D01*
X84088651Y-137126867D01*
X83933381Y-136983337D01*
X83754554Y-136870505D01*
X83748215Y-136867976D01*
X83748209Y-136867973D01*
X83564504Y-136794683D01*
X83558160Y-136792152D01*
X83503713Y-136781322D01*
X83357478Y-136752234D01*
X83357475Y-136752234D01*
X83350775Y-136750901D01*
X83245061Y-136749517D01*
X83146180Y-136748222D01*
X83146175Y-136748222D01*
X83139346Y-136748133D01*
X83132613Y-136749290D01*
X83132612Y-136749290D01*
X82937684Y-136782784D01*
X82937680Y-136782785D01*
X82930953Y-136783941D01*
X82732575Y-136857127D01*
X82726702Y-136860621D01*
X82710089Y-136870505D01*
X82550856Y-136965238D01*
X82518641Y-136993489D01*
X82397022Y-137100146D01*
X82397019Y-137100149D01*
X82391881Y-137104655D01*
X82336189Y-137175300D01*
X82265207Y-137265340D01*
X82265203Y-137265346D01*
X82260976Y-137270708D01*
X82257797Y-137276751D01*
X82257794Y-137276755D01*
X82244295Y-137302413D01*
X82162523Y-137457836D01*
X82151757Y-137492509D01*
X82101844Y-137653253D01*
X82101843Y-137653258D01*
X82099820Y-137659773D01*
X82099018Y-137666550D01*
X82099017Y-137666554D01*
X82088357Y-137756622D01*
X82074967Y-137869754D01*
X76289247Y-137869754D01*
X76289247Y-132322110D01*
X88189754Y-132322110D01*
X88190995Y-132353709D01*
X88200876Y-132605192D01*
X88251774Y-132883883D01*
X88253442Y-132888884D01*
X88253444Y-132888890D01*
X88339762Y-133147618D01*
X88339765Y-133147625D01*
X88341432Y-133152622D01*
X88468061Y-133406047D01*
X88629135Y-133639101D01*
X88821439Y-133847135D01*
X89041138Y-134025997D01*
X89045648Y-134028712D01*
X89209308Y-134127244D01*
X89283846Y-134172120D01*
X89544722Y-134282586D01*
X89549821Y-134283938D01*
X89549824Y-134283939D01*
X89746803Y-134336167D01*
X89818560Y-134355193D01*
X90099897Y-134388492D01*
X90210181Y-134385893D01*
X90377863Y-134381941D01*
X90377865Y-134381941D01*
X90383119Y-134381817D01*
X90551204Y-134353840D01*
X90657385Y-134336167D01*
X90657389Y-134336166D01*
X90662574Y-134335303D01*
X90750380Y-134307534D01*
X90927675Y-134251463D01*
X90927682Y-134251460D01*
X90932688Y-134249877D01*
X90937422Y-134247604D01*
X90937429Y-134247601D01*
X91100271Y-134169405D01*
X91188071Y-134127244D01*
X91192448Y-134124320D01*
X91192454Y-134124316D01*
X91419243Y-133972780D01*
X91423627Y-133969851D01*
X91634655Y-133780838D01*
X91816947Y-133563976D01*
X91824749Y-133551466D01*
X91964075Y-133328064D01*
X91964077Y-133328060D01*
X91966863Y-133323593D01*
X92081414Y-133064484D01*
X92132349Y-132883883D01*
X92156886Y-132796881D01*
X92156887Y-132796876D01*
X92158313Y-132791820D01*
X92184088Y-132599922D01*
X92195520Y-132514810D01*
X92195520Y-132514805D01*
X92196026Y-132511041D01*
X92199984Y-132385108D01*
X92195524Y-132322110D01*
X92180347Y-132107770D01*
X92179975Y-132102515D01*
X92120349Y-131825561D01*
X92022294Y-131559771D01*
X91994167Y-131507641D01*
X91890266Y-131315079D01*
X91890264Y-131315076D01*
X91887767Y-131310448D01*
X91852244Y-131262353D01*
X91722580Y-131086803D01*
X91719452Y-131082568D01*
X91715761Y-131078819D01*
X91715758Y-131078815D01*
X91621497Y-130983063D01*
X91520708Y-130880678D01*
X91467092Y-130839759D01*
X91299689Y-130712001D01*
X91295500Y-130708804D01*
X91048321Y-130570378D01*
X90784104Y-130468160D01*
X90508121Y-130404190D01*
X90502880Y-130403736D01*
X90502873Y-130403735D01*
X90231134Y-130380200D01*
X90231130Y-130380200D01*
X90225877Y-130379745D01*
X89943004Y-130395313D01*
X89937836Y-130396341D01*
X89670324Y-130449552D01*
X89670318Y-130449554D01*
X89665148Y-130450582D01*
X89660170Y-130452330D01*
X89660167Y-130452331D01*
X89402816Y-130542706D01*
X89397850Y-130544450D01*
X89393187Y-130546872D01*
X89393183Y-130546874D01*
X89151115Y-130672618D01*
X89151108Y-130672622D01*
X89146446Y-130675044D01*
X88915950Y-130839759D01*
X88912144Y-130843389D01*
X88912140Y-130843393D01*
X88786960Y-130962809D01*
X88710962Y-131035307D01*
X88707700Y-131039445D01*
X88707698Y-131039447D01*
X88670366Y-131086803D01*
X88535573Y-131257788D01*
X88507445Y-131306214D01*
X88433523Y-131433481D01*
X88393281Y-131502762D01*
X88286926Y-131765340D01*
X88218629Y-132040285D01*
X88218092Y-132045526D01*
X88218091Y-132045532D01*
X88190290Y-132316876D01*
X88189754Y-132322110D01*
X76289247Y-132322110D01*
X76289247Y-129681683D01*
X76309209Y-129607183D01*
X76363747Y-129552645D01*
X76438247Y-129532683D01*
X79151127Y-129532683D01*
X79174433Y-129534517D01*
X79194374Y-129537675D01*
X79196408Y-129537353D01*
X79570859Y-129518362D01*
X79574589Y-129517791D01*
X79574595Y-129517790D01*
X79939746Y-129461851D01*
X79939748Y-129461850D01*
X79943479Y-129461279D01*
X79947138Y-129460332D01*
X79947141Y-129460331D01*
X80304749Y-129367739D01*
X80304755Y-129367737D01*
X80308413Y-129366790D01*
X80311955Y-129365478D01*
X80311962Y-129365476D01*
X80658363Y-129237183D01*
X80658365Y-129237182D01*
X80661916Y-129235867D01*
X80665308Y-129234203D01*
X80665313Y-129234201D01*
X80817192Y-129159700D01*
X81000359Y-129069852D01*
X81003551Y-129067863D01*
X81003559Y-129067858D01*
X81317057Y-128872453D01*
X81317061Y-128872450D01*
X81320270Y-128870450D01*
X81323264Y-128868133D01*
X81323269Y-128868129D01*
X81615380Y-128642017D01*
X81618367Y-128639705D01*
X81621096Y-128637111D01*
X81621104Y-128637104D01*
X81825358Y-128442945D01*
X81891591Y-128379986D01*
X81894045Y-128377127D01*
X81894053Y-128377119D01*
X82134669Y-128096834D01*
X82134670Y-128096833D01*
X82137137Y-128093959D01*
X82139299Y-128090853D01*
X82350331Y-127787655D01*
X82350333Y-127787651D01*
X82352487Y-127784557D01*
X82436093Y-127633929D01*
X82533603Y-127458249D01*
X82533605Y-127458246D01*
X82535430Y-127454957D01*
X82674225Y-127131525D01*
X82682604Y-127112000D01*
X82682605Y-127111996D01*
X82684089Y-127108539D01*
X82687935Y-127096283D01*
X82795811Y-126752453D01*
X82796939Y-126748859D01*
X82872822Y-126379608D01*
X82910960Y-126004574D01*
X82910960Y-125627606D01*
X82874154Y-125265667D01*
X82873206Y-125256346D01*
X82873205Y-125256342D01*
X82872822Y-125252572D01*
X82796939Y-124883321D01*
X82684089Y-124523641D01*
X82535430Y-124177223D01*
X82533603Y-124173931D01*
X82354319Y-123850923D01*
X82354316Y-123850918D01*
X82352487Y-123847623D01*
X82287643Y-123754458D01*
X82139299Y-123541327D01*
X82139297Y-123541325D01*
X82137137Y-123538221D01*
X81973315Y-123347391D01*
X81894053Y-123255061D01*
X81894045Y-123255053D01*
X81891591Y-123252194D01*
X81663359Y-123035243D01*
X81621104Y-122995076D01*
X81621096Y-122995069D01*
X81618367Y-122992475D01*
X81505995Y-122905492D01*
X81323269Y-122764051D01*
X81323264Y-122764047D01*
X81320270Y-122761730D01*
X81317061Y-122759730D01*
X81317057Y-122759727D01*
X81003559Y-122564322D01*
X81003551Y-122564317D01*
X81000359Y-122562328D01*
X80768400Y-122448546D01*
X80665313Y-122397979D01*
X80665308Y-122397977D01*
X80661916Y-122396313D01*
X80650554Y-122392105D01*
X80311962Y-122266704D01*
X80311955Y-122266702D01*
X80308413Y-122265390D01*
X80304755Y-122264443D01*
X80304749Y-122264441D01*
X79947141Y-122171849D01*
X79947138Y-122171848D01*
X79943479Y-122170901D01*
X79939748Y-122170330D01*
X79939746Y-122170329D01*
X79574595Y-122114390D01*
X79574589Y-122114389D01*
X79570859Y-122113818D01*
X79196380Y-122094826D01*
X79194374Y-122094508D01*
X79174433Y-122097666D01*
X79151127Y-122099500D01*
X76438247Y-122099500D01*
X76363747Y-122079538D01*
X76309209Y-122025000D01*
X76289247Y-121950500D01*
X76289247Y-107990000D01*
X81519437Y-107990000D01*
X81520004Y-107996481D01*
X81535663Y-108175462D01*
X81539651Y-108221050D01*
X81541333Y-108227326D01*
X81541333Y-108227328D01*
X81596366Y-108432711D01*
X81599680Y-108445079D01*
X81697699Y-108655281D01*
X81701430Y-108660609D01*
X81701432Y-108660613D01*
X81779810Y-108772548D01*
X81830730Y-108845269D01*
X81994731Y-109009270D01*
X82097562Y-109081273D01*
X82179386Y-109138568D01*
X82179390Y-109138570D01*
X82184718Y-109142301D01*
X82394921Y-109240320D01*
X82401202Y-109242003D01*
X82612672Y-109298667D01*
X82612674Y-109298667D01*
X82618950Y-109300349D01*
X82625421Y-109300915D01*
X82625426Y-109300916D01*
X82843519Y-109319996D01*
X82850000Y-109320563D01*
X82856481Y-109319996D01*
X83074574Y-109300916D01*
X83074579Y-109300915D01*
X83081050Y-109300349D01*
X83087326Y-109298667D01*
X83087328Y-109298667D01*
X83298798Y-109242003D01*
X83305079Y-109240320D01*
X83515282Y-109142301D01*
X83520610Y-109138570D01*
X83520614Y-109138568D01*
X83602438Y-109081273D01*
X83705269Y-109009270D01*
X83869270Y-108845269D01*
X83920190Y-108772548D01*
X83998568Y-108660613D01*
X83998570Y-108660609D01*
X84002301Y-108655281D01*
X84100320Y-108445079D01*
X84103634Y-108432711D01*
X84158667Y-108227328D01*
X84158667Y-108227326D01*
X84160349Y-108221050D01*
X84164338Y-108175462D01*
X84179996Y-107996481D01*
X84180563Y-107990000D01*
X84165241Y-107814867D01*
X84160916Y-107765426D01*
X84160915Y-107765421D01*
X84160349Y-107758950D01*
X84156677Y-107745244D01*
X84102003Y-107541202D01*
X84100320Y-107534921D01*
X84002301Y-107324719D01*
X83998570Y-107319391D01*
X83998568Y-107319387D01*
X83872999Y-107140057D01*
X83869270Y-107134731D01*
X83705269Y-106970730D01*
X83699935Y-106966995D01*
X83699934Y-106966994D01*
X83615855Y-106908121D01*
X83566278Y-106849037D01*
X83552885Y-106773081D01*
X83579265Y-106700605D01*
X83614793Y-106664765D01*
X83651797Y-106638370D01*
X83661986Y-106626010D01*
X83659111Y-106618321D01*
X82863871Y-105823081D01*
X82850000Y-105815073D01*
X82836129Y-105823081D01*
X82042965Y-106616245D01*
X82034957Y-106630116D01*
X82037942Y-106635286D01*
X82074750Y-106656795D01*
X82129002Y-106711617D01*
X82148574Y-106786221D01*
X82128222Y-106860615D01*
X82085039Y-106907494D01*
X82000064Y-106966995D01*
X82000058Y-106967000D01*
X81994731Y-106970730D01*
X81830730Y-107134731D01*
X81827001Y-107140057D01*
X81701432Y-107319387D01*
X81701430Y-107319391D01*
X81697699Y-107324719D01*
X81599680Y-107534921D01*
X81597997Y-107541202D01*
X81543324Y-107745244D01*
X81539651Y-107758950D01*
X81539085Y-107765421D01*
X81539084Y-107765426D01*
X81534759Y-107814867D01*
X81519437Y-107990000D01*
X76289247Y-107990000D01*
X76289247Y-105420968D01*
X81412870Y-105420968D01*
X81425731Y-105644018D01*
X81427426Y-105656079D01*
X81476543Y-105874031D01*
X81480186Y-105885657D01*
X81564243Y-106092662D01*
X81569734Y-106103533D01*
X81661134Y-106252683D01*
X81672751Y-106263707D01*
X81678907Y-106261883D01*
X82476919Y-105463871D01*
X82484927Y-105450000D01*
X83215073Y-105450000D01*
X83223081Y-105463871D01*
X84013157Y-106253947D01*
X84027028Y-106261955D01*
X84034228Y-106257799D01*
X84078959Y-106195549D01*
X84085242Y-106185092D01*
X84184226Y-105984813D01*
X84188714Y-105973479D01*
X84253660Y-105759716D01*
X84256235Y-105747803D01*
X84285676Y-105524173D01*
X84286291Y-105516285D01*
X84287814Y-105453956D01*
X84287586Y-105446051D01*
X84269104Y-105221241D01*
X84267115Y-105209227D01*
X84212687Y-104992541D01*
X84208758Y-104981002D01*
X84119674Y-104776122D01*
X84113914Y-104765379D01*
X84038119Y-104648218D01*
X84026234Y-104637479D01*
X84019582Y-104639628D01*
X83223081Y-105436129D01*
X83215073Y-105450000D01*
X82484927Y-105450000D01*
X82476919Y-105436129D01*
X81686934Y-104646144D01*
X81673063Y-104638136D01*
X81666466Y-104641945D01*
X81603187Y-104734709D01*
X81597172Y-104745297D01*
X81503106Y-104947945D01*
X81498896Y-104959386D01*
X81439190Y-105174676D01*
X81436909Y-105186639D01*
X81413168Y-105408791D01*
X81412870Y-105420968D01*
X76289247Y-105420968D01*
X76289247Y-101649000D01*
X76309209Y-101574500D01*
X76363747Y-101519962D01*
X76438247Y-101500000D01*
X82080183Y-101500000D01*
X82154683Y-101519962D01*
X82209221Y-101574500D01*
X82229183Y-101649000D01*
X82209221Y-101723500D01*
X82165646Y-101771054D01*
X81994731Y-101890730D01*
X81830730Y-102054731D01*
X81827001Y-102060057D01*
X81701432Y-102239387D01*
X81701430Y-102239391D01*
X81697699Y-102244719D01*
X81599680Y-102454921D01*
X81539651Y-102678950D01*
X81519437Y-102910000D01*
X81539651Y-103141050D01*
X81599680Y-103365079D01*
X81697699Y-103575281D01*
X81701430Y-103580609D01*
X81701432Y-103580613D01*
X81737081Y-103631525D01*
X81830730Y-103765269D01*
X81994731Y-103929270D01*
X82082201Y-103990517D01*
X82131775Y-104049598D01*
X82145168Y-104125554D01*
X82118789Y-104198031D01*
X82082954Y-104232162D01*
X82083771Y-104233250D01*
X82047303Y-104260631D01*
X82037421Y-104273234D01*
X82040767Y-104281557D01*
X82836129Y-105076919D01*
X82850000Y-105084927D01*
X82863871Y-105076919D01*
X83655731Y-104285059D01*
X83663739Y-104271188D01*
X83658826Y-104262677D01*
X83650526Y-104256122D01*
X83640370Y-104249374D01*
X83630192Y-104243756D01*
X83574617Y-104190275D01*
X83553229Y-104116172D01*
X83571759Y-104041303D01*
X83616739Y-103991260D01*
X83699934Y-103933006D01*
X83699937Y-103933004D01*
X83705269Y-103929270D01*
X83869270Y-103765269D01*
X83962919Y-103631525D01*
X83998568Y-103580613D01*
X83998570Y-103580609D01*
X84002301Y-103575281D01*
X84100320Y-103365079D01*
X84160349Y-103141050D01*
X84180563Y-102910000D01*
X84160349Y-102678950D01*
X84100320Y-102454921D01*
X84002301Y-102244719D01*
X83998570Y-102239391D01*
X83998568Y-102239387D01*
X83872999Y-102060057D01*
X83869270Y-102054731D01*
X83705269Y-101890730D01*
X83534350Y-101771051D01*
X83484776Y-101711970D01*
X83471383Y-101636014D01*
X83497762Y-101563537D01*
X83556846Y-101513960D01*
X83619816Y-101500000D01*
X93500000Y-101500000D01*
X93500000Y-82061718D01*
X93519962Y-81987218D01*
X93543641Y-81956359D01*
X95456359Y-80043641D01*
X95523154Y-80005077D01*
X95561718Y-80000000D01*
X109000000Y-80000000D01*
X109000000Y-78322110D01*
X116189754Y-78322110D01*
X116190995Y-78353709D01*
X116200876Y-78605192D01*
X116251774Y-78883883D01*
X116253442Y-78888884D01*
X116253444Y-78888890D01*
X116339762Y-79147618D01*
X116339765Y-79147625D01*
X116341432Y-79152622D01*
X116468061Y-79406047D01*
X116629135Y-79639101D01*
X116821439Y-79847135D01*
X117041138Y-80025997D01*
X117126963Y-80077668D01*
X117272397Y-80165227D01*
X117283846Y-80172120D01*
X117386885Y-80215751D01*
X117520679Y-80272405D01*
X117544722Y-80282586D01*
X117549821Y-80283938D01*
X117549824Y-80283939D01*
X117746803Y-80336167D01*
X117818560Y-80355193D01*
X118099897Y-80388492D01*
X118210181Y-80385893D01*
X118377863Y-80381941D01*
X118377865Y-80381941D01*
X118383119Y-80381817D01*
X118551204Y-80353840D01*
X118657385Y-80336167D01*
X118657389Y-80336166D01*
X118662574Y-80335303D01*
X118753948Y-80306405D01*
X118927675Y-80251463D01*
X118927682Y-80251460D01*
X118932688Y-80249877D01*
X118937422Y-80247604D01*
X118937429Y-80247601D01*
X119108971Y-80165227D01*
X119188071Y-80127244D01*
X119192448Y-80124320D01*
X119192454Y-80124316D01*
X119370907Y-80005077D01*
X119423627Y-79969851D01*
X119428003Y-79965932D01*
X119630727Y-79784356D01*
X119634655Y-79780838D01*
X119816947Y-79563976D01*
X119824749Y-79551466D01*
X119964075Y-79328064D01*
X119964077Y-79328060D01*
X119966863Y-79323593D01*
X120081414Y-79064484D01*
X120132349Y-78883883D01*
X120156886Y-78796881D01*
X120156887Y-78796876D01*
X120158313Y-78791820D01*
X120183380Y-78605192D01*
X120195520Y-78514810D01*
X120195520Y-78514805D01*
X120196026Y-78511041D01*
X120199984Y-78385108D01*
X120195524Y-78322110D01*
X120180347Y-78107770D01*
X120179975Y-78102515D01*
X120120349Y-77825561D01*
X120022294Y-77559771D01*
X119994167Y-77507641D01*
X119890266Y-77315079D01*
X119890264Y-77315076D01*
X119887767Y-77310448D01*
X119852244Y-77262353D01*
X119722580Y-77086803D01*
X119719452Y-77082568D01*
X119715761Y-77078819D01*
X119715758Y-77078815D01*
X119621497Y-76983063D01*
X119520708Y-76880678D01*
X119467092Y-76839759D01*
X119299689Y-76712001D01*
X119295500Y-76708804D01*
X119048321Y-76570378D01*
X118784104Y-76468160D01*
X118508121Y-76404190D01*
X118502880Y-76403736D01*
X118502873Y-76403735D01*
X118231134Y-76380200D01*
X118231130Y-76380200D01*
X118225877Y-76379745D01*
X117943004Y-76395313D01*
X117937836Y-76396341D01*
X117670324Y-76449552D01*
X117670318Y-76449554D01*
X117665148Y-76450582D01*
X117660170Y-76452330D01*
X117660167Y-76452331D01*
X117402816Y-76542706D01*
X117397850Y-76544450D01*
X117393187Y-76546872D01*
X117393183Y-76546874D01*
X117151115Y-76672618D01*
X117151108Y-76672622D01*
X117146446Y-76675044D01*
X116915950Y-76839759D01*
X116912144Y-76843389D01*
X116912140Y-76843393D01*
X116786960Y-76962809D01*
X116710962Y-77035307D01*
X116707700Y-77039445D01*
X116707698Y-77039447D01*
X116670366Y-77086803D01*
X116535573Y-77257788D01*
X116507445Y-77306214D01*
X116433523Y-77433481D01*
X116393281Y-77502762D01*
X116286926Y-77765340D01*
X116218629Y-78040285D01*
X116218092Y-78045526D01*
X116218091Y-78045532D01*
X116190290Y-78316876D01*
X116189754Y-78322110D01*
X109000000Y-78322110D01*
X109000000Y-73642611D01*
X123044394Y-73642611D01*
X123062999Y-73811135D01*
X123066087Y-73819572D01*
X123066087Y-73819574D01*
X123073917Y-73840969D01*
X123121266Y-73970356D01*
X123126275Y-73977811D01*
X123126276Y-73977812D01*
X123134431Y-73989947D01*
X123215830Y-74111083D01*
X123222472Y-74117126D01*
X123222473Y-74117128D01*
X123240430Y-74133467D01*
X123341233Y-74225191D01*
X123349128Y-74229478D01*
X123349130Y-74229479D01*
X123482344Y-74301808D01*
X123482347Y-74301809D01*
X123490235Y-74306092D01*
X123527743Y-74315932D01*
X123645549Y-74346838D01*
X123645551Y-74346838D01*
X123654233Y-74349116D01*
X123663209Y-74349257D01*
X123814781Y-74351638D01*
X123823760Y-74351779D01*
X123989029Y-74313928D01*
X124140498Y-74237747D01*
X124162279Y-74219144D01*
X124262594Y-74133467D01*
X124262596Y-74133465D01*
X124269423Y-74127634D01*
X124286866Y-74103360D01*
X124363124Y-73997236D01*
X124363126Y-73997232D01*
X124368361Y-73989947D01*
X124379628Y-73961920D01*
X124428251Y-73840969D01*
X124428252Y-73840964D01*
X124431601Y-73832634D01*
X124455490Y-73664778D01*
X124455645Y-73650000D01*
X124435276Y-73481680D01*
X124375345Y-73323077D01*
X124279312Y-73183349D01*
X124272604Y-73177372D01*
X124159428Y-73076535D01*
X124159424Y-73076532D01*
X124152721Y-73070560D01*
X124144783Y-73066357D01*
X124144780Y-73066355D01*
X124010823Y-72995429D01*
X124002881Y-72991224D01*
X123994168Y-72989035D01*
X123994167Y-72989035D01*
X123921691Y-72970830D01*
X123838441Y-72949919D01*
X123734002Y-72949372D01*
X123677873Y-72949078D01*
X123668895Y-72949031D01*
X123660164Y-72951127D01*
X123660165Y-72951127D01*
X123512765Y-72986515D01*
X123512762Y-72986516D01*
X123504032Y-72988612D01*
X123496053Y-72992730D01*
X123496051Y-72992731D01*
X123490824Y-72995429D01*
X123353369Y-73066375D01*
X123346602Y-73072279D01*
X123346598Y-73072281D01*
X123341722Y-73076535D01*
X123225604Y-73177831D01*
X123128113Y-73316547D01*
X123066524Y-73474513D01*
X123044394Y-73642611D01*
X109000000Y-73642611D01*
X109000000Y-72613746D01*
X120251327Y-72613746D01*
X120254906Y-72619946D01*
X120461343Y-72746450D01*
X120471753Y-72751755D01*
X120698405Y-72845637D01*
X120709511Y-72849245D01*
X120948062Y-72906517D01*
X120959585Y-72908342D01*
X121204168Y-72927591D01*
X121215832Y-72927591D01*
X121460415Y-72908342D01*
X121471938Y-72906517D01*
X121710489Y-72849245D01*
X121721595Y-72845637D01*
X121948247Y-72751755D01*
X121958657Y-72746450D01*
X122163404Y-72620982D01*
X122168377Y-72613746D01*
X125331327Y-72613746D01*
X125334906Y-72619946D01*
X125541343Y-72746450D01*
X125551753Y-72751755D01*
X125778405Y-72845637D01*
X125789511Y-72849245D01*
X126028062Y-72906517D01*
X126039585Y-72908342D01*
X126284168Y-72927591D01*
X126295832Y-72927591D01*
X126540415Y-72908342D01*
X126551938Y-72906517D01*
X126790489Y-72849245D01*
X126801595Y-72845637D01*
X127028247Y-72751755D01*
X127038657Y-72746450D01*
X127243404Y-72620982D01*
X127248692Y-72613287D01*
X127243780Y-72602990D01*
X126303871Y-71663081D01*
X126290000Y-71655073D01*
X126276129Y-71663081D01*
X125339335Y-72599875D01*
X125331327Y-72613746D01*
X122168377Y-72613746D01*
X122168692Y-72613287D01*
X122163780Y-72602990D01*
X121223871Y-71663081D01*
X121210000Y-71655073D01*
X121196129Y-71663081D01*
X120259335Y-72599875D01*
X120251327Y-72613746D01*
X109000000Y-72613746D01*
X109000000Y-71295832D01*
X119572409Y-71295832D01*
X119591658Y-71540415D01*
X119593483Y-71551938D01*
X119650755Y-71790489D01*
X119654363Y-71801595D01*
X119748245Y-72028247D01*
X119753550Y-72038657D01*
X119879018Y-72243404D01*
X119886713Y-72248692D01*
X119897010Y-72243780D01*
X120836919Y-71303871D01*
X120844927Y-71290000D01*
X121575073Y-71290000D01*
X121583081Y-71303871D01*
X122519875Y-72240665D01*
X122533746Y-72248673D01*
X122539946Y-72245094D01*
X122666450Y-72038657D01*
X122671755Y-72028247D01*
X122765637Y-71801595D01*
X122769245Y-71790489D01*
X122826517Y-71551938D01*
X122828342Y-71540415D01*
X122847591Y-71295832D01*
X124652409Y-71295832D01*
X124671658Y-71540415D01*
X124673483Y-71551938D01*
X124730755Y-71790489D01*
X124734363Y-71801595D01*
X124828245Y-72028247D01*
X124833550Y-72038657D01*
X124959018Y-72243404D01*
X124966713Y-72248692D01*
X124977010Y-72243780D01*
X125916919Y-71303871D01*
X125924927Y-71290000D01*
X126655073Y-71290000D01*
X126663081Y-71303871D01*
X127599875Y-72240665D01*
X127613746Y-72248673D01*
X127619946Y-72245094D01*
X127746450Y-72038657D01*
X127751755Y-72028247D01*
X127845637Y-71801595D01*
X127849245Y-71790489D01*
X127906517Y-71551938D01*
X127908342Y-71540415D01*
X127927591Y-71295832D01*
X127927591Y-71284168D01*
X127908342Y-71039585D01*
X127906517Y-71028062D01*
X127849245Y-70789511D01*
X127845637Y-70778405D01*
X127751755Y-70551753D01*
X127746450Y-70541343D01*
X127620982Y-70336596D01*
X127613287Y-70331308D01*
X127602990Y-70336220D01*
X126663081Y-71276129D01*
X126655073Y-71290000D01*
X125924927Y-71290000D01*
X125916919Y-71276129D01*
X124980125Y-70339335D01*
X124966254Y-70331327D01*
X124960054Y-70334906D01*
X124833550Y-70541343D01*
X124828245Y-70551753D01*
X124734363Y-70778405D01*
X124730755Y-70789511D01*
X124673483Y-71028062D01*
X124671658Y-71039585D01*
X124652409Y-71284168D01*
X124652409Y-71295832D01*
X122847591Y-71295832D01*
X122847591Y-71284168D01*
X122828342Y-71039585D01*
X122826517Y-71028062D01*
X122769245Y-70789511D01*
X122765637Y-70778405D01*
X122671755Y-70551753D01*
X122666450Y-70541343D01*
X122540982Y-70336596D01*
X122533287Y-70331308D01*
X122522990Y-70336220D01*
X121583081Y-71276129D01*
X121575073Y-71290000D01*
X120844927Y-71290000D01*
X120836919Y-71276129D01*
X119900125Y-70339335D01*
X119886254Y-70331327D01*
X119880054Y-70334906D01*
X119753550Y-70541343D01*
X119748245Y-70551753D01*
X119654363Y-70778405D01*
X119650755Y-70789511D01*
X119593483Y-71028062D01*
X119591658Y-71039585D01*
X119572409Y-71284168D01*
X119572409Y-71295832D01*
X109000000Y-71295832D01*
X109000000Y-69733102D01*
X113131971Y-69733102D01*
X113135180Y-69738662D01*
X113308271Y-69844733D01*
X113318676Y-69850034D01*
X113527156Y-69936389D01*
X113538250Y-69939994D01*
X113757680Y-69992675D01*
X113769196Y-69994499D01*
X113994168Y-70012204D01*
X114005832Y-70012204D01*
X114230804Y-69994499D01*
X114242320Y-69992675D01*
X114350458Y-69966713D01*
X120251308Y-69966713D01*
X120256220Y-69977010D01*
X121196129Y-70916919D01*
X121210000Y-70924927D01*
X121223871Y-70916919D01*
X122160665Y-69980125D01*
X122168673Y-69966254D01*
X122165094Y-69960054D01*
X121958657Y-69833550D01*
X121948247Y-69828245D01*
X121721595Y-69734363D01*
X121710489Y-69730755D01*
X121471938Y-69673483D01*
X121460415Y-69671658D01*
X121215832Y-69652409D01*
X121204168Y-69652409D01*
X120959585Y-69671658D01*
X120948062Y-69673483D01*
X120709511Y-69730755D01*
X120698405Y-69734363D01*
X120471753Y-69828245D01*
X120461343Y-69833550D01*
X120256596Y-69959018D01*
X120251308Y-69966713D01*
X114350458Y-69966713D01*
X114461750Y-69939994D01*
X114472844Y-69936389D01*
X114681324Y-69850034D01*
X114691729Y-69844733D01*
X114857168Y-69743351D01*
X114868192Y-69731734D01*
X114866368Y-69725578D01*
X114013871Y-68873081D01*
X114000000Y-68865073D01*
X113986129Y-68873081D01*
X113139979Y-69719231D01*
X113131971Y-69733102D01*
X109000000Y-69733102D01*
X109000000Y-68505832D01*
X112487796Y-68505832D01*
X112505501Y-68730804D01*
X112507325Y-68742320D01*
X112560006Y-68961750D01*
X112563611Y-68972844D01*
X112649966Y-69181324D01*
X112655267Y-69191729D01*
X112756649Y-69357168D01*
X112768266Y-69368192D01*
X112774422Y-69366368D01*
X113626919Y-68513871D01*
X113634927Y-68500000D01*
X114365073Y-68500000D01*
X114373081Y-68513871D01*
X115219231Y-69360021D01*
X115233102Y-69368029D01*
X115238662Y-69364820D01*
X115344733Y-69191729D01*
X115350034Y-69181324D01*
X115436389Y-68972844D01*
X115439994Y-68961750D01*
X115490831Y-68750000D01*
X122219783Y-68750000D01*
X122238623Y-68989379D01*
X122294677Y-69222863D01*
X122386567Y-69444704D01*
X122389622Y-69449689D01*
X122508972Y-69644453D01*
X122508976Y-69644458D01*
X122512028Y-69649439D01*
X122667973Y-69832027D01*
X122850561Y-69987972D01*
X122855542Y-69991024D01*
X122855547Y-69991028D01*
X122890104Y-70012204D01*
X123055296Y-70113433D01*
X123277137Y-70205323D01*
X123510621Y-70261377D01*
X123750000Y-70280217D01*
X123755832Y-70279758D01*
X123983547Y-70261836D01*
X123989379Y-70261377D01*
X124222863Y-70205323D01*
X124444704Y-70113433D01*
X124609896Y-70012204D01*
X124644453Y-69991028D01*
X124644458Y-69991024D01*
X124649439Y-69987972D01*
X124674330Y-69966713D01*
X125331308Y-69966713D01*
X125336220Y-69977010D01*
X126276129Y-70916919D01*
X126290000Y-70924927D01*
X126303871Y-70916919D01*
X127240665Y-69980125D01*
X127248673Y-69966254D01*
X127245094Y-69960054D01*
X127038657Y-69833550D01*
X127028247Y-69828245D01*
X126801595Y-69734363D01*
X126790489Y-69730755D01*
X126551938Y-69673483D01*
X126540415Y-69671658D01*
X126295832Y-69652409D01*
X126284168Y-69652409D01*
X126039585Y-69671658D01*
X126028062Y-69673483D01*
X125789511Y-69730755D01*
X125778405Y-69734363D01*
X125551753Y-69828245D01*
X125541343Y-69833550D01*
X125336596Y-69959018D01*
X125331308Y-69966713D01*
X124674330Y-69966713D01*
X124832027Y-69832027D01*
X124987972Y-69649439D01*
X124991024Y-69644458D01*
X124991028Y-69644453D01*
X125110378Y-69449689D01*
X125113433Y-69444704D01*
X125205323Y-69222863D01*
X125261377Y-68989379D01*
X125280217Y-68750000D01*
X125261377Y-68510621D01*
X125205323Y-68277137D01*
X125113433Y-68055296D01*
X125079557Y-68000015D01*
X124991028Y-67855547D01*
X124991024Y-67855542D01*
X124987972Y-67850561D01*
X124832027Y-67667973D01*
X124674867Y-67533746D01*
X125331327Y-67533746D01*
X125334906Y-67539946D01*
X125541343Y-67666450D01*
X125551753Y-67671755D01*
X125778405Y-67765637D01*
X125789511Y-67769245D01*
X126028062Y-67826517D01*
X126039585Y-67828342D01*
X126284168Y-67847591D01*
X126295832Y-67847591D01*
X126540415Y-67828342D01*
X126551938Y-67826517D01*
X126790489Y-67769245D01*
X126801595Y-67765637D01*
X127028247Y-67671755D01*
X127038657Y-67666450D01*
X127243404Y-67540982D01*
X127248692Y-67533287D01*
X127243780Y-67522990D01*
X126303871Y-66583081D01*
X126290000Y-66575073D01*
X126276129Y-66583081D01*
X125339335Y-67519875D01*
X125331327Y-67533746D01*
X124674867Y-67533746D01*
X124649439Y-67512028D01*
X124644458Y-67508976D01*
X124644453Y-67508972D01*
X124449689Y-67389622D01*
X124444704Y-67386567D01*
X124222863Y-67294677D01*
X123989379Y-67238623D01*
X123750000Y-67219783D01*
X123510621Y-67238623D01*
X123277137Y-67294677D01*
X123055296Y-67386567D01*
X123050311Y-67389622D01*
X122855547Y-67508972D01*
X122855542Y-67508976D01*
X122850561Y-67512028D01*
X122667973Y-67667973D01*
X122512028Y-67850561D01*
X122508976Y-67855542D01*
X122508972Y-67855547D01*
X122420443Y-68000015D01*
X122386567Y-68055296D01*
X122294677Y-68277137D01*
X122238623Y-68510621D01*
X122219783Y-68750000D01*
X115490831Y-68750000D01*
X115492675Y-68742320D01*
X115494499Y-68730804D01*
X115512204Y-68505832D01*
X115512204Y-68494168D01*
X115494499Y-68269196D01*
X115492675Y-68257680D01*
X115439994Y-68038250D01*
X115436389Y-68027156D01*
X115350034Y-67818676D01*
X115344733Y-67808271D01*
X115243351Y-67642832D01*
X115231734Y-67631808D01*
X115225578Y-67633632D01*
X114373081Y-68486129D01*
X114365073Y-68500000D01*
X113634927Y-68500000D01*
X113626919Y-68486129D01*
X112780769Y-67639979D01*
X112766898Y-67631971D01*
X112761338Y-67635180D01*
X112655267Y-67808271D01*
X112649966Y-67818676D01*
X112563611Y-68027156D01*
X112560006Y-68038250D01*
X112507325Y-68257680D01*
X112505501Y-68269196D01*
X112487796Y-68494168D01*
X112487796Y-68505832D01*
X109000000Y-68505832D01*
X109000000Y-67268266D01*
X113131808Y-67268266D01*
X113133632Y-67274422D01*
X113986129Y-68126919D01*
X114000000Y-68134927D01*
X114013871Y-68126919D01*
X114607044Y-67533746D01*
X120251327Y-67533746D01*
X120254906Y-67539946D01*
X120461343Y-67666450D01*
X120471753Y-67671755D01*
X120698405Y-67765637D01*
X120709511Y-67769245D01*
X120948062Y-67826517D01*
X120959585Y-67828342D01*
X121204168Y-67847591D01*
X121215832Y-67847591D01*
X121460415Y-67828342D01*
X121471938Y-67826517D01*
X121710489Y-67769245D01*
X121721595Y-67765637D01*
X121948247Y-67671755D01*
X121958657Y-67666450D01*
X122163404Y-67540982D01*
X122168692Y-67533287D01*
X122163780Y-67522990D01*
X121223871Y-66583081D01*
X121210000Y-66575073D01*
X121196129Y-66583081D01*
X120259335Y-67519875D01*
X120251327Y-67533746D01*
X114607044Y-67533746D01*
X114860021Y-67280769D01*
X114868029Y-67266898D01*
X114864820Y-67261338D01*
X114691729Y-67155267D01*
X114681324Y-67149966D01*
X114472844Y-67063611D01*
X114461750Y-67060006D01*
X114242320Y-67007325D01*
X114230804Y-67005501D01*
X114005832Y-66987796D01*
X113994168Y-66987796D01*
X113769196Y-67005501D01*
X113757680Y-67007325D01*
X113538250Y-67060006D01*
X113527156Y-67063611D01*
X113318676Y-67149966D01*
X113308271Y-67155267D01*
X113142832Y-67256649D01*
X113131808Y-67268266D01*
X109000000Y-67268266D01*
X109000000Y-66215832D01*
X119572409Y-66215832D01*
X119591658Y-66460415D01*
X119593483Y-66471938D01*
X119650755Y-66710489D01*
X119654363Y-66721595D01*
X119748245Y-66948247D01*
X119753550Y-66958657D01*
X119879018Y-67163404D01*
X119886713Y-67168692D01*
X119897010Y-67163780D01*
X120836919Y-66223871D01*
X120844927Y-66210000D01*
X121575073Y-66210000D01*
X121583081Y-66223871D01*
X122519875Y-67160665D01*
X122533746Y-67168673D01*
X122539946Y-67165094D01*
X122666450Y-66958657D01*
X122671755Y-66948247D01*
X122765637Y-66721595D01*
X122769245Y-66710489D01*
X122826517Y-66471938D01*
X122828342Y-66460415D01*
X122847591Y-66215832D01*
X124652409Y-66215832D01*
X124671658Y-66460415D01*
X124673483Y-66471938D01*
X124730755Y-66710489D01*
X124734363Y-66721595D01*
X124828245Y-66948247D01*
X124833550Y-66958657D01*
X124959018Y-67163404D01*
X124966713Y-67168692D01*
X124977010Y-67163780D01*
X125916919Y-66223871D01*
X125924927Y-66210000D01*
X126655073Y-66210000D01*
X126663081Y-66223871D01*
X127599875Y-67160665D01*
X127613746Y-67168673D01*
X127619946Y-67165094D01*
X127746450Y-66958657D01*
X127751755Y-66948247D01*
X127845637Y-66721595D01*
X127849245Y-66710489D01*
X127906517Y-66471938D01*
X127908342Y-66460415D01*
X127927591Y-66215832D01*
X127927591Y-66204168D01*
X127919231Y-66097948D01*
X129519636Y-66097948D01*
X129549301Y-66294098D01*
X129551906Y-66301177D01*
X129590836Y-66406988D01*
X129600000Y-66458437D01*
X129600000Y-66950000D01*
X130090111Y-66950000D01*
X130149286Y-66962255D01*
X130196276Y-66982590D01*
X130196284Y-66982593D01*
X130203213Y-66985591D01*
X130210607Y-66987136D01*
X130210608Y-66987136D01*
X130270720Y-66999694D01*
X130397402Y-67026159D01*
X130403909Y-67026500D01*
X130549578Y-67026500D01*
X130553327Y-67026119D01*
X130553331Y-67026119D01*
X130689856Y-67012251D01*
X130689858Y-67012251D01*
X130697365Y-67011488D01*
X130871817Y-66956818D01*
X130916374Y-66950000D01*
X131400000Y-66950000D01*
X131400000Y-66467407D01*
X131414271Y-66406078D01*
X131414013Y-66405982D01*
X131414761Y-66403970D01*
X131415307Y-66401625D01*
X131416644Y-66398908D01*
X131416645Y-66398906D01*
X131419976Y-66392136D01*
X131469982Y-66200161D01*
X131480364Y-66002052D01*
X131450699Y-65805902D01*
X131409164Y-65693012D01*
X131400000Y-65641563D01*
X131400000Y-65150000D01*
X130909889Y-65150000D01*
X130850714Y-65137745D01*
X130803724Y-65117410D01*
X130803716Y-65117407D01*
X130796787Y-65114409D01*
X130789393Y-65112864D01*
X130789392Y-65112864D01*
X130669172Y-65087749D01*
X130602598Y-65073841D01*
X130596091Y-65073500D01*
X130450422Y-65073500D01*
X130446673Y-65073881D01*
X130446669Y-65073881D01*
X130310144Y-65087749D01*
X130310142Y-65087749D01*
X130302635Y-65088512D01*
X130128183Y-65143182D01*
X130083626Y-65150000D01*
X129600000Y-65150000D01*
X129600000Y-65632593D01*
X129585729Y-65693922D01*
X129585987Y-65694018D01*
X129585239Y-65696030D01*
X129584693Y-65698375D01*
X129580024Y-65707864D01*
X129578122Y-65715166D01*
X129544322Y-65844927D01*
X129530018Y-65899839D01*
X129519636Y-66097948D01*
X127919231Y-66097948D01*
X127908342Y-65959585D01*
X127906517Y-65948062D01*
X127849245Y-65709511D01*
X127845637Y-65698405D01*
X127751755Y-65471753D01*
X127746450Y-65461343D01*
X127620982Y-65256596D01*
X127613287Y-65251308D01*
X127602990Y-65256220D01*
X126663081Y-66196129D01*
X126655073Y-66210000D01*
X125924927Y-66210000D01*
X125916919Y-66196129D01*
X124980125Y-65259335D01*
X124966254Y-65251327D01*
X124960054Y-65254906D01*
X124833550Y-65461343D01*
X124828245Y-65471753D01*
X124734363Y-65698405D01*
X124730755Y-65709511D01*
X124673483Y-65948062D01*
X124671658Y-65959585D01*
X124652409Y-66204168D01*
X124652409Y-66215832D01*
X122847591Y-66215832D01*
X122847591Y-66204168D01*
X122828342Y-65959585D01*
X122826517Y-65948062D01*
X122769245Y-65709511D01*
X122765637Y-65698405D01*
X122671755Y-65471753D01*
X122666450Y-65461343D01*
X122540982Y-65256596D01*
X122533287Y-65251308D01*
X122522990Y-65256220D01*
X121583081Y-66196129D01*
X121575073Y-66210000D01*
X120844927Y-66210000D01*
X120836919Y-66196129D01*
X119900125Y-65259335D01*
X119886254Y-65251327D01*
X119880054Y-65254906D01*
X119753550Y-65461343D01*
X119748245Y-65471753D01*
X119654363Y-65698405D01*
X119650755Y-65709511D01*
X119593483Y-65948062D01*
X119591658Y-65959585D01*
X119572409Y-66204168D01*
X119572409Y-66215832D01*
X109000000Y-66215832D01*
X109000000Y-64603626D01*
X109019962Y-64529126D01*
X109074500Y-64474588D01*
X109149000Y-64454626D01*
X120431539Y-64454626D01*
X120506039Y-64474588D01*
G37*
%TD.AperFunction*%
%TA.AperFunction,Conductor*%
G36*
X132025000Y-88690679D02*
G01*
X132079538Y-88745217D01*
X132099500Y-88819717D01*
X132099500Y-121950500D01*
X132079538Y-122025000D01*
X132025000Y-122079538D01*
X131950500Y-122099500D01*
X129237621Y-122099500D01*
X129214315Y-122097666D01*
X129205973Y-122096345D01*
X129205948Y-122096341D01*
X129205947Y-122096341D01*
X129194374Y-122094508D01*
X129192396Y-122094821D01*
X129181333Y-122095382D01*
X129140187Y-122097469D01*
X128817890Y-122113814D01*
X128814160Y-122114385D01*
X128814154Y-122114386D01*
X128479882Y-122165594D01*
X128445268Y-122170897D01*
X128441629Y-122171839D01*
X128441625Y-122171840D01*
X128083985Y-122264439D01*
X128083977Y-122264441D01*
X128080333Y-122265385D01*
X128076799Y-122266694D01*
X128076789Y-122266697D01*
X127738177Y-122392105D01*
X127726829Y-122396308D01*
X127723428Y-122397976D01*
X127723424Y-122397978D01*
X127546479Y-122484773D01*
X127480861Y-122500000D01*
X123399000Y-122500000D01*
X123324500Y-122480038D01*
X123269962Y-122425500D01*
X123250000Y-122351000D01*
X123250000Y-113652385D01*
X123269962Y-113577885D01*
X123324500Y-113523347D01*
X123399000Y-113503385D01*
X123473500Y-113523347D01*
X123504359Y-113547026D01*
X123895859Y-113938526D01*
X123934423Y-114005321D01*
X123939500Y-114043885D01*
X123939500Y-114882080D01*
X123919538Y-114956580D01*
X123912406Y-114967753D01*
X123878113Y-115016547D01*
X123816524Y-115174513D01*
X123794394Y-115342611D01*
X123812999Y-115511135D01*
X123816087Y-115519572D01*
X123816087Y-115519574D01*
X123823917Y-115540969D01*
X123871266Y-115670356D01*
X123876275Y-115677811D01*
X123876276Y-115677812D01*
X123884431Y-115689947D01*
X123965830Y-115811083D01*
X123972472Y-115817126D01*
X123972473Y-115817128D01*
X123990430Y-115833467D01*
X124091233Y-115925191D01*
X124099128Y-115929478D01*
X124099130Y-115929479D01*
X124232344Y-116001808D01*
X124232347Y-116001809D01*
X124240235Y-116006092D01*
X124277743Y-116015932D01*
X124395549Y-116046838D01*
X124395551Y-116046838D01*
X124404233Y-116049116D01*
X124413209Y-116049257D01*
X124564781Y-116051638D01*
X124573760Y-116051779D01*
X124739029Y-116013928D01*
X124890498Y-115937747D01*
X124912279Y-115919144D01*
X125012594Y-115833467D01*
X125012596Y-115833465D01*
X125019423Y-115827634D01*
X125036866Y-115803360D01*
X125113124Y-115697236D01*
X125113126Y-115697232D01*
X125118361Y-115689947D01*
X125129628Y-115661920D01*
X125178251Y-115540969D01*
X125178252Y-115540964D01*
X125181601Y-115532634D01*
X125205490Y-115364778D01*
X125205645Y-115350000D01*
X125185276Y-115181680D01*
X125125345Y-115023077D01*
X125086705Y-114966856D01*
X125060959Y-114894155D01*
X125060500Y-114882463D01*
X125060500Y-113796505D01*
X125061775Y-113777057D01*
X125064062Y-113759686D01*
X125064062Y-113759684D01*
X125065337Y-113750000D01*
X125060500Y-113713259D01*
X125046074Y-113603680D01*
X125030212Y-113565385D01*
X124995076Y-113480562D01*
X124989596Y-113467332D01*
X124989596Y-113467331D01*
X124982350Y-113457888D01*
X124982350Y-113457887D01*
X124922313Y-113379646D01*
X124905701Y-113357996D01*
X124905700Y-113357995D01*
X124899754Y-113350246D01*
X124878102Y-113333632D01*
X124863448Y-113320781D01*
X123525769Y-111983102D01*
X127631971Y-111983102D01*
X127635180Y-111988662D01*
X127808271Y-112094733D01*
X127818676Y-112100034D01*
X128027156Y-112186389D01*
X128038250Y-112189994D01*
X128257680Y-112242675D01*
X128269196Y-112244499D01*
X128494168Y-112262204D01*
X128505832Y-112262204D01*
X128730804Y-112244499D01*
X128742320Y-112242675D01*
X128961750Y-112189994D01*
X128972844Y-112186389D01*
X129181324Y-112100034D01*
X129191729Y-112094733D01*
X129357168Y-111993351D01*
X129368192Y-111981734D01*
X129366368Y-111975578D01*
X128513871Y-111123081D01*
X128500000Y-111115073D01*
X128486129Y-111123081D01*
X127639979Y-111969231D01*
X127631971Y-111983102D01*
X123525769Y-111983102D01*
X123429215Y-111886548D01*
X123416371Y-111871902D01*
X123399754Y-111850246D01*
X123360231Y-111819919D01*
X123282669Y-111760404D01*
X123242733Y-111743862D01*
X123146320Y-111703926D01*
X123136639Y-111702651D01*
X123136637Y-111702651D01*
X123075725Y-111694632D01*
X123075723Y-111694632D01*
X123009684Y-111685937D01*
X123000000Y-111684662D01*
X122990316Y-111685937D01*
X122972937Y-111688225D01*
X122953488Y-111689500D01*
X114543885Y-111689500D01*
X114469385Y-111669538D01*
X114438526Y-111645859D01*
X113730045Y-110937378D01*
X113691481Y-110870583D01*
X113687483Y-110849918D01*
X113686355Y-110840599D01*
X113685276Y-110831680D01*
X113656615Y-110755832D01*
X126987796Y-110755832D01*
X127005501Y-110980804D01*
X127007325Y-110992320D01*
X127060006Y-111211750D01*
X127063611Y-111222844D01*
X127149966Y-111431324D01*
X127155267Y-111441729D01*
X127256649Y-111607168D01*
X127268266Y-111618192D01*
X127274422Y-111616368D01*
X128126919Y-110763871D01*
X128134927Y-110750000D01*
X128865073Y-110750000D01*
X128873081Y-110763871D01*
X129719231Y-111610021D01*
X129733102Y-111618029D01*
X129738662Y-111614820D01*
X129844733Y-111441729D01*
X129850034Y-111431324D01*
X129936389Y-111222844D01*
X129939994Y-111211750D01*
X129992675Y-110992320D01*
X129994499Y-110980804D01*
X130012204Y-110755832D01*
X130012204Y-110744168D01*
X129994499Y-110519196D01*
X129992675Y-110507680D01*
X129939994Y-110288250D01*
X129936389Y-110277156D01*
X129850034Y-110068676D01*
X129844733Y-110058271D01*
X129743351Y-109892832D01*
X129731734Y-109881808D01*
X129725578Y-109883632D01*
X128873081Y-110736129D01*
X128865073Y-110750000D01*
X128134927Y-110750000D01*
X128126919Y-110736129D01*
X127280769Y-109889979D01*
X127266898Y-109881971D01*
X127261338Y-109885180D01*
X127155267Y-110058271D01*
X127149966Y-110068676D01*
X127063611Y-110277156D01*
X127060006Y-110288250D01*
X127007325Y-110507680D01*
X127005501Y-110519196D01*
X126987796Y-110744168D01*
X126987796Y-110755832D01*
X113656615Y-110755832D01*
X113625345Y-110673077D01*
X113529312Y-110533349D01*
X113522604Y-110527372D01*
X113409428Y-110426535D01*
X113409424Y-110426532D01*
X113402721Y-110420560D01*
X113394783Y-110416357D01*
X113394780Y-110416355D01*
X113260823Y-110345429D01*
X113252881Y-110341224D01*
X113244168Y-110339035D01*
X113244167Y-110339035D01*
X113171691Y-110320830D01*
X113088441Y-110299919D01*
X112984002Y-110299372D01*
X112927873Y-110299078D01*
X112918895Y-110299031D01*
X112910164Y-110301127D01*
X112910165Y-110301127D01*
X112762765Y-110336515D01*
X112762762Y-110336516D01*
X112754032Y-110338612D01*
X112746053Y-110342730D01*
X112746051Y-110342731D01*
X112664298Y-110384927D01*
X112603369Y-110416375D01*
X112596602Y-110422279D01*
X112596598Y-110422281D01*
X112482373Y-110521926D01*
X112475604Y-110527831D01*
X112378113Y-110666547D01*
X112316524Y-110824513D01*
X112294394Y-110992611D01*
X112312999Y-111161135D01*
X112316087Y-111169572D01*
X112316087Y-111169574D01*
X112335581Y-111222844D01*
X112371266Y-111320356D01*
X112376275Y-111327811D01*
X112376276Y-111327812D01*
X112452825Y-111441729D01*
X112465830Y-111461083D01*
X112591233Y-111575191D01*
X112599128Y-111579478D01*
X112599130Y-111579479D01*
X112732344Y-111651808D01*
X112732347Y-111651809D01*
X112740235Y-111656092D01*
X112821355Y-111677373D01*
X112868215Y-111689667D01*
X112935764Y-111728431D01*
X113820785Y-112613452D01*
X113833629Y-112628098D01*
X113850246Y-112649754D01*
X113879646Y-112672313D01*
X113967331Y-112739597D01*
X114047201Y-112772679D01*
X114047203Y-112772680D01*
X114094655Y-112792336D01*
X114094657Y-112792337D01*
X114103680Y-112796074D01*
X114150533Y-112802242D01*
X114174275Y-112805368D01*
X114174277Y-112805368D01*
X114250000Y-112815338D01*
X114259684Y-112814063D01*
X114277063Y-112811775D01*
X114296512Y-112810500D01*
X122706115Y-112810500D01*
X122780615Y-112830462D01*
X122811474Y-112854141D01*
X123202974Y-113245641D01*
X123241538Y-113312436D01*
X123241538Y-113389564D01*
X123202974Y-113456359D01*
X123136179Y-113494923D01*
X123097615Y-113500000D01*
X104750000Y-113500000D01*
X104750000Y-113507180D01*
X104730359Y-113526821D01*
X104663564Y-113565385D01*
X104586436Y-113565385D01*
X104519641Y-113526821D01*
X104500000Y-113507180D01*
X104500000Y-113500000D01*
X104399000Y-113500000D01*
X104324500Y-113480038D01*
X104269962Y-113425500D01*
X104250000Y-113351000D01*
X104250000Y-113250000D01*
X101047935Y-110294248D01*
X101006733Y-110229049D01*
X101000000Y-110184763D01*
X101000000Y-109518266D01*
X127631808Y-109518266D01*
X127633632Y-109524422D01*
X128486129Y-110376919D01*
X128500000Y-110384927D01*
X128513871Y-110376919D01*
X129360021Y-109530769D01*
X129368029Y-109516898D01*
X129364820Y-109511338D01*
X129191729Y-109405267D01*
X129181324Y-109399966D01*
X128972844Y-109313611D01*
X128961750Y-109310006D01*
X128742320Y-109257325D01*
X128730804Y-109255501D01*
X128505832Y-109237796D01*
X128494168Y-109237796D01*
X128269196Y-109255501D01*
X128257680Y-109257325D01*
X128038250Y-109310006D01*
X128027156Y-109313611D01*
X127818676Y-109399966D01*
X127808271Y-109405267D01*
X127642832Y-109506649D01*
X127631808Y-109518266D01*
X101000000Y-109518266D01*
X101000000Y-108304500D01*
X101019962Y-108230000D01*
X101074500Y-108175462D01*
X101149000Y-108155500D01*
X116881000Y-108155500D01*
X116884958Y-108155074D01*
X116884967Y-108155074D01*
X116924098Y-108150867D01*
X116967197Y-108146233D01*
X117016631Y-108135479D01*
X117084576Y-108113937D01*
X117161625Y-108110450D01*
X117182671Y-108116738D01*
X117185129Y-108117675D01*
X117190420Y-108120183D01*
X117254756Y-108139074D01*
X117369000Y-108155500D01*
X130131000Y-108155500D01*
X130134958Y-108155074D01*
X130134967Y-108155074D01*
X130174098Y-108150867D01*
X130217197Y-108146233D01*
X130266631Y-108135479D01*
X130286864Y-108129064D01*
X130329395Y-108115580D01*
X130329398Y-108115579D01*
X130338282Y-108112762D01*
X130346191Y-108107837D01*
X130346194Y-108107836D01*
X130441014Y-108048795D01*
X130445980Y-108045703D01*
X130450399Y-108041874D01*
X130450403Y-108041871D01*
X130493031Y-108004933D01*
X130496655Y-108001793D01*
X130501393Y-107996481D01*
X130558745Y-107932171D01*
X130565837Y-107924219D01*
X130620183Y-107809580D01*
X130639074Y-107745244D01*
X130655500Y-107631000D01*
X130655500Y-88819717D01*
X130675462Y-88745217D01*
X130730000Y-88690679D01*
X130804500Y-88670717D01*
X131950500Y-88670717D01*
X132025000Y-88690679D01*
G37*
%TD.AperFunction*%
%TA.AperFunction,Conductor*%
G36*
X116925500Y-116269962D02*
G01*
X116980038Y-116324500D01*
X117000000Y-116399000D01*
X117000000Y-122101000D01*
X116980038Y-122175500D01*
X116925500Y-122230038D01*
X116851000Y-122250000D01*
X110149000Y-122250000D01*
X110074500Y-122230038D01*
X110019962Y-122175500D01*
X110000000Y-122101000D01*
X110000000Y-116500000D01*
X109994663Y-116500000D01*
X109958615Y-116437564D01*
X109958615Y-116360436D01*
X109997179Y-116293641D01*
X110063974Y-116255077D01*
X110102538Y-116250000D01*
X116851000Y-116250000D01*
X116925500Y-116269962D01*
G37*
%TD.AperFunction*%
%TA.AperFunction,Conductor*%
G36*
X121533232Y-104914855D02*
G01*
X121587117Y-104970038D01*
X121606191Y-105044770D01*
X121587764Y-105114793D01*
X121543073Y-105196063D01*
X121533852Y-105221241D01*
X121520375Y-105258041D01*
X121520373Y-105258049D01*
X121518617Y-105262843D01*
X121517534Y-105267837D01*
X121517532Y-105267843D01*
X121495174Y-105370922D01*
X121459873Y-105439498D01*
X121395014Y-105481236D01*
X121317976Y-105484952D01*
X121249400Y-105449651D01*
X121234440Y-105433934D01*
X121163838Y-105348014D01*
X121160121Y-105343490D01*
X121109971Y-105298981D01*
X121072969Y-105273809D01*
X121022601Y-105215403D01*
X121008183Y-105139634D01*
X121033581Y-105066808D01*
X121091990Y-105016438D01*
X121125450Y-105004946D01*
X121248170Y-104978555D01*
X121283861Y-104964757D01*
X121305745Y-104956297D01*
X121305747Y-104956296D01*
X121310711Y-104954377D01*
X121384244Y-104913082D01*
X121458975Y-104894008D01*
X121533232Y-104914855D01*
G37*
%TD.AperFunction*%
%TD*%
%TA.AperFunction,Conductor*%
%TO.N,VSS*%
G36*
X102695336Y-86268891D02*
G01*
X102739246Y-86319566D01*
X102750000Y-86369000D01*
X102750000Y-98000000D01*
X103050011Y-98000000D01*
X103114347Y-98018891D01*
X103158257Y-98069566D01*
X103167800Y-98135935D01*
X103139945Y-98196928D01*
X103095549Y-98228942D01*
X102977418Y-98277874D01*
X102971233Y-98282620D01*
X102971231Y-98282621D01*
X102872632Y-98358280D01*
X102864511Y-98364511D01*
X102859762Y-98370700D01*
X102792980Y-98457732D01*
X102777874Y-98477418D01*
X102723412Y-98608901D01*
X102704836Y-98750000D01*
X102723412Y-98891099D01*
X102726395Y-98898300D01*
X102726395Y-98898301D01*
X102736264Y-98922126D01*
X102777874Y-99022582D01*
X102864511Y-99135489D01*
X102870700Y-99140238D01*
X102971231Y-99217379D01*
X102971233Y-99217380D01*
X102977418Y-99222126D01*
X103108901Y-99276588D01*
X103116627Y-99277605D01*
X103116630Y-99277606D01*
X103242268Y-99294146D01*
X103250000Y-99295164D01*
X103257732Y-99294146D01*
X103383370Y-99277606D01*
X103383373Y-99277605D01*
X103391099Y-99276588D01*
X103522582Y-99222126D01*
X103528767Y-99217380D01*
X103528769Y-99217379D01*
X103629300Y-99140238D01*
X103635489Y-99135489D01*
X103722126Y-99022582D01*
X103763736Y-98922126D01*
X103773605Y-98898301D01*
X103773605Y-98898300D01*
X103776588Y-98891099D01*
X103795164Y-98750000D01*
X103776588Y-98608901D01*
X103722126Y-98477418D01*
X103707021Y-98457732D01*
X103640238Y-98370700D01*
X103635489Y-98364511D01*
X103627368Y-98358280D01*
X103528769Y-98282621D01*
X103528767Y-98282620D01*
X103522582Y-98277874D01*
X103404450Y-98228942D01*
X103352240Y-98186868D01*
X103331065Y-98123247D01*
X103347647Y-98058278D01*
X103396723Y-98012587D01*
X103449989Y-98000000D01*
X112325368Y-98000000D01*
X112389704Y-98018891D01*
X112433614Y-98069566D01*
X112443157Y-98135935D01*
X112429559Y-98175222D01*
X112427874Y-98177418D01*
X112406532Y-98228942D01*
X112384298Y-98282621D01*
X112373412Y-98308901D01*
X112372395Y-98316627D01*
X112372394Y-98316630D01*
X112366716Y-98359762D01*
X112354836Y-98450000D01*
X112373412Y-98591099D01*
X112427874Y-98722582D01*
X112432620Y-98728767D01*
X112432621Y-98728769D01*
X112508280Y-98827368D01*
X112514511Y-98835489D01*
X112520700Y-98840238D01*
X112621231Y-98917379D01*
X112621233Y-98917380D01*
X112627418Y-98922126D01*
X112758901Y-98976588D01*
X112766627Y-98977605D01*
X112766630Y-98977606D01*
X112892268Y-98994146D01*
X112900000Y-98995164D01*
X112907732Y-98994146D01*
X113033370Y-98977606D01*
X113033373Y-98977605D01*
X113041099Y-98976588D01*
X113172582Y-98922126D01*
X113178767Y-98917380D01*
X113178769Y-98917379D01*
X113279300Y-98840238D01*
X113285489Y-98835489D01*
X113291720Y-98827368D01*
X113367379Y-98728769D01*
X113367380Y-98728767D01*
X113372126Y-98722582D01*
X113426588Y-98591099D01*
X113445164Y-98450000D01*
X113433284Y-98359762D01*
X113427606Y-98316630D01*
X113427605Y-98316627D01*
X113426588Y-98308901D01*
X113415703Y-98282621D01*
X113393468Y-98228942D01*
X113372126Y-98177418D01*
X113370937Y-98175869D01*
X113355767Y-98113340D01*
X113377696Y-98049975D01*
X113430402Y-98008525D01*
X113474632Y-98000000D01*
X119375368Y-98000000D01*
X119439704Y-98018891D01*
X119483614Y-98069566D01*
X119493157Y-98135935D01*
X119479559Y-98175222D01*
X119477874Y-98177418D01*
X119456532Y-98228942D01*
X119434298Y-98282621D01*
X119423412Y-98308901D01*
X119422395Y-98316627D01*
X119422394Y-98316630D01*
X119416716Y-98359762D01*
X119404836Y-98450000D01*
X119423412Y-98591099D01*
X119477874Y-98722582D01*
X119482620Y-98728767D01*
X119482621Y-98728769D01*
X119558280Y-98827368D01*
X119564511Y-98835489D01*
X119570700Y-98840238D01*
X119671231Y-98917379D01*
X119671233Y-98917380D01*
X119677418Y-98922126D01*
X119808901Y-98976588D01*
X119816627Y-98977605D01*
X119816630Y-98977606D01*
X119942268Y-98994146D01*
X119950000Y-98995164D01*
X119957732Y-98994146D01*
X120083370Y-98977606D01*
X120083373Y-98977605D01*
X120091099Y-98976588D01*
X120222582Y-98922126D01*
X120228767Y-98917380D01*
X120228769Y-98917379D01*
X120329300Y-98840238D01*
X120335489Y-98835489D01*
X120341720Y-98827368D01*
X120417379Y-98728769D01*
X120417380Y-98728767D01*
X120422126Y-98722582D01*
X120476588Y-98591099D01*
X120495164Y-98450000D01*
X120483469Y-98361167D01*
X120493801Y-98294915D01*
X120538311Y-98244766D01*
X120602867Y-98226642D01*
X120616982Y-98227652D01*
X120750000Y-98245164D01*
X120883017Y-98227652D01*
X120949268Y-98237984D01*
X120999417Y-98282493D01*
X121017541Y-98347050D01*
X121016531Y-98361167D01*
X121004836Y-98450000D01*
X121023412Y-98591099D01*
X121077874Y-98722582D01*
X121082620Y-98728767D01*
X121082621Y-98728769D01*
X121158280Y-98827368D01*
X121164511Y-98835489D01*
X121170700Y-98840238D01*
X121271231Y-98917379D01*
X121271233Y-98917380D01*
X121277418Y-98922126D01*
X121408901Y-98976588D01*
X121416627Y-98977605D01*
X121416630Y-98977606D01*
X121542268Y-98994146D01*
X121550000Y-98995164D01*
X121557732Y-98994146D01*
X121683370Y-98977606D01*
X121683373Y-98977605D01*
X121691099Y-98976588D01*
X121822582Y-98922126D01*
X121828767Y-98917380D01*
X121828769Y-98917379D01*
X121929300Y-98840238D01*
X121935489Y-98835489D01*
X121941720Y-98827368D01*
X122017379Y-98728769D01*
X122017380Y-98728767D01*
X122022126Y-98722582D01*
X122076588Y-98591099D01*
X122095164Y-98450000D01*
X122083284Y-98359762D01*
X122077606Y-98316630D01*
X122077605Y-98316627D01*
X122076588Y-98308901D01*
X122065703Y-98282621D01*
X122043468Y-98228942D01*
X122022126Y-98177418D01*
X122020937Y-98175869D01*
X122005767Y-98113340D01*
X122027696Y-98049975D01*
X122080402Y-98008525D01*
X122124632Y-98000000D01*
X124131000Y-98000000D01*
X124195336Y-98018891D01*
X124239246Y-98069566D01*
X124250000Y-98119000D01*
X124250000Y-100701862D01*
X124231109Y-100766198D01*
X124203444Y-100796270D01*
X124114511Y-100864511D01*
X124109762Y-100870700D01*
X124079789Y-100909762D01*
X124027874Y-100977418D01*
X123973412Y-101108901D01*
X123972395Y-101116627D01*
X123972394Y-101116630D01*
X123966829Y-101158901D01*
X123954836Y-101250000D01*
X123955854Y-101257732D01*
X123969912Y-101364511D01*
X123973412Y-101391099D01*
X124027874Y-101522582D01*
X124032620Y-101528767D01*
X124032621Y-101528769D01*
X124070988Y-101578769D01*
X124114511Y-101635489D01*
X124171607Y-101679300D01*
X124203443Y-101703729D01*
X124242984Y-101757882D01*
X124250000Y-101798138D01*
X124250000Y-102381000D01*
X124231109Y-102445336D01*
X124180434Y-102489246D01*
X124131000Y-102500000D01*
X117000000Y-102500000D01*
X117000000Y-107631000D01*
X116981109Y-107695336D01*
X116930434Y-107739246D01*
X116881000Y-107750000D01*
X101119000Y-107750000D01*
X101054664Y-107731109D01*
X101010754Y-107680434D01*
X101000000Y-107631000D01*
X101000000Y-106950000D01*
X112204836Y-106950000D01*
X112223412Y-107091099D01*
X112226395Y-107098300D01*
X112226395Y-107098301D01*
X112240325Y-107131930D01*
X112277874Y-107222582D01*
X112282620Y-107228767D01*
X112282621Y-107228769D01*
X112358280Y-107327368D01*
X112364511Y-107335489D01*
X112370700Y-107340238D01*
X112471231Y-107417379D01*
X112471233Y-107417380D01*
X112477418Y-107422126D01*
X112608901Y-107476588D01*
X112616627Y-107477605D01*
X112616630Y-107477606D01*
X112742268Y-107494146D01*
X112750000Y-107495164D01*
X112757732Y-107494146D01*
X112883370Y-107477606D01*
X112883373Y-107477605D01*
X112891099Y-107476588D01*
X113022582Y-107422126D01*
X113028767Y-107417380D01*
X113028769Y-107417379D01*
X113129300Y-107340238D01*
X113135489Y-107335489D01*
X113141720Y-107327368D01*
X113217379Y-107228769D01*
X113217380Y-107228767D01*
X113222126Y-107222582D01*
X113259675Y-107131930D01*
X113273605Y-107098301D01*
X113273605Y-107098300D01*
X113276588Y-107091099D01*
X113295164Y-106950000D01*
X113276588Y-106808901D01*
X113222126Y-106677418D01*
X113135489Y-106564511D01*
X113082180Y-106523605D01*
X113028769Y-106482621D01*
X113028767Y-106482620D01*
X113022582Y-106477874D01*
X112891099Y-106423412D01*
X112883373Y-106422395D01*
X112883370Y-106422394D01*
X112757732Y-106405854D01*
X112750000Y-106404836D01*
X112742268Y-106405854D01*
X112616630Y-106422394D01*
X112616627Y-106422395D01*
X112608901Y-106423412D01*
X112477418Y-106477874D01*
X112471233Y-106482620D01*
X112471231Y-106482621D01*
X112417820Y-106523605D01*
X112364511Y-106564511D01*
X112277874Y-106677418D01*
X112223412Y-106808901D01*
X112204836Y-106950000D01*
X101000000Y-106950000D01*
X101000000Y-106000000D01*
X103954836Y-106000000D01*
X103973412Y-106141099D01*
X104027874Y-106272582D01*
X104114511Y-106385489D01*
X104120700Y-106390238D01*
X104221231Y-106467379D01*
X104221233Y-106467380D01*
X104227418Y-106472126D01*
X104358901Y-106526588D01*
X104366627Y-106527605D01*
X104366630Y-106527606D01*
X104492268Y-106544146D01*
X104500000Y-106545164D01*
X104507732Y-106544146D01*
X104633370Y-106527606D01*
X104633373Y-106527605D01*
X104641099Y-106526588D01*
X104772582Y-106472126D01*
X104778767Y-106467380D01*
X104778769Y-106467379D01*
X104879300Y-106390238D01*
X104885489Y-106385489D01*
X104972126Y-106272582D01*
X105026588Y-106141099D01*
X105045164Y-106000000D01*
X105026588Y-105858901D01*
X104972126Y-105727418D01*
X104885489Y-105614511D01*
X104877368Y-105608280D01*
X104778769Y-105532621D01*
X104778767Y-105532620D01*
X104772582Y-105527874D01*
X104641099Y-105473412D01*
X104633373Y-105472395D01*
X104633370Y-105472394D01*
X104507732Y-105455854D01*
X104500000Y-105454836D01*
X104492268Y-105455854D01*
X104366630Y-105472394D01*
X104366627Y-105472395D01*
X104358901Y-105473412D01*
X104227418Y-105527874D01*
X104221233Y-105532620D01*
X104221231Y-105532621D01*
X104122632Y-105608280D01*
X104114511Y-105614511D01*
X104027874Y-105727418D01*
X103973412Y-105858901D01*
X103954836Y-106000000D01*
X101000000Y-106000000D01*
X101000000Y-104750000D01*
X105604836Y-104750000D01*
X105623412Y-104891099D01*
X105677874Y-105022582D01*
X105764511Y-105135489D01*
X105770700Y-105140238D01*
X105871231Y-105217379D01*
X105871233Y-105217380D01*
X105877418Y-105222126D01*
X106008901Y-105276588D01*
X106016627Y-105277605D01*
X106016630Y-105277606D01*
X106142268Y-105294146D01*
X106150000Y-105295164D01*
X106157732Y-105294146D01*
X106283370Y-105277606D01*
X106283373Y-105277605D01*
X106291099Y-105276588D01*
X106422582Y-105222126D01*
X106428767Y-105217380D01*
X106428769Y-105217379D01*
X106529300Y-105140238D01*
X106535489Y-105135489D01*
X106622126Y-105022582D01*
X106676588Y-104891099D01*
X106695164Y-104750000D01*
X106676588Y-104608901D01*
X106622126Y-104477418D01*
X106535489Y-104364511D01*
X106527368Y-104358280D01*
X106428769Y-104282621D01*
X106428767Y-104282620D01*
X106422582Y-104277874D01*
X106291099Y-104223412D01*
X106283373Y-104222395D01*
X106283370Y-104222394D01*
X106157732Y-104205854D01*
X106150000Y-104204836D01*
X106142268Y-104205854D01*
X106016630Y-104222394D01*
X106016627Y-104222395D01*
X106008901Y-104223412D01*
X105877418Y-104277874D01*
X105871233Y-104282620D01*
X105871231Y-104282621D01*
X105772632Y-104358280D01*
X105764511Y-104364511D01*
X105677874Y-104477418D01*
X105623412Y-104608901D01*
X105604836Y-104750000D01*
X101000000Y-104750000D01*
X101000000Y-103500000D01*
X103954836Y-103500000D01*
X103973412Y-103641099D01*
X104027874Y-103772582D01*
X104114511Y-103885489D01*
X104120700Y-103890238D01*
X104221231Y-103967379D01*
X104221233Y-103967380D01*
X104227418Y-103972126D01*
X104358901Y-104026588D01*
X104366627Y-104027605D01*
X104366630Y-104027606D01*
X104492268Y-104044146D01*
X104500000Y-104045164D01*
X104507732Y-104044146D01*
X104633370Y-104027606D01*
X104633373Y-104027605D01*
X104641099Y-104026588D01*
X104772582Y-103972126D01*
X104778767Y-103967380D01*
X104778769Y-103967379D01*
X104879300Y-103890238D01*
X104885489Y-103885489D01*
X104972126Y-103772582D01*
X105026588Y-103641099D01*
X105045164Y-103500000D01*
X105026588Y-103358901D01*
X104972126Y-103227418D01*
X104885489Y-103114511D01*
X104877368Y-103108280D01*
X104778769Y-103032621D01*
X104778767Y-103032620D01*
X104772582Y-103027874D01*
X104641099Y-102973412D01*
X104633373Y-102972395D01*
X104633370Y-102972394D01*
X104507732Y-102955854D01*
X104500000Y-102954836D01*
X104492268Y-102955854D01*
X104366630Y-102972394D01*
X104366627Y-102972395D01*
X104358901Y-102973412D01*
X104227418Y-103027874D01*
X104221233Y-103032620D01*
X104221231Y-103032621D01*
X104122632Y-103108280D01*
X104114511Y-103114511D01*
X104027874Y-103227418D01*
X103973412Y-103358901D01*
X103954836Y-103500000D01*
X101000000Y-103500000D01*
X101000000Y-101250000D01*
X103954836Y-101250000D01*
X103955854Y-101257732D01*
X103969912Y-101364511D01*
X103973412Y-101391099D01*
X104027874Y-101522582D01*
X104032620Y-101528767D01*
X104032621Y-101528769D01*
X104070988Y-101578769D01*
X104114511Y-101635489D01*
X104120700Y-101640238D01*
X104221231Y-101717379D01*
X104221233Y-101717380D01*
X104227418Y-101722126D01*
X104292484Y-101749077D01*
X104348129Y-101772126D01*
X104358901Y-101776588D01*
X104366627Y-101777605D01*
X104366630Y-101777606D01*
X104492268Y-101794146D01*
X104500000Y-101795164D01*
X104507732Y-101794146D01*
X104633370Y-101777606D01*
X104633373Y-101777605D01*
X104641099Y-101776588D01*
X104651872Y-101772126D01*
X104707516Y-101749077D01*
X104772582Y-101722126D01*
X104778767Y-101717380D01*
X104778769Y-101717379D01*
X104879300Y-101640238D01*
X104885489Y-101635489D01*
X104929012Y-101578769D01*
X104967379Y-101528769D01*
X104967380Y-101528767D01*
X104972126Y-101522582D01*
X105026588Y-101391099D01*
X105030089Y-101364511D01*
X105038582Y-101300000D01*
X110354836Y-101300000D01*
X110355854Y-101307732D01*
X110367778Y-101398301D01*
X110373412Y-101441099D01*
X110427874Y-101572582D01*
X110432620Y-101578767D01*
X110432621Y-101578769D01*
X110508280Y-101677368D01*
X110514511Y-101685489D01*
X110520700Y-101690238D01*
X110621231Y-101767379D01*
X110621233Y-101767380D01*
X110627418Y-101772126D01*
X110758901Y-101826588D01*
X110766627Y-101827605D01*
X110766630Y-101827606D01*
X110892268Y-101844146D01*
X110900000Y-101845164D01*
X110907732Y-101844146D01*
X111033370Y-101827606D01*
X111033373Y-101827605D01*
X111041099Y-101826588D01*
X111172582Y-101772126D01*
X111178767Y-101767380D01*
X111178769Y-101767379D01*
X111279300Y-101690238D01*
X111285489Y-101685489D01*
X111291720Y-101677368D01*
X111367379Y-101578769D01*
X111367380Y-101578767D01*
X111372126Y-101572582D01*
X111426588Y-101441099D01*
X111432223Y-101398301D01*
X111444146Y-101307732D01*
X111445164Y-101300000D01*
X111438581Y-101250000D01*
X111427606Y-101166630D01*
X111427605Y-101166627D01*
X111426588Y-101158901D01*
X111372126Y-101027418D01*
X111333760Y-100977418D01*
X111290238Y-100920700D01*
X111285489Y-100914511D01*
X111214139Y-100859762D01*
X111178769Y-100832621D01*
X111178767Y-100832620D01*
X111172582Y-100827874D01*
X111063332Y-100782621D01*
X111048301Y-100776395D01*
X111048300Y-100776395D01*
X111041099Y-100773412D01*
X111033373Y-100772395D01*
X111033370Y-100772394D01*
X110907732Y-100755854D01*
X110900000Y-100754836D01*
X110892268Y-100755854D01*
X110766630Y-100772394D01*
X110766627Y-100772395D01*
X110758901Y-100773412D01*
X110751700Y-100776395D01*
X110751699Y-100776395D01*
X110736668Y-100782621D01*
X110627418Y-100827874D01*
X110621233Y-100832620D01*
X110621231Y-100832621D01*
X110585861Y-100859762D01*
X110514511Y-100914511D01*
X110509762Y-100920700D01*
X110466241Y-100977418D01*
X110427874Y-101027418D01*
X110373412Y-101158901D01*
X110372395Y-101166627D01*
X110372394Y-101166630D01*
X110361419Y-101250000D01*
X110354836Y-101300000D01*
X105038582Y-101300000D01*
X105044146Y-101257732D01*
X105045164Y-101250000D01*
X105033171Y-101158901D01*
X105027606Y-101116630D01*
X105027605Y-101116627D01*
X105026588Y-101108901D01*
X104972126Y-100977418D01*
X104920212Y-100909762D01*
X104890238Y-100870700D01*
X104885489Y-100864511D01*
X104877368Y-100858280D01*
X104778769Y-100782621D01*
X104778767Y-100782620D01*
X104772582Y-100777874D01*
X104641099Y-100723412D01*
X104633373Y-100722395D01*
X104633370Y-100722394D01*
X104507732Y-100705854D01*
X104500000Y-100704836D01*
X104492268Y-100705854D01*
X104366630Y-100722394D01*
X104366627Y-100722395D01*
X104358901Y-100723412D01*
X104227418Y-100777874D01*
X104221233Y-100782620D01*
X104221231Y-100782621D01*
X104122632Y-100858280D01*
X104114511Y-100864511D01*
X104109762Y-100870700D01*
X104079789Y-100909762D01*
X104027874Y-100977418D01*
X103973412Y-101108901D01*
X103972395Y-101116627D01*
X103972394Y-101116630D01*
X103966829Y-101158901D01*
X103954836Y-101250000D01*
X101000000Y-101250000D01*
X101000000Y-100000000D01*
X105454836Y-100000000D01*
X105473412Y-100141099D01*
X105527874Y-100272582D01*
X105614511Y-100385489D01*
X105620700Y-100390238D01*
X105721231Y-100467379D01*
X105721233Y-100467380D01*
X105727418Y-100472126D01*
X105858901Y-100526588D01*
X105866627Y-100527605D01*
X105866630Y-100527606D01*
X105992268Y-100544146D01*
X106000000Y-100545164D01*
X106007732Y-100544146D01*
X106133370Y-100527606D01*
X106133373Y-100527605D01*
X106141099Y-100526588D01*
X106272582Y-100472126D01*
X106278767Y-100467380D01*
X106278769Y-100467379D01*
X106379300Y-100390238D01*
X106385489Y-100385489D01*
X106472126Y-100272582D01*
X106526588Y-100141099D01*
X106545164Y-100000000D01*
X106526588Y-99858901D01*
X106472126Y-99727418D01*
X106385489Y-99614511D01*
X106377368Y-99608280D01*
X106278769Y-99532621D01*
X106278767Y-99532620D01*
X106272582Y-99527874D01*
X106141099Y-99473412D01*
X106133373Y-99472395D01*
X106133370Y-99472394D01*
X106007732Y-99455854D01*
X106000000Y-99454836D01*
X105992268Y-99455854D01*
X105866630Y-99472394D01*
X105866627Y-99472395D01*
X105858901Y-99473412D01*
X105727418Y-99527874D01*
X105721233Y-99532620D01*
X105721231Y-99532621D01*
X105622632Y-99608280D01*
X105614511Y-99614511D01*
X105527874Y-99727418D01*
X105473412Y-99858901D01*
X105454836Y-100000000D01*
X101000000Y-100000000D01*
X101000000Y-89750000D01*
X100000000Y-89750000D01*
X100000000Y-110500000D01*
X101465146Y-111965146D01*
X101497280Y-112023997D01*
X101500000Y-112049292D01*
X101500000Y-112800011D01*
X101481109Y-112864347D01*
X101430434Y-112908257D01*
X101364065Y-112917800D01*
X101303072Y-112889945D01*
X101271058Y-112845550D01*
X101252195Y-112800011D01*
X101222126Y-112727418D01*
X101163105Y-112650500D01*
X101140238Y-112620700D01*
X101135489Y-112614511D01*
X101106852Y-112592537D01*
X101028769Y-112532621D01*
X101028767Y-112532620D01*
X101022582Y-112527874D01*
X100931930Y-112490325D01*
X100898301Y-112476395D01*
X100898300Y-112476395D01*
X100891099Y-112473412D01*
X100883373Y-112472395D01*
X100883370Y-112472394D01*
X100757732Y-112455854D01*
X100750000Y-112454836D01*
X100742268Y-112455854D01*
X100616630Y-112472394D01*
X100616627Y-112472395D01*
X100608901Y-112473412D01*
X100601700Y-112476395D01*
X100601699Y-112476395D01*
X100568070Y-112490325D01*
X100477418Y-112527874D01*
X100471233Y-112532620D01*
X100471231Y-112532621D01*
X100393148Y-112592537D01*
X100364511Y-112614511D01*
X100359762Y-112620700D01*
X100336896Y-112650500D01*
X100277874Y-112727418D01*
X100223412Y-112858901D01*
X100204836Y-113000000D01*
X100205854Y-113007732D01*
X100219912Y-113114511D01*
X100223412Y-113141099D01*
X100277874Y-113272582D01*
X100364511Y-113385489D01*
X100370700Y-113390238D01*
X100471231Y-113467379D01*
X100471233Y-113467380D01*
X100477418Y-113472126D01*
X100608901Y-113526588D01*
X100616627Y-113527605D01*
X100616630Y-113527606D01*
X100742268Y-113544146D01*
X100750000Y-113545164D01*
X100757732Y-113544146D01*
X100883370Y-113527606D01*
X100883373Y-113527605D01*
X100891099Y-113526588D01*
X101022582Y-113472126D01*
X101028767Y-113467380D01*
X101028769Y-113467379D01*
X101129300Y-113390238D01*
X101135489Y-113385489D01*
X101222126Y-113272582D01*
X101271058Y-113154450D01*
X101313132Y-113102240D01*
X101376753Y-113081065D01*
X101441722Y-113097647D01*
X101487413Y-113146723D01*
X101500000Y-113199989D01*
X101500000Y-116050011D01*
X101481109Y-116114347D01*
X101430434Y-116158257D01*
X101364065Y-116167800D01*
X101303072Y-116139945D01*
X101271058Y-116095550D01*
X101225110Y-115984623D01*
X101222126Y-115977418D01*
X101135489Y-115864511D01*
X101080252Y-115822126D01*
X101028769Y-115782621D01*
X101028767Y-115782620D01*
X101022582Y-115777874D01*
X100931930Y-115740325D01*
X100898301Y-115726395D01*
X100898300Y-115726395D01*
X100891099Y-115723412D01*
X100883373Y-115722395D01*
X100883370Y-115722394D01*
X100757732Y-115705854D01*
X100750000Y-115704836D01*
X100742268Y-115705854D01*
X100616630Y-115722394D01*
X100616627Y-115722395D01*
X100608901Y-115723412D01*
X100601700Y-115726395D01*
X100601699Y-115726395D01*
X100568070Y-115740325D01*
X100477418Y-115777874D01*
X100471233Y-115782620D01*
X100471231Y-115782621D01*
X100419748Y-115822126D01*
X100364511Y-115864511D01*
X100277874Y-115977418D01*
X100223412Y-116108901D01*
X100204836Y-116250000D01*
X100205854Y-116257732D01*
X100219912Y-116364511D01*
X100223412Y-116391099D01*
X100277874Y-116522582D01*
X100364511Y-116635489D01*
X100370700Y-116640238D01*
X100471231Y-116717379D01*
X100471233Y-116717380D01*
X100477418Y-116722126D01*
X100608901Y-116776588D01*
X100616627Y-116777605D01*
X100616630Y-116777606D01*
X100742268Y-116794146D01*
X100750000Y-116795164D01*
X100757732Y-116794146D01*
X100883370Y-116777606D01*
X100883373Y-116777605D01*
X100891099Y-116776588D01*
X101022582Y-116722126D01*
X101028767Y-116717380D01*
X101028769Y-116717379D01*
X101129300Y-116640238D01*
X101135489Y-116635489D01*
X101222126Y-116522582D01*
X101271058Y-116404450D01*
X101313132Y-116352240D01*
X101376753Y-116331065D01*
X101441722Y-116347647D01*
X101487413Y-116396723D01*
X101500000Y-116449989D01*
X101500000Y-128631000D01*
X101481109Y-128695336D01*
X101430434Y-128739246D01*
X101381000Y-128750000D01*
X96548138Y-128750000D01*
X96483802Y-128731109D01*
X96453729Y-128703443D01*
X96398142Y-128631000D01*
X96385489Y-128614511D01*
X96377368Y-128608280D01*
X96278769Y-128532621D01*
X96278767Y-128532620D01*
X96272582Y-128527874D01*
X96141099Y-128473412D01*
X96133373Y-128472395D01*
X96133370Y-128472394D01*
X96007732Y-128455854D01*
X96000000Y-128454836D01*
X95992268Y-128455854D01*
X95866630Y-128472394D01*
X95866627Y-128472395D01*
X95858901Y-128473412D01*
X95727418Y-128527874D01*
X95721233Y-128532620D01*
X95721231Y-128532621D01*
X95622632Y-128608280D01*
X95614511Y-128614511D01*
X95601859Y-128631000D01*
X95546271Y-128703443D01*
X95492118Y-128742984D01*
X95451862Y-128750000D01*
X95298138Y-128750000D01*
X95233802Y-128731109D01*
X95203729Y-128703443D01*
X95148142Y-128631000D01*
X95135489Y-128614511D01*
X95127368Y-128608280D01*
X95028769Y-128532621D01*
X95028767Y-128532620D01*
X95022582Y-128527874D01*
X94891099Y-128473412D01*
X94883373Y-128472395D01*
X94883370Y-128472394D01*
X94757732Y-128455854D01*
X94750000Y-128454836D01*
X94742268Y-128455854D01*
X94616630Y-128472394D01*
X94616627Y-128472395D01*
X94608901Y-128473412D01*
X94477418Y-128527874D01*
X94471233Y-128532620D01*
X94471231Y-128532621D01*
X94372632Y-128608280D01*
X94364511Y-128614511D01*
X94351859Y-128631000D01*
X94296271Y-128703443D01*
X94242118Y-128742984D01*
X94201862Y-128750000D01*
X91869000Y-128750000D01*
X91804664Y-128731109D01*
X91760754Y-128680434D01*
X91750000Y-128631000D01*
X91750000Y-127000000D01*
X94704836Y-127000000D01*
X94723412Y-127141099D01*
X94777874Y-127272582D01*
X94864511Y-127385489D01*
X94870700Y-127390238D01*
X94971231Y-127467379D01*
X94971233Y-127467380D01*
X94977418Y-127472126D01*
X95108901Y-127526588D01*
X95116627Y-127527605D01*
X95116630Y-127527606D01*
X95242268Y-127544146D01*
X95250000Y-127545164D01*
X95257732Y-127544146D01*
X95383370Y-127527606D01*
X95383373Y-127527605D01*
X95391099Y-127526588D01*
X95522582Y-127472126D01*
X95528767Y-127467380D01*
X95528769Y-127467379D01*
X95629300Y-127390238D01*
X95635489Y-127385489D01*
X95722126Y-127272582D01*
X95776588Y-127141099D01*
X95795164Y-127000000D01*
X95776588Y-126858901D01*
X95722126Y-126727418D01*
X95635489Y-126614511D01*
X95627368Y-126608280D01*
X95528769Y-126532621D01*
X95528767Y-126532620D01*
X95522582Y-126527874D01*
X95391099Y-126473412D01*
X95383373Y-126472395D01*
X95383370Y-126472394D01*
X95257732Y-126455854D01*
X95250000Y-126454836D01*
X95242268Y-126455854D01*
X95116630Y-126472394D01*
X95116627Y-126472395D01*
X95108901Y-126473412D01*
X94977418Y-126527874D01*
X94971233Y-126532620D01*
X94971231Y-126532621D01*
X94872632Y-126608280D01*
X94864511Y-126614511D01*
X94777874Y-126727418D01*
X94723412Y-126858901D01*
X94704836Y-127000000D01*
X91750000Y-127000000D01*
X91750000Y-125619000D01*
X91768891Y-125554664D01*
X91819566Y-125510754D01*
X91869000Y-125500000D01*
X98000000Y-125500000D01*
X98000000Y-113500000D01*
X98704836Y-113500000D01*
X98705854Y-113507732D01*
X98721253Y-113624696D01*
X98723412Y-113641099D01*
X98777874Y-113772582D01*
X98864511Y-113885489D01*
X98870700Y-113890238D01*
X98971231Y-113967379D01*
X98971233Y-113967380D01*
X98977418Y-113972126D01*
X99108901Y-114026588D01*
X99116627Y-114027605D01*
X99116630Y-114027606D01*
X99242268Y-114044146D01*
X99250000Y-114045164D01*
X99257732Y-114044146D01*
X99383370Y-114027606D01*
X99383373Y-114027605D01*
X99391099Y-114026588D01*
X99522582Y-113972126D01*
X99528767Y-113967380D01*
X99528769Y-113967379D01*
X99629300Y-113890238D01*
X99635489Y-113885489D01*
X99722126Y-113772582D01*
X99776588Y-113641099D01*
X99778748Y-113624696D01*
X99794146Y-113507732D01*
X99795164Y-113500000D01*
X99780714Y-113390238D01*
X99777606Y-113366630D01*
X99777605Y-113366627D01*
X99776588Y-113358901D01*
X99722126Y-113227418D01*
X99666136Y-113154450D01*
X99640238Y-113120700D01*
X99635489Y-113114511D01*
X99591902Y-113081065D01*
X99528769Y-113032621D01*
X99528767Y-113032620D01*
X99522582Y-113027874D01*
X99391099Y-112973412D01*
X99383373Y-112972395D01*
X99383370Y-112972394D01*
X99257732Y-112955854D01*
X99250000Y-112954836D01*
X99242268Y-112955854D01*
X99116630Y-112972394D01*
X99116627Y-112972395D01*
X99108901Y-112973412D01*
X98977418Y-113027874D01*
X98971233Y-113032620D01*
X98971231Y-113032621D01*
X98908098Y-113081065D01*
X98864511Y-113114511D01*
X98859762Y-113120700D01*
X98833865Y-113154450D01*
X98777874Y-113227418D01*
X98723412Y-113358901D01*
X98722395Y-113366627D01*
X98722394Y-113366630D01*
X98719286Y-113390238D01*
X98704836Y-113500000D01*
X98000000Y-113500000D01*
X98000000Y-86369000D01*
X98018891Y-86304664D01*
X98069566Y-86260754D01*
X98119000Y-86250000D01*
X102631000Y-86250000D01*
X102695336Y-86268891D01*
G37*
%TD.AperFunction*%
%TD*%
%TA.AperFunction,Conductor*%
%TO.N,/USB_PWR*%
G36*
X85445336Y-64313517D02*
G01*
X85489246Y-64364192D01*
X85500000Y-64413626D01*
X85500000Y-82750000D01*
X91381000Y-82750000D01*
X91445336Y-82768891D01*
X91489246Y-82819566D01*
X91500000Y-82869000D01*
X91500000Y-99381000D01*
X91481109Y-99445336D01*
X91430434Y-99489246D01*
X91381000Y-99500000D01*
X90424632Y-99500000D01*
X90360296Y-99481109D01*
X90316386Y-99430434D01*
X90306843Y-99364065D01*
X90320441Y-99324778D01*
X90322126Y-99322582D01*
X90376588Y-99191099D01*
X90378212Y-99178769D01*
X90394146Y-99057732D01*
X90395164Y-99050000D01*
X90396128Y-99050127D01*
X90413037Y-98992542D01*
X90463712Y-98948632D01*
X90497613Y-98938896D01*
X90583369Y-98927606D01*
X90583371Y-98927605D01*
X90591099Y-98926588D01*
X90722582Y-98872126D01*
X90728767Y-98867380D01*
X90728769Y-98867379D01*
X90829300Y-98790238D01*
X90835489Y-98785489D01*
X90922126Y-98672582D01*
X90976588Y-98541099D01*
X90978443Y-98527013D01*
X90994146Y-98407732D01*
X90995164Y-98400000D01*
X90988805Y-98351699D01*
X90977606Y-98266630D01*
X90977605Y-98266627D01*
X90976588Y-98258901D01*
X90922126Y-98127418D01*
X90916972Y-98120700D01*
X90840238Y-98020700D01*
X90835489Y-98014511D01*
X90810604Y-97995416D01*
X90728769Y-97932621D01*
X90728767Y-97932620D01*
X90722582Y-97927874D01*
X90591099Y-97873412D01*
X90583373Y-97872395D01*
X90583370Y-97872394D01*
X90457732Y-97855854D01*
X90450000Y-97854836D01*
X90442268Y-97855854D01*
X90316630Y-97872394D01*
X90316627Y-97872395D01*
X90308901Y-97873412D01*
X90177418Y-97927874D01*
X90171233Y-97932620D01*
X90171231Y-97932621D01*
X90089396Y-97995416D01*
X90064511Y-98014511D01*
X90059762Y-98020700D01*
X90012877Y-98081802D01*
X89977874Y-98127418D01*
X89976578Y-98130546D01*
X89929530Y-98175408D01*
X89863689Y-98188098D01*
X89801440Y-98163178D01*
X89773657Y-98131114D01*
X89772126Y-98127418D01*
X89737124Y-98081802D01*
X89690238Y-98020700D01*
X89685489Y-98014511D01*
X89660604Y-97995416D01*
X89578769Y-97932621D01*
X89578767Y-97932620D01*
X89572582Y-97927874D01*
X89441099Y-97873412D01*
X89433373Y-97872395D01*
X89433370Y-97872394D01*
X89307732Y-97855854D01*
X89300000Y-97854836D01*
X89292268Y-97855854D01*
X89166630Y-97872394D01*
X89166627Y-97872395D01*
X89158901Y-97873412D01*
X89027418Y-97927874D01*
X89021233Y-97932620D01*
X89021231Y-97932621D01*
X88939396Y-97995416D01*
X88914511Y-98014511D01*
X88909762Y-98020700D01*
X88833029Y-98120700D01*
X88827874Y-98127418D01*
X88773412Y-98258901D01*
X88772395Y-98266627D01*
X88772394Y-98266630D01*
X88761195Y-98351699D01*
X88754836Y-98400000D01*
X88755854Y-98407732D01*
X88771558Y-98527013D01*
X88773412Y-98541099D01*
X88827874Y-98672582D01*
X88914511Y-98785489D01*
X88920700Y-98790238D01*
X89021231Y-98867379D01*
X89021233Y-98867380D01*
X89027418Y-98872126D01*
X89158901Y-98926588D01*
X89166627Y-98927605D01*
X89166630Y-98927606D01*
X89202387Y-98932313D01*
X89263707Y-98959440D01*
X89300627Y-99015412D01*
X89305291Y-99046541D01*
X89304836Y-99050000D01*
X89305854Y-99057732D01*
X89321789Y-99178769D01*
X89323412Y-99191099D01*
X89377874Y-99322582D01*
X89379063Y-99324131D01*
X89394233Y-99386660D01*
X89372304Y-99450025D01*
X89319598Y-99491475D01*
X89275368Y-99500000D01*
X85806496Y-99500000D01*
X85742160Y-99481109D01*
X85698250Y-99430434D01*
X85688707Y-99364065D01*
X85716562Y-99303072D01*
X85724050Y-99296016D01*
X85723786Y-99295752D01*
X85729300Y-99290238D01*
X85735489Y-99285489D01*
X85802391Y-99198301D01*
X85817379Y-99178769D01*
X85817380Y-99178767D01*
X85822126Y-99172582D01*
X85859675Y-99081930D01*
X85873605Y-99048301D01*
X85873605Y-99048300D01*
X85876588Y-99041099D01*
X85878365Y-99027606D01*
X85894146Y-98907732D01*
X85895164Y-98900000D01*
X85885555Y-98827013D01*
X85877606Y-98766630D01*
X85877605Y-98766627D01*
X85876588Y-98758901D01*
X85869868Y-98742676D01*
X85841001Y-98672987D01*
X85822126Y-98627418D01*
X85790129Y-98585718D01*
X85740238Y-98520700D01*
X85735489Y-98514511D01*
X85656158Y-98453638D01*
X85616617Y-98399485D01*
X85612630Y-98332552D01*
X85637737Y-98287214D01*
X85635489Y-98285489D01*
X85717379Y-98178769D01*
X85717380Y-98178767D01*
X85722126Y-98172582D01*
X85776588Y-98041099D01*
X85777705Y-98032621D01*
X85794146Y-97907732D01*
X85795164Y-97900000D01*
X85786409Y-97833500D01*
X85777606Y-97766630D01*
X85777605Y-97766627D01*
X85776588Y-97758901D01*
X85722126Y-97627418D01*
X85686838Y-97581429D01*
X85640238Y-97520700D01*
X85635489Y-97514511D01*
X85609383Y-97494479D01*
X85528769Y-97432621D01*
X85528767Y-97432620D01*
X85522582Y-97427874D01*
X85431930Y-97390325D01*
X85398301Y-97376395D01*
X85398300Y-97376395D01*
X85391099Y-97373412D01*
X85383373Y-97372395D01*
X85383370Y-97372394D01*
X85257732Y-97355854D01*
X85250000Y-97354836D01*
X85242268Y-97355854D01*
X85116630Y-97372394D01*
X85116627Y-97372395D01*
X85108901Y-97373412D01*
X85101700Y-97376395D01*
X85101699Y-97376395D01*
X85068070Y-97390325D01*
X84977418Y-97427874D01*
X84971233Y-97432620D01*
X84971231Y-97432621D01*
X84890617Y-97494479D01*
X84864511Y-97514511D01*
X84859762Y-97520700D01*
X84813163Y-97581429D01*
X84777874Y-97627418D01*
X84723412Y-97758901D01*
X84722395Y-97766627D01*
X84722394Y-97766630D01*
X84713591Y-97833500D01*
X84704836Y-97900000D01*
X84705854Y-97907732D01*
X84722296Y-98032621D01*
X84723412Y-98041099D01*
X84777874Y-98172582D01*
X84782620Y-98178767D01*
X84782621Y-98178769D01*
X84853243Y-98270804D01*
X84864511Y-98285489D01*
X84925845Y-98332552D01*
X84943842Y-98346362D01*
X84983383Y-98400515D01*
X84987370Y-98467448D01*
X84962263Y-98512786D01*
X84964511Y-98514511D01*
X84909872Y-98585718D01*
X84877874Y-98627418D01*
X84858999Y-98672987D01*
X84830133Y-98742676D01*
X84823412Y-98758901D01*
X84822395Y-98766627D01*
X84822394Y-98766630D01*
X84814445Y-98827013D01*
X84804836Y-98900000D01*
X84805854Y-98907732D01*
X84821636Y-99027606D01*
X84823412Y-99041099D01*
X84826395Y-99048300D01*
X84826395Y-99048301D01*
X84840325Y-99081930D01*
X84877874Y-99172582D01*
X84882620Y-99178767D01*
X84882621Y-99178769D01*
X84897609Y-99198301D01*
X84964511Y-99285489D01*
X84970700Y-99290238D01*
X84976214Y-99295752D01*
X84974147Y-99297819D01*
X85005490Y-99340749D01*
X85009474Y-99407683D01*
X84976638Y-99466145D01*
X84917408Y-99497574D01*
X84893504Y-99500000D01*
X81206496Y-99500000D01*
X81142160Y-99481109D01*
X81098250Y-99430434D01*
X81088707Y-99364065D01*
X81116562Y-99303072D01*
X81124050Y-99296016D01*
X81123786Y-99295752D01*
X81129300Y-99290238D01*
X81135489Y-99285489D01*
X81202391Y-99198301D01*
X81217379Y-99178769D01*
X81217380Y-99178767D01*
X81222126Y-99172582D01*
X81259675Y-99081930D01*
X81273605Y-99048301D01*
X81273605Y-99048300D01*
X81276588Y-99041099D01*
X81278365Y-99027606D01*
X81294146Y-98907732D01*
X81295164Y-98900000D01*
X81285555Y-98827013D01*
X81277606Y-98766630D01*
X81277605Y-98766627D01*
X81276588Y-98758901D01*
X81269868Y-98742676D01*
X81241001Y-98672987D01*
X81222126Y-98627418D01*
X81190129Y-98585718D01*
X81140238Y-98520700D01*
X81135489Y-98514511D01*
X81126654Y-98507732D01*
X81028769Y-98432621D01*
X81028767Y-98432620D01*
X81022582Y-98427874D01*
X80931930Y-98390325D01*
X80898301Y-98376395D01*
X80898300Y-98376395D01*
X80891099Y-98373412D01*
X80883373Y-98372395D01*
X80883370Y-98372394D01*
X80757732Y-98355854D01*
X80750000Y-98354836D01*
X80742268Y-98355854D01*
X80616630Y-98372394D01*
X80616627Y-98372395D01*
X80608901Y-98373412D01*
X80601700Y-98376395D01*
X80601699Y-98376395D01*
X80568070Y-98390325D01*
X80477418Y-98427874D01*
X80471233Y-98432620D01*
X80471231Y-98432621D01*
X80373346Y-98507732D01*
X80364511Y-98514511D01*
X80359762Y-98520700D01*
X80309872Y-98585718D01*
X80277874Y-98627418D01*
X80258999Y-98672987D01*
X80230133Y-98742676D01*
X80223412Y-98758901D01*
X80222395Y-98766627D01*
X80222394Y-98766630D01*
X80214445Y-98827013D01*
X80204836Y-98900000D01*
X80205854Y-98907732D01*
X80221636Y-99027606D01*
X80223412Y-99041099D01*
X80226395Y-99048300D01*
X80226395Y-99048301D01*
X80240325Y-99081930D01*
X80277874Y-99172582D01*
X80282620Y-99178767D01*
X80282621Y-99178769D01*
X80297609Y-99198301D01*
X80364511Y-99285489D01*
X80370700Y-99290238D01*
X80376214Y-99295752D01*
X80374147Y-99297819D01*
X80405490Y-99340749D01*
X80409474Y-99407683D01*
X80376638Y-99466145D01*
X80317408Y-99497574D01*
X80293504Y-99500000D01*
X76248247Y-99500000D01*
X76183911Y-99481109D01*
X76140001Y-99430434D01*
X76129247Y-99381000D01*
X76129247Y-98500000D01*
X77354836Y-98500000D01*
X77355854Y-98507732D01*
X77371611Y-98627418D01*
X77373412Y-98641099D01*
X77427874Y-98772582D01*
X77432620Y-98778767D01*
X77432621Y-98778769D01*
X77493916Y-98858649D01*
X77514511Y-98885489D01*
X77520700Y-98890238D01*
X77621231Y-98967379D01*
X77621233Y-98967380D01*
X77627418Y-98972126D01*
X77758901Y-99026588D01*
X77766627Y-99027605D01*
X77766630Y-99027606D01*
X77892268Y-99044146D01*
X77900000Y-99045164D01*
X77907732Y-99044146D01*
X78033370Y-99027606D01*
X78033373Y-99027605D01*
X78041099Y-99026588D01*
X78172582Y-98972126D01*
X78178767Y-98967380D01*
X78178769Y-98967379D01*
X78279300Y-98890238D01*
X78285489Y-98885489D01*
X78306084Y-98858649D01*
X78367379Y-98778769D01*
X78367380Y-98778767D01*
X78372126Y-98772582D01*
X78426588Y-98641099D01*
X78428390Y-98627418D01*
X78444146Y-98507732D01*
X78445164Y-98500000D01*
X78438581Y-98450000D01*
X78427606Y-98366630D01*
X78427605Y-98366627D01*
X78426588Y-98358901D01*
X78372126Y-98227418D01*
X78363545Y-98216234D01*
X78290238Y-98120700D01*
X78285489Y-98114511D01*
X78199203Y-98048301D01*
X78178769Y-98032621D01*
X78178767Y-98032620D01*
X78172582Y-98027874D01*
X78041099Y-97973412D01*
X78033373Y-97972395D01*
X78033370Y-97972394D01*
X77907732Y-97955854D01*
X77900000Y-97954836D01*
X77892268Y-97955854D01*
X77766630Y-97972394D01*
X77766627Y-97972395D01*
X77758901Y-97973412D01*
X77627418Y-98027874D01*
X77621233Y-98032620D01*
X77621231Y-98032621D01*
X77600797Y-98048301D01*
X77514511Y-98114511D01*
X77509762Y-98120700D01*
X77436456Y-98216234D01*
X77427874Y-98227418D01*
X77373412Y-98358901D01*
X77372395Y-98366627D01*
X77372394Y-98366630D01*
X77361419Y-98450000D01*
X77354836Y-98500000D01*
X76129247Y-98500000D01*
X76129247Y-97550000D01*
X79904836Y-97550000D01*
X79905854Y-97557732D01*
X79914332Y-97622126D01*
X79923412Y-97691099D01*
X79977874Y-97822582D01*
X79982620Y-97828767D01*
X79982621Y-97828769D01*
X80016096Y-97872394D01*
X80064511Y-97935489D01*
X80070700Y-97940238D01*
X80171231Y-98017379D01*
X80171233Y-98017380D01*
X80177418Y-98022126D01*
X80207596Y-98034626D01*
X80291012Y-98069178D01*
X80308901Y-98076588D01*
X80316627Y-98077605D01*
X80316630Y-98077606D01*
X80442268Y-98094146D01*
X80450000Y-98095164D01*
X80457732Y-98094146D01*
X80583370Y-98077606D01*
X80583373Y-98077605D01*
X80591099Y-98076588D01*
X80608989Y-98069178D01*
X80692404Y-98034626D01*
X80722582Y-98022126D01*
X80728767Y-98017380D01*
X80728769Y-98017379D01*
X80829300Y-97940238D01*
X80835489Y-97935489D01*
X80883904Y-97872394D01*
X80917379Y-97828769D01*
X80917380Y-97828767D01*
X80922126Y-97822582D01*
X80931745Y-97799360D01*
X81679908Y-97799360D01*
X81680265Y-97804804D01*
X81692939Y-97998162D01*
X81693918Y-98013105D01*
X81695259Y-98018385D01*
X81745303Y-98215437D01*
X81745305Y-98215442D01*
X81746645Y-98220719D01*
X81748927Y-98225669D01*
X81748928Y-98225672D01*
X81829532Y-98400515D01*
X81836323Y-98415246D01*
X81839476Y-98419708D01*
X81839477Y-98419709D01*
X81956800Y-98585718D01*
X81956805Y-98585723D01*
X81959950Y-98590174D01*
X82113385Y-98739644D01*
X82117919Y-98742673D01*
X82117922Y-98742676D01*
X82286955Y-98855620D01*
X82286959Y-98855622D01*
X82291489Y-98858649D01*
X82488298Y-98943205D01*
X82493610Y-98944407D01*
X82493613Y-98944408D01*
X82629298Y-98975110D01*
X82697220Y-98990479D01*
X82757968Y-98992866D01*
X82905803Y-98998675D01*
X82905807Y-98998675D01*
X82911259Y-98998889D01*
X83017253Y-98983520D01*
X83117841Y-98968936D01*
X83117844Y-98968935D01*
X83123246Y-98968152D01*
X83128411Y-98966399D01*
X83128414Y-98966398D01*
X83320915Y-98901053D01*
X83320916Y-98901053D01*
X83326082Y-98899299D01*
X83512975Y-98794634D01*
X83677664Y-98657664D01*
X83814634Y-98492975D01*
X83919299Y-98306082D01*
X83935315Y-98258901D01*
X83986398Y-98108414D01*
X83986399Y-98108411D01*
X83988152Y-98103246D01*
X83989472Y-98094146D01*
X84018386Y-97894730D01*
X84018386Y-97894725D01*
X84018889Y-97891259D01*
X84020493Y-97830000D01*
X84000893Y-97616695D01*
X83951713Y-97442317D01*
X83944230Y-97415784D01*
X83944230Y-97415783D01*
X83942749Y-97410533D01*
X83848009Y-97218419D01*
X83828658Y-97192504D01*
X83723115Y-97051165D01*
X83719846Y-97046787D01*
X83715011Y-97042317D01*
X83641198Y-96974086D01*
X83562551Y-96901385D01*
X83539203Y-96886653D01*
X83386008Y-96789995D01*
X83381393Y-96787083D01*
X83376325Y-96785061D01*
X83376321Y-96785059D01*
X83187505Y-96709729D01*
X83187500Y-96709727D01*
X83182438Y-96707708D01*
X83099512Y-96691213D01*
X83040098Y-96660134D01*
X83006918Y-96601867D01*
X83010506Y-96534911D01*
X83049725Y-96480524D01*
X83112121Y-96455974D01*
X83122728Y-96455500D01*
X83798688Y-96455500D01*
X83829381Y-96449395D01*
X83857344Y-96443833D01*
X83857346Y-96443832D01*
X83868839Y-96441546D01*
X83948391Y-96388391D01*
X84001546Y-96308839D01*
X84005373Y-96289603D01*
X84014358Y-96244427D01*
X84015500Y-96238688D01*
X84015500Y-94341312D01*
X84009395Y-94310619D01*
X84003833Y-94282656D01*
X84003832Y-94282654D01*
X84001546Y-94271161D01*
X83948391Y-94191609D01*
X83868839Y-94138454D01*
X83857346Y-94136168D01*
X83857344Y-94136167D01*
X83829381Y-94130605D01*
X83798688Y-94124500D01*
X81901312Y-94124500D01*
X81870619Y-94130605D01*
X81842656Y-94136167D01*
X81842654Y-94136168D01*
X81831161Y-94138454D01*
X81751609Y-94191609D01*
X81698454Y-94271161D01*
X81696168Y-94282654D01*
X81696167Y-94282656D01*
X81690605Y-94310619D01*
X81684500Y-94341312D01*
X81684500Y-96238688D01*
X81685642Y-96244427D01*
X81694628Y-96289603D01*
X81698454Y-96308839D01*
X81751609Y-96388391D01*
X81831161Y-96441546D01*
X81842654Y-96443832D01*
X81842656Y-96443833D01*
X81870619Y-96449395D01*
X81901312Y-96455500D01*
X82571188Y-96455500D01*
X82635524Y-96474391D01*
X82679434Y-96525066D01*
X82688977Y-96591435D01*
X82661122Y-96652428D01*
X82604714Y-96688680D01*
X82591341Y-96691781D01*
X82552435Y-96698466D01*
X82552431Y-96698467D01*
X82547054Y-96699391D01*
X82541935Y-96701279D01*
X82541933Y-96701280D01*
X82389045Y-96757683D01*
X82346090Y-96773530D01*
X82341407Y-96776316D01*
X82341405Y-96776317D01*
X82305724Y-96797545D01*
X82162001Y-96883051D01*
X82157894Y-96886653D01*
X82005057Y-97020687D01*
X82005053Y-97020691D01*
X82000954Y-97024286D01*
X81868342Y-97192504D01*
X81768605Y-97382072D01*
X81705085Y-97586641D01*
X81701528Y-97616695D01*
X81685218Y-97754500D01*
X81679908Y-97799360D01*
X80931745Y-97799360D01*
X80976588Y-97691099D01*
X80985669Y-97622126D01*
X80994146Y-97557732D01*
X80995164Y-97550000D01*
X80985998Y-97480377D01*
X80977606Y-97416630D01*
X80977605Y-97416627D01*
X80976588Y-97408901D01*
X80972393Y-97398772D01*
X80954615Y-97355854D01*
X80922126Y-97277418D01*
X80901088Y-97250000D01*
X80840238Y-97170700D01*
X80835489Y-97164511D01*
X80761430Y-97107683D01*
X80728769Y-97082621D01*
X80728767Y-97082620D01*
X80722582Y-97077874D01*
X80591099Y-97023412D01*
X80583373Y-97022395D01*
X80583370Y-97022394D01*
X80457732Y-97005854D01*
X80450000Y-97004836D01*
X80442268Y-97005854D01*
X80316630Y-97022394D01*
X80316627Y-97022395D01*
X80308901Y-97023412D01*
X80177418Y-97077874D01*
X80171233Y-97082620D01*
X80171231Y-97082621D01*
X80138570Y-97107683D01*
X80064511Y-97164511D01*
X80059762Y-97170700D01*
X79998913Y-97250000D01*
X79977874Y-97277418D01*
X79945385Y-97355854D01*
X79927608Y-97398772D01*
X79923412Y-97408901D01*
X79922395Y-97416627D01*
X79922394Y-97416630D01*
X79914002Y-97480377D01*
X79904836Y-97550000D01*
X76129247Y-97550000D01*
X76129247Y-95350000D01*
X76804836Y-95350000D01*
X76823412Y-95491099D01*
X76877874Y-95622582D01*
X76964511Y-95735489D01*
X76970700Y-95740238D01*
X77071231Y-95817379D01*
X77071233Y-95817380D01*
X77077418Y-95822126D01*
X77208901Y-95876588D01*
X77216627Y-95877605D01*
X77216630Y-95877606D01*
X77342268Y-95894146D01*
X77350000Y-95895164D01*
X77357732Y-95894146D01*
X77483370Y-95877606D01*
X77483373Y-95877605D01*
X77491099Y-95876588D01*
X77622582Y-95822126D01*
X77628767Y-95817380D01*
X77628769Y-95817379D01*
X77729300Y-95740238D01*
X77735489Y-95735489D01*
X77822126Y-95622582D01*
X77876588Y-95491099D01*
X77895164Y-95350000D01*
X77876588Y-95208901D01*
X77822126Y-95077418D01*
X77735489Y-94964511D01*
X77727368Y-94958280D01*
X77628769Y-94882621D01*
X77628767Y-94882620D01*
X77622582Y-94877874D01*
X77491099Y-94823412D01*
X77483373Y-94822395D01*
X77483370Y-94822394D01*
X77357732Y-94805854D01*
X77350000Y-94804836D01*
X77342268Y-94805854D01*
X77216630Y-94822394D01*
X77216627Y-94822395D01*
X77208901Y-94823412D01*
X77077418Y-94877874D01*
X77071233Y-94882620D01*
X77071231Y-94882621D01*
X76972632Y-94958280D01*
X76964511Y-94964511D01*
X76877874Y-95077418D01*
X76823412Y-95208901D01*
X76804836Y-95350000D01*
X76129247Y-95350000D01*
X76129247Y-92850000D01*
X76604836Y-92850000D01*
X76623412Y-92991099D01*
X76677874Y-93122582D01*
X76764511Y-93235489D01*
X76770700Y-93240238D01*
X76871231Y-93317379D01*
X76871233Y-93317380D01*
X76877418Y-93322126D01*
X77008901Y-93376588D01*
X77016627Y-93377605D01*
X77016630Y-93377606D01*
X77142268Y-93394146D01*
X77150000Y-93395164D01*
X77157732Y-93394146D01*
X77283370Y-93377606D01*
X77283373Y-93377605D01*
X77291099Y-93376588D01*
X77422582Y-93322126D01*
X77428767Y-93317380D01*
X77428769Y-93317379D01*
X77529300Y-93240238D01*
X77535489Y-93235489D01*
X77622126Y-93122582D01*
X77676588Y-92991099D01*
X77695164Y-92850000D01*
X77687213Y-92789603D01*
X77677606Y-92716630D01*
X77677605Y-92716627D01*
X77676588Y-92708901D01*
X77622126Y-92577418D01*
X77535489Y-92464511D01*
X77527368Y-92458280D01*
X77428769Y-92382621D01*
X77428767Y-92382620D01*
X77422582Y-92377874D01*
X77291099Y-92323412D01*
X77283373Y-92322395D01*
X77283370Y-92322394D01*
X77157732Y-92305854D01*
X77150000Y-92304836D01*
X77142268Y-92305854D01*
X77016630Y-92322394D01*
X77016627Y-92322395D01*
X77008901Y-92323412D01*
X76877418Y-92377874D01*
X76871233Y-92382620D01*
X76871231Y-92382621D01*
X76772632Y-92458280D01*
X76764511Y-92464511D01*
X76677874Y-92577418D01*
X76623412Y-92708901D01*
X76622395Y-92716627D01*
X76622394Y-92716630D01*
X76612787Y-92789603D01*
X76604836Y-92850000D01*
X76129247Y-92850000D01*
X76129247Y-89950000D01*
X76754836Y-89950000D01*
X76773412Y-90091099D01*
X76776395Y-90098300D01*
X76776395Y-90098301D01*
X76786264Y-90122126D01*
X76827874Y-90222582D01*
X76914511Y-90335489D01*
X76920700Y-90340238D01*
X77021231Y-90417379D01*
X77021233Y-90417380D01*
X77027418Y-90422126D01*
X77158901Y-90476588D01*
X77166627Y-90477605D01*
X77166630Y-90477606D01*
X77292268Y-90494146D01*
X77300000Y-90495164D01*
X77307732Y-90494146D01*
X77433370Y-90477606D01*
X77433373Y-90477605D01*
X77441099Y-90476588D01*
X77572582Y-90422126D01*
X77578767Y-90417380D01*
X77578769Y-90417379D01*
X77679300Y-90340238D01*
X77685489Y-90335489D01*
X77772126Y-90222582D01*
X77813736Y-90122126D01*
X77823605Y-90098301D01*
X77823605Y-90098300D01*
X77826588Y-90091099D01*
X77845164Y-89950000D01*
X77826588Y-89808901D01*
X77817685Y-89787406D01*
X77775110Y-89684623D01*
X77772126Y-89677418D01*
X77757021Y-89657732D01*
X77751088Y-89650000D01*
X79654836Y-89650000D01*
X79655854Y-89657732D01*
X79669013Y-89757683D01*
X79673412Y-89791099D01*
X79727874Y-89922582D01*
X79732620Y-89928767D01*
X79732621Y-89928769D01*
X79783826Y-89995500D01*
X79814511Y-90035489D01*
X79820700Y-90040238D01*
X79921231Y-90117379D01*
X79921233Y-90117380D01*
X79927418Y-90122126D01*
X80058901Y-90176588D01*
X80066627Y-90177605D01*
X80066630Y-90177606D01*
X80192268Y-90194146D01*
X80200000Y-90195164D01*
X80207732Y-90194146D01*
X80333370Y-90177606D01*
X80333373Y-90177605D01*
X80341099Y-90176588D01*
X80472582Y-90122126D01*
X80478767Y-90117380D01*
X80478769Y-90117379D01*
X80579300Y-90040238D01*
X80585489Y-90035489D01*
X80616174Y-89995500D01*
X80667379Y-89928769D01*
X80667380Y-89928767D01*
X80672126Y-89922582D01*
X80726588Y-89791099D01*
X80730988Y-89757683D01*
X80744146Y-89657732D01*
X80745164Y-89650000D01*
X80726588Y-89508901D01*
X80715703Y-89482621D01*
X80691001Y-89422987D01*
X80672126Y-89377418D01*
X80585489Y-89264511D01*
X80517830Y-89212594D01*
X80478769Y-89182621D01*
X80478767Y-89182620D01*
X80472582Y-89177874D01*
X80341099Y-89123412D01*
X80333373Y-89122395D01*
X80333370Y-89122394D01*
X80207732Y-89105854D01*
X80200000Y-89104836D01*
X80192268Y-89105854D01*
X80066630Y-89122394D01*
X80066627Y-89122395D01*
X80058901Y-89123412D01*
X79927418Y-89177874D01*
X79921233Y-89182620D01*
X79921231Y-89182621D01*
X79882170Y-89212594D01*
X79814511Y-89264511D01*
X79727874Y-89377418D01*
X79708999Y-89422987D01*
X79684298Y-89482621D01*
X79673412Y-89508901D01*
X79654836Y-89650000D01*
X77751088Y-89650000D01*
X77690238Y-89570700D01*
X77685489Y-89564511D01*
X77613017Y-89508901D01*
X77578769Y-89482621D01*
X77578767Y-89482620D01*
X77572582Y-89477874D01*
X77441099Y-89423412D01*
X77433373Y-89422395D01*
X77433370Y-89422394D01*
X77307732Y-89405854D01*
X77300000Y-89404836D01*
X77292268Y-89405854D01*
X77166630Y-89422394D01*
X77166627Y-89422395D01*
X77158901Y-89423412D01*
X77027418Y-89477874D01*
X77021233Y-89482620D01*
X77021231Y-89482621D01*
X76986983Y-89508901D01*
X76914511Y-89564511D01*
X76909762Y-89570700D01*
X76842980Y-89657732D01*
X76827874Y-89677418D01*
X76824890Y-89684623D01*
X76782316Y-89787406D01*
X76773412Y-89808901D01*
X76754836Y-89950000D01*
X76129247Y-89950000D01*
X76129247Y-88629717D01*
X76148138Y-88565381D01*
X76198813Y-88521471D01*
X76248247Y-88510717D01*
X79158966Y-88510717D01*
X79182182Y-88513004D01*
X79182884Y-88513144D01*
X79182887Y-88513144D01*
X79194374Y-88515429D01*
X79195265Y-88515252D01*
X79206448Y-88514685D01*
X79551638Y-88497179D01*
X79551642Y-88497179D01*
X79554651Y-88497026D01*
X79911232Y-88442401D01*
X79999624Y-88419515D01*
X80257531Y-88352739D01*
X80257539Y-88352737D01*
X80260457Y-88351981D01*
X80265806Y-88350000D01*
X82454836Y-88350000D01*
X82473412Y-88491099D01*
X82527874Y-88622582D01*
X82532620Y-88628767D01*
X82532621Y-88628769D01*
X82608280Y-88727368D01*
X82614511Y-88735489D01*
X82620700Y-88740238D01*
X82721231Y-88817379D01*
X82721233Y-88817380D01*
X82727418Y-88822126D01*
X82858901Y-88876588D01*
X82866627Y-88877605D01*
X82866630Y-88877606D01*
X82992268Y-88894146D01*
X83000000Y-88895164D01*
X83007732Y-88894146D01*
X83133370Y-88877606D01*
X83133373Y-88877605D01*
X83141099Y-88876588D01*
X83272582Y-88822126D01*
X83278767Y-88817380D01*
X83278769Y-88817379D01*
X83379300Y-88740238D01*
X83385489Y-88735489D01*
X83391720Y-88727368D01*
X83467379Y-88628769D01*
X83467380Y-88628767D01*
X83472126Y-88622582D01*
X83526588Y-88491099D01*
X83545164Y-88350000D01*
X83538044Y-88295918D01*
X83527606Y-88216630D01*
X83527605Y-88216627D01*
X83526588Y-88208901D01*
X83520515Y-88194238D01*
X83475110Y-88084623D01*
X83472126Y-88077418D01*
X83463544Y-88066233D01*
X83390238Y-87970700D01*
X83385489Y-87964511D01*
X83311430Y-87907683D01*
X83278769Y-87882621D01*
X83278767Y-87882620D01*
X83272582Y-87877874D01*
X83141099Y-87823412D01*
X83133373Y-87822395D01*
X83133370Y-87822394D01*
X83007732Y-87805854D01*
X83000000Y-87804836D01*
X82992268Y-87805854D01*
X82866630Y-87822394D01*
X82866627Y-87822395D01*
X82858901Y-87823412D01*
X82727418Y-87877874D01*
X82721233Y-87882620D01*
X82721231Y-87882621D01*
X82688570Y-87907683D01*
X82614511Y-87964511D01*
X82609762Y-87970700D01*
X82536457Y-88066233D01*
X82527874Y-88077418D01*
X82524890Y-88084623D01*
X82479486Y-88194238D01*
X82473412Y-88208901D01*
X82472395Y-88216627D01*
X82472394Y-88216630D01*
X82461956Y-88295918D01*
X82454836Y-88350000D01*
X80265806Y-88350000D01*
X80598743Y-88226694D01*
X80888375Y-88084623D01*
X80919913Y-88069153D01*
X80919915Y-88069152D01*
X80922618Y-88067826D01*
X80971123Y-88037593D01*
X81088372Y-87964511D01*
X81228758Y-87877008D01*
X81514024Y-87656197D01*
X81775486Y-87407659D01*
X81779835Y-87402593D01*
X82008495Y-87136237D01*
X82008499Y-87136231D01*
X82010463Y-87133944D01*
X82115209Y-86983452D01*
X82214825Y-86840330D01*
X82214829Y-86840323D01*
X82216543Y-86837861D01*
X82237558Y-86800000D01*
X82904836Y-86800000D01*
X82905854Y-86807732D01*
X82910146Y-86840330D01*
X82923412Y-86941099D01*
X82977874Y-87072582D01*
X83064511Y-87185489D01*
X83070700Y-87190238D01*
X83171231Y-87267379D01*
X83171233Y-87267380D01*
X83177418Y-87272126D01*
X83308901Y-87326588D01*
X83316627Y-87327605D01*
X83316630Y-87327606D01*
X83442268Y-87344146D01*
X83450000Y-87345164D01*
X83457732Y-87344146D01*
X83583370Y-87327606D01*
X83583373Y-87327605D01*
X83591099Y-87326588D01*
X83722582Y-87272126D01*
X83728767Y-87267380D01*
X83728769Y-87267379D01*
X83829300Y-87190238D01*
X83835489Y-87185489D01*
X83922126Y-87072582D01*
X83976588Y-86941099D01*
X83989855Y-86840330D01*
X83994146Y-86807732D01*
X83995164Y-86800000D01*
X83976588Y-86658901D01*
X83922126Y-86527418D01*
X83835489Y-86414511D01*
X83809758Y-86394767D01*
X83728769Y-86332621D01*
X83728767Y-86332620D01*
X83722582Y-86327874D01*
X83591099Y-86273412D01*
X83583373Y-86272395D01*
X83583370Y-86272394D01*
X83457732Y-86255854D01*
X83450000Y-86254836D01*
X83442268Y-86255854D01*
X83316630Y-86272394D01*
X83316627Y-86272395D01*
X83308901Y-86273412D01*
X83177418Y-86327874D01*
X83171233Y-86332620D01*
X83171231Y-86332621D01*
X83090242Y-86394767D01*
X83064511Y-86414511D01*
X82977874Y-86527418D01*
X82923412Y-86658901D01*
X82904836Y-86800000D01*
X82237558Y-86800000D01*
X82391611Y-86522449D01*
X82506016Y-86255854D01*
X82532681Y-86193717D01*
X82532684Y-86193710D01*
X82533871Y-86190943D01*
X82641864Y-85846747D01*
X82714481Y-85493390D01*
X82724470Y-85395164D01*
X82740012Y-85242317D01*
X82750976Y-85134500D01*
X82750976Y-84850000D01*
X84104836Y-84850000D01*
X84123412Y-84991099D01*
X84177874Y-85122582D01*
X84182620Y-85128767D01*
X84182621Y-85128769D01*
X84249747Y-85216248D01*
X84264511Y-85235489D01*
X84270700Y-85240238D01*
X84371231Y-85317379D01*
X84371233Y-85317380D01*
X84377418Y-85322126D01*
X84508901Y-85376588D01*
X84516627Y-85377605D01*
X84516630Y-85377606D01*
X84642268Y-85394146D01*
X84650000Y-85395164D01*
X84657732Y-85394146D01*
X84783370Y-85377606D01*
X84783373Y-85377605D01*
X84791099Y-85376588D01*
X84922582Y-85322126D01*
X84928767Y-85317380D01*
X84928769Y-85317379D01*
X85029300Y-85240238D01*
X85035489Y-85235489D01*
X85050253Y-85216248D01*
X85117379Y-85128769D01*
X85117380Y-85128767D01*
X85122126Y-85122582D01*
X85176588Y-84991099D01*
X85195164Y-84850000D01*
X85176588Y-84708901D01*
X85122126Y-84577418D01*
X85089285Y-84534618D01*
X85040238Y-84470700D01*
X85035489Y-84464511D01*
X84970796Y-84414870D01*
X84928769Y-84382621D01*
X84928767Y-84382620D01*
X84922582Y-84377874D01*
X84791099Y-84323412D01*
X84783373Y-84322395D01*
X84783370Y-84322394D01*
X84657732Y-84305854D01*
X84650000Y-84304836D01*
X84642268Y-84305854D01*
X84516630Y-84322394D01*
X84516627Y-84322395D01*
X84508901Y-84323412D01*
X84377418Y-84377874D01*
X84371233Y-84382620D01*
X84371231Y-84382621D01*
X84329204Y-84414870D01*
X84264511Y-84464511D01*
X84259762Y-84470700D01*
X84210716Y-84534618D01*
X84177874Y-84577418D01*
X84123412Y-84708901D01*
X84104836Y-84850000D01*
X82750976Y-84850000D01*
X82750976Y-84773760D01*
X82726658Y-84534618D01*
X82714786Y-84417867D01*
X82714785Y-84417862D01*
X82714481Y-84414870D01*
X82641864Y-84061513D01*
X82533871Y-83717317D01*
X82391611Y-83385811D01*
X82216543Y-83070399D01*
X82010463Y-82774316D01*
X81989589Y-82750000D01*
X81777452Y-82502891D01*
X81777451Y-82502890D01*
X81775486Y-82500601D01*
X81514024Y-82252063D01*
X81228758Y-82031252D01*
X81018183Y-81900000D01*
X83154836Y-81900000D01*
X83155854Y-81907732D01*
X83172116Y-82031252D01*
X83173412Y-82041099D01*
X83227874Y-82172582D01*
X83232620Y-82178767D01*
X83232621Y-82178769D01*
X83288862Y-82252063D01*
X83314511Y-82285489D01*
X83320700Y-82290238D01*
X83421231Y-82367379D01*
X83421233Y-82367380D01*
X83427418Y-82372126D01*
X83558901Y-82426588D01*
X83566627Y-82427605D01*
X83566630Y-82427606D01*
X83692268Y-82444146D01*
X83700000Y-82445164D01*
X83707732Y-82444146D01*
X83833370Y-82427606D01*
X83833373Y-82427605D01*
X83841099Y-82426588D01*
X83972582Y-82372126D01*
X83978767Y-82367380D01*
X83978769Y-82367379D01*
X84079300Y-82290238D01*
X84085489Y-82285489D01*
X84111138Y-82252063D01*
X84167379Y-82178769D01*
X84167380Y-82178767D01*
X84172126Y-82172582D01*
X84226588Y-82041099D01*
X84227885Y-82031252D01*
X84244146Y-81907732D01*
X84245164Y-81900000D01*
X84226588Y-81758901D01*
X84172126Y-81627418D01*
X84085489Y-81514511D01*
X84077368Y-81508280D01*
X83978769Y-81432621D01*
X83978767Y-81432620D01*
X83972582Y-81427874D01*
X83841099Y-81373412D01*
X83833373Y-81372395D01*
X83833370Y-81372394D01*
X83707732Y-81355854D01*
X83700000Y-81354836D01*
X83692268Y-81355854D01*
X83566630Y-81372394D01*
X83566627Y-81372395D01*
X83558901Y-81373412D01*
X83427418Y-81427874D01*
X83421233Y-81432620D01*
X83421231Y-81432621D01*
X83322632Y-81508280D01*
X83314511Y-81514511D01*
X83227874Y-81627418D01*
X83173412Y-81758901D01*
X83154836Y-81900000D01*
X81018183Y-81900000D01*
X80983744Y-81878534D01*
X80925174Y-81842027D01*
X80925172Y-81842026D01*
X80922618Y-81840434D01*
X80915514Y-81836949D01*
X80601450Y-81682894D01*
X80598743Y-81681566D01*
X80260457Y-81556279D01*
X80257539Y-81555523D01*
X80257531Y-81555521D01*
X79914156Y-81466616D01*
X79914155Y-81466616D01*
X79911232Y-81465859D01*
X79554651Y-81411234D01*
X79551642Y-81411081D01*
X79551638Y-81411081D01*
X79455403Y-81406201D01*
X79195325Y-81393011D01*
X79194374Y-81392822D01*
X79182882Y-81395108D01*
X79182182Y-81395247D01*
X79158966Y-81397534D01*
X76248247Y-81397534D01*
X76183911Y-81378643D01*
X76140001Y-81327968D01*
X76129247Y-81278534D01*
X76129247Y-79600000D01*
X77254836Y-79600000D01*
X77273412Y-79741099D01*
X77327874Y-79872582D01*
X77414511Y-79985489D01*
X77420700Y-79990238D01*
X77521231Y-80067379D01*
X77521233Y-80067380D01*
X77527418Y-80072126D01*
X77658901Y-80126588D01*
X77666627Y-80127605D01*
X77666630Y-80127606D01*
X77792268Y-80144146D01*
X77800000Y-80145164D01*
X77807732Y-80144146D01*
X77933370Y-80127606D01*
X77933373Y-80127605D01*
X77941099Y-80126588D01*
X78072582Y-80072126D01*
X78078767Y-80067380D01*
X78078769Y-80067379D01*
X78179300Y-79990238D01*
X78185489Y-79985489D01*
X78272126Y-79872582D01*
X78326588Y-79741099D01*
X78345164Y-79600000D01*
X78326588Y-79458901D01*
X78272126Y-79327418D01*
X78185489Y-79214511D01*
X78177368Y-79208280D01*
X78078769Y-79132621D01*
X78078767Y-79132620D01*
X78072582Y-79127874D01*
X77941099Y-79073412D01*
X77933373Y-79072395D01*
X77933370Y-79072394D01*
X77807732Y-79055854D01*
X77800000Y-79054836D01*
X77792268Y-79055854D01*
X77666630Y-79072394D01*
X77666627Y-79072395D01*
X77658901Y-79073412D01*
X77527418Y-79127874D01*
X77521233Y-79132620D01*
X77521231Y-79132621D01*
X77422632Y-79208280D01*
X77414511Y-79214511D01*
X77327874Y-79327418D01*
X77273412Y-79458901D01*
X77254836Y-79600000D01*
X76129247Y-79600000D01*
X76129247Y-76300000D01*
X77804836Y-76300000D01*
X77805854Y-76307732D01*
X77819912Y-76414511D01*
X77823412Y-76441099D01*
X77877874Y-76572582D01*
X77964511Y-76685489D01*
X77970700Y-76690238D01*
X78071231Y-76767379D01*
X78071233Y-76767380D01*
X78077418Y-76772126D01*
X78208901Y-76826588D01*
X78216627Y-76827605D01*
X78216630Y-76827606D01*
X78342268Y-76844146D01*
X78350000Y-76845164D01*
X78357732Y-76844146D01*
X78483370Y-76827606D01*
X78483373Y-76827605D01*
X78491099Y-76826588D01*
X78622582Y-76772126D01*
X78628767Y-76767380D01*
X78628769Y-76767379D01*
X78729300Y-76690238D01*
X78735489Y-76685489D01*
X78822126Y-76572582D01*
X78876588Y-76441099D01*
X78880089Y-76414511D01*
X78894146Y-76307732D01*
X78895164Y-76300000D01*
X80054836Y-76300000D01*
X80055854Y-76307732D01*
X80069912Y-76414511D01*
X80073412Y-76441099D01*
X80127874Y-76572582D01*
X80214511Y-76685489D01*
X80220700Y-76690238D01*
X80321231Y-76767379D01*
X80321233Y-76767380D01*
X80327418Y-76772126D01*
X80458901Y-76826588D01*
X80466627Y-76827605D01*
X80466630Y-76827606D01*
X80592268Y-76844146D01*
X80600000Y-76845164D01*
X80607732Y-76844146D01*
X80733370Y-76827606D01*
X80733373Y-76827605D01*
X80741099Y-76826588D01*
X80805288Y-76800000D01*
X84004836Y-76800000D01*
X84023412Y-76941099D01*
X84077874Y-77072582D01*
X84164511Y-77185489D01*
X84170700Y-77190238D01*
X84271231Y-77267379D01*
X84271233Y-77267380D01*
X84277418Y-77272126D01*
X84408901Y-77326588D01*
X84416627Y-77327605D01*
X84416630Y-77327606D01*
X84542268Y-77344146D01*
X84550000Y-77345164D01*
X84557732Y-77344146D01*
X84683370Y-77327606D01*
X84683373Y-77327605D01*
X84691099Y-77326588D01*
X84822582Y-77272126D01*
X84828767Y-77267380D01*
X84828769Y-77267379D01*
X84929300Y-77190238D01*
X84935489Y-77185489D01*
X85022126Y-77072582D01*
X85076588Y-76941099D01*
X85095164Y-76800000D01*
X85080714Y-76690238D01*
X85077606Y-76666630D01*
X85077605Y-76666627D01*
X85076588Y-76658901D01*
X85022126Y-76527418D01*
X84935489Y-76414511D01*
X84927368Y-76408280D01*
X84828769Y-76332621D01*
X84828767Y-76332620D01*
X84822582Y-76327874D01*
X84691099Y-76273412D01*
X84683373Y-76272395D01*
X84683370Y-76272394D01*
X84557732Y-76255854D01*
X84550000Y-76254836D01*
X84542268Y-76255854D01*
X84416630Y-76272394D01*
X84416627Y-76272395D01*
X84408901Y-76273412D01*
X84277418Y-76327874D01*
X84271233Y-76332620D01*
X84271231Y-76332621D01*
X84172632Y-76408280D01*
X84164511Y-76414511D01*
X84077874Y-76527418D01*
X84023412Y-76658901D01*
X84022395Y-76666627D01*
X84022394Y-76666630D01*
X84019286Y-76690238D01*
X84004836Y-76800000D01*
X80805288Y-76800000D01*
X80872582Y-76772126D01*
X80878767Y-76767380D01*
X80878769Y-76767379D01*
X80979300Y-76690238D01*
X80985489Y-76685489D01*
X81072126Y-76572582D01*
X81126588Y-76441099D01*
X81130089Y-76414511D01*
X81144146Y-76307732D01*
X81145164Y-76300000D01*
X81126588Y-76158901D01*
X81072126Y-76027418D01*
X81046596Y-75994146D01*
X80990238Y-75920700D01*
X80985489Y-75914511D01*
X80977368Y-75908280D01*
X80878769Y-75832621D01*
X80878767Y-75832620D01*
X80872582Y-75827874D01*
X80741099Y-75773412D01*
X80733373Y-75772395D01*
X80733370Y-75772394D01*
X80607732Y-75755854D01*
X80600000Y-75754836D01*
X80592268Y-75755854D01*
X80466630Y-75772394D01*
X80466627Y-75772395D01*
X80458901Y-75773412D01*
X80327418Y-75827874D01*
X80321233Y-75832620D01*
X80321231Y-75832621D01*
X80222632Y-75908280D01*
X80214511Y-75914511D01*
X80209762Y-75920700D01*
X80153405Y-75994146D01*
X80127874Y-76027418D01*
X80073412Y-76158901D01*
X80054836Y-76300000D01*
X78895164Y-76300000D01*
X78876588Y-76158901D01*
X78822126Y-76027418D01*
X78796596Y-75994146D01*
X78740238Y-75920700D01*
X78735489Y-75914511D01*
X78727368Y-75908280D01*
X78628769Y-75832621D01*
X78628767Y-75832620D01*
X78622582Y-75827874D01*
X78491099Y-75773412D01*
X78483373Y-75772395D01*
X78483370Y-75772394D01*
X78357732Y-75755854D01*
X78350000Y-75754836D01*
X78342268Y-75755854D01*
X78216630Y-75772394D01*
X78216627Y-75772395D01*
X78208901Y-75773412D01*
X78077418Y-75827874D01*
X78071233Y-75832620D01*
X78071231Y-75832621D01*
X77972632Y-75908280D01*
X77964511Y-75914511D01*
X77959762Y-75920700D01*
X77903405Y-75994146D01*
X77877874Y-76027418D01*
X77823412Y-76158901D01*
X77804836Y-76300000D01*
X76129247Y-76300000D01*
X76129247Y-75450000D01*
X82754836Y-75450000D01*
X82755854Y-75457732D01*
X82771636Y-75577606D01*
X82773412Y-75591099D01*
X82827874Y-75722582D01*
X82832620Y-75728767D01*
X82832621Y-75728769D01*
X82866096Y-75772394D01*
X82914511Y-75835489D01*
X82920700Y-75840238D01*
X83021231Y-75917379D01*
X83021233Y-75917380D01*
X83027418Y-75922126D01*
X83158901Y-75976588D01*
X83166627Y-75977605D01*
X83166630Y-75977606D01*
X83292268Y-75994146D01*
X83300000Y-75995164D01*
X83307732Y-75994146D01*
X83433370Y-75977606D01*
X83433373Y-75977605D01*
X83441099Y-75976588D01*
X83572582Y-75922126D01*
X83578767Y-75917380D01*
X83578769Y-75917379D01*
X83679300Y-75840238D01*
X83685489Y-75835489D01*
X83733904Y-75772394D01*
X83767379Y-75728769D01*
X83767380Y-75728767D01*
X83772126Y-75722582D01*
X83826588Y-75591099D01*
X83828365Y-75577606D01*
X83844146Y-75457732D01*
X83845164Y-75450000D01*
X83830130Y-75335803D01*
X83838859Y-75279830D01*
X83836365Y-75279065D01*
X83791946Y-75225268D01*
X83780776Y-75198301D01*
X83772126Y-75177418D01*
X83761982Y-75164197D01*
X83690238Y-75070700D01*
X83685489Y-75064511D01*
X83666578Y-75050000D01*
X84004836Y-75050000D01*
X84005854Y-75057732D01*
X84005854Y-75057734D01*
X84019870Y-75164197D01*
X84011141Y-75220170D01*
X84013635Y-75220935D01*
X84058054Y-75274732D01*
X84077874Y-75322582D01*
X84082620Y-75328767D01*
X84082621Y-75328769D01*
X84158280Y-75427368D01*
X84164511Y-75435489D01*
X84170700Y-75440238D01*
X84271231Y-75517379D01*
X84271233Y-75517380D01*
X84277418Y-75522126D01*
X84408901Y-75576588D01*
X84416627Y-75577605D01*
X84416630Y-75577606D01*
X84542268Y-75594146D01*
X84550000Y-75595164D01*
X84557732Y-75594146D01*
X84683370Y-75577606D01*
X84683373Y-75577605D01*
X84691099Y-75576588D01*
X84822582Y-75522126D01*
X84828767Y-75517380D01*
X84828769Y-75517379D01*
X84929300Y-75440238D01*
X84935489Y-75435489D01*
X84941720Y-75427368D01*
X85017379Y-75328769D01*
X85017380Y-75328767D01*
X85022126Y-75322582D01*
X85076588Y-75191099D01*
X85078390Y-75177418D01*
X85094146Y-75057732D01*
X85095164Y-75050000D01*
X85092102Y-75026739D01*
X85077606Y-74916630D01*
X85077605Y-74916627D01*
X85076588Y-74908901D01*
X85022126Y-74777418D01*
X84935489Y-74664511D01*
X84927368Y-74658280D01*
X84828769Y-74582621D01*
X84828767Y-74582620D01*
X84822582Y-74577874D01*
X84691099Y-74523412D01*
X84683373Y-74522395D01*
X84683370Y-74522394D01*
X84557732Y-74505854D01*
X84550000Y-74504836D01*
X84542268Y-74505854D01*
X84416630Y-74522394D01*
X84416627Y-74522395D01*
X84408901Y-74523412D01*
X84277418Y-74577874D01*
X84271233Y-74582620D01*
X84271231Y-74582621D01*
X84172632Y-74658280D01*
X84164511Y-74664511D01*
X84077874Y-74777418D01*
X84023412Y-74908901D01*
X84022395Y-74916627D01*
X84022394Y-74916630D01*
X84007898Y-75026739D01*
X84004836Y-75050000D01*
X83666578Y-75050000D01*
X83578769Y-74982621D01*
X83578767Y-74982620D01*
X83572582Y-74977874D01*
X83441099Y-74923412D01*
X83433373Y-74922395D01*
X83433370Y-74922394D01*
X83307732Y-74905854D01*
X83300000Y-74904836D01*
X83292268Y-74905854D01*
X83166630Y-74922394D01*
X83166627Y-74922395D01*
X83158901Y-74923412D01*
X83027418Y-74977874D01*
X83021233Y-74982620D01*
X83021231Y-74982621D01*
X82933422Y-75050000D01*
X82914511Y-75064511D01*
X82909762Y-75070700D01*
X82838019Y-75164197D01*
X82827874Y-75177418D01*
X82773412Y-75308901D01*
X82772395Y-75316627D01*
X82772394Y-75316630D01*
X82770796Y-75328769D01*
X82754836Y-75450000D01*
X76129247Y-75450000D01*
X76129247Y-71850000D01*
X76754836Y-71850000D01*
X76773412Y-71991099D01*
X76827874Y-72122582D01*
X76914511Y-72235489D01*
X76920700Y-72240238D01*
X77021231Y-72317379D01*
X77021233Y-72317380D01*
X77027418Y-72322126D01*
X77158901Y-72376588D01*
X77166627Y-72377605D01*
X77166630Y-72377606D01*
X77292268Y-72394146D01*
X77300000Y-72395164D01*
X77307732Y-72394146D01*
X77433370Y-72377606D01*
X77433373Y-72377605D01*
X77441099Y-72376588D01*
X77572582Y-72322126D01*
X77578767Y-72317380D01*
X77578769Y-72317379D01*
X77679300Y-72240238D01*
X77685489Y-72235489D01*
X77772126Y-72122582D01*
X77826588Y-71991099D01*
X77845164Y-71850000D01*
X77826588Y-71708901D01*
X77772126Y-71577418D01*
X77685489Y-71464511D01*
X77677368Y-71458280D01*
X77578769Y-71382621D01*
X77578767Y-71382620D01*
X77572582Y-71377874D01*
X77441099Y-71323412D01*
X77433373Y-71322395D01*
X77433370Y-71322394D01*
X77307732Y-71305854D01*
X77300000Y-71304836D01*
X77292268Y-71305854D01*
X77166630Y-71322394D01*
X77166627Y-71322395D01*
X77158901Y-71323412D01*
X77027418Y-71377874D01*
X77021233Y-71382620D01*
X77021231Y-71382621D01*
X76922632Y-71458280D01*
X76914511Y-71464511D01*
X76827874Y-71577418D01*
X76773412Y-71708901D01*
X76754836Y-71850000D01*
X76129247Y-71850000D01*
X76129247Y-69100000D01*
X82154836Y-69100000D01*
X82173412Y-69241099D01*
X82227874Y-69372582D01*
X82314511Y-69485489D01*
X82320700Y-69490238D01*
X82421231Y-69567379D01*
X82421233Y-69567380D01*
X82427418Y-69572126D01*
X82434621Y-69575110D01*
X82434627Y-69575113D01*
X82476072Y-69592280D01*
X82528281Y-69634353D01*
X82549456Y-69697974D01*
X82532873Y-69762944D01*
X82502975Y-69796630D01*
X82414511Y-69864511D01*
X82327874Y-69977418D01*
X82273412Y-70108901D01*
X82254836Y-70250000D01*
X82273412Y-70391099D01*
X82327874Y-70522582D01*
X82414511Y-70635489D01*
X82420700Y-70640238D01*
X82521231Y-70717379D01*
X82521233Y-70717380D01*
X82527418Y-70722126D01*
X82658901Y-70776588D01*
X82666627Y-70777605D01*
X82666630Y-70777606D01*
X82792268Y-70794146D01*
X82800000Y-70795164D01*
X82807732Y-70794146D01*
X82933370Y-70777606D01*
X82933373Y-70777605D01*
X82941099Y-70776588D01*
X83072582Y-70722126D01*
X83078767Y-70717380D01*
X83078769Y-70717379D01*
X83179300Y-70640238D01*
X83185489Y-70635489D01*
X83272126Y-70522582D01*
X83326588Y-70391099D01*
X83345164Y-70250000D01*
X83326588Y-70108901D01*
X83272126Y-69977418D01*
X83185489Y-69864511D01*
X83177368Y-69858280D01*
X83078769Y-69782621D01*
X83078767Y-69782620D01*
X83072582Y-69777874D01*
X83065379Y-69774890D01*
X83065373Y-69774887D01*
X83023928Y-69757720D01*
X82971719Y-69715647D01*
X82950544Y-69652026D01*
X82967127Y-69587056D01*
X82997025Y-69553370D01*
X83079300Y-69490238D01*
X83085489Y-69485489D01*
X83172126Y-69372582D01*
X83226588Y-69241099D01*
X83245164Y-69100000D01*
X83226588Y-68958901D01*
X83172126Y-68827418D01*
X83085489Y-68714511D01*
X83077368Y-68708280D01*
X82978769Y-68632621D01*
X82978767Y-68632620D01*
X82972582Y-68627874D01*
X82841099Y-68573412D01*
X82833373Y-68572395D01*
X82833370Y-68572394D01*
X82707732Y-68555854D01*
X82700000Y-68554836D01*
X82692268Y-68555854D01*
X82566630Y-68572394D01*
X82566627Y-68572395D01*
X82558901Y-68573412D01*
X82427418Y-68627874D01*
X82421233Y-68632620D01*
X82421231Y-68632621D01*
X82322632Y-68708280D01*
X82314511Y-68714511D01*
X82227874Y-68827418D01*
X82173412Y-68958901D01*
X82154836Y-69100000D01*
X76129247Y-69100000D01*
X76129247Y-67950000D01*
X78000000Y-67950000D01*
X79800000Y-67950000D01*
X79800000Y-67400000D01*
X83254836Y-67400000D01*
X83273412Y-67541099D01*
X83327874Y-67672582D01*
X83414511Y-67785489D01*
X83420700Y-67790238D01*
X83521231Y-67867379D01*
X83521233Y-67867380D01*
X83527418Y-67872126D01*
X83658901Y-67926588D01*
X83666627Y-67927605D01*
X83666630Y-67927606D01*
X83792268Y-67944146D01*
X83800000Y-67945164D01*
X83807732Y-67944146D01*
X83933370Y-67927606D01*
X83933373Y-67927605D01*
X83941099Y-67926588D01*
X84072582Y-67872126D01*
X84078767Y-67867380D01*
X84078769Y-67867379D01*
X84179300Y-67790238D01*
X84185489Y-67785489D01*
X84272126Y-67672582D01*
X84326588Y-67541099D01*
X84345164Y-67400000D01*
X84326588Y-67258901D01*
X84272126Y-67127418D01*
X84185489Y-67014511D01*
X84177368Y-67008280D01*
X84078769Y-66932621D01*
X84078767Y-66932620D01*
X84072582Y-66927874D01*
X83941099Y-66873412D01*
X83933373Y-66872395D01*
X83933370Y-66872394D01*
X83807732Y-66855854D01*
X83800000Y-66854836D01*
X83792268Y-66855854D01*
X83666630Y-66872394D01*
X83666627Y-66872395D01*
X83658901Y-66873412D01*
X83527418Y-66927874D01*
X83521233Y-66932620D01*
X83521231Y-66932621D01*
X83422632Y-67008280D01*
X83414511Y-67014511D01*
X83327874Y-67127418D01*
X83273412Y-67258901D01*
X83254836Y-67400000D01*
X79800000Y-67400000D01*
X79800000Y-66150000D01*
X78000000Y-66150000D01*
X78000000Y-67950000D01*
X76129247Y-67950000D01*
X76129247Y-65300000D01*
X82104836Y-65300000D01*
X82123412Y-65441099D01*
X82177874Y-65572582D01*
X82264511Y-65685489D01*
X82270700Y-65690238D01*
X82371231Y-65767379D01*
X82371233Y-65767380D01*
X82377418Y-65772126D01*
X82508901Y-65826588D01*
X82516627Y-65827605D01*
X82516630Y-65827606D01*
X82642268Y-65844146D01*
X82650000Y-65845164D01*
X82657732Y-65844146D01*
X82783370Y-65827606D01*
X82783373Y-65827605D01*
X82791099Y-65826588D01*
X82922582Y-65772126D01*
X82928767Y-65767380D01*
X82928769Y-65767379D01*
X83029300Y-65690238D01*
X83035489Y-65685489D01*
X83122126Y-65572582D01*
X83176588Y-65441099D01*
X83195164Y-65300000D01*
X83176588Y-65158901D01*
X83122126Y-65027418D01*
X83035489Y-64914511D01*
X83027368Y-64908280D01*
X82928769Y-64832621D01*
X82928767Y-64832620D01*
X82922582Y-64827874D01*
X82791099Y-64773412D01*
X82783373Y-64772395D01*
X82783370Y-64772394D01*
X82657732Y-64755854D01*
X82650000Y-64754836D01*
X82642268Y-64755854D01*
X82516630Y-64772394D01*
X82516627Y-64772395D01*
X82508901Y-64773412D01*
X82377418Y-64827874D01*
X82371233Y-64832620D01*
X82371231Y-64832621D01*
X82272632Y-64908280D01*
X82264511Y-64914511D01*
X82177874Y-65027418D01*
X82123412Y-65158901D01*
X82104836Y-65300000D01*
X76129247Y-65300000D01*
X76129247Y-64413626D01*
X76148138Y-64349290D01*
X76198813Y-64305380D01*
X76248247Y-64294626D01*
X85381000Y-64294626D01*
X85445336Y-64313517D01*
G37*
%TD.AperFunction*%
%TD*%
%TA.AperFunction,Conductor*%
%TO.N,VDD*%
G36*
X122084836Y-84268891D02*
G01*
X122128746Y-84319566D01*
X122139500Y-84369000D01*
X122139500Y-84391670D01*
X122120609Y-84456006D01*
X122114044Y-84464153D01*
X122114511Y-84464511D01*
X122027874Y-84577418D01*
X121973412Y-84708901D01*
X121954836Y-84850000D01*
X121973412Y-84991099D01*
X122027874Y-85122582D01*
X122032620Y-85128767D01*
X122032621Y-85128769D01*
X122103570Y-85221231D01*
X122114511Y-85235489D01*
X122120700Y-85240238D01*
X122177830Y-85284076D01*
X122198912Y-85308824D01*
X122200513Y-85307582D01*
X122206539Y-85315351D01*
X122211210Y-85324008D01*
X122299340Y-85405475D01*
X122308334Y-85409451D01*
X122400109Y-85450025D01*
X122400111Y-85450026D01*
X122409108Y-85454003D01*
X122528676Y-85464358D01*
X122538221Y-85461987D01*
X122538223Y-85461987D01*
X122587285Y-85449800D01*
X122645152Y-85435426D01*
X122653416Y-85430090D01*
X122653418Y-85430089D01*
X122737712Y-85375660D01*
X122745976Y-85370324D01*
X122752067Y-85362598D01*
X122792204Y-85311685D01*
X122813213Y-85290949D01*
X122879300Y-85240238D01*
X122885489Y-85235489D01*
X122896430Y-85221231D01*
X122967379Y-85128769D01*
X122967380Y-85128767D01*
X122972126Y-85122582D01*
X123026588Y-84991099D01*
X123045164Y-84850000D01*
X123026588Y-84708901D01*
X122972126Y-84577418D01*
X122885489Y-84464511D01*
X122888091Y-84462514D01*
X122863220Y-84416965D01*
X122860500Y-84391670D01*
X122860500Y-84369000D01*
X122879391Y-84304664D01*
X122930066Y-84260754D01*
X122979500Y-84250000D01*
X125562212Y-84250000D01*
X125626548Y-84268891D01*
X125670458Y-84319566D01*
X125680001Y-84385935D01*
X125678780Y-84392932D01*
X125674278Y-84414840D01*
X125637783Y-84773730D01*
X125637783Y-85134470D01*
X125674278Y-85493360D01*
X125674884Y-85496310D01*
X125674885Y-85496315D01*
X125732931Y-85778769D01*
X125746894Y-85846716D01*
X125854886Y-86190913D01*
X125997146Y-86522419D01*
X126172213Y-86837832D01*
X126173927Y-86840295D01*
X126173931Y-86840301D01*
X126358761Y-87105854D01*
X126378292Y-87133915D01*
X126380255Y-87136201D01*
X126380256Y-87136203D01*
X126414759Y-87176395D01*
X126613267Y-87407631D01*
X126615455Y-87409711D01*
X126615458Y-87409714D01*
X126872539Y-87654089D01*
X126872547Y-87654096D01*
X126874729Y-87656170D01*
X126877112Y-87658015D01*
X126877116Y-87658018D01*
X127157604Y-87875135D01*
X127157610Y-87875139D01*
X127159992Y-87876983D01*
X127284895Y-87954836D01*
X127463561Y-88066201D01*
X127463569Y-88066205D01*
X127466132Y-88067803D01*
X127468849Y-88069136D01*
X127468853Y-88069138D01*
X127787296Y-88225344D01*
X127787301Y-88225346D01*
X127790006Y-88226673D01*
X128128290Y-88351963D01*
X128477514Y-88442385D01*
X128834095Y-88497014D01*
X128837103Y-88497167D01*
X128837107Y-88497167D01*
X128943460Y-88502561D01*
X129193421Y-88515240D01*
X129194372Y-88515429D01*
X129205860Y-88513144D01*
X129205861Y-88513144D01*
X129206569Y-88513003D01*
X129229784Y-88510717D01*
X130131000Y-88510717D01*
X130195336Y-88529608D01*
X130239246Y-88580283D01*
X130250000Y-88629717D01*
X130250000Y-107631000D01*
X130231109Y-107695336D01*
X130180434Y-107739246D01*
X130131000Y-107750000D01*
X117369000Y-107750000D01*
X117304664Y-107731109D01*
X117260754Y-107680434D01*
X117250000Y-107631000D01*
X117250000Y-105050000D01*
X120204836Y-105050000D01*
X120205854Y-105057732D01*
X120217778Y-105148301D01*
X120223412Y-105191099D01*
X120277874Y-105322582D01*
X120282620Y-105328767D01*
X120282621Y-105328769D01*
X120310047Y-105364511D01*
X120364511Y-105435489D01*
X120370700Y-105440238D01*
X120471231Y-105517379D01*
X120471233Y-105517380D01*
X120477418Y-105522126D01*
X120608901Y-105576588D01*
X120616627Y-105577605D01*
X120616630Y-105577606D01*
X120742268Y-105594146D01*
X120750000Y-105595164D01*
X120774554Y-105591931D01*
X120840804Y-105602262D01*
X120890954Y-105646771D01*
X120909079Y-105711327D01*
X120908070Y-105725437D01*
X120904836Y-105750000D01*
X120923412Y-105891099D01*
X120977874Y-106022582D01*
X120982620Y-106028767D01*
X120982624Y-106028774D01*
X121000874Y-106052557D01*
X121025053Y-106115098D01*
X121011581Y-106180783D01*
X121000874Y-106197443D01*
X120982624Y-106221226D01*
X120982621Y-106221231D01*
X120977874Y-106227418D01*
X120923412Y-106358901D01*
X120922395Y-106366627D01*
X120922394Y-106366630D01*
X120914919Y-106423412D01*
X120904836Y-106500000D01*
X120923412Y-106641099D01*
X120977874Y-106772582D01*
X120982620Y-106778767D01*
X120982621Y-106778769D01*
X121054607Y-106872582D01*
X121064511Y-106885489D01*
X121070700Y-106890238D01*
X121171231Y-106967379D01*
X121171233Y-106967380D01*
X121177418Y-106972126D01*
X121308901Y-107026588D01*
X121316627Y-107027605D01*
X121316630Y-107027606D01*
X121442268Y-107044146D01*
X121450000Y-107045164D01*
X121457732Y-107044146D01*
X121583370Y-107027606D01*
X121583373Y-107027605D01*
X121591099Y-107026588D01*
X121722582Y-106972126D01*
X121728767Y-106967380D01*
X121728769Y-106967379D01*
X121829300Y-106890238D01*
X121835489Y-106885489D01*
X121845393Y-106872582D01*
X121917379Y-106778769D01*
X121917380Y-106778767D01*
X121922126Y-106772582D01*
X121976588Y-106641099D01*
X121995164Y-106500000D01*
X123954836Y-106500000D01*
X123973412Y-106641099D01*
X124027874Y-106772582D01*
X124032620Y-106778767D01*
X124032621Y-106778769D01*
X124104607Y-106872582D01*
X124114511Y-106885489D01*
X124120700Y-106890238D01*
X124221231Y-106967379D01*
X124221233Y-106967380D01*
X124227418Y-106972126D01*
X124358901Y-107026588D01*
X124366627Y-107027605D01*
X124366630Y-107027606D01*
X124492268Y-107044146D01*
X124500000Y-107045164D01*
X124507732Y-107044146D01*
X124633370Y-107027606D01*
X124633373Y-107027605D01*
X124641099Y-107026588D01*
X124772582Y-106972126D01*
X124778767Y-106967380D01*
X124778769Y-106967379D01*
X124879300Y-106890238D01*
X124885489Y-106885489D01*
X124895393Y-106872582D01*
X124967379Y-106778769D01*
X124967380Y-106778767D01*
X124972126Y-106772582D01*
X125026588Y-106641099D01*
X125045164Y-106500000D01*
X125035081Y-106423412D01*
X125027606Y-106366630D01*
X125027605Y-106366627D01*
X125026588Y-106358901D01*
X124972126Y-106227418D01*
X124962223Y-106214511D01*
X124890238Y-106120700D01*
X124885489Y-106114511D01*
X124826461Y-106069217D01*
X124778769Y-106032621D01*
X124778767Y-106032620D01*
X124772582Y-106027874D01*
X124641099Y-105973412D01*
X124633373Y-105972395D01*
X124633370Y-105972394D01*
X124507732Y-105955854D01*
X124500000Y-105954836D01*
X124492268Y-105955854D01*
X124366630Y-105972394D01*
X124366627Y-105972395D01*
X124358901Y-105973412D01*
X124227418Y-106027874D01*
X124221233Y-106032620D01*
X124221231Y-106032621D01*
X124173539Y-106069217D01*
X124114511Y-106114511D01*
X124109762Y-106120700D01*
X124037778Y-106214511D01*
X124027874Y-106227418D01*
X123973412Y-106358901D01*
X123972395Y-106366627D01*
X123972394Y-106366630D01*
X123964919Y-106423412D01*
X123954836Y-106500000D01*
X121995164Y-106500000D01*
X121985081Y-106423412D01*
X121977606Y-106366630D01*
X121977605Y-106366627D01*
X121976588Y-106358901D01*
X121922126Y-106227418D01*
X121917379Y-106221231D01*
X121917376Y-106221226D01*
X121899126Y-106197443D01*
X121874947Y-106134902D01*
X121888419Y-106069217D01*
X121899126Y-106052557D01*
X121917376Y-106028774D01*
X121917380Y-106028767D01*
X121922126Y-106022582D01*
X121976588Y-105891099D01*
X121995164Y-105750000D01*
X121976588Y-105608901D01*
X121922126Y-105477418D01*
X121917378Y-105471231D01*
X121915195Y-105467449D01*
X121899387Y-105402287D01*
X121923843Y-105335507D01*
X121967376Y-105278773D01*
X121967378Y-105278770D01*
X121972126Y-105272582D01*
X122026588Y-105141099D01*
X122037564Y-105057732D01*
X122044146Y-105007732D01*
X122045164Y-105000000D01*
X122033171Y-104908901D01*
X122027606Y-104866630D01*
X122027605Y-104866627D01*
X122026588Y-104858901D01*
X121972126Y-104727418D01*
X121920212Y-104659762D01*
X121890238Y-104620700D01*
X121885489Y-104614511D01*
X121846776Y-104584805D01*
X121778769Y-104532621D01*
X121778767Y-104532620D01*
X121772582Y-104527874D01*
X121681930Y-104490325D01*
X121648301Y-104476395D01*
X121648300Y-104476395D01*
X121641099Y-104473412D01*
X121633373Y-104472395D01*
X121633370Y-104472394D01*
X121507732Y-104455854D01*
X121500000Y-104454836D01*
X121492268Y-104455854D01*
X121366630Y-104472394D01*
X121366627Y-104472395D01*
X121358901Y-104473412D01*
X121351700Y-104476395D01*
X121351699Y-104476395D01*
X121318070Y-104490325D01*
X121227418Y-104527874D01*
X121221232Y-104532621D01*
X121221227Y-104532624D01*
X121164493Y-104576157D01*
X121101952Y-104600335D01*
X121032551Y-104584805D01*
X121028768Y-104582621D01*
X121022582Y-104577874D01*
X120913332Y-104532621D01*
X120898301Y-104526395D01*
X120898300Y-104526395D01*
X120891099Y-104523412D01*
X120883373Y-104522395D01*
X120883370Y-104522394D01*
X120757732Y-104505854D01*
X120750000Y-104504836D01*
X120742268Y-104505854D01*
X120616630Y-104522394D01*
X120616627Y-104522395D01*
X120608901Y-104523412D01*
X120601700Y-104526395D01*
X120601699Y-104526395D01*
X120586668Y-104532621D01*
X120477418Y-104577874D01*
X120471233Y-104582620D01*
X120471231Y-104582621D01*
X120372632Y-104658280D01*
X120364511Y-104664511D01*
X120359762Y-104670700D01*
X120298913Y-104750000D01*
X120277874Y-104777418D01*
X120223412Y-104908901D01*
X120222395Y-104916627D01*
X120222394Y-104916630D01*
X120211419Y-105000000D01*
X120204836Y-105050000D01*
X117250000Y-105050000D01*
X117250000Y-102869000D01*
X117268891Y-102804664D01*
X117319566Y-102760754D01*
X117369000Y-102750000D01*
X124300011Y-102750000D01*
X124364347Y-102768891D01*
X124408257Y-102819566D01*
X124417800Y-102885935D01*
X124389945Y-102946928D01*
X124345549Y-102978942D01*
X124227418Y-103027874D01*
X124221233Y-103032620D01*
X124221231Y-103032621D01*
X124122632Y-103108280D01*
X124114511Y-103114511D01*
X124027874Y-103227418D01*
X123973412Y-103358901D01*
X123954836Y-103500000D01*
X123973412Y-103641099D01*
X124027874Y-103772582D01*
X124114511Y-103885489D01*
X124120700Y-103890238D01*
X124221231Y-103967379D01*
X124221233Y-103967380D01*
X124227418Y-103972126D01*
X124358901Y-104026588D01*
X124366627Y-104027605D01*
X124366630Y-104027606D01*
X124492268Y-104044146D01*
X124500000Y-104045164D01*
X124507732Y-104044146D01*
X124633370Y-104027606D01*
X124633373Y-104027605D01*
X124641099Y-104026588D01*
X124772582Y-103972126D01*
X124778767Y-103967380D01*
X124778769Y-103967379D01*
X124879300Y-103890238D01*
X124885489Y-103885489D01*
X124972126Y-103772582D01*
X125026588Y-103641099D01*
X125045164Y-103500000D01*
X125026588Y-103358901D01*
X124972126Y-103227418D01*
X124885489Y-103114511D01*
X124877368Y-103108280D01*
X124778769Y-103032621D01*
X124778767Y-103032620D01*
X124772582Y-103027874D01*
X124641099Y-102973412D01*
X124633371Y-102972395D01*
X124633369Y-102972394D01*
X124554115Y-102961960D01*
X124492795Y-102934833D01*
X124455875Y-102878860D01*
X124455078Y-102811812D01*
X124479714Y-102766049D01*
X124493621Y-102750000D01*
X124500000Y-102750000D01*
X124500000Y-101899524D01*
X124518891Y-101835188D01*
X124569566Y-101791278D01*
X124603467Y-101781542D01*
X124614986Y-101780026D01*
X124633369Y-101777606D01*
X124633371Y-101777605D01*
X124641099Y-101776588D01*
X124651872Y-101772126D01*
X124705288Y-101750000D01*
X124772582Y-101722126D01*
X124778767Y-101717380D01*
X124778769Y-101717379D01*
X124879300Y-101640238D01*
X124885489Y-101635489D01*
X124905891Y-101608901D01*
X124967379Y-101528769D01*
X124967380Y-101528767D01*
X124972126Y-101522582D01*
X125026588Y-101391099D01*
X125030089Y-101364511D01*
X125044146Y-101257732D01*
X125045164Y-101250000D01*
X125026588Y-101108901D01*
X124972126Y-100977418D01*
X124944258Y-100941099D01*
X124890238Y-100870700D01*
X124885489Y-100864511D01*
X124837743Y-100827874D01*
X124778769Y-100782621D01*
X124778767Y-100782620D01*
X124772582Y-100777874D01*
X124641099Y-100723412D01*
X124633371Y-100722395D01*
X124633369Y-100722394D01*
X124614986Y-100719974D01*
X124603467Y-100718458D01*
X124542148Y-100691332D01*
X124505228Y-100635360D01*
X124500000Y-100600476D01*
X124500000Y-97750000D01*
X121406107Y-97750000D01*
X121341771Y-97731109D01*
X121297861Y-97680434D01*
X121288125Y-97646533D01*
X121277606Y-97566630D01*
X121277605Y-97566627D01*
X121276588Y-97558901D01*
X121222126Y-97427418D01*
X121196596Y-97394146D01*
X121140238Y-97320700D01*
X121135489Y-97314511D01*
X121116578Y-97300000D01*
X121028769Y-97232621D01*
X121028767Y-97232620D01*
X121022582Y-97227874D01*
X120891099Y-97173412D01*
X120883373Y-97172395D01*
X120883370Y-97172394D01*
X120757732Y-97155854D01*
X120750000Y-97154836D01*
X120742268Y-97155854D01*
X120616630Y-97172394D01*
X120616627Y-97172395D01*
X120608901Y-97173412D01*
X120477418Y-97227874D01*
X120471233Y-97232620D01*
X120471231Y-97232621D01*
X120383422Y-97300000D01*
X120364511Y-97314511D01*
X120359762Y-97320700D01*
X120303405Y-97394146D01*
X120277874Y-97427418D01*
X120223412Y-97558901D01*
X120222395Y-97566627D01*
X120222394Y-97566630D01*
X120211875Y-97646533D01*
X120184748Y-97707853D01*
X120128775Y-97744773D01*
X120093893Y-97750000D01*
X108538930Y-97750000D01*
X108474594Y-97731109D01*
X108430684Y-97680434D01*
X108421141Y-97614065D01*
X108444521Y-97558557D01*
X108467379Y-97528769D01*
X108467380Y-97528767D01*
X108472126Y-97522582D01*
X108526588Y-97391099D01*
X108528365Y-97377606D01*
X108544146Y-97257732D01*
X108545164Y-97250000D01*
X108533088Y-97158275D01*
X108527606Y-97116630D01*
X108527605Y-97116627D01*
X108526588Y-97108901D01*
X108472126Y-96977418D01*
X108420212Y-96909762D01*
X108390238Y-96870700D01*
X108385489Y-96864511D01*
X108366578Y-96850000D01*
X108278769Y-96782621D01*
X108278767Y-96782620D01*
X108272582Y-96777874D01*
X108141099Y-96723412D01*
X108133373Y-96722395D01*
X108133370Y-96722394D01*
X108007732Y-96705854D01*
X108000000Y-96704836D01*
X107992268Y-96705854D01*
X107866630Y-96722394D01*
X107866627Y-96722395D01*
X107858901Y-96723412D01*
X107727418Y-96777874D01*
X107721233Y-96782620D01*
X107721231Y-96782621D01*
X107633422Y-96850000D01*
X107614511Y-96864511D01*
X107609762Y-96870700D01*
X107579789Y-96909762D01*
X107527874Y-96977418D01*
X107499813Y-97045164D01*
X107474587Y-97106065D01*
X107432514Y-97158275D01*
X107368893Y-97179450D01*
X107303923Y-97162868D01*
X107258232Y-97113793D01*
X107254704Y-97106066D01*
X107225113Y-97034627D01*
X107225110Y-97034621D01*
X107222126Y-97027418D01*
X107194258Y-96991099D01*
X107140238Y-96920700D01*
X107135489Y-96914511D01*
X107097667Y-96885489D01*
X107028769Y-96832621D01*
X107028767Y-96832620D01*
X107022582Y-96827874D01*
X106904032Y-96778769D01*
X106898301Y-96776395D01*
X106898300Y-96776395D01*
X106891099Y-96773412D01*
X106883373Y-96772395D01*
X106883370Y-96772394D01*
X106757732Y-96755854D01*
X106750000Y-96754836D01*
X106742268Y-96755854D01*
X106616630Y-96772394D01*
X106616627Y-96772395D01*
X106608901Y-96773412D01*
X106601700Y-96776395D01*
X106601699Y-96776395D01*
X106595968Y-96778769D01*
X106477418Y-96827874D01*
X106471233Y-96832620D01*
X106471231Y-96832621D01*
X106402333Y-96885489D01*
X106364511Y-96914511D01*
X106359762Y-96920700D01*
X106305743Y-96991099D01*
X106277874Y-97027418D01*
X106223412Y-97158901D01*
X106222395Y-97166627D01*
X106222394Y-97166630D01*
X106211419Y-97250000D01*
X106204836Y-97300000D01*
X106205854Y-97307732D01*
X106221671Y-97427874D01*
X106223412Y-97441099D01*
X106277874Y-97572582D01*
X106279063Y-97574131D01*
X106294233Y-97636660D01*
X106272304Y-97700025D01*
X106219598Y-97741475D01*
X106175368Y-97750000D01*
X103119000Y-97750000D01*
X103054664Y-97731109D01*
X103010754Y-97680434D01*
X103000000Y-97631000D01*
X103000000Y-96500000D01*
X114054836Y-96500000D01*
X114073412Y-96641099D01*
X114127874Y-96772582D01*
X114132620Y-96778767D01*
X114132621Y-96778769D01*
X114170301Y-96827874D01*
X114214511Y-96885489D01*
X114220700Y-96890238D01*
X114321231Y-96967379D01*
X114321233Y-96967380D01*
X114327418Y-96972126D01*
X114458901Y-97026588D01*
X114466627Y-97027605D01*
X114466630Y-97027606D01*
X114592268Y-97044146D01*
X114600000Y-97045164D01*
X114607732Y-97044146D01*
X114733370Y-97027606D01*
X114733373Y-97027605D01*
X114741099Y-97026588D01*
X114872582Y-96972126D01*
X114878767Y-96967380D01*
X114878769Y-96967379D01*
X114979300Y-96890238D01*
X114985489Y-96885489D01*
X115012721Y-96850000D01*
X121704836Y-96850000D01*
X121705854Y-96857732D01*
X121721611Y-96977418D01*
X121723412Y-96991099D01*
X121777874Y-97122582D01*
X121782620Y-97128767D01*
X121782621Y-97128769D01*
X121856378Y-97224890D01*
X121864511Y-97235489D01*
X121870700Y-97240238D01*
X121971231Y-97317379D01*
X121971233Y-97317380D01*
X121977418Y-97322126D01*
X122108901Y-97376588D01*
X122116627Y-97377605D01*
X122116630Y-97377606D01*
X122242268Y-97394146D01*
X122250000Y-97395164D01*
X122257732Y-97394146D01*
X122383370Y-97377606D01*
X122383373Y-97377605D01*
X122391099Y-97376588D01*
X122522582Y-97322126D01*
X122528767Y-97317380D01*
X122528769Y-97317379D01*
X122629300Y-97240238D01*
X122635489Y-97235489D01*
X122643622Y-97224890D01*
X122717379Y-97128769D01*
X122717380Y-97128767D01*
X122722126Y-97122582D01*
X122776588Y-96991099D01*
X122778390Y-96977418D01*
X122794146Y-96857732D01*
X122795164Y-96850000D01*
X122791858Y-96824890D01*
X122777606Y-96716630D01*
X122777605Y-96716627D01*
X122776588Y-96708901D01*
X122722126Y-96577418D01*
X122635489Y-96464511D01*
X122627368Y-96458280D01*
X122528769Y-96382621D01*
X122528767Y-96382620D01*
X122522582Y-96377874D01*
X122391099Y-96323412D01*
X122383373Y-96322395D01*
X122383370Y-96322394D01*
X122257732Y-96305854D01*
X122250000Y-96304836D01*
X122242268Y-96305854D01*
X122116630Y-96322394D01*
X122116627Y-96322395D01*
X122108901Y-96323412D01*
X121977418Y-96377874D01*
X121971233Y-96382620D01*
X121971231Y-96382621D01*
X121872632Y-96458280D01*
X121864511Y-96464511D01*
X121777874Y-96577418D01*
X121723412Y-96708901D01*
X121722395Y-96716627D01*
X121722394Y-96716630D01*
X121708142Y-96824890D01*
X121704836Y-96850000D01*
X115012721Y-96850000D01*
X115029699Y-96827874D01*
X115067379Y-96778769D01*
X115067380Y-96778767D01*
X115072126Y-96772582D01*
X115126588Y-96641099D01*
X115145164Y-96500000D01*
X115126588Y-96358901D01*
X115072126Y-96227418D01*
X114985489Y-96114511D01*
X114977368Y-96108280D01*
X114878769Y-96032621D01*
X114878767Y-96032620D01*
X114872582Y-96027874D01*
X114741099Y-95973412D01*
X114733373Y-95972395D01*
X114733370Y-95972394D01*
X114607732Y-95955854D01*
X114600000Y-95954836D01*
X114592268Y-95955854D01*
X114466630Y-95972394D01*
X114466627Y-95972395D01*
X114458901Y-95973412D01*
X114327418Y-96027874D01*
X114321233Y-96032620D01*
X114321231Y-96032621D01*
X114222632Y-96108280D01*
X114214511Y-96114511D01*
X114127874Y-96227418D01*
X114073412Y-96358901D01*
X114054836Y-96500000D01*
X103000000Y-96500000D01*
X103000000Y-94500000D01*
X123954836Y-94500000D01*
X123973412Y-94641099D01*
X124027874Y-94772582D01*
X124032620Y-94778767D01*
X124032621Y-94778769D01*
X124108280Y-94877368D01*
X124114511Y-94885489D01*
X124120700Y-94890238D01*
X124221231Y-94967379D01*
X124221233Y-94967380D01*
X124227418Y-94972126D01*
X124358901Y-95026588D01*
X124366627Y-95027605D01*
X124366630Y-95027606D01*
X124492268Y-95044146D01*
X124500000Y-95045164D01*
X124507732Y-95044146D01*
X124633370Y-95027606D01*
X124633373Y-95027605D01*
X124641099Y-95026588D01*
X124772582Y-94972126D01*
X124778767Y-94967380D01*
X124778769Y-94967379D01*
X124879300Y-94890238D01*
X124885489Y-94885489D01*
X124891720Y-94877368D01*
X124967379Y-94778769D01*
X124967380Y-94778767D01*
X124972126Y-94772582D01*
X125026588Y-94641099D01*
X125045164Y-94500000D01*
X125026588Y-94358901D01*
X124972126Y-94227418D01*
X124885489Y-94114511D01*
X124877368Y-94108280D01*
X124778769Y-94032621D01*
X124778767Y-94032620D01*
X124772582Y-94027874D01*
X124681930Y-93990325D01*
X124648301Y-93976395D01*
X124648300Y-93976395D01*
X124641099Y-93973412D01*
X124633373Y-93972395D01*
X124633370Y-93972394D01*
X124507732Y-93955854D01*
X124500000Y-93954836D01*
X124492268Y-93955854D01*
X124366630Y-93972394D01*
X124366627Y-93972395D01*
X124358901Y-93973412D01*
X124351700Y-93976395D01*
X124351699Y-93976395D01*
X124318070Y-93990325D01*
X124227418Y-94027874D01*
X124221233Y-94032620D01*
X124221231Y-94032621D01*
X124122632Y-94108280D01*
X124114511Y-94114511D01*
X124027874Y-94227418D01*
X123973412Y-94358901D01*
X123954836Y-94500000D01*
X103000000Y-94500000D01*
X103000000Y-93000000D01*
X103954836Y-93000000D01*
X103973412Y-93141099D01*
X104027874Y-93272582D01*
X104114511Y-93385489D01*
X104120700Y-93390238D01*
X104221231Y-93467379D01*
X104221233Y-93467380D01*
X104227418Y-93472126D01*
X104358901Y-93526588D01*
X104366627Y-93527605D01*
X104366630Y-93527606D01*
X104492268Y-93544146D01*
X104500000Y-93545164D01*
X104507732Y-93544146D01*
X104633370Y-93527606D01*
X104633373Y-93527605D01*
X104641099Y-93526588D01*
X104772582Y-93472126D01*
X104778767Y-93467380D01*
X104778769Y-93467379D01*
X104879300Y-93390238D01*
X104885489Y-93385489D01*
X104972126Y-93272582D01*
X105026588Y-93141099D01*
X105045164Y-93000000D01*
X122504836Y-93000000D01*
X122523412Y-93141099D01*
X122577874Y-93272582D01*
X122664511Y-93385489D01*
X122670700Y-93390238D01*
X122771231Y-93467379D01*
X122771233Y-93467380D01*
X122777418Y-93472126D01*
X122908901Y-93526588D01*
X122916627Y-93527605D01*
X122916630Y-93527606D01*
X123042268Y-93544146D01*
X123050000Y-93545164D01*
X123057732Y-93544146D01*
X123183370Y-93527606D01*
X123183373Y-93527605D01*
X123191099Y-93526588D01*
X123322582Y-93472126D01*
X123328767Y-93467380D01*
X123328769Y-93467379D01*
X123429300Y-93390238D01*
X123435489Y-93385489D01*
X123522126Y-93272582D01*
X123576588Y-93141099D01*
X123595164Y-93000000D01*
X123576588Y-92858901D01*
X123522126Y-92727418D01*
X123435489Y-92614511D01*
X123427368Y-92608280D01*
X123328769Y-92532621D01*
X123328767Y-92532620D01*
X123322582Y-92527874D01*
X123191099Y-92473412D01*
X123183373Y-92472395D01*
X123183370Y-92472394D01*
X123057732Y-92455854D01*
X123050000Y-92454836D01*
X123042268Y-92455854D01*
X122916630Y-92472394D01*
X122916627Y-92472395D01*
X122908901Y-92473412D01*
X122777418Y-92527874D01*
X122771233Y-92532620D01*
X122771231Y-92532621D01*
X122672632Y-92608280D01*
X122664511Y-92614511D01*
X122577874Y-92727418D01*
X122523412Y-92858901D01*
X122504836Y-93000000D01*
X105045164Y-93000000D01*
X105026588Y-92858901D01*
X104972126Y-92727418D01*
X104885489Y-92614511D01*
X104877368Y-92608280D01*
X104778769Y-92532621D01*
X104778767Y-92532620D01*
X104772582Y-92527874D01*
X104641099Y-92473412D01*
X104633373Y-92472395D01*
X104633370Y-92472394D01*
X104507732Y-92455854D01*
X104500000Y-92454836D01*
X104492268Y-92455854D01*
X104366630Y-92472394D01*
X104366627Y-92472395D01*
X104358901Y-92473412D01*
X104227418Y-92527874D01*
X104221233Y-92532620D01*
X104221231Y-92532621D01*
X104122632Y-92608280D01*
X104114511Y-92614511D01*
X104027874Y-92727418D01*
X103973412Y-92858901D01*
X103954836Y-93000000D01*
X103000000Y-93000000D01*
X103000000Y-91250000D01*
X103954836Y-91250000D01*
X103955854Y-91257732D01*
X103969912Y-91364511D01*
X103973412Y-91391099D01*
X104027874Y-91522582D01*
X104114511Y-91635489D01*
X104120700Y-91640238D01*
X104221231Y-91717379D01*
X104221233Y-91717380D01*
X104227418Y-91722126D01*
X104358901Y-91776588D01*
X104366627Y-91777605D01*
X104366630Y-91777606D01*
X104492268Y-91794146D01*
X104500000Y-91795164D01*
X104507732Y-91794146D01*
X104633370Y-91777606D01*
X104633373Y-91777605D01*
X104641099Y-91776588D01*
X104705288Y-91750000D01*
X123954836Y-91750000D01*
X123973412Y-91891099D01*
X124027874Y-92022582D01*
X124114511Y-92135489D01*
X124120700Y-92140238D01*
X124221231Y-92217379D01*
X124221233Y-92217380D01*
X124227418Y-92222126D01*
X124358901Y-92276588D01*
X124366627Y-92277605D01*
X124366630Y-92277606D01*
X124492268Y-92294146D01*
X124500000Y-92295164D01*
X124507732Y-92294146D01*
X124633370Y-92277606D01*
X124633373Y-92277605D01*
X124641099Y-92276588D01*
X124772582Y-92222126D01*
X124778767Y-92217380D01*
X124778769Y-92217379D01*
X124879300Y-92140238D01*
X124885489Y-92135489D01*
X124972126Y-92022582D01*
X125026588Y-91891099D01*
X125045164Y-91750000D01*
X125030714Y-91640238D01*
X125027606Y-91616630D01*
X125027605Y-91616627D01*
X125026588Y-91608901D01*
X124972126Y-91477418D01*
X124946596Y-91444146D01*
X124890238Y-91370700D01*
X124885489Y-91364511D01*
X124877368Y-91358280D01*
X124778769Y-91282621D01*
X124778767Y-91282620D01*
X124772582Y-91277874D01*
X124641099Y-91223412D01*
X124633373Y-91222395D01*
X124633370Y-91222394D01*
X124507732Y-91205854D01*
X124500000Y-91204836D01*
X124492268Y-91205854D01*
X124366630Y-91222394D01*
X124366627Y-91222395D01*
X124358901Y-91223412D01*
X124227418Y-91277874D01*
X124221233Y-91282620D01*
X124221231Y-91282621D01*
X124122632Y-91358280D01*
X124114511Y-91364511D01*
X124109762Y-91370700D01*
X124053405Y-91444146D01*
X124027874Y-91477418D01*
X123973412Y-91608901D01*
X123972395Y-91616627D01*
X123972394Y-91616630D01*
X123969286Y-91640238D01*
X123954836Y-91750000D01*
X104705288Y-91750000D01*
X104772582Y-91722126D01*
X104778767Y-91717380D01*
X104778769Y-91717379D01*
X104879300Y-91640238D01*
X104885489Y-91635489D01*
X104972126Y-91522582D01*
X105026588Y-91391099D01*
X105030089Y-91364511D01*
X105044146Y-91257732D01*
X105045164Y-91250000D01*
X105026588Y-91108901D01*
X104972126Y-90977418D01*
X104912721Y-90900000D01*
X111304836Y-90900000D01*
X111323412Y-91041099D01*
X111377874Y-91172582D01*
X111382620Y-91178767D01*
X111382621Y-91178769D01*
X111416096Y-91222394D01*
X111464511Y-91285489D01*
X111470700Y-91290238D01*
X111571231Y-91367379D01*
X111571233Y-91367380D01*
X111577418Y-91372126D01*
X111708901Y-91426588D01*
X111716627Y-91427605D01*
X111716630Y-91427606D01*
X111842268Y-91444146D01*
X111850000Y-91445164D01*
X111857732Y-91444146D01*
X111983370Y-91427606D01*
X111983373Y-91427605D01*
X111991099Y-91426588D01*
X112122582Y-91372126D01*
X112128767Y-91367380D01*
X112128769Y-91367379D01*
X112229300Y-91290238D01*
X112235489Y-91285489D01*
X112283904Y-91222394D01*
X112317379Y-91178769D01*
X112317380Y-91178767D01*
X112322126Y-91172582D01*
X112376588Y-91041099D01*
X112395164Y-90900000D01*
X112376588Y-90758901D01*
X112322126Y-90627418D01*
X112235489Y-90514511D01*
X112227368Y-90508280D01*
X112128769Y-90432621D01*
X112128767Y-90432620D01*
X112122582Y-90427874D01*
X111991099Y-90373412D01*
X111983373Y-90372395D01*
X111983370Y-90372394D01*
X111857732Y-90355854D01*
X111850000Y-90354836D01*
X111842268Y-90355854D01*
X111716630Y-90372394D01*
X111716627Y-90372395D01*
X111708901Y-90373412D01*
X111577418Y-90427874D01*
X111571233Y-90432620D01*
X111571231Y-90432621D01*
X111472632Y-90508280D01*
X111464511Y-90514511D01*
X111377874Y-90627418D01*
X111323412Y-90758901D01*
X111304836Y-90900000D01*
X104912721Y-90900000D01*
X104885489Y-90864511D01*
X104877368Y-90858280D01*
X104778769Y-90782621D01*
X104778767Y-90782620D01*
X104772582Y-90777874D01*
X104641099Y-90723412D01*
X104633373Y-90722395D01*
X104633370Y-90722394D01*
X104507732Y-90705854D01*
X104500000Y-90704836D01*
X104492268Y-90705854D01*
X104366630Y-90722394D01*
X104366627Y-90722395D01*
X104358901Y-90723412D01*
X104227418Y-90777874D01*
X104221233Y-90782620D01*
X104221231Y-90782621D01*
X104122632Y-90858280D01*
X104114511Y-90864511D01*
X104027874Y-90977418D01*
X103973412Y-91108901D01*
X103954836Y-91250000D01*
X103000000Y-91250000D01*
X103000000Y-89500000D01*
X123954836Y-89500000D01*
X123973412Y-89641099D01*
X124027874Y-89772582D01*
X124114511Y-89885489D01*
X124120700Y-89890238D01*
X124221231Y-89967379D01*
X124221233Y-89967380D01*
X124227418Y-89972126D01*
X124318070Y-90009675D01*
X124349230Y-90022582D01*
X124358901Y-90026588D01*
X124366627Y-90027605D01*
X124366630Y-90027606D01*
X124492268Y-90044146D01*
X124500000Y-90045164D01*
X124507732Y-90044146D01*
X124633370Y-90027606D01*
X124633373Y-90027605D01*
X124641099Y-90026588D01*
X124650771Y-90022582D01*
X124681930Y-90009675D01*
X124772582Y-89972126D01*
X124778767Y-89967380D01*
X124778769Y-89967379D01*
X124879300Y-89890238D01*
X124885489Y-89885489D01*
X124972126Y-89772582D01*
X125026588Y-89641099D01*
X125045164Y-89500000D01*
X125042102Y-89476739D01*
X125027606Y-89366630D01*
X125027605Y-89366627D01*
X125026588Y-89358901D01*
X124972126Y-89227418D01*
X124954799Y-89204836D01*
X124890238Y-89120700D01*
X124885489Y-89114511D01*
X124795115Y-89045164D01*
X124778769Y-89032621D01*
X124778767Y-89032620D01*
X124772582Y-89027874D01*
X124641099Y-88973412D01*
X124633373Y-88972395D01*
X124633370Y-88972394D01*
X124507732Y-88955854D01*
X124500000Y-88954836D01*
X124492268Y-88955854D01*
X124366630Y-88972394D01*
X124366627Y-88972395D01*
X124358901Y-88973412D01*
X124227418Y-89027874D01*
X124221233Y-89032620D01*
X124221231Y-89032621D01*
X124204885Y-89045164D01*
X124114511Y-89114511D01*
X124109762Y-89120700D01*
X124045202Y-89204836D01*
X124027874Y-89227418D01*
X123973412Y-89358901D01*
X123972395Y-89366627D01*
X123972394Y-89366630D01*
X123957898Y-89476739D01*
X123954836Y-89500000D01*
X103000000Y-89500000D01*
X103000000Y-88250000D01*
X103954836Y-88250000D01*
X103955854Y-88257732D01*
X103968260Y-88351963D01*
X103973412Y-88391099D01*
X104027874Y-88522582D01*
X104114511Y-88635489D01*
X104120700Y-88640238D01*
X104221231Y-88717379D01*
X104221233Y-88717380D01*
X104227418Y-88722126D01*
X104318070Y-88759675D01*
X104349230Y-88772582D01*
X104358901Y-88776588D01*
X104366627Y-88777605D01*
X104366630Y-88777606D01*
X104492268Y-88794146D01*
X104500000Y-88795164D01*
X104507732Y-88794146D01*
X104633370Y-88777606D01*
X104633373Y-88777605D01*
X104641099Y-88776588D01*
X104650771Y-88772582D01*
X104681930Y-88759675D01*
X104772582Y-88722126D01*
X104778767Y-88717380D01*
X104778769Y-88717379D01*
X104879300Y-88640238D01*
X104885489Y-88635489D01*
X104972126Y-88522582D01*
X105026588Y-88391099D01*
X105031741Y-88351963D01*
X105044146Y-88257732D01*
X105045164Y-88250000D01*
X105035305Y-88175110D01*
X105027606Y-88116630D01*
X105027605Y-88116627D01*
X105026588Y-88108901D01*
X105016891Y-88085489D01*
X104993371Y-88028708D01*
X104972126Y-87977418D01*
X104957078Y-87957806D01*
X104890238Y-87870700D01*
X104885489Y-87864511D01*
X104854978Y-87841099D01*
X104778769Y-87782621D01*
X104778767Y-87782620D01*
X104772582Y-87777874D01*
X104641099Y-87723412D01*
X104633373Y-87722395D01*
X104633370Y-87722394D01*
X104507732Y-87705854D01*
X104500000Y-87704836D01*
X104492268Y-87705854D01*
X104366630Y-87722394D01*
X104366627Y-87722395D01*
X104358901Y-87723412D01*
X104227418Y-87777874D01*
X104221233Y-87782620D01*
X104221231Y-87782621D01*
X104145022Y-87841099D01*
X104114511Y-87864511D01*
X104109762Y-87870700D01*
X104042923Y-87957806D01*
X104027874Y-87977418D01*
X104006629Y-88028708D01*
X103983110Y-88085489D01*
X103973412Y-88108901D01*
X103972395Y-88116627D01*
X103972394Y-88116630D01*
X103964695Y-88175110D01*
X103954836Y-88250000D01*
X103000000Y-88250000D01*
X103000000Y-87700000D01*
X109654836Y-87700000D01*
X109655854Y-87707732D01*
X109667778Y-87798301D01*
X109673412Y-87841099D01*
X109676395Y-87848300D01*
X109676395Y-87848301D01*
X109684850Y-87868712D01*
X109727874Y-87972582D01*
X109732620Y-87978767D01*
X109732621Y-87978769D01*
X109799711Y-88066201D01*
X109814511Y-88085489D01*
X109820700Y-88090238D01*
X109921231Y-88167379D01*
X109921233Y-88167380D01*
X109927418Y-88172126D01*
X110058901Y-88226588D01*
X110066627Y-88227605D01*
X110066630Y-88227606D01*
X110192268Y-88244146D01*
X110200000Y-88245164D01*
X110207732Y-88244146D01*
X110333370Y-88227606D01*
X110333373Y-88227605D01*
X110341099Y-88226588D01*
X110472582Y-88172126D01*
X110478767Y-88167380D01*
X110478769Y-88167379D01*
X110579300Y-88090238D01*
X110585489Y-88085489D01*
X110600289Y-88066201D01*
X110667379Y-87978769D01*
X110667380Y-87978767D01*
X110672126Y-87972582D01*
X110715150Y-87868712D01*
X110723605Y-87848301D01*
X110723605Y-87848300D01*
X110726588Y-87841099D01*
X110732223Y-87798301D01*
X110744146Y-87707732D01*
X110745164Y-87700000D01*
X110738581Y-87650000D01*
X115004836Y-87650000D01*
X115005854Y-87657732D01*
X115022296Y-87782621D01*
X115023412Y-87791099D01*
X115077874Y-87922582D01*
X115082620Y-87928767D01*
X115082621Y-87928769D01*
X115116877Y-87973412D01*
X115164511Y-88035489D01*
X115170700Y-88040238D01*
X115271231Y-88117379D01*
X115271233Y-88117380D01*
X115277418Y-88122126D01*
X115338148Y-88147281D01*
X115398129Y-88172126D01*
X115408901Y-88176588D01*
X115416627Y-88177605D01*
X115416630Y-88177606D01*
X115542268Y-88194146D01*
X115550000Y-88195164D01*
X115557732Y-88194146D01*
X115683370Y-88177606D01*
X115683373Y-88177605D01*
X115691099Y-88176588D01*
X115701872Y-88172126D01*
X115761852Y-88147281D01*
X115822582Y-88122126D01*
X115828767Y-88117380D01*
X115828769Y-88117379D01*
X115929300Y-88040238D01*
X115935489Y-88035489D01*
X115983123Y-87973412D01*
X116017379Y-87928769D01*
X116017380Y-87928767D01*
X116022126Y-87922582D01*
X116076588Y-87791099D01*
X116077705Y-87782621D01*
X116094146Y-87657732D01*
X116095164Y-87650000D01*
X116083171Y-87558901D01*
X116077606Y-87516630D01*
X116077605Y-87516627D01*
X116076588Y-87508901D01*
X116022126Y-87377418D01*
X115970212Y-87309762D01*
X115940238Y-87270700D01*
X115935489Y-87264511D01*
X115927368Y-87258280D01*
X115828769Y-87182621D01*
X115828767Y-87182620D01*
X115822582Y-87177874D01*
X115716456Y-87133915D01*
X115698301Y-87126395D01*
X115698300Y-87126395D01*
X115691099Y-87123412D01*
X115683373Y-87122395D01*
X115683370Y-87122394D01*
X115557732Y-87105854D01*
X115550000Y-87104836D01*
X115542268Y-87105854D01*
X115416630Y-87122394D01*
X115416627Y-87122395D01*
X115408901Y-87123412D01*
X115401700Y-87126395D01*
X115401699Y-87126395D01*
X115383544Y-87133915D01*
X115277418Y-87177874D01*
X115271233Y-87182620D01*
X115271231Y-87182621D01*
X115172632Y-87258280D01*
X115164511Y-87264511D01*
X115159762Y-87270700D01*
X115129789Y-87309762D01*
X115077874Y-87377418D01*
X115023412Y-87508901D01*
X115022395Y-87516627D01*
X115022394Y-87516630D01*
X115016829Y-87558901D01*
X115004836Y-87650000D01*
X110738581Y-87650000D01*
X110727606Y-87566630D01*
X110727605Y-87566627D01*
X110726588Y-87558901D01*
X110672126Y-87427418D01*
X110658542Y-87409714D01*
X110590238Y-87320700D01*
X110585489Y-87314511D01*
X110514139Y-87259762D01*
X110478769Y-87232621D01*
X110478767Y-87232620D01*
X110472582Y-87227874D01*
X110363332Y-87182621D01*
X110348301Y-87176395D01*
X110348300Y-87176395D01*
X110341099Y-87173412D01*
X110333373Y-87172395D01*
X110333370Y-87172394D01*
X110207732Y-87155854D01*
X110200000Y-87154836D01*
X110192268Y-87155854D01*
X110066630Y-87172394D01*
X110066627Y-87172395D01*
X110058901Y-87173412D01*
X110051700Y-87176395D01*
X110051699Y-87176395D01*
X110036668Y-87182621D01*
X109927418Y-87227874D01*
X109921233Y-87232620D01*
X109921231Y-87232621D01*
X109885861Y-87259762D01*
X109814511Y-87314511D01*
X109809762Y-87320700D01*
X109741459Y-87409714D01*
X109727874Y-87427418D01*
X109673412Y-87558901D01*
X109672395Y-87566627D01*
X109672394Y-87566630D01*
X109661419Y-87650000D01*
X109654836Y-87700000D01*
X103000000Y-87700000D01*
X103000000Y-86000000D01*
X97750000Y-86000000D01*
X97750000Y-120800011D01*
X97731109Y-120864347D01*
X97680434Y-120908257D01*
X97614065Y-120917800D01*
X97553072Y-120889945D01*
X97521058Y-120845550D01*
X97492493Y-120776588D01*
X97472126Y-120727418D01*
X97385489Y-120614511D01*
X97294526Y-120544712D01*
X97278769Y-120532621D01*
X97278767Y-120532620D01*
X97272582Y-120527874D01*
X97181930Y-120490325D01*
X97148301Y-120476395D01*
X97148300Y-120476395D01*
X97141099Y-120473412D01*
X97133373Y-120472395D01*
X97133370Y-120472394D01*
X97007732Y-120455854D01*
X97000000Y-120454836D01*
X96992268Y-120455854D01*
X96866630Y-120472394D01*
X96866627Y-120472395D01*
X96858901Y-120473412D01*
X96851700Y-120476395D01*
X96851699Y-120476395D01*
X96818070Y-120490325D01*
X96727418Y-120527874D01*
X96721233Y-120532620D01*
X96721231Y-120532621D01*
X96705474Y-120544712D01*
X96614511Y-120614511D01*
X96527874Y-120727418D01*
X96473412Y-120858901D01*
X96472395Y-120866627D01*
X96472394Y-120866630D01*
X96469325Y-120889945D01*
X96454836Y-121000000D01*
X96473412Y-121141099D01*
X96527874Y-121272582D01*
X96532620Y-121278767D01*
X96532624Y-121278774D01*
X96550874Y-121302557D01*
X96575053Y-121365098D01*
X96561581Y-121430783D01*
X96550874Y-121447443D01*
X96532624Y-121471226D01*
X96532621Y-121471231D01*
X96527874Y-121477418D01*
X96473412Y-121608901D01*
X96454836Y-121750000D01*
X96473412Y-121891099D01*
X96527874Y-122022582D01*
X96532620Y-122028767D01*
X96532624Y-122028774D01*
X96550874Y-122052557D01*
X96575053Y-122115098D01*
X96561581Y-122180783D01*
X96550874Y-122197443D01*
X96532624Y-122221226D01*
X96532620Y-122221233D01*
X96527874Y-122227418D01*
X96473412Y-122358901D01*
X96472395Y-122366627D01*
X96472394Y-122366630D01*
X96469325Y-122389945D01*
X96454836Y-122500000D01*
X96455854Y-122507732D01*
X96469912Y-122614511D01*
X96473412Y-122641099D01*
X96527874Y-122772582D01*
X96614511Y-122885489D01*
X96620700Y-122890238D01*
X96721231Y-122967379D01*
X96721233Y-122967380D01*
X96727418Y-122972126D01*
X96858901Y-123026588D01*
X96866627Y-123027605D01*
X96866630Y-123027606D01*
X96992268Y-123044146D01*
X97000000Y-123045164D01*
X97007732Y-123044146D01*
X97133370Y-123027606D01*
X97133373Y-123027605D01*
X97141099Y-123026588D01*
X97272582Y-122972126D01*
X97278767Y-122967380D01*
X97278769Y-122967379D01*
X97379300Y-122890238D01*
X97385489Y-122885489D01*
X97472126Y-122772582D01*
X97521058Y-122654450D01*
X97563132Y-122602240D01*
X97626753Y-122581065D01*
X97691722Y-122597647D01*
X97737413Y-122646723D01*
X97750000Y-122699989D01*
X97750000Y-125131000D01*
X97731109Y-125195336D01*
X97680434Y-125239246D01*
X97631000Y-125250000D01*
X91500000Y-125250000D01*
X91500000Y-129131000D01*
X91481109Y-129195336D01*
X91430434Y-129239246D01*
X91381000Y-129250000D01*
X85119000Y-129250000D01*
X85054664Y-129231109D01*
X85010754Y-129180434D01*
X85000000Y-129131000D01*
X85000000Y-126147945D01*
X85018891Y-126083609D01*
X85069566Y-126039699D01*
X85134532Y-126029963D01*
X85242266Y-126044146D01*
X85242268Y-126044146D01*
X85250000Y-126045164D01*
X85257732Y-126044146D01*
X85383370Y-126027606D01*
X85383373Y-126027605D01*
X85391099Y-126026588D01*
X85522582Y-125972126D01*
X85528767Y-125967380D01*
X85528769Y-125967379D01*
X85629300Y-125890238D01*
X85635489Y-125885489D01*
X85722126Y-125772582D01*
X85776588Y-125641099D01*
X85795164Y-125500000D01*
X85776588Y-125358901D01*
X85722126Y-125227418D01*
X85697509Y-125195336D01*
X85640238Y-125120700D01*
X85635489Y-125114511D01*
X85545115Y-125045164D01*
X85528769Y-125032621D01*
X85528767Y-125032620D01*
X85522582Y-125027874D01*
X85391099Y-124973412D01*
X85383373Y-124972395D01*
X85383370Y-124972394D01*
X85257732Y-124955854D01*
X85250000Y-124954836D01*
X85242268Y-124955854D01*
X85242266Y-124955854D01*
X85134532Y-124970037D01*
X85068281Y-124959705D01*
X85018132Y-124915195D01*
X85000000Y-124852055D01*
X85000000Y-123000000D01*
X86204836Y-123000000D01*
X86223412Y-123141099D01*
X86277874Y-123272582D01*
X86364511Y-123385489D01*
X86370700Y-123390238D01*
X86471231Y-123467379D01*
X86471233Y-123467380D01*
X86477418Y-123472126D01*
X86608901Y-123526588D01*
X86616627Y-123527605D01*
X86616630Y-123527606D01*
X86742268Y-123544146D01*
X86750000Y-123545164D01*
X86757732Y-123544146D01*
X86883370Y-123527606D01*
X86883373Y-123527605D01*
X86891099Y-123526588D01*
X87022582Y-123472126D01*
X87028767Y-123467380D01*
X87028769Y-123467379D01*
X87129300Y-123390238D01*
X87135489Y-123385489D01*
X87222126Y-123272582D01*
X87276588Y-123141099D01*
X87295164Y-123000000D01*
X93454836Y-123000000D01*
X93473412Y-123141099D01*
X93527874Y-123272582D01*
X93614511Y-123385489D01*
X93620700Y-123390238D01*
X93721231Y-123467379D01*
X93721233Y-123467380D01*
X93727418Y-123472126D01*
X93858901Y-123526588D01*
X93866627Y-123527605D01*
X93866630Y-123527606D01*
X93992268Y-123544146D01*
X94000000Y-123545164D01*
X94007732Y-123544146D01*
X94133370Y-123527606D01*
X94133373Y-123527605D01*
X94141099Y-123526588D01*
X94272582Y-123472126D01*
X94278767Y-123467380D01*
X94278769Y-123467379D01*
X94379300Y-123390238D01*
X94385489Y-123385489D01*
X94472126Y-123272582D01*
X94526588Y-123141099D01*
X94545164Y-123000000D01*
X94954836Y-123000000D01*
X94973412Y-123141099D01*
X95027874Y-123272582D01*
X95114511Y-123385489D01*
X95120700Y-123390238D01*
X95221231Y-123467379D01*
X95221233Y-123467380D01*
X95227418Y-123472126D01*
X95358901Y-123526588D01*
X95366627Y-123527605D01*
X95366630Y-123527606D01*
X95492268Y-123544146D01*
X95500000Y-123545164D01*
X95507732Y-123544146D01*
X95633370Y-123527606D01*
X95633373Y-123527605D01*
X95641099Y-123526588D01*
X95772582Y-123472126D01*
X95778767Y-123467380D01*
X95778769Y-123467379D01*
X95879300Y-123390238D01*
X95885489Y-123385489D01*
X95972126Y-123272582D01*
X96026588Y-123141099D01*
X96045164Y-123000000D01*
X96030714Y-122890238D01*
X96027606Y-122866630D01*
X96027605Y-122866627D01*
X96026588Y-122858901D01*
X95972126Y-122727418D01*
X95916136Y-122654450D01*
X95890238Y-122620700D01*
X95885489Y-122614511D01*
X95841902Y-122581065D01*
X95778769Y-122532621D01*
X95778767Y-122532620D01*
X95772582Y-122527874D01*
X95641099Y-122473412D01*
X95633373Y-122472395D01*
X95633370Y-122472394D01*
X95507732Y-122455854D01*
X95500000Y-122454836D01*
X95492268Y-122455854D01*
X95366630Y-122472394D01*
X95366627Y-122472395D01*
X95358901Y-122473412D01*
X95227418Y-122527874D01*
X95221233Y-122532620D01*
X95221231Y-122532621D01*
X95158098Y-122581065D01*
X95114511Y-122614511D01*
X95109762Y-122620700D01*
X95083865Y-122654450D01*
X95027874Y-122727418D01*
X94973412Y-122858901D01*
X94972395Y-122866627D01*
X94972394Y-122866630D01*
X94969286Y-122890238D01*
X94954836Y-123000000D01*
X94545164Y-123000000D01*
X94530714Y-122890238D01*
X94527606Y-122866630D01*
X94527605Y-122866627D01*
X94526588Y-122858901D01*
X94472126Y-122727418D01*
X94416136Y-122654450D01*
X94390238Y-122620700D01*
X94385489Y-122614511D01*
X94341902Y-122581065D01*
X94278769Y-122532621D01*
X94278767Y-122532620D01*
X94272582Y-122527874D01*
X94141099Y-122473412D01*
X94133373Y-122472395D01*
X94133370Y-122472394D01*
X94007732Y-122455854D01*
X94000000Y-122454836D01*
X93992268Y-122455854D01*
X93866630Y-122472394D01*
X93866627Y-122472395D01*
X93858901Y-122473412D01*
X93727418Y-122527874D01*
X93721233Y-122532620D01*
X93721231Y-122532621D01*
X93658098Y-122581065D01*
X93614511Y-122614511D01*
X93609762Y-122620700D01*
X93583865Y-122654450D01*
X93527874Y-122727418D01*
X93473412Y-122858901D01*
X93472395Y-122866627D01*
X93472394Y-122866630D01*
X93469286Y-122890238D01*
X93454836Y-123000000D01*
X87295164Y-123000000D01*
X87280714Y-122890238D01*
X87277606Y-122866630D01*
X87277605Y-122866627D01*
X87276588Y-122858901D01*
X87222126Y-122727418D01*
X87166136Y-122654450D01*
X87140238Y-122620700D01*
X87135489Y-122614511D01*
X87091902Y-122581065D01*
X87028769Y-122532621D01*
X87028767Y-122532620D01*
X87022582Y-122527874D01*
X86891099Y-122473412D01*
X86883373Y-122472395D01*
X86883370Y-122472394D01*
X86757732Y-122455854D01*
X86750000Y-122454836D01*
X86742268Y-122455854D01*
X86616630Y-122472394D01*
X86616627Y-122472395D01*
X86608901Y-122473412D01*
X86477418Y-122527874D01*
X86471233Y-122532620D01*
X86471231Y-122532621D01*
X86408098Y-122581065D01*
X86364511Y-122614511D01*
X86359762Y-122620700D01*
X86333865Y-122654450D01*
X86277874Y-122727418D01*
X86223412Y-122858901D01*
X86222395Y-122866627D01*
X86222394Y-122866630D01*
X86219286Y-122890238D01*
X86204836Y-123000000D01*
X85000000Y-123000000D01*
X85000000Y-122728959D01*
X85009058Y-122683420D01*
X85023605Y-122648301D01*
X85023605Y-122648300D01*
X85026588Y-122641099D01*
X85030089Y-122614511D01*
X85044146Y-122507732D01*
X85045164Y-122500000D01*
X85030675Y-122389945D01*
X85027606Y-122366630D01*
X85027605Y-122366627D01*
X85026588Y-122358901D01*
X85009058Y-122316580D01*
X85000000Y-122271041D01*
X85000000Y-121978959D01*
X85009058Y-121933420D01*
X85023605Y-121898301D01*
X85023605Y-121898300D01*
X85026588Y-121891099D01*
X85045164Y-121750000D01*
X85026588Y-121608901D01*
X85009058Y-121566580D01*
X85000000Y-121521041D01*
X85000000Y-121369000D01*
X85018891Y-121304664D01*
X85069566Y-121260754D01*
X85119000Y-121250000D01*
X89711070Y-121250000D01*
X89775406Y-121268891D01*
X89819316Y-121319566D01*
X89828859Y-121385935D01*
X89805479Y-121441442D01*
X89777874Y-121477418D01*
X89723412Y-121608901D01*
X89704836Y-121750000D01*
X89723412Y-121891099D01*
X89777874Y-122022582D01*
X89782620Y-122028767D01*
X89782621Y-122028769D01*
X89813658Y-122069217D01*
X89864511Y-122135489D01*
X89870700Y-122140238D01*
X89971231Y-122217379D01*
X89971233Y-122217380D01*
X89977418Y-122222126D01*
X90108901Y-122276588D01*
X90116627Y-122277605D01*
X90116630Y-122277606D01*
X90242268Y-122294146D01*
X90250000Y-122295164D01*
X90257732Y-122294146D01*
X90383370Y-122277606D01*
X90383373Y-122277605D01*
X90391099Y-122276588D01*
X90522582Y-122222126D01*
X90528767Y-122217380D01*
X90528769Y-122217379D01*
X90629300Y-122140238D01*
X90635489Y-122135489D01*
X90686342Y-122069217D01*
X90717379Y-122028769D01*
X90717380Y-122028767D01*
X90722126Y-122022582D01*
X90776588Y-121891099D01*
X90795164Y-121750000D01*
X90776588Y-121608901D01*
X90722126Y-121477418D01*
X90694521Y-121441442D01*
X90670343Y-121378902D01*
X90683815Y-121313217D01*
X90730660Y-121265243D01*
X90788930Y-121250000D01*
X91250000Y-121250000D01*
X92000000Y-120500000D01*
X93454836Y-120500000D01*
X93455854Y-120507732D01*
X93469912Y-120614511D01*
X93473412Y-120641099D01*
X93527874Y-120772582D01*
X93532620Y-120778767D01*
X93532621Y-120778769D01*
X93588583Y-120851699D01*
X93614511Y-120885489D01*
X93620700Y-120890238D01*
X93721231Y-120967379D01*
X93721233Y-120967380D01*
X93727418Y-120972126D01*
X93794712Y-121000000D01*
X93849230Y-121022582D01*
X93858901Y-121026588D01*
X93866627Y-121027605D01*
X93866630Y-121027606D01*
X93992268Y-121044146D01*
X94000000Y-121045164D01*
X94007732Y-121044146D01*
X94133370Y-121027606D01*
X94133373Y-121027605D01*
X94141099Y-121026588D01*
X94150771Y-121022582D01*
X94205288Y-121000000D01*
X94272582Y-120972126D01*
X94278767Y-120967380D01*
X94278769Y-120967379D01*
X94379300Y-120890238D01*
X94385489Y-120885489D01*
X94411417Y-120851699D01*
X94467379Y-120778769D01*
X94467380Y-120778767D01*
X94472126Y-120772582D01*
X94526588Y-120641099D01*
X94530089Y-120614511D01*
X94544146Y-120507732D01*
X94545164Y-120500000D01*
X94954836Y-120500000D01*
X94955854Y-120507732D01*
X94969912Y-120614511D01*
X94973412Y-120641099D01*
X95027874Y-120772582D01*
X95032620Y-120778767D01*
X95032621Y-120778769D01*
X95088583Y-120851699D01*
X95114511Y-120885489D01*
X95120700Y-120890238D01*
X95221231Y-120967379D01*
X95221233Y-120967380D01*
X95227418Y-120972126D01*
X95294712Y-121000000D01*
X95349230Y-121022582D01*
X95358901Y-121026588D01*
X95366627Y-121027605D01*
X95366630Y-121027606D01*
X95492268Y-121044146D01*
X95500000Y-121045164D01*
X95507732Y-121044146D01*
X95633370Y-121027606D01*
X95633373Y-121027605D01*
X95641099Y-121026588D01*
X95650771Y-121022582D01*
X95705288Y-121000000D01*
X95772582Y-120972126D01*
X95778767Y-120967380D01*
X95778769Y-120967379D01*
X95879300Y-120890238D01*
X95885489Y-120885489D01*
X95911417Y-120851699D01*
X95967379Y-120778769D01*
X95967380Y-120778767D01*
X95972126Y-120772582D01*
X96026588Y-120641099D01*
X96030089Y-120614511D01*
X96044146Y-120507732D01*
X96045164Y-120500000D01*
X96026588Y-120358901D01*
X95972126Y-120227418D01*
X95959906Y-120211492D01*
X95890238Y-120120700D01*
X95885489Y-120114511D01*
X95877368Y-120108280D01*
X95778769Y-120032621D01*
X95778767Y-120032620D01*
X95772582Y-120027874D01*
X95681930Y-119990325D01*
X95648301Y-119976395D01*
X95648300Y-119976395D01*
X95641099Y-119973412D01*
X95633373Y-119972395D01*
X95633370Y-119972394D01*
X95507732Y-119955854D01*
X95500000Y-119954836D01*
X95492268Y-119955854D01*
X95366630Y-119972394D01*
X95366627Y-119972395D01*
X95358901Y-119973412D01*
X95351700Y-119976395D01*
X95351699Y-119976395D01*
X95318070Y-119990325D01*
X95227418Y-120027874D01*
X95221233Y-120032620D01*
X95221231Y-120032621D01*
X95122632Y-120108280D01*
X95114511Y-120114511D01*
X95109762Y-120120700D01*
X95040095Y-120211492D01*
X95027874Y-120227418D01*
X94973412Y-120358901D01*
X94954836Y-120500000D01*
X94545164Y-120500000D01*
X94526588Y-120358901D01*
X94472126Y-120227418D01*
X94459906Y-120211492D01*
X94390238Y-120120700D01*
X94385489Y-120114511D01*
X94377368Y-120108280D01*
X94278769Y-120032621D01*
X94278767Y-120032620D01*
X94272582Y-120027874D01*
X94181930Y-119990325D01*
X94148301Y-119976395D01*
X94148300Y-119976395D01*
X94141099Y-119973412D01*
X94133373Y-119972395D01*
X94133370Y-119972394D01*
X94007732Y-119955854D01*
X94000000Y-119954836D01*
X93992268Y-119955854D01*
X93866630Y-119972394D01*
X93866627Y-119972395D01*
X93858901Y-119973412D01*
X93851700Y-119976395D01*
X93851699Y-119976395D01*
X93818070Y-119990325D01*
X93727418Y-120027874D01*
X93721233Y-120032620D01*
X93721231Y-120032621D01*
X93622632Y-120108280D01*
X93614511Y-120114511D01*
X93609762Y-120120700D01*
X93540095Y-120211492D01*
X93527874Y-120227418D01*
X93473412Y-120358901D01*
X93454836Y-120500000D01*
X92000000Y-120500000D01*
X95750000Y-116750000D01*
X95750000Y-85500000D01*
X103954836Y-85500000D01*
X103955854Y-85507732D01*
X103969912Y-85614511D01*
X103973412Y-85641099D01*
X104027874Y-85772582D01*
X104114511Y-85885489D01*
X104120700Y-85890238D01*
X104221231Y-85967379D01*
X104221233Y-85967380D01*
X104227418Y-85972126D01*
X104358901Y-86026588D01*
X104366627Y-86027605D01*
X104366630Y-86027606D01*
X104492268Y-86044146D01*
X104500000Y-86045164D01*
X104507732Y-86044146D01*
X104633370Y-86027606D01*
X104633373Y-86027605D01*
X104641099Y-86026588D01*
X104705288Y-86000000D01*
X123954836Y-86000000D01*
X123955854Y-86007732D01*
X123967014Y-86092498D01*
X123973412Y-86141099D01*
X124027874Y-86272582D01*
X124114511Y-86385489D01*
X124120700Y-86390238D01*
X124221231Y-86467379D01*
X124221233Y-86467380D01*
X124227418Y-86472126D01*
X124318070Y-86509675D01*
X124342166Y-86519656D01*
X124358901Y-86526588D01*
X124366627Y-86527605D01*
X124366630Y-86527606D01*
X124492268Y-86544146D01*
X124500000Y-86545164D01*
X124507732Y-86544146D01*
X124633370Y-86527606D01*
X124633373Y-86527605D01*
X124641099Y-86526588D01*
X124657835Y-86519656D01*
X124681930Y-86509675D01*
X124772582Y-86472126D01*
X124778767Y-86467380D01*
X124778769Y-86467379D01*
X124879300Y-86390238D01*
X124885489Y-86385489D01*
X124972126Y-86272582D01*
X125026588Y-86141099D01*
X125032987Y-86092498D01*
X125044146Y-86007732D01*
X125045164Y-86000000D01*
X125030714Y-85890238D01*
X125027606Y-85866630D01*
X125027605Y-85866627D01*
X125026588Y-85858901D01*
X124972126Y-85727418D01*
X124885489Y-85614511D01*
X124877368Y-85608280D01*
X124778769Y-85532621D01*
X124778767Y-85532620D01*
X124772582Y-85527874D01*
X124641099Y-85473412D01*
X124633373Y-85472395D01*
X124633370Y-85472394D01*
X124507732Y-85455854D01*
X124500000Y-85454836D01*
X124492268Y-85455854D01*
X124366630Y-85472394D01*
X124366627Y-85472395D01*
X124358901Y-85473412D01*
X124227418Y-85527874D01*
X124221233Y-85532620D01*
X124221231Y-85532621D01*
X124122632Y-85608280D01*
X124114511Y-85614511D01*
X124027874Y-85727418D01*
X123973412Y-85858901D01*
X123972395Y-85866627D01*
X123972394Y-85866630D01*
X123969286Y-85890238D01*
X123954836Y-86000000D01*
X104705288Y-86000000D01*
X104772582Y-85972126D01*
X104778767Y-85967380D01*
X104778769Y-85967379D01*
X104879300Y-85890238D01*
X104885489Y-85885489D01*
X104972126Y-85772582D01*
X105026588Y-85641099D01*
X105030089Y-85614511D01*
X105044146Y-85507732D01*
X105045164Y-85500000D01*
X105028917Y-85376588D01*
X105027606Y-85366630D01*
X105027605Y-85366627D01*
X105026588Y-85358901D01*
X104972126Y-85227418D01*
X104885489Y-85114511D01*
X104877368Y-85108280D01*
X104778769Y-85032621D01*
X104778767Y-85032620D01*
X104772582Y-85027874D01*
X104641099Y-84973412D01*
X104633373Y-84972395D01*
X104633370Y-84972394D01*
X104507732Y-84955854D01*
X104500000Y-84954836D01*
X104492268Y-84955854D01*
X104366630Y-84972394D01*
X104366627Y-84972395D01*
X104358901Y-84973412D01*
X104227418Y-85027874D01*
X104221233Y-85032620D01*
X104221231Y-85032621D01*
X104122632Y-85108280D01*
X104114511Y-85114511D01*
X104027874Y-85227418D01*
X103973412Y-85358901D01*
X103972395Y-85366627D01*
X103972394Y-85366630D01*
X103971083Y-85376588D01*
X103954836Y-85500000D01*
X95750000Y-85500000D01*
X95750000Y-84369000D01*
X95768891Y-84304664D01*
X95819566Y-84260754D01*
X95869000Y-84250000D01*
X122020500Y-84250000D01*
X122084836Y-84268891D01*
G37*
%TD.AperFunction*%
%TD*%
M02*
