%TF.GenerationSoftware,KiCad,Pcbnew,6.0.7-f9a2dced07~116~ubuntu20.04.1*%
%TF.CreationDate,2022-10-10T01:00:49-07:00*%
%TF.ProjectId,packaged-amp,7061636b-6167-4656-942d-616d702e6b69,rev?*%
%TF.SameCoordinates,Original*%
%TF.FileFunction,Paste,Top*%
%TF.FilePolarity,Positive*%
%FSLAX46Y46*%
G04 Gerber Fmt 4.6, Leading zero omitted, Abs format (unit mm)*
G04 Created by KiCad (PCBNEW 6.0.7-f9a2dced07~116~ubuntu20.04.1) date 2022-10-10 01:00:49*
%MOMM*%
%LPD*%
G01*
G04 APERTURE LIST*
G04 Aperture macros list*
%AMRoundRect*
0 Rectangle with rounded corners*
0 $1 Rounding radius*
0 $2 $3 $4 $5 $6 $7 $8 $9 X,Y pos of 4 corners*
0 Add a 4 corners polygon primitive as box body*
4,1,4,$2,$3,$4,$5,$6,$7,$8,$9,$2,$3,0*
0 Add four circle primitives for the rounded corners*
1,1,$1+$1,$2,$3*
1,1,$1+$1,$4,$5*
1,1,$1+$1,$6,$7*
1,1,$1+$1,$8,$9*
0 Add four rect primitives between the rounded corners*
20,1,$1+$1,$2,$3,$4,$5,0*
20,1,$1+$1,$4,$5,$6,$7,0*
20,1,$1+$1,$6,$7,$8,$9,0*
20,1,$1+$1,$8,$9,$2,$3,0*%
%AMFreePoly0*
4,1,7,1.950000,-0.020000,1.950000,-0.800000,-1.950000,-0.800000,-1.950000,-0.020000,-1.250000,0.800000,1.250000,0.800000,1.950000,-0.020000,1.950000,-0.020000,$1*%
%AMFreePoly1*
4,1,9,3.862500,-0.866500,0.737500,-0.866500,0.737500,-0.450000,-0.737500,-0.450000,-0.737500,0.450000,0.737500,0.450000,0.737500,0.866500,3.862500,0.866500,3.862500,-0.866500,3.862500,-0.866500,$1*%
G04 Aperture macros list end*
%ADD10R,2.000000X1.250000*%
%ADD11R,1.250000X2.000000*%
%ADD12R,0.700000X1.400000*%
%ADD13R,1.700000X1.000000*%
%ADD14RoundRect,0.225000X-0.250000X0.225000X-0.250000X-0.225000X0.250000X-0.225000X0.250000X0.225000X0*%
%ADD15RoundRect,0.200000X0.200000X0.275000X-0.200000X0.275000X-0.200000X-0.275000X0.200000X-0.275000X0*%
%ADD16RoundRect,0.218750X-0.218750X-0.381250X0.218750X-0.381250X0.218750X0.381250X-0.218750X0.381250X0*%
%ADD17RoundRect,0.150000X0.150000X-0.825000X0.150000X0.825000X-0.150000X0.825000X-0.150000X-0.825000X0*%
%ADD18RoundRect,0.225000X0.250000X-0.225000X0.250000X0.225000X-0.250000X0.225000X-0.250000X-0.225000X0*%
%ADD19RoundRect,0.250000X0.625000X-0.312500X0.625000X0.312500X-0.625000X0.312500X-0.625000X-0.312500X0*%
%ADD20R,0.500000X0.500000*%
%ADD21RoundRect,0.225000X0.225000X0.250000X-0.225000X0.250000X-0.225000X-0.250000X0.225000X-0.250000X0*%
%ADD22R,0.800000X0.900000*%
%ADD23R,2.000000X1.100000*%
%ADD24R,0.800000X0.800000*%
%ADD25RoundRect,0.250000X0.325000X0.650000X-0.325000X0.650000X-0.325000X-0.650000X0.325000X-0.650000X0*%
%ADD26RoundRect,0.250000X0.650000X-0.325000X0.650000X0.325000X-0.650000X0.325000X-0.650000X-0.325000X0*%
%ADD27RoundRect,0.200000X-0.275000X0.200000X-0.275000X-0.200000X0.275000X-0.200000X0.275000X0.200000X0*%
%ADD28FreePoly0,0.000000*%
%ADD29FreePoly0,180.000000*%
%ADD30RoundRect,0.250000X0.375000X0.625000X-0.375000X0.625000X-0.375000X-0.625000X0.375000X-0.625000X0*%
%ADD31RoundRect,0.225000X-0.225000X-0.250000X0.225000X-0.250000X0.225000X0.250000X-0.225000X0.250000X0*%
%ADD32RoundRect,0.250000X-0.925000X0.412500X-0.925000X-0.412500X0.925000X-0.412500X0.925000X0.412500X0*%
%ADD33RoundRect,0.200000X-0.200000X-0.275000X0.200000X-0.275000X0.200000X0.275000X-0.200000X0.275000X0*%
%ADD34RoundRect,0.250000X0.475000X-0.250000X0.475000X0.250000X-0.475000X0.250000X-0.475000X-0.250000X0*%
%ADD35RoundRect,0.200000X0.275000X-0.200000X0.275000X0.200000X-0.275000X0.200000X-0.275000X-0.200000X0*%
%ADD36RoundRect,0.250000X-0.325000X-0.650000X0.325000X-0.650000X0.325000X0.650000X-0.325000X0.650000X0*%
%ADD37R,0.900000X1.100000*%
%ADD38R,0.900000X1.400000*%
%ADD39RoundRect,0.250000X-0.450000X0.262500X-0.450000X-0.262500X0.450000X-0.262500X0.450000X0.262500X0*%
%ADD40RoundRect,0.250000X-0.625000X0.312500X-0.625000X-0.312500X0.625000X-0.312500X0.625000X0.312500X0*%
%ADD41RoundRect,0.250000X-0.650000X0.325000X-0.650000X-0.325000X0.650000X-0.325000X0.650000X0.325000X0*%
%ADD42RoundRect,0.250000X-0.412500X-0.925000X0.412500X-0.925000X0.412500X0.925000X-0.412500X0.925000X0*%
%ADD43RoundRect,0.250000X0.262500X0.450000X-0.262500X0.450000X-0.262500X-0.450000X0.262500X-0.450000X0*%
%ADD44R,1.300000X0.900000*%
%ADD45FreePoly1,0.000000*%
%ADD46RoundRect,0.218750X0.218750X0.381250X-0.218750X0.381250X-0.218750X-0.381250X0.218750X-0.381250X0*%
%ADD47FreePoly1,180.000000*%
%ADD48R,1.400000X0.900000*%
%ADD49RoundRect,0.150000X0.150000X-0.512500X0.150000X0.512500X-0.150000X0.512500X-0.150000X-0.512500X0*%
G04 APERTURE END LIST*
D10*
%TO.C,J2*%
X54500000Y-147500000D03*
D11*
X40950000Y-141250000D03*
D10*
X54500000Y-119000000D03*
D11*
X60050000Y-141250000D03*
X40950000Y-129250000D03*
X60050000Y-137250000D03*
X40950000Y-137250000D03*
D10*
X46500000Y-147500000D03*
D11*
X60050000Y-129250000D03*
X40950000Y-125250000D03*
D10*
X50500000Y-119000000D03*
X50500000Y-147500000D03*
X46500000Y-119000000D03*
D11*
X60050000Y-125250000D03*
%TD*%
D12*
%TO.C,L2*%
X68250000Y-117700000D03*
D13*
X67750000Y-118800000D03*
X67750000Y-120700000D03*
D12*
X68250000Y-121800000D03*
X64250000Y-117700000D03*
D13*
X64750000Y-118800000D03*
X64750000Y-120700000D03*
D12*
X64250000Y-121800000D03*
%TD*%
D14*
%TO.C,C5*%
X92000000Y-129975000D03*
X92000000Y-131525000D03*
%TD*%
D15*
%TO.C,R20*%
X79825000Y-139250000D03*
X78175000Y-139250000D03*
%TD*%
D16*
%TO.C,FB3*%
X54937500Y-133500000D03*
X57062500Y-133500000D03*
%TD*%
D17*
%TO.C,U1*%
X93595000Y-135475000D03*
X94865000Y-135475000D03*
X96135000Y-135475000D03*
X97405000Y-135475000D03*
X97405000Y-130525000D03*
X96135000Y-130525000D03*
X94865000Y-130525000D03*
X93595000Y-130525000D03*
%TD*%
D18*
%TO.C,C9*%
X83000000Y-150025000D03*
X83000000Y-148475000D03*
%TD*%
D19*
%TO.C,R1*%
X89750000Y-154712500D03*
X89750000Y-151787500D03*
%TD*%
D20*
%TO.C,D7*%
X77900000Y-135250000D03*
X80100000Y-135250000D03*
%TD*%
%TO.C,D1*%
X95350000Y-144250000D03*
X93150000Y-144250000D03*
%TD*%
D21*
%TO.C,C8*%
X98525000Y-146250000D03*
X96975000Y-146250000D03*
%TD*%
D22*
%TO.C,Q1*%
X73200000Y-138500000D03*
X71300000Y-138500000D03*
X72250000Y-140500000D03*
%TD*%
D23*
%TO.C,D4*%
X49900000Y-136750000D03*
D24*
X48000000Y-136750000D03*
%TD*%
D15*
%TO.C,R25*%
X73075000Y-137000000D03*
X71425000Y-137000000D03*
%TD*%
D25*
%TO.C,C31*%
X57225000Y-164250000D03*
X54275000Y-164250000D03*
%TD*%
D26*
%TO.C,C23*%
X46000000Y-138225000D03*
X46000000Y-135275000D03*
%TD*%
D27*
%TO.C,R10*%
X89000000Y-125675000D03*
X89000000Y-127325000D03*
%TD*%
%TO.C,R16*%
X56250000Y-126675000D03*
X56250000Y-128325000D03*
%TD*%
D21*
%TO.C,C14*%
X86775000Y-138500000D03*
X85225000Y-138500000D03*
%TD*%
D16*
%TO.C,FB4*%
X50187500Y-143000000D03*
X52312500Y-143000000D03*
%TD*%
D21*
%TO.C,C7*%
X98525000Y-144250000D03*
X96975000Y-144250000D03*
%TD*%
D27*
%TO.C,R32*%
X54250000Y-166425000D03*
X54250000Y-168075000D03*
%TD*%
D28*
%TO.C,L1*%
X47500000Y-130050000D03*
D29*
X47500000Y-132950000D03*
%TD*%
D25*
%TO.C,C30*%
X47475000Y-164250000D03*
X44525000Y-164250000D03*
%TD*%
D30*
%TO.C,F1*%
X67400000Y-125750000D03*
X64600000Y-125750000D03*
%TD*%
D15*
%TO.C,R21*%
X79825000Y-133250000D03*
X78175000Y-133250000D03*
%TD*%
D25*
%TO.C,C28*%
X47475000Y-154250000D03*
X44525000Y-154250000D03*
%TD*%
D15*
%TO.C,R23*%
X79825000Y-131500000D03*
X78175000Y-131500000D03*
%TD*%
D31*
%TO.C,C34*%
X78225000Y-129750000D03*
X79775000Y-129750000D03*
%TD*%
D20*
%TO.C,D9*%
X76850000Y-129500000D03*
X74650000Y-129500000D03*
%TD*%
D32*
%TO.C,C24*%
X55750000Y-135462500D03*
X55750000Y-138537500D03*
%TD*%
D33*
%TO.C,R26*%
X71425000Y-129250000D03*
X73075000Y-129250000D03*
%TD*%
D34*
%TO.C,C15*%
X94250000Y-140700000D03*
X94250000Y-138800000D03*
%TD*%
D35*
%TO.C,R15*%
X54750000Y-128325000D03*
X54750000Y-126675000D03*
%TD*%
D33*
%TO.C,R27*%
X74925000Y-133250000D03*
X76575000Y-133250000D03*
%TD*%
D14*
%TO.C,C12*%
X83250000Y-129975000D03*
X83250000Y-131525000D03*
%TD*%
D36*
%TO.C,C20*%
X49525000Y-127750000D03*
X52475000Y-127750000D03*
%TD*%
D33*
%TO.C,R22*%
X74925000Y-141000000D03*
X76575000Y-141000000D03*
%TD*%
D37*
%TO.C,RV1*%
X85100000Y-142600000D03*
D38*
X88400000Y-143750000D03*
D37*
X85100000Y-144900000D03*
%TD*%
D27*
%TO.C,R12*%
X83750000Y-125675000D03*
X83750000Y-127325000D03*
%TD*%
D33*
%TO.C,R5*%
X85175000Y-140250000D03*
X86825000Y-140250000D03*
%TD*%
D23*
%TO.C,D5*%
X48600000Y-138500000D03*
D24*
X50500000Y-138500000D03*
%TD*%
D27*
%TO.C,R6*%
X96250000Y-138675000D03*
X96250000Y-140325000D03*
%TD*%
D39*
%TO.C,R19*%
X71000000Y-110587500D03*
X71000000Y-112412500D03*
%TD*%
D34*
%TO.C,C18*%
X94750000Y-127700000D03*
X94750000Y-125800000D03*
%TD*%
D31*
%TO.C,C22*%
X54975000Y-130250000D03*
X56525000Y-130250000D03*
%TD*%
D40*
%TO.C,R13*%
X86750000Y-112787500D03*
X86750000Y-115712500D03*
%TD*%
D27*
%TO.C,R8*%
X101250000Y-138675000D03*
X101250000Y-140325000D03*
%TD*%
D41*
%TO.C,C25*%
X52750000Y-135275000D03*
X52750000Y-138225000D03*
%TD*%
D18*
%TO.C,C10*%
X81250000Y-150025000D03*
X81250000Y-148475000D03*
%TD*%
D27*
%TO.C,R31*%
X47500000Y-166425000D03*
X47500000Y-168075000D03*
%TD*%
D35*
%TO.C,R11*%
X85500000Y-127325000D03*
X85500000Y-125675000D03*
%TD*%
D20*
%TO.C,D6*%
X80100000Y-137250000D03*
X77900000Y-137250000D03*
%TD*%
D18*
%TO.C,C16*%
X99500000Y-140275000D03*
X99500000Y-138725000D03*
%TD*%
D42*
%TO.C,C26*%
X44962500Y-141250000D03*
X48037500Y-141250000D03*
%TD*%
D35*
%TO.C,R2*%
X88750000Y-140325000D03*
X88750000Y-138675000D03*
%TD*%
D27*
%TO.C,R30*%
X62250000Y-169925000D03*
X62250000Y-171575000D03*
%TD*%
D15*
%TO.C,R18*%
X56575000Y-131750000D03*
X54925000Y-131750000D03*
%TD*%
D35*
%TO.C,R9*%
X90750000Y-127325000D03*
X90750000Y-125675000D03*
%TD*%
D43*
%TO.C,R17*%
X46162500Y-127750000D03*
X44337500Y-127750000D03*
%TD*%
D44*
%TO.C,U5*%
X54100000Y-157750000D03*
D45*
X54187500Y-159250000D03*
D44*
X54100000Y-160750000D03*
%TD*%
D14*
%TO.C,C6*%
X99000000Y-134475000D03*
X99000000Y-136025000D03*
%TD*%
D35*
%TO.C,R3*%
X90500000Y-140325000D03*
X90500000Y-138675000D03*
%TD*%
D14*
%TO.C,C21*%
X44250000Y-130975000D03*
X44250000Y-132525000D03*
%TD*%
D46*
%TO.C,FB5*%
X56562500Y-124462500D03*
X54437500Y-124462500D03*
%TD*%
D23*
%TO.C,D3*%
X49900000Y-135000000D03*
D24*
X48000000Y-135000000D03*
%TD*%
D15*
%TO.C,R24*%
X76575000Y-139250000D03*
X74925000Y-139250000D03*
%TD*%
D25*
%TO.C,C27*%
X52975000Y-140750000D03*
X50025000Y-140750000D03*
%TD*%
D36*
%TO.C,C29*%
X54275000Y-154250000D03*
X57225000Y-154250000D03*
%TD*%
D27*
%TO.C,R28*%
X60000000Y-169925000D03*
X60000000Y-171575000D03*
%TD*%
D17*
%TO.C,U2*%
X84845000Y-135475000D03*
X86115000Y-135475000D03*
X87385000Y-135475000D03*
X88655000Y-135475000D03*
X88655000Y-130525000D03*
X87385000Y-130525000D03*
X86115000Y-130525000D03*
X84845000Y-130525000D03*
%TD*%
D27*
%TO.C,R7*%
X97750000Y-138675000D03*
X97750000Y-140325000D03*
%TD*%
D31*
%TO.C,C33*%
X78225000Y-141000000D03*
X79775000Y-141000000D03*
%TD*%
D42*
%TO.C,C32*%
X49462500Y-124500000D03*
X52537500Y-124500000D03*
%TD*%
D44*
%TO.C,U4*%
X47650000Y-160750000D03*
D47*
X47562500Y-159250000D03*
D44*
X47650000Y-157750000D03*
%TD*%
D22*
%TO.C,Q2*%
X73200000Y-130750000D03*
X71300000Y-130750000D03*
X72250000Y-132750000D03*
%TD*%
D15*
%TO.C,R29*%
X76575000Y-131500000D03*
X74925000Y-131500000D03*
%TD*%
D27*
%TO.C,R4*%
X92250000Y-138675000D03*
X92250000Y-140325000D03*
%TD*%
D48*
%TO.C,C11*%
X86000000Y-151700000D03*
X86000000Y-147800000D03*
%TD*%
D18*
%TO.C,C19*%
X87250000Y-127275000D03*
X87250000Y-125725000D03*
%TD*%
D49*
%TO.C,U3*%
X51300000Y-132887500D03*
X52250000Y-132887500D03*
X53200000Y-132887500D03*
X53200000Y-130612500D03*
X51300000Y-130612500D03*
%TD*%
D27*
%TO.C,R14*%
X83500000Y-138425000D03*
X83500000Y-140075000D03*
%TD*%
D20*
%TO.C,D2*%
X93150000Y-146500000D03*
X95350000Y-146500000D03*
%TD*%
D18*
%TO.C,C1*%
X79500000Y-150025000D03*
X79500000Y-148475000D03*
%TD*%
D34*
%TO.C,C17*%
X92750000Y-127700000D03*
X92750000Y-125800000D03*
%TD*%
D14*
%TO.C,C13*%
X90250000Y-134475000D03*
X90250000Y-136025000D03*
%TD*%
D20*
%TO.C,D8*%
X74650000Y-137250000D03*
X76850000Y-137250000D03*
%TD*%
M02*
