%TF.GenerationSoftware,KiCad,Pcbnew,6.0.7-f9a2dced07~116~ubuntu20.04.1*%
%TF.CreationDate,2022-10-10T17:06:21-07:00*%
%TF.ProjectId,packaged-amp,7061636b-6167-4656-942d-616d702e6b69,rev?*%
%TF.SameCoordinates,Original*%
%TF.FileFunction,Legend,Bot*%
%TF.FilePolarity,Positive*%
%FSLAX46Y46*%
G04 Gerber Fmt 4.6, Leading zero omitted, Abs format (unit mm)*
G04 Created by KiCad (PCBNEW 6.0.7-f9a2dced07~116~ubuntu20.04.1) date 2022-10-10 17:06:21*
%MOMM*%
%LPD*%
G01*
G04 APERTURE LIST*
%ADD10C,0.150000*%
G04 APERTURE END LIST*
D10*
X65369047Y-99452380D02*
X65369047Y-100166666D01*
X65416666Y-100309523D01*
X65511904Y-100404761D01*
X65654761Y-100452380D01*
X65750000Y-100452380D01*
X64416666Y-100452380D02*
X64892857Y-100452380D01*
X64892857Y-99452380D01*
X63511904Y-100357142D02*
X63559523Y-100404761D01*
X63702380Y-100452380D01*
X63797619Y-100452380D01*
X63940476Y-100404761D01*
X64035714Y-100309523D01*
X64083333Y-100214285D01*
X64130952Y-100023809D01*
X64130952Y-99880952D01*
X64083333Y-99690476D01*
X64035714Y-99595238D01*
X63940476Y-99500000D01*
X63797619Y-99452380D01*
X63702380Y-99452380D01*
X63559523Y-99500000D01*
X63511904Y-99547619D01*
X62797619Y-99452380D02*
X62797619Y-100166666D01*
X62845238Y-100309523D01*
X62940476Y-100404761D01*
X63083333Y-100452380D01*
X63178571Y-100452380D01*
X61845238Y-100452380D02*
X62321428Y-100452380D01*
X62321428Y-99452380D01*
X60940476Y-100357142D02*
X60988095Y-100404761D01*
X61130952Y-100452380D01*
X61226190Y-100452380D01*
X61369047Y-100404761D01*
X61464285Y-100309523D01*
X61511904Y-100214285D01*
X61559523Y-100023809D01*
X61559523Y-99880952D01*
X61511904Y-99690476D01*
X61464285Y-99595238D01*
X61369047Y-99500000D01*
X61226190Y-99452380D01*
X61130952Y-99452380D01*
X60988095Y-99500000D01*
X60940476Y-99547619D01*
X60226190Y-99452380D02*
X60226190Y-100166666D01*
X60273809Y-100309523D01*
X60369047Y-100404761D01*
X60511904Y-100452380D01*
X60607142Y-100452380D01*
X59273809Y-100452380D02*
X59750000Y-100452380D01*
X59750000Y-99452380D01*
X58369047Y-100357142D02*
X58416666Y-100404761D01*
X58559523Y-100452380D01*
X58654761Y-100452380D01*
X58797619Y-100404761D01*
X58892857Y-100309523D01*
X58940476Y-100214285D01*
X58988095Y-100023809D01*
X58988095Y-99880952D01*
X58940476Y-99690476D01*
X58892857Y-99595238D01*
X58797619Y-99500000D01*
X58654761Y-99452380D01*
X58559523Y-99452380D01*
X58416666Y-99500000D01*
X58369047Y-99547619D01*
X57654761Y-99452380D02*
X57654761Y-100166666D01*
X57702380Y-100309523D01*
X57797619Y-100404761D01*
X57940476Y-100452380D01*
X58035714Y-100452380D01*
X56702380Y-100452380D02*
X57178571Y-100452380D01*
X57178571Y-99452380D01*
X55797619Y-100357142D02*
X55845238Y-100404761D01*
X55988095Y-100452380D01*
X56083333Y-100452380D01*
X56226190Y-100404761D01*
X56321428Y-100309523D01*
X56369047Y-100214285D01*
X56416666Y-100023809D01*
X56416666Y-99880952D01*
X56369047Y-99690476D01*
X56321428Y-99595238D01*
X56226190Y-99500000D01*
X56083333Y-99452380D01*
X55988095Y-99452380D01*
X55845238Y-99500000D01*
X55797619Y-99547619D01*
X71392857Y-98452380D02*
X71726190Y-97976190D01*
X71964285Y-98452380D02*
X71964285Y-97452380D01*
X71583333Y-97452380D01*
X71488095Y-97500000D01*
X71440476Y-97547619D01*
X71392857Y-97642857D01*
X71392857Y-97785714D01*
X71440476Y-97880952D01*
X71488095Y-97928571D01*
X71583333Y-97976190D01*
X71964285Y-97976190D01*
X70821428Y-98452380D02*
X70916666Y-98404761D01*
X70964285Y-98357142D01*
X71011904Y-98261904D01*
X71011904Y-97976190D01*
X70964285Y-97880952D01*
X70916666Y-97833333D01*
X70821428Y-97785714D01*
X70678571Y-97785714D01*
X70583333Y-97833333D01*
X70535714Y-97880952D01*
X70488095Y-97976190D01*
X70488095Y-98261904D01*
X70535714Y-98357142D01*
X70583333Y-98404761D01*
X70678571Y-98452380D01*
X70821428Y-98452380D01*
X69630952Y-97785714D02*
X69630952Y-98595238D01*
X69678571Y-98690476D01*
X69726190Y-98738095D01*
X69821428Y-98785714D01*
X69964285Y-98785714D01*
X70059523Y-98738095D01*
X69630952Y-98404761D02*
X69726190Y-98452380D01*
X69916666Y-98452380D01*
X70011904Y-98404761D01*
X70059523Y-98357142D01*
X70107142Y-98261904D01*
X70107142Y-97976190D01*
X70059523Y-97880952D01*
X70011904Y-97833333D01*
X69916666Y-97785714D01*
X69726190Y-97785714D01*
X69630952Y-97833333D01*
X69011904Y-98452380D02*
X69107142Y-98404761D01*
X69154761Y-98357142D01*
X69202380Y-98261904D01*
X69202380Y-97976190D01*
X69154761Y-97880952D01*
X69107142Y-97833333D01*
X69011904Y-97785714D01*
X68869047Y-97785714D01*
X68773809Y-97833333D01*
X68726190Y-97880952D01*
X68678571Y-97976190D01*
X68678571Y-98261904D01*
X68726190Y-98357142D01*
X68773809Y-98404761D01*
X68869047Y-98452380D01*
X69011904Y-98452380D01*
X68345238Y-97785714D02*
X68154761Y-98452380D01*
X67964285Y-97976190D01*
X67773809Y-98452380D01*
X67583333Y-97785714D01*
X67250000Y-98404761D02*
X67154761Y-98452380D01*
X66964285Y-98452380D01*
X66869047Y-98404761D01*
X66821428Y-98309523D01*
X66821428Y-98261904D01*
X66869047Y-98166666D01*
X66964285Y-98119047D01*
X67107142Y-98119047D01*
X67202380Y-98071428D01*
X67250000Y-97976190D01*
X67250000Y-97928571D01*
X67202380Y-97833333D01*
X67107142Y-97785714D01*
X66964285Y-97785714D01*
X66869047Y-97833333D01*
X66392857Y-98452380D02*
X66392857Y-97452380D01*
X66297619Y-98071428D02*
X66011904Y-98452380D01*
X66011904Y-97785714D02*
X66392857Y-98166666D01*
X65583333Y-98452380D02*
X65583333Y-97785714D01*
X65583333Y-97452380D02*
X65630952Y-97500000D01*
X65583333Y-97547619D01*
X65535714Y-97500000D01*
X65583333Y-97452380D01*
X65583333Y-97547619D01*
X63773809Y-98357142D02*
X63821428Y-98404761D01*
X63964285Y-98452380D01*
X64059523Y-98452380D01*
X64202380Y-98404761D01*
X64297619Y-98309523D01*
X64345238Y-98214285D01*
X64392857Y-98023809D01*
X64392857Y-97880952D01*
X64345238Y-97690476D01*
X64297619Y-97595238D01*
X64202380Y-97500000D01*
X64059523Y-97452380D01*
X63964285Y-97452380D01*
X63821428Y-97500000D01*
X63773809Y-97547619D01*
X63202380Y-98452380D02*
X63297619Y-98404761D01*
X63345238Y-98357142D01*
X63392857Y-98261904D01*
X63392857Y-97976190D01*
X63345238Y-97880952D01*
X63297619Y-97833333D01*
X63202380Y-97785714D01*
X63059523Y-97785714D01*
X62964285Y-97833333D01*
X62916666Y-97880952D01*
X62869047Y-97976190D01*
X62869047Y-98261904D01*
X62916666Y-98357142D01*
X62964285Y-98404761D01*
X63059523Y-98452380D01*
X63202380Y-98452380D01*
X62440476Y-98452380D02*
X62440476Y-97785714D01*
X62440476Y-97452380D02*
X62488095Y-97500000D01*
X62440476Y-97547619D01*
X62392857Y-97500000D01*
X62440476Y-97452380D01*
X62440476Y-97547619D01*
X61821428Y-98452380D02*
X61916666Y-98404761D01*
X61964285Y-98309523D01*
X61964285Y-97452380D01*
X60726190Y-98166666D02*
X60250000Y-98166666D01*
X60821428Y-98452380D02*
X60488095Y-97452380D01*
X60154761Y-98452380D01*
X59821428Y-98452380D02*
X59821428Y-97785714D01*
X59821428Y-97880952D02*
X59773809Y-97833333D01*
X59678571Y-97785714D01*
X59535714Y-97785714D01*
X59440476Y-97833333D01*
X59392857Y-97928571D01*
X59392857Y-98452380D01*
X59392857Y-97928571D02*
X59345238Y-97833333D01*
X59250000Y-97785714D01*
X59107142Y-97785714D01*
X59011904Y-97833333D01*
X58964285Y-97928571D01*
X58964285Y-98452380D01*
X58488095Y-97785714D02*
X58488095Y-98785714D01*
X58488095Y-97833333D02*
X58392857Y-97785714D01*
X58202380Y-97785714D01*
X58107142Y-97833333D01*
X58059523Y-97880952D01*
X58011904Y-97976190D01*
X58011904Y-98261904D01*
X58059523Y-98357142D01*
X58107142Y-98404761D01*
X58202380Y-98452380D01*
X58392857Y-98452380D01*
X58488095Y-98404761D01*
X57440476Y-98452380D02*
X57535714Y-98404761D01*
X57583333Y-98309523D01*
X57583333Y-97452380D01*
X57059523Y-98452380D02*
X57059523Y-97785714D01*
X57059523Y-97452380D02*
X57107142Y-97500000D01*
X57059523Y-97547619D01*
X57011904Y-97500000D01*
X57059523Y-97452380D01*
X57059523Y-97547619D01*
X56726190Y-97785714D02*
X56345238Y-97785714D01*
X56583333Y-98452380D02*
X56583333Y-97595238D01*
X56535714Y-97500000D01*
X56440476Y-97452380D01*
X56345238Y-97452380D01*
X56011904Y-98452380D02*
X56011904Y-97785714D01*
X56011904Y-97452380D02*
X56059523Y-97500000D01*
X56011904Y-97547619D01*
X55964285Y-97500000D01*
X56011904Y-97452380D01*
X56011904Y-97547619D01*
X55154761Y-98404761D02*
X55250000Y-98452380D01*
X55440476Y-98452380D01*
X55535714Y-98404761D01*
X55583333Y-98309523D01*
X55583333Y-97928571D01*
X55535714Y-97833333D01*
X55440476Y-97785714D01*
X55250000Y-97785714D01*
X55154761Y-97833333D01*
X55107142Y-97928571D01*
X55107142Y-98023809D01*
X55583333Y-98119047D01*
X54678571Y-98452380D02*
X54678571Y-97785714D01*
X54678571Y-97976190D02*
X54630952Y-97880952D01*
X54583333Y-97833333D01*
X54488095Y-97785714D01*
X54392857Y-97785714D01*
X53440476Y-97452380D02*
X53107142Y-98452380D01*
X52773809Y-97452380D01*
X51916666Y-98452380D02*
X52488095Y-98452380D01*
X52202380Y-98452380D02*
X52202380Y-97452380D01*
X52297619Y-97595238D01*
X52392857Y-97690476D01*
X52488095Y-97738095D01*
X51488095Y-98357142D02*
X51440476Y-98404761D01*
X51488095Y-98452380D01*
X51535714Y-98404761D01*
X51488095Y-98357142D01*
X51488095Y-98452380D01*
X50821428Y-97452380D02*
X50726190Y-97452380D01*
X50630952Y-97500000D01*
X50583333Y-97547619D01*
X50535714Y-97642857D01*
X50488095Y-97833333D01*
X50488095Y-98071428D01*
X50535714Y-98261904D01*
X50583333Y-98357142D01*
X50630952Y-98404761D01*
X50726190Y-98452380D01*
X50821428Y-98452380D01*
X50916666Y-98404761D01*
X50964285Y-98357142D01*
X51011904Y-98261904D01*
X51059523Y-98071428D01*
X51059523Y-97833333D01*
X51011904Y-97642857D01*
X50964285Y-97547619D01*
X50916666Y-97500000D01*
X50821428Y-97452380D01*
M02*
