%TF.GenerationSoftware,KiCad,Pcbnew,6.0.7-f9a2dced07~116~ubuntu20.04.1*%
%TF.CreationDate,2022-10-10T01:00:49-07:00*%
%TF.ProjectId,packaged-amp,7061636b-6167-4656-942d-616d702e6b69,rev?*%
%TF.SameCoordinates,Original*%
%TF.FileFunction,Copper,L2,Inr*%
%TF.FilePolarity,Positive*%
%FSLAX46Y46*%
G04 Gerber Fmt 4.6, Leading zero omitted, Abs format (unit mm)*
G04 Created by KiCad (PCBNEW 6.0.7-f9a2dced07~116~ubuntu20.04.1) date 2022-10-10 01:00:49*
%MOMM*%
%LPD*%
G01*
G04 APERTURE LIST*
%TA.AperFunction,ComponentPad*%
%ADD10C,2.000000*%
%TD*%
%TA.AperFunction,ComponentPad*%
%ADD11C,1.800000*%
%TD*%
%TA.AperFunction,ComponentPad*%
%ADD12O,1.500000X3.000000*%
%TD*%
%TA.AperFunction,ComponentPad*%
%ADD13R,1.700000X1.700000*%
%TD*%
%TA.AperFunction,ComponentPad*%
%ADD14C,1.700000*%
%TD*%
%TA.AperFunction,ComponentPad*%
%ADD15C,3.500000*%
%TD*%
%TA.AperFunction,ComponentPad*%
%ADD16C,2.250000*%
%TD*%
%TA.AperFunction,ViaPad*%
%ADD17C,0.600000*%
%TD*%
G04 APERTURE END LIST*
D10*
%TO.N,Net-(F1-Pad2)*%
%TO.C,TP14*%
X66000000Y-129750000D03*
%TD*%
D11*
%TO.N,Net-(R28-Pad2)*%
%TO.C,D10*%
X61020000Y-175460000D03*
%TO.N,VDD*%
X58480000Y-175460000D03*
%TO.N,Net-(R30-Pad2)*%
X61020000Y-178000000D03*
%TO.N,VDD*%
X58480000Y-178000000D03*
%TD*%
D12*
%TO.N,GND*%
%TO.C,J2*%
X40950000Y-133250000D03*
X60050000Y-133250000D03*
%TD*%
D10*
%TO.N,VDD*%
%TO.C,TP9*%
X42500000Y-168000000D03*
%TD*%
%TO.N,Net-(R12-Pad1)*%
%TO.C,TP8*%
X84250000Y-121500000D03*
%TD*%
%TO.N,GND*%
%TO.C,TP4*%
X41500000Y-151750000D03*
%TD*%
%TO.N,GND*%
%TO.C,TP7*%
X79750000Y-116000000D03*
%TD*%
%TO.N,GND*%
%TO.C,TP5*%
X102250000Y-120500000D03*
%TD*%
D13*
%TO.N,Net-(J8-Pad1)*%
%TO.C,J8*%
X60250000Y-110577500D03*
D14*
%TO.N,unconnected-(J8-Pad2)*%
X62750000Y-110577500D03*
%TO.N,unconnected-(J8-Pad3)*%
X62750000Y-108577500D03*
%TO.N,Net-(J8-Pad4)*%
X60250000Y-108577500D03*
D15*
%TO.N,Net-(J8-Pad5)*%
X67520000Y-105867500D03*
X55480000Y-105867500D03*
%TD*%
D10*
%TO.N,VSS*%
%TO.C,TP10*%
X51000000Y-168000000D03*
%TD*%
%TO.N,/int_out*%
%TO.C,TP3*%
X79750000Y-125500000D03*
%TD*%
%TO.N,GND*%
%TO.C,TP6*%
X101250000Y-150000000D03*
%TD*%
%TO.N,Net-(C1-Pad1)*%
%TO.C,TP1*%
X94500000Y-152000000D03*
%TD*%
%TO.N,Net-(C15-Pad1)*%
%TO.C,TP2*%
X101000000Y-131000000D03*
%TD*%
D16*
%TO.N,Net-(J7-Pad1)*%
%TO.C,J7*%
X89750000Y-101500000D03*
%TO.N,GND*%
X87210000Y-98960000D03*
X87210000Y-104040000D03*
X92290000Y-104040000D03*
X92290000Y-98960000D03*
%TD*%
D17*
%TO.N,GND*%
X103700000Y-169800000D03*
X65500000Y-141000000D03*
X70350000Y-143850000D03*
X66300000Y-147450000D03*
X63600000Y-164700000D03*
X56200000Y-171850000D03*
X66000000Y-179450000D03*
X65800000Y-175650000D03*
%TO.N,VSS*%
X62250000Y-169150000D03*
%TO.N,VDD*%
X92000000Y-129200000D03*
X79800000Y-141900000D03*
X47500000Y-168850000D03*
X71400000Y-136150000D03*
X96975000Y-143425000D03*
X74900000Y-141850000D03*
X83250000Y-129200000D03*
X46650000Y-168050000D03*
%TO.N,GND*%
X83750000Y-109000000D03*
X47250000Y-99250000D03*
X99500000Y-137900000D03*
X85500000Y-124950000D03*
X95750000Y-167250000D03*
X63250000Y-137250000D03*
X47250000Y-117250000D03*
X52300000Y-130250000D03*
X99300000Y-144250000D03*
X58000000Y-121000000D03*
X43750000Y-157750000D03*
X90000000Y-124250000D03*
X54000000Y-139250000D03*
X52400000Y-126400000D03*
X39250000Y-139750000D03*
X75750000Y-107750000D03*
X90750000Y-128050000D03*
X90500000Y-120750000D03*
X43750000Y-160750000D03*
X47500000Y-149750000D03*
X98750000Y-156500000D03*
X77000000Y-144500000D03*
X44750000Y-159250000D03*
X67000000Y-132250000D03*
X99300000Y-146250000D03*
X52300000Y-131100000D03*
X45500000Y-160750000D03*
X90250000Y-133700000D03*
X102000000Y-134500000D03*
X105750000Y-128250000D03*
X84000000Y-166500000D03*
X54250000Y-137250000D03*
X61250000Y-118250000D03*
X55750000Y-140250000D03*
X41000000Y-108250000D03*
X87250000Y-124950000D03*
X57250000Y-117250000D03*
X40250000Y-112750000D03*
X56250000Y-125900000D03*
X92000000Y-132300000D03*
X46000000Y-144250000D03*
X39750000Y-147750000D03*
X50500000Y-117250000D03*
X43250000Y-135500000D03*
X82750000Y-114750000D03*
X73250000Y-158750000D03*
X103250000Y-124250000D03*
X105000000Y-140750000D03*
X104500000Y-111750000D03*
X63250000Y-144250000D03*
X62000000Y-129250000D03*
X98750000Y-127000000D03*
X39500000Y-136250000D03*
X72750000Y-151500000D03*
X53250000Y-137250000D03*
X43250000Y-138250000D03*
X81000000Y-166500000D03*
X45500000Y-157750000D03*
X43000000Y-120750000D03*
X71000000Y-113500000D03*
X83000000Y-135500000D03*
X84150000Y-144900000D03*
X42500000Y-125500000D03*
X43250000Y-145250000D03*
X62250000Y-140750000D03*
X63000000Y-132500000D03*
X98000000Y-124500000D03*
X96250000Y-141050000D03*
X57500000Y-145000000D03*
X91250000Y-116750000D03*
X90500000Y-141050000D03*
X52350000Y-131900000D03*
X81000000Y-169500000D03*
X43500000Y-142000000D03*
X84000000Y-169500000D03*
X55500000Y-115250000D03*
X72500000Y-102250000D03*
X99000000Y-133700000D03*
X51500000Y-137000000D03*
X39500000Y-124500000D03*
X43500000Y-140750000D03*
X62250000Y-149250000D03*
X101250000Y-137750000D03*
X53400000Y-127800000D03*
X47250000Y-145000000D03*
X102000000Y-143250000D03*
X83250000Y-132300000D03*
X53350000Y-126400000D03*
X91500000Y-160750000D03*
X54000000Y-117250000D03*
X58000000Y-127750000D03*
X51500000Y-103500000D03*
X44500000Y-117250000D03*
X55000000Y-143000000D03*
X52500000Y-137250000D03*
X44500000Y-149250000D03*
X46000000Y-159250000D03*
X77000000Y-99500000D03*
X97400000Y-129200000D03*
X106250000Y-134750000D03*
X40000000Y-158750000D03*
X51750000Y-139500000D03*
X54500000Y-140750000D03*
X62500000Y-122000000D03*
X72500000Y-118000000D03*
X72500000Y-169500000D03*
X50000000Y-156000000D03*
X72750000Y-146500000D03*
X43000000Y-123750000D03*
%TO.N,VSS*%
X55150000Y-168100000D03*
X54250000Y-168850000D03*
X97000000Y-147050000D03*
X79750000Y-128900000D03*
X99000000Y-136800000D03*
X90250000Y-136800000D03*
X71400000Y-128400000D03*
%TO.N,/int_out*%
X97750000Y-141150000D03*
X89950000Y-132150000D03*
%TO.N,Net-(C28-Pad1)*%
X51450000Y-145300000D03*
X51450000Y-149550000D03*
%TO.N,Net-(C29-Pad2)*%
X55750000Y-157750000D03*
X57000000Y-159250000D03*
X55750000Y-159250000D03*
X55750000Y-161000000D03*
X57000000Y-161000000D03*
X57250000Y-152700000D03*
X57000000Y-157750000D03*
X53300000Y-143000000D03*
%TO.N,Net-(F1-Pad2)*%
X63550000Y-125750000D03*
X57550000Y-124500000D03*
%TO.N,Net-(C1-Pad1)*%
X92300000Y-142250000D03*
X87400000Y-136950000D03*
%TO.N,/return_kelvin*%
X84000000Y-163500000D03*
X81000000Y-163500000D03*
X81000000Y-160500000D03*
X84000000Y-160500000D03*
%TO.N,Net-(R1-Pad1)*%
X84000000Y-157500000D03*
X84000000Y-154500000D03*
X81000000Y-157500000D03*
X81000000Y-154500000D03*
%TD*%
%TA.AperFunction,Conductor*%
%TO.N,GND*%
G36*
X99624836Y-96839391D02*
G01*
X99668746Y-96890066D01*
X99679500Y-96939500D01*
X99679500Y-105556513D01*
X99685680Y-105573493D01*
X99691047Y-105593525D01*
X99694183Y-105611308D01*
X99699389Y-105620325D01*
X99703211Y-105626945D01*
X99711978Y-105645745D01*
X99718157Y-105662722D01*
X99724847Y-105670694D01*
X99724848Y-105670697D01*
X99729765Y-105676556D01*
X99741663Y-105693548D01*
X99745489Y-105700176D01*
X99745492Y-105700180D01*
X99750695Y-105709191D01*
X99764534Y-105720803D01*
X99779197Y-105735466D01*
X99790809Y-105749305D01*
X99799820Y-105754508D01*
X99799824Y-105754511D01*
X99806452Y-105758337D01*
X99823444Y-105770235D01*
X99829303Y-105775152D01*
X99829306Y-105775153D01*
X99837278Y-105781843D01*
X99847059Y-105785403D01*
X99854255Y-105788022D01*
X99873054Y-105796789D01*
X99888692Y-105805817D01*
X99904918Y-105808678D01*
X99906475Y-105808953D01*
X99926507Y-105814320D01*
X99943487Y-105820500D01*
X107060500Y-105820500D01*
X107124836Y-105839391D01*
X107168746Y-105890066D01*
X107179500Y-105939500D01*
X107179500Y-173060500D01*
X107160609Y-173124836D01*
X107109934Y-173168746D01*
X107060500Y-173179500D01*
X99943487Y-173179500D01*
X99926507Y-173185680D01*
X99906474Y-173191047D01*
X99888692Y-173194183D01*
X99879675Y-173199389D01*
X99873055Y-173203211D01*
X99854255Y-173211978D01*
X99837278Y-173218157D01*
X99829306Y-173224847D01*
X99829303Y-173224848D01*
X99823444Y-173229765D01*
X99806452Y-173241663D01*
X99799824Y-173245489D01*
X99799820Y-173245492D01*
X99790809Y-173250695D01*
X99779197Y-173264534D01*
X99764534Y-173279197D01*
X99750695Y-173290809D01*
X99745492Y-173299820D01*
X99745489Y-173299824D01*
X99741663Y-173306452D01*
X99729765Y-173323444D01*
X99724848Y-173329303D01*
X99724847Y-173329306D01*
X99718157Y-173337278D01*
X99714597Y-173347059D01*
X99711978Y-173354255D01*
X99703211Y-173373054D01*
X99694183Y-173388692D01*
X99692375Y-173398946D01*
X99691047Y-173406475D01*
X99685680Y-173426507D01*
X99679500Y-173443487D01*
X99679500Y-182060500D01*
X99660609Y-182124836D01*
X99609934Y-182168746D01*
X99560500Y-182179500D01*
X88939500Y-182179500D01*
X88875164Y-182160609D01*
X88831254Y-182109934D01*
X88820500Y-182060500D01*
X88820500Y-176965000D01*
X91129521Y-176965000D01*
X91149416Y-177268536D01*
X91208760Y-177566878D01*
X91210009Y-177570558D01*
X91210010Y-177570561D01*
X91276485Y-177766388D01*
X91306538Y-177854922D01*
X91441076Y-178127739D01*
X91610073Y-178380662D01*
X91810638Y-178609362D01*
X92039338Y-178809927D01*
X92292260Y-178978924D01*
X92295758Y-178980649D01*
X92463193Y-179063218D01*
X92565078Y-179113462D01*
X92568759Y-179114712D01*
X92568765Y-179114714D01*
X92849439Y-179209990D01*
X92849442Y-179209991D01*
X92853122Y-179211240D01*
X92856936Y-179211999D01*
X92856941Y-179212000D01*
X93055143Y-179251425D01*
X93151464Y-179270584D01*
X93455000Y-179290479D01*
X93758536Y-179270584D01*
X93854857Y-179251425D01*
X94053059Y-179212000D01*
X94053064Y-179211999D01*
X94056878Y-179211240D01*
X94060558Y-179209991D01*
X94060561Y-179209990D01*
X94341235Y-179114714D01*
X94341241Y-179114712D01*
X94344922Y-179113462D01*
X94446808Y-179063218D01*
X94614242Y-178980649D01*
X94617740Y-178978924D01*
X94870662Y-178809927D01*
X95099362Y-178609362D01*
X95299927Y-178380662D01*
X95468924Y-178127739D01*
X95603462Y-177854922D01*
X95633516Y-177766388D01*
X95699990Y-177570561D01*
X95699991Y-177570558D01*
X95701240Y-177566878D01*
X95760584Y-177268536D01*
X95780479Y-176965000D01*
X95760584Y-176661464D01*
X95732055Y-176518039D01*
X95702000Y-176366941D01*
X95701999Y-176366936D01*
X95701240Y-176363122D01*
X95603462Y-176075078D01*
X95468924Y-175802261D01*
X95466292Y-175798321D01*
X95378926Y-175667569D01*
X95299927Y-175549338D01*
X95099362Y-175320638D01*
X94870662Y-175120073D01*
X94617740Y-174951076D01*
X94407543Y-174847419D01*
X94348416Y-174818261D01*
X94344922Y-174816538D01*
X94341241Y-174815288D01*
X94341235Y-174815286D01*
X94060561Y-174720010D01*
X94060558Y-174720009D01*
X94056878Y-174718760D01*
X94053064Y-174718001D01*
X94053059Y-174718000D01*
X93824218Y-174672481D01*
X93758536Y-174659416D01*
X93455000Y-174639521D01*
X93151464Y-174659416D01*
X93085782Y-174672481D01*
X92856941Y-174718000D01*
X92856936Y-174718001D01*
X92853122Y-174718760D01*
X92849442Y-174720009D01*
X92849439Y-174720010D01*
X92568765Y-174815286D01*
X92568759Y-174815288D01*
X92565078Y-174816538D01*
X92292261Y-174951076D01*
X92039338Y-175120073D01*
X91810638Y-175320638D01*
X91610073Y-175549338D01*
X91531074Y-175667569D01*
X91443709Y-175798321D01*
X91441076Y-175802261D01*
X91306538Y-176075078D01*
X91208760Y-176363122D01*
X91208001Y-176366936D01*
X91208000Y-176366941D01*
X91177945Y-176518039D01*
X91149416Y-176661464D01*
X91132403Y-176921036D01*
X91129521Y-176965000D01*
X88820500Y-176965000D01*
X88820500Y-174193487D01*
X88814320Y-174176507D01*
X88808953Y-174156475D01*
X88807625Y-174148946D01*
X88805817Y-174138692D01*
X88796789Y-174123054D01*
X88788022Y-174104255D01*
X88785403Y-174097059D01*
X88781843Y-174087278D01*
X88775153Y-174079306D01*
X88775152Y-174079303D01*
X88770235Y-174073444D01*
X88758337Y-174056452D01*
X88754511Y-174049824D01*
X88754508Y-174049820D01*
X88749305Y-174040809D01*
X88735466Y-174029197D01*
X88720803Y-174014534D01*
X88709191Y-174000695D01*
X88700180Y-173995492D01*
X88700176Y-173995489D01*
X88693548Y-173991663D01*
X88676556Y-173979765D01*
X88670697Y-173974848D01*
X88670694Y-173974847D01*
X88662722Y-173968157D01*
X88645745Y-173961978D01*
X88626945Y-173953211D01*
X88620325Y-173949389D01*
X88611308Y-173944183D01*
X88593526Y-173941047D01*
X88573493Y-173935680D01*
X88556513Y-173929500D01*
X70443487Y-173929500D01*
X70426507Y-173935680D01*
X70406474Y-173941047D01*
X70388692Y-173944183D01*
X70379675Y-173949389D01*
X70373055Y-173953211D01*
X70354255Y-173961978D01*
X70337278Y-173968157D01*
X70329306Y-173974847D01*
X70329303Y-173974848D01*
X70323444Y-173979765D01*
X70306452Y-173991663D01*
X70299824Y-173995489D01*
X70299820Y-173995492D01*
X70290809Y-174000695D01*
X70279197Y-174014534D01*
X70264534Y-174029197D01*
X70250695Y-174040809D01*
X70245492Y-174049820D01*
X70245489Y-174049824D01*
X70241663Y-174056452D01*
X70229765Y-174073444D01*
X70224848Y-174079303D01*
X70224847Y-174079306D01*
X70218157Y-174087278D01*
X70214597Y-174097059D01*
X70211978Y-174104255D01*
X70203211Y-174123054D01*
X70194183Y-174138692D01*
X70192375Y-174148946D01*
X70191047Y-174156475D01*
X70185680Y-174176507D01*
X70179500Y-174193487D01*
X70179500Y-182060500D01*
X70160609Y-182124836D01*
X70109934Y-182168746D01*
X70060500Y-182179500D01*
X45439500Y-182179500D01*
X45375164Y-182160609D01*
X45331254Y-182109934D01*
X45320500Y-182060500D01*
X45320500Y-176965000D01*
X49219521Y-176965000D01*
X49239416Y-177268536D01*
X49298760Y-177566878D01*
X49300009Y-177570558D01*
X49300010Y-177570561D01*
X49366485Y-177766388D01*
X49396538Y-177854922D01*
X49531076Y-178127739D01*
X49700073Y-178380662D01*
X49900638Y-178609362D01*
X50129338Y-178809927D01*
X50382260Y-178978924D01*
X50385758Y-178980649D01*
X50553193Y-179063218D01*
X50655078Y-179113462D01*
X50658759Y-179114712D01*
X50658765Y-179114714D01*
X50939439Y-179209990D01*
X50939442Y-179209991D01*
X50943122Y-179211240D01*
X50946936Y-179211999D01*
X50946941Y-179212000D01*
X51145143Y-179251425D01*
X51241464Y-179270584D01*
X51545000Y-179290479D01*
X51848536Y-179270584D01*
X51944857Y-179251425D01*
X52143059Y-179212000D01*
X52143064Y-179211999D01*
X52146878Y-179211240D01*
X52150558Y-179209991D01*
X52150561Y-179209990D01*
X52431235Y-179114714D01*
X52431241Y-179114712D01*
X52434922Y-179113462D01*
X52536808Y-179063218D01*
X52704242Y-178980649D01*
X52707740Y-178978924D01*
X52960662Y-178809927D01*
X53189362Y-178609362D01*
X53389927Y-178380662D01*
X53558924Y-178127739D01*
X53621918Y-178000000D01*
X57254838Y-178000000D01*
X57273451Y-178212747D01*
X57274795Y-178217764D01*
X57274796Y-178217768D01*
X57301753Y-178318373D01*
X57328724Y-178419030D01*
X57418979Y-178612581D01*
X57541471Y-178787519D01*
X57692481Y-178938529D01*
X57867419Y-179061021D01*
X58060970Y-179151276D01*
X58065991Y-179152621D01*
X58065990Y-179152621D01*
X58262232Y-179205204D01*
X58262236Y-179205205D01*
X58267253Y-179206549D01*
X58480000Y-179225162D01*
X58692747Y-179206549D01*
X58697764Y-179205205D01*
X58697768Y-179205204D01*
X58894010Y-179152621D01*
X58894009Y-179152621D01*
X58899030Y-179151276D01*
X59092581Y-179061021D01*
X59267519Y-178938529D01*
X59418529Y-178787519D01*
X59541021Y-178612581D01*
X59631276Y-178419030D01*
X59635055Y-178404927D01*
X59669953Y-178347672D01*
X59730265Y-178318373D01*
X59796843Y-178326333D01*
X59848549Y-178369024D01*
X59864945Y-178404927D01*
X59868724Y-178419030D01*
X59958979Y-178612581D01*
X60081471Y-178787519D01*
X60232481Y-178938529D01*
X60407419Y-179061021D01*
X60600970Y-179151276D01*
X60605991Y-179152621D01*
X60605990Y-179152621D01*
X60802232Y-179205204D01*
X60802236Y-179205205D01*
X60807253Y-179206549D01*
X61020000Y-179225162D01*
X61232747Y-179206549D01*
X61237764Y-179205205D01*
X61237768Y-179205204D01*
X61434010Y-179152621D01*
X61434009Y-179152621D01*
X61439030Y-179151276D01*
X61632581Y-179061021D01*
X61807519Y-178938529D01*
X61958529Y-178787519D01*
X62081021Y-178612581D01*
X62171276Y-178419030D01*
X62198247Y-178318373D01*
X62225204Y-178217768D01*
X62225205Y-178217764D01*
X62226549Y-178212747D01*
X62245162Y-178000000D01*
X62226549Y-177787253D01*
X62220959Y-177766388D01*
X62172621Y-177585990D01*
X62171276Y-177580970D01*
X62081021Y-177387419D01*
X61958529Y-177212481D01*
X61807519Y-177061471D01*
X61632581Y-176938979D01*
X61439030Y-176848724D01*
X61434007Y-176847378D01*
X61424927Y-176844945D01*
X61367672Y-176810047D01*
X61338373Y-176749735D01*
X61346333Y-176683157D01*
X61389024Y-176631451D01*
X61424927Y-176615055D01*
X61434007Y-176612622D01*
X61434008Y-176612622D01*
X61439030Y-176611276D01*
X61632581Y-176521021D01*
X61807519Y-176398529D01*
X61958529Y-176247519D01*
X62081021Y-176072581D01*
X62171276Y-175879030D01*
X62226549Y-175672747D01*
X62245162Y-175460000D01*
X62226549Y-175247253D01*
X62192472Y-175120073D01*
X62172621Y-175045990D01*
X62171276Y-175040970D01*
X62081021Y-174847419D01*
X62060605Y-174818261D01*
X61991809Y-174720010D01*
X61958529Y-174672481D01*
X61807519Y-174521471D01*
X61632581Y-174398979D01*
X61439030Y-174308724D01*
X61393024Y-174296397D01*
X61237768Y-174254796D01*
X61237764Y-174254795D01*
X61232747Y-174253451D01*
X61020000Y-174234838D01*
X60807253Y-174253451D01*
X60802236Y-174254795D01*
X60802232Y-174254796D01*
X60646976Y-174296397D01*
X60600970Y-174308724D01*
X60407419Y-174398979D01*
X60232481Y-174521471D01*
X60081471Y-174672481D01*
X60048191Y-174720010D01*
X59979396Y-174818261D01*
X59958979Y-174847419D01*
X59868724Y-175040970D01*
X59867379Y-175045990D01*
X59867378Y-175045993D01*
X59864945Y-175055073D01*
X59830047Y-175112328D01*
X59769735Y-175141627D01*
X59703157Y-175133667D01*
X59651451Y-175090976D01*
X59635055Y-175055073D01*
X59632622Y-175045993D01*
X59632621Y-175045990D01*
X59631276Y-175040970D01*
X59541021Y-174847419D01*
X59520605Y-174818261D01*
X59451809Y-174720010D01*
X59418529Y-174672481D01*
X59267519Y-174521471D01*
X59092581Y-174398979D01*
X58899030Y-174308724D01*
X58853024Y-174296397D01*
X58697768Y-174254796D01*
X58697764Y-174254795D01*
X58692747Y-174253451D01*
X58480000Y-174234838D01*
X58267253Y-174253451D01*
X58262236Y-174254795D01*
X58262232Y-174254796D01*
X58106976Y-174296397D01*
X58060970Y-174308724D01*
X57867419Y-174398979D01*
X57692481Y-174521471D01*
X57541471Y-174672481D01*
X57508191Y-174720010D01*
X57439396Y-174818261D01*
X57418979Y-174847419D01*
X57328724Y-175040970D01*
X57327379Y-175045990D01*
X57307529Y-175120073D01*
X57273451Y-175247253D01*
X57254838Y-175460000D01*
X57273451Y-175672747D01*
X57328724Y-175879030D01*
X57418979Y-176072581D01*
X57541471Y-176247519D01*
X57692481Y-176398529D01*
X57867419Y-176521021D01*
X58060970Y-176611276D01*
X58065992Y-176612622D01*
X58065993Y-176612622D01*
X58075073Y-176615055D01*
X58132328Y-176649953D01*
X58161627Y-176710265D01*
X58153667Y-176776843D01*
X58110976Y-176828549D01*
X58075073Y-176844945D01*
X58065993Y-176847378D01*
X58060970Y-176848724D01*
X57867419Y-176938979D01*
X57692481Y-177061471D01*
X57541471Y-177212481D01*
X57418979Y-177387419D01*
X57328724Y-177580970D01*
X57327379Y-177585990D01*
X57279042Y-177766388D01*
X57273451Y-177787253D01*
X57254838Y-178000000D01*
X53621918Y-178000000D01*
X53693462Y-177854922D01*
X53723516Y-177766388D01*
X53789990Y-177570561D01*
X53789991Y-177570558D01*
X53791240Y-177566878D01*
X53850584Y-177268536D01*
X53870479Y-176965000D01*
X53850584Y-176661464D01*
X53822055Y-176518039D01*
X53792000Y-176366941D01*
X53791999Y-176366936D01*
X53791240Y-176363122D01*
X53693462Y-176075078D01*
X53558924Y-175802261D01*
X53556292Y-175798321D01*
X53468926Y-175667569D01*
X53389927Y-175549338D01*
X53189362Y-175320638D01*
X52960662Y-175120073D01*
X52707740Y-174951076D01*
X52497543Y-174847419D01*
X52438416Y-174818261D01*
X52434922Y-174816538D01*
X52431241Y-174815288D01*
X52431235Y-174815286D01*
X52150561Y-174720010D01*
X52150558Y-174720009D01*
X52146878Y-174718760D01*
X52143064Y-174718001D01*
X52143059Y-174718000D01*
X51914218Y-174672481D01*
X51848536Y-174659416D01*
X51545000Y-174639521D01*
X51241464Y-174659416D01*
X51175782Y-174672481D01*
X50946941Y-174718000D01*
X50946936Y-174718001D01*
X50943122Y-174718760D01*
X50939442Y-174720009D01*
X50939439Y-174720010D01*
X50658765Y-174815286D01*
X50658759Y-174815288D01*
X50655078Y-174816538D01*
X50382261Y-174951076D01*
X50129338Y-175120073D01*
X49900638Y-175320638D01*
X49700073Y-175549338D01*
X49621074Y-175667569D01*
X49533709Y-175798321D01*
X49531076Y-175802261D01*
X49396538Y-176075078D01*
X49298760Y-176363122D01*
X49298001Y-176366936D01*
X49298000Y-176366941D01*
X49267945Y-176518039D01*
X49239416Y-176661464D01*
X49222403Y-176921036D01*
X49219521Y-176965000D01*
X45320500Y-176965000D01*
X45320500Y-173443487D01*
X45314320Y-173426507D01*
X45308953Y-173406475D01*
X45307625Y-173398946D01*
X45305817Y-173388692D01*
X45296789Y-173373054D01*
X45288022Y-173354255D01*
X45285403Y-173347059D01*
X45281843Y-173337278D01*
X45275153Y-173329306D01*
X45275152Y-173329303D01*
X45270235Y-173323444D01*
X45258337Y-173306452D01*
X45254511Y-173299824D01*
X45254508Y-173299820D01*
X45249305Y-173290809D01*
X45235466Y-173279197D01*
X45220803Y-173264534D01*
X45209191Y-173250695D01*
X45200180Y-173245492D01*
X45200176Y-173245489D01*
X45193548Y-173241663D01*
X45176556Y-173229765D01*
X45170697Y-173224848D01*
X45170694Y-173224847D01*
X45162722Y-173218157D01*
X45145745Y-173211978D01*
X45126945Y-173203211D01*
X45120325Y-173199389D01*
X45111308Y-173194183D01*
X45093526Y-173191047D01*
X45073493Y-173185680D01*
X45056513Y-173179500D01*
X37939500Y-173179500D01*
X37875164Y-173160609D01*
X37831254Y-173109934D01*
X37820500Y-173060500D01*
X37820500Y-168000000D01*
X41174456Y-168000000D01*
X41194594Y-168230178D01*
X41195938Y-168235195D01*
X41195939Y-168235199D01*
X41220546Y-168327032D01*
X41254396Y-168453363D01*
X41256588Y-168458065D01*
X41256590Y-168458069D01*
X41286908Y-168523086D01*
X41352045Y-168662772D01*
X41355022Y-168667024D01*
X41355024Y-168667027D01*
X41480432Y-168846128D01*
X41484574Y-168852043D01*
X41647957Y-169015426D01*
X41652209Y-169018403D01*
X41652211Y-169018405D01*
X41832973Y-169144976D01*
X41832976Y-169144978D01*
X41837228Y-169147955D01*
X41941933Y-169196780D01*
X42041931Y-169243410D01*
X42041935Y-169243412D01*
X42046637Y-169245604D01*
X42051658Y-169246949D01*
X42051657Y-169246949D01*
X42264801Y-169304061D01*
X42264805Y-169304062D01*
X42269822Y-169305406D01*
X42500000Y-169325544D01*
X42730178Y-169305406D01*
X42735195Y-169304062D01*
X42735199Y-169304061D01*
X42948343Y-169246949D01*
X42948342Y-169246949D01*
X42953363Y-169245604D01*
X42958065Y-169243412D01*
X42958069Y-169243410D01*
X43058067Y-169196780D01*
X43162772Y-169147955D01*
X43167024Y-169144978D01*
X43167027Y-169144976D01*
X43347789Y-169018405D01*
X43347791Y-169018403D01*
X43352043Y-169015426D01*
X43515426Y-168852043D01*
X43519568Y-168846128D01*
X43644976Y-168667027D01*
X43644978Y-168667024D01*
X43647955Y-168662772D01*
X43713092Y-168523086D01*
X43743410Y-168458069D01*
X43743412Y-168458065D01*
X43745604Y-168453363D01*
X43779454Y-168327032D01*
X43804061Y-168235199D01*
X43804062Y-168235195D01*
X43805406Y-168230178D01*
X43821742Y-168043455D01*
X46024977Y-168043455D01*
X46025764Y-168050583D01*
X46025764Y-168050584D01*
X46026714Y-168059184D01*
X46041458Y-168192732D01*
X46093070Y-168333770D01*
X46176835Y-168458425D01*
X46182143Y-168463255D01*
X46282562Y-168554629D01*
X46287916Y-168559501D01*
X46419901Y-168631163D01*
X46426839Y-168632983D01*
X46426841Y-168632984D01*
X46522448Y-168658066D01*
X46565170Y-168669274D01*
X46572340Y-168669387D01*
X46572343Y-168669387D01*
X46637051Y-168670403D01*
X46715336Y-168671633D01*
X46722324Y-168670033D01*
X46722329Y-168670032D01*
X46736366Y-168666817D01*
X46803296Y-168670867D01*
X46857411Y-168710459D01*
X46881531Y-168773023D01*
X46880916Y-168798343D01*
X46874977Y-168843455D01*
X46875764Y-168850583D01*
X46875764Y-168850584D01*
X46877591Y-168867127D01*
X46891458Y-168992732D01*
X46943070Y-169133770D01*
X46985739Y-169197268D01*
X47018220Y-169245604D01*
X47026835Y-169258425D01*
X47137916Y-169359501D01*
X47269901Y-169431163D01*
X47276839Y-169432983D01*
X47276841Y-169432984D01*
X47345987Y-169451124D01*
X47415170Y-169469274D01*
X47422340Y-169469387D01*
X47422343Y-169469387D01*
X47487051Y-169470403D01*
X47565336Y-169471633D01*
X47572320Y-169470033D01*
X47572324Y-169470033D01*
X47704741Y-169439705D01*
X47704742Y-169439705D01*
X47711731Y-169438104D01*
X47718137Y-169434882D01*
X47718140Y-169434881D01*
X47839490Y-169373848D01*
X47839494Y-169373846D01*
X47845901Y-169370623D01*
X47960103Y-169273086D01*
X47974919Y-169252467D01*
X48043557Y-169156949D01*
X48043559Y-169156945D01*
X48047742Y-169151124D01*
X48052325Y-169139725D01*
X48101085Y-169018429D01*
X48101085Y-169018428D01*
X48103759Y-169011777D01*
X48124920Y-168863090D01*
X48125057Y-168850000D01*
X48107014Y-168700903D01*
X48095911Y-168671520D01*
X48056465Y-168567127D01*
X48056464Y-168567124D01*
X48053928Y-168560414D01*
X48034139Y-168531620D01*
X48006207Y-168490979D01*
X47968862Y-168436642D01*
X47856729Y-168336735D01*
X47724000Y-168266459D01*
X47578340Y-168229872D01*
X47571166Y-168229834D01*
X47571163Y-168229834D01*
X47501377Y-168229469D01*
X47428158Y-168229085D01*
X47415304Y-168232171D01*
X47348336Y-168228821D01*
X47293809Y-168189797D01*
X47269036Y-168127489D01*
X47269711Y-168099692D01*
X47274370Y-168066953D01*
X47274920Y-168063090D01*
X47275057Y-168050000D01*
X47269006Y-168000000D01*
X49674456Y-168000000D01*
X49694594Y-168230178D01*
X49695938Y-168235195D01*
X49695939Y-168235199D01*
X49720546Y-168327032D01*
X49754396Y-168453363D01*
X49756588Y-168458065D01*
X49756590Y-168458069D01*
X49786908Y-168523086D01*
X49852045Y-168662772D01*
X49855022Y-168667024D01*
X49855024Y-168667027D01*
X49980432Y-168846128D01*
X49984574Y-168852043D01*
X50147957Y-169015426D01*
X50152209Y-169018403D01*
X50152211Y-169018405D01*
X50332973Y-169144976D01*
X50332976Y-169144978D01*
X50337228Y-169147955D01*
X50441933Y-169196780D01*
X50541931Y-169243410D01*
X50541935Y-169243412D01*
X50546637Y-169245604D01*
X50551658Y-169246949D01*
X50551657Y-169246949D01*
X50764801Y-169304061D01*
X50764805Y-169304062D01*
X50769822Y-169305406D01*
X51000000Y-169325544D01*
X51230178Y-169305406D01*
X51235195Y-169304062D01*
X51235199Y-169304061D01*
X51448343Y-169246949D01*
X51448342Y-169246949D01*
X51453363Y-169245604D01*
X51458065Y-169243412D01*
X51458069Y-169243410D01*
X51558067Y-169196780D01*
X51662772Y-169147955D01*
X51667024Y-169144978D01*
X51667027Y-169144976D01*
X51847789Y-169018405D01*
X51847791Y-169018403D01*
X51852043Y-169015426D01*
X52015426Y-168852043D01*
X52019568Y-168846128D01*
X52021440Y-168843455D01*
X53624977Y-168843455D01*
X53625764Y-168850583D01*
X53625764Y-168850584D01*
X53627591Y-168867127D01*
X53641458Y-168992732D01*
X53693070Y-169133770D01*
X53735739Y-169197268D01*
X53768220Y-169245604D01*
X53776835Y-169258425D01*
X53887916Y-169359501D01*
X54019901Y-169431163D01*
X54026839Y-169432983D01*
X54026841Y-169432984D01*
X54095987Y-169451124D01*
X54165170Y-169469274D01*
X54172340Y-169469387D01*
X54172343Y-169469387D01*
X54237051Y-169470403D01*
X54315336Y-169471633D01*
X54322320Y-169470033D01*
X54322324Y-169470033D01*
X54454741Y-169439705D01*
X54454742Y-169439705D01*
X54461731Y-169438104D01*
X54468137Y-169434882D01*
X54468140Y-169434881D01*
X54589490Y-169373848D01*
X54589494Y-169373846D01*
X54595901Y-169370623D01*
X54710103Y-169273086D01*
X54724919Y-169252467D01*
X54793557Y-169156949D01*
X54793559Y-169156945D01*
X54797742Y-169151124D01*
X54800825Y-169143455D01*
X61624977Y-169143455D01*
X61625764Y-169150583D01*
X61625764Y-169150584D01*
X61638204Y-169263255D01*
X61641458Y-169292732D01*
X61693070Y-169433770D01*
X61776835Y-169558425D01*
X61887916Y-169659501D01*
X62019901Y-169731163D01*
X62026839Y-169732983D01*
X62026841Y-169732984D01*
X62127528Y-169759399D01*
X62165170Y-169769274D01*
X62172340Y-169769387D01*
X62172343Y-169769387D01*
X62237051Y-169770403D01*
X62315336Y-169771633D01*
X62322320Y-169770033D01*
X62322324Y-169770033D01*
X62454741Y-169739705D01*
X62454742Y-169739705D01*
X62461731Y-169738104D01*
X62468137Y-169734882D01*
X62468140Y-169734881D01*
X62589490Y-169673848D01*
X62589494Y-169673846D01*
X62595901Y-169670623D01*
X62710103Y-169573086D01*
X62783005Y-169471633D01*
X62793557Y-169456949D01*
X62793559Y-169456945D01*
X62797742Y-169451124D01*
X62802325Y-169439725D01*
X62851085Y-169318429D01*
X62851085Y-169318428D01*
X62853759Y-169311777D01*
X62874920Y-169163090D01*
X62875057Y-169150000D01*
X62857014Y-169000903D01*
X62854478Y-168994191D01*
X62806465Y-168867127D01*
X62806464Y-168867124D01*
X62803928Y-168860414D01*
X62799449Y-168853896D01*
X62722925Y-168742554D01*
X62718862Y-168736642D01*
X62701890Y-168721520D01*
X62612085Y-168641507D01*
X62606729Y-168636735D01*
X62474000Y-168566459D01*
X62328340Y-168529872D01*
X62321166Y-168529834D01*
X62321163Y-168529834D01*
X62251377Y-168529469D01*
X62178158Y-168529085D01*
X62032123Y-168564145D01*
X62025754Y-168567432D01*
X62025752Y-168567433D01*
X61955325Y-168603783D01*
X61898666Y-168633027D01*
X61828135Y-168694555D01*
X61797225Y-168721520D01*
X61785492Y-168731755D01*
X61781365Y-168737626D01*
X61781365Y-168737627D01*
X61705105Y-168846135D01*
X61699135Y-168854629D01*
X61644580Y-168994555D01*
X61624977Y-169143455D01*
X54800825Y-169143455D01*
X54802325Y-169139725D01*
X54851085Y-169018429D01*
X54851085Y-169018428D01*
X54853759Y-169011777D01*
X54874920Y-168863090D01*
X54875057Y-168850000D01*
X54874589Y-168846135D01*
X54874589Y-168846128D01*
X54873522Y-168837310D01*
X54884548Y-168771170D01*
X54929582Y-168721491D01*
X54994325Y-168704046D01*
X55021857Y-168707911D01*
X55037373Y-168711982D01*
X55065170Y-168719274D01*
X55072340Y-168719387D01*
X55072343Y-168719387D01*
X55137051Y-168720403D01*
X55215336Y-168721633D01*
X55222320Y-168720033D01*
X55222324Y-168720033D01*
X55354741Y-168689705D01*
X55354742Y-168689705D01*
X55361731Y-168688104D01*
X55368137Y-168684882D01*
X55368140Y-168684881D01*
X55489490Y-168623848D01*
X55489494Y-168623846D01*
X55495901Y-168620623D01*
X55610103Y-168523086D01*
X55656823Y-168458069D01*
X55693557Y-168406949D01*
X55693559Y-168406945D01*
X55697742Y-168401124D01*
X55753759Y-168261777D01*
X55774920Y-168113090D01*
X55775057Y-168100000D01*
X55757014Y-167950903D01*
X55752089Y-167937869D01*
X55706465Y-167817127D01*
X55706464Y-167817124D01*
X55703928Y-167810414D01*
X55618862Y-167686642D01*
X55506729Y-167586735D01*
X55374000Y-167516459D01*
X55228340Y-167479872D01*
X55221166Y-167479834D01*
X55221163Y-167479834D01*
X55151377Y-167479469D01*
X55078158Y-167479085D01*
X54932123Y-167514145D01*
X54925754Y-167517432D01*
X54925752Y-167517433D01*
X54805036Y-167579739D01*
X54798666Y-167583027D01*
X54685492Y-167681755D01*
X54681365Y-167687626D01*
X54681365Y-167687627D01*
X54603259Y-167798761D01*
X54599135Y-167804629D01*
X54544580Y-167944555D01*
X54524977Y-168093455D01*
X54525764Y-168100583D01*
X54525764Y-168100584D01*
X54527287Y-168114378D01*
X54515571Y-168180399D01*
X54470021Y-168229605D01*
X54405099Y-168246373D01*
X54380016Y-168242852D01*
X54335299Y-168231620D01*
X54328340Y-168229872D01*
X54321166Y-168229834D01*
X54321163Y-168229834D01*
X54251377Y-168229469D01*
X54178158Y-168229085D01*
X54032123Y-168264145D01*
X54025754Y-168267432D01*
X54025752Y-168267433D01*
X53969769Y-168296328D01*
X53898666Y-168333027D01*
X53785492Y-168431755D01*
X53781365Y-168437626D01*
X53781365Y-168437627D01*
X53717061Y-168529123D01*
X53699135Y-168554629D01*
X53644580Y-168694555D01*
X53624977Y-168843455D01*
X52021440Y-168843455D01*
X52144976Y-168667027D01*
X52144978Y-168667024D01*
X52147955Y-168662772D01*
X52213092Y-168523086D01*
X52243410Y-168458069D01*
X52243412Y-168458065D01*
X52245604Y-168453363D01*
X52279454Y-168327032D01*
X52304061Y-168235199D01*
X52304062Y-168235195D01*
X52305406Y-168230178D01*
X52325544Y-168000000D01*
X52321316Y-167951668D01*
X52305859Y-167775000D01*
X52305406Y-167769822D01*
X52302886Y-167760414D01*
X52246949Y-167551657D01*
X52245604Y-167546637D01*
X52241456Y-167537740D01*
X52150149Y-167341934D01*
X52147955Y-167337228D01*
X52015426Y-167147957D01*
X51852043Y-166984574D01*
X51847789Y-166981595D01*
X51667027Y-166855024D01*
X51667024Y-166855022D01*
X51662772Y-166852045D01*
X51558067Y-166803220D01*
X51458069Y-166756590D01*
X51458065Y-166756588D01*
X51453363Y-166754396D01*
X51402916Y-166740879D01*
X51235199Y-166695939D01*
X51235195Y-166695938D01*
X51230178Y-166694594D01*
X51000000Y-166674456D01*
X50769822Y-166694594D01*
X50764805Y-166695938D01*
X50764801Y-166695939D01*
X50597084Y-166740879D01*
X50546637Y-166754396D01*
X50541935Y-166756588D01*
X50541931Y-166756590D01*
X50441933Y-166803220D01*
X50337228Y-166852045D01*
X50332976Y-166855022D01*
X50332973Y-166855024D01*
X50152211Y-166981595D01*
X50147957Y-166984574D01*
X49984574Y-167147957D01*
X49852045Y-167337228D01*
X49849851Y-167341934D01*
X49758545Y-167537740D01*
X49754396Y-167546637D01*
X49753051Y-167551657D01*
X49697115Y-167760414D01*
X49694594Y-167769822D01*
X49694141Y-167775000D01*
X49678685Y-167951668D01*
X49674456Y-168000000D01*
X47269006Y-168000000D01*
X47257014Y-167900903D01*
X47223161Y-167811312D01*
X47206465Y-167767127D01*
X47206464Y-167767124D01*
X47203928Y-167760414D01*
X47118862Y-167636642D01*
X47006729Y-167536735D01*
X46874000Y-167466459D01*
X46728340Y-167429872D01*
X46721166Y-167429834D01*
X46721163Y-167429834D01*
X46651377Y-167429469D01*
X46578158Y-167429085D01*
X46432123Y-167464145D01*
X46425754Y-167467432D01*
X46425752Y-167467433D01*
X46330766Y-167516459D01*
X46298666Y-167533027D01*
X46185492Y-167631755D01*
X46181365Y-167637626D01*
X46181365Y-167637627D01*
X46150271Y-167681869D01*
X46099135Y-167754629D01*
X46044580Y-167894555D01*
X46024977Y-168043455D01*
X43821742Y-168043455D01*
X43825544Y-168000000D01*
X43821316Y-167951668D01*
X43805859Y-167775000D01*
X43805406Y-167769822D01*
X43802886Y-167760414D01*
X43746949Y-167551657D01*
X43745604Y-167546637D01*
X43741456Y-167537740D01*
X43650149Y-167341934D01*
X43647955Y-167337228D01*
X43515426Y-167147957D01*
X43352043Y-166984574D01*
X43347789Y-166981595D01*
X43167027Y-166855024D01*
X43167024Y-166855022D01*
X43162772Y-166852045D01*
X43058067Y-166803220D01*
X42958069Y-166756590D01*
X42958065Y-166756588D01*
X42953363Y-166754396D01*
X42902916Y-166740879D01*
X42735199Y-166695939D01*
X42735195Y-166695938D01*
X42730178Y-166694594D01*
X42500000Y-166674456D01*
X42269822Y-166694594D01*
X42264805Y-166695938D01*
X42264801Y-166695939D01*
X42097084Y-166740879D01*
X42046637Y-166754396D01*
X42041935Y-166756588D01*
X42041931Y-166756590D01*
X41941933Y-166803220D01*
X41837228Y-166852045D01*
X41832976Y-166855022D01*
X41832973Y-166855024D01*
X41652211Y-166981595D01*
X41647957Y-166984574D01*
X41484574Y-167147957D01*
X41352045Y-167337228D01*
X41349851Y-167341934D01*
X41258545Y-167537740D01*
X41254396Y-167546637D01*
X41253051Y-167551657D01*
X41197115Y-167760414D01*
X41194594Y-167769822D01*
X41194141Y-167775000D01*
X41178685Y-167951668D01*
X41174456Y-168000000D01*
X37820500Y-168000000D01*
X37820500Y-164500000D01*
X80000000Y-164500000D01*
X85000000Y-164500000D01*
X85000000Y-159500000D01*
X80000000Y-159500000D01*
X80000000Y-164500000D01*
X37820500Y-164500000D01*
X37820500Y-160993455D01*
X55124977Y-160993455D01*
X55125764Y-161000583D01*
X55125764Y-161000584D01*
X55126714Y-161009184D01*
X55141458Y-161142732D01*
X55193070Y-161283770D01*
X55276835Y-161408425D01*
X55387916Y-161509501D01*
X55519901Y-161581163D01*
X55526839Y-161582983D01*
X55526841Y-161582984D01*
X55627528Y-161609399D01*
X55665170Y-161619274D01*
X55672340Y-161619387D01*
X55672343Y-161619387D01*
X55737051Y-161620403D01*
X55815336Y-161621633D01*
X55822320Y-161620033D01*
X55822324Y-161620033D01*
X55954741Y-161589705D01*
X55954742Y-161589705D01*
X55961731Y-161588104D01*
X55968137Y-161584882D01*
X55968140Y-161584881D01*
X56089490Y-161523848D01*
X56089494Y-161523846D01*
X56095901Y-161520623D01*
X56210103Y-161423086D01*
X56214288Y-161417262D01*
X56214291Y-161417259D01*
X56278954Y-161327270D01*
X56331837Y-161286047D01*
X56398613Y-161279959D01*
X56458079Y-161310939D01*
X56474363Y-161330339D01*
X56526835Y-161408425D01*
X56637916Y-161509501D01*
X56769901Y-161581163D01*
X56776839Y-161582983D01*
X56776841Y-161582984D01*
X56877528Y-161609399D01*
X56915170Y-161619274D01*
X56922340Y-161619387D01*
X56922343Y-161619387D01*
X56987051Y-161620403D01*
X57065336Y-161621633D01*
X57072320Y-161620033D01*
X57072324Y-161620033D01*
X57204741Y-161589705D01*
X57204742Y-161589705D01*
X57211731Y-161588104D01*
X57218137Y-161584882D01*
X57218140Y-161584881D01*
X57339490Y-161523848D01*
X57339494Y-161523846D01*
X57345901Y-161520623D01*
X57460103Y-161423086D01*
X57526749Y-161330339D01*
X57543557Y-161306949D01*
X57543559Y-161306945D01*
X57547742Y-161301124D01*
X57552325Y-161289725D01*
X57601085Y-161168429D01*
X57601085Y-161168428D01*
X57603759Y-161161777D01*
X57624920Y-161013090D01*
X57625057Y-161000000D01*
X57607014Y-160850903D01*
X57553928Y-160710414D01*
X57468862Y-160586642D01*
X57356729Y-160486735D01*
X57224000Y-160416459D01*
X57078340Y-160379872D01*
X57071166Y-160379834D01*
X57071163Y-160379834D01*
X57001377Y-160379469D01*
X56928158Y-160379085D01*
X56782123Y-160414145D01*
X56775754Y-160417432D01*
X56775752Y-160417433D01*
X56655036Y-160479739D01*
X56648666Y-160483027D01*
X56535492Y-160581755D01*
X56531365Y-160587626D01*
X56531365Y-160587627D01*
X56472162Y-160671865D01*
X56419713Y-160713640D01*
X56353005Y-160720427D01*
X56293217Y-160690071D01*
X56276731Y-160670842D01*
X56222925Y-160592554D01*
X56218862Y-160586642D01*
X56106729Y-160486735D01*
X55974000Y-160416459D01*
X55828340Y-160379872D01*
X55821166Y-160379834D01*
X55821163Y-160379834D01*
X55751377Y-160379469D01*
X55678158Y-160379085D01*
X55532123Y-160414145D01*
X55525754Y-160417432D01*
X55525752Y-160417433D01*
X55405036Y-160479739D01*
X55398666Y-160483027D01*
X55285492Y-160581755D01*
X55199135Y-160704629D01*
X55144580Y-160844555D01*
X55124977Y-160993455D01*
X37820500Y-160993455D01*
X37820500Y-159243455D01*
X55124977Y-159243455D01*
X55125764Y-159250583D01*
X55125764Y-159250584D01*
X55126714Y-159259184D01*
X55141458Y-159392732D01*
X55150862Y-159418429D01*
X55185394Y-159512793D01*
X55193070Y-159533770D01*
X55276835Y-159658425D01*
X55387916Y-159759501D01*
X55519901Y-159831163D01*
X55526839Y-159832983D01*
X55526841Y-159832984D01*
X55627528Y-159859399D01*
X55665170Y-159869274D01*
X55672340Y-159869387D01*
X55672343Y-159869387D01*
X55737051Y-159870403D01*
X55815336Y-159871633D01*
X55822320Y-159870033D01*
X55822324Y-159870033D01*
X55954741Y-159839705D01*
X55954742Y-159839705D01*
X55961731Y-159838104D01*
X55968137Y-159834882D01*
X55968140Y-159834881D01*
X56089490Y-159773848D01*
X56089494Y-159773846D01*
X56095901Y-159770623D01*
X56210103Y-159673086D01*
X56214288Y-159667262D01*
X56214291Y-159667259D01*
X56278954Y-159577270D01*
X56331837Y-159536047D01*
X56398613Y-159529959D01*
X56458079Y-159560939D01*
X56474363Y-159580339D01*
X56526835Y-159658425D01*
X56637916Y-159759501D01*
X56769901Y-159831163D01*
X56776839Y-159832983D01*
X56776841Y-159832984D01*
X56877528Y-159859399D01*
X56915170Y-159869274D01*
X56922340Y-159869387D01*
X56922343Y-159869387D01*
X56987051Y-159870403D01*
X57065336Y-159871633D01*
X57072320Y-159870033D01*
X57072324Y-159870033D01*
X57204741Y-159839705D01*
X57204742Y-159839705D01*
X57211731Y-159838104D01*
X57218137Y-159834882D01*
X57218140Y-159834881D01*
X57339490Y-159773848D01*
X57339494Y-159773846D01*
X57345901Y-159770623D01*
X57460103Y-159673086D01*
X57526749Y-159580339D01*
X57543557Y-159556949D01*
X57543559Y-159556945D01*
X57547742Y-159551124D01*
X57552325Y-159539725D01*
X57601085Y-159418429D01*
X57601085Y-159418428D01*
X57603759Y-159411777D01*
X57624920Y-159263090D01*
X57625057Y-159250000D01*
X57607014Y-159100903D01*
X57553928Y-158960414D01*
X57468862Y-158836642D01*
X57356729Y-158736735D01*
X57224000Y-158666459D01*
X57078340Y-158629872D01*
X57071166Y-158629834D01*
X57071163Y-158629834D01*
X57001377Y-158629469D01*
X56928158Y-158629085D01*
X56782123Y-158664145D01*
X56775754Y-158667432D01*
X56775752Y-158667433D01*
X56655036Y-158729739D01*
X56648666Y-158733027D01*
X56535492Y-158831755D01*
X56531365Y-158837626D01*
X56531365Y-158837627D01*
X56472162Y-158921865D01*
X56419713Y-158963640D01*
X56353005Y-158970427D01*
X56293217Y-158940071D01*
X56276731Y-158920842D01*
X56222925Y-158842554D01*
X56218862Y-158836642D01*
X56106729Y-158736735D01*
X55974000Y-158666459D01*
X55828340Y-158629872D01*
X55821166Y-158629834D01*
X55821163Y-158629834D01*
X55751377Y-158629469D01*
X55678158Y-158629085D01*
X55532123Y-158664145D01*
X55525754Y-158667432D01*
X55525752Y-158667433D01*
X55405036Y-158729739D01*
X55398666Y-158733027D01*
X55285492Y-158831755D01*
X55199135Y-158954629D01*
X55144580Y-159094555D01*
X55124977Y-159243455D01*
X37820500Y-159243455D01*
X37820500Y-158500000D01*
X80000000Y-158500000D01*
X85000000Y-158500000D01*
X85000000Y-153500000D01*
X80000000Y-153500000D01*
X80000000Y-158500000D01*
X37820500Y-158500000D01*
X37820500Y-157743455D01*
X55124977Y-157743455D01*
X55125764Y-157750583D01*
X55125764Y-157750584D01*
X55126714Y-157759184D01*
X55141458Y-157892732D01*
X55193070Y-158033770D01*
X55276835Y-158158425D01*
X55387916Y-158259501D01*
X55519901Y-158331163D01*
X55526839Y-158332983D01*
X55526841Y-158332984D01*
X55627528Y-158359399D01*
X55665170Y-158369274D01*
X55672340Y-158369387D01*
X55672343Y-158369387D01*
X55737051Y-158370403D01*
X55815336Y-158371633D01*
X55822320Y-158370033D01*
X55822324Y-158370033D01*
X55954741Y-158339705D01*
X55954742Y-158339705D01*
X55961731Y-158338104D01*
X55968137Y-158334882D01*
X55968140Y-158334881D01*
X56089490Y-158273848D01*
X56089494Y-158273846D01*
X56095901Y-158270623D01*
X56210103Y-158173086D01*
X56214288Y-158167262D01*
X56214291Y-158167259D01*
X56278954Y-158077270D01*
X56331837Y-158036047D01*
X56398613Y-158029959D01*
X56458079Y-158060939D01*
X56474363Y-158080339D01*
X56526835Y-158158425D01*
X56637916Y-158259501D01*
X56769901Y-158331163D01*
X56776839Y-158332983D01*
X56776841Y-158332984D01*
X56877528Y-158359399D01*
X56915170Y-158369274D01*
X56922340Y-158369387D01*
X56922343Y-158369387D01*
X56987051Y-158370403D01*
X57065336Y-158371633D01*
X57072320Y-158370033D01*
X57072324Y-158370033D01*
X57204741Y-158339705D01*
X57204742Y-158339705D01*
X57211731Y-158338104D01*
X57218137Y-158334882D01*
X57218140Y-158334881D01*
X57339490Y-158273848D01*
X57339494Y-158273846D01*
X57345901Y-158270623D01*
X57460103Y-158173086D01*
X57526749Y-158080339D01*
X57543557Y-158056949D01*
X57543559Y-158056945D01*
X57547742Y-158051124D01*
X57552325Y-158039725D01*
X57601085Y-157918429D01*
X57601085Y-157918428D01*
X57603759Y-157911777D01*
X57624920Y-157763090D01*
X57625057Y-157750000D01*
X57607014Y-157600903D01*
X57553928Y-157460414D01*
X57468862Y-157336642D01*
X57356729Y-157236735D01*
X57224000Y-157166459D01*
X57078340Y-157129872D01*
X57071166Y-157129834D01*
X57071163Y-157129834D01*
X57001377Y-157129469D01*
X56928158Y-157129085D01*
X56782123Y-157164145D01*
X56775754Y-157167432D01*
X56775752Y-157167433D01*
X56655036Y-157229739D01*
X56648666Y-157233027D01*
X56535492Y-157331755D01*
X56531365Y-157337626D01*
X56531365Y-157337627D01*
X56472162Y-157421865D01*
X56419713Y-157463640D01*
X56353005Y-157470427D01*
X56293217Y-157440071D01*
X56276731Y-157420842D01*
X56222925Y-157342554D01*
X56218862Y-157336642D01*
X56106729Y-157236735D01*
X55974000Y-157166459D01*
X55828340Y-157129872D01*
X55821166Y-157129834D01*
X55821163Y-157129834D01*
X55751377Y-157129469D01*
X55678158Y-157129085D01*
X55532123Y-157164145D01*
X55525754Y-157167432D01*
X55525752Y-157167433D01*
X55405036Y-157229739D01*
X55398666Y-157233027D01*
X55285492Y-157331755D01*
X55199135Y-157454629D01*
X55144580Y-157594555D01*
X55124977Y-157743455D01*
X37820500Y-157743455D01*
X37820500Y-152693455D01*
X56624977Y-152693455D01*
X56625764Y-152700583D01*
X56625764Y-152700584D01*
X56626714Y-152709184D01*
X56641458Y-152842732D01*
X56693070Y-152983770D01*
X56776835Y-153108425D01*
X56887916Y-153209501D01*
X57019901Y-153281163D01*
X57026839Y-153282983D01*
X57026841Y-153282984D01*
X57127528Y-153309399D01*
X57165170Y-153319274D01*
X57172340Y-153319387D01*
X57172343Y-153319387D01*
X57237051Y-153320403D01*
X57315336Y-153321633D01*
X57322320Y-153320033D01*
X57322324Y-153320033D01*
X57454741Y-153289705D01*
X57454742Y-153289705D01*
X57461731Y-153288104D01*
X57468137Y-153284882D01*
X57468140Y-153284881D01*
X57589490Y-153223848D01*
X57589494Y-153223846D01*
X57595901Y-153220623D01*
X57710103Y-153123086D01*
X57724919Y-153102467D01*
X57793557Y-153006949D01*
X57793559Y-153006945D01*
X57797742Y-153001124D01*
X57802325Y-152989725D01*
X57851085Y-152868429D01*
X57851085Y-152868428D01*
X57853759Y-152861777D01*
X57874920Y-152713090D01*
X57875057Y-152700000D01*
X57857014Y-152550903D01*
X57852089Y-152537869D01*
X57806465Y-152417127D01*
X57806464Y-152417124D01*
X57803928Y-152410414D01*
X57718862Y-152286642D01*
X57606729Y-152186735D01*
X57474000Y-152116459D01*
X57328340Y-152079872D01*
X57321166Y-152079834D01*
X57321163Y-152079834D01*
X57251377Y-152079469D01*
X57178158Y-152079085D01*
X57032123Y-152114145D01*
X57025754Y-152117432D01*
X57025752Y-152117433D01*
X56905036Y-152179739D01*
X56898666Y-152183027D01*
X56785492Y-152281755D01*
X56699135Y-152404629D01*
X56644580Y-152544555D01*
X56624977Y-152693455D01*
X37820500Y-152693455D01*
X37820500Y-152000000D01*
X93174456Y-152000000D01*
X93194594Y-152230178D01*
X93195938Y-152235195D01*
X93195939Y-152235199D01*
X93239765Y-152398761D01*
X93254396Y-152453363D01*
X93256588Y-152458065D01*
X93256590Y-152458069D01*
X93299880Y-152550903D01*
X93352045Y-152662772D01*
X93355022Y-152667024D01*
X93355024Y-152667027D01*
X93373529Y-152693455D01*
X93484574Y-152852043D01*
X93647957Y-153015426D01*
X93652209Y-153018403D01*
X93652211Y-153018405D01*
X93832973Y-153144976D01*
X93832976Y-153144978D01*
X93837228Y-153147955D01*
X93941932Y-153196779D01*
X94041931Y-153243410D01*
X94041935Y-153243412D01*
X94046637Y-153245604D01*
X94051658Y-153246949D01*
X94051657Y-153246949D01*
X94264801Y-153304061D01*
X94264805Y-153304062D01*
X94269822Y-153305406D01*
X94275000Y-153305859D01*
X94454006Y-153321520D01*
X94500000Y-153325544D01*
X94545995Y-153321520D01*
X94725000Y-153305859D01*
X94730178Y-153305406D01*
X94735195Y-153304062D01*
X94735199Y-153304061D01*
X94948343Y-153246949D01*
X94948342Y-153246949D01*
X94953363Y-153245604D01*
X94958065Y-153243412D01*
X94958069Y-153243410D01*
X95058068Y-153196779D01*
X95162772Y-153147955D01*
X95167024Y-153144978D01*
X95167027Y-153144976D01*
X95347789Y-153018405D01*
X95347791Y-153018403D01*
X95352043Y-153015426D01*
X95515426Y-152852043D01*
X95626471Y-152693455D01*
X95644976Y-152667027D01*
X95644978Y-152667024D01*
X95647955Y-152662772D01*
X95700120Y-152550903D01*
X95743410Y-152458069D01*
X95743412Y-152458065D01*
X95745604Y-152453363D01*
X95760235Y-152398761D01*
X95804061Y-152235199D01*
X95804062Y-152235195D01*
X95805406Y-152230178D01*
X95825544Y-152000000D01*
X95805406Y-151769822D01*
X95745604Y-151546637D01*
X95647955Y-151337228D01*
X95515426Y-151147957D01*
X95352043Y-150984574D01*
X95347789Y-150981595D01*
X95167027Y-150855024D01*
X95167024Y-150855022D01*
X95162772Y-150852045D01*
X95058067Y-150803220D01*
X94958069Y-150756590D01*
X94958065Y-150756588D01*
X94953363Y-150754396D01*
X94902916Y-150740879D01*
X94735199Y-150695939D01*
X94735195Y-150695938D01*
X94730178Y-150694594D01*
X94500000Y-150674456D01*
X94269822Y-150694594D01*
X94264805Y-150695938D01*
X94264801Y-150695939D01*
X94097084Y-150740879D01*
X94046637Y-150754396D01*
X94041935Y-150756588D01*
X94041931Y-150756590D01*
X93941933Y-150803220D01*
X93837228Y-150852045D01*
X93832976Y-150855022D01*
X93832973Y-150855024D01*
X93652211Y-150981595D01*
X93647957Y-150984574D01*
X93484574Y-151147957D01*
X93352045Y-151337228D01*
X93254396Y-151546637D01*
X93194594Y-151769822D01*
X93174456Y-152000000D01*
X37820500Y-152000000D01*
X37820500Y-149543455D01*
X50824977Y-149543455D01*
X50825764Y-149550583D01*
X50825764Y-149550584D01*
X50826714Y-149559184D01*
X50841458Y-149692732D01*
X50893070Y-149833770D01*
X50976835Y-149958425D01*
X51087916Y-150059501D01*
X51219901Y-150131163D01*
X51226839Y-150132983D01*
X51226841Y-150132984D01*
X51327528Y-150159399D01*
X51365170Y-150169274D01*
X51372340Y-150169387D01*
X51372343Y-150169387D01*
X51437051Y-150170403D01*
X51515336Y-150171633D01*
X51522320Y-150170033D01*
X51522324Y-150170033D01*
X51654741Y-150139705D01*
X51654742Y-150139705D01*
X51661731Y-150138104D01*
X51668137Y-150134882D01*
X51668140Y-150134881D01*
X51789490Y-150073848D01*
X51789494Y-150073846D01*
X51795901Y-150070623D01*
X51910103Y-149973086D01*
X51924919Y-149952467D01*
X51993557Y-149856949D01*
X51993559Y-149856945D01*
X51997742Y-149851124D01*
X52002325Y-149839725D01*
X52051085Y-149718429D01*
X52051085Y-149718428D01*
X52053759Y-149711777D01*
X52074920Y-149563090D01*
X52075057Y-149550000D01*
X52057014Y-149400903D01*
X52003928Y-149260414D01*
X51918862Y-149136642D01*
X51806729Y-149036735D01*
X51674000Y-148966459D01*
X51528340Y-148929872D01*
X51521166Y-148929834D01*
X51521163Y-148929834D01*
X51451377Y-148929469D01*
X51378158Y-148929085D01*
X51232123Y-148964145D01*
X51225754Y-148967432D01*
X51225752Y-148967433D01*
X51105036Y-149029739D01*
X51098666Y-149033027D01*
X50985492Y-149131755D01*
X50899135Y-149254629D01*
X50844580Y-149394555D01*
X50824977Y-149543455D01*
X37820500Y-149543455D01*
X37820500Y-147043455D01*
X96374977Y-147043455D01*
X96375764Y-147050583D01*
X96375764Y-147050584D01*
X96376714Y-147059184D01*
X96391458Y-147192732D01*
X96443070Y-147333770D01*
X96526835Y-147458425D01*
X96637916Y-147559501D01*
X96769901Y-147631163D01*
X96776839Y-147632983D01*
X96776841Y-147632984D01*
X96877528Y-147659399D01*
X96915170Y-147669274D01*
X96922340Y-147669387D01*
X96922343Y-147669387D01*
X96987051Y-147670403D01*
X97065336Y-147671633D01*
X97072320Y-147670033D01*
X97072324Y-147670033D01*
X97204741Y-147639705D01*
X97204742Y-147639705D01*
X97211731Y-147638104D01*
X97218137Y-147634882D01*
X97218140Y-147634881D01*
X97339490Y-147573848D01*
X97339494Y-147573846D01*
X97345901Y-147570623D01*
X97460103Y-147473086D01*
X97474919Y-147452467D01*
X97543557Y-147356949D01*
X97543559Y-147356945D01*
X97547742Y-147351124D01*
X97552325Y-147339725D01*
X97601085Y-147218429D01*
X97601085Y-147218428D01*
X97603759Y-147211777D01*
X97624920Y-147063090D01*
X97625057Y-147050000D01*
X97607014Y-146900903D01*
X97553928Y-146760414D01*
X97468862Y-146636642D01*
X97356729Y-146536735D01*
X97224000Y-146466459D01*
X97078340Y-146429872D01*
X97071166Y-146429834D01*
X97071163Y-146429834D01*
X97001377Y-146429469D01*
X96928158Y-146429085D01*
X96782123Y-146464145D01*
X96775754Y-146467432D01*
X96775752Y-146467433D01*
X96655036Y-146529739D01*
X96648666Y-146533027D01*
X96535492Y-146631755D01*
X96449135Y-146754629D01*
X96394580Y-146894555D01*
X96374977Y-147043455D01*
X37820500Y-147043455D01*
X37820500Y-145293455D01*
X50824977Y-145293455D01*
X50825764Y-145300583D01*
X50825764Y-145300584D01*
X50826714Y-145309184D01*
X50841458Y-145442732D01*
X50893070Y-145583770D01*
X50976835Y-145708425D01*
X51087916Y-145809501D01*
X51219901Y-145881163D01*
X51226839Y-145882983D01*
X51226841Y-145882984D01*
X51327528Y-145909399D01*
X51365170Y-145919274D01*
X51372340Y-145919387D01*
X51372343Y-145919387D01*
X51437051Y-145920403D01*
X51515336Y-145921633D01*
X51522320Y-145920033D01*
X51522324Y-145920033D01*
X51654741Y-145889705D01*
X51654742Y-145889705D01*
X51661731Y-145888104D01*
X51668137Y-145884882D01*
X51668140Y-145884881D01*
X51789490Y-145823848D01*
X51789494Y-145823846D01*
X51795901Y-145820623D01*
X51910103Y-145723086D01*
X51924919Y-145702467D01*
X51993557Y-145606949D01*
X51993559Y-145606945D01*
X51997742Y-145601124D01*
X52002325Y-145589725D01*
X52051085Y-145468429D01*
X52051085Y-145468428D01*
X52053759Y-145461777D01*
X52074920Y-145313090D01*
X52075057Y-145300000D01*
X52057014Y-145150903D01*
X52003928Y-145010414D01*
X51918862Y-144886642D01*
X51806729Y-144786735D01*
X51674000Y-144716459D01*
X51528340Y-144679872D01*
X51521166Y-144679834D01*
X51521163Y-144679834D01*
X51451377Y-144679469D01*
X51378158Y-144679085D01*
X51232123Y-144714145D01*
X51225754Y-144717432D01*
X51225752Y-144717433D01*
X51105036Y-144779739D01*
X51098666Y-144783027D01*
X50985492Y-144881755D01*
X50899135Y-145004629D01*
X50844580Y-145144555D01*
X50824977Y-145293455D01*
X37820500Y-145293455D01*
X37820500Y-142993455D01*
X52674977Y-142993455D01*
X52675764Y-143000583D01*
X52675764Y-143000584D01*
X52676714Y-143009184D01*
X52691458Y-143142732D01*
X52743070Y-143283770D01*
X52826835Y-143408425D01*
X52937916Y-143509501D01*
X53069901Y-143581163D01*
X53076839Y-143582983D01*
X53076841Y-143582984D01*
X53177528Y-143609399D01*
X53215170Y-143619274D01*
X53222340Y-143619387D01*
X53222343Y-143619387D01*
X53287051Y-143620403D01*
X53365336Y-143621633D01*
X53372320Y-143620033D01*
X53372324Y-143620033D01*
X53504741Y-143589705D01*
X53504742Y-143589705D01*
X53511731Y-143588104D01*
X53518137Y-143584882D01*
X53518140Y-143584881D01*
X53639490Y-143523848D01*
X53639494Y-143523846D01*
X53645901Y-143520623D01*
X53760103Y-143423086D01*
X53763431Y-143418455D01*
X96349977Y-143418455D01*
X96350764Y-143425583D01*
X96350764Y-143425584D01*
X96360743Y-143515964D01*
X96366458Y-143567732D01*
X96418070Y-143708770D01*
X96501835Y-143833425D01*
X96612916Y-143934501D01*
X96744901Y-144006163D01*
X96751839Y-144007983D01*
X96751841Y-144007984D01*
X96852528Y-144034399D01*
X96890170Y-144044274D01*
X96897340Y-144044387D01*
X96897343Y-144044387D01*
X96962051Y-144045403D01*
X97040336Y-144046633D01*
X97047320Y-144045033D01*
X97047324Y-144045033D01*
X97179741Y-144014705D01*
X97179742Y-144014705D01*
X97186731Y-144013104D01*
X97193137Y-144009882D01*
X97193140Y-144009881D01*
X97314490Y-143948848D01*
X97314494Y-143948846D01*
X97320901Y-143945623D01*
X97435103Y-143848086D01*
X97449919Y-143827467D01*
X97518557Y-143731949D01*
X97518559Y-143731945D01*
X97522742Y-143726124D01*
X97527325Y-143714725D01*
X97576085Y-143593429D01*
X97576085Y-143593428D01*
X97578759Y-143586777D01*
X97599920Y-143438090D01*
X97600057Y-143425000D01*
X97582014Y-143275903D01*
X97577089Y-143262869D01*
X97531465Y-143142127D01*
X97531464Y-143142124D01*
X97528928Y-143135414D01*
X97443862Y-143011642D01*
X97415471Y-142986346D01*
X97337085Y-142916507D01*
X97331729Y-142911735D01*
X97199000Y-142841459D01*
X97053340Y-142804872D01*
X97046166Y-142804834D01*
X97046163Y-142804834D01*
X96976377Y-142804469D01*
X96903158Y-142804085D01*
X96757123Y-142839145D01*
X96750754Y-142842432D01*
X96750752Y-142842433D01*
X96697278Y-142870033D01*
X96623666Y-142908027D01*
X96510492Y-143006755D01*
X96424135Y-143129629D01*
X96369580Y-143269555D01*
X96349977Y-143418455D01*
X53763431Y-143418455D01*
X53774919Y-143402467D01*
X53843557Y-143306949D01*
X53843559Y-143306945D01*
X53847742Y-143301124D01*
X53852325Y-143289725D01*
X53901085Y-143168429D01*
X53901085Y-143168428D01*
X53903759Y-143161777D01*
X53924920Y-143013090D01*
X53925057Y-143000000D01*
X53907014Y-142850903D01*
X53904478Y-142844191D01*
X53856465Y-142717127D01*
X53856464Y-142717124D01*
X53853928Y-142710414D01*
X53768862Y-142586642D01*
X53656729Y-142486735D01*
X53524000Y-142416459D01*
X53378340Y-142379872D01*
X53371166Y-142379834D01*
X53371163Y-142379834D01*
X53301377Y-142379469D01*
X53228158Y-142379085D01*
X53082123Y-142414145D01*
X53075754Y-142417432D01*
X53075752Y-142417433D01*
X52958911Y-142477739D01*
X52948666Y-142483027D01*
X52835492Y-142581755D01*
X52749135Y-142704629D01*
X52694580Y-142844555D01*
X52674977Y-142993455D01*
X37820500Y-142993455D01*
X37820500Y-141843455D01*
X74274977Y-141843455D01*
X74275764Y-141850583D01*
X74275764Y-141850584D01*
X74276714Y-141859184D01*
X74291458Y-141992732D01*
X74300862Y-142018429D01*
X74331043Y-142100903D01*
X74343070Y-142133770D01*
X74358646Y-142156949D01*
X74421174Y-142250000D01*
X74426835Y-142258425D01*
X74432143Y-142263255D01*
X74503016Y-142327744D01*
X74537916Y-142359501D01*
X74544219Y-142362923D01*
X74544220Y-142362924D01*
X74577072Y-142380761D01*
X74669901Y-142431163D01*
X74676839Y-142432983D01*
X74676841Y-142432984D01*
X74777528Y-142459399D01*
X74815170Y-142469274D01*
X74822340Y-142469387D01*
X74822343Y-142469387D01*
X74887051Y-142470403D01*
X74965336Y-142471633D01*
X74972320Y-142470033D01*
X74972324Y-142470033D01*
X75104741Y-142439705D01*
X75104742Y-142439705D01*
X75111731Y-142438104D01*
X75118137Y-142434882D01*
X75118140Y-142434881D01*
X75239490Y-142373848D01*
X75239494Y-142373846D01*
X75245901Y-142370623D01*
X75360103Y-142273086D01*
X75370638Y-142258425D01*
X75443557Y-142156949D01*
X75443559Y-142156945D01*
X75447742Y-142151124D01*
X75452325Y-142139725D01*
X75501085Y-142018429D01*
X75501085Y-142018428D01*
X75503759Y-142011777D01*
X75520598Y-141893455D01*
X79174977Y-141893455D01*
X79175764Y-141900583D01*
X79175764Y-141900584D01*
X79188775Y-142018429D01*
X79191458Y-142042732D01*
X79243070Y-142183770D01*
X79258646Y-142206949D01*
X79299175Y-142267262D01*
X79326835Y-142308425D01*
X79332143Y-142313255D01*
X79395190Y-142370623D01*
X79437916Y-142409501D01*
X79569901Y-142481163D01*
X79576839Y-142482983D01*
X79576841Y-142482984D01*
X79677528Y-142509399D01*
X79715170Y-142519274D01*
X79722340Y-142519387D01*
X79722343Y-142519387D01*
X79787051Y-142520403D01*
X79865336Y-142521633D01*
X79872320Y-142520033D01*
X79872324Y-142520033D01*
X80004741Y-142489705D01*
X80004742Y-142489705D01*
X80011731Y-142488104D01*
X80018137Y-142484882D01*
X80018140Y-142484881D01*
X80139490Y-142423848D01*
X80139494Y-142423846D01*
X80145901Y-142420623D01*
X80260103Y-142323086D01*
X80303215Y-142263090D01*
X80317324Y-142243455D01*
X91674977Y-142243455D01*
X91675764Y-142250583D01*
X91675764Y-142250584D01*
X91688503Y-142365964D01*
X91691458Y-142392732D01*
X91712096Y-142449128D01*
X91738629Y-142521633D01*
X91743070Y-142533770D01*
X91826835Y-142658425D01*
X91832143Y-142663255D01*
X91891348Y-142717127D01*
X91937916Y-142759501D01*
X92069901Y-142831163D01*
X92076839Y-142832983D01*
X92076841Y-142832984D01*
X92172296Y-142858026D01*
X92215170Y-142869274D01*
X92222340Y-142869387D01*
X92222343Y-142869387D01*
X92287051Y-142870403D01*
X92365336Y-142871633D01*
X92372320Y-142870033D01*
X92372324Y-142870033D01*
X92504741Y-142839705D01*
X92504742Y-142839705D01*
X92511731Y-142838104D01*
X92518137Y-142834882D01*
X92518140Y-142834881D01*
X92639490Y-142773848D01*
X92639494Y-142773846D01*
X92645901Y-142770623D01*
X92760103Y-142673086D01*
X92774919Y-142652467D01*
X92843557Y-142556949D01*
X92843559Y-142556945D01*
X92847742Y-142551124D01*
X92852325Y-142539725D01*
X92901085Y-142418429D01*
X92901085Y-142418428D01*
X92903759Y-142411777D01*
X92924920Y-142263090D01*
X92925057Y-142250000D01*
X92907014Y-142100903D01*
X92889547Y-142054678D01*
X92856465Y-141967127D01*
X92856464Y-141967124D01*
X92853928Y-141960414D01*
X92824058Y-141916952D01*
X92772925Y-141842554D01*
X92768862Y-141836642D01*
X92680626Y-141758026D01*
X92662085Y-141741507D01*
X92656729Y-141736735D01*
X92524000Y-141666459D01*
X92378340Y-141629872D01*
X92371166Y-141629834D01*
X92371163Y-141629834D01*
X92301377Y-141629469D01*
X92228158Y-141629085D01*
X92082123Y-141664145D01*
X92075754Y-141667432D01*
X92075752Y-141667433D01*
X91958911Y-141727739D01*
X91948666Y-141733027D01*
X91835492Y-141831755D01*
X91831365Y-141837626D01*
X91831365Y-141837627D01*
X91822669Y-141850000D01*
X91749135Y-141954629D01*
X91694580Y-142094555D01*
X91674977Y-142243455D01*
X80317324Y-142243455D01*
X80343557Y-142206949D01*
X80343559Y-142206945D01*
X80347742Y-142201124D01*
X80352325Y-142189725D01*
X80401085Y-142068429D01*
X80401085Y-142068428D01*
X80403759Y-142061777D01*
X80424920Y-141913090D01*
X80425057Y-141900000D01*
X80407014Y-141750903D01*
X80402040Y-141737740D01*
X80356465Y-141617127D01*
X80356464Y-141617124D01*
X80353928Y-141610414D01*
X80268862Y-141486642D01*
X80156729Y-141386735D01*
X80024000Y-141316459D01*
X79878340Y-141279872D01*
X79871166Y-141279834D01*
X79871163Y-141279834D01*
X79801377Y-141279469D01*
X79728158Y-141279085D01*
X79582123Y-141314145D01*
X79575754Y-141317432D01*
X79575752Y-141317433D01*
X79455036Y-141379739D01*
X79448666Y-141383027D01*
X79335492Y-141481755D01*
X79331365Y-141487626D01*
X79331365Y-141487627D01*
X79285795Y-141552467D01*
X79249135Y-141604629D01*
X79194580Y-141744555D01*
X79174977Y-141893455D01*
X75520598Y-141893455D01*
X75524920Y-141863090D01*
X75525057Y-141850000D01*
X75507014Y-141700903D01*
X75495572Y-141670623D01*
X75456465Y-141567127D01*
X75456464Y-141567124D01*
X75453928Y-141560414D01*
X75368862Y-141436642D01*
X75256729Y-141336735D01*
X75124000Y-141266459D01*
X74978340Y-141229872D01*
X74971166Y-141229834D01*
X74971163Y-141229834D01*
X74901377Y-141229469D01*
X74828158Y-141229085D01*
X74682123Y-141264145D01*
X74675754Y-141267432D01*
X74675752Y-141267433D01*
X74580766Y-141316459D01*
X74548666Y-141333027D01*
X74435492Y-141431755D01*
X74431365Y-141437626D01*
X74431365Y-141437627D01*
X74400271Y-141481869D01*
X74349135Y-141554629D01*
X74294580Y-141694555D01*
X74274977Y-141843455D01*
X37820500Y-141843455D01*
X37820500Y-141143455D01*
X97124977Y-141143455D01*
X97125764Y-141150583D01*
X97125764Y-141150584D01*
X97134514Y-141229834D01*
X97141458Y-141292732D01*
X97156204Y-141333027D01*
X97176226Y-141387740D01*
X97193070Y-141433770D01*
X97276835Y-141558425D01*
X97282143Y-141563255D01*
X97341348Y-141617127D01*
X97387916Y-141659501D01*
X97519901Y-141731163D01*
X97526839Y-141732983D01*
X97526841Y-141732984D01*
X97622296Y-141758026D01*
X97665170Y-141769274D01*
X97672340Y-141769387D01*
X97672343Y-141769387D01*
X97737051Y-141770403D01*
X97815336Y-141771633D01*
X97822320Y-141770033D01*
X97822324Y-141770033D01*
X97954741Y-141739705D01*
X97954742Y-141739705D01*
X97961731Y-141738104D01*
X97968137Y-141734882D01*
X97968140Y-141734881D01*
X98089490Y-141673848D01*
X98089494Y-141673846D01*
X98095901Y-141670623D01*
X98210103Y-141573086D01*
X98227582Y-141548761D01*
X98293557Y-141456949D01*
X98293559Y-141456945D01*
X98297742Y-141451124D01*
X98302325Y-141439725D01*
X98351085Y-141318429D01*
X98351085Y-141318428D01*
X98353759Y-141311777D01*
X98374920Y-141163090D01*
X98375057Y-141150000D01*
X98357014Y-141000903D01*
X98303928Y-140860414D01*
X98218862Y-140736642D01*
X98106729Y-140636735D01*
X97974000Y-140566459D01*
X97828340Y-140529872D01*
X97821166Y-140529834D01*
X97821163Y-140529834D01*
X97751377Y-140529469D01*
X97678158Y-140529085D01*
X97532123Y-140564145D01*
X97525754Y-140567432D01*
X97525752Y-140567433D01*
X97405036Y-140629739D01*
X97398666Y-140633027D01*
X97285492Y-140731755D01*
X97199135Y-140854629D01*
X97144580Y-140994555D01*
X97124977Y-141143455D01*
X37820500Y-141143455D01*
X37820500Y-136943455D01*
X86774977Y-136943455D01*
X86775764Y-136950583D01*
X86775764Y-136950584D01*
X86790469Y-137083770D01*
X86791458Y-137092732D01*
X86800862Y-137118429D01*
X86835563Y-137213255D01*
X86843070Y-137233770D01*
X86926835Y-137358425D01*
X86932143Y-137363255D01*
X86996300Y-137421633D01*
X87037916Y-137459501D01*
X87169901Y-137531163D01*
X87176839Y-137532983D01*
X87176841Y-137532984D01*
X87277528Y-137559399D01*
X87315170Y-137569274D01*
X87322340Y-137569387D01*
X87322343Y-137569387D01*
X87387051Y-137570403D01*
X87465336Y-137571633D01*
X87472320Y-137570033D01*
X87472324Y-137570033D01*
X87604741Y-137539705D01*
X87604742Y-137539705D01*
X87611731Y-137538104D01*
X87618137Y-137534882D01*
X87618140Y-137534881D01*
X87739490Y-137473848D01*
X87739494Y-137473846D01*
X87745901Y-137470623D01*
X87860103Y-137373086D01*
X87874919Y-137352467D01*
X87943557Y-137256949D01*
X87943559Y-137256945D01*
X87947742Y-137251124D01*
X87952325Y-137239725D01*
X88001085Y-137118429D01*
X88001085Y-137118428D01*
X88003759Y-137111777D01*
X88024920Y-136963090D01*
X88025057Y-136950000D01*
X88007014Y-136800903D01*
X88004200Y-136793455D01*
X89624977Y-136793455D01*
X89625764Y-136800583D01*
X89625764Y-136800584D01*
X89626714Y-136809184D01*
X89641458Y-136942732D01*
X89693070Y-137083770D01*
X89776835Y-137208425D01*
X89782143Y-137213255D01*
X89823761Y-137251124D01*
X89887916Y-137309501D01*
X90019901Y-137381163D01*
X90026839Y-137382983D01*
X90026841Y-137382984D01*
X90127528Y-137409399D01*
X90165170Y-137419274D01*
X90172340Y-137419387D01*
X90172343Y-137419387D01*
X90237051Y-137420403D01*
X90315336Y-137421633D01*
X90322320Y-137420033D01*
X90322324Y-137420033D01*
X90454741Y-137389705D01*
X90454742Y-137389705D01*
X90461731Y-137388104D01*
X90468137Y-137384882D01*
X90468140Y-137384881D01*
X90589490Y-137323848D01*
X90589494Y-137323846D01*
X90595901Y-137320623D01*
X90710103Y-137223086D01*
X90724919Y-137202467D01*
X90793557Y-137106949D01*
X90793559Y-137106945D01*
X90797742Y-137101124D01*
X90802325Y-137089725D01*
X90851085Y-136968429D01*
X90851085Y-136968428D01*
X90853759Y-136961777D01*
X90874920Y-136813090D01*
X90875057Y-136800000D01*
X90874265Y-136793455D01*
X98374977Y-136793455D01*
X98375764Y-136800583D01*
X98375764Y-136800584D01*
X98376714Y-136809184D01*
X98391458Y-136942732D01*
X98443070Y-137083770D01*
X98526835Y-137208425D01*
X98532143Y-137213255D01*
X98573761Y-137251124D01*
X98637916Y-137309501D01*
X98769901Y-137381163D01*
X98776839Y-137382983D01*
X98776841Y-137382984D01*
X98877528Y-137409399D01*
X98915170Y-137419274D01*
X98922340Y-137419387D01*
X98922343Y-137419387D01*
X98987051Y-137420403D01*
X99065336Y-137421633D01*
X99072320Y-137420033D01*
X99072324Y-137420033D01*
X99204741Y-137389705D01*
X99204742Y-137389705D01*
X99211731Y-137388104D01*
X99218137Y-137384882D01*
X99218140Y-137384881D01*
X99339490Y-137323848D01*
X99339494Y-137323846D01*
X99345901Y-137320623D01*
X99460103Y-137223086D01*
X99474919Y-137202467D01*
X99543557Y-137106949D01*
X99543559Y-137106945D01*
X99547742Y-137101124D01*
X99552325Y-137089725D01*
X99601085Y-136968429D01*
X99601085Y-136968428D01*
X99603759Y-136961777D01*
X99624920Y-136813090D01*
X99625057Y-136800000D01*
X99607014Y-136650903D01*
X99572070Y-136558425D01*
X99556465Y-136517127D01*
X99556464Y-136517124D01*
X99553928Y-136510414D01*
X99468862Y-136386642D01*
X99384836Y-136311777D01*
X99362085Y-136291507D01*
X99356729Y-136286735D01*
X99224000Y-136216459D01*
X99078340Y-136179872D01*
X99071166Y-136179834D01*
X99071163Y-136179834D01*
X99001377Y-136179469D01*
X98928158Y-136179085D01*
X98782123Y-136214145D01*
X98775754Y-136217432D01*
X98775752Y-136217433D01*
X98655036Y-136279739D01*
X98648666Y-136283027D01*
X98535492Y-136381755D01*
X98531365Y-136387626D01*
X98531365Y-136387627D01*
X98496145Y-136437740D01*
X98449135Y-136504629D01*
X98394580Y-136644555D01*
X98374977Y-136793455D01*
X90874265Y-136793455D01*
X90857014Y-136650903D01*
X90822070Y-136558425D01*
X90806465Y-136517127D01*
X90806464Y-136517124D01*
X90803928Y-136510414D01*
X90718862Y-136386642D01*
X90634836Y-136311777D01*
X90612085Y-136291507D01*
X90606729Y-136286735D01*
X90474000Y-136216459D01*
X90328340Y-136179872D01*
X90321166Y-136179834D01*
X90321163Y-136179834D01*
X90251377Y-136179469D01*
X90178158Y-136179085D01*
X90032123Y-136214145D01*
X90025754Y-136217432D01*
X90025752Y-136217433D01*
X89905036Y-136279739D01*
X89898666Y-136283027D01*
X89785492Y-136381755D01*
X89781365Y-136387626D01*
X89781365Y-136387627D01*
X89746145Y-136437740D01*
X89699135Y-136504629D01*
X89644580Y-136644555D01*
X89624977Y-136793455D01*
X88004200Y-136793455D01*
X88002089Y-136787869D01*
X87956465Y-136667127D01*
X87956464Y-136667124D01*
X87953928Y-136660414D01*
X87947392Y-136650903D01*
X87893909Y-136573086D01*
X87868862Y-136536642D01*
X87832932Y-136504629D01*
X87762085Y-136441507D01*
X87756729Y-136436735D01*
X87624000Y-136366459D01*
X87478340Y-136329872D01*
X87471166Y-136329834D01*
X87471163Y-136329834D01*
X87401377Y-136329469D01*
X87328158Y-136329085D01*
X87182123Y-136364145D01*
X87175754Y-136367432D01*
X87175752Y-136367433D01*
X87136627Y-136387627D01*
X87048666Y-136433027D01*
X86935492Y-136531755D01*
X86931365Y-136537626D01*
X86931365Y-136537627D01*
X86910537Y-136567262D01*
X86849135Y-136654629D01*
X86794580Y-136794555D01*
X86774977Y-136943455D01*
X37820500Y-136943455D01*
X37820500Y-136143455D01*
X70774977Y-136143455D01*
X70775764Y-136150583D01*
X70775764Y-136150584D01*
X70790387Y-136283027D01*
X70791458Y-136292732D01*
X70843070Y-136433770D01*
X70926835Y-136558425D01*
X70932143Y-136563255D01*
X71032562Y-136654629D01*
X71037916Y-136659501D01*
X71169901Y-136731163D01*
X71176839Y-136732983D01*
X71176841Y-136732984D01*
X71277528Y-136759399D01*
X71315170Y-136769274D01*
X71322340Y-136769387D01*
X71322343Y-136769387D01*
X71387051Y-136770403D01*
X71465336Y-136771633D01*
X71472320Y-136770033D01*
X71472324Y-136770033D01*
X71604741Y-136739705D01*
X71604742Y-136739705D01*
X71611731Y-136738104D01*
X71618137Y-136734882D01*
X71618140Y-136734881D01*
X71739490Y-136673848D01*
X71739494Y-136673846D01*
X71745901Y-136670623D01*
X71860103Y-136573086D01*
X71889721Y-136531869D01*
X71943557Y-136456949D01*
X71943559Y-136456945D01*
X71947742Y-136451124D01*
X71952325Y-136439725D01*
X72001085Y-136318429D01*
X72001085Y-136318428D01*
X72003759Y-136311777D01*
X72024920Y-136163090D01*
X72025057Y-136150000D01*
X72007014Y-136000903D01*
X71953928Y-135860414D01*
X71868862Y-135736642D01*
X71756729Y-135636735D01*
X71624000Y-135566459D01*
X71478340Y-135529872D01*
X71471166Y-135529834D01*
X71471163Y-135529834D01*
X71401377Y-135529469D01*
X71328158Y-135529085D01*
X71182123Y-135564145D01*
X71175754Y-135567432D01*
X71175752Y-135567433D01*
X71055036Y-135629739D01*
X71048666Y-135633027D01*
X70935492Y-135731755D01*
X70849135Y-135854629D01*
X70794580Y-135994555D01*
X70774977Y-136143455D01*
X37820500Y-136143455D01*
X37820500Y-132143455D01*
X89324977Y-132143455D01*
X89325764Y-132150583D01*
X89325764Y-132150584D01*
X89336013Y-132243410D01*
X89341458Y-132292732D01*
X89393070Y-132433770D01*
X89476835Y-132558425D01*
X89587916Y-132659501D01*
X89719901Y-132731163D01*
X89726839Y-132732983D01*
X89726841Y-132732984D01*
X89827528Y-132759399D01*
X89865170Y-132769274D01*
X89872340Y-132769387D01*
X89872343Y-132769387D01*
X89937051Y-132770403D01*
X90015336Y-132771633D01*
X90022320Y-132770033D01*
X90022324Y-132770033D01*
X90154741Y-132739705D01*
X90154742Y-132739705D01*
X90161731Y-132738104D01*
X90168137Y-132734882D01*
X90168140Y-132734881D01*
X90289490Y-132673848D01*
X90289494Y-132673846D01*
X90295901Y-132670623D01*
X90410103Y-132573086D01*
X90424919Y-132552467D01*
X90493557Y-132456949D01*
X90493559Y-132456945D01*
X90497742Y-132451124D01*
X90502325Y-132439725D01*
X90551085Y-132318429D01*
X90551085Y-132318428D01*
X90553759Y-132311777D01*
X90574920Y-132163090D01*
X90575057Y-132150000D01*
X90557014Y-132000903D01*
X90503928Y-131860414D01*
X90418862Y-131736642D01*
X90306729Y-131636735D01*
X90174000Y-131566459D01*
X90028340Y-131529872D01*
X90021166Y-131529834D01*
X90021163Y-131529834D01*
X89951377Y-131529469D01*
X89878158Y-131529085D01*
X89732123Y-131564145D01*
X89725754Y-131567432D01*
X89725752Y-131567433D01*
X89605036Y-131629739D01*
X89598666Y-131633027D01*
X89485492Y-131731755D01*
X89399135Y-131854629D01*
X89344580Y-131994555D01*
X89324977Y-132143455D01*
X37820500Y-132143455D01*
X37820500Y-129750000D01*
X64674456Y-129750000D01*
X64694594Y-129980178D01*
X64695938Y-129985195D01*
X64695939Y-129985199D01*
X64738566Y-130144285D01*
X64754396Y-130203363D01*
X64852045Y-130412772D01*
X64984574Y-130602043D01*
X65147957Y-130765426D01*
X65152209Y-130768403D01*
X65152211Y-130768405D01*
X65332973Y-130894976D01*
X65332976Y-130894978D01*
X65337228Y-130897955D01*
X65441933Y-130946780D01*
X65541931Y-130993410D01*
X65541935Y-130993412D01*
X65546637Y-130995604D01*
X65551658Y-130996949D01*
X65551657Y-130996949D01*
X65764801Y-131054061D01*
X65764805Y-131054062D01*
X65769822Y-131055406D01*
X66000000Y-131075544D01*
X66230178Y-131055406D01*
X66235195Y-131054062D01*
X66235199Y-131054061D01*
X66436957Y-131000000D01*
X99674456Y-131000000D01*
X99694594Y-131230178D01*
X99754396Y-131453363D01*
X99852045Y-131662772D01*
X99855022Y-131667024D01*
X99855024Y-131667027D01*
X99900347Y-131731755D01*
X99984574Y-131852043D01*
X100147957Y-132015426D01*
X100152209Y-132018403D01*
X100152211Y-132018405D01*
X100332973Y-132144976D01*
X100332976Y-132144978D01*
X100337228Y-132147955D01*
X100441932Y-132196779D01*
X100541931Y-132243410D01*
X100541935Y-132243412D01*
X100546637Y-132245604D01*
X100551658Y-132246949D01*
X100551657Y-132246949D01*
X100764801Y-132304061D01*
X100764805Y-132304062D01*
X100769822Y-132305406D01*
X101000000Y-132325544D01*
X101230178Y-132305406D01*
X101235195Y-132304062D01*
X101235199Y-132304061D01*
X101448343Y-132246949D01*
X101448342Y-132246949D01*
X101453363Y-132245604D01*
X101458065Y-132243412D01*
X101458069Y-132243410D01*
X101558068Y-132196779D01*
X101662772Y-132147955D01*
X101667024Y-132144978D01*
X101667027Y-132144976D01*
X101847789Y-132018405D01*
X101847791Y-132018403D01*
X101852043Y-132015426D01*
X102015426Y-131852043D01*
X102099653Y-131731755D01*
X102144976Y-131667027D01*
X102144978Y-131667024D01*
X102147955Y-131662772D01*
X102245604Y-131453363D01*
X102305406Y-131230178D01*
X102325544Y-131000000D01*
X102305406Y-130769822D01*
X102303245Y-130761754D01*
X102246949Y-130551657D01*
X102245604Y-130546637D01*
X102147955Y-130337228D01*
X102015426Y-130147957D01*
X101852043Y-129984574D01*
X101838370Y-129975000D01*
X101667027Y-129855024D01*
X101667024Y-129855022D01*
X101662772Y-129852045D01*
X101558067Y-129803220D01*
X101458069Y-129756590D01*
X101458065Y-129756588D01*
X101453363Y-129754396D01*
X101339356Y-129723848D01*
X101235199Y-129695939D01*
X101235195Y-129695938D01*
X101230178Y-129694594D01*
X101000000Y-129674456D01*
X100769822Y-129694594D01*
X100764805Y-129695938D01*
X100764801Y-129695939D01*
X100660644Y-129723848D01*
X100546637Y-129754396D01*
X100541935Y-129756588D01*
X100541931Y-129756590D01*
X100441933Y-129803220D01*
X100337228Y-129852045D01*
X100332976Y-129855022D01*
X100332973Y-129855024D01*
X100161630Y-129975000D01*
X100147957Y-129984574D01*
X99984574Y-130147957D01*
X99852045Y-130337228D01*
X99754396Y-130546637D01*
X99753051Y-130551657D01*
X99696756Y-130761754D01*
X99694594Y-130769822D01*
X99674456Y-131000000D01*
X66436957Y-131000000D01*
X66448343Y-130996949D01*
X66448342Y-130996949D01*
X66453363Y-130995604D01*
X66458065Y-130993412D01*
X66458069Y-130993410D01*
X66558067Y-130946780D01*
X66662772Y-130897955D01*
X66667024Y-130894978D01*
X66667027Y-130894976D01*
X66847789Y-130768405D01*
X66847791Y-130768403D01*
X66852043Y-130765426D01*
X67015426Y-130602043D01*
X67147955Y-130412772D01*
X67245604Y-130203363D01*
X67261434Y-130144285D01*
X67304061Y-129985199D01*
X67304062Y-129985195D01*
X67305406Y-129980178D01*
X67325544Y-129750000D01*
X67305406Y-129519822D01*
X67298613Y-129494468D01*
X67250057Y-129313255D01*
X67245604Y-129296637D01*
X67147955Y-129087228D01*
X67125164Y-129054678D01*
X67018405Y-128902211D01*
X67018403Y-128902209D01*
X67015426Y-128897957D01*
X66852043Y-128734574D01*
X66847789Y-128731595D01*
X66667027Y-128605024D01*
X66667024Y-128605022D01*
X66662772Y-128602045D01*
X66520276Y-128535598D01*
X66458069Y-128506590D01*
X66458065Y-128506588D01*
X66453363Y-128504396D01*
X66369291Y-128481869D01*
X66235199Y-128445939D01*
X66235195Y-128445938D01*
X66230178Y-128444594D01*
X66000000Y-128424456D01*
X65769822Y-128444594D01*
X65764805Y-128445938D01*
X65764801Y-128445939D01*
X65630709Y-128481869D01*
X65546637Y-128504396D01*
X65541935Y-128506588D01*
X65541931Y-128506590D01*
X65479724Y-128535598D01*
X65337228Y-128602045D01*
X65332976Y-128605022D01*
X65332973Y-128605024D01*
X65152211Y-128731595D01*
X65147957Y-128734574D01*
X64984574Y-128897957D01*
X64981597Y-128902209D01*
X64981595Y-128902211D01*
X64874837Y-129054678D01*
X64852045Y-129087228D01*
X64754396Y-129296637D01*
X64749943Y-129313255D01*
X64701388Y-129494468D01*
X64694594Y-129519822D01*
X64674456Y-129750000D01*
X37820500Y-129750000D01*
X37820500Y-128393455D01*
X70774977Y-128393455D01*
X70775764Y-128400583D01*
X70775764Y-128400584D01*
X70787468Y-128506590D01*
X70791458Y-128542732D01*
X70843070Y-128683770D01*
X70926835Y-128808425D01*
X70932143Y-128813255D01*
X71032562Y-128904629D01*
X71037916Y-128909501D01*
X71169901Y-128981163D01*
X71176839Y-128982983D01*
X71176841Y-128982984D01*
X71277528Y-129009399D01*
X71315170Y-129019274D01*
X71322340Y-129019387D01*
X71322343Y-129019387D01*
X71387051Y-129020403D01*
X71465336Y-129021633D01*
X71472320Y-129020033D01*
X71472324Y-129020033D01*
X71604741Y-128989705D01*
X71604742Y-128989705D01*
X71611731Y-128988104D01*
X71618137Y-128984882D01*
X71618140Y-128984881D01*
X71739490Y-128923848D01*
X71739494Y-128923846D01*
X71745901Y-128920623D01*
X71777711Y-128893455D01*
X79124977Y-128893455D01*
X79125764Y-128900583D01*
X79125764Y-128900584D01*
X79139129Y-129021633D01*
X79141458Y-129042732D01*
X79193070Y-129183770D01*
X79235739Y-129247268D01*
X79268914Y-129296637D01*
X79276835Y-129308425D01*
X79387916Y-129409501D01*
X79519901Y-129481163D01*
X79526839Y-129482983D01*
X79526841Y-129482984D01*
X79595987Y-129501124D01*
X79665170Y-129519274D01*
X79672340Y-129519387D01*
X79672343Y-129519387D01*
X79737051Y-129520403D01*
X79815336Y-129521633D01*
X79822320Y-129520033D01*
X79822324Y-129520033D01*
X79954741Y-129489705D01*
X79954742Y-129489705D01*
X79961731Y-129488104D01*
X79968137Y-129484882D01*
X79968140Y-129484881D01*
X80089490Y-129423848D01*
X80089494Y-129423846D01*
X80095901Y-129420623D01*
X80210103Y-129323086D01*
X80232490Y-129291931D01*
X80293557Y-129206949D01*
X80293559Y-129206945D01*
X80297742Y-129201124D01*
X80300825Y-129193455D01*
X82624977Y-129193455D01*
X82625764Y-129200583D01*
X82625764Y-129200584D01*
X82638204Y-129313255D01*
X82641458Y-129342732D01*
X82693070Y-129483770D01*
X82776835Y-129608425D01*
X82782143Y-129613255D01*
X82873012Y-129695939D01*
X82887916Y-129709501D01*
X83019901Y-129781163D01*
X83026839Y-129782983D01*
X83026841Y-129782984D01*
X83127528Y-129809399D01*
X83165170Y-129819274D01*
X83172340Y-129819387D01*
X83172343Y-129819387D01*
X83237051Y-129820403D01*
X83315336Y-129821633D01*
X83322320Y-129820033D01*
X83322324Y-129820033D01*
X83454741Y-129789705D01*
X83454742Y-129789705D01*
X83461731Y-129788104D01*
X83468137Y-129784882D01*
X83468140Y-129784881D01*
X83589490Y-129723848D01*
X83589494Y-129723846D01*
X83595901Y-129720623D01*
X83710103Y-129623086D01*
X83724919Y-129602467D01*
X83793557Y-129506949D01*
X83793559Y-129506945D01*
X83797742Y-129501124D01*
X83802325Y-129489725D01*
X83851085Y-129368429D01*
X83851085Y-129368428D01*
X83853759Y-129361777D01*
X83874920Y-129213090D01*
X83875057Y-129200000D01*
X83874265Y-129193455D01*
X91374977Y-129193455D01*
X91375764Y-129200583D01*
X91375764Y-129200584D01*
X91388204Y-129313255D01*
X91391458Y-129342732D01*
X91443070Y-129483770D01*
X91526835Y-129608425D01*
X91532143Y-129613255D01*
X91623012Y-129695939D01*
X91637916Y-129709501D01*
X91769901Y-129781163D01*
X91776839Y-129782983D01*
X91776841Y-129782984D01*
X91877528Y-129809399D01*
X91915170Y-129819274D01*
X91922340Y-129819387D01*
X91922343Y-129819387D01*
X91987051Y-129820403D01*
X92065336Y-129821633D01*
X92072320Y-129820033D01*
X92072324Y-129820033D01*
X92204741Y-129789705D01*
X92204742Y-129789705D01*
X92211731Y-129788104D01*
X92218137Y-129784882D01*
X92218140Y-129784881D01*
X92339490Y-129723848D01*
X92339494Y-129723846D01*
X92345901Y-129720623D01*
X92460103Y-129623086D01*
X92474919Y-129602467D01*
X92543557Y-129506949D01*
X92543559Y-129506945D01*
X92547742Y-129501124D01*
X92552325Y-129489725D01*
X92601085Y-129368429D01*
X92601085Y-129368428D01*
X92603759Y-129361777D01*
X92624920Y-129213090D01*
X92625057Y-129200000D01*
X92607014Y-129050903D01*
X92604478Y-129044191D01*
X92556465Y-128917127D01*
X92556464Y-128917124D01*
X92553928Y-128910414D01*
X92549449Y-128903896D01*
X92493909Y-128823086D01*
X92468862Y-128786642D01*
X92428750Y-128750903D01*
X92362085Y-128691507D01*
X92356729Y-128686735D01*
X92224000Y-128616459D01*
X92078340Y-128579872D01*
X92071166Y-128579834D01*
X92071163Y-128579834D01*
X92001377Y-128579469D01*
X91928158Y-128579085D01*
X91782123Y-128614145D01*
X91775754Y-128617432D01*
X91775752Y-128617433D01*
X91660281Y-128677032D01*
X91648666Y-128683027D01*
X91535492Y-128781755D01*
X91531365Y-128787626D01*
X91531365Y-128787627D01*
X91510537Y-128817262D01*
X91449135Y-128904629D01*
X91394580Y-129044555D01*
X91374977Y-129193455D01*
X83874265Y-129193455D01*
X83857014Y-129050903D01*
X83854478Y-129044191D01*
X83806465Y-128917127D01*
X83806464Y-128917124D01*
X83803928Y-128910414D01*
X83799449Y-128903896D01*
X83743909Y-128823086D01*
X83718862Y-128786642D01*
X83678750Y-128750903D01*
X83612085Y-128691507D01*
X83606729Y-128686735D01*
X83474000Y-128616459D01*
X83328340Y-128579872D01*
X83321166Y-128579834D01*
X83321163Y-128579834D01*
X83251377Y-128579469D01*
X83178158Y-128579085D01*
X83032123Y-128614145D01*
X83025754Y-128617432D01*
X83025752Y-128617433D01*
X82910281Y-128677032D01*
X82898666Y-128683027D01*
X82785492Y-128781755D01*
X82781365Y-128787626D01*
X82781365Y-128787627D01*
X82760537Y-128817262D01*
X82699135Y-128904629D01*
X82644580Y-129044555D01*
X82624977Y-129193455D01*
X80300825Y-129193455D01*
X80302325Y-129189725D01*
X80351085Y-129068429D01*
X80351085Y-129068428D01*
X80353759Y-129061777D01*
X80374920Y-128913090D01*
X80375057Y-128900000D01*
X80357014Y-128750903D01*
X80354478Y-128744191D01*
X80306465Y-128617127D01*
X80306464Y-128617124D01*
X80303928Y-128610414D01*
X80296669Y-128599851D01*
X80231064Y-128504396D01*
X80218862Y-128486642D01*
X80149575Y-128424909D01*
X80112085Y-128391507D01*
X80106729Y-128386735D01*
X79974000Y-128316459D01*
X79828340Y-128279872D01*
X79821166Y-128279834D01*
X79821163Y-128279834D01*
X79751377Y-128279469D01*
X79678158Y-128279085D01*
X79532123Y-128314145D01*
X79525754Y-128317432D01*
X79525752Y-128317433D01*
X79405036Y-128379739D01*
X79398666Y-128383027D01*
X79285492Y-128481755D01*
X79281365Y-128487626D01*
X79281365Y-128487627D01*
X79217061Y-128579123D01*
X79199135Y-128604629D01*
X79144580Y-128744555D01*
X79124977Y-128893455D01*
X71777711Y-128893455D01*
X71860103Y-128823086D01*
X71889721Y-128781869D01*
X71943557Y-128706949D01*
X71943559Y-128706945D01*
X71947742Y-128701124D01*
X71952325Y-128689725D01*
X72001085Y-128568429D01*
X72001085Y-128568428D01*
X72003759Y-128561777D01*
X72024920Y-128413090D01*
X72025057Y-128400000D01*
X72007014Y-128250903D01*
X71953928Y-128110414D01*
X71868862Y-127986642D01*
X71756729Y-127886735D01*
X71624000Y-127816459D01*
X71478340Y-127779872D01*
X71471166Y-127779834D01*
X71471163Y-127779834D01*
X71401377Y-127779469D01*
X71328158Y-127779085D01*
X71182123Y-127814145D01*
X71175754Y-127817432D01*
X71175752Y-127817433D01*
X71055036Y-127879739D01*
X71048666Y-127883027D01*
X70935492Y-127981755D01*
X70849135Y-128104629D01*
X70794580Y-128244555D01*
X70774977Y-128393455D01*
X37820500Y-128393455D01*
X37820500Y-125743455D01*
X62924977Y-125743455D01*
X62925764Y-125750583D01*
X62925764Y-125750584D01*
X62926714Y-125759184D01*
X62941458Y-125892732D01*
X62993070Y-126033770D01*
X63076835Y-126158425D01*
X63187916Y-126259501D01*
X63319901Y-126331163D01*
X63326839Y-126332983D01*
X63326841Y-126332984D01*
X63399490Y-126352043D01*
X63465170Y-126369274D01*
X63472340Y-126369387D01*
X63472343Y-126369387D01*
X63537051Y-126370403D01*
X63615336Y-126371633D01*
X63622320Y-126370033D01*
X63622324Y-126370033D01*
X63754741Y-126339705D01*
X63754742Y-126339705D01*
X63761731Y-126338104D01*
X63768137Y-126334882D01*
X63768140Y-126334881D01*
X63889490Y-126273848D01*
X63889494Y-126273846D01*
X63895901Y-126270623D01*
X64010103Y-126173086D01*
X64024919Y-126152467D01*
X64093557Y-126056949D01*
X64093559Y-126056945D01*
X64097742Y-126051124D01*
X64102325Y-126039725D01*
X64151085Y-125918429D01*
X64151085Y-125918428D01*
X64153759Y-125911777D01*
X64174920Y-125763090D01*
X64175057Y-125750000D01*
X64157014Y-125600903D01*
X64120843Y-125505178D01*
X64118886Y-125500000D01*
X78424456Y-125500000D01*
X78444594Y-125730178D01*
X78445938Y-125735195D01*
X78445939Y-125735199D01*
X78486238Y-125885598D01*
X78504396Y-125953363D01*
X78602045Y-126162772D01*
X78605022Y-126167024D01*
X78605024Y-126167027D01*
X78725935Y-126339705D01*
X78734574Y-126352043D01*
X78897957Y-126515426D01*
X78902209Y-126518403D01*
X78902211Y-126518405D01*
X79082973Y-126644976D01*
X79082976Y-126644978D01*
X79087228Y-126647955D01*
X79191932Y-126696779D01*
X79291931Y-126743410D01*
X79291935Y-126743412D01*
X79296637Y-126745604D01*
X79301658Y-126746949D01*
X79301657Y-126746949D01*
X79514801Y-126804061D01*
X79514805Y-126804062D01*
X79519822Y-126805406D01*
X79750000Y-126825544D01*
X79980178Y-126805406D01*
X79985195Y-126804062D01*
X79985199Y-126804061D01*
X80198343Y-126746949D01*
X80198342Y-126746949D01*
X80203363Y-126745604D01*
X80208065Y-126743412D01*
X80208069Y-126743410D01*
X80308068Y-126696779D01*
X80412772Y-126647955D01*
X80417024Y-126644978D01*
X80417027Y-126644976D01*
X80597789Y-126518405D01*
X80597791Y-126518403D01*
X80602043Y-126515426D01*
X80765426Y-126352043D01*
X80774065Y-126339705D01*
X80894976Y-126167027D01*
X80894978Y-126167024D01*
X80897955Y-126162772D01*
X80995604Y-125953363D01*
X81013762Y-125885598D01*
X81054061Y-125735199D01*
X81054062Y-125735195D01*
X81055406Y-125730178D01*
X81075544Y-125500000D01*
X81055406Y-125269822D01*
X81046541Y-125236735D01*
X80996949Y-125051657D01*
X80995604Y-125046637D01*
X80984978Y-125023848D01*
X80900149Y-124841934D01*
X80897955Y-124837228D01*
X80876754Y-124806949D01*
X80768405Y-124652211D01*
X80768403Y-124652209D01*
X80765426Y-124647957D01*
X80602043Y-124484574D01*
X80421314Y-124358026D01*
X80417027Y-124355024D01*
X80417024Y-124355022D01*
X80412772Y-124352045D01*
X80308067Y-124303220D01*
X80208069Y-124256590D01*
X80208065Y-124256588D01*
X80203363Y-124254396D01*
X80064273Y-124217127D01*
X79985199Y-124195939D01*
X79985195Y-124195938D01*
X79980178Y-124194594D01*
X79750000Y-124174456D01*
X79519822Y-124194594D01*
X79514805Y-124195938D01*
X79514801Y-124195939D01*
X79435727Y-124217127D01*
X79296637Y-124254396D01*
X79291935Y-124256588D01*
X79291931Y-124256590D01*
X79191933Y-124303220D01*
X79087228Y-124352045D01*
X79082976Y-124355022D01*
X79082973Y-124355024D01*
X79078686Y-124358026D01*
X78897957Y-124484574D01*
X78734574Y-124647957D01*
X78731597Y-124652209D01*
X78731595Y-124652211D01*
X78623247Y-124806949D01*
X78602045Y-124837228D01*
X78599851Y-124841934D01*
X78515023Y-125023848D01*
X78504396Y-125046637D01*
X78503051Y-125051657D01*
X78453460Y-125236735D01*
X78444594Y-125269822D01*
X78424456Y-125500000D01*
X64118886Y-125500000D01*
X64106465Y-125467127D01*
X64106464Y-125467124D01*
X64103928Y-125460414D01*
X64018862Y-125336642D01*
X63906729Y-125236735D01*
X63774000Y-125166459D01*
X63628340Y-125129872D01*
X63621166Y-125129834D01*
X63621163Y-125129834D01*
X63551377Y-125129469D01*
X63478158Y-125129085D01*
X63332123Y-125164145D01*
X63325754Y-125167432D01*
X63325752Y-125167433D01*
X63205036Y-125229739D01*
X63198666Y-125233027D01*
X63085492Y-125331755D01*
X62999135Y-125454629D01*
X62944580Y-125594555D01*
X62924977Y-125743455D01*
X37820500Y-125743455D01*
X37820500Y-124493455D01*
X56924977Y-124493455D01*
X56925764Y-124500583D01*
X56925764Y-124500584D01*
X56926714Y-124509184D01*
X56941458Y-124642732D01*
X56993070Y-124783770D01*
X57076835Y-124908425D01*
X57187916Y-125009501D01*
X57319901Y-125081163D01*
X57326839Y-125082983D01*
X57326841Y-125082984D01*
X57427528Y-125109399D01*
X57465170Y-125119274D01*
X57472340Y-125119387D01*
X57472343Y-125119387D01*
X57537051Y-125120403D01*
X57615336Y-125121633D01*
X57622320Y-125120033D01*
X57622324Y-125120033D01*
X57754741Y-125089705D01*
X57754742Y-125089705D01*
X57761731Y-125088104D01*
X57768137Y-125084882D01*
X57768140Y-125084881D01*
X57889490Y-125023848D01*
X57889494Y-125023846D01*
X57895901Y-125020623D01*
X58010103Y-124923086D01*
X58071799Y-124837228D01*
X58093557Y-124806949D01*
X58093559Y-124806945D01*
X58097742Y-124801124D01*
X58102325Y-124789725D01*
X58151085Y-124668429D01*
X58151085Y-124668428D01*
X58153759Y-124661777D01*
X58174920Y-124513090D01*
X58175057Y-124500000D01*
X58157014Y-124350903D01*
X58152089Y-124337869D01*
X58106465Y-124217127D01*
X58106464Y-124217124D01*
X58103928Y-124210414D01*
X58018862Y-124086642D01*
X57906729Y-123986735D01*
X57774000Y-123916459D01*
X57628340Y-123879872D01*
X57621166Y-123879834D01*
X57621163Y-123879834D01*
X57551377Y-123879469D01*
X57478158Y-123879085D01*
X57332123Y-123914145D01*
X57325754Y-123917432D01*
X57325752Y-123917433D01*
X57205036Y-123979739D01*
X57198666Y-123983027D01*
X57085492Y-124081755D01*
X56999135Y-124204629D01*
X56944580Y-124344555D01*
X56924977Y-124493455D01*
X37820500Y-124493455D01*
X37820500Y-121500000D01*
X82924456Y-121500000D01*
X82944594Y-121730178D01*
X83004396Y-121953363D01*
X83102045Y-122162772D01*
X83234574Y-122352043D01*
X83397957Y-122515426D01*
X83402209Y-122518403D01*
X83402211Y-122518405D01*
X83582973Y-122644976D01*
X83582976Y-122644978D01*
X83587228Y-122647955D01*
X83691932Y-122696779D01*
X83791931Y-122743410D01*
X83791935Y-122743412D01*
X83796637Y-122745604D01*
X83801658Y-122746949D01*
X83801657Y-122746949D01*
X84014801Y-122804061D01*
X84014805Y-122804062D01*
X84019822Y-122805406D01*
X84250000Y-122825544D01*
X84480178Y-122805406D01*
X84485195Y-122804062D01*
X84485199Y-122804061D01*
X84698343Y-122746949D01*
X84698342Y-122746949D01*
X84703363Y-122745604D01*
X84708065Y-122743412D01*
X84708069Y-122743410D01*
X84808067Y-122696780D01*
X84912772Y-122647955D01*
X84917024Y-122644978D01*
X84917027Y-122644976D01*
X85097789Y-122518405D01*
X85097791Y-122518403D01*
X85102043Y-122515426D01*
X85265426Y-122352043D01*
X85397955Y-122162772D01*
X85495604Y-121953363D01*
X85555406Y-121730178D01*
X85575544Y-121500000D01*
X85555406Y-121269822D01*
X85495604Y-121046637D01*
X85397955Y-120837228D01*
X85265426Y-120647957D01*
X85102043Y-120484574D01*
X85097789Y-120481595D01*
X84917027Y-120355024D01*
X84917024Y-120355022D01*
X84912772Y-120352045D01*
X84808068Y-120303221D01*
X84708069Y-120256590D01*
X84708065Y-120256588D01*
X84703363Y-120254396D01*
X84652916Y-120240879D01*
X84485199Y-120195939D01*
X84485195Y-120195938D01*
X84480178Y-120194594D01*
X84250000Y-120174456D01*
X84019822Y-120194594D01*
X84014805Y-120195938D01*
X84014801Y-120195939D01*
X83847084Y-120240879D01*
X83796637Y-120254396D01*
X83791935Y-120256588D01*
X83791931Y-120256590D01*
X83691932Y-120303221D01*
X83587228Y-120352045D01*
X83582976Y-120355022D01*
X83582973Y-120355024D01*
X83402211Y-120481595D01*
X83397957Y-120484574D01*
X83234574Y-120647957D01*
X83102045Y-120837228D01*
X83004396Y-121046637D01*
X82944594Y-121269822D01*
X82924456Y-121500000D01*
X37820500Y-121500000D01*
X37820500Y-110925000D01*
X46044521Y-110925000D01*
X46064416Y-111228536D01*
X46065178Y-111232366D01*
X46122388Y-111519978D01*
X46123760Y-111526878D01*
X46125009Y-111530558D01*
X46125010Y-111530561D01*
X46199904Y-111751190D01*
X46221538Y-111814922D01*
X46356076Y-112087739D01*
X46525073Y-112340662D01*
X46725638Y-112569362D01*
X46954338Y-112769927D01*
X47207260Y-112938924D01*
X47480078Y-113073462D01*
X47483759Y-113074712D01*
X47483765Y-113074714D01*
X47764439Y-113169990D01*
X47764442Y-113169991D01*
X47768122Y-113171240D01*
X47771936Y-113171999D01*
X47771941Y-113172000D01*
X47970143Y-113211425D01*
X48066464Y-113230584D01*
X48370000Y-113250479D01*
X48673536Y-113230584D01*
X48769857Y-113211425D01*
X48968059Y-113172000D01*
X48968064Y-113171999D01*
X48971878Y-113171240D01*
X48975558Y-113169991D01*
X48975561Y-113169990D01*
X49256235Y-113074714D01*
X49256241Y-113074712D01*
X49259922Y-113073462D01*
X49532740Y-112938924D01*
X49785662Y-112769927D01*
X50014362Y-112569362D01*
X50214927Y-112340662D01*
X50383924Y-112087739D01*
X50518462Y-111814922D01*
X50540097Y-111751190D01*
X50614990Y-111530561D01*
X50614991Y-111530558D01*
X50616240Y-111526878D01*
X50617613Y-111519978D01*
X50674822Y-111232366D01*
X50675584Y-111228536D01*
X50695479Y-110925000D01*
X50675584Y-110621464D01*
X50656425Y-110525143D01*
X50617000Y-110326941D01*
X50616999Y-110326936D01*
X50616240Y-110323122D01*
X50614990Y-110319439D01*
X50519714Y-110038765D01*
X50519712Y-110038759D01*
X50518462Y-110035078D01*
X50383924Y-109762261D01*
X50381292Y-109758321D01*
X50293204Y-109626488D01*
X50214927Y-109509338D01*
X50014362Y-109280638D01*
X49785662Y-109080073D01*
X49532740Y-108911076D01*
X49259922Y-108776538D01*
X49256241Y-108775288D01*
X49256235Y-108775286D01*
X48975561Y-108680010D01*
X48975558Y-108680009D01*
X48971878Y-108678760D01*
X48968064Y-108678001D01*
X48968059Y-108678000D01*
X48754486Y-108635518D01*
X48673536Y-108619416D01*
X48370000Y-108599521D01*
X48066464Y-108619416D01*
X47985514Y-108635518D01*
X47771941Y-108678000D01*
X47771936Y-108678001D01*
X47768122Y-108678760D01*
X47764442Y-108680009D01*
X47764439Y-108680010D01*
X47483765Y-108775286D01*
X47483759Y-108775288D01*
X47480078Y-108776538D01*
X47207261Y-108911076D01*
X46954338Y-109080073D01*
X46725638Y-109280638D01*
X46525073Y-109509338D01*
X46446796Y-109626488D01*
X46358709Y-109758321D01*
X46356076Y-109762261D01*
X46221538Y-110035078D01*
X46220288Y-110038759D01*
X46220286Y-110038765D01*
X46125010Y-110319439D01*
X46123760Y-110323122D01*
X46123001Y-110326936D01*
X46123000Y-110326941D01*
X46083575Y-110525143D01*
X46064416Y-110621464D01*
X46047403Y-110881036D01*
X46044521Y-110925000D01*
X37820500Y-110925000D01*
X37820500Y-108546729D01*
X59074888Y-108546729D01*
X59075245Y-108552173D01*
X59088601Y-108755952D01*
X59088602Y-108755957D01*
X59088958Y-108761391D01*
X59090299Y-108766671D01*
X59140569Y-108964613D01*
X59140571Y-108964618D01*
X59141911Y-108969895D01*
X59144193Y-108974845D01*
X59144194Y-108974848D01*
X59193888Y-109082642D01*
X59231974Y-109165257D01*
X59290108Y-109247515D01*
X59302296Y-109264761D01*
X59324000Y-109328204D01*
X59307959Y-109393309D01*
X59255408Y-109441291D01*
X59222770Y-109456511D01*
X59222768Y-109456512D01*
X59213333Y-109460912D01*
X59133412Y-109540833D01*
X59085645Y-109643269D01*
X59084457Y-109652291D01*
X59084457Y-109652292D01*
X59080008Y-109686087D01*
X59079500Y-109689946D01*
X59079500Y-111465054D01*
X59080008Y-111468912D01*
X59080008Y-111468913D01*
X59082421Y-111487238D01*
X59085645Y-111511731D01*
X59133412Y-111614167D01*
X59213333Y-111694088D01*
X59315769Y-111741855D01*
X59324791Y-111743043D01*
X59324792Y-111743043D01*
X59358587Y-111747492D01*
X59362446Y-111748000D01*
X61137554Y-111748000D01*
X61141413Y-111747492D01*
X61175208Y-111743043D01*
X61175209Y-111743043D01*
X61184231Y-111741855D01*
X61286667Y-111694088D01*
X61366588Y-111614167D01*
X61414355Y-111511731D01*
X61417580Y-111487238D01*
X61419992Y-111468913D01*
X61419992Y-111468912D01*
X61420500Y-111465054D01*
X61420500Y-111031988D01*
X61439391Y-110967652D01*
X61490066Y-110923742D01*
X61556435Y-110914199D01*
X61617428Y-110942054D01*
X61647569Y-110982168D01*
X61731974Y-111165257D01*
X61856131Y-111340936D01*
X62010224Y-111491047D01*
X62014758Y-111494076D01*
X62014761Y-111494079D01*
X62184555Y-111607531D01*
X62189093Y-111610563D01*
X62277904Y-111648719D01*
X62381729Y-111693326D01*
X62381733Y-111693327D01*
X62386746Y-111695481D01*
X62596565Y-111742958D01*
X62657242Y-111745342D01*
X62806066Y-111751190D01*
X62806070Y-111751190D01*
X62811522Y-111751404D01*
X62917970Y-111735970D01*
X63019014Y-111721319D01*
X63019017Y-111721318D01*
X63024419Y-111720535D01*
X63029584Y-111718782D01*
X63029587Y-111718781D01*
X63222958Y-111653140D01*
X63228125Y-111651386D01*
X63415819Y-111546273D01*
X63581215Y-111408715D01*
X63718773Y-111243319D01*
X63823886Y-111055625D01*
X63848821Y-110982168D01*
X63868227Y-110925000D01*
X94304521Y-110925000D01*
X94324416Y-111228536D01*
X94325178Y-111232366D01*
X94382388Y-111519978D01*
X94383760Y-111526878D01*
X94385009Y-111530558D01*
X94385010Y-111530561D01*
X94459904Y-111751190D01*
X94481538Y-111814922D01*
X94616076Y-112087739D01*
X94785073Y-112340662D01*
X94985638Y-112569362D01*
X95214338Y-112769927D01*
X95467260Y-112938924D01*
X95740078Y-113073462D01*
X95743759Y-113074712D01*
X95743765Y-113074714D01*
X96024439Y-113169990D01*
X96024442Y-113169991D01*
X96028122Y-113171240D01*
X96031936Y-113171999D01*
X96031941Y-113172000D01*
X96230143Y-113211425D01*
X96326464Y-113230584D01*
X96630000Y-113250479D01*
X96933536Y-113230584D01*
X97029857Y-113211425D01*
X97228059Y-113172000D01*
X97228064Y-113171999D01*
X97231878Y-113171240D01*
X97235558Y-113169991D01*
X97235561Y-113169990D01*
X97516235Y-113074714D01*
X97516241Y-113074712D01*
X97519922Y-113073462D01*
X97792740Y-112938924D01*
X98045662Y-112769927D01*
X98274362Y-112569362D01*
X98474927Y-112340662D01*
X98643924Y-112087739D01*
X98778462Y-111814922D01*
X98800097Y-111751190D01*
X98874990Y-111530561D01*
X98874991Y-111530558D01*
X98876240Y-111526878D01*
X98877613Y-111519978D01*
X98934822Y-111232366D01*
X98935584Y-111228536D01*
X98955479Y-110925000D01*
X98935584Y-110621464D01*
X98916425Y-110525143D01*
X98877000Y-110326941D01*
X98876999Y-110326936D01*
X98876240Y-110323122D01*
X98874990Y-110319439D01*
X98779714Y-110038765D01*
X98779712Y-110038759D01*
X98778462Y-110035078D01*
X98643924Y-109762261D01*
X98641292Y-109758321D01*
X98553204Y-109626488D01*
X98474927Y-109509338D01*
X98274362Y-109280638D01*
X98045662Y-109080073D01*
X97792740Y-108911076D01*
X97519922Y-108776538D01*
X97516241Y-108775288D01*
X97516235Y-108775286D01*
X97235561Y-108680010D01*
X97235558Y-108680009D01*
X97231878Y-108678760D01*
X97228064Y-108678001D01*
X97228059Y-108678000D01*
X97014486Y-108635518D01*
X96933536Y-108619416D01*
X96630000Y-108599521D01*
X96326464Y-108619416D01*
X96245514Y-108635518D01*
X96031941Y-108678000D01*
X96031936Y-108678001D01*
X96028122Y-108678760D01*
X96024442Y-108680009D01*
X96024439Y-108680010D01*
X95743765Y-108775286D01*
X95743759Y-108775288D01*
X95740078Y-108776538D01*
X95467261Y-108911076D01*
X95214338Y-109080073D01*
X94985638Y-109280638D01*
X94785073Y-109509338D01*
X94706796Y-109626488D01*
X94618709Y-109758321D01*
X94616076Y-109762261D01*
X94481538Y-110035078D01*
X94480288Y-110038759D01*
X94480286Y-110038765D01*
X94385010Y-110319439D01*
X94383760Y-110323122D01*
X94383001Y-110326936D01*
X94383000Y-110326941D01*
X94343575Y-110525143D01*
X94324416Y-110621464D01*
X94307403Y-110881036D01*
X94304521Y-110925000D01*
X63868227Y-110925000D01*
X63891281Y-110857087D01*
X63891282Y-110857084D01*
X63893035Y-110851919D01*
X63923904Y-110639022D01*
X63924053Y-110633358D01*
X63925423Y-110581000D01*
X63925515Y-110577500D01*
X63905831Y-110363279D01*
X63864952Y-110218334D01*
X63848918Y-110161480D01*
X63848917Y-110161478D01*
X63847438Y-110156233D01*
X63752291Y-109963295D01*
X63623578Y-109790927D01*
X63599132Y-109768329D01*
X63485507Y-109663295D01*
X63451086Y-109605752D01*
X63453240Y-109538734D01*
X63490191Y-109484419D01*
X63577014Y-109412209D01*
X63581215Y-109408715D01*
X63718773Y-109243319D01*
X63823886Y-109055625D01*
X63851306Y-108974848D01*
X63891281Y-108857087D01*
X63891282Y-108857084D01*
X63893035Y-108851919D01*
X63904147Y-108775286D01*
X63923401Y-108642493D01*
X63923401Y-108642488D01*
X63923904Y-108639022D01*
X63924398Y-108620178D01*
X63925423Y-108581000D01*
X63925515Y-108577500D01*
X63905831Y-108363279D01*
X63847438Y-108156233D01*
X63752291Y-107963295D01*
X63623578Y-107790927D01*
X63519100Y-107694348D01*
X63469615Y-107648605D01*
X63465608Y-107644901D01*
X63442134Y-107630090D01*
X63288291Y-107533021D01*
X63288285Y-107533018D01*
X63283673Y-107530108D01*
X63278606Y-107528086D01*
X63278603Y-107528085D01*
X63088931Y-107452414D01*
X63088926Y-107452413D01*
X63083864Y-107450393D01*
X63014284Y-107436553D01*
X62878231Y-107409490D01*
X62878227Y-107409490D01*
X62872875Y-107408425D01*
X62760542Y-107406954D01*
X62663224Y-107405680D01*
X62663220Y-107405680D01*
X62657770Y-107405609D01*
X62652392Y-107406533D01*
X62652393Y-107406533D01*
X62451135Y-107441115D01*
X62451131Y-107441116D01*
X62445754Y-107442040D01*
X62440635Y-107443928D01*
X62440633Y-107443929D01*
X62249040Y-107514611D01*
X62243928Y-107516497D01*
X62239245Y-107519283D01*
X62239243Y-107519284D01*
X62197893Y-107543885D01*
X62059050Y-107626488D01*
X62017414Y-107663002D01*
X61901415Y-107764730D01*
X61901411Y-107764734D01*
X61897312Y-107768329D01*
X61862351Y-107812677D01*
X61767505Y-107932987D01*
X61767502Y-107932992D01*
X61764130Y-107937269D01*
X61663966Y-108127650D01*
X61653462Y-108161480D01*
X61613003Y-108291779D01*
X61575884Y-108347620D01*
X61514468Y-108374528D01*
X61448253Y-108363960D01*
X61398264Y-108319271D01*
X61384824Y-108288793D01*
X61348917Y-108161478D01*
X61347438Y-108156233D01*
X61252291Y-107963295D01*
X61123578Y-107790927D01*
X61019100Y-107694348D01*
X60969615Y-107648605D01*
X60965608Y-107644901D01*
X60942134Y-107630090D01*
X60788291Y-107533021D01*
X60788285Y-107533018D01*
X60783673Y-107530108D01*
X60778606Y-107528086D01*
X60778603Y-107528085D01*
X60588931Y-107452414D01*
X60588926Y-107452413D01*
X60583864Y-107450393D01*
X60514284Y-107436553D01*
X60378231Y-107409490D01*
X60378227Y-107409490D01*
X60372875Y-107408425D01*
X60260542Y-107406954D01*
X60163224Y-107405680D01*
X60163220Y-107405680D01*
X60157770Y-107405609D01*
X60152392Y-107406533D01*
X60152393Y-107406533D01*
X59951135Y-107441115D01*
X59951131Y-107441116D01*
X59945754Y-107442040D01*
X59940635Y-107443928D01*
X59940633Y-107443929D01*
X59749040Y-107514611D01*
X59743928Y-107516497D01*
X59739245Y-107519283D01*
X59739243Y-107519284D01*
X59697893Y-107543885D01*
X59559050Y-107626488D01*
X59517414Y-107663002D01*
X59401415Y-107764730D01*
X59401411Y-107764734D01*
X59397312Y-107768329D01*
X59362351Y-107812677D01*
X59267505Y-107932987D01*
X59267502Y-107932992D01*
X59264130Y-107937269D01*
X59163966Y-108127650D01*
X59153462Y-108161480D01*
X59113003Y-108291779D01*
X59100173Y-108333097D01*
X59074888Y-108546729D01*
X37820500Y-108546729D01*
X37820500Y-105939500D01*
X37839391Y-105875164D01*
X37873316Y-105845768D01*
X53404776Y-105845768D01*
X53421027Y-106127609D01*
X53475377Y-106404637D01*
X53476691Y-106408473D01*
X53476692Y-106408479D01*
X53498140Y-106471122D01*
X53566822Y-106671726D01*
X53568641Y-106675342D01*
X53568644Y-106675350D01*
X53594938Y-106727629D01*
X53693669Y-106923933D01*
X53695958Y-106927263D01*
X53695963Y-106927272D01*
X53851272Y-107153248D01*
X53851278Y-107153255D01*
X53853571Y-107156592D01*
X54043569Y-107365396D01*
X54260147Y-107546484D01*
X54315913Y-107581466D01*
X54495861Y-107694348D01*
X54495865Y-107694350D01*
X54499297Y-107696503D01*
X54502991Y-107698171D01*
X54502993Y-107698172D01*
X54752904Y-107811011D01*
X54752911Y-107811014D01*
X54756595Y-107812677D01*
X55027279Y-107892857D01*
X55306340Y-107935559D01*
X55310391Y-107935623D01*
X55310395Y-107935623D01*
X55447477Y-107937776D01*
X55588615Y-107939994D01*
X55592639Y-107939507D01*
X55592640Y-107939507D01*
X55864851Y-107906566D01*
X55864857Y-107906565D01*
X55868880Y-107906078D01*
X55872798Y-107905050D01*
X55872804Y-107905049D01*
X56013273Y-107868197D01*
X56141948Y-107834440D01*
X56145686Y-107832892D01*
X56145691Y-107832890D01*
X56399033Y-107727952D01*
X56402768Y-107726405D01*
X56406254Y-107724368D01*
X56406260Y-107724365D01*
X56643009Y-107586020D01*
X56643013Y-107586017D01*
X56646513Y-107583972D01*
X56816873Y-107450393D01*
X56865485Y-107412276D01*
X56865486Y-107412275D01*
X56868672Y-107409777D01*
X57065135Y-107207043D01*
X57232266Y-106979522D01*
X57366972Y-106731423D01*
X57368406Y-106727629D01*
X57465333Y-106471122D01*
X57465335Y-106471116D01*
X57466762Y-106467339D01*
X57529787Y-106192154D01*
X57554883Y-105910963D01*
X57555338Y-105867500D01*
X57553857Y-105845768D01*
X65444776Y-105845768D01*
X65461027Y-106127609D01*
X65515377Y-106404637D01*
X65516691Y-106408473D01*
X65516692Y-106408479D01*
X65538140Y-106471122D01*
X65606822Y-106671726D01*
X65608641Y-106675342D01*
X65608644Y-106675350D01*
X65634938Y-106727629D01*
X65733669Y-106923933D01*
X65735958Y-106927263D01*
X65735963Y-106927272D01*
X65891272Y-107153248D01*
X65891278Y-107153255D01*
X65893571Y-107156592D01*
X66083569Y-107365396D01*
X66300147Y-107546484D01*
X66355913Y-107581466D01*
X66535861Y-107694348D01*
X66535865Y-107694350D01*
X66539297Y-107696503D01*
X66542991Y-107698171D01*
X66542993Y-107698172D01*
X66792904Y-107811011D01*
X66792911Y-107811014D01*
X66796595Y-107812677D01*
X67067279Y-107892857D01*
X67346340Y-107935559D01*
X67350391Y-107935623D01*
X67350395Y-107935623D01*
X67487477Y-107937776D01*
X67628615Y-107939994D01*
X67632639Y-107939507D01*
X67632640Y-107939507D01*
X67904851Y-107906566D01*
X67904857Y-107906565D01*
X67908880Y-107906078D01*
X67912798Y-107905050D01*
X67912804Y-107905049D01*
X68053273Y-107868197D01*
X68181948Y-107834440D01*
X68185686Y-107832892D01*
X68185691Y-107832890D01*
X68439033Y-107727952D01*
X68442768Y-107726405D01*
X68446254Y-107724368D01*
X68446260Y-107724365D01*
X68683009Y-107586020D01*
X68683013Y-107586017D01*
X68686513Y-107583972D01*
X68856873Y-107450393D01*
X68905485Y-107412276D01*
X68905486Y-107412275D01*
X68908672Y-107409777D01*
X69105135Y-107207043D01*
X69272266Y-106979522D01*
X69406972Y-106731423D01*
X69408406Y-106727629D01*
X69505333Y-106471122D01*
X69505335Y-106471116D01*
X69506762Y-106467339D01*
X69569787Y-106192154D01*
X69594883Y-105910963D01*
X69595338Y-105867500D01*
X69593857Y-105845768D01*
X69576413Y-105589894D01*
X69576137Y-105585844D01*
X69571682Y-105564328D01*
X69519712Y-105313380D01*
X69518888Y-105309400D01*
X69424651Y-105043284D01*
X69295170Y-104792419D01*
X69132841Y-104561447D01*
X68940667Y-104354644D01*
X68722204Y-104175834D01*
X68701813Y-104163338D01*
X68649970Y-104131569D01*
X68481496Y-104028328D01*
X68463525Y-104020439D01*
X68226707Y-103916483D01*
X68222996Y-103914854D01*
X68119584Y-103885396D01*
X67955385Y-103838623D01*
X67955380Y-103838622D01*
X67951487Y-103837513D01*
X67947481Y-103836943D01*
X67947477Y-103836942D01*
X67676008Y-103798306D01*
X67676004Y-103798306D01*
X67671994Y-103797735D01*
X67516617Y-103796922D01*
X67393738Y-103796278D01*
X67393735Y-103796278D01*
X67389688Y-103796257D01*
X67385679Y-103796785D01*
X67385676Y-103796785D01*
X67293692Y-103808895D01*
X67109794Y-103833106D01*
X66837491Y-103907600D01*
X66577816Y-104018360D01*
X66574344Y-104020438D01*
X66574342Y-104020439D01*
X66557623Y-104030445D01*
X66335576Y-104163338D01*
X66332416Y-104165869D01*
X66332414Y-104165871D01*
X66316776Y-104178400D01*
X66115254Y-104339850D01*
X65920925Y-104544630D01*
X65756185Y-104773889D01*
X65624084Y-105023384D01*
X65527066Y-105288499D01*
X65466926Y-105564328D01*
X65466608Y-105568371D01*
X65445278Y-105839391D01*
X65444776Y-105845768D01*
X57553857Y-105845768D01*
X57536413Y-105589894D01*
X57536137Y-105585844D01*
X57531682Y-105564328D01*
X57479712Y-105313380D01*
X57478888Y-105309400D01*
X57384651Y-105043284D01*
X57255170Y-104792419D01*
X57092841Y-104561447D01*
X56900667Y-104354644D01*
X56682204Y-104175834D01*
X56661813Y-104163338D01*
X56609970Y-104131569D01*
X56441496Y-104028328D01*
X56423525Y-104020439D01*
X56186707Y-103916483D01*
X56182996Y-103914854D01*
X56079584Y-103885396D01*
X55915385Y-103838623D01*
X55915380Y-103838622D01*
X55911487Y-103837513D01*
X55907481Y-103836943D01*
X55907477Y-103836942D01*
X55636008Y-103798306D01*
X55636004Y-103798306D01*
X55631994Y-103797735D01*
X55476617Y-103796922D01*
X55353738Y-103796278D01*
X55353735Y-103796278D01*
X55349688Y-103796257D01*
X55345679Y-103796785D01*
X55345676Y-103796785D01*
X55253692Y-103808895D01*
X55069794Y-103833106D01*
X54797491Y-103907600D01*
X54537816Y-104018360D01*
X54534344Y-104020438D01*
X54534342Y-104020439D01*
X54517623Y-104030445D01*
X54295576Y-104163338D01*
X54292416Y-104165869D01*
X54292414Y-104165871D01*
X54276776Y-104178400D01*
X54075254Y-104339850D01*
X53880925Y-104544630D01*
X53716185Y-104773889D01*
X53584084Y-105023384D01*
X53487066Y-105288499D01*
X53426926Y-105564328D01*
X53426608Y-105568371D01*
X53405278Y-105839391D01*
X53404776Y-105845768D01*
X37873316Y-105845768D01*
X37890066Y-105831254D01*
X37939500Y-105820500D01*
X45056513Y-105820500D01*
X45073493Y-105814320D01*
X45093525Y-105808953D01*
X45095082Y-105808678D01*
X45111308Y-105805817D01*
X45126946Y-105796789D01*
X45145745Y-105788022D01*
X45152941Y-105785403D01*
X45162722Y-105781843D01*
X45170694Y-105775153D01*
X45170697Y-105775152D01*
X45176556Y-105770235D01*
X45193548Y-105758337D01*
X45200176Y-105754511D01*
X45200180Y-105754508D01*
X45209191Y-105749305D01*
X45220803Y-105735466D01*
X45235466Y-105720803D01*
X45249305Y-105709191D01*
X45254508Y-105700180D01*
X45254511Y-105700176D01*
X45258337Y-105693548D01*
X45270235Y-105676556D01*
X45275152Y-105670697D01*
X45275153Y-105670694D01*
X45281843Y-105662722D01*
X45288022Y-105645745D01*
X45296789Y-105626945D01*
X45300611Y-105620325D01*
X45305817Y-105611308D01*
X45308953Y-105593525D01*
X45314320Y-105573493D01*
X45320500Y-105556513D01*
X45320500Y-101464562D01*
X88299979Y-101464562D01*
X88313662Y-101701864D01*
X88365918Y-101933745D01*
X88367754Y-101938266D01*
X88367756Y-101938273D01*
X88421137Y-102069734D01*
X88455345Y-102153977D01*
X88579541Y-102356646D01*
X88735171Y-102536310D01*
X88738922Y-102539424D01*
X88738926Y-102539428D01*
X88903015Y-102675656D01*
X88918054Y-102688142D01*
X89123279Y-102808067D01*
X89345336Y-102892862D01*
X89578260Y-102940251D01*
X89815797Y-102948961D01*
X89820635Y-102948341D01*
X89820640Y-102948341D01*
X89933681Y-102933860D01*
X90051566Y-102918758D01*
X90056237Y-102917357D01*
X90056240Y-102917356D01*
X90191957Y-102876639D01*
X90279237Y-102850454D01*
X90492695Y-102745882D01*
X90686207Y-102607851D01*
X90854576Y-102440068D01*
X90886037Y-102396285D01*
X90990437Y-102250999D01*
X90990440Y-102250994D01*
X90993282Y-102247039D01*
X91098598Y-102033948D01*
X91167697Y-101806517D01*
X91198722Y-101570854D01*
X91200454Y-101500000D01*
X91180978Y-101263103D01*
X91123071Y-101032568D01*
X91028290Y-100814587D01*
X90899180Y-100615013D01*
X90870660Y-100583670D01*
X90742497Y-100442820D01*
X90742493Y-100442816D01*
X90739207Y-100439205D01*
X90705290Y-100412419D01*
X90556500Y-100294911D01*
X90556496Y-100294908D01*
X90552669Y-100291886D01*
X90513706Y-100270377D01*
X90476119Y-100249628D01*
X90344575Y-100177012D01*
X90120512Y-100097667D01*
X90115708Y-100096811D01*
X90115707Y-100096811D01*
X89891306Y-100056839D01*
X89891305Y-100056839D01*
X89886500Y-100055983D01*
X89881621Y-100055923D01*
X89881617Y-100055923D01*
X89773508Y-100054602D01*
X89648821Y-100053079D01*
X89413860Y-100089033D01*
X89409214Y-100090551D01*
X89409212Y-100090552D01*
X89390063Y-100096811D01*
X89187926Y-100162880D01*
X88977087Y-100272636D01*
X88787006Y-100415353D01*
X88783636Y-100418880D01*
X88783631Y-100418884D01*
X88626159Y-100583670D01*
X88622786Y-100587200D01*
X88488838Y-100783560D01*
X88388759Y-100999161D01*
X88325238Y-101228212D01*
X88299979Y-101464562D01*
X45320500Y-101464562D01*
X45320500Y-96939500D01*
X45339391Y-96875164D01*
X45390066Y-96831254D01*
X45439500Y-96820500D01*
X99560500Y-96820500D01*
X99624836Y-96839391D01*
G37*
%TD.AperFunction*%
%TD*%
M02*
