M48
; DRILL file {KiCad 6.0.11-2627ca5db0~126~ubuntu20.04.1} date Thu 15 Jun 2023 05:53:29 PM PDT
; FORMAT={-:-/ absolute / inch / decimal}
; #@! TF.CreationDate,2023-06-15T17:53:29-07:00
; #@! TF.GenerationSoftware,Kicad,Pcbnew,6.0.11-2627ca5db0~126~ubuntu20.04.1
; #@! TF.FileFunction,MixedPlating,1,4
FMAT,2
INCH
; #@! TA.AperFunction,Plated,PTH,ViaDrill
T1C0.0118
; #@! TA.AperFunction,Plated,PTH,ComponentDrill
T2C0.0335
; #@! TA.AperFunction,Plated,PTH,ComponentDrill
T3C0.0354
; #@! TA.AperFunction,Plated,PTH,ComponentDrill
T4C0.0362
; #@! TA.AperFunction,Plated,PTH,ComponentDrill
T5C0.0394
; #@! TA.AperFunction,Plated,PTH,ComponentDrill
T6C0.0591
; #@! TA.AperFunction,Plated,PTH,ComponentDrill
T7C0.0917
; #@! TA.AperFunction,NonPlated,NPTH,ComponentDrill
T8C0.0454
%
G90
G05
T1
X3.0374Y-3.6555
X3.0433Y-2.8287
X3.0433Y-3.5413
X3.0453Y-3.7539
X3.0512Y-5.1378
X3.061Y-4.0354
X3.063Y-3.1339
X3.0669Y-3.878
X3.0709Y-4.3602
X3.0846Y-3.0039
X3.0906Y-4.2224
X3.0906Y-4.7047
X3.1575Y-3.5295
X3.1614Y-4.1516
X3.1673Y-3.8406
X3.1732Y-3.0039
X3.1791Y-3.8937
X3.2539Y-2.5709
X3.2559Y-2.7205
X3.2598Y-2.7657
X3.2677Y-3.4783
X3.2795Y-2.9705
X3.2854Y-3.4173
X3.2953Y-3.2244
X3.2992Y-2.6535
X3.3169Y-4.9016
X3.3169Y-4.9803
X3.3268Y-4.7638
X3.3268Y-4.7933
X3.3268Y-4.8228
X3.3287Y-2.9547
X3.3287Y-3.0236
X3.3327Y-3.3406
X3.3366Y-4.6555
X3.3563Y-3.8543
X3.3563Y-4.1634
X3.3563Y-4.5768
X3.3563Y-4.9409
X3.3602Y-3.8937
X3.3858Y-4.2323
X3.4154Y-4.7441
X3.4154Y-4.8425
X3.4252Y-4.5079
X3.4744Y-4.2323
X3.5118Y-4.9923
X3.5157Y-3.874
X3.5276Y-3.5335
X3.5335Y-4.2323
X3.5374Y-3.8996
X3.5531Y-4.7933
X3.5531Y-5.5118
X3.561Y-3.5315
X3.561Y-3.874
X3.5827Y-4.6457
X3.5925Y-4.0157
X3.6024Y-4.2323
X3.6319Y-4.2618
X3.6417Y-4.2323
X3.6417Y-5.002
X3.7008Y-4.7441
X3.7008Y-4.8425
X3.7106Y-3.4843
X3.7106Y-3.7106
X3.7106Y-3.8287
X3.7106Y-4.0059
X3.7303Y-5.0787
X3.75Y-5.0
X3.7598Y-4.7441
X3.7598Y-4.8425
X3.7795Y-5.0787
X3.7992Y-5.5118
X3.8189Y-4.7638
X3.8189Y-4.7933
X3.8189Y-4.8228
X3.8386Y-5.2953
X3.9075Y-4.4685
X3.9665Y-4.4488
X3.9665Y-4.5768
X4.0256Y-4.3406
X4.0453Y-5.7185
X4.065Y-3.8878
X4.0945Y-3.1693
X4.1142Y-3.2579
X4.1142Y-3.3661
X4.1142Y-3.4744
X4.1142Y-3.5925
X4.1142Y-3.6614
X4.1142Y-3.9862
X4.1142Y-4.0748
X4.1142Y-4.1732
X4.1142Y-4.2815
X4.1142Y-4.3701
X4.1535Y-4.4488
X4.1634Y-4.3602
X4.1732Y-3.937
X4.1791Y-4.124
X4.2028Y-3.7087
X4.2028Y-3.8307
X4.2323Y-3.2579
X4.2421Y-4.4488
X4.252Y-3.8287
X4.2618Y-4.3898
X4.3209Y-4.4488
X4.3386Y-3.4528
X4.3504Y-3.2579
X4.3661Y-3.9882
X4.3701Y-2.6772
X4.3701Y-2.9429
X4.3701Y-4.6457
X4.3701Y-4.6949
X4.3701Y-4.7539
X4.3898Y-4.4488
X4.4035Y-3.5787
X4.4094Y-3.0315
X4.4094Y-4.5965
X4.4094Y-4.7343
X4.439Y-4.2106
X4.4449Y-3.876
X4.4488Y-4.3701
X4.4783Y-2.9232
X4.4783Y-3.7067
X4.4783Y-3.9685
X4.5039Y-4.1969
X4.5079Y-3.2185
X4.5118Y-3.7992
X4.5276Y-4.7343
X4.5453Y-4.3622
X4.5492Y-3.4508
X4.5669Y-4.6949
X4.5669Y-4.7441
X4.5728Y-4.6496
X4.5768Y-4.3917
X4.6102Y-4.3602
X4.626Y-4.4488
X4.6457Y-4.3917
X4.6654Y-3.2579
X4.6772Y-4.3602
X4.6949Y-4.1732
X4.7047Y-4.3878
X4.7047Y-4.4488
X4.7224Y-3.876
X4.7343Y-4.3917
X4.7539Y-3.8465
X4.7539Y-3.9673
X4.7539Y-4.1358
X4.7638Y-3.2579
X4.7677Y-4.3839
X4.7736Y-3.2087
X4.7815Y-4.1634
X4.7815Y-4.1929
X4.7835Y-4.1339
X4.7854Y-3.876
X4.813Y-3.813
X4.813Y-4.4488
X4.8228Y-3.3406
X4.8445Y-3.6614
X4.8622Y-3.122
X4.872Y-2.8996
X4.872Y-4.7539
X4.8917Y-3.2087
X4.9016Y-3.2579
X4.9016Y-3.3858
X4.9016Y-3.5236
X4.9016Y-3.6122
X4.9016Y-3.7205
X4.9016Y-3.9862
X4.9016Y-4.0748
X4.9016Y-4.1929
X4.9016Y-4.3209
X4.9016Y-4.439
X4.9016Y-4.5413
X4.9016Y-4.7539
X4.9311Y-4.7539
X4.9606Y-4.7343
X4.9705Y-3.1496
X5.0197Y-4.7343
X5.0394Y-3.1398
X5.0689Y-4.5965
X5.1083Y-2.9528
X5.1083Y-3.0118
X5.1083Y-3.0906
X5.1575Y-4.3012
X5.1575Y-4.5768
X5.1772Y-3.5138
X5.1772Y-3.7402
X5.1772Y-4.0453
T2
X3.2618Y-3.7516
X3.2618Y-3.8516
X3.2618Y-4.0516
X3.2618Y-4.1516
X3.2618Y-4.2516
T3
X3.2768Y-5.4291
X3.3768Y-5.4291
T4
X3.878Y-2.9361
X3.878Y-3.0149
X3.9764Y-2.9361
X3.9764Y-3.0149
T5
X4.4882Y-2.6969
X5.0591Y-4.3602
T6
X4.772Y-2.6067
X4.772Y-2.8067
X4.872Y-2.7067
X4.972Y-2.6067
X4.972Y-2.8067
T7
X3.6902Y-2.8294
X4.1642Y-2.8294
T8
X3.1063Y-2.6398
X3.1063Y-5.6575
X5.0984Y-5.2028
X5.1378Y-2.6004
T0
M30
