%TF.GenerationSoftware,KiCad,Pcbnew,6.0.9-8da3e8f707~117~ubuntu20.04.1*%
%TF.CreationDate,2022-12-05T14:07:03-08:00*%
%TF.ProjectId,coil_terminator,636f696c-5f74-4657-926d-696e61746f72,rev?*%
%TF.SameCoordinates,Original*%
%TF.FileFunction,Copper,L2,Bot*%
%TF.FilePolarity,Positive*%
%FSLAX46Y46*%
G04 Gerber Fmt 4.6, Leading zero omitted, Abs format (unit mm)*
G04 Created by KiCad (PCBNEW 6.0.9-8da3e8f707~117~ubuntu20.04.1) date 2022-12-05 14:07:03*
%MOMM*%
%LPD*%
G01*
G04 APERTURE LIST*
%TA.AperFunction,ComponentPad*%
%ADD10R,1.000000X1.000000*%
%TD*%
%TA.AperFunction,ComponentPad*%
%ADD11O,1.000000X1.000000*%
%TD*%
%TA.AperFunction,ViaPad*%
%ADD12C,0.600000*%
%TD*%
G04 APERTURE END LIST*
D10*
%TO.P,J2,1,Pin_1*%
%TO.N,/coil*%
X116500000Y-110350000D03*
D11*
%TO.P,J2,2,Pin_2*%
%TO.N,GND*%
X116500000Y-111620000D03*
%TD*%
D12*
%TO.N,GND*%
X109750000Y-113250000D03*
X110750000Y-108750000D03*
X115500000Y-113000000D03*
X109750000Y-108750000D03*
X110750000Y-113250000D03*
X117000000Y-113000000D03*
%TD*%
%TA.AperFunction,Conductor*%
%TO.N,GND*%
G36*
X116987808Y-107992787D02*
G01*
X116988502Y-107992925D01*
X116988503Y-107992925D01*
X117000000Y-107995212D01*
X117011495Y-107992925D01*
X117018777Y-107992925D01*
X117030441Y-107993498D01*
X117069838Y-107997378D01*
X117136510Y-108003945D01*
X117159384Y-108008495D01*
X117279437Y-108044912D01*
X117300981Y-108053836D01*
X117411618Y-108112973D01*
X117431014Y-108125933D01*
X117527988Y-108205517D01*
X117544483Y-108222012D01*
X117624067Y-108318986D01*
X117637026Y-108338381D01*
X117696164Y-108449019D01*
X117705089Y-108470566D01*
X117741504Y-108590613D01*
X117746055Y-108613492D01*
X117756502Y-108719559D01*
X117757075Y-108731223D01*
X117757075Y-108738505D01*
X117754788Y-108750000D01*
X117757075Y-108761497D01*
X117757075Y-108761498D01*
X117757213Y-108762192D01*
X117759500Y-108785408D01*
X117759500Y-113214592D01*
X117757213Y-113237808D01*
X117754788Y-113250000D01*
X117757075Y-113261495D01*
X117757075Y-113268777D01*
X117756502Y-113280441D01*
X117746055Y-113386508D01*
X117741504Y-113409387D01*
X117705089Y-113529434D01*
X117696164Y-113550981D01*
X117651511Y-113634521D01*
X117637027Y-113661618D01*
X117624067Y-113681014D01*
X117544483Y-113777988D01*
X117527988Y-113794483D01*
X117431014Y-113874067D01*
X117411619Y-113887026D01*
X117300981Y-113946164D01*
X117279437Y-113955088D01*
X117159384Y-113991505D01*
X117136510Y-113996055D01*
X117069838Y-114002622D01*
X117030441Y-114006502D01*
X117018777Y-114007075D01*
X117011495Y-114007075D01*
X117000000Y-114004788D01*
X116988503Y-114007075D01*
X116988502Y-114007075D01*
X116987808Y-114007213D01*
X116964592Y-114009500D01*
X109035408Y-114009500D01*
X109012192Y-114007213D01*
X109011498Y-114007075D01*
X109011497Y-114007075D01*
X109000000Y-114004788D01*
X108988505Y-114007075D01*
X108981223Y-114007075D01*
X108969559Y-114006502D01*
X108930162Y-114002622D01*
X108863490Y-113996055D01*
X108840616Y-113991505D01*
X108720563Y-113955088D01*
X108699019Y-113946164D01*
X108588381Y-113887026D01*
X108568986Y-113874067D01*
X108472012Y-113794483D01*
X108455517Y-113777988D01*
X108375933Y-113681014D01*
X108362973Y-113661618D01*
X108348489Y-113634521D01*
X108303836Y-113550981D01*
X108294911Y-113529434D01*
X108258496Y-113409387D01*
X108253945Y-113386508D01*
X108243498Y-113280441D01*
X108242925Y-113268777D01*
X108242925Y-113261495D01*
X108245212Y-113250000D01*
X108242787Y-113237808D01*
X108240500Y-113214592D01*
X108240500Y-110873688D01*
X115759500Y-110873688D01*
X115773454Y-110943839D01*
X115826609Y-111023391D01*
X115906161Y-111076546D01*
X115917654Y-111078832D01*
X115917656Y-111078833D01*
X115945619Y-111084395D01*
X115976312Y-111090500D01*
X117023688Y-111090500D01*
X117054381Y-111084395D01*
X117082344Y-111078833D01*
X117082346Y-111078832D01*
X117093839Y-111076546D01*
X117173391Y-111023391D01*
X117226546Y-110943839D01*
X117240500Y-110873688D01*
X117240500Y-109826312D01*
X117226546Y-109756161D01*
X117173391Y-109676609D01*
X117093839Y-109623454D01*
X117082346Y-109621168D01*
X117082344Y-109621167D01*
X117054381Y-109615605D01*
X117023688Y-109609500D01*
X115976312Y-109609500D01*
X115945619Y-109615605D01*
X115917656Y-109621167D01*
X115917654Y-109621168D01*
X115906161Y-109623454D01*
X115826609Y-109676609D01*
X115773454Y-109756161D01*
X115759500Y-109826312D01*
X115759500Y-110873688D01*
X108240500Y-110873688D01*
X108240500Y-108785408D01*
X108242787Y-108762192D01*
X108242925Y-108761498D01*
X108242925Y-108761497D01*
X108245212Y-108750000D01*
X108242925Y-108738505D01*
X108242925Y-108731223D01*
X108243498Y-108719559D01*
X108253945Y-108613492D01*
X108258496Y-108590613D01*
X108294911Y-108470566D01*
X108303836Y-108449019D01*
X108362974Y-108338381D01*
X108375933Y-108318986D01*
X108455517Y-108222012D01*
X108472012Y-108205517D01*
X108568986Y-108125933D01*
X108588382Y-108112973D01*
X108699019Y-108053836D01*
X108720563Y-108044912D01*
X108840616Y-108008495D01*
X108863490Y-108003945D01*
X108930162Y-107997378D01*
X108969559Y-107993498D01*
X108981223Y-107992925D01*
X108988505Y-107992925D01*
X109000000Y-107995212D01*
X109011497Y-107992925D01*
X109011498Y-107992925D01*
X109012192Y-107992787D01*
X109035408Y-107990500D01*
X116964592Y-107990500D01*
X116987808Y-107992787D01*
G37*
%TD.AperFunction*%
%TD*%
M02*
